<svg xmlns="http://www.w3.org/2000/svg" width="7274.3538296347015" height="5355.195975196522" viewBox="-5154.70182904653 -1975.412194947105 7274.3538296347015 5355.195975196522"><rect x="-1427.0126071405373" y="-1568.1095995619849" width="126" height="60" rx="8" ry="8" fill="rgba(0, 0, 0, 0)" stroke="rgba(0, 0, 0, 1)" stroke-width="2"></rect><text x="-1364.0126071405373" y="-1524.1095995619849" fill="rgba(0, 0, 0, 1)" font-size="32" text-anchor="middle" font-family="MiSans">aiChat</text><rect x="-1905.103728643824" y="-1508.9873315498758" width="188" height="60" rx="8" ry="8" fill="rgba(0, 0, 0, 0)" stroke="rgba(0, 0, 0, 1)" stroke-width="2"></rect><text x="-1811.103728643824" y="-1464.9873315498758" fill="rgba(0, 0, 0, 1)" font-size="32" text-anchor="middle" font-family="MiSans">聊天字符串</text><rect x="-953.5066635570915" y="-1671.457378212146" width="188" height="60" rx="8" ry="8" fill="rgba(0, 0, 0, 0)" stroke="rgba(0, 0, 0, 1)" stroke-width="2"></rect><text x="-859.5066635570915" y="-1627.457378212146" fill="rgba(0, 0, 0, 1)" font-size="32" text-anchor="middle" font-family="MiSans">返回字符串</text><rect x="-975.8922816621741" y="-1311.038775726745" width="220" height="60" rx="8" ry="8" fill="rgba(0, 0, 0, 0)" stroke="rgba(0, 0, 0, 1)" stroke-width="2"></rect><text x="-865.8922816621741" y="-1267.038775726745" fill="rgba(0, 0, 0, 1)" font-size="32" text-anchor="middle" font-family="MiSans">连接失败信息</text><rect x="-2041.530436254993" y="-1734.9295427578695" width="256.8756561279297" height="60" rx="8" ry="8" fill="rgba(0, 0, 0, 0)" stroke="rgba(0, 0, 0, 1)" stroke-width="2"></rect><text x="-1913.0926081910281" y="-1690.9295427578695" fill="rgba(0, 0, 0, 1)" font-size="32" text-anchor="middle" font-family="MiSans">system prompt</text><rect x="-1461.9375774789244" y="-1945.412194947105" width="156" height="60" rx="8" ry="8" fill="rgba(0, 0, 0, 0)" stroke="rgba(0, 0, 0, 1)" stroke-width="2"></rect><text x="-1383.9375774789244" y="-1901.412194947105" fill="rgba(0, 0, 0, 1)" font-size="32" text-anchor="middle" font-family="MiSans">记录历史</text><rect x="-507.5131095426541" y="-1666.1164361486112" width="188" height="60" rx="8" ry="8" fill="rgba(0, 0, 0, 0)" stroke="rgba(0, 0, 0, 1)" stroke-width="2"></rect><text x="-413.5131095426541" y="-1622.1164361486112" fill="rgba(0, 0, 0, 1)" font-size="32" text-anchor="middle" font-family="MiSans">格式转换器</text><rect x="-57.32474057804757" y="-1666.1425277359594" width="220" height="60" rx="8" ry="8" fill="rgba(0, 0, 0, 0)" stroke="rgba(0, 0, 0, 1)" stroke-width="2"></rect><text x="52.67525942195243" y="-1622.1425277359594" fill="rgba(0, 0, 0, 1)" font-size="32" text-anchor="middle" font-family="MiSans">其他类型格式</text><rect x="-532.277158819802" y="-1313.0284544139558" width="220" height="60" rx="8" ry="8" fill="rgba(0, 0, 0, 0)" stroke="rgba(0, 0, 0, 1)" stroke-width="2"></rect><text x="-422.277158819802" y="-1269.0284544139558" fill="rgba(0, 0, 0, 1)" font-size="32" text-anchor="middle" font-family="MiSans">格式失败信息</text><rect x="302.310877638465" y="338.3518968738428" width="209" height="60" rx="8" ry="8" fill="rgba(0, 0, 0, 0)" stroke="rgba(0, 0, 0, 1)" stroke-width="2"></rect><text x="406.810877638465" y="382.3518968738428" fill="rgba(0, 0, 0, 1)" font-size="32" text-anchor="middle" font-family="MiSans">aiChat-NPC</text><rect x="-799.7483915313111" y="511.76418483189764" width="220" height="60" rx="8" ry="8" fill="rgba(0, 0, 0, 0)" stroke="rgba(0, 0, 0, 1)" stroke-width="2"></rect><text x="-689.7483915313111" y="555.7641848318976" fill="rgba(0, 0, 0, 1)" font-size="32" text-anchor="middle" font-family="MiSans">游戏当前信息</text><rect x="-204.72093655384032" y="528.8976645958766" width="188" height="60" rx="8" ry="8" fill="rgba(0, 0, 0, 0)" stroke="rgba(0, 0, 0, 1)" stroke-width="2"></rect><text x="-110.72093655384032" y="572.8976645958766" fill="rgba(0, 0, 0, 1)" font-size="32" text-anchor="middle" font-family="MiSans">聊天字符串</text><rect x="-219.62152407369126" y="213.35911339178048" width="256.8756561279297" height="60" rx="8" ry="8" fill="rgba(0, 0, 0, 0)" stroke="rgba(0, 0, 0, 1)" stroke-width="2"></rect><text x="-91.18369600972642" y="257.3591133917805" fill="rgba(0, 0, 0, 1)" font-size="32" text-anchor="middle" font-family="MiSans">system prompt</text><rect x="-751.8105958104012" y="28.510137212907672" width="156" height="60" rx="8" ry="8" fill="rgba(0, 0, 0, 0)" stroke="rgba(0, 0, 0, 1)" stroke-width="2"></rect><text x="-673.8105958104012" y="72.51013721290767" fill="rgba(0, 0, 0, 1)" font-size="32" text-anchor="middle" font-family="MiSans">玩家信息</text><rect x="-814.4582833194515" y="-116.70746054539549" width="220" height="60" rx="8" ry="8" fill="rgba(0, 0, 0, 0)" stroke="rgba(0, 0, 0, 1)" stroke-width="2"></rect><text x="-704.4582833194515" y="-72.70746054539549" fill="rgba(0, 0, 0, 1)" font-size="32" text-anchor="middle" font-family="MiSans">游戏背景信息</text><rect x="-759.6212435441926" y="177.88183959868715" width="160" height="60" rx="8" ry="8" fill="rgba(0, 0, 0, 0)" stroke="rgba(0, 0, 0, 1)" stroke-width="2"></rect><text x="-679.6212435441926" y="221.88183959868715" fill="rgba(0, 0, 0, 1)" font-size="32" text-anchor="middle" font-family="MiSans">NPC信息</text><rect x="-846.2355500293605" y="329.5001503613549" width="252" height="60" rx="8" ry="8" fill="rgba(0, 0, 0, 0)" stroke="rgba(0, 0, 0, 1)" stroke-width="2"></rect><text x="-720.2355500293605" y="373.5001503613549" fill="rgba(0, 0, 0, 1)" font-size="32" text-anchor="middle" font-family="MiSans">职责与交互格式</text><rect x="435.82127824574366" y="143.8614346416401" width="156" height="60" rx="8" ry="8" fill="rgba(0, 0, 0, 0)" stroke="rgba(0, 0, 0, 1)" stroke-width="2"></rect><text x="513.8212782457437" y="187.8614346416401" fill="rgba(0, 0, 0, 1)" font-size="32" text-anchor="middle" font-family="MiSans">记录历史</text><rect x="-826.4053617037789" y="657.429315440403" width="252" height="60" rx="8" ry="8" fill="rgba(0, 0, 0, 0)" stroke="rgba(0, 0, 0, 1)" stroke-width="2"></rect><text x="-700.4053617037789" y="701.429315440403" fill="rgba(0, 0, 0, 1)" font-size="32" text-anchor="middle" font-family="MiSans">玩家做出的决策</text><rect x="-33.47551722578265" y="830.5722563391253" width="220" height="60" rx="8" ry="8" fill="rgba(0, 0, 0, 0)" stroke="rgba(0, 0, 0, 1)" stroke-width="2"></rect><text x="76.52448277421735" y="874.5722563391253" fill="rgba(0, 0, 0, 1)" font-size="32" text-anchor="middle" font-family="MiSans">心理活动信息</text><rect x="428.47665938304254" y="825.0685923654021" width="220" height="60" rx="8" ry="8" fill="rgba(0, 0, 0, 0)" stroke="rgba(0, 0, 0, 1)" stroke-width="2"></rect><text x="538.4766593830425" y="869.0685923654021" fill="rgba(0, 0, 0, 1)" font-size="32" text-anchor="middle" font-family="MiSans">行动决策信息</text><rect x="-826.9600314214731" y="799.6489999584012" width="284" height="60" rx="8" ry="8" fill="rgba(0, 0, 0, 0)" stroke="rgba(0, 0, 0, 1)" stroke-width="2"></rect><text x="-684.9600314214731" y="843.6489999584012" fill="rgba(0, 0, 0, 1)" font-size="32" text-anchor="middle" font-family="MiSans">回复格式引导信息</text><rect x="-1392.8272765384363" y="-1094.485618712891" width="92" height="60" rx="8" ry="8" fill="rgba(0, 0, 0, 0)" stroke="rgba(0, 0, 0, 1)" stroke-width="2"></rect><text x="-1346.8272765384363" y="-1050.485618712891" fill="rgba(0, 0, 0, 1)" font-size="32" text-anchor="middle" font-family="MiSans">人脑</text><rect x="-2028.2602482637994" y="-1094.0127827384595" width="284" height="60" rx="8" ry="8" fill="rgba(0, 0, 0, 0)" stroke="rgba(0, 0, 0, 1)" stroke-width="2"></rect><text x="-1886.2602482637994" y="-1050.0127827384595" fill="rgba(0, 0, 0, 1)" font-size="32" text-anchor="middle" font-family="MiSans">屏幕上显示的文字</text><rect x="-1011.4225156990533" y="-1091.5559943745768" width="284" height="60" rx="8" ry="8" fill="rgba(0, 0, 0, 0)" stroke="rgba(0, 0, 0, 1)" stroke-width="2"></rect><text x="-869.4225156990533" y="-1047.5559943745768" fill="rgba(0, 0, 0, 1)" font-size="32" text-anchor="middle" font-family="MiSans">通过键盘输入文字</text><rect x="819.1222768883238" y="1677.6358417960598" width="301" height="60" rx="8" ry="8" fill="rgba(0, 0, 0, 0)" stroke="rgba(0, 0, 0, 1)" stroke-width="2"></rect><text x="969.6222768883238" y="1721.6358417960598" fill="rgba(0, 0, 0, 1)" font-size="32" text-anchor="middle" font-family="MiSans">aiChat-世界迭代器</text><rect x="931.2008265765764" y="1336.3926204968775" width="156" height="60" rx="8" ry="8" fill="rgba(0, 0, 0, 0)" stroke="rgba(0, 0, 0, 1)" stroke-width="2"></rect><text x="1009.2008265765764" y="1380.3926204968775" fill="rgba(0, 0, 0, 1)" font-size="32" text-anchor="middle" font-family="MiSans">记录历史</text><rect x="-523.8345450978593" y="2196.067861146355" width="256.8756561279297" height="60" rx="8" ry="8" fill="rgba(0, 0, 0, 0)" stroke="rgba(0, 0, 0, 1)" stroke-width="2"></rect><text x="-395.39671703389445" y="2240.067861146355" fill="rgba(0, 0, 0, 1)" font-size="32" text-anchor="middle" font-family="MiSans">system prompt</text><rect x="-912.997223543917" y="2049.395325568911" width="156" height="60" rx="8" ry="8" fill="rgba(0, 0, 0, 0)" stroke="rgba(0, 0, 0, 1)" stroke-width="2"></rect><text x="-834.997223543917" y="2093.395325568911" fill="rgba(0, 0, 0, 1)" font-size="32" text-anchor="middle" font-family="MiSans">玩家信息</text><rect x="-969.4186956117019" y="1886.5233627695566" width="220" height="60" rx="8" ry="8" fill="rgba(0, 0, 0, 0)" stroke="rgba(0, 0, 0, 1)" stroke-width="2"></rect><text x="-859.4186956117019" y="1930.5233627695566" fill="rgba(0, 0, 0, 1)" font-size="32" text-anchor="middle" font-family="MiSans">游戏背景信息</text><rect x="-957.0980833475168" y="2223.3143910577464" width="160" height="60" rx="8" ry="8" fill="rgba(0, 0, 0, 0)" stroke="rgba(0, 0, 0, 1)" stroke-width="2"></rect><text x="-877.0980833475168" y="2267.3143910577464" fill="rgba(0, 0, 0, 1)" font-size="32" text-anchor="middle" font-family="MiSans">NPC信息</text><rect x="-1001.1959602153928" y="2376.1892409593484" width="252" height="60" rx="8" ry="8" fill="rgba(0, 0, 0, 0)" stroke="rgba(0, 0, 0, 1)" stroke-width="2"></rect><text x="-875.1959602153928" y="2420.1892409593484" fill="rgba(0, 0, 0, 1)" font-size="32" text-anchor="middle" font-family="MiSans">职责与交互格式</text><rect x="-58.20043334638308" y="1570.7372446579002" width="220" height="60" rx="8" ry="8" fill="rgba(0, 0, 0, 0)" stroke="rgba(0, 0, 0, 1)" stroke-width="2"></rect><text x="51.79956665361692" y="1614.7372446579002" fill="rgba(0, 0, 0, 1)" font-size="32" text-anchor="middle" font-family="MiSans">游戏当前信息</text><rect x="548.9353048716072" y="1436.035252163797" width="188" height="60" rx="8" ry="8" fill="rgba(0, 0, 0, 0)" stroke="rgba(0, 0, 0, 1)" stroke-width="2"></rect><text x="642.9353048716072" y="1480.035252163797" fill="rgba(0, 0, 0, 1)" font-size="32" text-anchor="middle" font-family="MiSans">聊天字符串</text><rect x="-910.1234260139531" y="2777.4160667356687" width="252" height="60" rx="8" ry="8" fill="rgba(0, 0, 0, 0)" stroke="rgba(0, 0, 0, 1)" stroke-width="2"></rect><text x="-784.1234260139531" y="2821.4160667356687" fill="rgba(0, 0, 0, 1)" font-size="32" text-anchor="middle" font-family="MiSans">玩家做出的决策</text><rect x="-140.2092635346836" y="1361.0841787519544" width="284" height="60" rx="8" ry="8" fill="rgba(0, 0, 0, 0)" stroke="rgba(0, 0, 0, 1)" stroke-width="2"></rect><text x="1.7907364653163995" y="1405.0841787519544" fill="rgba(0, 0, 0, 1)" font-size="32" text-anchor="middle" font-family="MiSans">回复格式引导信息</text><rect x="-2897.9790814697376" y="313.1506586964849" width="333" height="60" rx="8" ry="8" fill="rgba(0, 0, 0, 0)" stroke="rgba(0, 0, 0, 1)" stroke-width="2"></rect><text x="-2731.4790814697376" y="357.1506586964849" fill="rgba(0, 0, 0, 1)" font-size="32" text-anchor="middle" font-family="MiSans">aiChat-初始信息生成</text><rect x="-2891.8683235830513" y="34.409451918192644" width="316" height="60" rx="8" ry="8" fill="rgba(0, 0, 0, 0)" stroke="rgba(0, 0, 0, 1)" stroke-width="2"></rect><text x="-2733.8683235830513" y="78.40945191819264" fill="rgba(0, 0, 0, 1)" font-size="32" text-anchor="middle" font-family="MiSans">不记录历史，一次性</text><rect x="-3420.426905764365" y="107.08324173094235" width="256.8756561279297" height="60" rx="8" ry="8" fill="rgba(0, 0, 0, 0)" stroke="rgba(0, 0, 0, 1)" stroke-width="2"></rect><text x="-3291.9890777004002" y="151.08324173094235" fill="rgba(0, 0, 0, 1)" font-size="32" text-anchor="middle" font-family="MiSans">system prompt</text><rect x="-3929.1603789860796" y="-57.26833474862997" width="156" height="60" rx="8" ry="8" fill="rgba(0, 0, 0, 0)" stroke="rgba(0, 0, 0, 1)" stroke-width="2"></rect><text x="-3851.1603789860796" y="-13.268334748629968" fill="rgba(0, 0, 0, 1)" font-size="32" text-anchor="middle" font-family="MiSans">玩家信息</text><rect x="-3991.8080664951303" y="-236.08045667589846" width="220" height="60" rx="8" ry="8" fill="rgba(0, 0, 0, 0)" stroke="rgba(0, 0, 0, 1)" stroke-width="2"></rect><text x="-3881.8080664951303" y="-192.08045667589846" fill="rgba(0, 0, 0, 1)" font-size="32" text-anchor="middle" font-family="MiSans">游戏背景信息</text><rect x="-4018.970486814821" y="114.72301089339686" width="252" height="60" rx="8" ry="8" fill="rgba(0, 0, 0, 0)" stroke="rgba(0, 0, 0, 1)" stroke-width="2"></rect><text x="-3892.970486814821" y="158.72301089339686" fill="rgba(0, 0, 0, 1)" font-size="32" text-anchor="middle" font-family="MiSans">职责与交互格式</text><rect x="-3412.291226083349" y="504.69975077827604" width="188" height="60" rx="8" ry="8" fill="rgba(0, 0, 0, 0)" stroke="rgba(0, 0, 0, 1)" stroke-width="2"></rect><text x="-3318.291226083349" y="548.699750778276" fill="rgba(0, 0, 0, 1)" font-size="32" text-anchor="middle" font-family="MiSans">聊天字符串</text><rect x="-4046.2606129598007" y="511.91164674606756" width="284" height="60" rx="8" ry="8" fill="rgba(0, 0, 0, 0)" stroke="rgba(0, 0, 0, 1)" stroke-width="2"></rect><text x="-3904.2606129598007" y="555.9116467460676" fill="rgba(0, 0, 0, 1)" font-size="32" text-anchor="middle" font-family="MiSans">回复格式引导信息</text><rect x="-2037.9038531215583" y="325.85146637197954" width="348" height="60" rx="8" ry="8" fill="rgba(0, 0, 0, 0)" stroke="rgba(0, 0, 0, 1)" stroke-width="2"></rect><text x="-1863.9038531215583" y="369.85146637197954" fill="rgba(0, 0, 0, 1)" font-size="32" text-anchor="middle" font-family="MiSans">详细的游戏初始化信息</text><rect x="-2072.1417455132782" y="842.6616571050644" width="288" height="60" rx="8" ry="8" fill="rgba(0, 0, 0, 0)" stroke="rgba(0, 0, 0, 1)" stroke-width="2"></rect><text x="-1928.1417455132782" y="886.6616571050644" fill="rgba(0, 0, 0, 1)" font-size="32" text-anchor="middle" font-family="MiSans">NPC的初始化信息</text><rect x="-2777.576966651558" y="496.3970863207909" width="220" height="60" rx="8" ry="8" fill="rgba(0, 0, 0, 0)" stroke="rgba(0, 0, 0, 1)" stroke-width="2"></rect><text x="-2667.576966651558" y="540.3970863207909" fill="rgba(0, 0, 0, 1)" font-size="32" text-anchor="middle" font-family="MiSans">特点：随机化</text><rect x="-2952.107490459276" y="661.9852873035848" width="412" height="60" rx="8" ry="8" fill="rgba(0, 0, 0, 0)" stroke="rgba(0, 0, 0, 1)" stroke-width="2"></rect><text x="-2746.107490459276" y="705.9852873035848" fill="rgba(0, 0, 0, 1)" font-size="32" text-anchor="middle" font-family="MiSans">有可能是荒岛、废墟、密室</text><rect x="-167.35531297628575" y="1172.4500842557975" width="468" height="60" rx="8" ry="8" fill="rgba(0, 0, 0, 0)" stroke="rgba(0, 0, 0, 1)" stroke-width="2"></rect><text x="66.64468702371425" y="1216.4500842557975" fill="rgba(0, 0, 0, 1)" font-size="32" text-anchor="middle" font-family="MiSans">NPC做出的决策+当前心理状态</text><rect x="-5124.70182904653" y="516.851670536735" width="156" height="60" rx="8" ry="8" fill="rgba(0, 0, 0, 0)" stroke="rgba(0, 0, 0, 1)" stroke-width="2"></rect><text x="-5046.70182904653" y="560.851670536735" fill="rgba(0, 0, 0, 1)" font-size="32" text-anchor="middle" font-family="MiSans">玩家输入</text><rect x="-4588.585819489625" y="-147.36176722280675" width="156" height="60" rx="8" ry="8" fill="rgba(0, 0, 0, 0)" stroke="rgba(0, 0, 0, 1)" stroke-width="2"></rect><text x="-4510.585819489625" y="-103.36176722280675" fill="rgba(0, 0, 0, 1)" font-size="32" text-anchor="middle" font-family="MiSans">玩家姓名</text><rect x="-4488.247618412813" y="139.1182646500049" width="156" height="60" rx="8" ry="8" fill="rgba(0, 0, 0, 0)" stroke="rgba(0, 0, 0, 1)" stroke-width="2"></rect><text x="-4410.247618412813" y="183.1182646500049" fill="rgba(0, 0, 0, 1)" font-size="32" text-anchor="middle" font-family="MiSans">自我介绍</text><rect x="-4681.8406620888245" y="-387.66086789549763" width="156" height="60" rx="8" ry="8" fill="rgba(0, 0, 0, 0)" stroke="rgba(0, 0, 0, 1)" stroke-width="2"></rect><text x="-4603.8406620888245" y="-343.66086789549763" fill="rgba(0, 0, 0, 1)" font-size="32" text-anchor="middle" font-family="MiSans">难度等级</text><rect x="-4151.298244263554" y="-436.3629244982451" width="412" height="60" rx="8" ry="8" fill="rgba(0, 0, 0, 0)" stroke="rgba(0, 0, 0, 1)" stroke-width="2"></rect><text x="-3945.298244263554" y="-392.3629244982451" fill="rgba(0, 0, 0, 1)" font-size="32" text-anchor="middle" font-family="MiSans">系统写死：文字生存类游戏</text><rect x="-1528.7561090685592" y="1071.4881555499715" width="220" height="60" rx="8" ry="8" fill="rgba(0, 0, 0, 0)" stroke="rgba(0, 0, 0, 1)" stroke-width="2"></rect><text x="-1418.7561090685592" y="1115.4881555499715" fill="rgba(0, 0, 0, 1)" font-size="32" text-anchor="middle" font-family="MiSans">游戏当前信息</text><rect x="-1480.5901147515667" y="808.2530990779065" width="220" height="60" rx="8" ry="8" fill="rgba(0, 0, 0, 0)" stroke="rgba(0, 0, 0, 1)" stroke-width="2"></rect><text x="-1370.5901147515667" y="852.2530990779065" fill="rgba(0, 0, 0, 1)" font-size="32" text-anchor="middle" font-family="MiSans">游戏背景信息</text><rect x="1462.2294905483577" y="1570.895757048324" width="348" height="60" rx="8" ry="8" fill="rgba(0, 0, 0, 0)" stroke="rgba(0, 0, 0, 1)" stroke-width="2"></rect><text x="1636.2294905483577" y="1614.895757048324" fill="rgba(0, 0, 0, 1)" font-size="32" text-anchor="middle" font-family="MiSans">迭代后的游戏当前信息</text><rect x="1486.8955771807432" y="2194.054418843276" width="365" height="60" rx="8" ry="8" fill="rgba(0, 0, 0, 0)" stroke="rgba(0, 0, 0, 1)" stroke-width="2"></rect><text x="1669.3955771807432" y="2238.054418843276" fill="rgba(0, 0, 0, 1)" font-size="32" text-anchor="middle" font-family="MiSans">aiChat-游戏结束检查器</text><rect x="1700.0512666113964" y="3289.7837802494178" width="156" height="60" rx="8" ry="8" fill="rgba(0, 0, 0, 0)" stroke="rgba(0, 0, 0, 1)" stroke-width="2"></rect><text x="1778.0512666113964" y="3333.7837802494178" fill="rgba(0, 0, 0, 1)" font-size="32" text-anchor="middle" font-family="MiSans">游戏结束</text><rect x="146.31682978966552" y="2752.62394637037" width="461" height="60" rx="8" ry="8" fill="rgba(0, 0, 0, 0)" stroke="rgba(0, 0, 0, 1)" stroke-width="2"></rect><text x="376.8168297896655" y="2796.62394637037" fill="rgba(0, 0, 0, 1)" font-size="32" text-anchor="middle" font-family="MiSans">aiChat-玩家输入合理性检查器</text><rect x="240.0163108314984" y="2433.0440056703023" width="316" height="60" rx="8" ry="8" fill="rgba(0, 0, 0, 0)" stroke="rgba(0, 0, 0, 1)" stroke-width="2"></rect><text x="398.0163108314984" y="2477.0440056703023" fill="rgba(0, 0, 0, 1)" font-size="32" text-anchor="middle" font-family="MiSans">优化玩家输入的表述</text><rect x="333.2155898003285" y="3060.6632812136895" width="188" height="60" rx="8" ry="8" fill="rgba(0, 0, 0, 0)" stroke="rgba(0, 0, 0, 1)" stroke-width="2"></rect><text x="427.2155898003285" y="3104.6632812136895" fill="rgba(0, 0, 0, 1)" font-size="32" text-anchor="middle" font-family="MiSans">不通过原因</text><rect x="-1594.1817467481576" y="2895.0865410595356" width="92" height="60" rx="8" ry="8" fill="rgba(0, 0, 0, 0)" stroke="rgba(0, 0, 0, 1)" stroke-width="2"></rect><text x="-1548.1817467481576" y="2939.0865410595356" fill="rgba(0, 0, 0, 1)" font-size="32" text-anchor="middle" font-family="MiSans">玩家</text><rect x="1202.2816866111566" y="2490.8245926151963" width="284" height="60" rx="8" ry="8" fill="rgba(0, 0, 0, 0)" stroke="rgba(0, 0, 0, 1)" stroke-width="2"></rect><text x="1344.2816866111566" y="2534.8245926151963" fill="rgba(0, 0, 0, 1)" font-size="32" text-anchor="middle" font-family="MiSans">迭代后的游戏信息</text><rect x="1832.7763444602415" y="2014.3632622144762" width="256.8756561279297" height="60" rx="8" ry="8" fill="rgba(0, 0, 0, 0)" stroke="rgba(0, 0, 0, 1)" stroke-width="2"></rect><text x="1961.2141725242063" y="2058.363262214476" fill="rgba(0, 0, 0, 1)" font-size="32" text-anchor="middle" font-family="MiSans">system prompt</text><rect x="-128.59283269893706" y="2602.395531146372" width="256.8756561279297" height="60" rx="8" ry="8" fill="rgba(0, 0, 0, 0)" stroke="rgba(0, 0, 0, 1)" stroke-width="2"></rect><text x="-0.15500463497221517" y="2646.395531146372" fill="rgba(0, 0, 0, 1)" font-size="32" text-anchor="middle" font-family="MiSans">system prompt</text><rect x="-32.97292137204363" y="1794.6024953564825" width="220" height="60" rx="8" ry="8" fill="rgba(0, 0, 0, 0)" stroke="rgba(0, 0, 0, 1)" stroke-width="2"></rect><text x="77.02707862795637" y="1838.6024953564825" fill="rgba(0, 0, 0, 1)" font-size="32" text-anchor="middle" font-family="MiSans">玩家决策信息</text><rect x="1308.4677179228197" y="40.36290168450904" width="69" height="60" rx="8" ry="8" fill="rgba(0, 0, 0, 0)" stroke="rgba(0, 0, 0, 1)" stroke-width="2"></rect><text x="1342.9677179228197" y="84.36290168450904" fill="rgba(0, 0, 0, 1)" font-size="32" text-anchor="middle" font-family="MiSans">p0</text><rect x="1600.448432264944" y="-90.39100344110511" width="62" height="60" rx="8" ry="8" fill="rgba(0, 0, 0, 0)" stroke="rgba(0, 0, 0, 1)" stroke-width="2"></rect><text x="1631.448432264944" y="-46.39100344110511" fill="rgba(0, 0, 0, 1)" font-size="32" text-anchor="middle" font-family="MiSans">p1</text><line x1="-2721.0174126154025" y1="373.1506586964849" x2="-2678.038635505893" y2="496.3970863207909" stroke="rgba(0, 0, 0, 1)" stroke-width="2"></line><line x1="1636.530358304053" y1="2254.054418843276" x2="1377.1469054878469" y2="2490.8245926151963" stroke="rgba(0, 0, 0, 1)" stroke-width="2"></line><line x1="382.9332111104717" y1="2433.0440056703023" x2="92.11017834898315" y2="1854.6024953564825" stroke="rgba(0, 0, 0, 1)" stroke-width="2"></line><line x1="75.65752432206719" y1="890.5722563391253" x2="67.51164547586438" y2="1172.4500842557975" stroke="rgba(0, 0, 0, 1)" stroke-width="2"></line><line x1="-3766.970486814821" y1="143.1212792926012" x2="-3420.426905764365" y2="138.71596338132022" stroke="rgba(0, 0, 0, 1)" stroke-width="2"></line><line x1="-1867.6327594130887" y1="385.85146637197954" x2="-1924.4128392217478" y2="842.6616571050644" stroke="rgba(0, 0, 0, 1)" stroke-width="2"></line><line x1="161.79956665361692" y1="1575.6715647871167" x2="548.9353048716072" y2="1487.4550149624663" stroke="rgba(0, 0, 0, 1)" stroke-width="2"></line><line x1="-4432.585819489625" y1="-106.70508444814814" x2="-3929.1603789860796" y2="-37.925017523288574" stroke="rgba(0, 0, 0, 1)" stroke-width="2"></line><line x1="-1356.3681306251628" y1="868.2530990779065" x2="-873.6406797381057" y2="1886.5233627695566" stroke="rgba(0, 0, 0, 1)" stroke-width="2"></line><line x1="-595.8105958104012" y1="83.25705526094967" x2="-185.74092513447164" y2="213.35911339178048" stroke="rgba(0, 0, 0, 1)" stroke-width="2"></line><line x1="378.8068934646941" y1="2752.62394637037" x2="396.0262471564698" y2="2493.0440056703023" stroke="rgba(0, 0, 0, 1)" stroke-width="2"></line><line x1="-2681.8045245346" y1="556.3970863207909" x2="-2731.879932576234" y2="661.9852873035848" stroke="rgba(0, 0, 0, 1)" stroke-width="2"></line><line x1="-1592.313469720447" y1="2895.0865410595356" x2="-5002.57010607424" y2="576.851670536735" stroke="rgba(0, 0, 0, 1)" stroke-width="2"></line><line x1="497.7290677547413" y1="885.0685923654021" x2="107.39227865201542" y2="1172.4500842557975" stroke="rgba(0, 0, 0, 1)" stroke-width="2"></line><line x1="-414.25774400181285" y1="-1606.1164361486112" x2="-421.53252436064327" y2="-1313.0284544139558" stroke="rgba(0, 0, 0, 1)" stroke-width="2"></line><line x1="-1305.882285148305" y1="-1508.1095995619849" x2="-924.0226036544063" y2="-1311.038775726745" stroke="rgba(0, 0, 0, 1)" stroke-width="2"></line><line x1="-316.40744112268385" y1="2196.067861146355" x2="890.6330009771132" y2="1737.6358417960598" stroke="rgba(0, 0, 0, 1)" stroke-width="2"></line><line x1="-1300.8272765384363" y1="-1064.2033368200052" x2="-1011.4225156990533" y2="-1062.4273863047897" stroke="rgba(0, 0, 0, 1)" stroke-width="2"></line><line x1="-1330.3900584654543" y1="1131.4881555499715" x2="-36.566483949488024" y2="1570.7372446579002" stroke="rgba(0, 0, 0, 1)" stroke-width="2"></line><line x1="-4996.153939923011" y1="516.851670536735" x2="-4460.795507536332" y2="199.1182646500049" stroke="rgba(0, 0, 0, 1)" stroke-width="2"></line><line x1="1912.4941463161904" y1="2074.363262214476" x2="1718.1156033887596" y2="2194.054418843276" stroke="rgba(0, 0, 0, 1)" stroke-width="2"></line><line x1="1377.4677179228197" y1="54.72577413121323" x2="1600.448432264944" y2="-46.34025114683929" stroke="rgba(0, 0, 0, 1)" stroke-width="2"></line><line x1="1120.1222768883238" y1="1683.537118551929" x2="1462.2294905483577" y2="1628.7574038554917" stroke="rgba(0, 0, 0, 1)" stroke-width="2"></line><line x1="28.341902134823812" y1="273.3591133917805" x2="302.310877638465" y2="342.1232057092218" stroke="rgba(0, 0, 0, 1)" stroke-width="2"></line><line x1="-574.4053617037789" y1="659.9654935795959" x2="-204.72093655384032" y2="579.3865475713993" stroke="rgba(0, 0, 0, 1)" stroke-width="2"></line><line x1="-1871.79885712721" y1="842.6616571050644" x2="-735.9641319302607" y2="237.88183959868715" stroke="rgba(0, 0, 0, 1)" stroke-width="2"></line><line x1="75.1247286689877" y1="2662.395531146372" x2="301.53709648570555" y2="2752.62394637037" stroke="rgba(0, 0, 0, 1)" stroke-width="2"></line><line x1="-1717.103728643824" y1="-1491.4176682885072" x2="-1427.0126071405373" y2="-1529.7786291946043" stroke="rgba(0, 0, 0, 1)" stroke-width="2"></line><line x1="-319.5131095426541" y1="-1636.1216971318831" x2="-57.32474057804757" y2="-1636.136371266173" stroke="rgba(0, 0, 0, 1)" stroke-width="2"></line><line x1="381.72517307345083" y1="2812.62394637037" x2="422.3072465165432" y2="3060.6632812136895" stroke="rgba(0, 0, 0, 1)" stroke-width="2"></line><line x1="-3773.1603789860796" y1="-4.342582057224895" x2="-3394.0577003318076" y2="107.08324173094235" stroke="rgba(0, 0, 0, 1)" stroke-width="2"></line><line x1="-658.1234260139531" y1="2804.725310557294" x2="146.31682978966552" y2="2787.5463217601746" stroke="rgba(0, 0, 0, 1)" stroke-width="2"></line><line x1="423.31714731037084" y1="338.3518968738428" x2="497.3150085738378" y2="203.8614346416401" stroke="rgba(0, 0, 0, 1)" stroke-width="2"></line><line x1="-594.2355500293605" y1="336.2369319721923" x2="-219.62152407369126" y2="267.072424849572" stroke="rgba(0, 0, 0, 1)" stroke-width="2"></line><line x1="-1744.2602482637994" y1="-1064.137251786309" x2="-1392.8272765384363" y2="-1064.4452977537285" stroke="rgba(0, 0, 0, 1)" stroke-width="2"></line><line x1="-4525.8406620888245" y1="-341.28588406889213" x2="-3991.8080664951303" y2="-229.17338258521391" stroke="rgba(0, 0, 0, 1)" stroke-width="2"></line><line x1="-756.997223543917" y1="2105.4199947984034" x2="-485.3114044931382" y2="2196.067861146355" stroke="rgba(0, 0, 0, 1)" stroke-width="2"></line><line x1="-814.4472636194296" y1="1946.5233627695566" x2="-440.36814902616675" y2="2196.067861146355" stroke="rgba(0, 0, 0, 1)" stroke-width="2"></line><line x1="-1301.0126071405373" y1="-1551.015116608452" x2="-953.5066635570915" y2="-1622.2015273809093" stroke="rgba(0, 0, 0, 1)" stroke-width="2"></line><line x1="143.7907364653164" y1="1407.6842607754788" x2="548.9353048716072" y2="1455.046465472168" stroke="rgba(0, 0, 0, 1)" stroke-width="2"></line><line x1="-3762.2606129598007" y1="540.1639629073514" x2="-3412.291226083349" y2="535.8566682489754" stroke="rgba(0, 0, 0, 1)" stroke-width="2"></line><line x1="1637.8261667401089" y1="1630.895757048324" x2="1667.798900988992" y2="2194.054418843276" stroke="rgba(0, 0, 0, 1)" stroke-width="2"></line><line x1="132.23532200766437" y1="1232.4500842557975" x2="577.3446698876571" y2="1436.035252163797" stroke="rgba(0, 0, 0, 1)" stroke-width="2"></line><line x1="-4332.247618412813" y1="141.71975924179674" x2="-3929.1603789860796" y2="0.13017065957819796" stroke="rgba(0, 0, 0, 1)" stroke-width="2"></line><line x1="-1348.984917929875" y1="808.2530990779065" x2="-726.0634801411431" y2="-56.70746054539549" stroke="rgba(0, 0, 0, 1)" stroke-width="2"></line><line x1="1672.370463861462" y1="2254.054418843276" x2="1775.0763799306776" y2="3289.7837802494178" stroke="rgba(0, 0, 0, 1)" stroke-width="2"></line><line x1="-599.6212435441926" y1="212.7050904523068" x2="-219.62152407369126" y2="235.61551509369832" stroke="rgba(0, 0, 0, 1)" stroke-width="2"></line><line x1="-1379.6828646297693" y1="1071.4881555499715" x2="-728.821635970101" y2="571.7641848318976" stroke="rgba(0, 0, 0, 1)" stroke-width="2"></line><line x1="-1833.225241882028" y1="385.85146637197954" x2="-1401.2687259910967" y2="808.2530990779065" stroke="rgba(0, 0, 0, 1)" stroke-width="2"></line><line x1="124.37453467593215" y1="1794.6024953564825" x2="595.5878488236314" y2="1496.035252163797" stroke="rgba(0, 0, 0, 1)" stroke-width="2"></line><line x1="1302.1395316464022" y1="2490.8245926151963" x2="93.94172161837099" y2="1630.7372446579002" stroke="rgba(0, 0, 0, 1)" stroke-width="2"></line><line x1="-3226.385990996715" y1="504.69975077827604" x2="-2823.3843165563717" y2="373.1506586964849" stroke="rgba(0, 0, 0, 1)" stroke-width="2"></line><line x1="-29.23943942387905" y1="528.8976645958766" x2="325.32938050850373" y2="398.3518968738428" stroke="rgba(0, 0, 0, 1)" stroke-width="2"></line><line x1="-1365.596876948015" y1="-1568.1095995619849" x2="-1382.3533076714466" y2="-1885.412194947105" stroke="rgba(0, 0, 0, 1)" stroke-width="2"></line><line x1="-2564.9790814697376" y1="345.58812395468055" x2="-2037.9038531215583" y2="353.3042053814327" stroke="rgba(0, 0, 0, 1)" stroke-width="2"></line><line x1="-1905.303772509957" y1="902.6616571050644" x2="-899.9360563508379" y2="2223.3143910577464" stroke="rgba(0, 0, 0, 1)" stroke-width="2"></line><line x1="386.6804794227319" y1="398.3518968738428" x2="96.65488098995041" y2="830.5722563391253" stroke="rgba(0, 0, 0, 1)" stroke-width="2"></line><line x1="333.2155898003285" y1="3082.7842518728457" x2="-1502.1817467481576" y2="2928.9422362688847" stroke="rgba(0, 0, 0, 1)" stroke-width="2"></line><line x1="-1814.3490184502477" y1="-1674.9295427578695" x2="-1427.0126071405373" y2="-1557.2500825539603" stroke="rgba(0, 0, 0, 1)" stroke-width="2"></line><line x1="-2731.7362277461275" y1="313.1506586964849" x2="-2733.6111773066614" y2="94.40945191819264" stroke="rgba(0, 0, 0, 1)" stroke-width="2"></line><line x1="-3210.3881136346854" y1="167.08324173094235" x2="-2813.080045535452" y2="313.1506586964849" stroke="rgba(0, 0, 0, 1)" stroke-width="2"></line><line x1="-3830.245008555173" y1="-176.08045667589846" x2="-3343.5521356403574" y2="107.08324173094235" stroke="rgba(0, 0, 0, 1)" stroke-width="2"></line><line x1="-1502.1817467481576" y1="2918.00221035858" x2="-910.1234260139531" y2="2826.8209725687207" stroke="rgba(0, 0, 0, 1)" stroke-width="2"></line><line x1="-5022.48750369208" y1="516.851670536735" x2="-4534.800144844075" y2="-87.36176722280675" stroke="rgba(0, 0, 0, 1)" stroke-width="2"></line><line x1="-3935.7881490776776" y1="-376.3629244982451" x2="-3891.3181616810066" y2="-236.08045667589846" stroke="rgba(0, 0, 0, 1)" stroke-width="2"></line><line x1="-797.0980833475168" y1="2248.7893418356684" x2="-523.8345450978593" y2="2233.3327048209326" stroke="rgba(0, 0, 0, 1)" stroke-width="2"></line><line x1="414.92642717462394" y1="398.3518968738428" x2="530.3611098468836" y2="825.0685923654021" stroke="rgba(0, 0, 0, 1)" stroke-width="2"></line><line x1="-1845.993746878916" y1="385.85146637197954" x2="-1436.6662153112015" y2="1071.4881555499715" stroke="rgba(0, 0, 0, 1)" stroke-width="2"></line><line x1="-648.7172932524185" y1="-56.70746054539549" x2="-146.92468607675946" y2="213.35911339178048" stroke="rgba(0, 0, 0, 1)" stroke-width="2"></line><line x1="973.1017789459091" y1="1677.6358417960598" x2="1005.721324518991" y2="1396.3926204968775" stroke="rgba(0, 0, 0, 1)" stroke-width="2"></line><line x1="683.5006411376273" y1="1496.035252163797" x2="929.0569406223036" y2="1677.6358417960598" stroke="rgba(0, 0, 0, 1)" stroke-width="2"></line><line x1="-795.2833073676901" y1="2376.1892409593484" x2="-475.30936988159715" y2="2256.067861146355" stroke="rgba(0, 0, 0, 1)" stroke-width="2"></line><line x1="-579.7483915313111" y1="545.0190957309171" x2="-204.72093655384032" y2="556.116195282169" stroke="rgba(0, 0, 0, 1)" stroke-width="2"></line><line x1="-765.5066635570915" y1="-1640.331692539218" x2="-507.5131095426541" y2="-1637.2421218215393" stroke="rgba(0, 0, 0, 1)" stroke-width="2"></line><line x1="-621.3327446974297" y1="799.6489999584012" x2="-174.3482232778838" y2="588.8976645958766" stroke="rgba(0, 0, 0, 1)" stroke-width="2"></line></svg>