<svg xmlns="http://www.w3.org/2000/svg" width="3471.4426798873556" height="3490.727021344573" viewBox="-881.5678760336199 115.27297865542693 3471.4426798873556 3490.727021344573" style="background-color:rgba(31, 31, 31, 1)"><rect x="1711.0" y="1289.7" width="324.9" height="76.0" rx="8" ry="8" fill="rgba(0, 0, 0, 0)" stroke="rgba(204, 204, 204, 1)" stroke-width="2"></rect><text x="1725.0" y="1341.7" fill="rgba(255, 255, 255, 1)" font-size="32" text-anchor="start" font-family="MiSans">✨ 希望增加更多节点类型及设置</text><rect x="1351.0" y="786.1" width="495.9" height="76.0" rx="8" ry="8" fill="rgba(0, 0, 0, 0)" stroke="rgba(204, 204, 204, 1)" stroke-width="2"></rect><text x="1365.0" y="838.1" fill="rgba(255, 255, 255, 1)" font-size="32" text-anchor="start" font-family="MiSans">✨ 希望使用逻辑节点时可以在旁添加可使用函数列表</text><rect x="188.1" y="557.8" width="542.9" height="76.0" rx="8" ry="8" fill="rgba(0, 0, 0, 0)" stroke="rgba(204, 204, 204, 1)" stroke-width="2"></rect><text x="202.1" y="609.8" fill="rgba(255, 255, 255, 1)" font-size="32" text-anchor="start" font-family="MiSans">✨希望连接线可以分组，并提供基于连接线分组的管理功能</text><rect x="1350.7" y="225.3" width="172.9" height="76.0" rx="8" ry="8" fill="rgba(0, 0, 0, 0)" stroke="rgba(204, 204, 204, 1)" stroke-width="2"></rect><text x="1364.7" y="277.3" fill="rgba(255, 255, 255, 1)" font-size="32" text-anchor="start" font-family="MiSans">✨ 多文件联动</text><rect x="373.0" y="450.2" width="419.9" height="76.0" rx="8" ry="8" fill="rgba(0, 0, 0, 0)" stroke="rgba(204, 204, 204, 1)" stroke-width="2"></rect><text x="387.0" y="502.2" fill="rgba(255, 255, 255, 1)" font-size="32" text-anchor="start" font-family="MiSans">✨ 如果引入间隔重复系统，可能会很有价值</text><rect x="1398.0" y="1649.4" width="514.9" height="76.0" rx="8" ry="8" fill="rgba(0, 0, 0, 0)" stroke="rgba(204, 204, 204, 1)" stroke-width="2"></rect><text x="1412.0" y="1701.4" fill="rgba(255, 255, 255, 1)" font-size="32" text-anchor="start" font-family="MiSans">✨ 利用方向鍵進行自由導航或依有向邊進行有向圖導航</text><rect x="1350.7" y="461.0" width="277.9" height="76.0" rx="8" ry="8" fill="rgba(0, 0, 0, 0)" stroke="rgba(204, 204, 204, 1)" stroke-width="2"></rect><text x="1364.7" y="513.0" fill="rgba(255, 255, 255, 1)" font-size="32" text-anchor="start" font-family="MiSans">✨ 导出为mermaid</text><rect x="626.8" y="986.6" width="210.9" height="76.0" rx="8" ry="8" fill="rgba(0, 0, 0, 0)" stroke="rgba(204, 204, 204, 1)" stroke-width="2"></rect><text x="640.8" y="1038.6" fill="rgba(255, 255, 255, 1)" font-size="32" text-anchor="start" font-family="MiSans">✨ 支持分支与合并</text><rect x="2317.0" y="1896.5" width="210.9" height="76.0" rx="8" ry="8" fill="rgba(0, 0, 0, 0)" stroke="rgba(204, 204, 204, 1)" stroke-width="2"></rect><text x="2331.0" y="1948.5" fill="rgba(255, 255, 255, 1)" font-size="32" text-anchor="start" font-family="MiSans">✨ 支持触控板操作</text><rect x="1351.0" y="950.0" width="339.9" height="76.0" rx="8" ry="8" fill="rgba(0, 0, 0, 0)" stroke="rgba(204, 204, 204, 1)" stroke-width="2"></rect><text x="1365.0" y="1002.0" fill="rgba(255, 255, 255, 1)" font-size="32" text-anchor="start" font-family="MiSans">✨ 针对Linux系统的性能优化</text><rect x="873.1" y="786.1" width="248.9" height="76.0" rx="8" ry="8" fill="rgba(0, 0, 0, 0)" stroke="rgba(204, 204, 204, 1)" stroke-width="2"></rect><text x="887.1" y="838.1" fill="rgba(255, 255, 255, 1)" font-size="32" text-anchor="start" font-family="MiSans">✨ 节点和连线支持换行</text><rect x="2092.1" y="1205.5" width="286.9" height="76.0" rx="8" ry="8" fill="rgba(0, 0, 0, 0)" stroke="rgba(204, 204, 204, 1)" stroke-width="2"></rect><text x="2106.1" y="1257.5" fill="rgba(255, 255, 255, 1)" font-size="32" text-anchor="start" font-family="MiSans">✨ 连线支持自定义颜色设置</text><rect x="1774.5" y="1896.5" width="343.9" height="76.0" rx="8" ry="8" fill="rgba(0, 0, 0, 0)" stroke="rgba(204, 204, 204, 1)" stroke-width="2"></rect><text x="1788.5" y="1948.5" fill="rgba(255, 255, 255, 1)" font-size="32" text-anchor="start" font-family="MiSans">✨ 使用数字键来进行节点间的移动</text><rect x="1389.4" y="1205.5" width="488.3" height="76.0" rx="8" ry="8" fill="rgba(0, 0, 0, 0)" stroke="rgba(204, 204, 204, 1)" stroke-width="2"></rect><text x="1403.4" y="1257.5" fill="rgba(255, 255, 255, 1)" font-size="32" text-anchor="start" font-family="MiSans">Feature:希望文件路径能够作为节点的属性设置</text><rect x="460.5" y="1314.7" width="436.9" height="76.0" rx="8" ry="8" fill="rgba(0, 0, 0, 0)" stroke="rgba(204, 204, 204, 1)" stroke-width="2"></rect><text x="474.5" y="1366.7" fill="rgba(255, 255, 255, 1)" font-size="32" text-anchor="start" font-family="MiSans">✨ 新增指令系统，以便在未来更好的训练AI</text><rect x="-851.6" y="1374.9" width="457.9" height="76.0" rx="8" ry="8" fill="rgba(0, 0, 0, 0)" stroke="rgba(204, 204, 204, 1)" stroke-width="2"></rect><text x="-837.6" y="1426.9" fill="rgba(255, 255, 255, 1)" font-size="32" text-anchor="start" font-family="MiSans">✨ 增加快速窗口内容隐藏，只显示顶部窗口功能</text><rect x="1351.0" y="873.6" width="267.9" height="76.0" rx="8" ry="8" fill="rgba(0, 0, 0, 0)" stroke="rgba(204, 204, 204, 1)" stroke-width="2"></rect><text x="1365.0" y="925.6" fill="rgba(255, 255, 255, 1)" font-size="32" text-anchor="start" font-family="MiSans">✨ 降低删除线误触发概率</text><rect x="1389.4" y="1289.7" width="191.9" height="76.0" rx="8" ry="8" fill="rgba(0, 0, 0, 0)" stroke="rgba(204, 204, 204, 1)" stroke-width="2"></rect><text x="1403.4" y="1341.7" fill="rgba(255, 255, 255, 1)" font-size="32" text-anchor="start" font-family="MiSans">✨ 网页链接节点</text><rect x="2317.0" y="1649.4" width="212.9" height="76.0" rx="8" ry="8" fill="rgba(0, 0, 0, 0)" stroke="rgba(204, 204, 204, 1)" stroke-width="2"></rect><text x="2331.0" y="1701.4" fill="rgba(255, 255, 255, 1)" font-size="32" text-anchor="start" font-family="MiSans">✨ UI面板的优化</text><rect x="-851.6" y="1289.7" width="388.9" height="76.0" rx="8" ry="8" fill="rgba(0, 0, 0, 0)" stroke="rgba(204, 204, 204, 1)" stroke-width="2"></rect><text x="-837.6" y="1341.7" fill="rgba(255, 255, 255, 1)" font-size="32" text-anchor="start" font-family="MiSans">✨ 支持“组合”与“隐藏”以及大纲面板</text><rect x="613.5" y="2034.2" width="191.9" height="76.0" rx="8" ry="8" fill="rgba(0, 0, 0, 0)" stroke="rgba(204, 204, 204, 1)" stroke-width="2"></rect><text x="627.5" y="2086.2" fill="rgba(255, 255, 255, 1)" font-size="32" text-anchor="start" font-family="MiSans">✨ 图论高亮功能</text><rect x="613.5" y="1934.2" width="248.9" height="76.0" rx="8" ry="8" fill="rgba(0, 0, 0, 0)" stroke="rgba(204, 204, 204, 1)" stroke-width="2"></rect><text x="627.5" y="1986.2" fill="rgba(255, 255, 255, 1)" font-size="32" text-anchor="start" font-family="MiSans">✨ 更好的节点颜色管理</text><rect x="1398.0" y="1996.5" width="229.9" height="76.0" rx="8" ry="8" fill="rgba(0, 0, 0, 0)" stroke="rgba(204, 204, 204, 1)" stroke-width="2"></rect><text x="1412.0" y="2048.5" fill="rgba(255, 255, 255, 1)" font-size="32" text-anchor="start" font-family="MiSans">✨ 完善自环的碰撞箱</text><rect x="-60.4" y="1551.1" width="438.9" height="76.0" rx="8" ry="8" fill="rgba(0, 0, 0, 0)" stroke="rgba(204, 204, 204, 1)" stroke-width="2"></rect><text x="-46.4" y="1603.1" fill="rgba(255, 255, 255, 1)" font-size="32" text-anchor="start" font-family="MiSans">✨ 支持拖入其他类型文件进入程序窗口的功能</text><rect x="-488.4" y="1805.6" width="324.9" height="76.0" rx="8" ry="8" fill="rgba(0, 0, 0, 0)" stroke="rgba(204, 204, 204, 1)" stroke-width="2"></rect><text x="-474.4" y="1857.6" fill="rgba(255, 255, 255, 1)" font-size="32" text-anchor="start" font-family="MiSans">✨ 支持右键斩断线对图片的切分</text><rect x="-491.4" y="1896.5" width="305.9" height="76.0" rx="8" ry="8" fill="rgba(0, 0, 0, 0)" stroke="rgba(204, 204, 204, 1)" stroke-width="2"></rect><text x="-477.4" y="1948.5" fill="rgba(255, 255, 255, 1)" font-size="32" text-anchor="start" font-family="MiSans">✨ 支持将多个图片拖入舞台中</text><rect x="1398.0" y="1896.5" width="248.9" height="76.0" rx="8" ry="8" fill="rgba(0, 0, 0, 0)" stroke="rgba(204, 204, 204, 1)" stroke-width="2"></rect><text x="1412.0" y="1948.5" fill="rgba(255, 255, 255, 1)" font-size="32" text-anchor="start" font-family="MiSans">✨ 简化鼠标中键的操作</text><rect x="613.5" y="2138.0" width="412.9" height="76.0" rx="8" ry="8" fill="rgba(0, 0, 0, 0)" stroke="rgba(204, 204, 204, 1)" stroke-width="2"></rect><text x="627.5" y="2190.0" fill="rgba(255, 255, 255, 1)" font-size="32" text-anchor="start" font-family="MiSans">✨ 导入 Git 仓库，可视化观看项目进展</text><rect x="1748.9" y="1996.5" width="237.0" height="76.0" rx="8" ry="8" fill="rgba(0, 0, 0, 0)" stroke="rgba(204, 204, 204, 1)" stroke-width="2"></rect><text x="1762.9" y="2048.5" fill="rgba(255, 255, 255, 1)" font-size="32" text-anchor="start" font-family="MiSans">补充鼠标连接节点的操作</text><rect x="0.0" y="3500.0" width="191.9" height="76.0" rx="8" ry="8" fill="rgba(0, 0, 0, 0)" stroke="rgba(204, 204, 204, 1)" stroke-width="2"></rect><text x="14.0" y="3552.0" fill="rgba(255, 255, 255, 1)" font-size="32" text-anchor="start" font-family="MiSans">✨ 窗口状态记忆</text><rect x="393.1" y="262.4" width="286.9" height="76.0" rx="8" ry="8" fill="rgba(0, 0, 0, 0)" stroke="rgba(204, 204, 204, 1)" stroke-width="2"></rect><text x="407.1" y="314.4" fill="rgba(255, 255, 255, 1)" font-size="32" text-anchor="start" font-family="MiSans">✨ 加入貼上任意檔案的能力</text><rect x="1351.0" y="686.5" width="396.9" height="76.0" rx="8" ry="8" fill="rgba(0, 0, 0, 0)" stroke="rgba(204, 204, 204, 1)" stroke-width="2"></rect><text x="1365.0" y="738.5" fill="rgba(255, 255, 255, 1)" font-size="32" text-anchor="start" font-family="MiSans">✨ 增加shift锁定移动推移节点的功能</text><rect x="1389.4" y="1374.9" width="738.9" height="76.0" rx="8" ry="8" fill="rgba(0, 0, 0, 0)" stroke="rgba(204, 204, 204, 1)" stroke-width="2"></rect><text x="1403.4" y="1426.9" fill="rgba(255, 255, 255, 1)" font-size="32" text-anchor="start" font-family="MiSans">✨ 增加一个节点的截止日期设置，变成一个高级的拓扑型的TODO LIST</text><rect x="1398.0" y="1822.9" width="704.9" height="76.0" rx="8" ry="8" fill="rgba(0, 0, 0, 0)" stroke="rgba(204, 204, 204, 1)" stroke-width="2"></rect><text x="1412.0" y="1874.9" fill="rgba(255, 255, 255, 1)" font-size="32" text-anchor="start" font-family="MiSans">✨ 对于上方菜单栏中一些常用功能提供快捷键，以及设置中快捷键自定义绑定</text><rect x="1398.0" y="1739.5" width="798.9" height="76.0" rx="8" ry="8" fill="rgba(0, 0, 0, 0)" stroke="rgba(204, 204, 204, 1)" stroke-width="2"></rect><text x="1412.0" y="1791.5" fill="rgba(255, 255, 255, 1)" font-size="32" text-anchor="start" font-family="MiSans">✨ 选中一个后，按tab增加连接的下一级，按回车增加并列的一格（参考xmind）</text><rect x="2156.0" y="1996.5" width="286.9" height="76.0" rx="8" ry="8" fill="rgba(0, 0, 0, 0)" stroke="rgba(204, 204, 204, 1)" stroke-width="2"></rect><text x="2170.0" y="2048.5" fill="rgba(255, 255, 255, 1)" font-size="32" text-anchor="start" font-family="MiSans">✨ 快速创建节点的快捷提升</text><rect x="562.8" y="1236.0" width="324.9" height="76.0" rx="8" ry="8" fill="rgba(0, 0, 0, 0)" stroke="rgba(204, 204, 204, 1)" stroke-width="2"></rect><text x="576.8" y="1288.0" fill="rgba(255, 255, 255, 1)" font-size="32" text-anchor="start" font-family="MiSans">✨ 增加节点框文本自动换行功能</text><rect x="1350.7" y="309.1" width="369.4" height="76.0" rx="8" ry="8" fill="rgba(0, 0, 0, 0)" stroke="rgba(204, 204, 204, 1)" stroke-width="2"></rect><text x="1364.7" y="361.1" fill="rgba(255, 255, 255, 1)" font-size="32" text-anchor="start" font-family="MiSans">✨ 文字节点内渲染 LaTeX 公式</text><rect x="-111.4" y="726.5" width="329.9" height="76.0" rx="8" ry="8" fill="rgba(0, 0, 0, 0)" stroke="rgba(204, 204, 204, 1)" stroke-width="2"></rect><text x="-97.4" y="778.5" fill="rgba(255, 255, 255, 1)" font-size="32" text-anchor="start" font-family="MiSans">✨ 实现双箭头线 &quot;&lt;----&gt;&quot;</text><rect x="-563.6" y="928.4" width="286.9" height="76.0" rx="8" ry="8" fill="rgba(0, 0, 0, 0)" stroke="rgba(204, 204, 204, 1)" stroke-width="2"></rect><text x="-549.6" y="980.4" fill="rgba(255, 255, 255, 1)" font-size="32" text-anchor="start" font-family="MiSans">✨ 实现更多的导入导出格式</text><rect x="-563.6" y="1036.5" width="395.9" height="76.0" rx="8" ry="8" fill="rgba(0, 0, 0, 0)" stroke="rgba(204, 204, 204, 1)" stroke-width="2"></rect><text x="-549.6" y="1088.5" fill="rgba(255, 255, 255, 1)" font-size="32" text-anchor="start" font-family="MiSans">✨ 导出成PNG，SVG等图片格式</text><rect x="1350.7" y="389.9" width="267.9" height="76.0" rx="8" ry="8" fill="rgba(0, 0, 0, 0)" stroke="rgba(204, 204, 204, 1)" stroke-width="2"></rect><text x="1364.7" y="441.9" fill="rgba(255, 255, 255, 1)" font-size="32" text-anchor="start" font-family="MiSans">✨ 希望添加多标签页功能</text><rect x="1359.4" y="1125.5" width="1049.6" height="355.4" rx="8" ry="8" fill="rgba(0, 0, 0, 0)" stroke="rgba(204, 204, 204, 1)" stroke-width="2"></rect><text x="1373.4" y="1155.5" fill="rgba(204, 204, 204, 1)" font-size="32" text-anchor="start" font-family="MiSans">添加新的节点/修改已有节点的字段</text><rect x="1368.0" y="1569.4" width="1191.9" height="533.1" rx="8" ry="8" fill="rgba(0, 0, 0, 0)" stroke="rgba(204, 204, 204, 1)" stroke-width="2"></rect><text x="1382.0" y="1599.4" fill="rgba(204, 204, 204, 1)" font-size="32" text-anchor="start" font-family="MiSans">操作相关</text><rect x="1320.7" y="145.3" width="429.4" height="421.8" rx="8" ry="8" fill="rgba(0, 0, 0, 0)" stroke="rgba(204, 204, 204, 1)" stroke-width="2"></rect><text x="1334.7" y="175.3" fill="rgba(204, 204, 204, 1)" font-size="32" text-anchor="start" font-family="MiSans">双链笔记</text><rect x="1321.0" y="606.5" width="555.9" height="449.6" rx="8" ry="8" fill="rgba(0, 0, 0, 0)" stroke="rgba(204, 204, 204, 1)" stroke-width="2"></rect><text x="1335.0" y="636.5" fill="rgba(204, 204, 204, 1)" font-size="32" text-anchor="start" font-family="MiSans">用户体验</text><rect x="583.5" y="1854.2" width="472.9" height="389.8" rx="8" ry="8" fill="rgba(0, 0, 0, 0)" stroke="rgba(204, 204, 204, 1)" stroke-width="2"></rect><text x="597.5" y="1884.2" fill="rgba(204, 204, 204, 1)" font-size="32" text-anchor="start" font-family="MiSans">项目工程管理方向</text></svg>