<svg xmlns="http://www.w3.org/2000/svg" width="2385.68439764528" height="1694.8674439486606" viewBox="-1338.083229691768 -717.3884001089243 2385.68439764528 1694.8674439486606" style="background-color:rgba(31, 31, 31, 1)"><rect x="-256.1220179706863" y="-203.4930308266472" width="194" height="60" rx="8" ry="8" fill="rgba(0, 0, 0, 0)" stroke="rgba(204, 204, 204, 1)" stroke-width="2"></rect><text x="-159.12201797068627" y="-159.4930308266472" fill="rgba(255, 255, 255, 1)" font-size="32" text-anchor="middle" font-family="MiSans">class Core</text><rect x="32.337387439067726" y="-499.9915202968595" width="237" height="60" rx="8" ry="8" fill="rgba(0, 0, 0, 0)" stroke="rgba(204, 204, 204, 1)" stroke-width="2"></rect><text x="150.83738743906773" y="-455.9915202968595" fill="rgba(255, 255, 255, 1)" font-size="32" text-anchor="middle" font-family="MiSans">disposables[]</text><rect x="84.0674279156373" y="-332.0916759905181" width="196" height="60" rx="8" ry="8" fill="rgba(0, 0, 0, 0)" stroke="rgba(204, 204, 204, 1)" stroke-width="2"></rect><text x="182.0674279156373" y="-288.0916759905181" fill="rgba(255, 255, 255, 1)" font-size="32" text-anchor="middle" font-family="MiSans">tickables[]</text><rect x="315.27693918459147" y="-503.45317471410857" width="359" height="60" rx="8" ry="8" fill="rgba(0, 0, 0, 0)" stroke="rgba(204, 204, 204, 1)" stroke-width="2"></rect><text x="494.77693918459147" y="-459.45317471410857" fill="rgba(255, 255, 255, 1)" font-size="32" text-anchor="middle" font-family="MiSans">interface Disposable</text><rect x="352.2675228350651" y="-333.40272159098134" width="320" height="60" rx="8" ry="8" fill="rgba(0, 0, 0, 0)" stroke="rgba(204, 204, 204, 1)" stroke-width="2"></rect><text x="512.2675228350652" y="-289.40272159098134" fill="rgba(255, 255, 255, 1)" font-size="32" text-anchor="middle" font-family="MiSans">interface Tickable</text><rect x="721.5713222002887" y="-495.44930353492913" width="260" height="60" rx="8" ry="8" fill="rgba(0, 0, 0, 0)" stroke="rgba(204, 204, 204, 1)" stroke-width="2"></rect><text x="851.5713222002887" y="-451.44930353492913" fill="rgba(255, 255, 255, 1)" font-size="32" text-anchor="middle" font-family="MiSans">dispose(): void</text><rect x="719.5181965460256" y="-332.7968621221624" width="200" height="60" rx="8" ry="8" fill="rgba(0, 0, 0, 0)" stroke="rgba(204, 204, 204, 1)" stroke-width="2"></rect><text x="819.5181965460256" y="-288.7968621221624" fill="rgba(255, 255, 255, 1)" font-size="32" text-anchor="middle" font-family="MiSans">tick(): void</text><rect x="51.55295431005845" y="-123.21787599481758" width="170" height="60" rx="8" ry="8" fill="rgba(0, 0, 0, 0)" stroke="rgba(204, 204, 204, 1)" stroke-width="2"></rect><text x="136.55295431005845" y="-79.21787599481758" fill="rgba(255, 255, 255, 1)" font-size="32" text-anchor="middle" font-family="MiSans">plugins[]</text><rect x="347.44149083589423" y="-114.98549273157457" width="221" height="60" rx="8" ry="8" fill="rgba(0, 0, 0, 0)" stroke="rgba(204, 204, 204, 1)" stroke-width="2"></rect><text x="457.94149083589423" y="-70.98549273157457" fill="rgba(255, 255, 255, 1)" font-size="32" text-anchor="middle" font-family="MiSans">class Plugin</text><rect x="659.991399530592" y="-196.10908144111042" width="174" height="60" rx="8" ry="8" fill="rgba(0, 0, 0, 0)" stroke="rgba(204, 204, 204, 1)" stroke-width="2"></rect><text x="746.991399530592" y="-152.10908144111042" fill="rgba(255, 255, 255, 1)" font-size="32" text-anchor="middle" font-family="MiSans">id: string</text><rect x="652.5998156571404" y="-120.09274502983807" width="233" height="60" rx="8" ry="8" fill="rgba(0, 0, 0, 0)" stroke="rgba(204, 204, 204, 1)" stroke-width="2"></rect><text x="769.0998156571404" y="-76.09274502983807" fill="rgba(255, 255, 255, 1)" font-size="32" text-anchor="middle" font-family="MiSans">name: string</text><rect x="652.5998156571404" y="-35.82308210848976" width="280.828125" height="60" rx="8" ry="8" fill="rgba(0, 0, 0, 0)" stroke="rgba(204, 204, 204, 1)" stroke-width="2"></rect><text x="793.0138781571404" y="8.176917891510243" fill="rgba(255, 255, 255, 1)" font-size="32" text-anchor="middle" font-family="MiSans">worker: Worker</text><rect x="-287.922499749185" y="-687.3884001089243" width="115" height="60" rx="8" ry="8" fill="rgba(0, 0, 0, 0)" stroke="rgba(204, 204, 204, 1)" stroke-width="2"></rect><text x="-230.42249974918502" y="-643.3884001089243" fill="rgba(255, 255, 255, 1)" font-size="32" text-anchor="middle" font-family="MiSans">stage</text><rect x="-418.77396151357266" y="-566.9199649166181" width="171" height="60" rx="8" ry="8" fill="rgba(0, 0, 0, 0)" stroke="rgba(204, 204, 204, 1)" stroke-width="2"></rect><text x="-333.27396151357266" y="-522.9199649166181" fill="rgba(255, 255, 255, 1)" font-size="32" text-anchor="middle" font-family="MiSans">renderer</text><rect x="-520.5465430669503" y="-289.4833036706898" width="187" height="60" rx="8" ry="8" fill="rgba(0, 0, 0, 0)" stroke="rgba(204, 204, 204, 1)" stroke-width="2"></rect><text x="-427.04654306695033" y="-245.4833036706898" fill="rgba(255, 255, 255, 1)" font-size="32" text-anchor="middle" font-family="MiSans">controller</text><rect x="-534.0462848352149" y="-137.9368123434751" width="148" height="60" rx="8" ry="8" fill="rgba(0, 0, 0, 0)" stroke="rgba(204, 204, 204, 1)" stroke-width="2"></rect><text x="-460.0462848352149" y="-93.93681234347511" fill="rgba(255, 255, 255, 1)" font-size="32" text-anchor="middle" font-family="MiSans">camera</text><rect x="-515.9386028696049" y="16.838875713466734" width="156" height="60" rx="8" ry="8" fill="rgba(0, 0, 0, 0)" stroke="rgba(204, 204, 204, 1)" stroke-width="2"></rect><text x="-437.9386028696049" y="60.838875713466734" fill="rgba(255, 255, 255, 1)" font-size="32" text-anchor="middle" font-family="MiSans">settings</text><rect x="-710.456629781472" y="-566.3777213282891" width="269" height="60" rx="8" ry="8" fill="rgba(0, 0, 0, 0)" stroke="rgba(204, 204, 204, 1)" stroke-width="2"></rect><text x="-575.956629781472" y="-522.3777213282891" fill="rgba(255, 255, 255, 1)" font-size="32" text-anchor="middle" font-family="MiSans">class Renderer</text><rect x="-1270.8406077377385" y="-567.2492678835921" width="557" height="60" rx="8" ry="8" fill="rgba(0, 0, 0, 0)" stroke="rgba(204, 204, 204, 1)" stroke-width="2"></rect><text x="-992.3406077377385" y="-523.2492678835921" fill="rgba(255, 255, 255, 1)" font-size="32" text-anchor="middle" font-family="MiSans">ctx: CanvasRenderingContext2D</text><rect x="-843.5078030390805" y="-290.0694963824259" width="282" height="60" rx="8" ry="8" fill="rgba(0, 0, 0, 0)" stroke="rgba(204, 204, 204, 1)" stroke-width="2"></rect><text x="-702.5078030390805" y="-246.06949638242588" fill="rgba(255, 255, 255, 1)" font-size="32" text-anchor="middle" font-family="MiSans">class Controller</text><rect x="-1254.3499091865667" y="-450.433770675688" width="297" height="60" rx="8" ry="8" fill="rgba(0, 0, 0, 0)" stroke="rgba(204, 204, 204, 1)" stroke-width="2"></rect><text x="-1105.8499091865667" y="-406.433770675688" fill="rgba(255, 255, 255, 1)" font-size="32" text-anchor="middle" font-family="MiSans">register(...): void</text><rect x="-1308.083229691768" y="-287.9106889647124" width="398.0625" height="60" rx="8" ry="8" fill="rgba(0, 0, 0, 0)" stroke="rgba(204, 204, 204, 1)" stroke-width="2"></rect><text x="-1109.051979691768" y="-243.9106889647124" fill="rgba(255, 255, 255, 1)" font-size="32" text-anchor="middle" font-family="MiSans">mouseLocation: Vector</text><rect x="-879.5008844477045" y="-133.74256678210259" width="243" height="60" rx="8" ry="8" fill="rgba(0, 0, 0, 0)" stroke="rgba(204, 204, 204, 1)" stroke-width="2"></rect><text x="-758.0008844477045" y="-89.74256678210259" fill="rgba(255, 255, 255, 1)" font-size="32" text-anchor="middle" font-family="MiSans">class Camera</text><rect x="-1038.964671181249" y="-134.63758076997345" width="58" height="60" rx="8" ry="8" fill="rgba(0, 0, 0, 0)" stroke="rgba(204, 204, 204, 1)" stroke-width="2"></rect><text x="-1009.9646711812491" y="-90.63758076997345" fill="rgba(255, 255, 255, 1)" font-size="32" text-anchor="middle" font-family="MiSans">...</text><rect x="-577.8991637232975" y="-689.9563039154683" width="210" height="60" rx="8" ry="8" fill="rgba(0, 0, 0, 0)" stroke="rgba(204, 204, 204, 1)" stroke-width="2"></rect><text x="-472.89916372329753" y="-645.9563039154683" fill="rgba(255, 255, 255, 1)" font-size="32" text-anchor="middle" font-family="MiSans">class Stage</text><rect x="-701.627706571036" y="-688.5691517367694" width="58" height="60" rx="8" ry="8" fill="rgba(0, 0, 0, 0)" stroke="rgba(204, 204, 204, 1)" stroke-width="2"></rect><text x="-672.627706571036" y="-644.5691517367694" fill="rgba(255, 255, 255, 1)" font-size="32" text-anchor="middle" font-family="MiSans">...</text><rect x="-930.1850734844857" y="23.898888531296706" width="353" height="60" rx="8" ry="8" fill="rgba(0, 0, 0, 0)" stroke="rgba(204, 204, 204, 1)" stroke-width="2"></rect><text x="-753.6850734844857" y="67.8988885312967" fill="rgba(255, 255, 255, 1)" font-size="32" text-anchor="middle" font-family="MiSans">async get&lt;T&gt;(...): T</text><rect x="-873.8616751182336" y="141.44686946777597" width="320" height="60" rx="8" ry="8" fill="rgba(0, 0, 0, 0)" stroke="rgba(204, 204, 204, 1)" stroke-width="2"></rect><text x="-713.8616751182336" y="185.44686946777597" fill="rgba(255, 255, 255, 1)" font-size="32" text-anchor="middle" font-family="MiSans">async set(...): void</text><rect x="-542.3786948215264" y="497.8514437585622" width="192" height="60" rx="8" ry="8" fill="rgba(22, 163, 74, 1)" stroke="rgba(204, 204, 204, 1)" stroke-width="2"></rect><text x="-446.37869482152644" y="541.8514437585623" fill="rgba(255, 255, 255, 1)" font-size="32" text-anchor="middle" font-family="MiSans">project.pg</text><rect x="-225.56736389830485" y="282.9174042382585" width="146" height="60" rx="8" ry="8" fill="rgba(0, 0, 0, 0)" stroke="rgba(204, 204, 204, 1)" stroke-width="2"></rect><text x="-152.56736389830485" y="326.9174042382585" fill="rgba(255, 255, 255, 1)" font-size="32" text-anchor="middle" font-family="MiSans">version</text><rect x="-243.40840307771214" y="472.200884698449" width="225" height="60" rx="8" ry="8" fill="rgba(0, 0, 0, 0)" stroke="rgba(204, 204, 204, 1)" stroke-width="2"></rect><text x="-130.90840307771214" y="516.200884698449" fill="rgba(255, 255, 255, 1)" font-size="32" text-anchor="middle" font-family="MiSans">entities.json</text><rect x="-476.9079553547695" y="816.0585595218657" width="138" height="60" rx="8" ry="8" fill="rgba(0, 0, 0, 0)" stroke="rgba(204, 204, 204, 1)" stroke-width="2"></rect><text x="-407.9079553547695" y="860.0585595218657" fill="rgba(255, 255, 255, 1)" font-size="32" text-anchor="middle" font-family="MiSans">assets/</text><rect x="-279.38808538420307" y="759.8106955126522" width="124" height="60" rx="8" ry="8" fill="rgba(0, 0, 0, 0)" stroke="rgba(204, 204, 204, 1)" stroke-width="2"></rect><text x="-217.38808538420307" y="803.8106955126522" fill="rgba(255, 255, 255, 1)" font-size="32" text-anchor="middle" font-family="MiSans">[uuid]</text><rect x="-277.76090273270177" y="887.4790438397363" width="124" height="60" rx="8" ry="8" fill="rgba(0, 0, 0, 0)" stroke="rgba(204, 204, 204, 1)" stroke-width="2"></rect><text x="-215.76090273270177" y="931.4790438397363" fill="rgba(255, 255, 255, 1)" font-size="32" text-anchor="middle" font-family="MiSans">[uuid]</text><rect x="26.47831147231247" y="306.8038239345931" width="142" height="60" rx="8" ry="8" fill="rgba(168, 85, 247, 1)" stroke="rgba(204, 204, 204, 1)" stroke-width="2"></rect><text x="97.47831147231247" y="350.8038239345931" fill="rgba(255, 255, 255, 1)" font-size="32" text-anchor="middle" font-family="MiSans">文档的版本号</text><rect x="-187.4372249705147" y="611.1115864809774" width="288" height="60" rx="8" ry="8" fill="rgba(168, 85, 247, 1)" stroke="rgba(204, 204, 204, 1)" stroke-width="2"></rect><text x="-43.437224970514706" y="655.1115864809774" fill="rgba(255, 255, 255, 1)" font-size="32" text-anchor="middle" font-family="MiSans">JSON数组，存储所有节点</text><rect x="352.4162523068037" y="346.8935417638242" width="62" height="60" rx="8" ry="8" fill="rgba(0, 0, 0, 0)" stroke="rgba(204, 204, 204, 1)" stroke-width="2"></rect><text x="383.4162523068037" y="390.8935417638242" fill="rgba(255, 255, 255, 1)" font-size="32" text-anchor="middle" font-family="MiSans">[ ]</text><rect x="426.2942983978832" y="469.2767931862627" width="78" height="60" rx="8" ry="8" fill="rgba(0, 0, 0, 0)" stroke="rgba(204, 204, 204, 1)" stroke-width="2"></rect><text x="465.2942983978832" y="513.2767931862627" fill="rgba(255, 255, 255, 1)" font-size="32" text-anchor="middle" font-family="MiSans">{ }</text><rect x="567.4344461539753" y="592.7693439356996" width="98" height="60" rx="8" ry="8" fill="rgba(0, 0, 0, 0)" stroke="rgba(204, 204, 204, 1)" stroke-width="2"></rect><text x="616.4344461539753" y="636.7693439356996" fill="rgba(255, 255, 255, 1)" font-size="32" text-anchor="middle" font-family="MiSans">type</text><rect x="719.6011679535119" y="617.0094087708336" width="268" height="60" rx="8" ry="8" fill="rgba(0, 0, 0, 0)" stroke="rgba(204, 204, 204, 1)" stroke-width="2"></rect><text x="853.6011679535119" y="661.0094087708336" fill="rgba(255, 255, 255, 1)" font-size="32" text-anchor="middle" font-family="MiSans">core:text_node</text><rect x="417.4730391631275" y="645.1083147545552" width="119" height="60" rx="8" ry="8" fill="rgba(0, 0, 0, 0)" stroke="rgba(204, 204, 204, 1)" stroke-width="2"></rect><text x="476.9730391631275" y="689.1083147545552" fill="rgba(255, 255, 255, 1)" font-size="32" text-anchor="middle" font-family="MiSans">width</text><rect x="419.6783539718165" y="743.2370168889009" width="132" height="60" rx="8" ry="8" fill="rgba(0, 0, 0, 0)" stroke="rgba(204, 204, 204, 1)" stroke-width="2"></rect><text x="485.6783539718165" y="787.2370168889009" fill="rgba(255, 255, 255, 1)" font-size="32" text-anchor="middle" font-family="MiSans">height</text><rect x="343.59499307204794" y="652.8264412692716" width="46" height="60" rx="8" ry="8" fill="rgba(0, 0, 0, 0)" stroke="rgba(204, 204, 204, 1)" stroke-width="2"></rect><text x="366.59499307204794" y="696.8264412692716" fill="rgba(255, 255, 255, 1)" font-size="32" text-anchor="middle" font-family="MiSans">x</text><rect x="348.0056226894258" y="737.7234839672079" width="46" height="60" rx="8" ry="8" fill="rgba(0, 0, 0, 0)" stroke="rgba(204, 204, 204, 1)" stroke-width="2"></rect><text x="371.0056226894258" y="781.7234839672079" fill="rgba(255, 255, 255, 1)" font-size="32" text-anchor="middle" font-family="MiSans">y</text><rect x="556.4078721105303" y="392.02672750847273" width="159" height="60" rx="8" ry="8" fill="rgba(0, 0, 0, 0)" stroke="rgba(204, 204, 204, 1)" stroke-width="2"></rect><text x="635.9078721105303" y="436.02672750847273" fill="rgba(255, 255, 255, 1)" font-size="32" text-anchor="middle" font-family="MiSans">data { }</text><rect x="755.9888622968796" y="403.0443518834461" width="91" height="60" rx="8" ry="8" fill="rgba(0, 0, 0, 0)" stroke="rgba(204, 204, 204, 1)" stroke-width="2"></rect><text x="801.4888622968796" y="447.0443518834461" fill="rgba(255, 255, 255, 1)" font-size="32" text-anchor="middle" font-family="MiSans">text</text><rect x="699.7533346753115" y="502.28225727991014" width="58" height="60" rx="8" ry="8" fill="rgba(0, 0, 0, 0)" stroke="rgba(204, 204, 204, 1)" stroke-width="2"></rect><text x="728.7533346753115" y="546.2822572799101" fill="rgba(255, 255, 255, 1)" font-size="32" text-anchor="middle" font-family="MiSans">...</text><rect x="-43.5469435460888" y="882.47098708209" width="279" height="60" rx="8" ry="8" fill="rgba(168, 85, 247, 1)" stroke="rgba(204, 204, 204, 1)" stroke-width="2"></rect><text x="95.9530564539112" y="926.47098708209" fill="rgba(255, 255, 255, 1)" font-size="32" text-anchor="middle" font-family="MiSans">文档中的图片（raw格式）</text><line x1="-127.76002965530628" y1="-203.4930308266472" x2="119.47539912368771" y2="-439.9915202968595" stroke="rgba(204, 204, 204, 1)" stroke-width="2"></line><polygon points="119.47539912368771,-439.9915202968595 106.32178809209464,-432.78163008760157 114.05572127112652,-434.8072081945206 111.68898292345783,-427.1707667013489" fill="rgba(204, 204, 204, 1)" stroke="rgba(204, 204, 204, 1)"></polygon><line x1="-79.52799609318859" y1="-203.4930308266472" x2="102.47340603813957" y2="-272.0916759905181" stroke="rgba(204, 204, 204, 1)" stroke-width="2"></line><polygon points="102.47340603813957,-272.0916759905181 87.54633130844515,-270.6143676225333 95.45536031252209,-269.4464852236466 90.28483430202787,-263.3487520497727" fill="rgba(204, 204, 204, 1)" stroke="rgba(204, 204, 204, 1)"></polygon><line x1="674.2769391845915" y1="-469.4265001220943" x2="721.5713222002887" y2="-468.3655581141038" stroke="rgba(204, 204, 204, 1)" stroke-width="2"></line><polygon points="721.5713222002887,-468.3655581141038 707.1731473841444,-472.57181083639074 714.0732085905983,-468.53376125371483 706.9990106802348,-464.80919241826956" fill="rgba(204, 204, 204, 1)" stroke="rgba(204, 204, 204, 1)"></polygon><line x1="672.2675228350652" y1="-303.08722182709073" x2="719.5181965460256" y2="-302.994049474594" stroke="rgba(204, 204, 204, 1)" stroke-width="2"></line><polygon points="719.5181965460256,-302.994049474594 705.036992681527,-306.9048978013421 712.0182111270526,-303.00883849727444 705.0216819586143,-299.14034154365635" fill="rgba(204, 204, 204, 1)" stroke="rgba(204, 204, 204, 1)"></polygon><line x1="269.3373874390677" y1="-471.1841893178028" x2="315.27693918459147" y2="-471.64655792711005" stroke="rgba(204, 204, 204, 1)" stroke-width="2"></line><polygon points="315.27693918459147,-471.64655792711005 300.74971345648885,-475.38282781093176 307.7773190252508,-471.5710763690266 300.82785771563283,-467.61864969784307" fill="rgba(204, 204, 204, 1)" stroke="rgba(204, 204, 204, 1)"></polygon><line x1="280.06742791563727" y1="-302.4807808721407" x2="352.2675228350651" y2="-302.7674483148628" stroke="rgba(204, 204, 204, 1)" stroke-width="2"></line><polygon points="352.2675228350651,-302.7674483148628 337.7633353140471,-306.59217632547274 344.7675819513782,-302.7376701147636 337.79416397530525,-298.8276661741079" fill="rgba(204, 204, 204, 1)" stroke="rgba(204, 204, 204, 1)"></polygon><line x1="221.55295431005845" y1="-91.04059678959177" x2="347.44149083589423" y2="-87.81595569836811" stroke="rgba(204, 204, 204, 1)" stroke-width="2"></line><polygon points="347.44149083589423,-87.81595569836811 333.0567667373684,-92.06798022902278 339.9439501161015,-88.00800557483328 332.8579420748133,-84.30595491016673" fill="rgba(204, 204, 204, 1)" stroke="rgba(204, 204, 204, 1)"></polygon><line x1="564.8339175490338" y1="-114.98549273157457" x2="659.991399530592" y2="-141.69201018306617" stroke="rgba(204, 204, 204, 1)" stroke-width="2"></line><polygon points="659.991399530592,-141.69201018306617 644.9924469203833,-141.51475162414755 652.7704006293266,-139.66539357701492 647.0905548194517,-134.03902346290002" fill="rgba(204, 204, 204, 1)" stroke="rgba(204, 204, 204, 1)"></polygon><line x1="568.4414908358942" y1="-86.7992040609511" x2="652.5998156571404" y2="-88.18055163732797" stroke="rgba(204, 204, 204, 1)" stroke-width="2"></line><polygon points="652.5998156571404,-88.18055163732797 638.049165583539,-91.82453056641128 645.1008257360477,-88.05746563752012 638.176593587282,-84.06100492396862" fill="rgba(204, 204, 204, 1)" stroke="rgba(204, 204, 204, 1)"></polygon><line x1="568.4414908358942" y1="-58.879353566295116" x2="666.0322521490759" y2="-35.82308210848976" stroke="rgba(204, 204, 204, 1)" stroke-width="2"></line><polygon points="666.0322521490759,-35.82308210848976 652.8241804841917,-42.93271240093692 658.7331895191201,-37.547519617935166 651.0389114060572,-35.37616672082227" fill="rgba(204, 204, 204, 1)" stroke="rgba(204, 204, 204, 1)"></polygon><line x1="-163.5424249204936" y1="-203.4930308266472" x2="-226.0020927993777" y2="-627.3884001089243" stroke="rgba(204, 204, 204, 1)" stroke-width="2"></line><polygon points="-226.0020927993777,-627.3884001089243 -227.73082033100536,-612.4883497358084 -224.90879567931108,-619.9685145702348 -220.04918957143084,-613.6202142023243" fill="rgba(204, 204, 204, 1)" stroke="rgba(204, 204, 204, 1)"></polygon><line x1="-173.49783279401245" y1="-203.4930308266472" x2="-318.89814669024645" y2="-506.91996491661814" stroke="rgba(204, 204, 204, 1)" stroke-width="2"></line><polygon points="-318.89814669024645,-506.91996491661814 -316.13798783038925,-492.1761010041849 -315.65709593707936,-500.15641629068256 -309.1358470429128,-495.5314836484389" fill="rgba(204, 204, 204, 1)" stroke="rgba(204, 204, 204, 1)"></polygon><line x1="-710.456629781472" y1="-536.6592475586297" x2="-713.8406077377385" y2="-536.666330670582" stroke="rgba(204, 204, 204, 1)" stroke-width="2"></line><polygon points="-713.8406077377385,-536.666330670582 -699.3598782005597,-532.7537264136865 -706.3406241671877,-536.6506322162903 -699.3436259647623,-540.5182807577448" fill="rgba(204, 204, 204, 1)" stroke="rgba(204, 204, 204, 1)"></polygon><line x1="-252.59463396605204" y1="-203.4930308266472" x2="-333.57392707158454" y2="-229.4833036706898" stroke="rgba(204, 204, 204, 1)" stroke-width="2"></line><polygon points="-333.57392707158454,-229.4833036706898 -320.9645790082347,-221.35899807468374 -326.43271708981604,-227.19133508532704 -318.5917585255604,-228.7521226681154" fill="rgba(204, 204, 204, 1)" stroke="rgba(204, 204, 204, 1)"></polygon><line x1="-256.1220179706863" y1="-152.36162371506856" x2="-386.0462848352149" y2="-124.05767962447327" stroke="rgba(204, 204, 204, 1)" stroke-width="2"></line><polygon points="-386.0462848352149,-124.05767962447327 -371.0630622130458,-123.34842659873469 -378.7181598938902,-125.65410840282014 -372.7158069009895,-130.93505979755724" fill="rgba(204, 204, 204, 1)" stroke="rgba(204, 204, 204, 1)"></polygon><line x1="-197.08518761922153" y1="-143.4930308266472" x2="-399.97543322106964" y2="16.838875713466734" stroke="rgba(204, 204, 204, 1)" stroke-width="2"></line><polygon points="-399.97543322106964,16.838875713466734 -386.2005179278796,10.90156077610328 -394.091005094032,12.188767583785346 -391.01466411087,4.80955250084615" fill="rgba(204, 204, 204, 1)" stroke="rgba(204, 204, 204, 1)"></polygon><line x1="-520.5465430669503" y1="-259.68227545551673" x2="-561.5078030390805" y2="-259.76944267482594" stroke="rgba(204, 204, 204, 1)" stroke-width="2"></line><polygon points="-561.5078030390805,-259.76944267482594 -547.0272100938698,-255.8563329197699 -554.0078200211088,-259.75348240736867 -547.0106868091383,-263.620886691756" fill="rgba(204, 204, 204, 1)" stroke="rgba(204, 204, 204, 1)"></polygon><line x1="-843.5078030390805" y1="-259.32076632213125" x2="-910.0207296917681" y2="-258.9675732187054" stroke="rgba(204, 204, 204, 1)" stroke-width="2"></line><polygon points="-910.0207296917681,-258.9675732187054 -895.5114313704833,-255.16227924530992 -902.520835430573,-259.00739872425424 -895.5526617677508,-262.92674112951954" fill="rgba(204, 204, 204, 1)" stroke="rgba(204, 204, 204, 1)"></polygon><line x1="-534.0462848352149" y1="-106.89512957722404" x2="-636.5008844477045" y2="-105.45289726993371" stroke="rgba(204, 204, 204, 1)" stroke-width="2"></line><polygon points="-636.5008844477045,-105.45289726993371 -621.9587876485792,-101.77493306607415 -629.0016274227871,-105.55846276726538 -622.0680770934399,-109.53873523474412" fill="rgba(204, 204, 204, 1)" stroke="rgba(204, 204, 204, 1)"></polygon><line x1="-879.5008844477045" y1="-104.17415340387895" x2="-980.9646711812491" y2="-104.53456832526963" stroke="rgba(204, 204, 204, 1)" stroke-width="2"></line><polygon points="-980.9646711812491,-104.53456832526963 -966.4896655816799,-100.60084071746012 -973.4647184975244,-104.50792734385193 -966.4620848081954,-108.36536308512295" fill="rgba(204, 204, 204, 1)" stroke="rgba(204, 204, 204, 1)"></polygon><line x1="-577.8991637232975" y1="-659.2270592282209" x2="-643.627706571036" y2="-658.7705621741997" stroke="rgba(204, 204, 204, 1)" stroke-width="2"></line><polygon points="-643.627706571036,-658.7705621741997 -629.1122060526873,-654.9889957392658 -636.1278874481027,-658.8226498242065 -629.1661311560329,-662.7533798346227" fill="rgba(204, 204, 204, 1)" stroke="rgba(204, 204, 204, 1)"></polygon><line x1="-515.9386028696049" y1="48.582936379349555" x2="-577.1850734844857" y2="49.952392280933665" stroke="rgba(204, 204, 204, 1)" stroke-width="2"></line><polygon points="-577.1850734844857,49.952392280933665 -562.6130214003114,53.5098208545121 -569.686947626202,49.78473604532762 -562.7865919075316,45.747189755714096" fill="rgba(204, 204, 204, 1)" stroke="rgba(204, 204, 204, 1)"></polygon><line x1="-504.368467584224" y1="76.83887571346673" x2="-647.4318104036145" y2="141.44686946777597" stroke="rgba(204, 204, 204, 1)" stroke-width="2"></line><polygon points="-647.4318104036145,141.44686946777597 -632.6291494629431,139.02174491932027 -640.59650836336,138.360018966295 -635.8248922596132,131.9453195311364" fill="rgba(204, 204, 204, 1)" stroke="rgba(204, 204, 204, 1)"></polygon><line x1="-405.3691834971742" y1="497.8514437585622" x2="-193.576875222657" y2="342.9174042382585" stroke="rgba(204, 204, 204, 1)" stroke-width="2"></line><polygon points="-193.576875222657,342.9174042382585 -207.56297455401653,348.33856882654993 -199.63009217821661,347.3455601172814 -202.97861024932118,354.60532015549524" fill="rgba(204, 204, 204, 1)" stroke="rgba(204, 204, 204, 1)"></polygon><line x1="-350.37869482152644" y1="520.045784290093" x2="-243.40840307771214" y2="511.3481418880615" stroke="rgba(204, 204, 204, 1)" stroke-width="2"></line><polygon points="-243.40840307771214,511.3481418880615 -258.16425884971477,508.6528273543091 -250.88373353423748,511.95595317928974 -257.53500629772185,516.3918589166439" fill="rgba(204, 204, 204, 1)" stroke="rgba(204, 204, 204, 1)"></polygon><line x1="-442.7517420387949" y1="557.8514437585623" x2="-411.53490813750113" y2="816.0585595218657" stroke="rgba(204, 204, 204, 1)" stroke-width="2"></line><polygon points="-411.53490813750113,816.0585595218657 -409.41970839927285,801.20844403183 -412.43509146544045,808.6127774960406 -417.1281491751351,802.1403823892479" fill="rgba(204, 204, 204, 1)" stroke="rgba(204, 204, 204, 1)"></polygon><line x1="-338.9079553547695" y1="825.6874422350686" x2="-279.38808538420307" y2="808.1151777123829" stroke="rgba(204, 204, 204, 1)" stroke-width="2"></line><polygon points="-279.38808538420307,808.1151777123829 -294.38329299441557,808.4943198053041 -286.5811499376144,810.2388119394705 -292.1847450632082,815.941128201603" fill="rgba(204, 204, 204, 1)" stroke="rgba(204, 204, 204, 1)"></polygon><line x1="-338.9079553547695" y1="871.7056529884824" x2="-277.76090273270177" y2="894.4338294204576" stroke="rgba(204, 204, 204, 1)" stroke-width="2"></line><polygon points="-277.76090273270177,894.4338294204576 -289.9893436726321,885.7467567156488 -284.7909761233638,891.8207721838274 -292.69457958776354,893.0248242435359" fill="rgba(204, 204, 204, 1)" stroke="rgba(204, 204, 204, 1)"></polygon><line x1="-418.77396151357266" y1="-536.7289260297746" x2="-441.456629781472" y2="-536.6782444894641" stroke="rgba(204, 204, 204, 1)" stroke-width="2"></line><polygon points="-441.456629781472,-536.6782444894641 -426.9591041018947,-532.8283420010889 -433.9566485029861,-536.6950022447247 -426.9764530067532,-540.592893972227" fill="rgba(204, 204, 204, 1)" stroke="rgba(204, 204, 204, 1)"></polygon><line x1="-287.922499749185" y1="-657.9973431158771" x2="-367.89916372329753" y2="-658.8443210332067" stroke="rgba(204, 204, 204, 1)" stroke-width="2"></line><polygon points="-367.89916372329753,-658.8443210332067 -353.45220107497414,-654.8088197956962 -360.39958426817174,-658.7648981381757 -353.36997644356927,-662.5729557686807" fill="rgba(204, 204, 204, 1)" stroke="rgba(204, 204, 204, 1)"></polygon><line x1="-62.12201797068627" y1="-147.15772771112353" x2="51.55295431005845" y2="-116.29520346718368" stroke="rgba(204, 204, 204, 1)" stroke-width="2"></line><polygon points="51.55295431005845,-116.29520346718368 38.58745509694438,-123.83813593106922 44.31497175093189,-118.26030104078649 36.55303638681175,-116.34482499338188" fill="rgba(204, 204, 204, 1)" stroke="rgba(204, 204, 204, 1)"></polygon><line x1="26.47831147231247" y1="330.0213199143734" x2="-79.56736389830485" y2="319.890964709752" stroke="rgba(204, 204, 204, 1)" stroke-width="2"></line><polygon points="-79.56736389830485,319.890964709752 -65.51332479593943,325.1334817492268 -72.10135260493396,320.60417952119275 -64.77495049013913,317.4040980945272" fill="rgba(204, 204, 204, 1)" stroke="rgba(204, 204, 204, 1)"></polygon><line x1="-62.328032586792816" y1="611.1115864809774" x2="-112.01759546143407" y2="532.200884698449" stroke="rgba(204, 204, 204, 1)" stroke-width="2"></line><polygon points="-112.01759546143407,532.200884698449 -107.58238535154884,546.5301872383905 -108.02120526616943,538.5474479737337 -101.01193956518117,542.3928196616085" fill="rgba(204, 204, 204, 1)" stroke="rgba(204, 204, 204, 1)"></polygon><line x1="-18.408403077712137" y1="474.79197880105215" x2="352.4162523068037" y2="384.44621805555136" stroke="rgba(204, 204, 204, 1)" stroke-width="2"></line><polygon points="352.4162523068037,384.44621805555136 337.42015794849016,384.1039403955208 345.12940090115774,386.2215480508017 339.25811480494036,391.64784408597376" fill="rgba(204, 204, 204, 1)" stroke="rgba(204, 204, 204, 1)"></polygon><line x1="403.48714725511377" y1="406.8935417638242" x2="445.2234034495731" y2="469.2767931862627" stroke="rgba(204, 204, 204, 1)" stroke-width="2"></line><polygon points="445.2234034495731,469.2767931862627 440.393457052317,455.07567992709767 441.0529591806574,463.04322321393795 433.93999054104967,459.3932415404338" fill="rgba(204, 204, 204, 1)" stroke="rgba(204, 204, 204, 1)"></polygon><line x1="502.01071898492364" y1="529.2767931862627" x2="579.7180255669348" y2="592.7693439356996" stroke="rgba(204, 204, 204, 1)" stroke-width="2"></line><polygon points="579.7180255669348,592.7693439356996 570.9545641330882,580.5955300839322 573.9101912654293,588.0239186938212 566.0417384142547,586.6082425960494" fill="rgba(204, 204, 204, 1)" stroke="rgba(204, 204, 204, 1)"></polygon><line x1="665.4344461539753" y1="627.7774798491585" x2="719.6011679535119" y2="633.3136901503542" stroke="rgba(204, 204, 204, 1)" stroke-width="2"></line><polygon points="719.6011679535119,633.3136901503542 705.5821097674951,627.9783356563139 712.140037094735,632.5511114277244 704.792630180269,635.7026667133282" fill="rgba(204, 204, 204, 1)" stroke="rgba(204, 204, 204, 1)"></polygon><line x1="449.1625368243825" y1="529.2767931862627" x2="382.7267546455486" y2="652.8264412692716" stroke="rgba(204, 204, 204, 1)" stroke-width="2"></line><polygon points="382.7267546455486,652.8264412692716 393.00794046361625,641.9041146776353 386.2787330294502,646.2208792522821 386.16935944920533,638.2268360634505" fill="rgba(204, 204, 204, 1)" stroke="rgba(204, 204, 204, 1)"></polygon><line x1="467.28690029219854" y1="529.2767931862627" x2="474.9804372688122" y2="645.1083147545552" stroke="rgba(204, 204, 204, 1)" stroke-width="2"></line><polygon points="474.9804372688122,645.1083147545552 477.89395053846914,630.3939870285756 474.4833819993292,637.6248038098796 470.1464499116084,630.9085765094186" fill="rgba(204, 204, 204, 1)" stroke="rgba(204, 204, 204, 1)"></polygon><line x1="454.7571587407513" y1="529.2767931862627" x2="381.5427623465577" y2="737.7234839672079" stroke="rgba(204, 204, 204, 1)" stroke-width="2"></line><polygon points="381.5427623465577,737.7234839672079 390.00715780326914,725.3398653703517 384.0281932642623,730.6472820796613 382.68133454131925,722.7667579431974" fill="rgba(204, 204, 204, 1)" stroke="rgba(204, 204, 204, 1)"></polygon><line x1="467.5264533397691" y1="529.2767931862627" x2="483.44619902993065" y2="743.2370168889009" stroke="rgba(204, 204, 204, 1)" stroke-width="2"></line><polygon points="483.44619902993065,743.2370168889009 486.24270642506355,728.5000040847751 482.88969859730054,735.7576915671568 478.4995390739239,729.076135727065" fill="rgba(204, 204, 204, 1)" stroke="rgba(204, 204, 204, 1)"></polygon><line x1="504.2942983978832" y1="481.61845278652413" x2="569.6502299134571" y2="452.02672750847273" stroke="rgba(204, 204, 204, 1)" stroke-width="2"></line><polygon points="569.6502299134571,452.02672750847273 554.8499394577877,454.46627714474204 562.8179394732715,455.1202380290542 558.0525772135937,461.53958469510974" fill="rgba(204, 204, 204, 1)" stroke="rgba(204, 204, 204, 1)"></polygon><line x1="715.4078721105303" y1="427.31659282951364" x2="755.9888622968796" y2="430.0168189009636" stroke="rgba(204, 204, 204, 1)" stroke-width="2"></line><polygon points="755.9888622968796,430.0168189009636 741.7896974583043,425.18114750115075 748.5054103551572,429.51887609708695 741.2741891342442,432.92858704365943" fill="rgba(204, 204, 204, 1)" stroke="rgba(204, 204, 204, 1)"></polygon><line x1="661.170676458916" y1="452.02672750847273" x2="703.4905303269259" y2="502.28225727991014" stroke="rgba(204, 204, 204, 1)" stroke-width="2"></line><polygon points="703.4905303269259,502.28225727991014 697.1274174891149,488.69878220858595 698.6595517905423,496.5453899831182 691.1881754265726,493.7001792153763" fill="rgba(204, 204, 204, 1)" stroke="rgba(204, 204, 204, 1)"></polygon><line x1="-43.5469435460888" y1="914.7122210631239" x2="-153.76090273270177" y2="916.4829398481656" stroke="rgba(204, 204, 204, 1)" stroke-width="2"></line><polygon points="-153.76090273270177,916.4829398481656 -139.2115194267576,920.1319733389291 -146.26187050499325,916.3624589459893 -139.33625043497517,912.368403897455" fill="rgba(204, 204, 204, 1)" stroke="rgba(204, 204, 204, 1)"></polygon><line x1="19.31672912362791" y1="882.47098708209" x2="-155.38808538420307" y2="814.0811696441156" stroke="rgba(204, 204, 204, 1)" stroke-width="2"></line><polygon points="-155.38808538420307,814.0811696441156 -143.31131101460429,822.97788369065 -148.40413173623529,816.8151029723147 -140.48093496109053,815.7475628338208" fill="rgba(204, 204, 204, 1)" stroke="rgba(204, 204, 204, 1)"></polygon><rect x="313.59499307204794" y="266.8935417638242" width="704.006174881464" height="566.3434751250768" rx="8" ry="8" fill="rgba(0, 0, 0, 0)" stroke="rgba(204, 204, 204, 1)" stroke-width="2"></rect><text x="327.59499307204794" y="296.8935417638242" fill="rgba(204, 204, 204, 1)" font-size="32" text-anchor="start" font-family="MiSans">JSON</text></svg>