<svg xmlns="http://www.w3.org/2000/svg" width="5485" height="3130" viewBox="-3177 -1310 5485 3130" style="background-color:rgba(34, 34, 34, 1)"><rect x="-2638.0" y="-883.0" width="319.0" height="497.0" rx="8" ry="8" fill="rgba(0, 0, 0, 0)" stroke="rgba(0, 0, 0, 0)" stroke-width="0"></rect><rect x="622.0" y="-275.0" width="678.0" height="414.0" rx="8" ry="8" fill="rgba(0, 0, 0, 0)" stroke="rgba(0, 0, 0, 0)" stroke-width="0"></rect><rect x="-463.0" y="1105.0" width="108.0" height="76.0" rx="8" ry="8" fill="rgba(59, 130, 246, 1)" stroke="rgba(229, 231, 235, 1)" stroke-width="2"></rect><text x="-449.0" y="1157.0" fill="rgba(255, 255, 255, 1)" font-size="32" text-anchor="start" font-family="-apple-system, BlinkMacSystemFont, MiSans, system-ui, sans-serif">Edge</text><rect x="853.0" y="1518.0" width="148.0" height="76.0" rx="8" ry="8" fill="rgba(59, 130, 246, 1)" stroke="rgba(229, 231, 235, 1)" stroke-width="2"></rect><text x="867.0" y="1570.0" fill="rgba(255, 255, 255, 1)" font-size="32" text-anchor="start" font-family="-apple-system, BlinkMacSystemFont, MiSans, system-ui, sans-serif">Section</text><rect x="1063.0" y="1714.0" width="112.0" height="76.0" rx="8" ry="8" fill="rgba(59, 130, 246, 1)" stroke="rgba(229, 231, 235, 1)" stroke-width="2"></rect><text x="1077.0" y="1766.0" fill="rgba(255, 255, 255, 1)" font-size="32" text-anchor="start" font-family="-apple-system, BlinkMacSystemFont, MiSans, system-ui, sans-serif">Node</text><rect x="-297.0" y="12.0" width="226.0" height="76.0" rx="8" ry="8" fill="rgba(168, 85, 247, 1)" stroke="rgba(229, 231, 235, 1)" stroke-width="2"></rect><text x="-283.0" y="64.0" fill="rgba(255, 255, 255, 1)" font-size="32" text-anchor="start" font-family="-apple-system, BlinkMacSystemFont, MiSans, system-ui, sans-serif">StageObject</text><rect x="1233.0" y="1717.0" width="223.0" height="76.0" rx="8" ry="8" fill="rgba(59, 130, 246, 1)" stroke="rgba(229, 231, 235, 1)" stroke-width="2"></rect><text x="1247.0" y="1769.0" fill="rgba(255, 255, 255, 1)" font-size="32" text-anchor="start" font-family="-apple-system, BlinkMacSystemFont, MiSans, system-ui, sans-serif">BubbleNode</text><rect x="1498.0" y="1721.0" width="161.0" height="76.0" rx="8" ry="8" fill="rgba(59, 130, 246, 1)" stroke="rgba(229, 231, 235, 1)" stroke-width="2"></rect><text x="1512.0" y="1773.0" fill="rgba(255, 255, 255, 1)" font-size="32" text-anchor="start" font-family="-apple-system, BlinkMacSystemFont, MiSans, system-ui, sans-serif">fileNode</text><rect x="1724.0" y="1716.0" width="307.1" height="76.0" rx="8" ry="8" fill="rgba(59, 130, 246, 1)" stroke="rgba(229, 231, 235, 1)" stroke-width="2"></rect><text x="1738.0" y="1768.0" fill="rgba(255, 255, 255, 1)" font-size="32" text-anchor="start" font-family="-apple-system, BlinkMacSystemFont, MiSans, system-ui, sans-serif">WebsiteLinkNode</text><rect x="2066.0" y="1714.0" width="212.0" height="76.0" rx="8" ry="8" fill="rgba(59, 130, 246, 1)" stroke="rgba(229, 231, 235, 1)" stroke-width="2"></rect><text x="2080.0" y="1766.0" fill="rgba(255, 255, 255, 1)" font-size="32" text-anchor="start" font-family="-apple-system, BlinkMacSystemFont, MiSans, system-ui, sans-serif">ImageNode</text><rect x="1267.0" y="798.0" width="324.0" height="76.0" rx="8" ry="8" fill="rgba(168, 85, 247, 1)" stroke="rgba(229, 231, 235, 1)" stroke-width="2"></rect><text x="1281.0" y="850.0" fill="rgba(255, 255, 255, 1)" font-size="32" text-anchor="start" font-family="-apple-system, BlinkMacSystemFont, MiSans, system-ui, sans-serif">ConnectableEntity</text><rect x="162.0" y="57.0" width="218.0" height="76.0" rx="8" ry="8" fill="rgba(0, 0, 0, 0)" stroke="rgba(229, 231, 235, 1)" stroke-width="2"></rect><text x="176.0" y="109.0" fill="rgba(255, 255, 255, 1)" font-size="32" text-anchor="start" font-family="-apple-system, BlinkMacSystemFont, MiSans, system-ui, sans-serif">一切具有碰撞箱的东西</text><rect x="1678.0" y="798.0" width="526.0" height="76.0" rx="8" ry="8" fill="rgba(0, 0, 0, 0)" stroke="rgba(229, 231, 235, 1)" stroke-width="2"></rect><text x="1692.0" y="850.0" fill="rgba(255, 255, 255, 1)" font-size="32" text-anchor="start" font-family="-apple-system, BlinkMacSystemFont, MiSans, system-ui, sans-serif">一切可被Edge连接的东西，且会算入图分析算法的东西</text><rect x="512.0" y="1517.0" width="319.4" height="76.0" rx="8" ry="8" fill="rgba(0, 0, 0, 0)" stroke="rgba(229, 231, 235, 1)" stroke-width="2"></rect><text x="526.0" y="1569.0" fill="rgba(255, 255, 255, 1)" font-size="32" text-anchor="start" font-family="-apple-system, BlinkMacSystemFont, MiSans, system-ui, sans-serif">container: Entity[]</text><rect x="395.0" y="350.0" width="122.0" height="76.0" rx="8" ry="8" fill="rgba(168, 85, 247, 1)" stroke="rgba(229, 231, 235, 1)" stroke-width="2"></rect><text x="409.0" y="402.0" fill="rgba(255, 255, 255, 1)" font-size="32" text-anchor="start" font-family="-apple-system, BlinkMacSystemFont, MiSans, system-ui, sans-serif">Entity</text><rect x="176.0" y="-70.0" width="116.0" height="76.0" rx="8" ry="8" fill="rgba(0, 0, 0, 0)" stroke="rgba(229, 231, 235, 1)" stroke-width="2"></rect><text x="190.0" y="-18.0" fill="rgba(255, 255, 255, 1)" font-size="32" text-anchor="start" font-family="-apple-system, BlinkMacSystemFont, MiSans, system-ui, sans-serif">有uuid</text><rect x="386.0" y="1158.0" width="85.0" height="76.0" rx="8" ry="8" fill="rgba(59, 130, 246, 1)" stroke="rgba(229, 231, 235, 1)" stroke-width="2"></rect><text x="400.0" y="1210.0" fill="rgba(255, 255, 255, 1)" font-size="32" text-anchor="start" font-family="-apple-system, BlinkMacSystemFont, MiSans, system-ui, sans-serif">分割线</text><rect x="1063.0" y="798.0" width="66.0" height="76.0" rx="8" ry="8" fill="rgba(59, 130, 246, 1)" stroke="rgba(229, 231, 235, 1)" stroke-width="2"></rect><text x="1077.0" y="850.0" fill="rgba(255, 255, 255, 1)" font-size="32" text-anchor="start" font-family="-apple-system, BlinkMacSystemFont, MiSans, system-ui, sans-serif">贴纸</text><rect x="784.0" y="798.0" width="217.0" height="76.0" rx="8" ry="8" fill="rgba(168, 85, 247, 1)" stroke="rgba(229, 231, 235, 1)" stroke-width="2"></rect><text x="798.0" y="850.0" fill="rgba(255, 255, 255, 1)" font-size="32" text-anchor="start" font-family="-apple-system, BlinkMacSystemFont, MiSans, system-ui, sans-serif">EffectOrigin</text><rect x="652.0" y="-195.0" width="360.0" height="76.0" rx="8" ry="8" fill="rgba(0, 0, 0, 0)" stroke="rgba(229, 231, 235, 1)" stroke-width="2"></rect><text x="666.0" y="-143.0" fill="rgba(255, 255, 255, 1)" font-size="32" text-anchor="start" font-family="-apple-system, BlinkMacSystemFont, MiSans, system-ui, sans-serif">json化时，表示各个物体之间的关系</text><rect x="652.0" y="-119.0" width="142.0" height="76.0" rx="8" ry="8" fill="rgba(0, 0, 0, 0)" stroke="rgba(229, 231, 235, 1)" stroke-width="2"></rect><text x="666.0" y="-67.0" fill="rgba(255, 255, 255, 1)" font-size="32" text-anchor="start" font-family="-apple-system, BlinkMacSystemFont, MiSans, system-ui, sans-serif">图论分析算法</text><rect x="652.0" y="-43.0" width="217.9" height="76.0" rx="8" ry="8" fill="rgba(0, 0, 0, 0)" stroke="rgba(229, 231, 235, 1)" stroke-width="2"></rect><text x="666.0" y="9.0" fill="rgba(255, 255, 255, 1)" font-size="32" text-anchor="start" font-family="-apple-system, BlinkMacSystemFont, MiSans, system-ui, sans-serif">优化，作为key使用</text><rect x="-1681.0" y="284.0" width="382.0" height="76.0" rx="8" ry="8" fill="rgba(0, 0, 0, 0)" stroke="rgba(229, 231, 235, 1)" stroke-width="2"></rect><text x="-1667.0" y="336.0" fill="rgba(255, 255, 255, 1)" font-size="32" text-anchor="start" font-family="-apple-system, BlinkMacSystemFont, MiSans, system-ui, sans-serif">与Connectable实时关联的东西</text><rect x="-1664.0" y="1038.0" width="142.0" height="76.0" rx="8" ry="8" fill="rgba(59, 130, 246, 1)" stroke="rgba(229, 231, 235, 1)" stroke-width="2"></rect><text x="-1650.0" y="1090.0" fill="rgba(255, 255, 255, 1)" font-size="32" text-anchor="start" font-family="-apple-system, BlinkMacSystemFont, MiSans, system-ui, sans-serif">图论分析结果</text><rect x="-697.0" y="1104.0" width="165.0" height="76.0" rx="8" ry="8" fill="rgba(59, 130, 246, 1)" stroke="rgba(229, 231, 235, 1)" stroke-width="2"></rect><text x="-683.0" y="1156.0" fill="rgba(255, 255, 255, 1)" font-size="32" text-anchor="start" font-family="-apple-system, BlinkMacSystemFont, MiSans, system-ui, sans-serif">全连接Edge</text><rect x="-1096.0" y="348.0" width="213.0" height="76.0" rx="8" ry="8" fill="rgba(168, 85, 247, 1)" stroke="rgba(229, 231, 235, 1)" stroke-width="2"></rect><text x="-1082.0" y="400.0" fill="rgba(255, 255, 255, 1)" font-size="32" text-anchor="start" font-family="-apple-system, BlinkMacSystemFont, MiSans, system-ui, sans-serif">Association</text><rect x="-1932.0" y="408.0" width="530.0" height="76.0" rx="8" ry="8" fill="rgba(0, 0, 0, 0)" stroke="rgba(229, 231, 235, 1)" stroke-width="2"></rect><text x="-1918.0" y="460.0" fill="rgba(255, 255, 255, 1)" font-size="32" text-anchor="start" font-family="-apple-system, BlinkMacSystemFont, MiSans, system-ui, sans-serif">有一个非空数组，表示关联的connectable的数组</text><rect x="-1521.0" y="797.0" width="333.0" height="76.0" rx="8" ry="8" fill="rgba(168, 85, 247, 1)" stroke="rgba(229, 231, 235, 1)" stroke-width="2"></rect><text x="-1507.0" y="849.0" fill="rgba(255, 255, 255, 1)" font-size="32" text-anchor="start" font-family="-apple-system, BlinkMacSystemFont, MiSans, system-ui, sans-serif">SectionAssociation</text><rect x="-748.0" y="799.0" width="415.0" height="76.0" rx="8" ry="8" fill="rgba(168, 85, 247, 1)" stroke="rgba(229, 231, 235, 1)" stroke-width="2"></rect><text x="-734.0" y="851.0" fill="rgba(255, 255, 255, 1)" font-size="32" text-anchor="start" font-family="-apple-system, BlinkMacSystemFont, MiSans, system-ui, sans-serif">ConnectableAssociation</text><rect x="-2320.0" y="803.0" width="303.0" height="76.0" rx="8" ry="8" fill="rgba(0, 0, 0, 0)" stroke="rgba(229, 231, 235, 1)" stroke-width="2"></rect><text x="-2306.0" y="855.0" fill="rgba(255, 255, 255, 1)" font-size="32" text-anchor="start" font-family="-apple-system, BlinkMacSystemFont, MiSans, system-ui, sans-serif">Xxx...Association</text><rect x="743.0" y="296.0" width="294.0" height="76.0" rx="8" ry="8" fill="rgba(0, 0, 0, 0)" stroke="rgba(229, 231, 235, 1)" stroke-width="2"></rect><text x="757.0" y="348.0" fill="rgba(255, 255, 255, 1)" font-size="32" text-anchor="start" font-family="-apple-system, BlinkMacSystemFont, MiSans, system-ui, sans-serif">一切独立存在，独立移动的东西</text><rect x="743.0" y="375.0" width="395.0" height="76.0" rx="8" ry="8" fill="rgba(0, 0, 0, 0)" stroke="rgba(229, 231, 235, 1)" stroke-width="2"></rect><text x="757.0" y="427.0" fill="rgba(255, 255, 255, 1)" font-size="32" text-anchor="start" font-family="-apple-system, BlinkMacSystemFont, MiSans, system-ui, sans-serif">一切能放入Section里附带移动的东西</text><rect x="487.0" y="798.0" width="161.0" height="76.0" rx="8" ry="8" fill="rgba(168, 85, 247, 1)" stroke="rgba(229, 231, 235, 1)" stroke-width="2"></rect><text x="501.0" y="850.0" fill="rgba(255, 255, 255, 1)" font-size="32" text-anchor="start" font-family="-apple-system, BlinkMacSystemFont, MiSans, system-ui, sans-serif">独立线存在的线</text><rect x="-1200.0" y="799.0" width="434.0" height="76.0" rx="8" ry="8" fill="rgba(168, 85, 247, 1)" stroke="rgba(229, 231, 235, 1)" stroke-width="2"></rect><text x="-1186.0" y="851.0" fill="rgba(255, 255, 255, 1)" font-size="32" text-anchor="start" font-family="-apple-system, BlinkMacSystemFont, MiSans, system-ui, sans-serif">AssociationOfAssociation</text><rect x="-2608.0" y="-803.0" width="66.0" height="76.0" rx="8" ry="8" fill="rgba(22, 163, 74, 1)" stroke="rgba(229, 231, 235, 1)" stroke-width="2"></rect><text x="-2594.0" y="-751.0" fill="rgba(255, 255, 255, 1)" font-size="32" text-anchor="start" font-family="-apple-system, BlinkMacSystemFont, MiSans, system-ui, sans-serif">接口</text><rect x="-2608.0" y="-725.0" width="85.0" height="76.0" rx="8" ry="8" fill="rgba(168, 85, 247, 1)" stroke="rgba(229, 231, 235, 1)" stroke-width="2"></rect><text x="-2594.0" y="-673.0" fill="rgba(255, 255, 255, 1)" font-size="32" text-anchor="start" font-family="-apple-system, BlinkMacSystemFont, MiSans, system-ui, sans-serif">抽象类</text><rect x="-2608.0" y="-647.0" width="47.0" height="76.0" rx="8" ry="8" fill="rgba(59, 130, 246, 1)" stroke="rgba(229, 231, 235, 1)" stroke-width="2"></rect><text x="-2594.0" y="-595.0" fill="rgba(255, 255, 255, 1)" font-size="32" text-anchor="start" font-family="-apple-system, BlinkMacSystemFont, MiSans, system-ui, sans-serif">类</text><rect x="583.0" y="1155.0" width="104.0" height="76.0" rx="8" ry="8" fill="rgba(59, 130, 246, 1)" stroke="rgba(229, 231, 235, 1)" stroke-width="2"></rect><text x="597.0" y="1207.0" fill="rgba(255, 255, 255, 1)" font-size="32" text-anchor="start" font-family="-apple-system, BlinkMacSystemFont, MiSans, system-ui, sans-serif">双箭头线</text><rect x="652.0" y="33.0" width="618.0" height="76.0" rx="8" ry="8" fill="rgba(0, 0, 0, 0)" stroke="rgba(229, 231, 235, 1)" stroke-width="2"></rect><text x="666.0" y="85.0" fill="rgba(255, 255, 255, 1)" font-size="32" text-anchor="start" font-family="-apple-system, BlinkMacSystemFont, MiSans, system-ui, sans-serif">由于有“关系的关系”，所以关系也有uuid，所以一切都有uuid</text><rect x="-1417.0" y="1037.0" width="161.0" height="76.0" rx="8" ry="8" fill="rgba(59, 130, 246, 1)" stroke="rgba(229, 231, 235, 1)" stroke-width="2"></rect><text x="-1403.0" y="1089.0" fill="rgba(255, 255, 255, 1)" font-size="32" text-anchor="start" font-family="-apple-system, BlinkMacSystemFont, MiSans, system-ui, sans-serif">树形图分析结果</text><rect x="-792.0" y="-36.0" width="85.0" height="76.0" rx="8" ry="8" fill="rgba(0, 0, 0, 0)" stroke="rgba(229, 231, 235, 1)" stroke-width="2"></rect><text x="-778.0" y="16.0" fill="rgba(255, 255, 255, 1)" font-size="32" text-anchor="start" font-family="-apple-system, BlinkMacSystemFont, MiSans, system-ui, sans-serif">碰撞箱</text><rect x="-2842.0" y="98.0" width="180.0" height="76.0" rx="8" ry="8" fill="rgba(168, 85, 247, 1)" stroke="rgba(229, 231, 235, 1)" stroke-width="2"></rect><text x="-2828.0" y="150.0" fill="rgba(255, 255, 255, 1)" font-size="32" text-anchor="start" font-family="-apple-system, BlinkMacSystemFont, MiSans, system-ui, sans-serif">可参与碰撞的图形</text><rect x="-3147.0" y="226.0" width="123.0" height="76.0" rx="8" ry="8" fill="rgba(0, 0, 0, 0)" stroke="rgba(229, 231, 235, 1)" stroke-width="2"></rect><text x="-3133.0" y="278.0" fill="rgba(255, 255, 255, 1)" font-size="32" text-anchor="start" font-family="-apple-system, BlinkMacSystemFont, MiSans, system-ui, sans-serif">碰撞管理器</text><rect x="-2608.0" y="-569.0" width="259.0" height="76.0" rx="8" ry="8" fill="rgba(239, 68, 68, 1)" stroke="rgba(229, 231, 235, 1)" stroke-width="2"></rect><text x="-2594.0" y="-517.0" fill="rgba(255, 255, 255, 1)" font-size="32" text-anchor="start" font-family="-apple-system, BlinkMacSystemFont, MiSans, system-ui, sans-serif">NameSpace单例</text><rect x="-1123.0" y="1037.0" width="104.0" height="76.0" rx="8" ry="8" fill="rgba(0, 0, 0, 0)" stroke="rgba(229, 231, 235, 1)" stroke-width="2"></rect><text x="-1109.0" y="1089.0" fill="rgba(255, 255, 255, 1)" font-size="32" text-anchor="start" font-family="-apple-system, BlinkMacSystemFont, MiSans, system-ui, sans-serif">双向关系</text><rect x="-892.0" y="1041.0" width="104.0" height="76.0" rx="8" ry="8" fill="rgba(0, 0, 0, 0)" stroke="rgba(229, 231, 235, 1)" stroke-width="2"></rect><text x="-878.0" y="1093.0" fill="rgba(255, 255, 255, 1)" font-size="32" text-anchor="start" font-family="-apple-system, BlinkMacSystemFont, MiSans, system-ui, sans-serif">单向关系</text><rect x="784.0" y="1156.0" width="123.0" height="76.0" rx="8" ry="8" fill="rgba(59, 130, 246, 1)" stroke="rgba(229, 231, 235, 1)" stroke-width="2"></rect><text x="798.0" y="1208.0" fill="rgba(255, 255, 255, 1)" font-size="32" text-anchor="start" font-family="-apple-system, BlinkMacSystemFont, MiSans, system-ui, sans-serif">烟雾弹遮罩</text><rect x="976.0" y="1154.0" width="66.0" height="76.0" rx="8" ry="8" fill="rgba(59, 130, 246, 1)" stroke="rgba(229, 231, 235, 1)" stroke-width="2"></rect><text x="990.0" y="1206.0" fill="rgba(255, 255, 255, 1)" font-size="32" text-anchor="start" font-family="-apple-system, BlinkMacSystemFont, MiSans, system-ui, sans-serif">烟花</text><rect x="-1873.0" y="796.0" width="306.0" height="76.0" rx="8" ry="8" fill="rgba(168, 85, 247, 1)" stroke="rgba(229, 231, 235, 1)" stroke-width="2"></rect><text x="-1859.0" y="848.0" fill="rgba(255, 255, 255, 1)" font-size="32" text-anchor="start" font-family="-apple-system, BlinkMacSystemFont, MiSans, system-ui, sans-serif">AssociationEffect</text><rect x="-1985.0" y="1042.0" width="123.0" height="76.0" rx="8" ry="8" fill="rgba(0, 0, 0, 0)" stroke="rgba(229, 231, 235, 1)" stroke-width="2"></rect><text x="-1971.0" y="1094.0" fill="rgba(255, 255, 255, 1)" font-size="32" text-anchor="start" font-family="-apple-system, BlinkMacSystemFont, MiSans, system-ui, sans-serif">引力波特效</text><rect x="-2608.0" y="-492.0" width="66.0" height="76.0" rx="8" ry="8" fill="rgba(234, 179, 8, 1)" stroke="rgba(229, 231, 235, 1)" stroke-width="2"></rect><text x="-2594.0" y="-440.0" fill="rgba(0, 0, 0, 1)" font-size="32" text-anchor="start" font-family="-apple-system, BlinkMacSystemFont, MiSans, system-ui, sans-serif">对象</text><rect x="-3121.0" y="619.0" width="66.0" height="76.0" rx="8" ry="8" fill="rgba(59, 130, 246, 1)" stroke="rgba(229, 231, 235, 1)" stroke-width="2"></rect><text x="-3107.0" y="671.0" fill="rgba(255, 255, 255, 1)" font-size="32" text-anchor="start" font-family="-apple-system, BlinkMacSystemFont, MiSans, system-ui, sans-serif">矩形</text><rect x="-2997.0" y="619.0" width="66.0" height="76.0" rx="8" ry="8" fill="rgba(59, 130, 246, 1)" stroke="rgba(229, 231, 235, 1)" stroke-width="2"></rect><text x="-2983.0" y="671.0" fill="rgba(255, 255, 255, 1)" font-size="32" text-anchor="start" font-family="-apple-system, BlinkMacSystemFont, MiSans, system-ui, sans-serif">圆形</text><rect x="-2873.0" y="619.0" width="85.0" height="76.0" rx="8" ry="8" fill="rgba(59, 130, 246, 1)" stroke="rgba(229, 231, 235, 1)" stroke-width="2"></rect><text x="-2859.0" y="671.0" fill="rgba(255, 255, 255, 1)" font-size="32" text-anchor="start" font-family="-apple-system, BlinkMacSystemFont, MiSans, system-ui, sans-serif">线段形</text><rect x="-2718.0" y="619.0" width="47.0" height="76.0" rx="8" ry="8" fill="rgba(59, 130, 246, 1)" stroke="rgba(229, 231, 235, 1)" stroke-width="2"></rect><text x="-2704.0" y="671.0" fill="rgba(255, 255, 255, 1)" font-size="32" text-anchor="start" font-family="-apple-system, BlinkMacSystemFont, MiSans, system-ui, sans-serif">点</text><rect x="-2626.0" y="619.0" width="142.0" height="76.0" rx="8" ry="8" fill="rgba(59, 130, 246, 1)" stroke="rgba(229, 231, 235, 1)" stroke-width="2"></rect><text x="-2612.0" y="671.0" fill="rgba(255, 255, 255, 1)" font-size="32" text-anchor="start" font-family="-apple-system, BlinkMacSystemFont, MiSans, system-ui, sans-serif">贝塞尔线段形</text><rect x="-527.0" y="-674.0" width="205.0" height="76.0" rx="8" ry="8" fill="rgba(22, 163, 74, 1)" stroke="rgba(229, 231, 235, 1)" stroke-width="2"></rect><text x="-513.0" y="-622.0" fill="rgba(255, 255, 255, 1)" font-size="32" text-anchor="start" font-family="-apple-system, BlinkMacSystemFont, MiSans, system-ui, sans-serif">Disposable</text><rect x="-552.0" y="12.0" width="66.0" height="76.0" rx="8" ry="8" fill="rgba(0, 0, 0, 0)" stroke="rgba(229, 231, 235, 1)" stroke-width="2"></rect><text x="-538.0" y="64.0" fill="rgba(255, 255, 255, 1)" font-size="32" text-anchor="start" font-family="-apple-system, BlinkMacSystemFont, MiSans, system-ui, sans-serif">字段</text><rect x="-864.0" y="57.0" width="123.0" height="76.0" rx="8" ry="8" fill="rgba(0, 0, 0, 0)" stroke="rgba(229, 231, 235, 1)" stroke-width="2"></rect><text x="-850.0" y="109.0" fill="rgba(255, 255, 255, 1)" font-size="32" text-anchor="start" font-family="-apple-system, BlinkMacSystemFont, MiSans, system-ui, sans-serif">渲染函数？</text><rect x="-780.0" y="-293.0" width="186.0" height="76.0" rx="8" ry="8" fill="rgba(0, 0, 0, 0)" stroke="rgba(229, 231, 235, 1)" stroke-width="2"></rect><text x="-766.0" y="-241.0" fill="rgba(255, 255, 255, 1)" font-size="32" text-anchor="start" font-family="-apple-system, BlinkMacSystemFont, MiSans, system-ui, sans-serif">Extension</text><rect x="-995.0" y="-289.0" width="66.0" height="76.0" rx="8" ry="8" fill="rgba(0, 0, 0, 0)" stroke="rgba(229, 231, 235, 1)" stroke-width="2"></rect><text x="-981.0" y="-237.0" fill="rgba(255, 255, 255, 1)" font-size="32" text-anchor="start" font-family="-apple-system, BlinkMacSystemFont, MiSans, system-ui, sans-serif">字段</text><rect x="-1255.0" y="-287.0" width="173.3" height="76.0" rx="8" ry="8" fill="rgba(0, 0, 0, 0)" stroke="rgba(229, 231, 235, 1)" stroke-width="2"></rect><text x="-1241.0" y="-235.0" fill="rgba(255, 255, 255, 1)" font-size="32" text-anchor="start" font-family="-apple-system, BlinkMacSystemFont, MiSans, system-ui, sans-serif">init(core)</text><rect x="-1806.0" y="102.0" width="104.0" height="76.0" rx="8" ry="8" fill="rgba(59, 130, 246, 1)" stroke="rgba(229, 231, 235, 1)" stroke-width="2"></rect><text x="-1792.0" y="154.0" fill="rgba(255, 255, 255, 1)" font-size="32" text-anchor="start" font-family="-apple-system, BlinkMacSystemFont, MiSans, system-ui, sans-serif">碰撞箱类</text><rect x="-1985.0" y="103.0" width="66.0" height="76.0" rx="8" ry="8" fill="rgba(0, 0, 0, 0)" stroke="rgba(229, 231, 235, 1)" stroke-width="2"></rect><text x="-1971.0" y="155.0" fill="rgba(255, 255, 255, 1)" font-size="32" text-anchor="start" font-family="-apple-system, BlinkMacSystemFont, MiSans, system-ui, sans-serif">字段</text><rect x="-2405.0" y="98.0" width="104.0" height="76.0" rx="8" ry="8" fill="rgba(0, 0, 0, 0)" stroke="rgba(229, 231, 235, 1)" stroke-width="2"></rect><text x="-2391.0" y="150.0" fill="rgba(255, 255, 255, 1)" font-size="32" text-anchor="start" font-family="-apple-system, BlinkMacSystemFont, MiSans, system-ui, sans-serif">图形数组</text><rect x="-2376.0" y="-211.0" width="142.0" height="76.0" rx="8" ry="8" fill="rgba(0, 0, 0, 0)" stroke="rgba(229, 231, 235, 1)" stroke-width="2"></rect><text x="-2362.0" y="-159.0" fill="rgba(255, 255, 255, 1)" font-size="32" text-anchor="start" font-family="-apple-system, BlinkMacSystemFont, MiSans, system-ui, sans-serif">鼠标是否在内</text><rect x="-2376.0" y="-135.0" width="142.0" height="76.0" rx="8" ry="8" fill="rgba(0, 0, 0, 0)" stroke="rgba(229, 231, 235, 1)" stroke-width="2"></rect><text x="-2362.0" y="-83.0" fill="rgba(255, 255, 255, 1)" font-size="32" text-anchor="start" font-family="-apple-system, BlinkMacSystemFont, MiSans, system-ui, sans-serif">鼠标是否框选</text><rect x="-2376.0" y="-59.0" width="142.0" height="76.0" rx="8" ry="8" fill="rgba(0, 0, 0, 0)" stroke="rgba(229, 231, 235, 1)" stroke-width="2"></rect><text x="-2362.0" y="-7.0" fill="rgba(255, 255, 255, 1)" font-size="32" text-anchor="start" font-family="-apple-system, BlinkMacSystemFont, MiSans, system-ui, sans-serif">划线是否切中</text><rect x="-2376.0" y="-287.0" width="142.0" height="76.0" rx="8" ry="8" fill="rgba(0, 0, 0, 0)" stroke="rgba(229, 231, 235, 1)" stroke-width="2"></rect><text x="-2362.0" y="-235.0" fill="rgba(255, 255, 255, 1)" font-size="32" text-anchor="start" font-family="-apple-system, BlinkMacSystemFont, MiSans, system-ui, sans-serif">更新形状数组</text><rect x="112.0" y="798.0" width="197.8" height="76.0" rx="8" ry="8" fill="rgba(59, 130, 246, 1)" stroke="rgba(229, 231, 235, 1)" stroke-width="2"></rect><text x="126.0" y="850.0" fill="rgba(255, 255, 255, 1)" font-size="32" text-anchor="start" font-family="-apple-system, BlinkMacSystemFont, MiSans, system-ui, sans-serif">VeenCircle</text><rect x="-297.0" y="798.0" width="382.8" height="76.0" rx="8" ry="8" fill="rgba(59, 130, 246, 1)" stroke="rgba(229, 231, 235, 1)" stroke-width="2"></rect><text x="-283.0" y="850.0" fill="rgba(255, 255, 255, 1)" font-size="32" text-anchor="start" font-family="-apple-system, BlinkMacSystemFont, MiSans, system-ui, sans-serif">VeenCircleAssociation</text><rect x="-214.0" y="-669.0" width="161.5" height="76.0" rx="8" ry="8" fill="rgba(22, 163, 74, 1)" stroke="rgba(229, 231, 235, 1)" stroke-width="2"></rect><text x="-200.0" y="-617.0" fill="rgba(255, 255, 255, 1)" font-size="32" text-anchor="start" font-family="-apple-system, BlinkMacSystemFont, MiSans, system-ui, sans-serif">Tickable</text><rect x="544.0" y="-741.0" width="85.0" height="76.0" rx="8" ry="8" fill="rgba(0, 0, 0, 0)" stroke="rgba(229, 231, 235, 1)" stroke-width="2"></rect><text x="558.0" y="-689.0" fill="rgba(255, 255, 255, 1)" font-size="32" text-anchor="start" font-family="-apple-system, BlinkMacSystemFont, MiSans, system-ui, sans-serif">新设计</text><rect x="807.0" y="-1280.0" width="490.0" height="76.0" rx="8" ry="8" fill="rgba(0, 0, 0, 0)" stroke="rgba(229, 231, 235, 1)" stroke-width="2"></rect><text x="821.0" y="-1228.0" fill="rgba(255, 255, 255, 1)" font-size="32" text-anchor="start" font-family="-apple-system, BlinkMacSystemFont, MiSans, system-ui, sans-serif">onObjectClick(mouseButton)</text><rect x="1009.0" y="-1199.0" width="604.0" height="76.0" rx="8" ry="8" fill="rgba(0, 0, 0, 0)" stroke="rgba(229, 231, 235, 1)" stroke-width="2"></rect><text x="1023.0" y="-1147.0" fill="rgba(255, 255, 255, 1)" font-size="32" text-anchor="start" font-family="-apple-system, BlinkMacSystemFont, MiSans, system-ui, sans-serif">onObjectDoubleClick(mouseButton)</text><rect x="43.0" y="-968.0" width="346.0" height="76.0" rx="8" ry="8" fill="rgba(0, 0, 0, 0)" stroke="rgba(229, 231, 235, 1)" stroke-width="2"></rect><text x="57.0" y="-916.0" fill="rgba(255, 255, 255, 1)" font-size="32" text-anchor="start" font-family="-apple-system, BlinkMacSystemFont, MiSans, system-ui, sans-serif">onMouseMoveEnter</text><rect x="43.0" y="-892.0" width="356.4" height="76.0" rx="8" ry="8" fill="rgba(0, 0, 0, 0)" stroke="rgba(229, 231, 235, 1)" stroke-width="2"></rect><text x="57.0" y="-840.0" fill="rgba(255, 255, 255, 1)" font-size="32" text-anchor="start" font-family="-apple-system, BlinkMacSystemFont, MiSans, system-ui, sans-serif">onMouseMoveLeave</text><rect x="1193.0" y="-853.0" width="390.0" height="76.0" rx="8" ry="8" fill="rgba(0, 0, 0, 0)" stroke="rgba(229, 231, 235, 1)" stroke-width="2"></rect><text x="1207.0" y="-801.0" fill="rgba(255, 255, 255, 1)" font-size="32" text-anchor="start" font-family="-apple-system, BlinkMacSystemFont, MiSans, system-ui, sans-serif">onRectangleSelectAdd</text><rect x="1195.0" y="-774.0" width="459.1" height="76.0" rx="8" ry="8" fill="rgba(0, 0, 0, 0)" stroke="rgba(229, 231, 235, 1)" stroke-width="2"></rect><text x="1209.0" y="-722.0" fill="rgba(255, 255, 255, 1)" font-size="32" text-anchor="start" font-family="-apple-system, BlinkMacSystemFont, MiSans, system-ui, sans-serif">onRectangleSelectRemove</text><rect x="1145.0" y="-1018.0" width="473.0" height="76.0" rx="8" ry="8" fill="rgba(0, 0, 0, 0)" stroke="rgba(229, 231, 235, 1)" stroke-width="2"></rect><text x="1159.0" y="-966.0" fill="rgba(255, 255, 255, 1)" font-size="32" text-anchor="start" font-family="-apple-system, BlinkMacSystemFont, MiSans, system-ui, sans-serif">onDragMove(mouseButton)</text><rect x="1198.0" y="-696.0" width="526.7" height="76.0" rx="8" ry="8" fill="rgba(0, 0, 0, 0)" stroke="rgba(229, 231, 235, 1)" stroke-width="2"></rect><text x="1212.0" y="-644.0" fill="rgba(255, 255, 255, 1)" font-size="32" text-anchor="start" font-family="-apple-system, BlinkMacSystemFont, MiSans, system-ui, sans-serif">_rectangleSelectLevel: number</text><rect x="908.0" y="-741.0" width="104.0" height="76.0" rx="8" ry="8" fill="rgba(0, 0, 0, 0)" stroke="rgba(229, 231, 235, 1)" stroke-width="2"></rect><text x="922.0" y="-689.0" fill="rgba(255, 255, 255, 1)" font-size="32" text-anchor="start" font-family="-apple-system, BlinkMacSystemFont, MiSans, system-ui, sans-serif">框选相关</text><rect x="1181.0" y="-527.0" width="296.4" height="76.0" rx="8" ry="8" fill="rgba(0, 0, 0, 0)" stroke="rgba(229, 231, 235, 1)" stroke-width="2"></rect><text x="1195.0" y="-475.0" fill="rgba(255, 255, 255, 1)" font-size="32" text-anchor="start" font-family="-apple-system, BlinkMacSystemFont, MiSans, system-ui, sans-serif">onLineSelectAdd</text><rect x="1190.0" y="-439.0" width="365.6" height="76.0" rx="8" ry="8" fill="rgba(0, 0, 0, 0)" stroke="rgba(229, 231, 235, 1)" stroke-width="2"></rect><text x="1204.0" y="-387.0" fill="rgba(255, 255, 255, 1)" font-size="32" text-anchor="start" font-family="-apple-system, BlinkMacSystemFont, MiSans, system-ui, sans-serif">onLineSelectRemove</text><rect x="908.0" y="-512.0" width="123.0" height="76.0" rx="8" ry="8" fill="rgba(0, 0, 0, 0)" stroke="rgba(229, 231, 235, 1)" stroke-width="2"></rect><text x="922.0" y="-460.0" fill="rgba(255, 255, 255, 1)" font-size="32" text-anchor="start" font-family="-apple-system, BlinkMacSystemFont, MiSans, system-ui, sans-serif">删除线相关</text><rect x="1182.0" y="-354.0" width="175.0" height="76.0" rx="8" ry="8" fill="rgba(0, 0, 0, 0)" stroke="rgba(229, 231, 235, 1)" stroke-width="2"></rect><text x="1196.0" y="-302.0" fill="rgba(255, 255, 255, 1)" font-size="32" text-anchor="start" font-family="-apple-system, BlinkMacSystemFont, MiSans, system-ui, sans-serif">onDelete</text><rect x="43.0" y="-816.0" width="348.3" height="76.0" rx="8" ry="8" fill="rgba(0, 0, 0, 0)" stroke="rgba(229, 231, 235, 1)" stroke-width="2"></rect><text x="57.0" y="-764.0" fill="rgba(255, 255, 255, 1)" font-size="32" text-anchor="start" font-family="-apple-system, BlinkMacSystemFont, MiSans, system-ui, sans-serif">onControlWheel(dy)</text><line x1="162.0" y1="94.6" x2="-71.0" y2="50.4" stroke="rgba(229, 231, 235, 1)" stroke-width="2"></line><polygon points="-71.0,50.4 -57.0,55.7 -63.5,51.2 -56.2,48.0" fill="rgba(229, 231, 235, 1)" stroke="rgba(229, 231, 235, 1)"></polygon><line x1="1119.3" y1="1714.0" x2="1428.7" y2="874.0" stroke="rgba(229, 231, 235, 1)" stroke-width="2"></line><polygon points="1428.7,874.0 1420.4,886.5 1426.3,881.1 1427.8,889.0" fill="rgba(229, 231, 235, 1)" stroke="rgba(229, 231, 235, 1)"></polygon><line x1="1344.6" y1="1717.0" x2="1428.9" y2="874.0" stroke="rgba(229, 231, 235, 1)" stroke-width="2"></line><polygon points="1428.9,874.0 1423.7,888.1 1428.2,881.5 1431.5,888.8" fill="rgba(229, 231, 235, 1)" stroke="rgba(229, 231, 235, 1)"></polygon><line x1="1578.4" y1="1721.0" x2="1429.1" y2="874.0" stroke="rgba(229, 231, 235, 1)" stroke-width="2"></line><polygon points="1429.1,874.0 1427.6,888.9 1430.3,881.4 1435.3,887.7" fill="rgba(229, 231, 235, 1)" stroke="rgba(229, 231, 235, 1)"></polygon><line x1="1877.2" y1="1716.0" x2="1429.4" y2="874.0" stroke="rgba(229, 231, 235, 1)" stroke-width="2"></line><polygon points="1429.4,874.0 1432.3,888.7 1432.7,880.7 1439.3,885.3" fill="rgba(229, 231, 235, 1)" stroke="rgba(229, 231, 235, 1)"></polygon><line x1="2171.3" y1="1714.0" x2="1429.7" y2="874.0" stroke="rgba(229, 231, 235, 1)" stroke-width="2"></line><polygon points="1429.7,874.0 1435.8,887.7 1434.4,879.8 1441.8,882.8" fill="rgba(229, 231, 235, 1)" stroke="rgba(229, 231, 235, 1)"></polygon><line x1="1678.0" y1="836.0" x2="1591.0" y2="836.0" stroke="rgba(229, 231, 235, 1)" stroke-width="2"></line><polygon points="1591.0,836.0 1605.5,839.9 1598.5,836.0 1605.5,832.1" fill="rgba(229, 231, 235, 1)" stroke="rgba(229, 231, 235, 1)"></polygon><line x1="927.6" y1="1518.0" x2="1428.4" y2="874.0" stroke="rgba(229, 231, 235, 1)" stroke-width="2"></line><polygon points="1428.4,874.0 1416.9,883.7 1424.1,880.2 1423.3,888.1" fill="rgba(229, 231, 235, 1)" stroke="rgba(229, 231, 235, 1)"></polygon><line x1="853.0" y1="1555.7" x2="831.4" y2="1555.6" stroke="rgba(229, 231, 235, 1)" stroke-width="2"></line><polygon points="831.4,1555.6 845.9,1559.6 838.9,1555.7 845.9,1551.8" fill="rgba(229, 231, 235, 1)" stroke="rgba(229, 231, 235, 1)"></polygon><line x1="454.2" y1="350.0" x2="-182.2" y2="88.0" stroke="rgba(229, 231, 235, 1)" stroke-width="2"></line><polygon points="-182.2,88.0 -171.2,98.2 -175.5,91.5 -167.5,91.3" fill="rgba(229, 231, 235, 1)" stroke="rgba(229, 231, 235, 1)"></polygon><line x1="1427.0" y1="798.0" x2="458.0" y2="426.0" stroke="rgba(229, 231, 235, 1)" stroke-width="2"></line><polygon points="458.0,426.0 469.5,435.6 464.8,429.1 472.8,428.5" fill="rgba(229, 231, 235, 1)" stroke="rgba(229, 231, 235, 1)"></polygon><line x1="1094.7" y1="798.0" x2="457.3" y2="426.0" stroke="rgba(229, 231, 235, 1)" stroke-width="2"></line><polygon points="457.3,426.0 466.9,437.5 463.4,430.3 471.4,431.1" fill="rgba(229, 231, 235, 1)" stroke="rgba(229, 231, 235, 1)"></polygon><line x1="891.6" y1="798.0" x2="456.9" y2="426.0" stroke="rgba(229, 231, 235, 1)" stroke-width="2"></line><polygon points="456.9,426.0 464.2,439.1 462.1,431.4 469.8,433.7" fill="rgba(229, 231, 235, 1)" stroke="rgba(229, 231, 235, 1)"></polygon><line x1="-987.2" y1="348.0" x2="-186.3" y2="88.0" stroke="rgba(229, 231, 235, 1)" stroke-width="2"></line><polygon points="-186.3,88.0 -201.2,90.0 -193.3,90.9 -198.2,97.2" fill="rgba(229, 231, 235, 1)" stroke="rgba(229, 231, 235, 1)"></polygon><line x1="-1299.0" y1="323.2" x2="-1096.0" y2="385.3" stroke="rgba(229, 231, 235, 1)" stroke-width="2"></line><polygon points="-1096.0,385.3 -1109.9,379.7 -1103.4,384.4 -1110.9,387.4" fill="rgba(229, 231, 235, 1)" stroke="rgba(229, 231, 235, 1)"></polygon><line x1="-1402.0" y1="445.0" x2="-1096.0" y2="386.4" stroke="rgba(229, 231, 235, 1)" stroke-width="2"></line><polygon points="-1096.0,386.4 -1110.8,383.8 -1103.5,387.1 -1110.1,391.6" fill="rgba(229, 231, 235, 1)" stroke="rgba(229, 231, 235, 1)"></polygon><line x1="-1591.9" y1="1038.0" x2="-1355.6" y2="873.0" stroke="rgba(229, 231, 235, 1)" stroke-width="2"></line><polygon points="-1355.6,873.0 -1368.5,880.6 -1360.9,878.3 -1363.0,886.0" fill="rgba(229, 231, 235, 1)" stroke="rgba(229, 231, 235, 1)"></polygon><line x1="-541.4" y1="799.0" x2="-988.6" y2="424.0" stroke="rgba(229, 231, 235, 1)" stroke-width="2"></line><polygon points="-988.6,424.0 -981.1,437.0 -983.3,429.3 -975.6,431.5" fill="rgba(229, 231, 235, 1)" stroke="rgba(229, 231, 235, 1)"></polygon><line x1="-2166.1" y1="803.0" x2="-991.9" y2="424.0" stroke="rgba(229, 231, 235, 1)" stroke-width="2"></line><polygon points="-991.9,424.0 -1006.8,425.6 -998.9,426.7 -1004.0,432.8" fill="rgba(229, 231, 235, 1)" stroke="rgba(229, 231, 235, 1)"></polygon><line x1="-409.4" y1="1105.0" x2="-540.1" y2="875.0" stroke="rgba(229, 231, 235, 1)" stroke-width="2"></line><polygon points="-540.1,875.0 -537.9,889.8 -537.1,881.9 -530.8,886.8" fill="rgba(229, 231, 235, 1)" stroke="rgba(229, 231, 235, 1)"></polygon><line x1="-614.3" y1="1104.0" x2="-540.7" y2="875.0" stroke="rgba(229, 231, 235, 1)" stroke-width="2"></line><polygon points="-540.7,875.0 -547.9,888.2 -542.5,882.3 -540.4,890.0" fill="rgba(229, 231, 235, 1)" stroke="rgba(229, 231, 235, 1)"></polygon><line x1="743.0" y1="352.3" x2="517.0" y2="380.4" stroke="rgba(229, 231, 235, 1)" stroke-width="2"></line><polygon points="517.0,380.4 531.9,382.5 524.4,379.5 530.9,374.8" fill="rgba(229, 231, 235, 1)" stroke="rgba(229, 231, 235, 1)"></polygon><line x1="743.0" y1="402.8" x2="517.0" y2="391.1" stroke="rgba(229, 231, 235, 1)" stroke-width="2"></line><polygon points="517.0,391.1 531.3,395.8 524.5,391.5 531.7,388.0" fill="rgba(229, 231, 235, 1)" stroke="rgba(229, 231, 235, 1)"></polygon><line x1="567.3" y1="798.0" x2="456.2" y2="426.0" stroke="rgba(229, 231, 235, 1)" stroke-width="2"></line><polygon points="456.2,426.0 456.0,441.0 458.0,433.3 463.5,439.1" fill="rgba(229, 231, 235, 1)" stroke="rgba(229, 231, 235, 1)"></polygon><line x1="-983.0" y1="799.0" x2="-989.5" y2="424.0" stroke="rgba(229, 231, 235, 1)" stroke-width="2"></line><polygon points="-989.5,424.0 -993.2,438.5 -989.4,431.5 -985.4,438.4" fill="rgba(229, 231, 235, 1)" stroke="rgba(229, 231, 235, 1)"></polygon><line x1="634.8" y1="1155.0" x2="567.7" y2="874.0" stroke="rgba(229, 231, 235, 1)" stroke-width="2"></line><polygon points="567.7,874.0 566.6,889.0 569.1,881.4 574.2,887.5" fill="rgba(229, 231, 235, 1)" stroke="rgba(229, 231, 235, 1)"></polygon><line x1="428.9" y1="1158.0" x2="567.1" y2="874.0" stroke="rgba(229, 231, 235, 1)" stroke-width="2"></line><polygon points="567.1,874.0 558.3,886.1 564.4,881.0 565.5,888.9" fill="rgba(229, 231, 235, 1)" stroke="rgba(229, 231, 235, 1)"></polygon><line x1="176.0" y1="-31.6" x2="-71.0" y2="49.3" stroke="rgba(229, 231, 235, 1)" stroke-width="2"></line><polygon points="-71.0,49.3 -56.0,50.3 -63.6,47.8 -57.5,42.7" fill="rgba(229, 231, 235, 1)" stroke="rgba(229, 231, 235, 1)"></polygon><line x1="-1353.8" y1="797.0" x2="-990.2" y2="424.0" stroke="rgba(229, 231, 235, 1)" stroke-width="2"></line><polygon points="-990.2,424.0 -1002.4,432.8 -995.0,429.8 -996.4,437.7" fill="rgba(229, 231, 235, 1)" stroke="rgba(229, 231, 235, 1)"></polygon><line x1="-1336.6" y1="1037.0" x2="-1354.4" y2="873.0" stroke="rgba(229, 231, 235, 1)" stroke-width="2"></line><polygon points="-1354.4,873.0 -1357.2,887.7 -1353.9,880.5 -1349.5,887.2" fill="rgba(229, 231, 235, 1)" stroke="rgba(229, 231, 235, 1)"></polygon><line x1="-1070.6" y1="1037.0" x2="-983.4" y2="875.0" stroke="rgba(229, 231, 235, 1)" stroke-width="2"></line><polygon points="-983.4,875.0 -992.1,887.2 -986.0,882.0 -984.8,889.9" fill="rgba(229, 231, 235, 1)" stroke="rgba(229, 231, 235, 1)"></polygon><line x1="-840.6" y1="1041.0" x2="-982.4" y2="875.0" stroke="rgba(229, 231, 235, 1)" stroke-width="2"></line><polygon points="-982.4,875.0 -978.3,889.4 -978.5,881.5 -971.6,885.5" fill="rgba(229, 231, 235, 1)" stroke="rgba(229, 231, 235, 1)"></polygon><line x1="845.6" y1="1156.0" x2="892.4" y2="874.0" stroke="rgba(229, 231, 235, 1)" stroke-width="2"></line><polygon points="892.4,874.0 886.6,887.9 891.4,881.4 894.3,888.9" fill="rgba(229, 231, 235, 1)" stroke="rgba(229, 231, 235, 1)"></polygon><line x1="1008.7" y1="1154.0" x2="892.8" y2="874.0" stroke="rgba(229, 231, 235, 1)" stroke-width="2"></line><polygon points="892.8,874.0 893.6,889.0 895.1,881.1 901.0,886.6" fill="rgba(229, 231, 235, 1)" stroke="rgba(229, 231, 235, 1)"></polygon><line x1="-1718.5" y1="796.0" x2="-991.0" y2="424.0" stroke="rgba(229, 231, 235, 1)" stroke-width="2"></line><polygon points="-991.0,424.0 -1005.4,428.3 -997.4,427.9 -1001.3,434.9" fill="rgba(229, 231, 235, 1)" stroke="rgba(229, 231, 235, 1)"></polygon><line x1="-1922.6" y1="1042.0" x2="-1720.9" y2="872.0" stroke="rgba(229, 231, 235, 1)" stroke-width="2"></line><polygon points="-1720.9,872.0 -1733.1,880.7 -1725.7,877.8 -1727.1,885.6" fill="rgba(229, 231, 235, 1)" stroke="rgba(229, 231, 235, 1)"></polygon><line x1="-3063.5" y1="619.0" x2="-2776.5" y2="174.0" stroke="rgba(229, 231, 235, 1)" stroke-width="2"></line><polygon points="-2776.5,174.0 -2787.6,184.1 -2780.6,180.3 -2781.1,188.3" fill="rgba(229, 231, 235, 1)" stroke="rgba(229, 231, 235, 1)"></polygon><line x1="-2948.5" y1="619.0" x2="-2767.5" y2="174.0" stroke="rgba(229, 231, 235, 1)" stroke-width="2"></line><polygon points="-2767.5,174.0 -2776.5,186.0 -2770.3,180.9 -2769.3,188.9" fill="rgba(229, 231, 235, 1)" stroke="rgba(229, 231, 235, 1)"></polygon><line x1="-2824.8" y1="619.0" x2="-2757.7" y2="174.0" stroke="rgba(229, 231, 235, 1)" stroke-width="2"></line><polygon points="-2757.7,174.0 -2763.7,187.7 -2758.8,181.4 -2756.0,188.9" fill="rgba(229, 231, 235, 1)" stroke="rgba(229, 231, 235, 1)"></polygon><line x1="-2698.7" y1="619.0" x2="-2747.8" y2="174.0" stroke="rgba(229, 231, 235, 1)" stroke-width="2"></line><polygon points="-2747.8,174.0 -2750.1,188.8 -2747.0,181.5 -2742.4,188.0" fill="rgba(229, 231, 235, 1)" stroke="rgba(229, 231, 235, 1)"></polygon><line x1="-2569.4" y1="619.0" x2="-2737.6" y2="174.0" stroke="rgba(229, 231, 235, 1)" stroke-width="2"></line><polygon points="-2737.6,174.0 -2736.1,188.9 -2735.0,181.0 -2728.9,186.2" fill="rgba(229, 231, 235, 1)" stroke="rgba(229, 231, 235, 1)"></polygon><line x1="-197.3" y1="12.0" x2="-411.2" y2="-598.0" stroke="rgba(229, 231, 235, 1)" stroke-width="2"></line><polygon points="-411.2,-598.0 -410.0,-583.0 -408.7,-590.9 -402.7,-585.6" fill="rgba(229, 231, 235, 1)" stroke="rgba(229, 231, 235, 1)"></polygon><line x1="-297.0" y1="50.0" x2="-486.0" y2="50.0" stroke="rgba(229, 231, 235, 1)" stroke-width="2"></line><polygon points="-486.0,50.0 -471.5,53.9 -478.5,50.0 -471.5,46.1" fill="rgba(229, 231, 235, 1)" stroke="rgba(229, 231, 235, 1)"></polygon><line x1="-552.0" y1="43.1" x2="-707.0" y2="10.9" stroke="rgba(229, 231, 235, 1)" stroke-width="2"></line><polygon points="-707.0,10.9 -693.6,17.6 -699.7,12.4 -692.0,10.0" fill="rgba(229, 231, 235, 1)" stroke="rgba(229, 231, 235, 1)"></polygon><line x1="-552.0" y1="55.2" x2="-741.0" y2="85.2" stroke="rgba(229, 231, 235, 1)" stroke-width="2"></line><polygon points="-741.0,85.2 -726.1,86.8 -733.6,84.1 -727.3,79.1" fill="rgba(229, 231, 235, 1)" stroke="rgba(229, 231, 235, 1)"></polygon><line x1="-450.7" y1="-598.0" x2="-660.8" y2="-293.0" stroke="rgba(229, 231, 235, 1)" stroke-width="2"></line><polygon points="-660.8,-293.0 -649.4,-302.7 -656.6,-299.2 -655.8,-307.1" fill="rgba(229, 231, 235, 1)" stroke="rgba(229, 231, 235, 1)"></polygon><line x1="-780.0" y1="-253.6" x2="-929.0" y2="-251.5" stroke="rgba(229, 231, 235, 1)" stroke-width="2"></line><polygon points="-929.0,-251.5 -914.5,-247.8 -921.5,-251.6 -914.6,-255.6" fill="rgba(229, 231, 235, 1)" stroke="rgba(229, 231, 235, 1)"></polygon><line x1="-995.0" y1="-250.7" x2="-1081.7" y2="-249.8" stroke="rgba(229, 231, 235, 1)" stroke-width="2"></line><polygon points="-1081.7,-249.8 -1067.2,-246.1 -1074.2,-249.9 -1067.3,-253.9" fill="rgba(229, 231, 235, 1)" stroke="rgba(229, 231, 235, 1)"></polygon><line x1="-1806.0" y1="140.3" x2="-1919.0" y2="140.8" stroke="rgba(229, 231, 235, 1)" stroke-width="2"></line><polygon points="-1919.0,140.8 -1904.5,144.6 -1911.5,140.8 -1904.5,136.9" fill="rgba(229, 231, 235, 1)" stroke="rgba(229, 231, 235, 1)"></polygon><line x1="-1985.0" y1="140.6" x2="-2301.0" y2="136.6" stroke="rgba(229, 231, 235, 1)" stroke-width="2"></line><polygon points="-2301.0,136.6 -2286.6,140.7 -2293.5,136.7 -2286.5,132.9" fill="rgba(229, 231, 235, 1)" stroke="rgba(229, 231, 235, 1)"></polygon><line x1="-2405.0" y1="136.0" x2="-2662.0" y2="136.0" stroke="rgba(229, 231, 235, 1)" stroke-width="2"></line><polygon points="-2662.0,136.0 -2647.5,139.9 -2654.5,136.0 -2647.5,132.1" fill="rgba(229, 231, 235, 1)" stroke="rgba(229, 231, 235, 1)"></polygon><line x1="-1985.0" y1="140.2" x2="-2234.0" y2="-171.2" stroke="rgba(229, 231, 235, 1)" stroke-width="2"></line><polygon points="-2234.0,-171.2 -2225.8,-158.7 -2228.4,-166.2 -2220.6,-164.5" fill="rgba(229, 231, 235, 1)" stroke="rgba(229, 231, 235, 1)"></polygon><line x1="-1985.0" y1="140.4" x2="-2234.0" y2="-95.7" stroke="rgba(229, 231, 235, 1)" stroke-width="2"></line><polygon points="-2234.0,-95.7 -2224.2,-84.3 -2227.8,-91.5 -2219.8,-90.8" fill="rgba(229, 231, 235, 1)" stroke="rgba(229, 231, 235, 1)"></polygon><line x1="-1985.0" y1="140.6" x2="-2234.0" y2="-20.1" stroke="rgba(229, 231, 235, 1)" stroke-width="2"></line><polygon points="-2234.0,-20.1 -2222.5,-10.5 -2227.2,-17.0 -2219.2,-17.6" fill="rgba(229, 231, 235, 1)" stroke="rgba(229, 231, 235, 1)"></polygon><line x1="-1985.0" y1="140.0" x2="-2234.0" y2="-246.8" stroke="rgba(229, 231, 235, 1)" stroke-width="2"></line><polygon points="-2234.0,-246.8 -2227.2,-233.4 -2229.0,-241.2 -2221.4,-238.7" fill="rgba(229, 231, 235, 1)" stroke="rgba(229, 231, 235, 1)"></polygon><line x1="211.4" y1="798.0" x2="455.5" y2="426.0" stroke="rgba(229, 231, 235, 1)" stroke-width="2"></line><polygon points="455.5,426.0 445.1,436.8 451.9,432.6 452.0,440.6" fill="rgba(229, 231, 235, 1)" stroke="rgba(229, 231, 235, 1)"></polygon><line x1="-107.4" y1="798.0" x2="-987.7" y2="424.0" stroke="rgba(229, 231, 235, 1)" stroke-width="2"></line><polygon points="-987.7,424.0 -976.6,434.0 -981.0,427.4 -973.0,427.1" fill="rgba(229, 231, 235, 1)" stroke="rgba(229, 231, 235, 1)"></polygon><line x1="-145.1" y1="12.0" x2="547.6" y2="-665.0" stroke="rgba(229, 231, 235, 1)" stroke-width="2"></line><polygon points="547.6,-665.0 534.5,-657.6 542.3,-659.8 540.0,-652.1" fill="rgba(229, 231, 235, 1)" stroke="rgba(229, 231, 235, 1)"></polygon><line x1="629.0" y1="-705.5" x2="807.0" y2="-1227.6" stroke="rgba(229, 231, 235, 1)" stroke-width="2"></line><polygon points="807.0,-1227.6 794.6,-1219.2 802.1,-1222.0 800.5,-1214.1" fill="rgba(229, 231, 235, 1)" stroke="rgba(229, 231, 235, 1)"></polygon><line x1="629.0" y1="-704.0" x2="1009.0" y2="-1153.8" stroke="rgba(229, 231, 235, 1)" stroke-width="2"></line><polygon points="1009.0,-1153.8 994.7,-1149.4 1002.7,-1149.8 998.8,-1142.8" fill="rgba(229, 231, 235, 1)" stroke="rgba(229, 231, 235, 1)"></polygon><line x1="544.0" y1="-704.2" x2="389.0" y2="-925.1" stroke="rgba(229, 231, 235, 1)" stroke-width="2"></line><polygon points="389.0,-925.1 399.3,-914.2 395.4,-921.2 403.4,-920.8" fill="rgba(229, 231, 235, 1)" stroke="rgba(229, 231, 235, 1)"></polygon><line x1="544.0" y1="-703.9" x2="399.4" y2="-850.4" stroke="rgba(229, 231, 235, 1)" stroke-width="2"></line><polygon points="399.4,-850.4 411.3,-841.3 406.4,-847.5 414.3,-848.4" fill="rgba(229, 231, 235, 1)" stroke="rgba(229, 231, 235, 1)"></polygon><line x1="629.0" y1="-703.5" x2="1145.0" y2="-977.5" stroke="rgba(229, 231, 235, 1)" stroke-width="2"></line><polygon points="1145.0,-977.5 1130.0,-976.4 1137.9,-975.0 1132.6,-969.1" fill="rgba(229, 231, 235, 1)" stroke="rgba(229, 231, 235, 1)"></polygon><line x1="1012.0" y1="-703.6" x2="1193.0" y2="-812.7" stroke="rgba(229, 231, 235, 1)" stroke-width="2"></line><polygon points="1193.0,-812.7 1178.0,-812.7 1185.7,-810.8 1180.0,-805.2" fill="rgba(229, 231, 235, 1)" stroke="rgba(229, 231, 235, 1)"></polygon><line x1="1012.0" y1="-703.2" x2="1195.0" y2="-735.2" stroke="rgba(229, 231, 235, 1)" stroke-width="2"></line><polygon points="1195.0,-735.2 1180.3,-738.0 1187.5,-734.7 1180.8,-730.3" fill="rgba(229, 231, 235, 1)" stroke="rgba(229, 231, 235, 1)"></polygon><line x1="1012.0" y1="-702.8" x2="1198.0" y2="-659.2" stroke="rgba(229, 231, 235, 1)" stroke-width="2"></line><polygon points="1198.0,-659.2 1183.9,-664.4 1190.5,-659.9 1183.2,-656.7" fill="rgba(229, 231, 235, 1)" stroke="rgba(229, 231, 235, 1)"></polygon><line x1="629.0" y1="-703.0" x2="908.0" y2="-703.0" stroke="rgba(229, 231, 235, 1)" stroke-width="2"></line><polygon points="908.0,-703.0 893.5,-706.9 900.5,-703.0 893.5,-699.1" fill="rgba(229, 231, 235, 1)" stroke="rgba(229, 231, 235, 1)"></polygon><line x1="1031.0" y1="-474.1" x2="1181.0" y2="-488.7" stroke="rgba(229, 231, 235, 1)" stroke-width="2"></line><polygon points="1181.0,-488.7 1166.4,-492.0 1173.5,-488.4 1166.7,-484.2" fill="rgba(229, 231, 235, 1)" stroke="rgba(229, 231, 235, 1)"></polygon><line x1="1031.0" y1="-473.5" x2="1190.0" y2="-402.6" stroke="rgba(229, 231, 235, 1)" stroke-width="2"></line><polygon points="1190.0,-402.6 1176.4,-409.0 1182.6,-404.0 1175.1,-401.4" fill="rgba(229, 231, 235, 1)" stroke="rgba(229, 231, 235, 1)"></polygon><line x1="629.0" y1="-702.3" x2="908.0" y2="-475.0" stroke="rgba(229, 231, 235, 1)" stroke-width="2"></line><polygon points="908.0,-475.0 897.6,-485.8 901.6,-478.9 893.6,-479.1" fill="rgba(229, 231, 235, 1)" stroke="rgba(229, 231, 235, 1)"></polygon><line x1="1031.0" y1="-472.7" x2="1182.0" y2="-317.8" stroke="rgba(229, 231, 235, 1)" stroke-width="2"></line><polygon points="1182.0,-317.8 1171.0,-328.0 1175.4,-321.3 1167.4,-321.1" fill="rgba(229, 231, 235, 1)" stroke="rgba(229, 231, 235, 1)"></polygon><line x1="544.0" y1="-703.4" x2="391.3" y2="-776.3" stroke="rgba(229, 231, 235, 1)" stroke-width="2"></line><polygon points="391.3,-776.3 404.7,-769.6 398.6,-774.8 406.3,-777.3" fill="rgba(229, 231, 235, 1)" stroke="rgba(229, 231, 235, 1)"></polygon><line x1="292.0" y1="-34.9" x2="622.0" y2="-51.2" stroke="rgba(229, 231, 235, 1)" stroke-width="2"></line><polygon points="622.0,-51.2 607.3,-54.4 614.5,-50.8 607.7,-46.6" fill="rgba(229, 231, 235, 1)" stroke="rgba(229, 231, 235, 1)"></polygon><rect x="-2638.0" y="-883.0" width="319.0" height="497.0" rx="8" ry="8" fill="rgba(0, 0, 0, 0)" stroke="rgba(229, 231, 235, 1)" stroke-width="2"></rect><text x="-2624.0" y="-853.0" fill="rgba(229, 231, 235, 1)" font-size="32" text-anchor="start" font-family="-apple-system, BlinkMacSystemFont, MiSans, system-ui, sans-serif">颜色表示</text><rect x="622.0" y="-275.0" width="678.0" height="414.0" rx="8" ry="8" fill="rgba(0, 0, 0, 0)" stroke="rgba(229, 231, 235, 1)" stroke-width="2"></rect><text x="636.0" y="-245.0" fill="rgba(229, 231, 235, 1)" font-size="32" text-anchor="start" font-family="-apple-system, BlinkMacSystemFont, MiSans, system-ui, sans-serif">uuid的意义</text></svg>