<svg xmlns="http://www.w3.org/2000/svg" width="3849" height="4087" viewBox="-2696 -2813 3849 4087" style="background-color:rgba(34, 34, 34, 1)"><rect x="-907.0" y="-2415.0" width="231.0" height="282.0" rx="8" ry="8" fill="rgba(0, 0, 0, 0)" stroke="rgba(0, 0, 0, 0)" stroke-width="0"></rect><rect x="-2696.0" y="-2007.0" width="593.3" height="443.0" rx="8" ry="8" fill="rgba(0, 0, 0, 0)" stroke="rgba(0, 0, 0, 0)" stroke-width="0"></rect><rect x="-671.0" y="-1906.0" width="449.0" height="412.0" rx="8" ry="8" fill="rgba(0, 0, 0, 0)" stroke="rgba(0, 0, 0, 0)" stroke-width="0"></rect><rect x="296.0" y="-1360.0" width="857.0" height="596.0" rx="8" ry="8" fill="rgba(0, 0, 0, 0)" stroke="rgba(0, 0, 0, 0)" stroke-width="0"></rect><rect x="-803.0" y="-808.0" width="491.0" height="336.0" rx="8" ry="8" fill="rgba(0, 0, 0, 0)" stroke="rgba(0, 0, 0, 0)" stroke-width="0"></rect><rect x="476.0" y="-628.0" width="259.0" height="409.0" rx="8" ry="8" fill="rgba(0, 0, 0, 0)" stroke="rgba(0, 0, 0, 0)" stroke-width="0"></rect><rect x="-101.0" y="-325.0" width="259.0" height="444.0" rx="8" ry="8" fill="rgba(0, 0, 0, 0)" stroke="rgba(0, 0, 0, 0)" stroke-width="0"></rect><rect x="-2064.0" y="-216.0" width="328.4" height="299.0" rx="8" ry="8" fill="rgba(0, 0, 0, 0)" stroke="rgba(0, 0, 0, 0)" stroke-width="0"></rect><rect x="-961.0" y="-159.0" width="516.3" height="186.0" rx="8" ry="8" fill="rgba(0, 0, 0, 0)" stroke="rgba(0, 0, 0, 0)" stroke-width="0"></rect><rect x="444.0" y="-97.0" width="297.0" height="296.0" rx="8" ry="8" fill="rgba(0, 0, 0, 0)" stroke="rgba(0, 0, 0, 0)" stroke-width="0"></rect><rect x="-1833.0" y="178.0" width="555.0" height="186.0" rx="8" ry="8" fill="rgba(0, 0, 0, 0)" stroke="rgba(0, 0, 0, 0)" stroke-width="0"></rect><rect x="-991.0" y="178.0" width="348.0" height="533.0" rx="8" ry="8" fill="rgba(0, 0, 0, 0)" stroke="rgba(0, 0, 0, 0)" stroke-width="0"></rect><rect x="-340.0" y="295.0" width="632.0" height="409.0" rx="8" ry="8" fill="rgba(0, 0, 0, 0)" stroke="rgba(0, 0, 0, 0)" stroke-width="0"></rect><rect x="-317.0" y="814.0" width="547.0" height="186.0" rx="8" ry="8" fill="rgba(0, 0, 0, 0)" stroke="rgba(0, 0, 0, 0)" stroke-width="0"></rect><rect x="-134.0" y="1088.0" width="408.0" height="186.0" rx="8" ry="8" fill="rgba(0, 0, 0, 0)" stroke="rgba(0, 0, 0, 0)" stroke-width="0"></rect><rect x="-71.0" y="-117.0" width="161.0" height="76.0" rx="8" ry="8" fill="rgba(0, 0, 0, 0)" stroke="rgba(229, 231, 235, 1)" stroke-width="2"></rect><text x="-57.0" y="-65.0" fill="rgba(255, 255, 255, 1)" font-size="32" text-anchor="start" font-family="-apple-system, BlinkMacSystemFont, MiSans, system-ui, sans-serif">节点自适应宽度</text><rect x="-2559.0" y="-1927.0" width="285.0" height="76.0" rx="8" ry="8" fill="rgba(0, 0, 0, 0)" stroke="rgba(229, 231, 235, 1)" stroke-width="2"></rect><text x="-2545.0" y="-1875.0" fill="rgba(255, 255, 255, 1)" font-size="32" text-anchor="start" font-family="-apple-system, BlinkMacSystemFont, MiSans, system-ui, sans-serif">TODOlist时间计算扩展</text><rect x="-1858.0" y="-1093.0" width="123.0" height="76.0" rx="8" ry="8" fill="rgba(0, 0, 0, 0)" stroke="rgba(229, 231, 235, 1)" stroke-width="2"></rect><text x="-1844.0" y="-1041.0" fill="rgba(255, 255, 255, 1)" font-size="32" text-anchor="start" font-family="-apple-system, BlinkMacSystemFont, MiSans, system-ui, sans-serif">第二次重构</text><rect x="-2666.0" y="-1670.0" width="533.3" height="76.0" rx="8" ry="8" fill="rgba(0, 0, 0, 0)" stroke="rgba(229, 231, 235, 1)" stroke-width="2"></rect><text x="-2652.0" y="-1618.0" fill="rgba(255, 255, 255, 1)" font-size="32" text-anchor="start" font-family="-apple-system, BlinkMacSystemFont, MiSans, system-ui, sans-serif">githubIssuee导入projectgraph的能力</text><rect x="-1701.0" y="-1492.0" width="165.0" height="76.0" rx="8" ry="8" fill="rgba(0, 0, 0, 0)" stroke="rgba(229, 231, 235, 1)" stroke-width="2"></rect><text x="-1687.0" y="-1440.0" fill="rgba(255, 255, 255, 1)" font-size="32" text-anchor="start" font-family="-apple-system, BlinkMacSystemFont, MiSans, system-ui, sans-serif">发布v2.0.0</text><rect x="-1039.0" y="-2783.0" width="104.0" height="76.0" rx="8" ry="8" fill="rgba(0, 0, 0, 0)" stroke="rgba(229, 231, 235, 1)" stroke-width="2"></rect><text x="-1025.0" y="-2731.0" fill="rgba(255, 255, 255, 1)" font-size="32" text-anchor="start" font-family="-apple-system, BlinkMacSystemFont, MiSans, system-ui, sans-serif">多人联机</text><rect x="-2523.0" y="-1801.0" width="225.0" height="76.0" rx="8" ry="8" fill="rgba(0, 0, 0, 0)" stroke="rgba(229, 231, 235, 1)" stroke-width="2"></rect><text x="-2509.0" y="-1749.0" fill="rgba(255, 255, 255, 1)" font-size="32" text-anchor="start" font-family="-apple-system, BlinkMacSystemFont, MiSans, system-ui, sans-serif">增加github等功能</text><rect x="-1849.0" y="-738.0" width="165.0" height="76.0" rx="8" ry="8" fill="rgba(22, 163, 74, 1)" stroke="rgba(229, 231, 235, 1)" stroke-width="2"></rect><text x="-1835.0" y="-686.0" fill="rgba(255, 255, 255, 1)" font-size="32" text-anchor="start" font-family="-apple-system, BlinkMacSystemFont, MiSans, system-ui, sans-serif">发布v1.1.0</text><rect x="-711.0" y="-578.0" width="123.0" height="76.0" rx="8" ry="8" fill="rgba(0, 0, 0, 0)" stroke="rgba(229, 231, 235, 1)" stroke-width="2"></rect><text x="-697.0" y="-526.0" fill="rgba(255, 255, 255, 1)" font-size="32" text-anchor="start" font-family="-apple-system, BlinkMacSystemFont, MiSans, system-ui, sans-serif">富文本功能</text><rect x="506.0" y="-548.0" width="199.0" height="76.0" rx="8" ry="8" fill="rgba(0, 0, 0, 0)" stroke="rgba(229, 231, 235, 1)" stroke-width="2"></rect><text x="520.0" y="-496.0" fill="rgba(255, 255, 255, 1)" font-size="32" text-anchor="start" font-family="-apple-system, BlinkMacSystemFont, MiSans, system-ui, sans-serif">贝塞尔曲线手动调整</text><rect x="474.0" y="-17.0" width="237.0" height="76.0" rx="8" ry="8" fill="rgba(0, 0, 0, 0)" stroke="rgba(229, 231, 235, 1)" stroke-width="2"></rect><text x="488.0" y="35.0" fill="rgba(255, 255, 255, 1)" font-size="32" text-anchor="start" font-family="-apple-system, BlinkMacSystemFont, MiSans, system-ui, sans-serif">舞台上的图片可复制路径</text><rect x="-641.0" y="-1826.0" width="199.0" height="76.0" rx="8" ry="8" fill="rgba(0, 0, 0, 0)" stroke="rgba(229, 231, 235, 1)" stroke-width="2"></rect><text x="-627.0" y="-1774.0" fill="rgba(255, 255, 255, 1)" font-size="32" text-anchor="start" font-family="-apple-system, BlinkMacSystemFont, MiSans, system-ui, sans-serif">自动生成统计图功能</text><rect x="-773.0" y="-728.0" width="235.0" height="76.0" rx="8" ry="8" fill="rgba(0, 0, 0, 0)" stroke="rgba(229, 231, 235, 1)" stroke-width="2"></rect><text x="-759.0" y="-676.0" fill="rgba(255, 255, 255, 1)" font-size="32" text-anchor="start" font-family="-apple-system, BlinkMacSystemFont, MiSans, system-ui, sans-serif">渲染markdown</text><rect x="-1953.0" y="-136.0" width="142.0" height="76.0" rx="8" ry="8" fill="rgba(234, 179, 8, 1)" stroke="rgba(229, 231, 235, 1)" stroke-width="2"></rect><text x="-1939.0" y="-84.0" fill="rgba(0, 0, 0, 1)" font-size="32" text-anchor="start" font-family="-apple-system, BlinkMacSystemFont, MiSans, system-ui, sans-serif">自动布局功能</text><rect x="-961.0" y="375.0" width="282.0" height="76.0" rx="8" ry="8" fill="rgba(0, 0, 0, 0)" stroke="rgba(229, 231, 235, 1)" stroke-width="2"></rect><text x="-947.0" y="427.0" fill="rgba(255, 255, 255, 1)" font-size="32" text-anchor="start" font-family="-apple-system, BlinkMacSystemFont, MiSans, system-ui, sans-serif">优化ctrl+c、ctrl+v</text><rect x="-961.0" y="498.0" width="186.0" height="76.0" rx="8" ry="8" fill="rgba(0, 0, 0, 0)" stroke="rgba(229, 231, 235, 1)" stroke-width="2"></rect><text x="-947.0" y="550.0" fill="rgba(255, 255, 255, 1)" font-size="32" text-anchor="start" font-family="-apple-system, BlinkMacSystemFont, MiSans, system-ui, sans-serif">支持Alt复制功能</text><rect x="-1701.0" y="-1250.0" width="104.0" height="76.0" rx="8" ry="8" fill="rgba(0, 0, 0, 0)" stroke="rgba(229, 231, 235, 1)" stroke-width="2"></rect><text x="-1687.0" y="-1198.0" fill="rgba(255, 255, 255, 1)" font-size="32" text-anchor="start" font-family="-apple-system, BlinkMacSystemFont, MiSans, system-ui, sans-serif">抽取内核</text><rect x="-310.0" y="375.0" width="411.0" height="76.0" rx="8" ry="8" fill="rgba(0, 0, 0, 0)" stroke="rgba(229, 231, 235, 1)" stroke-width="2"></rect><text x="-296.0" y="427.0" fill="rgba(255, 255, 255, 1)" font-size="32" text-anchor="start" font-family="-apple-system, BlinkMacSystemFont, MiSans, system-ui, sans-serif">可以考虑把section框的大小改成自定义</text><rect x="-641.0" y="-1600.0" width="389.0" height="76.0" rx="8" ry="8" fill="rgba(0, 0, 0, 0)" stroke="rgba(229, 231, 235, 1)" stroke-width="2"></rect><text x="-627.0" y="-1548.0" fill="rgba(255, 255, 255, 1)" font-size="32" text-anchor="start" font-family="-apple-system, BlinkMacSystemFont, MiSans, system-ui, sans-serif">设计一种按连线顺序执行逻辑节点的方式？</text><rect x="-848.0" y="-2239.0" width="142.0" height="76.0" rx="8" ry="8" fill="rgba(0, 0, 0, 0)" stroke="rgba(229, 231, 235, 1)" stroke-width="2"></rect><text x="-834.0" y="-2187.0" fill="rgba(255, 255, 255, 1)" font-size="32" text-anchor="start" font-family="-apple-system, BlinkMacSystemFont, MiSans, system-ui, sans-serif">增加指令系统</text><rect x="-961.0" y="258.0" width="288.0" height="76.0" rx="8" ry="8" fill="rgba(0, 0, 0, 0)" stroke="rgba(229, 231, 235, 1)" stroke-width="2"></rect><text x="-947.0" y="310.0" fill="rgba(255, 255, 255, 1)" font-size="32" text-anchor="start" font-family="-apple-system, BlinkMacSystemFont, MiSans, system-ui, sans-serif">支持一些UI面板的快捷键弹出</text><rect x="506.0" y="-435.0" width="161.0" height="76.0" rx="8" ry="8" fill="rgba(0, 0, 0, 0)" stroke="rgba(229, 231, 235, 1)" stroke-width="2"></rect><text x="520.0" y="-383.0" fill="rgba(255, 255, 255, 1)" font-size="32" text-anchor="start" font-family="-apple-system, BlinkMacSystemFont, MiSans, system-ui, sans-serif">完善自环碰撞箱</text><rect x="-2034.0" y="-23.0" width="268.4" height="76.0" rx="8" ry="8" fill="rgba(0, 0, 0, 0)" stroke="rgba(229, 231, 235, 1)" stroke-width="2"></rect><text x="-2020.0" y="29.0" fill="rgba(255, 255, 255, 1)" font-size="32" text-anchor="start" font-family="-apple-system, BlinkMacSystemFont, MiSans, system-ui, sans-serif">增加shift键移动节点功能</text><rect x="506.0" y="-325.0" width="199.0" height="76.0" rx="8" ry="8" fill="rgba(0, 0, 0, 0)" stroke="rgba(229, 231, 235, 1)" stroke-width="2"></rect><text x="520.0" y="-273.0" fill="rgba(255, 255, 255, 1)" font-size="32" text-anchor="start" font-family="-apple-system, BlinkMacSystemFont, MiSans, system-ui, sans-serif">增加双箭头线的功能</text><rect x="-446.0" y="-578.0" width="104.0" height="76.0" rx="8" ry="8" fill="rgba(0, 0, 0, 0)" stroke="rgba(229, 231, 235, 1)" stroke-width="2"></rect><text x="-432.0" y="-526.0" fill="rgba(255, 255, 255, 1)" font-size="32" text-anchor="start" font-family="-apple-system, BlinkMacSystemFont, MiSans, system-ui, sans-serif">公式渲染</text><rect x="490.0" y="93.0" width="218.0" height="76.0" rx="8" ry="8" fill="rgba(0, 0, 0, 0)" stroke="rgba(229, 231, 235, 1)" stroke-width="2"></rect><text x="504.0" y="145.0" fill="rgba(255, 255, 255, 1)" font-size="32" text-anchor="start" font-family="-apple-system, BlinkMacSystemFont, MiSans, system-ui, sans-serif">图片下面增加一个标题</text><rect x="326.0" y="-1262.0" width="206.0" height="76.0" rx="8" ry="8" fill="rgba(0, 0, 0, 0)" stroke="rgba(229, 231, 235, 1)" stroke-width="2"></rect><text x="340.0" y="-1210.0" fill="rgba(255, 255, 255, 1)" font-size="32" text-anchor="start" font-family="-apple-system, BlinkMacSystemFont, MiSans, system-ui, sans-serif">支持Xmind文件</text><rect x="650.0" y="-1114.0" width="66.0" height="76.0" rx="8" ry="8" fill="rgba(22, 163, 74, 1)" stroke="rgba(229, 231, 235, 1)" stroke-width="2"></rect><text x="664.0" y="-1062.0" fill="rgba(255, 255, 255, 1)" font-size="32" text-anchor="start" font-family="-apple-system, BlinkMacSystemFont, MiSans, system-ui, sans-serif">导入</text><rect x="359.0" y="-1082.0" width="194.0" height="76.0" rx="8" ry="8" fill="rgba(22, 163, 74, 1)" stroke="rgba(229, 231, 235, 1)" stroke-width="2"></rect><text x="373.0" y="-1030.0" fill="rgba(255, 255, 255, 1)" font-size="32" text-anchor="start" font-family="-apple-system, BlinkMacSystemFont, MiSans, system-ui, sans-serif">Markdown</text><rect x="650.0" y="-1035.0" width="66.0" height="76.0" rx="8" ry="8" fill="rgba(22, 163, 74, 1)" stroke="rgba(229, 231, 235, 1)" stroke-width="2"></rect><text x="664.0" y="-983.0" fill="rgba(255, 255, 255, 1)" font-size="32" text-anchor="start" font-family="-apple-system, BlinkMacSystemFont, MiSans, system-ui, sans-serif">导出</text><rect x="646.0" y="-1280.0" width="66.0" height="76.0" rx="8" ry="8" fill="rgba(0, 0, 0, 0)" stroke="rgba(229, 231, 235, 1)" stroke-width="2"></rect><text x="660.0" y="-1228.0" fill="rgba(255, 255, 255, 1)" font-size="32" text-anchor="start" font-family="-apple-system, BlinkMacSystemFont, MiSans, system-ui, sans-serif">导入</text><rect x="646.0" y="-1202.0" width="66.0" height="76.0" rx="8" ry="8" fill="rgba(0, 0, 0, 0)" stroke="rgba(229, 231, 235, 1)" stroke-width="2"></rect><text x="660.0" y="-1150.0" fill="rgba(255, 255, 255, 1)" font-size="32" text-anchor="start" font-family="-apple-system, BlinkMacSystemFont, MiSans, system-ui, sans-serif">导出</text><rect x="438.0" y="-911.0" width="73.0" height="76.0" rx="8" ry="8" fill="rgba(22, 163, 74, 1)" stroke="rgba(229, 231, 235, 1)" stroke-width="2"></rect><text x="452.0" y="-859.0" fill="rgba(255, 255, 255, 1)" font-size="32" text-anchor="start" font-family="-apple-system, BlinkMacSystemFont, MiSans, system-ui, sans-serif">txt</text><rect x="624.0" y="-945.0" width="66.0" height="76.0" rx="8" ry="8" fill="rgba(22, 163, 74, 1)" stroke="rgba(229, 231, 235, 1)" stroke-width="2"></rect><text x="638.0" y="-893.0" fill="rgba(255, 255, 255, 1)" font-size="32" text-anchor="start" font-family="-apple-system, BlinkMacSystemFont, MiSans, system-ui, sans-serif">导入</text><rect x="622.0" y="-870.0" width="66.0" height="76.0" rx="8" ry="8" fill="rgba(22, 163, 74, 1)" stroke="rgba(229, 231, 235, 1)" stroke-width="2"></rect><text x="636.0" y="-818.0" fill="rgba(255, 255, 255, 1)" font-size="32" text-anchor="start" font-family="-apple-system, BlinkMacSystemFont, MiSans, system-ui, sans-serif">导出</text><rect x="-71.0" y="-245.0" width="199.0" height="76.0" rx="8" ry="8" fill="rgba(0, 0, 0, 0)" stroke="rgba(229, 231, 235, 1)" stroke-width="2"></rect><text x="-57.0" y="-193.0" fill="rgba(255, 255, 255, 1)" font-size="32" text-anchor="start" font-family="-apple-system, BlinkMacSystemFont, MiSans, system-ui, sans-serif">专属的文件路径节点</text><rect x="-877.0" y="-2335.0" width="135.0" height="76.0" rx="8" ry="8" fill="rgba(0, 0, 0, 0)" stroke="rgba(229, 231, 235, 1)" stroke-width="2"></rect><text x="-863.0" y="-2283.0" fill="rgba(255, 255, 255, 1)" font-size="32" text-anchor="start" font-family="-apple-system, BlinkMacSystemFont, MiSans, system-ui, sans-serif">AI功能优化</text><rect x="964.0" y="-1280.0" width="159.0" height="76.0" rx="8" ry="8" fill="rgba(0, 0, 0, 0)" stroke="rgba(229, 231, 235, 1)" stroke-width="2"></rect><text x="978.0" y="-1228.0" fill="rgba(255, 255, 255, 1)" font-size="32" text-anchor="start" font-family="-apple-system, BlinkMacSystemFont, MiSans, system-ui, sans-serif">Obsdian</text><rect x="-1100.0" y="-1026.0" width="229.0" height="76.0" rx="8" ry="8" fill="rgba(0, 0, 0, 0)" stroke="rgba(229, 231, 235, 1)" stroke-width="2"></rect><text x="-1086.0" y="-974.0" fill="rgba(255, 255, 255, 1)" font-size="32" text-anchor="start" font-family="-apple-system, BlinkMacSystemFont, MiSans, system-ui, sans-serif">学习笔记/思维导图方向</text><rect x="-1180.0" y="-2670.0" width="142.0" height="76.0" rx="8" ry="8" fill="rgba(0, 0, 0, 0)" stroke="rgba(229, 231, 235, 1)" stroke-width="2"></rect><text x="-1166.0" y="-2618.0" fill="rgba(255, 255, 255, 1)" font-size="32" text-anchor="start" font-family="-apple-system, BlinkMacSystemFont, MiSans, system-ui, sans-serif">头脑风暴方向</text><rect x="-1244.0" y="-1678.0" width="180.0" height="76.0" rx="8" ry="8" fill="rgba(0, 0, 0, 0)" stroke="rgba(229, 231, 235, 1)" stroke-width="2"></rect><text x="-1230.0" y="-1626.0" fill="rgba(255, 255, 255, 1)" font-size="32" text-anchor="start" font-family="-apple-system, BlinkMacSystemFont, MiSans, system-ui, sans-serif">项目工程管理方向</text><rect x="-1223.0" y="-104.0" width="104.0" height="76.0" rx="8" ry="8" fill="rgba(0, 0, 0, 0)" stroke="rgba(229, 231, 235, 1)" stroke-width="2"></rect><text x="-1209.0" y="-52.0" fill="rgba(255, 255, 255, 1)" font-size="32" text-anchor="start" font-family="-apple-system, BlinkMacSystemFont, MiSans, system-ui, sans-serif">基础问题</text><rect x="-310.0" y="484.0" width="376.0" height="76.0" rx="8" ry="8" fill="rgba(0, 0, 0, 0)" stroke="rgba(229, 231, 235, 1)" stroke-width="2"></rect><text x="-296.0" y="536.0" fill="rgba(255, 255, 255, 1)" font-size="32" text-anchor="start" font-family="-apple-system, BlinkMacSystemFont, MiSans, system-ui, sans-serif">优化缩小情况下的Section碰撞范围</text><rect x="-310.0" y="598.0" width="572.0" height="76.0" rx="8" ry="8" fill="rgba(0, 0, 0, 0)" stroke="rgba(229, 231, 235, 1)" stroke-width="2"></rect><text x="-296.0" y="650.0" fill="rgba(255, 255, 255, 1)" font-size="32" text-anchor="start" font-family="-apple-system, BlinkMacSystemFont, MiSans, system-ui, sans-serif">编辑Section内部文字的时候，Section能够自动膨胀</text><rect x="-287.0" y="894.0" width="487.0" height="76.0" rx="8" ry="8" fill="rgba(0, 0, 0, 0)" stroke="rgba(229, 231, 235, 1)" stroke-width="2"></rect><text x="-273.0" y="946.0" fill="rgba(255, 255, 255, 1)" font-size="32" text-anchor="start" font-family="-apple-system, BlinkMacSystemFont, MiSans, system-ui, sans-serif">多层嵌套时，外层折叠，内层section碰撞箱还在</text><rect x="-961.0" y="605.0" width="256.0" height="76.0" rx="8" ry="8" fill="rgba(0, 0, 0, 0)" stroke="rgba(229, 231, 235, 1)" stroke-width="2"></rect><text x="-947.0" y="657.0" fill="rgba(255, 255, 255, 1)" font-size="32" text-anchor="start" font-family="-apple-system, BlinkMacSystemFont, MiSans, system-ui, sans-serif">准星对准节点按F2重命名</text><rect x="-931.0" y="-79.0" width="456.3" height="76.0" rx="8" ry="8" fill="rgba(0, 0, 0, 0)" stroke="rgba(229, 231, 235, 1)" stroke-width="2"></rect><text x="-917.0" y="-27.0" fill="rgba(255, 255, 255, 1)" font-size="32" text-anchor="start" font-family="-apple-system, BlinkMacSystemFont, MiSans, system-ui, sans-serif">把节点的渲染逻辑提取到节点的render方法中</text><rect x="-71.0" y="13.0" width="180.0" height="76.0" rx="8" ry="8" fill="rgba(0, 0, 0, 0)" stroke="rgba(229, 231, 235, 1)" stroke-width="2"></rect><text x="-57.0" y="65.0" fill="rgba(255, 255, 255, 1)" font-size="32" text-anchor="start" font-family="-apple-system, BlinkMacSystemFont, MiSans, system-ui, sans-serif">为插件系统做准备</text><rect x="-1287.0" y="-548.0" width="180.0" height="76.0" rx="8" ry="8" fill="rgba(0, 0, 0, 0)" stroke="rgba(229, 231, 235, 1)" stroke-width="2"></rect><text x="-1273.0" y="-496.0" fill="rgba(255, 255, 255, 1)" font-size="32" text-anchor="start" font-family="-apple-system, BlinkMacSystemFont, MiSans, system-ui, sans-serif">更改工程文件格式</text><rect x="-1701.0" y="-1353.0" width="116.0" height="76.0" rx="8" ry="8" fill="rgba(0, 0, 0, 0)" stroke="rgba(229, 231, 235, 1)" stroke-width="2"></rect><text x="-1687.0" y="-1301.0" fill="rgba(255, 255, 255, 1)" font-size="32" text-anchor="start" font-family="-apple-system, BlinkMacSystemFont, MiSans, system-ui, sans-serif">插件API</text><rect x="-573.0" y="-1261.0" width="176.0" height="76.0" rx="8" ry="8" fill="rgba(0, 0, 0, 0)" stroke="rgba(229, 231, 235, 1)" stroke-width="2"></rect><text x="-559.0" y="-1209.0" fill="rgba(255, 255, 255, 1)" font-size="32" text-anchor="start" font-family="-apple-system, BlinkMacSystemFont, MiSans, system-ui, sans-serif">“知识库”的概念</text><rect x="-596.0" y="-1386.0" width="104.0" height="76.0" rx="8" ry="8" fill="rgba(0, 0, 0, 0)" stroke="rgba(229, 231, 235, 1)" stroke-width="2"></rect><text x="-582.0" y="-1334.0" fill="rgba(255, 255, 255, 1)" font-size="32" text-anchor="start" font-family="-apple-system, BlinkMacSystemFont, MiSans, system-ui, sans-serif">双向链接</text><rect x="-1803.0" y="258.0" width="495.0" height="76.0" rx="8" ry="8" fill="rgba(0, 0, 0, 0)" stroke="rgba(229, 231, 235, 1)" stroke-width="2"></rect><text x="-1789.0" y="310.0" fill="rgba(255, 255, 255, 1)" font-size="32" text-anchor="start" font-family="-apple-system, BlinkMacSystemFont, MiSans, system-ui, sans-serif">自定义工具栏（类似kde plasma的“面板”）</text><rect x="-528.0" y="-1093.0" width="104.0" height="76.0" rx="8" ry="8" fill="rgba(22, 163, 74, 1)" stroke="rgba(229, 231, 235, 1)" stroke-width="2"></rect><text x="-514.0" y="-1041.0" fill="rgba(255, 255, 255, 1)" font-size="32" text-anchor="start" font-family="-apple-system, BlinkMacSystemFont, MiSans, system-ui, sans-serif">单向链接</text><rect x="-1592.0" y="-2801.0" width="165.0" height="76.0" rx="8" ry="8" fill="rgba(0, 0, 0, 0)" stroke="rgba(229, 231, 235, 1)" stroke-width="2"></rect><text x="-1578.0" y="-2749.0" fill="rgba(255, 255, 255, 1)" font-size="32" text-anchor="start" font-family="-apple-system, BlinkMacSystemFont, MiSans, system-ui, sans-serif">发布v3.0.0</text><rect x="-104.0" y="1168.0" width="92.0" height="76.0" rx="8" ry="8" fill="rgba(0, 0, 0, 0)" stroke="rgba(229, 231, 235, 1)" stroke-width="2"></rect><text x="-90.0" y="1220.0" fill="rgba(255, 255, 255, 1)" font-size="32" text-anchor="start" font-family="-apple-system, BlinkMacSystemFont, MiSans, system-ui, sans-serif">……</text><rect x="152.0" y="1168.0" width="92.0" height="76.0" rx="8" ry="8" fill="rgba(0, 0, 0, 0)" stroke="rgba(229, 231, 235, 1)" stroke-width="2"></rect><text x="166.0" y="1220.0" fill="rgba(255, 255, 255, 1)" font-size="32" text-anchor="start" font-family="-apple-system, BlinkMacSystemFont, MiSans, system-ui, sans-serif">……</text><rect x="821.0" y="-1161.0" width="66.0" height="76.0" rx="8" ry="8" fill="rgba(0, 0, 0, 0)" stroke="rgba(229, 231, 235, 1)" stroke-width="2"></rect><text x="835.0" y="-1109.0" fill="rgba(255, 255, 255, 1)" font-size="32" text-anchor="start" font-family="-apple-system, BlinkMacSystemFont, MiSans, system-ui, sans-serif">幕布</text><rect x="821.0" y="-1041.0" width="128.0" height="76.0" rx="8" ry="8" fill="rgba(0, 0, 0, 0)" stroke="rgba(229, 231, 235, 1)" stroke-width="2"></rect><text x="835.0" y="-989.0" fill="rgba(255, 255, 255, 1)" font-size="32" text-anchor="start" font-family="-apple-system, BlinkMacSystemFont, MiSans, system-ui, sans-serif">figjam</text><rect x="-221.0" y="-1353.0" width="199.0" height="124.0" rx="8" ry="8" fill="rgba(0, 0, 0, 0)" stroke="rgba(229, 231, 235, 1)" stroke-width="2"></rect><text x="-207.0" y="-1301.0" fill="rgba(255, 255, 255, 1)" font-size="32" text-anchor="start" font-family="-apple-system, BlinkMacSystemFont, MiSans, system-ui, sans-serif">加强搜索功能</text><text x="-207.0" y="-1253.0" fill="rgba(255, 255, 255, 1)" font-size="32" text-anchor="start" font-family="-apple-system, BlinkMacSystemFont, MiSans, system-ui, sans-serif">支持跨工程文件搜索</text><rect x="198.0" y="-1942.0" width="237.0" height="76.0" rx="8" ry="8" fill="rgba(0, 0, 0, 0)" stroke="rgba(229, 231, 235, 1)" stroke-width="2"></rect><text x="212.0" y="-1890.0" fill="rgba(255, 255, 255, 1)" font-size="32" text-anchor="start" font-family="-apple-system, BlinkMacSystemFont, MiSans, system-ui, sans-serif">基于图论的编程语言计划</text><rect x="310.0" y="-1826.0" width="104.0" height="76.0" rx="8" ry="8" fill="rgba(0, 0, 0, 0)" stroke="rgba(229, 231, 235, 1)" stroke-width="2"></rect><text x="324.0" y="-1774.0" fill="rgba(255, 255, 255, 1)" font-size="32" text-anchor="start" font-family="-apple-system, BlinkMacSystemFont, MiSans, system-ui, sans-serif">变量系统</text><rect x="310.0" y="-1717.0" width="104.0" height="76.0" rx="8" ry="8" fill="rgba(0, 0, 0, 0)" stroke="rgba(229, 231, 235, 1)" stroke-width="2"></rect><text x="324.0" y="-1665.0" fill="rgba(255, 255, 255, 1)" font-size="32" text-anchor="start" font-family="-apple-system, BlinkMacSystemFont, MiSans, system-ui, sans-serif">条件语句</text><rect x="310.0" y="-1600.0" width="104.0" height="76.0" rx="8" ry="8" fill="rgba(0, 0, 0, 0)" stroke="rgba(229, 231, 235, 1)" stroke-width="2"></rect><text x="324.0" y="-1548.0" fill="rgba(255, 255, 255, 1)" font-size="32" text-anchor="start" font-family="-apple-system, BlinkMacSystemFont, MiSans, system-ui, sans-serif">循环语句</text><line x1="-834.8" y1="451.0" x2="-853.2" y2="498.0" stroke="rgba(229, 231, 235, 1)" stroke-width="2"></line><polygon points="-853.2,498.0 -844.3,485.9 -850.4,491.0 -851.5,483.1" fill="rgba(229, 231, 235, 1)" stroke="rgba(229, 231, 235, 1)"></polygon><line x1="594.7" y1="59.0" x2="596.8" y2="93.0" stroke="rgba(229, 231, 235, 1)" stroke-width="2"></line><polygon points="596.8,93.0 599.8,78.3 596.3,85.5 592.0,78.8" fill="rgba(229, 231, 235, 1)" stroke="rgba(229, 231, 235, 1)"></polygon><line x1="-2407.3" y1="-1725.0" x2="-2402.6" y2="-1670.0" stroke="rgba(229, 231, 235, 1)" stroke-width="2"></line><polygon points="-2402.6,-1670.0 -2399.9,-1684.8 -2403.2,-1677.5 -2407.7,-1684.1" fill="rgba(229, 231, 235, 1)" stroke="rgba(229, 231, 235, 1)"></polygon><line x1="553.0" y1="-1057.7" x2="650.0" y2="-1071.3" stroke="rgba(229, 231, 235, 1)" stroke-width="2"></line><polygon points="650.0,-1071.3 635.1,-1073.2 642.6,-1070.3 636.2,-1065.5" fill="rgba(229, 231, 235, 1)" stroke="rgba(229, 231, 235, 1)"></polygon><line x1="553.0" y1="-1023.9" x2="650.0" y2="-1003.8" stroke="rgba(229, 231, 235, 1)" stroke-width="2"></line><polygon points="650.0,-1003.8 636.6,-1010.6 642.7,-1005.4 635.0,-1003.0" fill="rgba(229, 231, 235, 1)" stroke="rgba(229, 231, 235, 1)"></polygon><line x1="532.0" y1="-1231.4" x2="646.0" y2="-1239.6" stroke="rgba(229, 231, 235, 1)" stroke-width="2"></line><polygon points="646.0,-1239.6 631.3,-1242.5 638.5,-1239.1 631.8,-1234.7" fill="rgba(229, 231, 235, 1)" stroke="rgba(229, 231, 235, 1)"></polygon><line x1="532.0" y1="-1199.3" x2="646.0" y2="-1171.9" stroke="rgba(229, 231, 235, 1)" stroke-width="2"></line><polygon points="646.0,-1171.9 632.8,-1179.1 638.7,-1173.7 631.0,-1171.5" fill="rgba(229, 231, 235, 1)" stroke="rgba(229, 231, 235, 1)"></polygon><line x1="511.0" y1="-879.8" x2="624.0" y2="-900.9" stroke="rgba(229, 231, 235, 1)" stroke-width="2"></line><polygon points="624.0,-900.9 609.0,-902.0 616.6,-899.5 610.5,-894.4" fill="rgba(229, 231, 235, 1)" stroke="rgba(229, 231, 235, 1)"></polygon><line x1="511.0" y1="-864.7" x2="622.0" y2="-839.5" stroke="rgba(229, 231, 235, 1)" stroke-width="2"></line><polygon points="622.0,-839.5 608.7,-846.5 614.7,-841.2 607.0,-838.9" fill="rgba(229, 231, 235, 1)" stroke="rgba(229, 231, 235, 1)"></polygon><line x1="-1760.8" y1="-1093.0" x2="-1684.7" y2="-1174.0" stroke="rgba(229, 231, 235, 1)" stroke-width="2"></line><polygon points="-1684.7,-1174.0 -1697.5,-1166.1 -1689.8,-1168.5 -1691.8,-1160.8" fill="rgba(229, 231, 235, 1)" stroke="rgba(229, 231, 235, 1)"></polygon><line x1="-1730.8" y1="-662.0" x2="-1206.7" y2="-104.0" stroke="rgba(229, 231, 235, 1)" stroke-width="2"></line><polygon points="-1206.7,-104.0 -1213.8,-117.2 -1211.8,-109.5 -1219.4,-111.9" fill="rgba(229, 231, 235, 1)" stroke="rgba(229, 231, 235, 1)"></polygon><line x1="158.0" y1="-174.9" x2="476.0" y2="-351.6" stroke="rgba(229, 231, 235, 1)" stroke-width="2"></line><polygon points="476.0,-351.6 461.4,-347.9 469.4,-347.9 465.2,-341.1" fill="rgba(229, 231, 235, 1)" stroke="rgba(229, 231, 235, 1)"></polygon><line x1="-1684.0" y1="-730.4" x2="-1088.5" y2="-950.0" stroke="rgba(229, 231, 235, 1)" stroke-width="2"></line><polygon points="-1088.5,-950.0 -1103.5,-948.6 -1095.6,-947.4 -1100.8,-941.3" fill="rgba(229, 231, 235, 1)" stroke="rgba(229, 231, 235, 1)"></polygon><line x1="-1064.0" y1="-1647.6" x2="-671.0" y2="-1681.0" stroke="rgba(229, 231, 235, 1)" stroke-width="2"></line><polygon points="-671.0,-1681.0 -685.8,-1683.6 -678.5,-1680.3 -685.1,-1675.9" fill="rgba(229, 231, 235, 1)" stroke="rgba(229, 231, 235, 1)"></polygon><line x1="-1741.7" y1="-738.0" x2="-1178.8" y2="-1602.0" stroke="rgba(229, 231, 235, 1)" stroke-width="2"></line><polygon points="-1178.8,-1602.0 -1189.9,-1592.0 -1182.9,-1595.7 -1183.4,-1587.7" fill="rgba(229, 231, 235, 1)" stroke="rgba(229, 231, 235, 1)"></polygon><line x1="-1152.3" y1="-1678.0" x2="-1110.7" y2="-2594.0" stroke="rgba(229, 231, 235, 1)" stroke-width="2"></line><polygon points="-1110.7,-2594.0 -1115.3,-2579.7 -1111.1,-2586.5 -1107.5,-2579.4" fill="rgba(229, 231, 235, 1)" stroke="rgba(229, 231, 235, 1)"></polygon><line x1="-33.8" y1="704.0" x2="-39.0" y2="814.0" stroke="rgba(229, 231, 235, 1)" stroke-width="2"></line><polygon points="-39.0,814.0 -34.5,799.7 -38.7,806.5 -42.2,799.3" fill="rgba(229, 231, 235, 1)" stroke="rgba(229, 231, 235, 1)"></polygon><line x1="-1119.0" y1="-66.0" x2="-961.0" y2="-66.0" stroke="rgba(229, 231, 235, 1)" stroke-width="2"></line><polygon points="-961.0,-66.0 -975.5,-69.9 -968.5,-66.0 -975.5,-62.1" fill="rgba(229, 231, 235, 1)" stroke="rgba(229, 231, 235, 1)"></polygon><line x1="-444.7" y1="-79.1" x2="-101.0" y2="-96.4" stroke="rgba(229, 231, 235, 1)" stroke-width="2"></line><polygon points="-101.0,-96.4 -115.7,-99.6 -108.5,-96.1 -115.3,-91.8" fill="rgba(229, 231, 235, 1)" stroke="rgba(229, 231, 235, 1)"></polygon><line x1="-679.3" y1="-159.0" x2="-600.0" y2="-472.0" stroke="rgba(229, 231, 235, 1)" stroke-width="2"></line><polygon points="-600.0,-472.0 -607.4,-458.9 -601.9,-464.7 -599.8,-457.0" fill="rgba(229, 231, 235, 1)" stroke="rgba(229, 231, 235, 1)"></polygon><line x1="-1132.3" y1="-1678.0" x2="-872.1" y2="-2133.0" stroke="rgba(229, 231, 235, 1)" stroke-width="2"></line><polygon points="-872.1,-2133.0 -882.7,-2122.3 -875.8,-2126.5 -875.9,-2118.5" fill="rgba(229, 231, 235, 1)" stroke="rgba(229, 231, 235, 1)"></polygon><line x1="-1144.6" y1="-28.0" x2="-991.0" y2="193.6" stroke="rgba(229, 231, 235, 1)" stroke-width="2"></line><polygon points="-991.0,193.6 -996.1,179.5 -995.3,187.4 -1002.4,183.9" fill="rgba(229, 231, 235, 1)" stroke="rgba(229, 231, 235, 1)"></polygon><line x1="-1223.0" y1="-66.0" x2="-1735.6" y2="-66.4" stroke="rgba(229, 231, 235, 1)" stroke-width="2"></line><polygon points="-1735.6,-66.4 -1721.1,-62.5 -1728.1,-66.4 -1721.1,-70.3" fill="rgba(229, 231, 235, 1)" stroke="rgba(229, 231, 235, 1)"></polygon><line x1="158.0" y1="-67.6" x2="444.0" y2="10.5" stroke="rgba(229, 231, 235, 1)" stroke-width="2"></line><polygon points="444.0,10.5 431.0,2.9 436.8,8.5 429.0,10.4" fill="rgba(229, 231, 235, 1)" stroke="rgba(229, 231, 235, 1)"></polygon><line x1="9.2" y1="119.0" x2="-6.2" y2="295.0" stroke="rgba(229, 231, 235, 1)" stroke-width="2"></line><polygon points="-6.2,295.0 -1.1,280.9 -5.5,287.5 -8.8,280.2" fill="rgba(229, 231, 235, 1)" stroke="rgba(229, 231, 235, 1)"></polygon><line x1="-1214.4" y1="-28.0" x2="-1449.4" y2="178.0" stroke="rgba(229, 231, 235, 1)" stroke-width="2"></line><polygon points="-1449.4,178.0 -1435.9,171.4 -1443.8,173.1 -1441.1,165.5" fill="rgba(229, 231, 235, 1)" stroke="rgba(229, 231, 235, 1)"></polygon><line x1="-938.8" y1="-950.0" x2="-764.1" y2="-808.0" stroke="rgba(229, 231, 235, 1)" stroke-width="2"></line><polygon points="-764.1,-808.0 -772.9,-820.2 -769.9,-812.7 -777.8,-814.1" fill="rgba(229, 231, 235, 1)" stroke="rgba(229, 231, 235, 1)"></polygon><line x1="-1173.2" y1="-104.0" x2="-1194.8" y2="-472.0" stroke="rgba(229, 231, 235, 1)" stroke-width="2"></line><polygon points="-1194.8,-472.0 -1197.8,-457.3 -1194.3,-464.5 -1190.1,-457.8" fill="rgba(229, 231, 235, 1)" stroke="rgba(229, 231, 235, 1)"></polygon><line x1="-1769.7" y1="-738.0" x2="-1793.3" y2="-1017.0" stroke="rgba(229, 231, 235, 1)" stroke-width="2"></line><polygon points="-1793.3,-1017.0 -1795.9,-1002.2 -1792.7,-1009.5 -1788.2,-1002.9" fill="rgba(229, 231, 235, 1)" stroke="rgba(229, 231, 235, 1)"></polygon><line x1="-1646.8" y1="-1250.0" x2="-1645.2" y2="-1277.0" stroke="rgba(229, 231, 235, 1)" stroke-width="2"></line><polygon points="-1645.2,-1277.0 -1649.9,-1262.8 -1645.6,-1269.5 -1642.2,-1262.3" fill="rgba(229, 231, 235, 1)" stroke="rgba(229, 231, 235, 1)"></polygon><line x1="-1701.0" y1="-1351.1" x2="-2102.7" y2="-1601.0" stroke="rgba(229, 231, 235, 1)" stroke-width="2"></line><polygon points="-2102.7,-1601.0 -2092.5,-1590.0 -2096.3,-1597.0 -2088.3,-1596.6" fill="rgba(229, 231, 235, 1)" stroke="rgba(229, 231, 235, 1)"></polygon><line x1="-1636.3" y1="-1353.0" x2="-1625.2" y2="-1416.0" stroke="rgba(229, 231, 235, 1)" stroke-width="2"></line><polygon points="-1625.2,-1416.0 -1631.5,-1402.4 -1626.5,-1408.6 -1623.9,-1401.1" fill="rgba(229, 231, 235, 1)" stroke="rgba(229, 231, 235, 1)"></polygon><line x1="-502.9" y1="-1261.0" x2="-526.1" y2="-1310.0" stroke="rgba(229, 231, 235, 1)" stroke-width="2"></line><polygon points="-526.1,-1310.0 -523.4,-1295.2 -522.9,-1303.2 -516.4,-1298.6" fill="rgba(229, 231, 235, 1)" stroke="rgba(229, 231, 235, 1)"></polygon><line x1="-478.0" y1="-1093.0" x2="-483.0" y2="-1185.0" stroke="rgba(229, 231, 235, 1)" stroke-width="2"></line><polygon points="-483.0,-1185.0 -486.1,-1170.3 -482.6,-1177.5 -478.3,-1170.7" fill="rgba(229, 231, 235, 1)" stroke="rgba(229, 231, 235, 1)"></polygon><line x1="-871.0" y1="-1003.1" x2="-528.0" y2="-1048.2" stroke="rgba(229, 231, 235, 1)" stroke-width="2"></line><polygon points="-528.0,-1048.2 -542.9,-1050.1 -535.4,-1047.2 -541.9,-1042.4" fill="rgba(229, 231, 235, 1)" stroke="rgba(229, 231, 235, 1)"></polygon><line x1="-424.0" y1="-1055.3" x2="296.0" y2="-1059.5" stroke="rgba(229, 231, 235, 1)" stroke-width="2"></line><polygon points="296.0,-1059.5 281.5,-1063.3 288.5,-1059.5 281.5,-1055.5" fill="rgba(229, 231, 235, 1)" stroke="rgba(229, 231, 235, 1)"></polygon><line x1="-1180.0" y1="-2655.2" x2="-1427.0" y2="-2736.0" stroke="rgba(229, 231, 235, 1)" stroke-width="2"></line><polygon points="-1427.0,-2736.0 -1414.4,-2727.8 -1419.9,-2733.7 -1412.0,-2735.2" fill="rgba(229, 231, 235, 1)" stroke="rgba(229, 231, 235, 1)"></polygon><line x1="-1068.0" y1="-2670.0" x2="-1028.0" y2="-2707.0" stroke="rgba(229, 231, 235, 1)" stroke-width="2"></line><polygon points="-1028.0,-2707.0 -1041.3,-2700.0 -1033.5,-2701.9 -1036.0,-2694.3" fill="rgba(229, 231, 235, 1)" stroke="rgba(229, 231, 235, 1)"></polygon><line x1="-5.0" y1="1000.0" x2="31.5" y2="1088.0" stroke="rgba(229, 231, 235, 1)" stroke-width="2"></line><polygon points="31.5,1088.0 29.5,1073.1 28.6,1081.1 22.3,1076.1" fill="rgba(229, 231, 235, 1)" stroke="rgba(229, 231, 235, 1)"></polygon><line x1="-397.0" y1="-1239.5" x2="-221.0" y2="-1272.4" stroke="rgba(229, 231, 235, 1)" stroke-width="2"></line><polygon points="-221.0,-1272.4 -236.0,-1273.5 -228.4,-1271.0 -234.5,-1265.9" fill="rgba(229, 231, 235, 1)" stroke="rgba(229, 231, 235, 1)"></polygon><line x1="-222.0" y1="-1760.0" x2="198.0" y2="-1872.3" stroke="rgba(229, 231, 235, 1)" stroke-width="2"></line><polygon points="198.0,-1872.3 183.0,-1872.3 190.8,-1870.4 185.0,-1864.8" fill="rgba(229, 231, 235, 1)" stroke="rgba(229, 231, 235, 1)"></polygon><line x1="362.0" y1="-1750.0" x2="362.0" y2="-1717.0" stroke="rgba(229, 231, 235, 1)" stroke-width="2"></line><polygon points="362.0,-1717.0 365.9,-1731.5 362.0,-1724.5 358.1,-1731.5" fill="rgba(229, 231, 235, 1)" stroke="rgba(229, 231, 235, 1)"></polygon><line x1="362.0" y1="-1641.0" x2="362.0" y2="-1600.0" stroke="rgba(229, 231, 235, 1)" stroke-width="2"></line><polygon points="362.0,-1600.0 365.9,-1614.5 362.0,-1607.5 358.1,-1614.5" fill="rgba(229, 231, 235, 1)" stroke="rgba(229, 231, 235, 1)"></polygon><line x1="331.4" y1="-1866.0" x2="347.1" y2="-1826.0" stroke="rgba(229, 231, 235, 1)" stroke-width="2"></line><polygon points="347.1,-1826.0 345.4,-1840.9 344.4,-1833.0 338.2,-1838.1" fill="rgba(229, 231, 235, 1)" stroke="rgba(229, 231, 235, 1)"></polygon><rect x="476.0" y="-628.0" width="259.0" height="409.0" rx="8" ry="8" fill="rgba(0, 0, 0, 0)" stroke="rgba(229, 231, 235, 1)" stroke-width="2"></rect><text x="490.0" y="-598.0" fill="rgba(229, 231, 235, 1)" font-size="32" text-anchor="start" font-family="-apple-system, BlinkMacSystemFont, MiSans, system-ui, sans-serif">连线</text><rect x="444.0" y="-97.0" width="297.0" height="296.0" rx="8" ry="8" fill="rgba(0, 0, 0, 0)" stroke="rgba(229, 231, 235, 1)" stroke-width="2"></rect><text x="458.0" y="-67.0" fill="rgba(229, 231, 235, 1)" font-size="32" text-anchor="start" font-family="-apple-system, BlinkMacSystemFont, MiSans, system-ui, sans-serif">图片</text><rect x="-803.0" y="-808.0" width="491.0" height="336.0" rx="8" ry="8" fill="rgba(0, 0, 0, 0)" stroke="rgba(229, 231, 235, 1)" stroke-width="2"></rect><text x="-789.0" y="-778.0" fill="rgba(229, 231, 235, 1)" font-size="32" text-anchor="start" font-family="-apple-system, BlinkMacSystemFont, MiSans, system-ui, sans-serif">更丰富的节点渲染</text><rect x="-340.0" y="295.0" width="632.0" height="409.0" rx="8" ry="8" fill="rgba(0, 0, 0, 0)" stroke="rgba(229, 231, 235, 1)" stroke-width="2"></rect><text x="-326.0" y="325.0" fill="rgba(229, 231, 235, 1)" font-size="32" text-anchor="start" font-family="-apple-system, BlinkMacSystemFont, MiSans, system-ui, sans-serif">Section功能完善</text><rect x="-1833.0" y="178.0" width="555.0" height="186.0" rx="8" ry="8" fill="rgba(0, 0, 0, 0)" stroke="rgba(229, 231, 235, 1)" stroke-width="2"></rect><text x="-1819.0" y="208.0" fill="rgba(229, 231, 235, 1)" font-size="32" text-anchor="start" font-family="-apple-system, BlinkMacSystemFont, MiSans, system-ui, sans-serif">工具栏优化</text><rect x="-671.0" y="-1906.0" width="449.0" height="412.0" rx="8" ry="8" fill="rgba(0, 0, 0, 0)" stroke="rgba(229, 231, 235, 1)" stroke-width="2"></rect><text x="-657.0" y="-1876.0" fill="rgba(229, 231, 235, 1)" font-size="32" text-anchor="start" font-family="-apple-system, BlinkMacSystemFont, MiSans, system-ui, sans-serif">自动计算引擎</text><rect x="-2064.0" y="-216.0" width="328.4" height="299.0" rx="8" ry="8" fill="rgba(0, 0, 0, 0)" stroke="rgba(229, 231, 235, 1)" stroke-width="2"></rect><text x="-2050.0" y="-186.0" fill="rgba(229, 231, 235, 1)" font-size="32" text-anchor="start" font-family="-apple-system, BlinkMacSystemFont, MiSans, system-ui, sans-serif">布局功能</text><rect x="-2696.0" y="-2007.0" width="593.3" height="443.0" rx="8" ry="8" fill="rgba(0, 0, 0, 0)" stroke="rgba(229, 231, 235, 1)" stroke-width="2"></rect><text x="-2682.0" y="-1977.0" fill="rgba(229, 231, 235, 1)" font-size="32" text-anchor="start" font-family="-apple-system, BlinkMacSystemFont, MiSans, system-ui, sans-serif">插件</text><rect x="296.0" y="-1360.0" width="857.0" height="596.0" rx="8" ry="8" fill="rgba(0, 0, 0, 0)" stroke="rgba(229, 231, 235, 1)" stroke-width="2"></rect><text x="310.0" y="-1330.0" fill="rgba(229, 231, 235, 1)" font-size="32" text-anchor="start" font-family="-apple-system, BlinkMacSystemFont, MiSans, system-ui, sans-serif">多软件文件联通计划</text><rect x="-101.0" y="-325.0" width="259.0" height="444.0" rx="8" ry="8" fill="rgba(0, 0, 0, 0)" stroke="rgba(229, 231, 235, 1)" stroke-width="2"></rect><text x="-87.0" y="-295.0" fill="rgba(229, 231, 235, 1)" font-size="32" text-anchor="start" font-family="-apple-system, BlinkMacSystemFont, MiSans, system-ui, sans-serif">节点优化</text><rect x="-907.0" y="-2415.0" width="231.0" height="282.0" rx="8" ry="8" fill="rgba(0, 0, 0, 0)" stroke="rgba(229, 231, 235, 1)" stroke-width="2"></rect><text x="-893.0" y="-2385.0" fill="rgba(229, 231, 235, 1)" font-size="32" text-anchor="start" font-family="-apple-system, BlinkMacSystemFont, MiSans, system-ui, sans-serif">AI专项计划</text><rect x="-991.0" y="178.0" width="348.0" height="533.0" rx="8" ry="8" fill="rgba(0, 0, 0, 0)" stroke="rgba(229, 231, 235, 1)" stroke-width="2"></rect><text x="-977.0" y="208.0" fill="rgba(229, 231, 235, 1)" font-size="32" text-anchor="start" font-family="-apple-system, BlinkMacSystemFont, MiSans, system-ui, sans-serif">优化键盘操作</text><rect x="-317.0" y="814.0" width="547.0" height="186.0" rx="8" ry="8" fill="rgba(0, 0, 0, 0)" stroke="rgba(229, 231, 235, 1)" stroke-width="2"></rect><text x="-303.0" y="844.0" fill="rgba(229, 231, 235, 1)" font-size="32" text-anchor="start" font-family="-apple-system, BlinkMacSystemFont, MiSans, system-ui, sans-serif">多层嵌套Section完善</text><rect x="-961.0" y="-159.0" width="516.3" height="186.0" rx="8" ry="8" fill="rgba(0, 0, 0, 0)" stroke="rgba(229, 231, 235, 1)" stroke-width="2"></rect><text x="-947.0" y="-129.0" fill="rgba(229, 231, 235, 1)" font-size="32" text-anchor="start" font-family="-apple-system, BlinkMacSystemFont, MiSans, system-ui, sans-serif">性能优化</text><rect x="-134.0" y="1088.0" width="408.0" height="186.0" rx="8" ry="8" fill="rgba(0, 0, 0, 0)" stroke="rgba(229, 231, 235, 1)" stroke-width="2"></rect><text x="-120.0" y="1118.0" fill="rgba(229, 231, 235, 1)" font-size="32" text-anchor="start" font-family="-apple-system, BlinkMacSystemFont, MiSans, system-ui, sans-serif">增加表格元素</text></svg>