<svg xmlns="http://www.w3.org/2000/svg" width="2387.41877264528" height="1710.8674439486606" viewBox="-1338.083229691768 -717.3884001089243 2387.41877264528 1710.8674439486606" style="background-color:rgba(34, 34, 34, 1)"><rect x="313.6" y="266.9" width="705.7" height="582.3" rx="8" ry="8" fill="rgba(0, 0, 0, 0)" stroke="rgba(0, 0, 0, 0)" stroke-width="0"></rect><rect x="-256.1" y="-203.5" width="193.3" height="76.0" rx="8" ry="8" fill="rgba(0, 0, 0, 0)" stroke="rgba(229, 231, 235, 1)" stroke-width="2"></rect><text x="-242.1" y="-151.5" fill="rgba(255, 255, 255, 1)" font-size="32" text-anchor="start" font-family="-apple-system, BlinkMacSystemFont, MiSans, system-ui, sans-serif">class Core</text><rect x="32.3" y="-500.0" width="241.0" height="76.0" rx="8" ry="8" fill="rgba(0, 0, 0, 0)" stroke="rgba(229, 231, 235, 1)" stroke-width="2"></rect><text x="46.3" y="-448.0" fill="rgba(255, 255, 255, 1)" font-size="32" text-anchor="start" font-family="-apple-system, BlinkMacSystemFont, MiSans, system-ui, sans-serif">disposables[]</text><rect x="84.1" y="-332.1" width="196.4" height="76.0" rx="8" ry="8" fill="rgba(0, 0, 0, 0)" stroke="rgba(229, 231, 235, 1)" stroke-width="2"></rect><text x="98.1" y="-280.1" fill="rgba(255, 255, 255, 1)" font-size="32" text-anchor="start" font-family="-apple-system, BlinkMacSystemFont, MiSans, system-ui, sans-serif">tickables[]</text><rect x="315.3" y="-503.5" width="359.0" height="76.0" rx="8" ry="8" fill="rgba(0, 0, 0, 0)" stroke="rgba(229, 231, 235, 1)" stroke-width="2"></rect><text x="329.3" y="-451.5" fill="rgba(255, 255, 255, 1)" font-size="32" text-anchor="start" font-family="-apple-system, BlinkMacSystemFont, MiSans, system-ui, sans-serif">interface Disposable</text><rect x="352.3" y="-333.4" width="315.5" height="76.0" rx="8" ry="8" fill="rgba(0, 0, 0, 0)" stroke="rgba(229, 231, 235, 1)" stroke-width="2"></rect><text x="366.3" y="-281.4" fill="rgba(255, 255, 255, 1)" font-size="32" text-anchor="start" font-family="-apple-system, BlinkMacSystemFont, MiSans, system-ui, sans-serif">interface Tickable</text><rect x="721.6" y="-495.4" width="264.0" height="76.0" rx="8" ry="8" fill="rgba(0, 0, 0, 0)" stroke="rgba(229, 231, 235, 1)" stroke-width="2"></rect><text x="735.6" y="-443.4" fill="rgba(255, 255, 255, 1)" font-size="32" text-anchor="start" font-family="-apple-system, BlinkMacSystemFont, MiSans, system-ui, sans-serif">dispose(): void</text><rect x="719.5" y="-332.8" width="200.0" height="76.0" rx="8" ry="8" fill="rgba(0, 0, 0, 0)" stroke="rgba(229, 231, 235, 1)" stroke-width="2"></rect><text x="733.5" y="-280.8" fill="rgba(255, 255, 255, 1)" font-size="32" text-anchor="start" font-family="-apple-system, BlinkMacSystemFont, MiSans, system-ui, sans-serif">tick(): void</text><rect x="51.6" y="-123.2" width="167.0" height="76.0" rx="8" ry="8" fill="rgba(0, 0, 0, 0)" stroke="rgba(229, 231, 235, 1)" stroke-width="2"></rect><text x="65.6" y="-71.2" fill="rgba(255, 255, 255, 1)" font-size="32" text-anchor="start" font-family="-apple-system, BlinkMacSystemFont, MiSans, system-ui, sans-serif">plugins[]</text><rect x="347.4" y="-115.0" width="216.0" height="76.0" rx="8" ry="8" fill="rgba(0, 0, 0, 0)" stroke="rgba(229, 231, 235, 1)" stroke-width="2"></rect><text x="361.4" y="-63.0" fill="rgba(255, 255, 255, 1)" font-size="32" text-anchor="start" font-family="-apple-system, BlinkMacSystemFont, MiSans, system-ui, sans-serif">class Plugin</text><rect x="660.0" y="-196.1" width="170.0" height="76.0" rx="8" ry="8" fill="rgba(0, 0, 0, 0)" stroke="rgba(229, 231, 235, 1)" stroke-width="2"></rect><text x="674.0" y="-144.1" fill="rgba(255, 255, 255, 1)" font-size="32" text-anchor="start" font-family="-apple-system, BlinkMacSystemFont, MiSans, system-ui, sans-serif">id: string</text><rect x="652.6" y="-120.1" width="232.0" height="76.0" rx="8" ry="8" fill="rgba(0, 0, 0, 0)" stroke="rgba(229, 231, 235, 1)" stroke-width="2"></rect><text x="666.6" y="-68.1" fill="rgba(255, 255, 255, 1)" font-size="32" text-anchor="start" font-family="-apple-system, BlinkMacSystemFont, MiSans, system-ui, sans-serif">name: string</text><rect x="652.6" y="-35.8" width="272.3" height="76.0" rx="8" ry="8" fill="rgba(0, 0, 0, 0)" stroke="rgba(229, 231, 235, 1)" stroke-width="2"></rect><text x="666.6" y="16.2" fill="rgba(255, 255, 255, 1)" font-size="32" text-anchor="start" font-family="-apple-system, BlinkMacSystemFont, MiSans, system-ui, sans-serif">worker: Worker</text><rect x="-287.9" y="-687.4" width="118.0" height="76.0" rx="8" ry="8" fill="rgba(0, 0, 0, 0)" stroke="rgba(229, 231, 235, 1)" stroke-width="2"></rect><text x="-273.9" y="-635.4" fill="rgba(255, 255, 255, 1)" font-size="32" text-anchor="start" font-family="-apple-system, BlinkMacSystemFont, MiSans, system-ui, sans-serif">stage</text><rect x="-418.8" y="-566.9" width="165.6" height="76.0" rx="8" ry="8" fill="rgba(0, 0, 0, 0)" stroke="rgba(229, 231, 235, 1)" stroke-width="2"></rect><text x="-404.8" y="-514.9" fill="rgba(255, 255, 255, 1)" font-size="32" text-anchor="start" font-family="-apple-system, BlinkMacSystemFont, MiSans, system-ui, sans-serif">renderer</text><rect x="-520.5" y="-289.5" width="182.3" height="76.0" rx="8" ry="8" fill="rgba(0, 0, 0, 0)" stroke="rgba(229, 231, 235, 1)" stroke-width="2"></rect><text x="-506.5" y="-237.5" fill="rgba(255, 255, 255, 1)" font-size="32" text-anchor="start" font-family="-apple-system, BlinkMacSystemFont, MiSans, system-ui, sans-serif">controller</text><rect x="-534.0" y="-137.9" width="150.0" height="76.0" rx="8" ry="8" fill="rgba(0, 0, 0, 0)" stroke="rgba(229, 231, 235, 1)" stroke-width="2"></rect><text x="-520.0" y="-85.9" fill="rgba(255, 255, 255, 1)" font-size="32" text-anchor="start" font-family="-apple-system, BlinkMacSystemFont, MiSans, system-ui, sans-serif">camera</text><rect x="-515.9" y="16.8" width="157.0" height="76.0" rx="8" ry="8" fill="rgba(0, 0, 0, 0)" stroke="rgba(229, 231, 235, 1)" stroke-width="2"></rect><text x="-501.9" y="68.8" fill="rgba(255, 255, 255, 1)" font-size="32" text-anchor="start" font-family="-apple-system, BlinkMacSystemFont, MiSans, system-ui, sans-serif">settings</text><rect x="-710.5" y="-566.4" width="264.9" height="76.0" rx="8" ry="8" fill="rgba(0, 0, 0, 0)" stroke="rgba(229, 231, 235, 1)" stroke-width="2"></rect><text x="-696.5" y="-514.4" fill="rgba(255, 255, 255, 1)" font-size="32" text-anchor="start" font-family="-apple-system, BlinkMacSystemFont, MiSans, system-ui, sans-serif">class Renderer</text><rect x="-1270.8" y="-567.2" width="551.0" height="76.0" rx="8" ry="8" fill="rgba(0, 0, 0, 0)" stroke="rgba(229, 231, 235, 1)" stroke-width="2"></rect><text x="-1256.8" y="-515.2" fill="rgba(255, 255, 255, 1)" font-size="32" text-anchor="start" font-family="-apple-system, BlinkMacSystemFont, MiSans, system-ui, sans-serif">ctx: CanvasRenderingContext2D</text><rect x="-843.5" y="-290.1" width="277.3" height="76.0" rx="8" ry="8" fill="rgba(0, 0, 0, 0)" stroke="rgba(229, 231, 235, 1)" stroke-width="2"></rect><text x="-829.5" y="-238.1" fill="rgba(255, 255, 255, 1)" font-size="32" text-anchor="start" font-family="-apple-system, BlinkMacSystemFont, MiSans, system-ui, sans-serif">class Controller</text><rect x="-1254.3" y="-450.4" width="295.3" height="76.0" rx="8" ry="8" fill="rgba(0, 0, 0, 0)" stroke="rgba(229, 231, 235, 1)" stroke-width="2"></rect><text x="-1240.3" y="-398.4" fill="rgba(255, 255, 255, 1)" font-size="32" text-anchor="start" font-family="-apple-system, BlinkMacSystemFont, MiSans, system-ui, sans-serif">register(...): void</text><rect x="-1308.1" y="-287.9" width="398.0" height="76.0" rx="8" ry="8" fill="rgba(0, 0, 0, 0)" stroke="rgba(229, 231, 235, 1)" stroke-width="2"></rect><text x="-1294.1" y="-235.9" fill="rgba(255, 255, 255, 1)" font-size="32" text-anchor="start" font-family="-apple-system, BlinkMacSystemFont, MiSans, system-ui, sans-serif">mouseLocation: Vector</text><rect x="-879.5" y="-133.7" width="245.0" height="76.0" rx="8" ry="8" fill="rgba(0, 0, 0, 0)" stroke="rgba(229, 231, 235, 1)" stroke-width="2"></rect><text x="-865.5" y="-81.7" fill="rgba(255, 255, 255, 1)" font-size="32" text-anchor="start" font-family="-apple-system, BlinkMacSystemFont, MiSans, system-ui, sans-serif">class Camera</text><rect x="-1039.0" y="-134.6" width="58.0" height="76.0" rx="8" ry="8" fill="rgba(0, 0, 0, 0)" stroke="rgba(229, 231, 235, 1)" stroke-width="2"></rect><text x="-1025.0" y="-82.6" fill="rgba(255, 255, 255, 1)" font-size="32" text-anchor="start" font-family="-apple-system, BlinkMacSystemFont, MiSans, system-ui, sans-serif">...</text><rect x="-577.9" y="-690.0" width="212.0" height="76.0" rx="8" ry="8" fill="rgba(0, 0, 0, 0)" stroke="rgba(229, 231, 235, 1)" stroke-width="2"></rect><text x="-563.9" y="-638.0" fill="rgba(255, 255, 255, 1)" font-size="32" text-anchor="start" font-family="-apple-system, BlinkMacSystemFont, MiSans, system-ui, sans-serif">class Stage</text><rect x="-701.6" y="-688.6" width="58.0" height="76.0" rx="8" ry="8" fill="rgba(0, 0, 0, 0)" stroke="rgba(229, 231, 235, 1)" stroke-width="2"></rect><text x="-687.6" y="-636.6" fill="rgba(255, 255, 255, 1)" font-size="32" text-anchor="start" font-family="-apple-system, BlinkMacSystemFont, MiSans, system-ui, sans-serif">...</text><rect x="-930.2" y="23.9" width="354.0" height="76.0" rx="8" ry="8" fill="rgba(0, 0, 0, 0)" stroke="rgba(229, 231, 235, 1)" stroke-width="2"></rect><text x="-916.2" y="75.9" fill="rgba(255, 255, 255, 1)" font-size="32" text-anchor="start" font-family="-apple-system, BlinkMacSystemFont, MiSans, system-ui, sans-serif">async get&lt;T&gt;(...): T</text><rect x="-873.9" y="141.4" width="325.0" height="76.0" rx="8" ry="8" fill="rgba(0, 0, 0, 0)" stroke="rgba(229, 231, 235, 1)" stroke-width="2"></rect><text x="-859.9" y="193.4" fill="rgba(255, 255, 255, 1)" font-size="32" text-anchor="start" font-family="-apple-system, BlinkMacSystemFont, MiSans, system-ui, sans-serif">async set(...): void</text><rect x="-542.4" y="497.9" width="190.3" height="76.0" rx="8" ry="8" fill="rgba(22, 163, 74, 1)" stroke="rgba(229, 231, 235, 1)" stroke-width="2"></rect><text x="-528.4" y="549.9" fill="rgba(255, 255, 255, 1)" font-size="32" text-anchor="start" font-family="-apple-system, BlinkMacSystemFont, MiSans, system-ui, sans-serif">project.pg</text><rect x="-225.6" y="282.9" width="146.0" height="76.0" rx="8" ry="8" fill="rgba(0, 0, 0, 0)" stroke="rgba(229, 231, 235, 1)" stroke-width="2"></rect><text x="-211.6" y="334.9" fill="rgba(255, 255, 255, 1)" font-size="32" text-anchor="start" font-family="-apple-system, BlinkMacSystemFont, MiSans, system-ui, sans-serif">version</text><rect x="-243.4" y="472.2" width="225.0" height="76.0" rx="8" ry="8" fill="rgba(0, 0, 0, 0)" stroke="rgba(229, 231, 235, 1)" stroke-width="2"></rect><text x="-229.4" y="524.2" fill="rgba(255, 255, 255, 1)" font-size="32" text-anchor="start" font-family="-apple-system, BlinkMacSystemFont, MiSans, system-ui, sans-serif">entities.json</text><rect x="-476.9" y="816.1" width="143.0" height="76.0" rx="8" ry="8" fill="rgba(0, 0, 0, 0)" stroke="rgba(229, 231, 235, 1)" stroke-width="2"></rect><text x="-462.9" y="868.1" fill="rgba(255, 255, 255, 1)" font-size="32" text-anchor="start" font-family="-apple-system, BlinkMacSystemFont, MiSans, system-ui, sans-serif">assets/</text><rect x="-279.4" y="759.8" width="121.0" height="76.0" rx="8" ry="8" fill="rgba(0, 0, 0, 0)" stroke="rgba(229, 231, 235, 1)" stroke-width="2"></rect><text x="-265.4" y="811.8" fill="rgba(255, 255, 255, 1)" font-size="32" text-anchor="start" font-family="-apple-system, BlinkMacSystemFont, MiSans, system-ui, sans-serif">[uuid]</text><rect x="-277.8" y="887.5" width="121.0" height="76.0" rx="8" ry="8" fill="rgba(0, 0, 0, 0)" stroke="rgba(229, 231, 235, 1)" stroke-width="2"></rect><text x="-263.8" y="939.5" fill="rgba(255, 255, 255, 1)" font-size="32" text-anchor="start" font-family="-apple-system, BlinkMacSystemFont, MiSans, system-ui, sans-serif">[uuid]</text><rect x="26.5" y="306.8" width="142.0" height="76.0" rx="8" ry="8" fill="rgba(168, 85, 247, 1)" stroke="rgba(229, 231, 235, 1)" stroke-width="2"></rect><text x="40.5" y="358.8" fill="rgba(255, 255, 255, 1)" font-size="32" text-anchor="start" font-family="-apple-system, BlinkMacSystemFont, MiSans, system-ui, sans-serif">文档的版本号</text><rect x="-187.4" y="611.1" width="277.0" height="76.0" rx="8" ry="8" fill="rgba(168, 85, 247, 1)" stroke="rgba(229, 231, 235, 1)" stroke-width="2"></rect><text x="-173.4" y="663.1" fill="rgba(255, 255, 255, 1)" font-size="32" text-anchor="start" font-family="-apple-system, BlinkMacSystemFont, MiSans, system-ui, sans-serif">JSON数组，存储所有节点</text><rect x="352.4" y="346.9" width="62.0" height="76.0" rx="8" ry="8" fill="rgba(0, 0, 0, 0)" stroke="rgba(229, 231, 235, 1)" stroke-width="2"></rect><text x="366.4" y="398.9" fill="rgba(255, 255, 255, 1)" font-size="32" text-anchor="start" font-family="-apple-system, BlinkMacSystemFont, MiSans, system-ui, sans-serif">[ ]</text><rect x="426.3" y="469.3" width="78.0" height="76.0" rx="8" ry="8" fill="rgba(0, 0, 0, 0)" stroke="rgba(229, 231, 235, 1)" stroke-width="2"></rect><text x="440.3" y="521.3" fill="rgba(255, 255, 255, 1)" font-size="32" text-anchor="start" font-family="-apple-system, BlinkMacSystemFont, MiSans, system-ui, sans-serif">{ }</text><rect x="567.4" y="592.8" width="100.0" height="76.0" rx="8" ry="8" fill="rgba(0, 0, 0, 0)" stroke="rgba(229, 231, 235, 1)" stroke-width="2"></rect><text x="581.4" y="644.8" fill="rgba(255, 255, 255, 1)" font-size="32" text-anchor="start" font-family="-apple-system, BlinkMacSystemFont, MiSans, system-ui, sans-serif">type</text><rect x="719.6" y="617.0" width="269.7" height="76.0" rx="8" ry="8" fill="rgba(0, 0, 0, 0)" stroke="rgba(229, 231, 235, 1)" stroke-width="2"></rect><text x="733.6" y="669.0" fill="rgba(255, 255, 255, 1)" font-size="32" text-anchor="start" font-family="-apple-system, BlinkMacSystemFont, MiSans, system-ui, sans-serif">core:text_node</text><rect x="417.5" y="645.1" width="116.0" height="76.0" rx="8" ry="8" fill="rgba(0, 0, 0, 0)" stroke="rgba(229, 231, 235, 1)" stroke-width="2"></rect><text x="431.5" y="697.1" fill="rgba(255, 255, 255, 1)" font-size="32" text-anchor="start" font-family="-apple-system, BlinkMacSystemFont, MiSans, system-ui, sans-serif">width</text><rect x="419.7" y="743.2" width="130.0" height="76.0" rx="8" ry="8" fill="rgba(0, 0, 0, 0)" stroke="rgba(229, 231, 235, 1)" stroke-width="2"></rect><text x="433.7" y="795.2" fill="rgba(255, 255, 255, 1)" font-size="32" text-anchor="start" font-family="-apple-system, BlinkMacSystemFont, MiSans, system-ui, sans-serif">height</text><rect x="343.6" y="652.8" width="47.0" height="76.0" rx="8" ry="8" fill="rgba(0, 0, 0, 0)" stroke="rgba(229, 231, 235, 1)" stroke-width="2"></rect><text x="357.6" y="704.8" fill="rgba(255, 255, 255, 1)" font-size="32" text-anchor="start" font-family="-apple-system, BlinkMacSystemFont, MiSans, system-ui, sans-serif">x</text><rect x="348.0" y="737.7" width="47.0" height="76.0" rx="8" ry="8" fill="rgba(0, 0, 0, 0)" stroke="rgba(229, 231, 235, 1)" stroke-width="2"></rect><text x="362.0" y="789.7" fill="rgba(255, 255, 255, 1)" font-size="32" text-anchor="start" font-family="-apple-system, BlinkMacSystemFont, MiSans, system-ui, sans-serif">y</text><rect x="556.4" y="392.0" width="161.0" height="76.0" rx="8" ry="8" fill="rgba(0, 0, 0, 0)" stroke="rgba(229, 231, 235, 1)" stroke-width="2"></rect><text x="570.4" y="444.0" fill="rgba(255, 255, 255, 1)" font-size="32" text-anchor="start" font-family="-apple-system, BlinkMacSystemFont, MiSans, system-ui, sans-serif">data { }</text><rect x="756.0" y="403.0" width="92.4" height="76.0" rx="8" ry="8" fill="rgba(0, 0, 0, 0)" stroke="rgba(229, 231, 235, 1)" stroke-width="2"></rect><text x="770.0" y="455.0" fill="rgba(255, 255, 255, 1)" font-size="32" text-anchor="start" font-family="-apple-system, BlinkMacSystemFont, MiSans, system-ui, sans-serif">text</text><rect x="699.8" y="502.3" width="58.0" height="76.0" rx="8" ry="8" fill="rgba(0, 0, 0, 0)" stroke="rgba(229, 231, 235, 1)" stroke-width="2"></rect><text x="713.8" y="554.3" fill="rgba(255, 255, 255, 1)" font-size="32" text-anchor="start" font-family="-apple-system, BlinkMacSystemFont, MiSans, system-ui, sans-serif">...</text><rect x="-43.5" y="882.5" width="277.0" height="76.0" rx="8" ry="8" fill="rgba(168, 85, 247, 1)" stroke="rgba(229, 231, 235, 1)" stroke-width="2"></rect><text x="-29.5" y="934.5" fill="rgba(255, 255, 255, 1)" font-size="32" text-anchor="start" font-family="-apple-system, BlinkMacSystemFont, MiSans, system-ui, sans-serif">文档中的图片（raw格式）</text><line x1="-119.4" y1="-203.5" x2="112.8" y2="-424.0" stroke="rgba(229, 231, 235, 1)" stroke-width="2"></line><polygon points="112.8,-424.0 99.6,-416.8 107.4,-418.8 105.0,-411.2" fill="rgba(229, 231, 235, 1)" stroke="rgba(229, 231, 235, 1)"></polygon><line x1="-62.8" y1="-201.9" x2="84.1" y2="-257.1" stroke="rgba(229, 231, 235, 1)" stroke-width="2"></line><polygon points="84.1,-257.1 69.1,-255.7 77.0,-254.5 71.9,-248.4" fill="rgba(229, 231, 235, 1)" stroke="rgba(229, 231, 235, 1)"></polygon><line x1="674.3" y1="-461.4" x2="721.6" y2="-460.4" stroke="rgba(229, 231, 235, 1)" stroke-width="2"></line><polygon points="721.6,-460.4 707.2,-464.6 714.1,-460.6 707.0,-456.8" fill="rgba(229, 231, 235, 1)" stroke="rgba(229, 231, 235, 1)"></polygon><line x1="667.7" y1="-295.1" x2="719.5" y2="-295.0" stroke="rgba(229, 231, 235, 1)" stroke-width="2"></line><polygon points="719.5,-295.0 705.0,-298.9 712.0,-295.0 705.0,-291.1" fill="rgba(229, 231, 235, 1)" stroke="rgba(229, 231, 235, 1)"></polygon><line x1="273.3" y1="-463.2" x2="315.3" y2="-463.6" stroke="rgba(229, 231, 235, 1)" stroke-width="2"></line><polygon points="315.3,-463.6 300.7,-467.4 307.8,-463.6 300.8,-459.6" fill="rgba(229, 231, 235, 1)" stroke="rgba(229, 231, 235, 1)"></polygon><line x1="280.5" y1="-294.5" x2="352.3" y2="-294.8" stroke="rgba(229, 231, 235, 1)" stroke-width="2"></line><polygon points="352.3,-294.8 337.8,-298.6 344.8,-294.7 337.8,-290.8" fill="rgba(229, 231, 235, 1)" stroke="rgba(229, 231, 235, 1)"></polygon><line x1="218.6" y1="-83.1" x2="347.4" y2="-79.8" stroke="rgba(229, 231, 235, 1)" stroke-width="2"></line><polygon points="347.4,-79.8 333.1,-84.0 339.9,-80.0 332.9,-76.3" fill="rgba(229, 231, 235, 1)" stroke="rgba(229, 231, 235, 1)"></polygon><line x1="563.4" y1="-107.2" x2="660.0" y2="-134.3" stroke="rgba(229, 231, 235, 1)" stroke-width="2"></line><polygon points="660.0,-134.3 645.0,-134.1 652.8,-132.3 647.1,-126.6" fill="rgba(229, 231, 235, 1)" stroke="rgba(229, 231, 235, 1)"></polygon><line x1="563.4" y1="-78.7" x2="652.6" y2="-80.2" stroke="rgba(229, 231, 235, 1)" stroke-width="2"></line><polygon points="652.6,-80.2 638.0,-83.8 645.1,-80.1 638.2,-76.1" fill="rgba(229, 231, 235, 1)" stroke="rgba(229, 231, 235, 1)"></polygon><line x1="563.4" y1="-51.3" x2="652.6" y2="-30.2" stroke="rgba(229, 231, 235, 1)" stroke-width="2"></line><polygon points="652.6,-30.2 639.4,-37.3 645.3,-31.9 637.6,-29.7" fill="rgba(229, 231, 235, 1)" stroke="rgba(229, 231, 235, 1)"></polygon><line x1="-164.9" y1="-203.5" x2="-223.5" y2="-611.4" stroke="rgba(229, 231, 235, 1)" stroke-width="2"></line><polygon points="-223.5,-611.4 -225.3,-596.5 -222.4,-604.0 -217.6,-597.6" fill="rgba(229, 231, 235, 1)" stroke="rgba(229, 231, 235, 1)"></polygon><line x1="-177.9" y1="-203.5" x2="-317.5" y2="-490.9" stroke="rgba(229, 231, 235, 1)" stroke-width="2"></line><polygon points="-317.5,-490.9 -314.7,-476.2 -314.2,-484.2 -307.7,-479.6" fill="rgba(229, 231, 235, 1)" stroke="rgba(229, 231, 235, 1)"></polygon><line x1="-710.5" y1="-528.7" x2="-719.8" y2="-528.7" stroke="rgba(229, 231, 235, 1)" stroke-width="2"></line><polygon points="-719.8,-528.7 -705.4,-524.8 -712.3,-528.7 -705.3,-532.5" fill="rgba(229, 231, 235, 1)" stroke="rgba(229, 231, 235, 1)"></polygon><line x1="-256.1" y1="-196.3" x2="-338.2" y2="-222.4" stroke="rgba(229, 231, 235, 1)" stroke-width="2"></line><polygon points="-338.2,-222.4 -325.6,-214.3 -331.1,-220.2 -323.3,-221.7" fill="rgba(229, 231, 235, 1)" stroke="rgba(229, 231, 235, 1)"></polygon><line x1="-256.1" y1="-144.3" x2="-384.0" y2="-116.3" stroke="rgba(229, 231, 235, 1)" stroke-width="2"></line><polygon points="-384.0,-116.3 -369.1,-115.7 -376.7,-118.0 -370.7,-123.2" fill="rgba(229, 231, 235, 1)" stroke="rgba(229, 231, 235, 1)"></polygon><line x1="-207.4" y1="-127.5" x2="-389.5" y2="16.8" stroke="rgba(229, 231, 235, 1)" stroke-width="2"></line><polygon points="-389.5,16.8 -375.7,10.9 -383.6,12.2 -380.6,4.8" fill="rgba(229, 231, 235, 1)" stroke="rgba(229, 231, 235, 1)"></polygon><line x1="-520.5" y1="-251.7" x2="-566.2" y2="-251.8" stroke="rgba(229, 231, 235, 1)" stroke-width="2"></line><polygon points="-566.2,-251.8 -551.7,-247.9 -558.7,-251.8 -551.7,-255.6" fill="rgba(229, 231, 235, 1)" stroke="rgba(229, 231, 235, 1)"></polygon><line x1="-843.5" y1="-251.3" x2="-910.1" y2="-251.0" stroke="rgba(229, 231, 235, 1)" stroke-width="2"></line><polygon points="-910.1,-251.0 -895.6,-247.2 -902.6,-251.0 -895.7,-254.9" fill="rgba(229, 231, 235, 1)" stroke="rgba(229, 231, 235, 1)"></polygon><line x1="-534.0" y1="-98.9" x2="-634.5" y2="-97.5" stroke="rgba(229, 231, 235, 1)" stroke-width="2"></line><polygon points="-634.5,-97.5 -620.0,-93.8 -627.0,-97.6 -620.1,-101.6" fill="rgba(229, 231, 235, 1)" stroke="rgba(229, 231, 235, 1)"></polygon><line x1="-879.5" y1="-96.2" x2="-981.0" y2="-96.5" stroke="rgba(229, 231, 235, 1)" stroke-width="2"></line><polygon points="-981.0,-96.5 -966.5,-92.6 -973.5,-96.5 -966.5,-100.4" fill="rgba(229, 231, 235, 1)" stroke="rgba(229, 231, 235, 1)"></polygon><line x1="-577.9" y1="-651.2" x2="-643.6" y2="-650.8" stroke="rgba(229, 231, 235, 1)" stroke-width="2"></line><polygon points="-643.6,-650.8 -629.1,-647.0 -636.1,-650.8 -629.2,-654.8" fill="rgba(229, 231, 235, 1)" stroke="rgba(229, 231, 235, 1)"></polygon><line x1="-515.9" y1="56.6" x2="-576.2" y2="57.9" stroke="rgba(229, 231, 235, 1)" stroke-width="2"></line><polygon points="-576.2,57.9 -561.6,61.5 -568.7,57.8 -561.8,53.7" fill="rgba(229, 231, 235, 1)" stroke="rgba(229, 231, 235, 1)"></polygon><line x1="-515.9" y1="90.5" x2="-627.8" y2="141.4" stroke="rgba(229, 231, 235, 1)" stroke-width="2"></line><polygon points="-627.8,141.4 -613.0,139.0 -621.0,138.3 -616.2,131.9" fill="rgba(229, 231, 235, 1)" stroke="rgba(229, 231, 235, 1)"></polygon><line x1="-395.1" y1="497.9" x2="-204.7" y2="358.9" stroke="rgba(229, 231, 235, 1)" stroke-width="2"></line><polygon points="-204.7,358.9 -218.7,364.3 -210.7,363.3 -214.1,370.6" fill="rgba(229, 231, 235, 1)" stroke="rgba(229, 231, 235, 1)"></polygon><line x1="-352.1" y1="528.1" x2="-243.4" y2="519.3" stroke="rgba(229, 231, 235, 1)" stroke-width="2"></line><polygon points="-243.4,519.3 -258.2,516.6 -250.9,519.9 -257.5,524.4" fill="rgba(229, 231, 235, 1)" stroke="rgba(229, 231, 235, 1)"></polygon><line x1="-442.2" y1="573.9" x2="-410.4" y2="816.1" stroke="rgba(229, 231, 235, 1)" stroke-width="2"></line><polygon points="-410.4,816.1 -408.4,801.2 -411.4,808.6 -416.1,802.2" fill="rgba(229, 231, 235, 1)" stroke="rgba(229, 231, 235, 1)"></polygon><line x1="-333.9" y1="832.5" x2="-279.4" y2="816.1" stroke="rgba(229, 231, 235, 1)" stroke-width="2"></line><polygon points="-279.4,816.1 -294.4,816.5 -286.6,818.2 -292.1,824.0" fill="rgba(229, 231, 235, 1)" stroke="rgba(229, 231, 235, 1)"></polygon><line x1="-333.9" y1="881.2" x2="-277.8" y2="902.5" stroke="rgba(229, 231, 235, 1)" stroke-width="2"></line><polygon points="-277.8,902.5 -289.9,893.7 -284.8,899.9 -292.7,901.0" fill="rgba(229, 231, 235, 1)" stroke="rgba(229, 231, 235, 1)"></polygon><line x1="-418.8" y1="-528.7" x2="-445.6" y2="-528.7" stroke="rgba(229, 231, 235, 1)" stroke-width="2"></line><polygon points="-445.6,-528.7 -431.1,-524.8 -438.1,-528.7 -431.1,-532.6" fill="rgba(229, 231, 235, 1)" stroke="rgba(229, 231, 235, 1)"></polygon><line x1="-287.9" y1="-650.0" x2="-365.9" y2="-650.8" stroke="rgba(229, 231, 235, 1)" stroke-width="2"></line><polygon points="-365.9,-650.8 -351.5,-646.8 -358.4,-650.8 -351.4,-654.6" fill="rgba(229, 231, 235, 1)" stroke="rgba(229, 231, 235, 1)"></polygon><line x1="-62.8" y1="-139.2" x2="51.6" y2="-108.0" stroke="rgba(229, 231, 235, 1)" stroke-width="2"></line><polygon points="51.6,-108.0 38.6,-115.5 44.3,-109.9 36.6,-108.0" fill="rgba(229, 231, 235, 1)" stroke="rgba(229, 231, 235, 1)"></polygon><line x1="26.5" y1="338.0" x2="-79.6" y2="327.9" stroke="rgba(229, 231, 235, 1)" stroke-width="2"></line><polygon points="-79.6,327.9 -65.5,333.1 -72.1,328.6 -64.8,325.4" fill="rgba(229, 231, 235, 1)" stroke="rgba(229, 231, 235, 1)"></polygon><line x1="-71.4" y1="611.1" x2="-108.5" y2="548.2" stroke="rgba(229, 231, 235, 1)" stroke-width="2"></line><polygon points="-108.5,548.2 -104.5,562.7 -104.7,554.7 -97.8,558.7" fill="rgba(229, 231, 235, 1)" stroke="rgba(229, 231, 235, 1)"></polygon><line x1="-18.4" y1="482.8" x2="352.4" y2="392.4" stroke="rgba(229, 231, 235, 1)" stroke-width="2"></line><polygon points="352.4,392.4 337.4,392.1 345.1,394.2 339.3,399.6" fill="rgba(229, 231, 235, 1)" stroke="rgba(229, 231, 235, 1)"></polygon><line x1="408.8" y1="422.9" x2="439.9" y2="469.3" stroke="rgba(229, 231, 235, 1)" stroke-width="2"></line><polygon points="439.9,469.3 435.0,455.1 435.7,463.0 428.6,459.4" fill="rgba(229, 231, 235, 1)" stroke="rgba(229, 231, 235, 1)"></polygon><line x1="504.3" y1="538.9" x2="570.6" y2="592.8" stroke="rgba(229, 231, 235, 1)" stroke-width="2"></line><polygon points="570.6,592.8 561.8,580.6 564.8,588.0 556.9,586.7" fill="rgba(229, 231, 235, 1)" stroke="rgba(229, 231, 235, 1)"></polygon><line x1="667.4" y1="635.9" x2="719.6" y2="641.2" stroke="rgba(229, 231, 235, 1)" stroke-width="2"></line><polygon points="719.6,641.2 705.6,635.9 712.1,640.5 704.8,643.6" fill="rgba(229, 231, 235, 1)" stroke="rgba(229, 231, 235, 1)"></polygon><line x1="445.0" y1="545.3" x2="387.4" y2="652.8" stroke="rgba(229, 231, 235, 1)" stroke-width="2"></line><polygon points="387.4,652.8 397.7,641.9 391.0,646.2 390.8,638.2" fill="rgba(229, 231, 235, 1)" stroke="rgba(229, 231, 235, 1)"></polygon><line x1="467.5" y1="545.3" x2="473.3" y2="645.1" stroke="rgba(229, 231, 235, 1)" stroke-width="2"></line><polygon points="473.3,645.1 476.3,630.4 472.8,637.6 468.6,630.9" fill="rgba(229, 231, 235, 1)" stroke="rgba(229, 231, 235, 1)"></polygon><line x1="452.0" y1="545.3" x2="384.8" y2="737.7" stroke="rgba(229, 231, 235, 1)" stroke-width="2"></line><polygon points="384.8,737.7 393.2,725.3 387.3,730.6 385.9,722.8" fill="rgba(229, 231, 235, 1)" stroke="rgba(229, 231, 235, 1)"></polygon><line x1="468.0" y1="545.3" x2="482.0" y2="743.2" stroke="rgba(229, 231, 235, 1)" stroke-width="2"></line><polygon points="482.0,743.2 484.8,728.5 481.5,735.8 477.1,729.1" fill="rgba(229, 231, 235, 1)" stroke="rgba(229, 231, 235, 1)"></polygon><line x1="504.3" y1="489.7" x2="556.4" y2="466.3" stroke="rgba(229, 231, 235, 1)" stroke-width="2"></line><polygon points="556.4,466.3 541.6,468.7 549.6,469.3 544.8,475.8" fill="rgba(229, 231, 235, 1)" stroke="rgba(229, 231, 235, 1)"></polygon><line x1="717.4" y1="435.4" x2="756.0" y2="438.0" stroke="rgba(229, 231, 235, 1)" stroke-width="2"></line><polygon points="756.0,438.0 741.8,433.1 748.5,437.5 741.3,440.9" fill="rgba(229, 231, 235, 1)" stroke="rgba(229, 231, 235, 1)"></polygon><line x1="668.6" y1="468.0" x2="699.8" y2="505.5" stroke="rgba(229, 231, 235, 1)" stroke-width="2"></line><polygon points="699.8,505.5 693.5,491.9 695.0,499.7 687.5,496.8" fill="rgba(229, 231, 235, 1)" stroke="rgba(229, 231, 235, 1)"></polygon><line x1="-43.5" y1="922.7" x2="-156.8" y2="924.5" stroke="rgba(229, 231, 235, 1)" stroke-width="2"></line><polygon points="-156.8,924.5 -142.2,928.2 -149.3,924.4 -142.3,920.4" fill="rgba(229, 231, 235, 1)" stroke="rgba(229, 231, 235, 1)"></polygon><line x1="-2.3" y1="882.5" x2="-158.4" y2="821.5" stroke="rgba(229, 231, 235, 1)" stroke-width="2"></line><polygon points="-158.4,821.5 -146.3,830.3 -151.4,824.2 -143.5,823.1" fill="rgba(229, 231, 235, 1)" stroke="rgba(229, 231, 235, 1)"></polygon><rect x="313.6" y="266.9" width="705.7" height="582.3" rx="8" ry="8" fill="rgba(0, 0, 0, 0)" stroke="rgba(229, 231, 235, 1)" stroke-width="2"></rect><text x="327.6" y="296.9" fill="rgba(229, 231, 235, 1)" font-size="32" text-anchor="start" font-family="-apple-system, BlinkMacSystemFont, MiSans, system-ui, sans-serif">JSON</text></svg>