<svg xmlns="http://www.w3.org/2000/svg" width="5431.938395397158" height="3225.850006752411" viewBox="-3177.372737649249 -1309.7451284291958 5431.938395397158 3225.850006752411" style="background-color:rgba(31, 31, 31, 1)"><rect x="-633.6925490033898" y="1761.7426582045198" width="110" height="60" rx="8" ry="8" fill="rgba(59, 130, 246, 1)" stroke="rgba(204, 204, 204, 1)" stroke-width="2"></rect><text x="-578.6925490033898" y="1805.7426582045198" fill="rgba(255, 255, 255, 1)" font-size="32" text-anchor="middle" font-family="MiSans">Edge</text><rect x="826.2924532658419" y="1630.8203708631113" width="150" height="60" rx="8" ry="8" fill="rgba(59, 130, 246, 1)" stroke="rgba(204, 204, 204, 1)" stroke-width="2"></rect><text x="901.2924532658419" y="1674.8203708631113" fill="rgba(255, 255, 255, 1)" font-size="32" text-anchor="middle" font-family="MiSans">Section</text><rect x="1046.4151474695825" y="1826.1048783232154" width="114" height="60" rx="8" ry="8" fill="rgba(59, 130, 246, 1)" stroke="rgba(204, 204, 204, 1)" stroke-width="2"></rect><text x="1103.4151474695825" y="1870.1048783232154" fill="rgba(255, 255, 255, 1)" font-size="32" text-anchor="middle" font-family="MiSans">Node</text><rect x="-296.88502699377875" y="11.815482010648225" width="227" height="60" rx="8" ry="8" fill="rgba(168, 85, 247, 1)" stroke="rgba(204, 204, 204, 1)" stroke-width="2"></rect><text x="-183.38502699377875" y="55.815482010648225" fill="rgba(255, 255, 255, 1)" font-size="32" text-anchor="middle" font-family="MiSans">StageObject</text><rect x="1191.2279452275604" y="1829.8756122612367" width="228" height="60" rx="8" ry="8" fill="rgba(59, 130, 246, 1)" stroke="rgba(204, 204, 204, 1)" stroke-width="2"></rect><text x="1305.2279452275604" y="1873.8756122612367" fill="rgba(255, 255, 255, 1)" font-size="32" text-anchor="middle" font-family="MiSans">BubbleNode</text><rect x="1458.2246359674466" y="1833.7399733055836" width="164" height="60" rx="8" ry="8" fill="rgba(59, 130, 246, 1)" stroke="rgba(204, 204, 204, 1)" stroke-width="2"></rect><text x="1540.2246359674466" y="1877.7399733055836" fill="rgba(255, 255, 255, 1)" font-size="32" text-anchor="middle" font-family="MiSans">fileNode</text><rect x="1684.0823775184629" y="1828.1464200564637" width="312.390625" height="60" rx="8" ry="8" fill="rgba(59, 130, 246, 1)" stroke="rgba(204, 204, 204, 1)" stroke-width="2"></rect><text x="1840.2776900184629" y="1872.1464200564637" fill="rgba(255, 255, 255, 1)" font-size="32" text-anchor="middle" font-family="MiSans">WebsiteLinkNode</text><rect x="2009.5656577479097" y="1826.0600191920284" width="215" height="60" rx="8" ry="8" fill="rgba(59, 130, 246, 1)" stroke="rgba(204, 204, 204, 1)" stroke-width="2"></rect><text x="2117.0656577479094" y="1870.0600191920284" fill="rgba(255, 255, 255, 1)" font-size="32" text-anchor="middle" font-family="MiSans">ImageNode</text><rect x="1157.9261231969274" y="961.6085342433213" width="329" height="60" rx="8" ry="8" fill="rgba(168, 85, 247, 1)" stroke="rgba(204, 204, 204, 1)" stroke-width="2"></rect><text x="1322.4261231969274" y="1005.6085342433213" fill="rgba(255, 255, 255, 1)" font-size="32" text-anchor="middle" font-family="MiSans">ConnectableEntity</text><rect x="486.7774950061828" y="15.145096319069296" width="218" height="60" rx="8" ry="8" fill="rgba(0, 0, 0, 0)" stroke="rgba(204, 204, 204, 1)" stroke-width="2"></rect><text x="595.7774950061828" y="59.145096319069296" fill="rgba(255, 255, 255, 1)" font-size="32" text-anchor="middle" font-family="MiSans">一切具有碰撞箱的东西</text><rect x="1552.283140166173" y="957.6453725118564" width="528" height="60" rx="8" ry="8" fill="rgba(0, 0, 0, 0)" stroke="rgba(204, 204, 204, 1)" stroke-width="2"></rect><text x="1816.283140166173" y="1001.6453725118564" fill="rgba(255, 255, 255, 1)" font-size="32" text-anchor="middle" font-family="MiSans">一切可被Edge连接的东西，且会算入图分析算法的东西</text><rect x="493.80918894019317" y="1630.0275565725574" width="326" height="60" rx="8" ry="8" fill="rgba(0, 0, 0, 0)" stroke="rgba(204, 204, 204, 1)" stroke-width="2"></rect><text x="656.8091889401932" y="1674.0275565725574" fill="rgba(255, 255, 255, 1)" font-size="32" text-anchor="middle" font-family="MiSans">container: Entity[]</text><rect x="395.06226776113715" y="350.1402281712296" width="126" height="60" rx="8" ry="8" fill="rgba(168, 85, 247, 1)" stroke="rgba(204, 204, 204, 1)" stroke-width="2"></rect><text x="458.06226776113715" y="394.1402281712296" fill="rgba(255, 255, 255, 1)" font-size="32" text-anchor="middle" font-family="MiSans">Entity</text><rect x="497.4678964984761" y="-120.43445034098278" width="119" height="60" rx="8" ry="8" fill="rgba(0, 0, 0, 0)" stroke="rgba(204, 204, 204, 1)" stroke-width="2"></rect><text x="556.9678964984761" y="-76.43445034098278" fill="rgba(255, 255, 255, 1)" font-size="32" text-anchor="middle" font-family="MiSans">有uuid</text><rect x="237.65329650544032" y="1219.044922404907" width="85" height="60" rx="8" ry="8" fill="rgba(59, 130, 246, 1)" stroke="rgba(204, 204, 204, 1)" stroke-width="2"></rect><text x="280.1532965054403" y="1263.044922404907" fill="rgba(255, 255, 255, 1)" font-size="32" text-anchor="middle" font-family="MiSans">分割线</text><rect x="959.726319204312" y="970.0294960171906" width="66" height="60" rx="8" ry="8" fill="rgba(59, 130, 246, 1)" stroke="rgba(204, 204, 204, 1)" stroke-width="2"></rect><text x="992.726319204312" y="1014.0294960171906" fill="rgba(255, 255, 255, 1)" font-size="32" text-anchor="middle" font-family="MiSans">贴纸</text><rect x="692.845488551983" y="964.8770977540513" width="226" height="60" rx="8" ry="8" fill="rgba(168, 85, 247, 1)" stroke="rgba(204, 204, 204, 1)" stroke-width="2"></rect><text x="805.845488551983" y="1008.8770977540513" fill="rgba(255, 255, 255, 1)" font-size="32" text-anchor="middle" font-family="MiSans">EffectOrigin</text><rect x="806.3022109650144" y="-123.01756106231716" width="157" height="60" rx="8" ry="8" fill="rgba(0, 0, 0, 0)" stroke="rgba(204, 204, 204, 1)" stroke-width="2"></rect><text x="884.8022109650144" y="-79.01756106231716" fill="rgba(255, 255, 255, 1)" font-size="32" text-anchor="middle" font-family="MiSans">uuid的意义</text><rect x="1180.0006331839131" y="-219.91167866378692" width="360" height="60" rx="8" ry="8" fill="rgba(0, 0, 0, 0)" stroke="rgba(204, 204, 204, 1)" stroke-width="2"></rect><text x="1360.0006331839131" y="-175.91167866378692" fill="rgba(255, 255, 255, 1)" font-size="32" text-anchor="middle" font-family="MiSans">json化时，表示各个物体之间的关系</text><rect x="1188.1953665153926" y="-124.30142818507227" width="142" height="60" rx="8" ry="8" fill="rgba(0, 0, 0, 0)" stroke="rgba(204, 204, 204, 1)" stroke-width="2"></rect><text x="1259.1953665153926" y="-80.30142818507227" fill="rgba(255, 255, 255, 1)" font-size="32" text-anchor="middle" font-family="MiSans">图论分析算法</text><rect x="1188.1953665153928" y="-33.745844711281734" width="217" height="60" rx="8" ry="8" fill="rgba(0, 0, 0, 0)" stroke="rgba(204, 204, 204, 1)" stroke-width="2"></rect><text x="1296.6953665153928" y="10.254155288718266" fill="rgba(255, 255, 255, 1)" font-size="32" text-anchor="middle" font-family="MiSans">优化，作为key使用</text><rect x="-2032.094350227701" y="294.7590311027167" width="383" height="60" rx="8" ry="8" fill="rgba(0, 0, 0, 0)" stroke="rgba(204, 204, 204, 1)" stroke-width="2"></rect><text x="-1840.594350227701" y="338.7590311027167" fill="rgba(255, 255, 255, 1)" font-size="32" text-anchor="middle" font-family="MiSans">与Connectable实时关联的东西</text><rect x="-1833.9617589857153" y="1695.0830238460003" width="142" height="60" rx="8" ry="8" fill="rgba(59, 130, 246, 1)" stroke="rgba(204, 204, 204, 1)" stroke-width="2"></rect><text x="-1762.9617589857153" y="1739.0830238460003" fill="rgba(255, 255, 255, 1)" font-size="32" text-anchor="middle" font-family="MiSans">图论分析结果</text><rect x="-867.2859256448197" y="1761.1241608819516" width="167" height="60" rx="8" ry="8" fill="rgba(59, 130, 246, 1)" stroke="rgba(204, 204, 204, 1)" stroke-width="2"></rect><text x="-783.7859256448197" y="1805.1241608819516" fill="rgba(255, 255, 255, 1)" font-size="32" text-anchor="middle" font-family="MiSans">全连接Edge</text><rect x="-1095.9877764284129" y="348.4542196877194" width="212" height="60" rx="8" ry="8" fill="rgba(168, 85, 247, 1)" stroke="rgba(204, 204, 204, 1)" stroke-width="2"></rect><text x="-989.9877764284129" y="392.4542196877194" fill="rgba(255, 255, 255, 1)" font-size="32" text-anchor="middle" font-family="MiSans">Association</text><rect x="-2284.517798229437" y="388.1971739054781" width="529" height="60" rx="8" ry="8" fill="rgba(0, 0, 0, 0)" stroke="rgba(204, 204, 204, 1)" stroke-width="2"></rect><text x="-2020.0177982294372" y="432.1971739054781" fill="rgba(255, 255, 255, 1)" font-size="32" text-anchor="middle" font-family="MiSans">有一个非空数组，表示关联的connectable的数组</text><rect x="-1541.9636635836819" y="1296.1853628152935" width="334" height="60" rx="8" ry="8" fill="rgba(168, 85, 247, 1)" stroke="rgba(204, 204, 204, 1)" stroke-width="2"></rect><text x="-1374.9636635836819" y="1340.1853628152935" fill="rgba(255, 255, 255, 1)" font-size="32" text-anchor="middle" font-family="MiSans">SectionAssociation</text><rect x="-769.7832498442436" y="1297.6584553515313" width="415" height="60" rx="8" ry="8" fill="rgba(168, 85, 247, 1)" stroke="rgba(204, 204, 204, 1)" stroke-width="2"></rect><text x="-562.2832498442436" y="1341.6584553515313" fill="rgba(255, 255, 255, 1)" font-size="32" text-anchor="middle" font-family="MiSans">ConnectableAssociation</text><rect x="-2341.651324492499" y="1301.781980167277" width="301" height="60" rx="8" ry="8" fill="rgba(0, 0, 0, 0)" stroke="rgba(204, 204, 204, 1)" stroke-width="2"></rect><text x="-2191.151324492499" y="1345.781980167277" fill="rgba(255, 255, 255, 1)" font-size="32" text-anchor="middle" font-family="MiSans">Xxx...Association</text><rect x="743.3542702547958" y="296.16830755292835" width="294" height="60" rx="8" ry="8" fill="rgba(0, 0, 0, 0)" stroke="rgba(204, 204, 204, 1)" stroke-width="2"></rect><text x="890.3542702547958" y="340.16830755292835" fill="rgba(255, 255, 255, 1)" font-size="32" text-anchor="middle" font-family="MiSans">一切独立存在，独立移动的东西</text><rect x="743.3542702547959" y="375.0081788498984" width="397" height="60" rx="8" ry="8" fill="rgba(0, 0, 0, 0)" stroke="rgba(204, 204, 204, 1)" stroke-width="2"></rect><text x="941.8542702547959" y="419.0081788498984" fill="rgba(255, 255, 255, 1)" font-size="32" text-anchor="middle" font-family="MiSans">一切能放入Section里附带移动的东西</text><rect x="411.8484811226747" y="964.9189300974014" width="161" height="60" rx="8" ry="8" fill="rgba(168, 85, 247, 1)" stroke="rgba(204, 204, 204, 1)" stroke-width="2"></rect><text x="492.3484811226747" y="1008.9189300974014" fill="rgba(255, 255, 255, 1)" font-size="32" text-anchor="middle" font-family="MiSans">独立线存在的线</text><rect x="-1205.2084305440317" y="1297.946343387351" width="434" height="60" rx="8" ry="8" fill="rgba(168, 85, 247, 1)" stroke="rgba(204, 204, 204, 1)" stroke-width="2"></rect><text x="-988.2084305440317" y="1341.946343387351" fill="rgba(255, 255, 255, 1)" font-size="32" text-anchor="middle" font-family="MiSans">AssociationOfAssociation</text><rect x="-2654.6206104962534" y="-708.0374416092338" width="66" height="60" rx="8" ry="8" fill="rgba(22, 163, 74, 1)" stroke="rgba(204, 204, 204, 1)" stroke-width="2"></rect><text x="-2621.6206104962534" y="-664.0374416092338" fill="rgba(255, 255, 255, 1)" font-size="32" text-anchor="middle" font-family="MiSans">接口</text><rect x="-2655.22775012036" y="-626.5899698378751" width="85" height="60" rx="8" ry="8" fill="rgba(168, 85, 247, 1)" stroke="rgba(204, 204, 204, 1)" stroke-width="2"></rect><text x="-2612.72775012036" y="-582.5899698378751" fill="rgba(255, 255, 255, 1)" font-size="32" text-anchor="middle" font-family="MiSans">抽象类</text><rect x="-2652.760159233819" y="-540.2238094691946" width="47" height="60" rx="8" ry="8" fill="rgba(59, 130, 246, 1)" stroke="rgba(204, 204, 204, 1)" stroke-width="2"></rect><text x="-2629.260159233819" y="-496.22380946919463" fill="rgba(255, 255, 255, 1)" font-size="32" text-anchor="middle" font-family="MiSans">类</text><rect x="440.16543433278173" y="1215.686473094965" width="104" height="60" rx="8" ry="8" fill="rgba(59, 130, 246, 1)" stroke="rgba(204, 204, 204, 1)" stroke-width="2"></rect><text x="492.16543433278173" y="1259.686473094965" fill="rgba(255, 255, 255, 1)" font-size="32" text-anchor="middle" font-family="MiSans">双箭头线</text><rect x="934.2540103802776" y="61.11716828178044" width="622" height="60" rx="8" ry="8" fill="rgba(0, 0, 0, 0)" stroke="rgba(204, 204, 204, 1)" stroke-width="2"></rect><text x="1245.2540103802776" y="105.11716828178044" fill="rgba(255, 255, 255, 1)" font-size="32" text-anchor="middle" font-family="MiSans">由于有“关系的关系”，所以关系也有uuid，所以一切都有uuid</text><rect x="-1587.296230087541" y="1693.5487036720613" width="161" height="60" rx="8" ry="8" fill="rgba(59, 130, 246, 1)" stroke="rgba(204, 204, 204, 1)" stroke-width="2"></rect><text x="-1506.796230087541" y="1737.5487036720613" fill="rgba(255, 255, 255, 1)" font-size="32" text-anchor="middle" font-family="MiSans">树形图分析结果</text><rect x="-791.9598017772979" y="-36.38624465713578" width="85" height="60" rx="8" ry="8" fill="rgba(0, 0, 0, 0)" stroke="rgba(204, 204, 204, 1)" stroke-width="2"></rect><text x="-749.4598017772979" y="7.6137553428642235" fill="rgba(255, 255, 255, 1)" font-size="32" text-anchor="middle" font-family="MiSans">碰撞箱</text><rect x="-2841.6975301790953" y="97.7725319676679" width="180" height="60" rx="8" ry="8" fill="rgba(168, 85, 247, 1)" stroke="rgba(204, 204, 204, 1)" stroke-width="2"></rect><text x="-2751.6975301790953" y="141.7725319676679" fill="rgba(255, 255, 255, 1)" font-size="32" text-anchor="middle" font-family="MiSans">可参与碰撞的图形</text><rect x="-3147.372737649249" y="225.78548521563744" width="123" height="60" rx="8" ry="8" fill="rgba(0, 0, 0, 0)" stroke="rgba(204, 204, 204, 1)" stroke-width="2"></rect><text x="-3085.872737649249" y="269.78548521563744" fill="rgba(255, 255, 255, 1)" font-size="32" text-anchor="middle" font-family="MiSans">碰撞管理器</text><rect x="-2680.3199164228727" y="-463.0949832889979" width="260" height="60" rx="8" ry="8" fill="rgba(239, 68, 68, 1)" stroke="rgba(204, 204, 204, 1)" stroke-width="2"></rect><text x="-2550.3199164228727" y="-419.0949832889979" fill="rgba(255, 255, 255, 1)" font-size="32" text-anchor="middle" font-family="MiSans">NameSpace单例</text><rect x="-1239.248959646432" y="1696.150459873733" width="104" height="60" rx="8" ry="8" fill="rgba(0, 0, 0, 0)" stroke="rgba(204, 204, 204, 1)" stroke-width="2"></rect><text x="-1187.248959646432" y="1740.150459873733" fill="rgba(255, 255, 255, 1)" font-size="32" text-anchor="middle" font-family="MiSans">双向关系</text><rect x="-1062.7574212561676" y="1698.3592242898776" width="104" height="60" rx="8" ry="8" fill="rgba(0, 0, 0, 0)" stroke="rgba(204, 204, 204, 1)" stroke-width="2"></rect><text x="-1010.7574212561676" y="1742.3592242898776" fill="rgba(255, 255, 255, 1)" font-size="32" text-anchor="middle" font-family="MiSans">单向关系</text><rect x="634.5627708461692" y="1217.140607363221" width="123" height="60" rx="8" ry="8" fill="rgba(59, 130, 246, 1)" stroke="rgba(204, 204, 204, 1)" stroke-width="2"></rect><text x="696.0627708461692" y="1261.140607363221" fill="rgba(255, 255, 255, 1)" font-size="32" text-anchor="middle" font-family="MiSans">烟雾弹遮罩</text><rect x="842.6610585652695" y="1214.606005539802" width="66" height="60" rx="8" ry="8" fill="rgba(59, 130, 246, 1)" stroke="rgba(204, 204, 204, 1)" stroke-width="2"></rect><text x="875.6610585652695" y="1258.606005539802" fill="rgba(255, 255, 255, 1)" font-size="32" text-anchor="middle" font-family="MiSans">烟花</text><rect x="-1908.9121886282269" y="1295.1460886791904" width="308" height="60" rx="8" ry="8" fill="rgba(168, 85, 247, 1)" stroke="rgba(204, 204, 204, 1)" stroke-width="2"></rect><text x="-1754.9121886282269" y="1339.1460886791904" fill="rgba(255, 255, 255, 1)" font-size="32" text-anchor="middle" font-family="MiSans">AssociationEffect</text><rect x="-2132.6984127477886" y="1699.383546754885" width="123" height="60" rx="8" ry="8" fill="rgba(0, 0, 0, 0)" stroke="rgba(204, 204, 204, 1)" stroke-width="2"></rect><text x="-2071.1984127477886" y="1743.383546754885" fill="rgba(255, 255, 255, 1)" font-size="32" text-anchor="middle" font-family="MiSans">引力波特效</text><rect x="-2678.6473107156407" y="-396.93286242539597" width="66" height="60" rx="8" ry="8" fill="rgba(234, 179, 8, 1)" stroke="rgba(204, 204, 204, 1)" stroke-width="2"></rect><text x="-2645.6473107156407" y="-352.93286242539597" fill="rgba(0, 0, 0, 1)" font-size="32" text-anchor="middle" font-family="MiSans">对象</text><rect x="-3120.7324512687046" y="618.7573869047203" width="66" height="60" rx="8" ry="8" fill="rgba(59, 130, 246, 1)" stroke="rgba(204, 204, 204, 1)" stroke-width="2"></rect><text x="-3087.7324512687046" y="662.7573869047203" fill="rgba(255, 255, 255, 1)" font-size="32" text-anchor="middle" font-family="MiSans">矩形</text><rect x="-2997.0285498931344" y="618.7573869047203" width="66" height="60" rx="8" ry="8" fill="rgba(59, 130, 246, 1)" stroke="rgba(204, 204, 204, 1)" stroke-width="2"></rect><text x="-2964.0285498931344" y="662.7573869047203" fill="rgba(255, 255, 255, 1)" font-size="32" text-anchor="middle" font-family="MiSans">圆形</text><rect x="-2873.324648517565" y="618.7573869047203" width="85" height="60" rx="8" ry="8" fill="rgba(59, 130, 246, 1)" stroke="rgba(204, 204, 204, 1)" stroke-width="2"></rect><text x="-2830.824648517565" y="662.7573869047203" fill="rgba(255, 255, 255, 1)" font-size="32" text-anchor="middle" font-family="MiSans">线段形</text><rect x="-2717.620747141995" y="618.7573869047203" width="47" height="60" rx="8" ry="8" fill="rgba(59, 130, 246, 1)" stroke="rgba(204, 204, 204, 1)" stroke-width="2"></rect><text x="-2694.120747141995" y="662.7573869047203" fill="rgba(255, 255, 255, 1)" font-size="32" text-anchor="middle" font-family="MiSans">点</text><rect x="-2625.9168457664255" y="618.7573869047203" width="142" height="60" rx="8" ry="8" fill="rgba(59, 130, 246, 1)" stroke="rgba(204, 204, 204, 1)" stroke-width="2"></rect><text x="-2554.9168457664255" y="662.7573869047203" fill="rgba(255, 255, 255, 1)" font-size="32" text-anchor="middle" font-family="MiSans">贝塞尔线段形</text><rect x="-527.3558681921764" y="-674.2413538478495" width="203" height="60" rx="8" ry="8" fill="rgba(22, 163, 74, 1)" stroke="rgba(204, 204, 204, 1)" stroke-width="2"></rect><text x="-425.85586819217644" y="-630.2413538478495" fill="rgba(255, 255, 255, 1)" font-size="32" text-anchor="middle" font-family="MiSans">Disposable</text><rect x="-551.5480563105855" y="11.794651927506038" width="66" height="60" rx="8" ry="8" fill="rgba(0, 0, 0, 0)" stroke="rgba(204, 204, 204, 1)" stroke-width="2"></rect><text x="-518.5480563105855" y="55.79465192750604" fill="rgba(255, 255, 255, 1)" font-size="32" text-anchor="middle" font-family="MiSans">字段</text><rect x="-863.6591237056975" y="56.55092223991811" width="123" height="60" rx="8" ry="8" fill="rgba(0, 0, 0, 0)" stroke="rgba(204, 204, 204, 1)" stroke-width="2"></rect><text x="-802.1591237056975" y="100.55092223991811" fill="rgba(255, 255, 255, 1)" font-size="32" text-anchor="middle" font-family="MiSans">渲染函数？</text><rect x="-780.3119426582772" y="-292.55424275575973" width="188" height="60" rx="8" ry="8" fill="rgba(0, 0, 0, 0)" stroke="rgba(204, 204, 204, 1)" stroke-width="2"></rect><text x="-686.3119426582772" y="-248.55424275575973" fill="rgba(255, 255, 255, 1)" font-size="32" text-anchor="middle" font-family="MiSans">Extension</text><rect x="-995.3364616516917" y="-289.08416762719185" width="66" height="60" rx="8" ry="8" fill="rgba(0, 0, 0, 0)" stroke="rgba(204, 204, 204, 1)" stroke-width="2"></rect><text x="-962.3364616516917" y="-245.08416762719185" fill="rgba(255, 255, 255, 1)" font-size="32" text-anchor="middle" font-family="MiSans">字段</text><rect x="-1255.0501472538772" y="-287.1309224765228" width="177" height="60" rx="8" ry="8" fill="rgba(0, 0, 0, 0)" stroke="rgba(204, 204, 204, 1)" stroke-width="2"></rect><text x="-1166.5501472538772" y="-243.1309224765228" fill="rgba(255, 255, 255, 1)" font-size="32" text-anchor="middle" font-family="MiSans">init(core)</text><rect x="-1805.7593190654652" y="102.05154638097056" width="104" height="60" rx="8" ry="8" fill="rgba(59, 130, 246, 1)" stroke="rgba(204, 204, 204, 1)" stroke-width="2"></rect><text x="-1753.7593190654652" y="146.05154638097056" fill="rgba(255, 255, 255, 1)" font-size="32" text-anchor="middle" font-family="MiSans">碰撞箱类</text><rect x="-1985.146987110097" y="102.67783673206466" width="66" height="60" rx="8" ry="8" fill="rgba(0, 0, 0, 0)" stroke="rgba(204, 204, 204, 1)" stroke-width="2"></rect><text x="-1952.146987110097" y="146.67783673206466" fill="rgba(255, 255, 255, 1)" font-size="32" text-anchor="middle" font-family="MiSans">字段</text><rect x="-2233.7548057969593" y="97.46573878688122" width="104" height="60" rx="8" ry="8" fill="rgba(0, 0, 0, 0)" stroke="rgba(204, 204, 204, 1)" stroke-width="2"></rect><text x="-2181.7548057969593" y="141.46573878688122" fill="rgba(255, 255, 255, 1)" font-size="32" text-anchor="middle" font-family="MiSans">图形数组</text><rect x="-2372.4005767073004" y="-207.38519006037694" width="142" height="60" rx="8" ry="8" fill="rgba(0, 0, 0, 0)" stroke="rgba(204, 204, 204, 1)" stroke-width="2"></rect><text x="-2301.4005767073004" y="-163.38519006037694" fill="rgba(255, 255, 255, 1)" font-size="32" text-anchor="middle" font-family="MiSans">鼠标是否在内</text><rect x="-2372.805817110085" y="-128.6787678026589" width="142" height="60" rx="8" ry="8" fill="rgba(0, 0, 0, 0)" stroke="rgba(204, 204, 204, 1)" stroke-width="2"></rect><text x="-2301.805817110085" y="-84.67876780265891" fill="rgba(255, 255, 255, 1)" font-size="32" text-anchor="middle" font-family="MiSans">鼠标是否框选</text><rect x="-2375.780825412723" y="-48.35329139455479" width="142" height="60" rx="8" ry="8" fill="rgba(0, 0, 0, 0)" stroke="rgba(204, 204, 204, 1)" stroke-width="2"></rect><text x="-2304.780825412723" y="-4.3532913945547875" fill="rgba(255, 255, 255, 1)" font-size="32" text-anchor="middle" font-family="MiSans">划线是否切中</text><rect x="-2232.816384042203" y="-349.96428012145435" width="142" height="60" rx="8" ry="8" fill="rgba(0, 0, 0, 0)" stroke="rgba(204, 204, 204, 1)" stroke-width="2"></rect><text x="-2161.816384042203" y="-305.96428012145435" fill="rgba(255, 255, 255, 1)" font-size="32" text-anchor="middle" font-family="MiSans">更新形状数组</text><rect x="2.5866716450656497" y="965.2854702738496" width="203.0625" height="60" rx="8" ry="8" fill="rgba(59, 130, 246, 1)" stroke="rgba(204, 204, 204, 1)" stroke-width="2"></rect><text x="104.11792164506565" y="1009.2854702738496" fill="rgba(255, 255, 255, 1)" font-size="32" text-anchor="middle" font-family="MiSans">VeenCircle</text><rect x="-329.95705138515996" y="1296.3410865467374" width="387.0625" height="60" rx="8" ry="8" fill="rgba(59, 130, 246, 1)" stroke="rgba(204, 204, 204, 1)" stroke-width="2"></rect><text x="-136.42580138515996" y="1340.3410865467374" fill="rgba(255, 255, 255, 1)" font-size="32" text-anchor="middle" font-family="MiSans">VeenCircleAssociation</text><rect x="-214.0347870694721" y="-669.2305326092015" width="164" height="60" rx="8" ry="8" fill="rgba(22, 163, 74, 1)" stroke="rgba(204, 204, 204, 1)" stroke-width="2"></rect><text x="-132.0347870694721" y="-625.2305326092015" fill="rgba(255, 255, 255, 1)" font-size="32" text-anchor="middle" font-family="MiSans">Tickable</text><rect x="544.0335697203313" y="-741.4378642138938" width="85" height="60" rx="8" ry="8" fill="rgba(0, 0, 0, 0)" stroke="rgba(204, 204, 204, 1)" stroke-width="2"></rect><text x="586.5335697203313" y="-697.4378642138938" fill="rgba(255, 255, 255, 1)" font-size="32" text-anchor="middle" font-family="MiSans">新设计</text><rect x="806.521172453898" y="-1279.7451284291958" width="495" height="60" rx="8" ry="8" fill="rgba(0, 0, 0, 0)" stroke="rgba(204, 204, 204, 1)" stroke-width="2"></rect><text x="1054.021172453898" y="-1235.7451284291958" fill="rgba(255, 255, 255, 1)" font-size="32" text-anchor="middle" font-family="MiSans">onObjectClick(mouseButton)</text><rect x="1008.5920733866392" y="-1198.6628531594772" width="610" height="60" rx="8" ry="8" fill="rgba(0, 0, 0, 0)" stroke="rgba(204, 204, 204, 1)" stroke-width="2"></rect><text x="1313.5920733866392" y="-1154.6628531594772" fill="rgba(255, 255, 255, 1)" font-size="32" text-anchor="middle" font-family="MiSans">onObjectDoubleClick(mouseButton)</text><rect x="175.33283230599096" y="-1083.6812311097758" width="356" height="60" rx="8" ry="8" fill="rgba(0, 0, 0, 0)" stroke="rgba(204, 204, 204, 1)" stroke-width="2"></rect><text x="353.33283230599096" y="-1039.6812311097758" fill="rgba(255, 255, 255, 1)" font-size="32" text-anchor="middle" font-family="MiSans">onMouseMoveEnter</text><rect x="120.30532763775722" y="-1001.323669054357" width="361" height="60" rx="8" ry="8" fill="rgba(0, 0, 0, 0)" stroke="rgba(204, 204, 204, 1)" stroke-width="2"></rect><text x="300.8053276377572" y="-957.323669054357" fill="rgba(255, 255, 255, 1)" font-size="32" text-anchor="middle" font-family="MiSans">onMouseMoveLeave</text><rect x="1193.125391019983" y="-853.465899356346" width="395" height="60" rx="8" ry="8" fill="rgba(0, 0, 0, 0)" stroke="rgba(204, 204, 204, 1)" stroke-width="2"></rect><text x="1390.625391019983" y="-809.465899356346" fill="rgba(255, 255, 255, 1)" font-size="32" text-anchor="middle" font-family="MiSans">onRectangleSelectAdd</text><rect x="1195.0586272964647" y="-773.9358043133652" width="461" height="60" rx="8" ry="8" fill="rgba(0, 0, 0, 0)" stroke="rgba(204, 204, 204, 1)" stroke-width="2"></rect><text x="1425.5586272964647" y="-729.9358043133652" fill="rgba(255, 255, 255, 1)" font-size="32" text-anchor="middle" font-family="MiSans">onRectangleSelectRemove</text><rect x="1145.4052701490423" y="-1017.9999438753243" width="477" height="60" rx="8" ry="8" fill="rgba(0, 0, 0, 0)" stroke="rgba(204, 204, 204, 1)" stroke-width="2"></rect><text x="1383.9052701490423" y="-973.9999438753243" fill="rgba(255, 255, 255, 1)" font-size="32" text-anchor="middle" font-family="MiSans">onDragMove(mouseButton)</text><rect x="1197.901813970825" y="-696.4089179760803" width="533" height="60" rx="8" ry="8" fill="rgba(0, 0, 0, 0)" stroke="rgba(204, 204, 204, 1)" stroke-width="2"></rect><text x="1464.401813970825" y="-652.4089179760803" fill="rgba(255, 255, 255, 1)" font-size="32" text-anchor="middle" font-family="MiSans">_rectangleSelectLevel: number</text><rect x="876.7098625800674" y="-761.8942473585821" width="104" height="60" rx="8" ry="8" fill="rgba(0, 0, 0, 0)" stroke="rgba(204, 204, 204, 1)" stroke-width="2"></rect><text x="928.7098625800674" y="-717.8942473585821" fill="rgba(255, 255, 255, 1)" font-size="32" text-anchor="middle" font-family="MiSans">框选相关</text><rect x="1181.1495806056291" y="-527.3056968032938" width="303" height="60" rx="8" ry="8" fill="rgba(0, 0, 0, 0)" stroke="rgba(204, 204, 204, 1)" stroke-width="2"></rect><text x="1332.6495806056291" y="-483.3056968032938" fill="rgba(255, 255, 255, 1)" font-size="32" text-anchor="middle" font-family="MiSans">onLineSelectAdd</text><rect x="1190.0147899276153" y="-439.3787121179246" width="369" height="60" rx="8" ry="8" fill="rgba(0, 0, 0, 0)" stroke="rgba(204, 204, 204, 1)" stroke-width="2"></rect><text x="1374.5147899276153" y="-395.3787121179246" fill="rgba(255, 255, 255, 1)" font-size="32" text-anchor="middle" font-family="MiSans">onLineSelectRemove</text><rect x="908.2541330432604" y="-511.5572008001052" width="123" height="60" rx="8" ry="8" fill="rgba(0, 0, 0, 0)" stroke="rgba(204, 204, 204, 1)" stroke-width="2"></rect><text x="969.7541330432604" y="-467.5572008001052" fill="rgba(255, 255, 255, 1)" font-size="32" text-anchor="middle" font-family="MiSans">删除线相关</text><rect x="1181.5838665200995" y="-353.67589115692687" width="174" height="60" rx="8" ry="8" fill="rgba(0, 0, 0, 0)" stroke="rgba(204, 204, 204, 1)" stroke-width="2"></rect><text x="1268.5838665200995" y="-309.67589115692687" fill="rgba(255, 255, 255, 1)" font-size="32" text-anchor="middle" font-family="MiSans">onDelete</text><rect x="15.113455700027373" y="-887.5619715321643" width="353" height="60" rx="8" ry="8" fill="rgba(0, 0, 0, 0)" stroke="rgba(204, 204, 204, 1)" stroke-width="2"></rect><text x="191.61345570002737" y="-843.5619715321643" fill="rgba(255, 255, 255, 1)" font-size="32" text-anchor="middle" font-family="MiSans">onControlWheel(dy)</text><line x1="486.7774950061828" y1="44.67930394665599" x2="-69.88502699377875" y2="42.30050434339052" stroke="rgba(204, 204, 204, 1)" stroke-width="2"></line><polygon points="-69.88502699377875,42.30050434339052 -55.41286200569601,46.24466972502859 -62.385095472724984,42.33255398463941 -55.379681775520346,38.48016926657486" fill="rgba(204, 204, 204, 1)" stroke="rgba(204, 204, 204, 1)"></polygon><line x1="1111.0153291439347" y1="1826.1048783232154" x2="1314.8259415225752" y2="1021.6085342433213" stroke="rgba(204, 204, 204, 1)" stroke-width="2"></line><polygon points="1314.8259415225752,1021.6085342433213 1307.5043494139284,1034.7002984099493 1312.9840830190842,1028.878854542532 1315.0311388436535,1036.6071306462993" fill="rgba(204, 204, 204, 1)" stroke="rgba(204, 204, 204, 1)"></polygon><line x1="1305.8221694612591" y1="1829.8756122612367" x2="1321.8318989632287" y2="1021.6085342433213" stroke="rgba(204, 204, 204, 1)" stroke-width="2"></line><polygon points="1321.8318989632287,1021.6085342433213 1317.6634426573623,1036.0176970235138 1321.6833720381799,1029.1070634159348 1325.4264912978792,1036.1714634111663" fill="rgba(204, 204, 204, 1)" stroke="rgba(204, 204, 204, 1)"></polygon><line x1="1532.7326971489802" y1="1833.7399733055836" x2="1329.9180620153938" y2="1021.6085342433213" stroke="rgba(204, 204, 204, 1)" stroke-width="2"></line><polygon points="1329.9180620153938,1021.6085342433213 1329.6619698509662,1036.60634797744 1331.7352389122734,1028.8850628198782 1337.1951865623487,1034.725068020509" fill="rgba(204, 204, 204, 1)" stroke="rgba(204, 204, 204, 1)"></polygon><line x1="1822.349394834845" y1="1828.1464200564637" x2="1340.3544183805452" y2="1021.6085342433213" stroke="rgba(204, 204, 204, 1)" stroke-width="2"></line><polygon points="1340.3544183805452,1021.6085342433213 1344.4544784081695,1036.0373078492062 1344.2018160188918,1028.046509966516 1351.1195613244513,1032.0541887176598" fill="rgba(204, 204, 204, 1)" stroke="rgba(204, 204, 204, 1)"></polygon><line x1="2089.488417785225" y1="1826.0600191920284" x2="1350.003363159612" y2="1021.6085342433213" stroke="rgba(204, 204, 204, 1)" stroke-width="2"></line><polygon points="1350.003363159612,1021.6085342433213 1356.950600629663,1034.902739429594 1355.0790179523087,1027.1301036239752 1362.6669498879357,1029.6480349227306" fill="rgba(204, 204, 204, 1)" stroke="rgba(204, 204, 204, 1)"></polygon><line x1="1552.283140166173" y1="989.7639506856112" x2="1486.9261231969274" y2="990.2884353433869" stroke="rgba(204, 204, 204, 1)" stroke-width="2"></line><polygon points="1486.9261231969274,990.2884353433869 1501.44569809516,994.0543276379984 1494.4258817112232,990.2282504013535 1501.3833900582533,986.2900062893203" fill="rgba(204, 204, 204, 1)" stroke="rgba(204, 204, 204, 1)"></polygon><line x1="920.1713932465622" y1="1630.8203708631113" x2="1303.5471832162073" y2="1021.6085342433213" stroke="rgba(204, 204, 204, 1)" stroke-width="2"></line><polygon points="1303.5471832162073,1021.6085342433213 1292.5444153265194,1031.803586904571 1299.5525912808278,1027.9562295156072 1299.1160330424186,1035.9390927857276" fill="rgba(204, 204, 204, 1)" stroke="rgba(204, 204, 204, 1)"></polygon><line x1="826.2924532658419" y1="1660.5771596479979" x2="819.8091889401932" y2="1660.556135613404" stroke="rgba(204, 204, 204, 1)" stroke-width="2"></line><polygon points="819.8091889401932,1660.556135613404 834.2854106809002,1664.485385429066 827.3091495060407,1660.5804566070376 834.3105896262931,1656.720854901229" fill="rgba(204, 204, 204, 1)" stroke="rgba(204, 204, 204, 1)"></polygon><line x1="401.1837241103164" y1="350.1402281712296" x2="-126.506483342958" y2="71.81548201064822" stroke="rgba(204, 204, 204, 1)" stroke-width="2"></line><polygon points="-126.506483342958,71.81548201064822 -115.50212615531507,82.00881919170779 -119.87267204052606,75.31441722064083 -111.87976187561156,75.14099236496479" fill="rgba(204, 204, 204, 1)" stroke="rgba(204, 204, 204, 1)"></polygon><line x1="1280.0185030380887" y1="961.6085342433213" x2="500.4698879199757" y2="410.1402281712296" stroke="rgba(204, 204, 204, 1)" stroke-width="2"></line><polygon points="500.4698879199757,410.1402281712296 510.0561675006698,421.67726608400284 506.59270800043345,414.471633747061 514.5403685210234,415.33845629776835" fill="rgba(204, 204, 204, 1)" stroke="rgba(204, 204, 204, 1)"></polygon><line x1="966.8508566414063" y1="970.0294960171906" x2="483.93773032404295" y2="410.1402281712296" stroke="rgba(204, 204, 204, 1)" stroke-width="2"></line><polygon points="483.93773032404295,410.1402281712296 490.4610760231212,423.64748403207403 488.8362318982483,415.81954875801705 496.34074134753496,418.57618203259796" fill="rgba(204, 204, 204, 1)" stroke="rgba(204, 204, 204, 1)"></polygon><line x1="788.8731917206479" y1="964.8770977540513" x2="475.03456459247224" y2="410.1402281712296" stroke="rgba(204, 204, 204, 1)" stroke-width="2"></line><polygon points="475.03456459247224,410.1402281712296 478.7899395677512,424.6625268458557 478.7275951683132,416.66797856213026 485.54796405911327,420.8392202571614" fill="rgba(204, 204, 204, 1)" stroke="rgba(204, 204, 204, 1)"></polygon><line x1="616.4678964984761" y1="-90.90326974498413" x2="806.3022109650144" y2="-92.39903462174394" stroke="rgba(204, 204, 204, 1)" stroke-width="2"></line><polygon points="806.3022109650144,-92.39903462174394 791.7831844984419,-96.16704078720674 798.8024437678532,-92.33994157321415 791.8443621240126,-88.40271044936485" fill="rgba(204, 204, 204, 1)" stroke="rgba(204, 204, 204, 1)"></polygon><line x1="963.3022109650144" y1="-109.02390257371975" x2="1212.8714470221444" y2="-159.91167866378692" stroke="rgba(204, 204, 204, 1)" stroke-width="2"></line><polygon points="1212.8714470221444,-159.91167866378692 1197.8990306572405,-160.82093561094706 1205.522658690329,-158.4132427945634 1199.4503256205196,-153.21291009614316" fill="rgba(204, 204, 204, 1)" stroke="rgba(204, 204, 204, 1)"></polygon><line x1="963.3022109650144" y1="-93.28675286682042" x2="1188.1953665153926" y2="-94.05795534278269" stroke="rgba(204, 204, 204, 1)" stroke-width="2"></line><polygon points="1188.1953665153926,-94.05795534278269 1173.6932512742517,-97.89053326536522 1180.6954106126716,-94.03223653178718 1173.7198773466637,-90.12600756515208" fill="rgba(204, 204, 204, 1)" stroke="rgba(204, 204, 204, 1)"></polygon><line x1="963.3022109650144" y1="-76.00385340749511" x2="1188.1953665153928" y2="-27.261606246927492" stroke="rgba(204, 204, 204, 1)" stroke-width="2"></line><polygon points="1188.1953665153928,-27.261606246927492 1174.8575773464836,-34.12479647347134 1180.8655468330733,-28.850235663966284 1173.2129071515246,-26.536408749664915" fill="rgba(204, 204, 204, 1)" stroke="rgba(204, 204, 204, 1)"></polygon><line x1="-918.106320806239" y1="348.4542196877194" x2="-255.26648261595258" y2="71.81548201064822" stroke="rgba(204, 204, 204, 1)" stroke-width="2"></line><polygon points="-255.26648261595258,71.81548201064822 -270.1328601819015,73.81318520848613 -262.1878698160785,74.70414938955038 -267.1422916513964,80.9787325121717" fill="rgba(204, 204, 204, 1)" stroke="rgba(204, 204, 204, 1)"></polygon><line x1="-1649.094350227701" y1="336.8476146274125" x2="-1095.9877764284129" y2="371.76288885942824" stroke="rgba(204, 204, 204, 1)" stroke-width="2"></line><polygon points="-1095.9877764284129,371.76288885942824 -1110.203296297503,366.9755101558464 -1103.4728777085552,371.2903861334971 -1110.692467114838,374.7246572191347" fill="rgba(204, 204, 204, 1)" stroke="rgba(204, 204, 204, 1)"></polygon><line x1="-1755.5177982294372" y1="407.9916350686423" x2="-1095.9877764284129" y2="382.54415207601653" stroke="rgba(204, 204, 204, 1)" stroke-width="2"></line><polygon points="-1095.9877764284129,382.54415207601653 -1110.6155744866785,379.2233804839619 -1103.4821998577524,382.8333189167266 -1110.316206944327,386.9821785462644" fill="rgba(204, 204, 204, 1)" stroke="rgba(204, 204, 204, 1)"></polygon><line x1="-1733.7814854489272" y1="1695.0830238460003" x2="-1404.14393712047" y2="1356.1853628152935" stroke="rgba(204, 204, 204, 1)" stroke-width="2"></line><polygon points="-1404.14393712047,1356.1853628152935 -1417.0291970575665,1363.8645604526416 -1409.3732784964886,1361.5616058132482 -1411.4633007416874,1369.2783730184667" fill="rgba(204, 204, 204, 1)" stroke="rgba(204, 204, 204, 1)"></polygon><line x1="-575.8010317034363" y1="1297.6584553515313" x2="-976.4699945692203" y2="408.4542196877194" stroke="rgba(204, 204, 204, 1)" stroke-width="2"></line><polygon points="-976.4699945692203,408.4542196877194 -974.0573106573484,423.2589134144195 -973.3888893719558,415.29211342507665 -966.9782021468872,420.0691185943539" fill="rgba(204, 204, 204, 1)" stroke="rgba(204, 204, 204, 1)"></polygon><line x1="-2153.3522506212043" y1="1301.781980167277" x2="-1027.7868502997073" y2="408.4542196877194" stroke="rgba(204, 204, 204, 1)" stroke-width="2"></line><polygon points="-1027.7868502997073,408.4542196877194 -1041.5492172365143,414.42056331649945 -1033.6614614468945,413.11672372196375 -1036.722237868795,420.5024083063538" fill="rgba(204, 204, 204, 1)" stroke="rgba(204, 204, 204, 1)"></polygon><line x1="-577.631795433783" y1="1761.7426582045198" x2="-563.3440034138503" y2="1357.6584553515313" stroke="rgba(204, 204, 204, 1)" stroke-width="2"></line><polygon points="-563.3440034138503,1357.6584553515313 -567.7358491949957,1372.0011081966168 -563.6090261895928,1365.1537714174713 -559.976127007283,1372.275479963609" fill="rgba(204, 204, 204, 1)" stroke="rgba(204, 204, 204, 1)"></polygon><line x1="-769.4481220172304" y1="1761.1241608819516" x2="-576.621053471833" y2="1357.6584553515313" stroke="rgba(204, 204, 204, 1)" stroke-width="2"></line><polygon points="-576.621053471833,1357.6584553515313 -586.3716071483601,1369.0569948632917 -579.855129724222,1364.425341695614 -579.366010900789,1372.40515697302" fill="rgba(204, 204, 204, 1)" stroke="rgba(204, 204, 204, 1)"></polygon><line x1="743.3542702547958" y1="344.52134736195575" x2="521.0622677611372" y2="372.2746396816464" stroke="rgba(204, 204, 204, 1)" stroke-width="2"></line><polygon points="521.0622677611372,372.2746396816464 535.9205059898022,374.33200613909514 528.5044885912201,371.34547386421724 534.9585627513666,366.62725218435844" fill="rgba(204, 204, 204, 1)" stroke="rgba(204, 204, 204, 1)"></polygon><line x1="743.3542702547959" y1="394.80485141936595" x2="521.0622677611372" y2="383.3785638292827" stroke="rgba(204, 204, 204, 1)" stroke-width="2"></line><polygon points="521.0622677611372,383.3785638292827 535.3327571379994,387.99950885653243 528.5523791722967,383.76357168429143 535.7313465995607,380.24517492394125" fill="rgba(204, 204, 204, 1)" stroke="rgba(204, 204, 204, 1)"></polygon><line x1="490.6753808711152" y1="964.9189300974014" x2="459.7353680126967" y2="410.1402281712296" stroke="rgba(204, 204, 204, 1)" stroke-width="2"></line><polygon points="459.7353680126967,410.1402281712296 456.66589747930533,424.8228148181608 460.1529941098756,417.62859170693986 464.4184218780776,424.39045646743386" fill="rgba(204, 204, 204, 1)" stroke="rgba(204, 204, 204, 1)"></polygon><line x1="-988.2646504696098" y1="1297.946343387351" x2="-989.9315565028347" y2="408.4542196877194" stroke="rgba(204, 204, 204, 1)" stroke-width="2"></line><polygon points="-989.9315565028347,408.4542196877194 -993.7866832709988,422.9503570215537 -989.9175015461198,415.95420651825395 -986.0221255519571,422.93580625964995" fill="rgba(204, 204, 204, 1)" stroke="rgba(204, 204, 204, 1)"></polygon><line x1="492.1873327157668" y1="1215.686473094965" x2="492.32658273968957" y2="1024.9189300974012" stroke="rgba(204, 204, 204, 1)" stroke-width="2"></line><polygon points="492.32658273968957,1024.9189300974012 488.43372199341155,1039.404979773213 492.3211081454018,1032.418928099322 496.1982912779235,1039.4106474902767" fill="rgba(204, 204, 204, 1)" stroke="rgba(204, 204, 204, 1)"></polygon><line x1="305.2032942672356" y1="1219.044922404907" x2="467.29848336087935" y2="1024.9189300974012" stroke="rgba(204, 204, 204, 1)" stroke-width="2"></line><polygon points="467.29848336087935,1024.9189300974012 455.0319789135844,1033.5521721677067 462.4914403733011,1030.6758683214553 460.9919999290399,1038.528789270954" fill="rgba(204, 204, 204, 1)" stroke="rgba(204, 204, 204, 1)"></polygon><line x1="497.4678964984761" y1="-79.80590991757975" x2="-69.88502699377875" y2="21.54087128701387" stroke="rgba(204, 204, 204, 1)" stroke-width="2"></line><polygon points="-69.88502699377875,21.54087128701387 -54.93922374081303,22.81482777121544 -62.50189621506976,20.22201575873186 -56.30460345464555,15.171248339165478" fill="rgba(204, 204, 204, 1)" stroke="rgba(204, 204, 204, 1)"></polygon><line x1="943.528525229448" y1="-63.01756106231716" x2="1186.527696115844" y2="61.11716828178044" stroke="rgba(204, 204, 204, 1)" stroke-width="2"></line><polygon points="1186.527696115844,61.11716828178044 1175.391032788378,51.068549972247986 1179.8487138547646,57.70524859395267 1171.8587536060977,57.98314121652496" fill="rgba(204, 204, 204, 1)" stroke="rgba(204, 204, 204, 1)"></polygon><line x1="-1362.7774262753408" y1="1296.1853628152935" x2="-1002.1740137367541" y2="408.4542196877194" stroke="rgba(204, 204, 204, 1)" stroke-width="2"></line><polygon points="-1002.1740137367541,408.4542196877194 -1011.223674133354,420.4168133323355 -1004.9965905528402,415.4028209942625 -1004.0299527135236,423.3389598774072" fill="rgba(204, 204, 204, 1)" stroke="rgba(204, 204, 204, 1)"></polygon><line x1="-1496.8431806024316" y1="1693.5487036720613" x2="-1384.9167130687913" y2="1356.1853628152935" stroke="rgba(204, 204, 204, 1)" stroke-width="2"></line><polygon points="-1384.9167130687913,1356.1853628152935 -1393.1639133265494,1368.71467596121 -1387.2783924984562,1363.3038226396866 -1385.794341429149,1371.1596664205065" fill="rgba(204, 204, 204, 1)" stroke="rgba(204, 204, 204, 1)"></polygon><line x1="-1172.2535951440257" y1="1696.150459873733" x2="-1003.203795046438" y2="1357.946343387351" stroke="rgba(204, 204, 204, 1)" stroke-width="2"></line><polygon points="-1003.203795046438,1357.946343387351 -1013.1544568662451,1369.1706174996414 -1006.5570677127922,1364.6549619057257 -1006.2091839107137,1372.642180817538" fill="rgba(204, 204, 204, 1)" stroke="rgba(204, 204, 204, 1)"></polygon><line x1="-1009.0679907866999" y1="1698.3592242898776" x2="-989.8978610134993" y2="1357.946343387351" stroke="rgba(204, 204, 204, 1)" stroke-width="2"></line><polygon points="-989.8978610134993,1357.946343387351 -994.5886468803541,1372.1940283905826 -990.3195505069637,1365.4344792014972 -986.8363582362927,1372.6305934786956" fill="rgba(204, 204, 204, 1)" stroke="rgba(204, 204, 204, 1)"></polygon><line x1="709.1184899879388" y1="1217.140607363221" x2="792.7897694102134" y2="1024.8770977540512" stroke="rgba(204, 204, 204, 1)" stroke-width="2"></line><polygon points="792.7897694102134,1024.8770977540512 783.448316412339,1036.613249418396 789.7969638408292,1031.7540967233592 790.5679096379682,1039.711629736978" fill="rgba(204, 204, 204, 1)" stroke="rgba(204, 204, 204, 1)"></polygon><line x1="867.2740956022333" y1="1214.606005539802" x2="814.2324515150192" y2="1024.8770977540512" stroke="rgba(204, 204, 204, 1)" stroke-width="2"></line><polygon points="814.2324515150192,1024.8770977540512 814.3945427875251,1039.8762219424623 816.2517650880933,1032.100142312518 821.8723887689466,1037.7856746994798" fill="rgba(204, 204, 204, 1)" stroke="rgba(204, 204, 204, 1)"></polygon><line x1="-1730.6722715890735" y1="1295.1460886791904" x2="-1014.2276934675664" y2="408.4542196877194" stroke="rgba(204, 204, 204, 1)" stroke-width="2"></line><polygon points="-1014.2276934675664,408.4542196877194 -1026.3534183842235,417.28410050489697 -1018.9412982365689,414.287908921955 -1020.3139388761045,422.16398324611265" fill="rgba(204, 204, 204, 1)" stroke="rgba(204, 204, 204, 1)"></polygon><line x1="-2047.7256084986334" y1="1699.383546754885" x2="-1778.384992877382" y2="1355.1460886791904" stroke="rgba(204, 204, 204, 1)" stroke-width="2"></line><polygon points="-1778.384992877382,1355.1460886791904 -1790.3709159390191,1364.164827413654 -1783.0066385223151,1361.052897592019 -1784.2557373693337,1368.9495070641492" fill="rgba(204, 204, 204, 1)" stroke="rgba(204, 204, 204, 1)"></polygon><line x1="-3068.3824691393656" y1="618.7573869047203" x2="-2771.0475123084343" y2="157.7725319676679" stroke="rgba(204, 204, 204, 1)" stroke-width="2"></line><polygon points="-2771.0475123084343,157.7725319676679 -2782.1634478553883,167.844074893951 -2775.112743361073,164.07522159104772 -2775.6384234157854,172.05271177061155" fill="rgba(204, 204, 204, 1)" stroke="rgba(204, 204, 204, 1)"></polygon><line x1="-2951.8018401700833" y1="618.7573869047203" x2="-2763.9242399021464" y2="157.7725319676679" stroke="rgba(204, 204, 204, 1)" stroke-width="2"></line><polygon points="-2763.9242399021464,157.7725319676679 -2772.9877404476674,169.7246429887945 -2766.7548575481746,164.7178616028971 -2765.7974061112186,172.65511401357614" fill="rgba(204, 204, 204, 1)" stroke="rgba(204, 204, 204, 1)"></polygon><line x1="-2826.268252054868" y1="618.7573869047203" x2="-2756.2539266417925" y2="157.7725319676679" stroke="rgba(204, 204, 204, 1)" stroke-width="2"></line><polygon points="-2756.2539266417925,157.7725319676679 -2762.267815597724,171.5141890593626 -2757.380110687978,165.18749720656942 -2754.5912787073207,172.68010057713593" fill="rgba(204, 204, 204, 1)" stroke="rgba(204, 204, 204, 1)"></polygon><line x1="-2697.4362053069385" y1="618.7573869047203" x2="-2748.3820720141516" y2="157.7725319676679" stroke="rgba(204, 204, 204, 1)" stroke-width="2"></line><polygon points="-2748.3820720141516,157.7725319676679 -2750.6493107745355,172.6001962612582 -2747.558223293877,165.22714619552048 -2742.931726230294,171.74728530489654" fill="rgba(204, 204, 204, 1)" stroke="rgba(204, 204, 204, 1)"></polygon><line x1="-2566.248116678501" y1="618.7573869047203" x2="-2740.36625926702" y2="157.7725319676679" stroke="rgba(204, 204, 204, 1)" stroke-width="2"></line><polygon points="-2740.36625926702,157.7725319676679 -2738.878546120775,172.69857329129053 -2737.7161771107158,164.7887321190916 -2731.6148412270163,169.95500635873896" fill="rgba(204, 204, 204, 1)" stroke="rgba(204, 204, 204, 1)"></polygon><line x1="-193.98782964182678" y1="11.815482010648225" x2="-415.25306554412845" y2="-614.2413538478495" stroke="rgba(204, 204, 204, 1)" stroke-width="2"></line><polygon points="-415.25306554412845,-614.2413538478495 -414.0853738616896,-599.2868730432624 -412.7538615465995,-607.1700046570136 -406.7645744810551,-601.8742394118898" fill="rgba(204, 204, 204, 1)" stroke="rgba(204, 204, 204, 1)"></polygon><line x1="-296.88502699377875" y1="41.80842808694591" x2="-485.5480563105855" y2="41.79670284805384" stroke="rgba(204, 204, 204, 1)" stroke-width="2"></line><polygon points="-485.5480563105855,41.79670284805384 -471.0594102248206,45.67988898851259 -478.0480563250699,41.79716896635926 -471.0589276636418,37.915317650432335" fill="rgba(204, 204, 204, 1)" stroke="rgba(204, 204, 204, 1)"></polygon><line x1="-551.5480563105855" y1="34.90903602226234" x2="-706.9598017772979" y2="2.4815940087083916" stroke="rgba(204, 204, 204, 1)" stroke-width="2"></line><polygon points="-706.9598017772979,2.4815940087083916 -693.5693567790512,9.241474388488076 -699.6179205601921,4.013514435463351 -691.9833960509482,1.6405996450182538" fill="rgba(204, 204, 204, 1)" stroke="rgba(204, 204, 204, 1)"></polygon><line x1="-551.5480563105855" y1="47.00233628861025" x2="-740.6591237056975" y2="76.84569229422388" stroke="rgba(204, 204, 204, 1)" stroke-width="2"></line><polygon points="-740.6591237056975,76.84569229422388 -725.7421784620445,78.4219995605458 -733.2508032048765,75.67659548167319 -726.9525165446717,70.75234180920218" fill="rgba(204, 204, 204, 1)" stroke="rgba(204, 204, 204, 1)"></polygon><line x1="-446.3273014863906" y1="-614.2413538478495" x2="-665.840509364063" y2="-292.55424275575973" stroke="rgba(204, 204, 204, 1)" stroke-width="2"></line><polygon points="-665.840509364063,-292.55424275575973 -654.4669769297393,-302.3339544061811 -661.6131028222082,-298.74932418620784 -660.8805971703831,-306.7104877038731" fill="rgba(204, 204, 204, 1)" stroke="rgba(204, 204, 204, 1)"></polygon><line x1="-780.3119426582772" y1="-261.37251055575484" x2="-929.3364616516917" y2="-259.49903105910846" stroke="rgba(204, 204, 204, 1)" stroke-width="2"></line><polygon points="-929.3364616516917,-259.49903105910846 -914.7999163135921,-255.79918651732382 -921.8370542524792,-259.59331075277447 -914.8975218347408,-263.5631443649196" fill="rgba(204, 204, 204, 1)" stroke="rgba(204, 204, 204, 1)"></polygon><line x1="-995.3364616516917" y1="-258.76853212126576" x2="-1078.0501472538772" y2="-257.9773995151428" stroke="rgba(204, 204, 204, 1)" stroke-width="2"></line><polygon points="-1078.0501472538772,-257.9773995151428 -1063.5247913155883,-254.233867110312 -1070.5504902942957,-258.0491315763158 -1063.5990538098924,-261.99808332181345" fill="rgba(204, 204, 204, 1)" stroke="rgba(204, 204, 204, 1)"></polygon><line x1="-1805.7593190654652" y1="132.2157052653301" x2="-1919.146987110097" y2="132.5736589785288" stroke="rgba(204, 204, 204, 1)" stroke-width="2"></line><polygon points="-1919.146987110097,132.5736589785288 -1904.6459159806698,136.41018554552846 -1911.647024482422,132.54998233434233 -1904.670427846428,128.64565288313082" fill="rgba(204, 204, 204, 1)" stroke="rgba(204, 204, 204, 1)"></polygon><line x1="-1985.146987110097" y1="131.9287366658094" x2="-2129.7548057969593" y2="128.64613889128344" stroke="rgba(204, 204, 204, 1)" stroke-width="2"></line><polygon points="-2129.7548057969593,128.64613889128344 -2115.3577551463245,132.85623776934443 -2122.2567373883358,128.81634505921332 -2115.1815447549075,125.09366614681113" fill="rgba(204, 204, 204, 1)" stroke="rgba(204, 204, 204, 1)"></polygon><line x1="-2233.7548057969593" y1="127.49372974933837" x2="-2661.6975301790953" y2="127.72408607110745" stroke="rgba(204, 204, 204, 1)" stroke-width="2"></line><polygon points="-2661.6975301790953,127.72408607110745 -2647.206555097385,131.59857199587776 -2654.1975312656714,127.72004891364564 -2647.2107346703415,123.8340017677085" fill="rgba(204, 204, 204, 1)" stroke="rgba(204, 204, 204, 1)"></polygon><line x1="-1985.146987110097" y1="103.38084397688267" x2="-2267.608712529538" y2="-147.38519006037694" stroke="rgba(204, 204, 204, 1)" stroke-width="2"></line><polygon points="-2267.608712529538,-147.38519006037694 -2259.351124068657,-134.8627209423984 -2262.000076801202,-142.40591247554295 -2254.196196589429,-140.66920791654186" fill="rgba(204, 204, 204, 1)" stroke="rgba(204, 204, 204, 1)"></polygon><line x1="-1985.146987110097" y1="110.84292997553821" x2="-2256.4655731127486" y2="-68.67876780265891" stroke="rgba(204, 204, 204, 1)" stroke-width="2"></line><polygon points="-2256.4655731127486,-68.67876780265891 -2246.5245402601768,-57.44596468749282 -2250.210791238559,-64.54020480249703 -2242.2399845649825,-63.92139137550207" fill="rgba(204, 204, 204, 1)" stroke="rgba(204, 204, 204, 1)"></polygon><line x1="-1985.146987110097" y1="118.54411873106781" x2="-2234.7355620269545" y2="11.646708605445212" stroke="rgba(204, 204, 204, 1)" stroke-width="2"></line><polygon points="-2234.7355620269545,11.646708605445212 -2222.9453102793914,20.919785965689698 -2227.841283182474,14.599490211752178 -2219.8883658164286,13.782303296893595" fill="rgba(204, 204, 204, 1)" stroke="rgba(204, 204, 204, 1)"></polygon><line x1="-1966.043356170245" y1="102.67783673206466" x2="-2147.920014982055" y2="-289.96428012145435" stroke="rgba(204, 204, 204, 1)" stroke-width="2"></line><polygon points="-2147.920014982055,-289.96428012145435 -2145.352903415286,-275.1855813220416 -2144.7676909458405,-283.1589253789957 -2138.307481751178,-278.44910730966865" fill="rgba(204, 204, 204, 1)" stroke="rgba(204, 204, 204, 1)"></polygon><line x1="121.37942292432089" y1="965.2854702738496" x2="440.8007664818819" y2="410.1402281712296" stroke="rgba(204, 204, 204, 1)" stroke-width="2"></line><polygon points="440.8007664818819,410.1402281712296 430.2098361843994,420.76247818871025 437.06036023568134,416.6409482169925 436.9398768032921,424.6348316804588" fill="rgba(204, 204, 204, 1)" stroke="rgba(204, 204, 204, 1)"></polygon><line x1="-163.44048018976267" y1="1296.3410865467374" x2="-962.9730976238102" y2="408.4542196877194" stroke="rgba(204, 204, 204, 1)" stroke-width="2"></line><polygon points="-962.9730976238102,408.4542196877194 -956.1626109320894,421.818996940704 -957.954355687932,414.02756961223133 -950.3926545101518,416.62321295886403" fill="rgba(204, 204, 204, 1)" stroke="rgba(204, 204, 204, 1)"></polygon><line x1="-152.7212961027141" y1="11.815482010648225" x2="555.8698388292665" y2="-681.4378642138938" stroke="rgba(204, 204, 204, 1)" stroke-width="2"></line><polygon points="555.8698388292665,-681.4378642138938 542.7981815307446,-674.0804342638365 550.5088346377867,-676.192901482002 548.2281665142109,-668.5303143213188" fill="rgba(204, 204, 204, 1)" stroke="rgba(204, 204, 204, 1)"></polygon><line x1="612.5867720720605" y1="-741.4378642138938" x2="1027.967970102169" y2="-1219.7451284291958" stroke="rgba(204, 204, 204, 1)" stroke-width="2"></line><polygon points="1027.967970102169,-1219.7451284291958 1015.5364546836416,-1211.351236340366 1023.0502587683981,-1214.0824333784535 1021.3989079866013,-1206.2600469343804" fill="rgba(204, 204, 204, 1)" stroke="rgba(204, 204, 204, 1)"></polygon><line x1="629.0335697203313" y1="-738.1648221302073" x2="1265.8874298581002" y2="-1138.6628531594772" stroke="rgba(204, 204, 204, 1)" stroke-width="2"></line><polygon points="1265.8874298581002,-1138.6628531594772 1251.5555119223384,-1134.2361017227477 1259.5385088107764,-1134.6702097325167 1255.6890005591413,-1127.6632149911493" fill="rgba(204, 204, 204, 1)" stroke="rgba(204, 204, 204, 1)"></polygon><line x1="566.0919109501891" y1="-741.4378642138938" x2="373.77449107613313" y2="-1023.6812311097758" stroke="rgba(204, 204, 204, 1)" stroke-width="2"></line><polygon points="373.77449107613313,-1023.6812311097758 378.7248115756516,-1009.5216291749739 377.9976996114783,-1017.4832871226953 385.141395352992,-1013.8938163765213" fill="rgba(204, 204, 204, 1)" stroke="rgba(204, 204, 204, 1)"></polygon><line x1="553.5504398116423" y1="-741.4378642138938" x2="333.7884575464463" y2="-941.323669054357" stroke="rgba(204, 204, 204, 1)" stroke-width="2"></line><polygon points="333.7884575464463,-941.323669054357 341.89464593399816,-928.7026663277303 339.3367238415677,-936.2772107796438 347.119123981242,-934.4466542656415" fill="rgba(204, 204, 204, 1)" stroke="rgba(204, 204, 204, 1)"></polygon><line x1="629.0335697203313" y1="-726.1786537092963" x2="1297.410581353869" y2="-957.9999438753243" stroke="rgba(204, 204, 204, 1)" stroke-width="2"></line><polygon points="1297.410581353869,-957.9999438753243 1282.4495086808217,-956.919988102249 1290.3246946728973,-955.5422600176189 1284.9938902376825,-949.5841384043538" fill="rgba(204, 204, 204, 1)" stroke="rgba(204, 204, 204, 1)"></polygon><line x1="980.7098625800674" y1="-742.2028982064245" x2="1239.296179949991" y2="-793.465899356346" stroke="rgba(204, 204, 204, 1)" stroke-width="2"></line><polygon points="1239.296179949991,-793.465899356346 1224.3289307010155,-794.4565808990442 1231.9393500255046,-792.0074572209904 1225.8388211042557,-786.8402301148952" fill="rgba(204, 204, 204, 1)" stroke="rgba(204, 204, 204, 1)"></polygon><line x1="980.7098625800674" y1="-733.1545120630866" x2="1195.0586272964647" y2="-738.3494386520522" stroke="rgba(204, 204, 204, 1)" stroke-width="2"></line><polygon points="1195.0586272964647,-738.3494386520522 1180.4799303374862,-741.8795370895281 1187.5608289899524,-738.1677230642216 1180.6680561571764,-734.1172450972769" fill="rgba(204, 204, 204, 1)" stroke="rgba(204, 204, 204, 1)"></polygon><line x1="980.7098625800674" y1="-725.5375397040253" x2="1218.9917550574319" y2="-696.4089179760803" stroke="rgba(204, 204, 204, 1)" stroke-width="2"></line><polygon points="1218.9917550574319,-696.4089179760803 1205.0810087535026,-702.0206144457512 1211.5471735376289,-697.3189762132323 1204.1388471377932,-694.3134165251781" fill="rgba(204, 204, 204, 1)" stroke="rgba(204, 204, 204, 1)"></polygon><line x1="629.0335697203313" y1="-713.9786488965008" x2="876.7098625800674" y2="-728.7855225704512" stroke="rgba(204, 204, 204, 1)" stroke-width="2"></line><polygon points="876.7098625800674,-728.7855225704512 862.0151161360675,-731.7962412465404 869.223229363144,-728.337947911584 862.4784795193478,-724.0455082055928" fill="rgba(204, 204, 204, 1)" stroke="rgba(204, 204, 204, 1)"></polygon><line x1="1031.2541330432605" y1="-484.2261031263865" x2="1181.1495806056291" y2="-490.73108375562526" stroke="rgba(204, 204, 204, 1)" stroke-width="2"></line><polygon points="1181.1495806056291,-490.73108375562526 1166.505996996887,-493.9815389689418 1173.656632949846,-490.40591391124764 1166.8426375913587,-486.2242687398498" fill="rgba(204, 204, 204, 1)" stroke="rgba(204, 204, 204, 1)"></polygon><line x1="1031.2541330432605" y1="-470.5902825029487" x2="1206.2815679769808" y2="-439.3787121179246" stroke="rgba(204, 204, 204, 1)" stroke-width="2"></line><polygon points="1206.2815679769808,-439.3787121179246 1192.699249581798,-445.7442935534165 1198.8980450632585,-440.69537053320875 1191.3361444867178,-438.10030815332783" fill="rgba(204, 204, 204, 1)" stroke="rgba(204, 204, 204, 1)"></polygon><line x1="629.0335697203313" y1="-685.9435950380167" x2="919.7428936072849" y2="-511.5572008001052" stroke="rgba(204, 204, 204, 1)" stroke-width="2"></line><polygon points="919.7428936072849,-511.5572008001052 909.3151254789652,-522.3396704551517 913.3113140844529,-515.4152812608379 905.3209466758631,-515.6812093727505" fill="rgba(204, 204, 204, 1)" stroke="rgba(204, 204, 204, 1)"></polygon><line x1="1026.536611124842" y1="-451.5572008001052" x2="1211.801388438518" y2="-353.67589115692687" stroke="rgba(204, 204, 204, 1)" stroke-width="2"></line><polygon points="1211.801388438518,-353.67589115692687 1200.8041474791564,-363.87690538501926 1205.1700205274362,-357.17945500362305 1197.176991282126,-357.0116081431407" fill="rgba(204, 204, 204, 1)" stroke="rgba(204, 204, 204, 1)"></polygon><line x1="544.0335697203313" y1="-727.1632586431763" x2="272.69250307996487" y2="-827.5619715321643" stroke="rgba(204, 204, 204, 1)" stroke-width="2"></line><polygon points="272.69250307996487,-827.5619715321643 284.9338193335024,-818.8930513929038 279.7264456547536,-824.959347499659 287.628254000918,-826.1751245949549" fill="rgba(204, 204, 204, 1)" stroke="rgba(204, 204, 204, 1)"></polygon></svg>