<svg xmlns="http://www.w3.org/2000/svg" width="5431.938395397158" height="3241.850006752411" viewBox="-3177.372737649249 -1309.7451284291958 5431.938395397158 3241.850006752411" style="background-color:rgba(31, 31, 31, 1)"><rect x="-2637.5" y="-882.7" width="320.0" height="497.1" rx="8" ry="8" fill="rgba(0, 0, 0, 0)" stroke="rgba(0, 0, 0, 0)" stroke-width="0"></rect><rect x="-633.7" y="1761.7" width="110.0" height="76.0" rx="8" ry="8" fill="rgba(59, 130, 246, 1)" stroke="rgba(204, 204, 204, 1)" stroke-width="2"></rect><text x="-619.7" y="1813.7" fill="rgba(255, 255, 255, 1)" font-size="32" text-anchor="start" font-family="MiSans">Edge</text><rect x="826.3" y="1630.8" width="150.0" height="76.0" rx="8" ry="8" fill="rgba(59, 130, 246, 1)" stroke="rgba(204, 204, 204, 1)" stroke-width="2"></rect><text x="840.3" y="1682.8" fill="rgba(255, 255, 255, 1)" font-size="32" text-anchor="start" font-family="MiSans">Section</text><rect x="1046.4" y="1826.1" width="114.0" height="76.0" rx="8" ry="8" fill="rgba(59, 130, 246, 1)" stroke="rgba(204, 204, 204, 1)" stroke-width="2"></rect><text x="1060.4" y="1878.1" fill="rgba(255, 255, 255, 1)" font-size="32" text-anchor="start" font-family="MiSans">Node</text><rect x="-296.9" y="11.8" width="227.0" height="76.0" rx="8" ry="8" fill="rgba(168, 85, 247, 1)" stroke="rgba(204, 204, 204, 1)" stroke-width="2"></rect><text x="-282.9" y="63.8" fill="rgba(255, 255, 255, 1)" font-size="32" text-anchor="start" font-family="MiSans">StageObject</text><rect x="1191.2" y="1829.9" width="228.0" height="76.0" rx="8" ry="8" fill="rgba(59, 130, 246, 1)" stroke="rgba(204, 204, 204, 1)" stroke-width="2"></rect><text x="1205.2" y="1881.9" fill="rgba(255, 255, 255, 1)" font-size="32" text-anchor="start" font-family="MiSans">BubbleNode</text><rect x="1458.2" y="1833.7" width="164.0" height="76.0" rx="8" ry="8" fill="rgba(59, 130, 246, 1)" stroke="rgba(204, 204, 204, 1)" stroke-width="2"></rect><text x="1472.2" y="1885.7" fill="rgba(255, 255, 255, 1)" font-size="32" text-anchor="start" font-family="MiSans">fileNode</text><rect x="1684.1" y="1828.1" width="312.4" height="76.0" rx="8" ry="8" fill="rgba(59, 130, 246, 1)" stroke="rgba(204, 204, 204, 1)" stroke-width="2"></rect><text x="1698.1" y="1880.1" fill="rgba(255, 255, 255, 1)" font-size="32" text-anchor="start" font-family="MiSans">WebsiteLinkNode</text><rect x="2009.6" y="1826.1" width="215.0" height="76.0" rx="8" ry="8" fill="rgba(59, 130, 246, 1)" stroke="rgba(204, 204, 204, 1)" stroke-width="2"></rect><text x="2023.6" y="1878.1" fill="rgba(255, 255, 255, 1)" font-size="32" text-anchor="start" font-family="MiSans">ImageNode</text><rect x="1157.9" y="961.6" width="329.0" height="76.0" rx="8" ry="8" fill="rgba(168, 85, 247, 1)" stroke="rgba(204, 204, 204, 1)" stroke-width="2"></rect><text x="1171.9" y="1013.6" fill="rgba(255, 255, 255, 1)" font-size="32" text-anchor="start" font-family="MiSans">ConnectableEntity</text><rect x="486.8" y="15.1" width="218.0" height="76.0" rx="8" ry="8" fill="rgba(0, 0, 0, 0)" stroke="rgba(204, 204, 204, 1)" stroke-width="2"></rect><text x="500.8" y="67.1" fill="rgba(255, 255, 255, 1)" font-size="32" text-anchor="start" font-family="MiSans">一切具有碰撞箱的东西</text><rect x="1552.3" y="957.6" width="528.0" height="76.0" rx="8" ry="8" fill="rgba(0, 0, 0, 0)" stroke="rgba(204, 204, 204, 1)" stroke-width="2"></rect><text x="1566.3" y="1009.6" fill="rgba(255, 255, 255, 1)" font-size="32" text-anchor="start" font-family="MiSans">一切可被Edge连接的东西，且会算入图分析算法的东西</text><rect x="493.8" y="1630.0" width="326.0" height="76.0" rx="8" ry="8" fill="rgba(0, 0, 0, 0)" stroke="rgba(204, 204, 204, 1)" stroke-width="2"></rect><text x="507.8" y="1682.0" fill="rgba(255, 255, 255, 1)" font-size="32" text-anchor="start" font-family="MiSans">container: Entity[]</text><rect x="395.1" y="350.1" width="126.0" height="76.0" rx="8" ry="8" fill="rgba(168, 85, 247, 1)" stroke="rgba(204, 204, 204, 1)" stroke-width="2"></rect><text x="409.1" y="402.1" fill="rgba(255, 255, 255, 1)" font-size="32" text-anchor="start" font-family="MiSans">Entity</text><rect x="497.5" y="-120.4" width="119.0" height="76.0" rx="8" ry="8" fill="rgba(0, 0, 0, 0)" stroke="rgba(204, 204, 204, 1)" stroke-width="2"></rect><text x="511.5" y="-68.4" fill="rgba(255, 255, 255, 1)" font-size="32" text-anchor="start" font-family="MiSans">有uuid</text><rect x="237.7" y="1219.0" width="85.0" height="76.0" rx="8" ry="8" fill="rgba(59, 130, 246, 1)" stroke="rgba(204, 204, 204, 1)" stroke-width="2"></rect><text x="251.7" y="1271.0" fill="rgba(255, 255, 255, 1)" font-size="32" text-anchor="start" font-family="MiSans">分割线</text><rect x="959.7" y="970.0" width="66.0" height="76.0" rx="8" ry="8" fill="rgba(59, 130, 246, 1)" stroke="rgba(204, 204, 204, 1)" stroke-width="2"></rect><text x="973.7" y="1022.0" fill="rgba(255, 255, 255, 1)" font-size="32" text-anchor="start" font-family="MiSans">贴纸</text><rect x="692.8" y="964.9" width="226.0" height="76.0" rx="8" ry="8" fill="rgba(168, 85, 247, 1)" stroke="rgba(204, 204, 204, 1)" stroke-width="2"></rect><text x="706.8" y="1016.9" fill="rgba(255, 255, 255, 1)" font-size="32" text-anchor="start" font-family="MiSans">EffectOrigin</text><rect x="806.3" y="-123.0" width="157.0" height="76.0" rx="8" ry="8" fill="rgba(0, 0, 0, 0)" stroke="rgba(204, 204, 204, 1)" stroke-width="2"></rect><text x="820.3" y="-71.0" fill="rgba(255, 255, 255, 1)" font-size="32" text-anchor="start" font-family="MiSans">uuid的意义</text><rect x="1180.0" y="-219.9" width="360.0" height="76.0" rx="8" ry="8" fill="rgba(0, 0, 0, 0)" stroke="rgba(204, 204, 204, 1)" stroke-width="2"></rect><text x="1194.0" y="-167.9" fill="rgba(255, 255, 255, 1)" font-size="32" text-anchor="start" font-family="MiSans">json化时，表示各个物体之间的关系</text><rect x="1188.2" y="-124.3" width="142.0" height="76.0" rx="8" ry="8" fill="rgba(0, 0, 0, 0)" stroke="rgba(204, 204, 204, 1)" stroke-width="2"></rect><text x="1202.2" y="-72.3" fill="rgba(255, 255, 255, 1)" font-size="32" text-anchor="start" font-family="MiSans">图论分析算法</text><rect x="1188.2" y="-33.7" width="217.0" height="76.0" rx="8" ry="8" fill="rgba(0, 0, 0, 0)" stroke="rgba(204, 204, 204, 1)" stroke-width="2"></rect><text x="1202.2" y="18.3" fill="rgba(255, 255, 255, 1)" font-size="32" text-anchor="start" font-family="MiSans">优化，作为key使用</text><rect x="-2032.1" y="294.8" width="383.0" height="76.0" rx="8" ry="8" fill="rgba(0, 0, 0, 0)" stroke="rgba(204, 204, 204, 1)" stroke-width="2"></rect><text x="-2018.1" y="346.8" fill="rgba(255, 255, 255, 1)" font-size="32" text-anchor="start" font-family="MiSans">与Connectable实时关联的东西</text><rect x="-1834.0" y="1695.1" width="142.0" height="76.0" rx="8" ry="8" fill="rgba(59, 130, 246, 1)" stroke="rgba(204, 204, 204, 1)" stroke-width="2"></rect><text x="-1820.0" y="1747.1" fill="rgba(255, 255, 255, 1)" font-size="32" text-anchor="start" font-family="MiSans">图论分析结果</text><rect x="-867.3" y="1761.1" width="167.0" height="76.0" rx="8" ry="8" fill="rgba(59, 130, 246, 1)" stroke="rgba(204, 204, 204, 1)" stroke-width="2"></rect><text x="-853.3" y="1813.1" fill="rgba(255, 255, 255, 1)" font-size="32" text-anchor="start" font-family="MiSans">全连接Edge</text><rect x="-1096.0" y="348.5" width="212.0" height="76.0" rx="8" ry="8" fill="rgba(168, 85, 247, 1)" stroke="rgba(204, 204, 204, 1)" stroke-width="2"></rect><text x="-1082.0" y="400.5" fill="rgba(255, 255, 255, 1)" font-size="32" text-anchor="start" font-family="MiSans">Association</text><rect x="-2284.5" y="388.2" width="529.0" height="76.0" rx="8" ry="8" fill="rgba(0, 0, 0, 0)" stroke="rgba(204, 204, 204, 1)" stroke-width="2"></rect><text x="-2270.5" y="440.2" fill="rgba(255, 255, 255, 1)" font-size="32" text-anchor="start" font-family="MiSans">有一个非空数组，表示关联的connectable的数组</text><rect x="-1542.0" y="1296.2" width="334.0" height="76.0" rx="8" ry="8" fill="rgba(168, 85, 247, 1)" stroke="rgba(204, 204, 204, 1)" stroke-width="2"></rect><text x="-1528.0" y="1348.2" fill="rgba(255, 255, 255, 1)" font-size="32" text-anchor="start" font-family="MiSans">SectionAssociation</text><rect x="-769.8" y="1297.7" width="415.0" height="76.0" rx="8" ry="8" fill="rgba(168, 85, 247, 1)" stroke="rgba(204, 204, 204, 1)" stroke-width="2"></rect><text x="-755.8" y="1349.7" fill="rgba(255, 255, 255, 1)" font-size="32" text-anchor="start" font-family="MiSans">ConnectableAssociation</text><rect x="-2341.7" y="1301.8" width="301.0" height="76.0" rx="8" ry="8" fill="rgba(0, 0, 0, 0)" stroke="rgba(204, 204, 204, 1)" stroke-width="2"></rect><text x="-2327.7" y="1353.8" fill="rgba(255, 255, 255, 1)" font-size="32" text-anchor="start" font-family="MiSans">Xxx...Association</text><rect x="743.4" y="296.2" width="294.0" height="76.0" rx="8" ry="8" fill="rgba(0, 0, 0, 0)" stroke="rgba(204, 204, 204, 1)" stroke-width="2"></rect><text x="757.4" y="348.2" fill="rgba(255, 255, 255, 1)" font-size="32" text-anchor="start" font-family="MiSans">一切独立存在，独立移动的东西</text><rect x="743.4" y="375.0" width="397.0" height="76.0" rx="8" ry="8" fill="rgba(0, 0, 0, 0)" stroke="rgba(204, 204, 204, 1)" stroke-width="2"></rect><text x="757.4" y="427.0" fill="rgba(255, 255, 255, 1)" font-size="32" text-anchor="start" font-family="MiSans">一切能放入Section里附带移动的东西</text><rect x="411.8" y="964.9" width="161.0" height="76.0" rx="8" ry="8" fill="rgba(168, 85, 247, 1)" stroke="rgba(204, 204, 204, 1)" stroke-width="2"></rect><text x="425.8" y="1016.9" fill="rgba(255, 255, 255, 1)" font-size="32" text-anchor="start" font-family="MiSans">独立线存在的线</text><rect x="-1205.2" y="1297.9" width="434.0" height="76.0" rx="8" ry="8" fill="rgba(168, 85, 247, 1)" stroke="rgba(204, 204, 204, 1)" stroke-width="2"></rect><text x="-1191.2" y="1349.9" fill="rgba(255, 255, 255, 1)" font-size="32" text-anchor="start" font-family="MiSans">AssociationOfAssociation</text><rect x="-2607.5" y="-802.7" width="66.0" height="76.0" rx="8" ry="8" fill="rgba(22, 163, 74, 1)" stroke="rgba(204, 204, 204, 1)" stroke-width="2"></rect><text x="-2593.5" y="-750.7" fill="rgba(255, 255, 255, 1)" font-size="32" text-anchor="start" font-family="MiSans">接口</text><rect x="-2607.5" y="-724.9" width="85.0" height="76.0" rx="8" ry="8" fill="rgba(168, 85, 247, 1)" stroke="rgba(204, 204, 204, 1)" stroke-width="2"></rect><text x="-2593.5" y="-672.9" fill="rgba(255, 255, 255, 1)" font-size="32" text-anchor="start" font-family="MiSans">抽象类</text><rect x="-2607.5" y="-647.1" width="47.0" height="76.0" rx="8" ry="8" fill="rgba(59, 130, 246, 1)" stroke="rgba(204, 204, 204, 1)" stroke-width="2"></rect><text x="-2593.5" y="-595.1" fill="rgba(255, 255, 255, 1)" font-size="32" text-anchor="start" font-family="MiSans">类</text><rect x="440.2" y="1215.7" width="104.0" height="76.0" rx="8" ry="8" fill="rgba(59, 130, 246, 1)" stroke="rgba(204, 204, 204, 1)" stroke-width="2"></rect><text x="454.2" y="1267.7" fill="rgba(255, 255, 255, 1)" font-size="32" text-anchor="start" font-family="MiSans">双箭头线</text><rect x="934.3" y="61.1" width="622.0" height="76.0" rx="8" ry="8" fill="rgba(0, 0, 0, 0)" stroke="rgba(204, 204, 204, 1)" stroke-width="2"></rect><text x="948.3" y="113.1" fill="rgba(255, 255, 255, 1)" font-size="32" text-anchor="start" font-family="MiSans">由于有“关系的关系”，所以关系也有uuid，所以一切都有uuid</text><rect x="-1587.3" y="1693.5" width="161.0" height="76.0" rx="8" ry="8" fill="rgba(59, 130, 246, 1)" stroke="rgba(204, 204, 204, 1)" stroke-width="2"></rect><text x="-1573.3" y="1745.5" fill="rgba(255, 255, 255, 1)" font-size="32" text-anchor="start" font-family="MiSans">树形图分析结果</text><rect x="-792.0" y="-36.4" width="85.0" height="76.0" rx="8" ry="8" fill="rgba(0, 0, 0, 0)" stroke="rgba(204, 204, 204, 1)" stroke-width="2"></rect><text x="-778.0" y="15.6" fill="rgba(255, 255, 255, 1)" font-size="32" text-anchor="start" font-family="MiSans">碰撞箱</text><rect x="-2841.7" y="97.8" width="180.0" height="76.0" rx="8" ry="8" fill="rgba(168, 85, 247, 1)" stroke="rgba(204, 204, 204, 1)" stroke-width="2"></rect><text x="-2827.7" y="149.8" fill="rgba(255, 255, 255, 1)" font-size="32" text-anchor="start" font-family="MiSans">可参与碰撞的图形</text><rect x="-3147.4" y="225.8" width="123.0" height="76.0" rx="8" ry="8" fill="rgba(0, 0, 0, 0)" stroke="rgba(204, 204, 204, 1)" stroke-width="2"></rect><text x="-3133.4" y="277.8" fill="rgba(255, 255, 255, 1)" font-size="32" text-anchor="start" font-family="MiSans">碰撞管理器</text><rect x="-2607.5" y="-569.3" width="260.0" height="76.0" rx="8" ry="8" fill="rgba(239, 68, 68, 1)" stroke="rgba(204, 204, 204, 1)" stroke-width="2"></rect><text x="-2593.5" y="-517.3" fill="rgba(255, 255, 255, 1)" font-size="32" text-anchor="start" font-family="MiSans">NameSpace单例</text><rect x="-1239.2" y="1696.2" width="104.0" height="76.0" rx="8" ry="8" fill="rgba(0, 0, 0, 0)" stroke="rgba(204, 204, 204, 1)" stroke-width="2"></rect><text x="-1225.2" y="1748.2" fill="rgba(255, 255, 255, 1)" font-size="32" text-anchor="start" font-family="MiSans">双向关系</text><rect x="-1062.8" y="1698.4" width="104.0" height="76.0" rx="8" ry="8" fill="rgba(0, 0, 0, 0)" stroke="rgba(204, 204, 204, 1)" stroke-width="2"></rect><text x="-1048.8" y="1750.4" fill="rgba(255, 255, 255, 1)" font-size="32" text-anchor="start" font-family="MiSans">单向关系</text><rect x="634.6" y="1217.1" width="123.0" height="76.0" rx="8" ry="8" fill="rgba(59, 130, 246, 1)" stroke="rgba(204, 204, 204, 1)" stroke-width="2"></rect><text x="648.6" y="1269.1" fill="rgba(255, 255, 255, 1)" font-size="32" text-anchor="start" font-family="MiSans">烟雾弹遮罩</text><rect x="842.7" y="1214.6" width="66.0" height="76.0" rx="8" ry="8" fill="rgba(59, 130, 246, 1)" stroke="rgba(204, 204, 204, 1)" stroke-width="2"></rect><text x="856.7" y="1266.6" fill="rgba(255, 255, 255, 1)" font-size="32" text-anchor="start" font-family="MiSans">烟花</text><rect x="-1908.9" y="1295.1" width="308.0" height="76.0" rx="8" ry="8" fill="rgba(168, 85, 247, 1)" stroke="rgba(204, 204, 204, 1)" stroke-width="2"></rect><text x="-1894.9" y="1347.1" fill="rgba(255, 255, 255, 1)" font-size="32" text-anchor="start" font-family="MiSans">AssociationEffect</text><rect x="-2132.7" y="1699.4" width="123.0" height="76.0" rx="8" ry="8" fill="rgba(0, 0, 0, 0)" stroke="rgba(204, 204, 204, 1)" stroke-width="2"></rect><text x="-2118.7" y="1751.4" fill="rgba(255, 255, 255, 1)" font-size="32" text-anchor="start" font-family="MiSans">引力波特效</text><rect x="-2607.5" y="-491.5" width="66.0" height="76.0" rx="8" ry="8" fill="rgba(234, 179, 8, 1)" stroke="rgba(204, 204, 204, 1)" stroke-width="2"></rect><text x="-2593.5" y="-439.5" fill="rgba(0, 0, 0, 1)" font-size="32" text-anchor="start" font-family="MiSans">对象</text><rect x="-3120.7" y="618.8" width="66.0" height="76.0" rx="8" ry="8" fill="rgba(59, 130, 246, 1)" stroke="rgba(204, 204, 204, 1)" stroke-width="2"></rect><text x="-3106.7" y="670.8" fill="rgba(255, 255, 255, 1)" font-size="32" text-anchor="start" font-family="MiSans">矩形</text><rect x="-2997.0" y="618.8" width="66.0" height="76.0" rx="8" ry="8" fill="rgba(59, 130, 246, 1)" stroke="rgba(204, 204, 204, 1)" stroke-width="2"></rect><text x="-2983.0" y="670.8" fill="rgba(255, 255, 255, 1)" font-size="32" text-anchor="start" font-family="MiSans">圆形</text><rect x="-2873.3" y="618.8" width="85.0" height="76.0" rx="8" ry="8" fill="rgba(59, 130, 246, 1)" stroke="rgba(204, 204, 204, 1)" stroke-width="2"></rect><text x="-2859.3" y="670.8" fill="rgba(255, 255, 255, 1)" font-size="32" text-anchor="start" font-family="MiSans">线段形</text><rect x="-2717.6" y="618.8" width="47.0" height="76.0" rx="8" ry="8" fill="rgba(59, 130, 246, 1)" stroke="rgba(204, 204, 204, 1)" stroke-width="2"></rect><text x="-2703.6" y="670.8" fill="rgba(255, 255, 255, 1)" font-size="32" text-anchor="start" font-family="MiSans">点</text><rect x="-2625.9" y="618.8" width="142.0" height="76.0" rx="8" ry="8" fill="rgba(59, 130, 246, 1)" stroke="rgba(204, 204, 204, 1)" stroke-width="2"></rect><text x="-2611.9" y="670.8" fill="rgba(255, 255, 255, 1)" font-size="32" text-anchor="start" font-family="MiSans">贝塞尔线段形</text><rect x="-527.4" y="-674.2" width="203.0" height="76.0" rx="8" ry="8" fill="rgba(22, 163, 74, 1)" stroke="rgba(204, 204, 204, 1)" stroke-width="2"></rect><text x="-513.4" y="-622.2" fill="rgba(255, 255, 255, 1)" font-size="32" text-anchor="start" font-family="MiSans">Disposable</text><rect x="-551.5" y="11.8" width="66.0" height="76.0" rx="8" ry="8" fill="rgba(0, 0, 0, 0)" stroke="rgba(204, 204, 204, 1)" stroke-width="2"></rect><text x="-537.5" y="63.8" fill="rgba(255, 255, 255, 1)" font-size="32" text-anchor="start" font-family="MiSans">字段</text><rect x="-863.7" y="56.6" width="123.0" height="76.0" rx="8" ry="8" fill="rgba(0, 0, 0, 0)" stroke="rgba(204, 204, 204, 1)" stroke-width="2"></rect><text x="-849.7" y="108.6" fill="rgba(255, 255, 255, 1)" font-size="32" text-anchor="start" font-family="MiSans">渲染函数？</text><rect x="-780.3" y="-292.6" width="188.0" height="76.0" rx="8" ry="8" fill="rgba(0, 0, 0, 0)" stroke="rgba(204, 204, 204, 1)" stroke-width="2"></rect><text x="-766.3" y="-240.6" fill="rgba(255, 255, 255, 1)" font-size="32" text-anchor="start" font-family="MiSans">Extension</text><rect x="-995.3" y="-289.1" width="66.0" height="76.0" rx="8" ry="8" fill="rgba(0, 0, 0, 0)" stroke="rgba(204, 204, 204, 1)" stroke-width="2"></rect><text x="-981.3" y="-237.1" fill="rgba(255, 255, 255, 1)" font-size="32" text-anchor="start" font-family="MiSans">字段</text><rect x="-1255.1" y="-287.1" width="177.0" height="76.0" rx="8" ry="8" fill="rgba(0, 0, 0, 0)" stroke="rgba(204, 204, 204, 1)" stroke-width="2"></rect><text x="-1241.1" y="-235.1" fill="rgba(255, 255, 255, 1)" font-size="32" text-anchor="start" font-family="MiSans">init(core)</text><rect x="-1805.8" y="102.1" width="104.0" height="76.0" rx="8" ry="8" fill="rgba(59, 130, 246, 1)" stroke="rgba(204, 204, 204, 1)" stroke-width="2"></rect><text x="-1791.8" y="154.1" fill="rgba(255, 255, 255, 1)" font-size="32" text-anchor="start" font-family="MiSans">碰撞箱类</text><rect x="-1985.1" y="102.7" width="66.0" height="76.0" rx="8" ry="8" fill="rgba(0, 0, 0, 0)" stroke="rgba(204, 204, 204, 1)" stroke-width="2"></rect><text x="-1971.1" y="154.7" fill="rgba(255, 255, 255, 1)" font-size="32" text-anchor="start" font-family="MiSans">字段</text><rect x="-2233.8" y="97.5" width="104.0" height="76.0" rx="8" ry="8" fill="rgba(0, 0, 0, 0)" stroke="rgba(204, 204, 204, 1)" stroke-width="2"></rect><text x="-2219.8" y="149.5" fill="rgba(255, 255, 255, 1)" font-size="32" text-anchor="start" font-family="MiSans">图形数组</text><rect x="-2372.4" y="-207.4" width="142.0" height="76.0" rx="8" ry="8" fill="rgba(0, 0, 0, 0)" stroke="rgba(204, 204, 204, 1)" stroke-width="2"></rect><text x="-2358.4" y="-155.4" fill="rgba(255, 255, 255, 1)" font-size="32" text-anchor="start" font-family="MiSans">鼠标是否在内</text><rect x="-2372.8" y="-128.7" width="142.0" height="76.0" rx="8" ry="8" fill="rgba(0, 0, 0, 0)" stroke="rgba(204, 204, 204, 1)" stroke-width="2"></rect><text x="-2358.8" y="-76.7" fill="rgba(255, 255, 255, 1)" font-size="32" text-anchor="start" font-family="MiSans">鼠标是否框选</text><rect x="-2375.8" y="-48.4" width="142.0" height="76.0" rx="8" ry="8" fill="rgba(0, 0, 0, 0)" stroke="rgba(204, 204, 204, 1)" stroke-width="2"></rect><text x="-2361.8" y="3.6" fill="rgba(255, 255, 255, 1)" font-size="32" text-anchor="start" font-family="MiSans">划线是否切中</text><rect x="-2232.8" y="-350.0" width="142.0" height="76.0" rx="8" ry="8" fill="rgba(0, 0, 0, 0)" stroke="rgba(204, 204, 204, 1)" stroke-width="2"></rect><text x="-2218.8" y="-298.0" fill="rgba(255, 255, 255, 1)" font-size="32" text-anchor="start" font-family="MiSans">更新形状数组</text><rect x="2.6" y="965.3" width="203.1" height="76.0" rx="8" ry="8" fill="rgba(59, 130, 246, 1)" stroke="rgba(204, 204, 204, 1)" stroke-width="2"></rect><text x="16.6" y="1017.3" fill="rgba(255, 255, 255, 1)" font-size="32" text-anchor="start" font-family="MiSans">VeenCircle</text><rect x="-330.0" y="1296.3" width="387.1" height="76.0" rx="8" ry="8" fill="rgba(59, 130, 246, 1)" stroke="rgba(204, 204, 204, 1)" stroke-width="2"></rect><text x="-316.0" y="1348.3" fill="rgba(255, 255, 255, 1)" font-size="32" text-anchor="start" font-family="MiSans">VeenCircleAssociation</text><rect x="-214.0" y="-669.2" width="164.0" height="76.0" rx="8" ry="8" fill="rgba(22, 163, 74, 1)" stroke="rgba(204, 204, 204, 1)" stroke-width="2"></rect><text x="-200.0" y="-617.2" fill="rgba(255, 255, 255, 1)" font-size="32" text-anchor="start" font-family="MiSans">Tickable</text><rect x="544.0" y="-741.4" width="85.0" height="76.0" rx="8" ry="8" fill="rgba(0, 0, 0, 0)" stroke="rgba(204, 204, 204, 1)" stroke-width="2"></rect><text x="558.0" y="-689.4" fill="rgba(255, 255, 255, 1)" font-size="32" text-anchor="start" font-family="MiSans">新设计</text><rect x="806.5" y="-1279.7" width="495.0" height="76.0" rx="8" ry="8" fill="rgba(0, 0, 0, 0)" stroke="rgba(204, 204, 204, 1)" stroke-width="2"></rect><text x="820.5" y="-1227.7" fill="rgba(255, 255, 255, 1)" font-size="32" text-anchor="start" font-family="MiSans">onObjectClick(mouseButton)</text><rect x="1008.6" y="-1198.7" width="610.0" height="76.0" rx="8" ry="8" fill="rgba(0, 0, 0, 0)" stroke="rgba(204, 204, 204, 1)" stroke-width="2"></rect><text x="1022.6" y="-1146.7" fill="rgba(255, 255, 255, 1)" font-size="32" text-anchor="start" font-family="MiSans">onObjectDoubleClick(mouseButton)</text><rect x="175.3" y="-1083.7" width="356.0" height="76.0" rx="8" ry="8" fill="rgba(0, 0, 0, 0)" stroke="rgba(204, 204, 204, 1)" stroke-width="2"></rect><text x="189.3" y="-1031.7" fill="rgba(255, 255, 255, 1)" font-size="32" text-anchor="start" font-family="MiSans">onMouseMoveEnter</text><rect x="120.3" y="-1001.3" width="361.0" height="76.0" rx="8" ry="8" fill="rgba(0, 0, 0, 0)" stroke="rgba(204, 204, 204, 1)" stroke-width="2"></rect><text x="134.3" y="-949.3" fill="rgba(255, 255, 255, 1)" font-size="32" text-anchor="start" font-family="MiSans">onMouseMoveLeave</text><rect x="1193.1" y="-853.5" width="395.0" height="76.0" rx="8" ry="8" fill="rgba(0, 0, 0, 0)" stroke="rgba(204, 204, 204, 1)" stroke-width="2"></rect><text x="1207.1" y="-801.5" fill="rgba(255, 255, 255, 1)" font-size="32" text-anchor="start" font-family="MiSans">onRectangleSelectAdd</text><rect x="1195.1" y="-773.9" width="461.0" height="76.0" rx="8" ry="8" fill="rgba(0, 0, 0, 0)" stroke="rgba(204, 204, 204, 1)" stroke-width="2"></rect><text x="1209.1" y="-721.9" fill="rgba(255, 255, 255, 1)" font-size="32" text-anchor="start" font-family="MiSans">onRectangleSelectRemove</text><rect x="1145.4" y="-1018.0" width="477.0" height="76.0" rx="8" ry="8" fill="rgba(0, 0, 0, 0)" stroke="rgba(204, 204, 204, 1)" stroke-width="2"></rect><text x="1159.4" y="-966.0" fill="rgba(255, 255, 255, 1)" font-size="32" text-anchor="start" font-family="MiSans">onDragMove(mouseButton)</text><rect x="1197.9" y="-696.4" width="533.0" height="76.0" rx="8" ry="8" fill="rgba(0, 0, 0, 0)" stroke="rgba(204, 204, 204, 1)" stroke-width="2"></rect><text x="1211.9" y="-644.4" fill="rgba(255, 255, 255, 1)" font-size="32" text-anchor="start" font-family="MiSans">_rectangleSelectLevel: number</text><rect x="876.7" y="-761.9" width="104.0" height="76.0" rx="8" ry="8" fill="rgba(0, 0, 0, 0)" stroke="rgba(204, 204, 204, 1)" stroke-width="2"></rect><text x="890.7" y="-709.9" fill="rgba(255, 255, 255, 1)" font-size="32" text-anchor="start" font-family="MiSans">框选相关</text><rect x="1181.1" y="-527.3" width="303.0" height="76.0" rx="8" ry="8" fill="rgba(0, 0, 0, 0)" stroke="rgba(204, 204, 204, 1)" stroke-width="2"></rect><text x="1195.1" y="-475.3" fill="rgba(255, 255, 255, 1)" font-size="32" text-anchor="start" font-family="MiSans">onLineSelectAdd</text><rect x="1190.0" y="-439.4" width="369.0" height="76.0" rx="8" ry="8" fill="rgba(0, 0, 0, 0)" stroke="rgba(204, 204, 204, 1)" stroke-width="2"></rect><text x="1204.0" y="-387.4" fill="rgba(255, 255, 255, 1)" font-size="32" text-anchor="start" font-family="MiSans">onLineSelectRemove</text><rect x="908.3" y="-511.6" width="123.0" height="76.0" rx="8" ry="8" fill="rgba(0, 0, 0, 0)" stroke="rgba(204, 204, 204, 1)" stroke-width="2"></rect><text x="922.3" y="-459.6" fill="rgba(255, 255, 255, 1)" font-size="32" text-anchor="start" font-family="MiSans">删除线相关</text><rect x="1181.6" y="-353.7" width="174.0" height="76.0" rx="8" ry="8" fill="rgba(0, 0, 0, 0)" stroke="rgba(204, 204, 204, 1)" stroke-width="2"></rect><text x="1195.6" y="-301.7" fill="rgba(255, 255, 255, 1)" font-size="32" text-anchor="start" font-family="MiSans">onDelete</text><rect x="15.1" y="-887.6" width="353.0" height="76.0" rx="8" ry="8" fill="rgba(0, 0, 0, 0)" stroke="rgba(204, 204, 204, 1)" stroke-width="2"></rect><text x="29.1" y="-835.6" fill="rgba(255, 255, 255, 1)" font-size="32" text-anchor="start" font-family="MiSans">onControlWheel(dy)</text><line x1="486.8" y1="52.7" x2="-69.9" y2="50.3" stroke="rgba(204, 204, 204, 1)" stroke-width="2"></line><polygon points="-69.9,50.3 -55.4,54.2 -62.4,50.3 -55.4,46.5" fill="rgba(204, 204, 204, 1)" stroke="rgba(204, 204, 204, 1)"></polygon><line x1="1113.0" y1="1826.1" x2="1312.8" y2="1037.6" stroke="rgba(204, 204, 204, 1)" stroke-width="2"></line><polygon points="1312.8,1037.6 1305.5,1050.7 1311.0,1044.9 1313.0,1052.6" fill="rgba(204, 204, 204, 1)" stroke="rgba(204, 204, 204, 1)"></polygon><line x1="1306.0" y1="1829.9" x2="1321.7" y2="1037.6" stroke="rgba(204, 204, 204, 1)" stroke-width="2"></line><polygon points="1321.7,1037.6 1317.5,1052.0 1321.5,1045.1 1325.3,1052.2" fill="rgba(204, 204, 204, 1)" stroke="rgba(204, 204, 204, 1)"></polygon><line x1="1530.7" y1="1833.7" x2="1331.9" y2="1037.6" stroke="rgba(204, 204, 204, 1)" stroke-width="2"></line><polygon points="1331.9,1037.6 1331.7,1052.6 1333.7,1044.9 1339.2,1050.7" fill="rgba(204, 204, 204, 1)" stroke="rgba(204, 204, 204, 1)"></polygon><line x1="1817.6" y1="1828.1" x2="1345.1" y2="1037.6" stroke="rgba(204, 204, 204, 1)" stroke-width="2"></line><polygon points="1345.1,1037.6 1349.2,1052.0 1349.0,1044.0 1355.9,1048.1" fill="rgba(204, 204, 204, 1)" stroke="rgba(204, 204, 204, 1)"></polygon><line x1="2082.1" y1="1826.1" x2="1357.4" y2="1037.6" stroke="rgba(204, 204, 204, 1)" stroke-width="2"></line><polygon points="1357.4,1037.6 1364.3,1050.9 1362.4,1043.1 1370.0,1045.6" fill="rgba(204, 204, 204, 1)" stroke="rgba(204, 204, 204, 1)"></polygon><line x1="1552.3" y1="997.8" x2="1486.9" y2="998.3" stroke="rgba(204, 204, 204, 1)" stroke-width="2"></line><polygon points="1486.9,998.3 1501.4,1002.1 1494.4,998.2 1501.4,994.3" fill="rgba(204, 204, 204, 1)" stroke="rgba(204, 204, 204, 1)"></polygon><line x1="925.2" y1="1630.8" x2="1298.5" y2="1037.6" stroke="rgba(204, 204, 204, 1)" stroke-width="2"></line><polygon points="1298.5,1037.6 1287.5,1047.8 1294.5,1044.0 1294.1,1051.9" fill="rgba(204, 204, 204, 1)" stroke="rgba(204, 204, 204, 1)"></polygon><line x1="826.3" y1="1668.6" x2="819.8" y2="1668.6" stroke="rgba(204, 204, 204, 1)" stroke-width="2"></line><polygon points="819.8,1668.6 834.3,1672.5 827.3,1668.6 834.3,1664.7" fill="rgba(204, 204, 204, 1)" stroke="rgba(204, 204, 204, 1)"></polygon><line x1="395.1" y1="354.9" x2="-111.3" y2="87.8" stroke="rgba(204, 204, 204, 1)" stroke-width="2"></line><polygon points="-111.3,87.8 -100.3,98.0 -104.7,91.3 -96.7,91.1" fill="rgba(204, 204, 204, 1)" stroke="rgba(204, 204, 204, 1)"></polygon><line x1="1268.7" y1="961.6" x2="511.8" y2="426.1" stroke="rgba(204, 204, 204, 1)" stroke-width="2"></line><polygon points="511.8,426.1 521.4,437.7 517.9,430.5 525.8,431.3" fill="rgba(204, 204, 204, 1)" stroke="rgba(204, 204, 204, 1)"></polygon><line x1="960.0" y1="970.0" x2="490.8" y2="426.1" stroke="rgba(204, 204, 204, 1)" stroke-width="2"></line><polygon points="490.8,426.1 497.4,439.6 495.7,431.8 503.2,434.6" fill="rgba(204, 204, 204, 1)" stroke="rgba(204, 204, 204, 1)"></polygon><line x1="784.3" y1="964.9" x2="479.6" y2="426.1" stroke="rgba(204, 204, 204, 1)" stroke-width="2"></line><polygon points="479.6,426.1 483.3,440.7 483.3,432.7 490.1,436.8" fill="rgba(204, 204, 204, 1)" stroke="rgba(204, 204, 204, 1)"></polygon><line x1="616.5" y1="-82.9" x2="806.3" y2="-84.4" stroke="rgba(204, 204, 204, 1)" stroke-width="2"></line><polygon points="806.3,-84.4 791.8,-88.2 798.8,-84.3 791.8,-80.4" fill="rgba(204, 204, 204, 1)" stroke="rgba(204, 204, 204, 1)"></polygon><line x1="963.3" y1="-101.0" x2="1180.0" y2="-145.2" stroke="rgba(204, 204, 204, 1)" stroke-width="2"></line><polygon points="1180.0,-145.2 1165.0,-146.1 1172.7,-143.7 1166.6,-138.5" fill="rgba(204, 204, 204, 1)" stroke="rgba(204, 204, 204, 1)"></polygon><line x1="963.3" y1="-85.3" x2="1188.2" y2="-86.1" stroke="rgba(204, 204, 204, 1)" stroke-width="2"></line><polygon points="1188.2,-86.1 1173.7,-89.9 1180.7,-86.0 1173.7,-82.1" fill="rgba(204, 204, 204, 1)" stroke="rgba(204, 204, 204, 1)"></polygon><line x1="963.3" y1="-68.0" x2="1188.2" y2="-19.3" stroke="rgba(204, 204, 204, 1)" stroke-width="2"></line><polygon points="1188.2,-19.3 1174.9,-26.1 1180.9,-20.9 1173.2,-18.5" fill="rgba(204, 204, 204, 1)" stroke="rgba(204, 204, 204, 1)"></polygon><line x1="-898.9" y1="348.5" x2="-274.4" y2="87.8" stroke="rgba(204, 204, 204, 1)" stroke-width="2"></line><polygon points="-274.4,87.8 -289.3,89.8 -281.4,90.7 -286.3,97.0" fill="rgba(204, 204, 204, 1)" stroke="rgba(204, 204, 204, 1)"></polygon><line x1="-1649.1" y1="344.8" x2="-1096.0" y2="379.8" stroke="rgba(204, 204, 204, 1)" stroke-width="2"></line><polygon points="-1096.0,379.8 -1110.2,375.0 -1103.5,379.3 -1110.7,382.7" fill="rgba(204, 204, 204, 1)" stroke="rgba(204, 204, 204, 1)"></polygon><line x1="-1755.5" y1="416.0" x2="-1096.0" y2="390.5" stroke="rgba(204, 204, 204, 1)" stroke-width="2"></line><polygon points="-1096.0,390.5 -1110.6,387.2 -1103.5,390.8 -1110.3,395.0" fill="rgba(204, 204, 204, 1)" stroke="rgba(204, 204, 204, 1)"></polygon><line x1="-1726.0" y1="1695.1" x2="-1411.9" y2="1372.2" stroke="rgba(204, 204, 204, 1)" stroke-width="2"></line><polygon points="-1411.9,1372.2 -1424.8,1379.9 -1417.2,1377.6 -1419.2,1385.3" fill="rgba(204, 204, 204, 1)" stroke="rgba(204, 204, 204, 1)"></polygon><line x1="-579.4" y1="1297.7" x2="-972.9" y2="424.5" stroke="rgba(204, 204, 204, 1)" stroke-width="2"></line><polygon points="-972.9,424.5 -970.5,439.3 -969.8,431.3 -963.4,436.1" fill="rgba(204, 204, 204, 1)" stroke="rgba(204, 204, 204, 1)"></polygon><line x1="-2143.3" y1="1301.8" x2="-1037.9" y2="424.5" stroke="rgba(204, 204, 204, 1)" stroke-width="2"></line><polygon points="-1037.9,424.5 -1051.6,430.4 -1043.7,429.1 -1046.8,436.5" fill="rgba(204, 204, 204, 1)" stroke="rgba(204, 204, 204, 1)"></polygon><line x1="-577.3" y1="1761.7" x2="-563.6" y2="1373.7" stroke="rgba(204, 204, 204, 1)" stroke-width="2"></line><polygon points="-563.6,1373.7 -568.0,1388.0 -563.9,1381.2 -560.3,1388.3" fill="rgba(204, 204, 204, 1)" stroke="rgba(204, 204, 204, 1)"></polygon><line x1="-765.6" y1="1761.1" x2="-580.4" y2="1373.7" stroke="rgba(204, 204, 204, 1)" stroke-width="2"></line><polygon points="-580.4,1373.7 -590.2,1385.1 -583.7,1380.4 -583.2,1388.4" fill="rgba(204, 204, 204, 1)" stroke="rgba(204, 204, 204, 1)"></polygon><line x1="743.4" y1="352.5" x2="521.1" y2="380.3" stroke="rgba(204, 204, 204, 1)" stroke-width="2"></line><polygon points="521.1,380.3 535.9,382.3 528.5,379.3 535.0,374.6" fill="rgba(204, 204, 204, 1)" stroke="rgba(204, 204, 204, 1)"></polygon><line x1="743.4" y1="402.8" x2="521.1" y2="391.4" stroke="rgba(204, 204, 204, 1)" stroke-width="2"></line><polygon points="521.1,391.4 535.3,396.0 528.6,391.8 535.7,388.2" fill="rgba(204, 204, 204, 1)" stroke="rgba(204, 204, 204, 1)"></polygon><line x1="490.2" y1="964.9" x2="460.2" y2="426.1" stroke="rgba(204, 204, 204, 1)" stroke-width="2"></line><polygon points="460.2,426.1 457.1,440.8 460.6,433.6 464.9,440.4" fill="rgba(204, 204, 204, 1)" stroke="rgba(204, 204, 204, 1)"></polygon><line x1="-988.3" y1="1297.9" x2="-989.9" y2="424.5" stroke="rgba(204, 204, 204, 1)" stroke-width="2"></line><polygon points="-989.9,424.5 -993.8,439.0 -989.9,432.0 -986.0,438.9" fill="rgba(204, 204, 204, 1)" stroke="rgba(204, 204, 204, 1)"></polygon><line x1="492.2" y1="1215.7" x2="492.3" y2="1040.9" stroke="rgba(204, 204, 204, 1)" stroke-width="2"></line><polygon points="492.3,1040.9 488.4,1055.4 492.3,1048.4 496.2,1055.4" fill="rgba(204, 204, 204, 1)" stroke="rgba(204, 204, 204, 1)"></polygon><line x1="311.9" y1="1219.0" x2="460.6" y2="1040.9" stroke="rgba(204, 204, 204, 1)" stroke-width="2"></line><polygon points="460.6,1040.9 448.4,1049.6 455.8,1046.7 454.3,1054.5" fill="rgba(204, 204, 204, 1)" stroke="rgba(204, 204, 204, 1)"></polygon><line x1="497.5" y1="-71.8" x2="-69.9" y2="29.5" stroke="rgba(204, 204, 204, 1)" stroke-width="2"></line><polygon points="-69.9,29.5 -54.9,30.8 -62.5,28.2 -56.3,23.2" fill="rgba(204, 204, 204, 1)" stroke="rgba(204, 204, 204, 1)"></polygon><line x1="959.2" y1="-47.0" x2="1170.9" y2="61.1" stroke="rgba(204, 204, 204, 1)" stroke-width="2"></line><polygon points="1170.9,61.1 1159.7,51.1 1164.2,57.7 1156.2,58.0" fill="rgba(204, 204, 204, 1)" stroke="rgba(204, 204, 204, 1)"></polygon><line x1="-1359.5" y1="1296.2" x2="-1005.4" y2="424.5" stroke="rgba(204, 204, 204, 1)" stroke-width="2"></line><polygon points="-1005.4,424.5 -1014.5,436.4 -1008.2,431.4 -1007.3,439.3" fill="rgba(204, 204, 204, 1)" stroke="rgba(204, 204, 204, 1)"></polygon><line x1="-1494.2" y1="1693.5" x2="-1387.6" y2="1372.2" stroke="rgba(204, 204, 204, 1)" stroke-width="2"></line><polygon points="-1387.6,1372.2 -1395.8,1384.7 -1389.9,1379.3 -1388.4,1387.2" fill="rgba(204, 204, 204, 1)" stroke="rgba(204, 204, 204, 1)"></polygon><line x1="-1168.3" y1="1696.2" x2="-1007.2" y2="1373.9" stroke="rgba(204, 204, 204, 1)" stroke-width="2"></line><polygon points="-1007.2,1373.9 -1017.2,1385.2 -1010.6,1380.7 -1010.2,1388.6" fill="rgba(204, 204, 204, 1)" stroke="rgba(204, 204, 204, 1)"></polygon><line x1="-1008.6" y1="1698.4" x2="-990.3" y2="1373.9" stroke="rgba(204, 204, 204, 1)" stroke-width="2"></line><polygon points="-990.3,1373.9 -995.0,1388.2 -990.8,1381.4 -987.3,1388.6" fill="rgba(204, 204, 204, 1)" stroke="rgba(204, 204, 204, 1)"></polygon><line x1="712.6" y1="1217.1" x2="789.3" y2="1040.9" stroke="rgba(204, 204, 204, 1)" stroke-width="2"></line><polygon points="789.3,1040.9 780.0,1052.6 786.3,1047.8 787.1,1055.7" fill="rgba(204, 204, 204, 1)" stroke="rgba(204, 204, 204, 1)"></polygon><line x1="865.0" y1="1214.6" x2="816.5" y2="1040.9" stroke="rgba(204, 204, 204, 1)" stroke-width="2"></line><polygon points="816.5,1040.9 816.6,1055.9 818.5,1048.1 824.1,1053.8" fill="rgba(204, 204, 204, 1)" stroke="rgba(204, 204, 204, 1)"></polygon><line x1="-1724.2" y1="1295.1" x2="-1020.7" y2="424.5" stroke="rgba(204, 204, 204, 1)" stroke-width="2"></line><polygon points="-1020.7,424.5 -1032.8,433.3 -1025.4,430.3 -1026.8,438.2" fill="rgba(204, 204, 204, 1)" stroke="rgba(204, 204, 204, 1)"></polygon><line x1="-2041.5" y1="1699.4" x2="-1784.6" y2="1371.1" stroke="rgba(204, 204, 204, 1)" stroke-width="2"></line><polygon points="-1784.6,1371.1 -1796.6,1380.2 -1789.3,1377.1 -1790.5,1384.9" fill="rgba(204, 204, 204, 1)" stroke="rgba(204, 204, 204, 1)"></polygon><line x1="-3063.2" y1="618.8" x2="-2776.2" y2="173.8" stroke="rgba(204, 204, 204, 1)" stroke-width="2"></line><polygon points="-2776.2,173.8 -2787.3,183.8 -2780.3,180.1 -2780.8,188.1" fill="rgba(204, 204, 204, 1)" stroke="rgba(204, 204, 204, 1)"></polygon><line x1="-2948.5" y1="618.8" x2="-2767.2" y2="173.8" stroke="rgba(204, 204, 204, 1)" stroke-width="2"></line><polygon points="-2767.2,173.8 -2776.2,185.7 -2770.0,180.7 -2769.1,188.7" fill="rgba(204, 204, 204, 1)" stroke="rgba(204, 204, 204, 1)"></polygon><line x1="-2825.1" y1="618.8" x2="-2757.5" y2="173.8" stroke="rgba(204, 204, 204, 1)" stroke-width="2"></line><polygon points="-2757.5,173.8 -2763.5,187.5 -2758.6,181.2 -2755.8,188.7" fill="rgba(204, 204, 204, 1)" stroke="rgba(204, 204, 204, 1)"></polygon><line x1="-2698.3" y1="618.8" x2="-2747.5" y2="173.8" stroke="rgba(204, 204, 204, 1)" stroke-width="2"></line><polygon points="-2747.5,173.8 -2749.8,188.6 -2746.7,181.2 -2742.0,187.7" fill="rgba(204, 204, 204, 1)" stroke="rgba(204, 204, 204, 1)"></polygon><line x1="-2569.3" y1="618.8" x2="-2737.3" y2="173.8" stroke="rgba(204, 204, 204, 1)" stroke-width="2"></line><polygon points="-2737.3,173.8 -2735.9,188.7 -2734.7,180.8 -2728.6,186.0" fill="rgba(204, 204, 204, 1)" stroke="rgba(204, 204, 204, 1)"></polygon><line x1="-196.8" y1="11.8" x2="-412.4" y2="-598.2" stroke="rgba(204, 204, 204, 1)" stroke-width="2"></line><polygon points="-412.4,-598.2 -411.3,-583.3 -409.9,-591.2 -403.9,-585.9" fill="rgba(204, 204, 204, 1)" stroke="rgba(204, 204, 204, 1)"></polygon><line x1="-296.9" y1="49.8" x2="-485.5" y2="49.8" stroke="rgba(204, 204, 204, 1)" stroke-width="2"></line><polygon points="-485.5,49.8 -471.1,53.7 -478.0,49.8 -471.1,45.9" fill="rgba(204, 204, 204, 1)" stroke="rgba(204, 204, 204, 1)"></polygon><line x1="-551.5" y1="42.9" x2="-707.0" y2="10.5" stroke="rgba(204, 204, 204, 1)" stroke-width="2"></line><polygon points="-707.0,10.5 -693.6,17.2 -699.6,12.0 -692.0,9.6" fill="rgba(204, 204, 204, 1)" stroke="rgba(204, 204, 204, 1)"></polygon><line x1="-551.5" y1="55.0" x2="-740.7" y2="84.8" stroke="rgba(204, 204, 204, 1)" stroke-width="2"></line><polygon points="-740.7,84.8 -725.7,86.4 -733.3,83.7 -727.0,78.8" fill="rgba(204, 204, 204, 1)" stroke="rgba(204, 204, 204, 1)"></polygon><line x1="-451.8" y1="-598.2" x2="-660.4" y2="-292.6" stroke="rgba(204, 204, 204, 1)" stroke-width="2"></line><polygon points="-660.4,-292.6 -649.0,-302.3 -656.2,-298.7 -655.4,-306.7" fill="rgba(204, 204, 204, 1)" stroke="rgba(204, 204, 204, 1)"></polygon><line x1="-780.3" y1="-253.4" x2="-929.3" y2="-251.5" stroke="rgba(204, 204, 204, 1)" stroke-width="2"></line><polygon points="-929.3,-251.5 -914.8,-247.8 -921.8,-251.6 -914.9,-255.6" fill="rgba(204, 204, 204, 1)" stroke="rgba(204, 204, 204, 1)"></polygon><line x1="-995.3" y1="-250.8" x2="-1078.1" y2="-250.0" stroke="rgba(204, 204, 204, 1)" stroke-width="2"></line><polygon points="-1078.1,-250.0 -1063.5,-246.2 -1070.6,-250.0 -1063.6,-254.0" fill="rgba(204, 204, 204, 1)" stroke="rgba(204, 204, 204, 1)"></polygon><line x1="-1805.8" y1="140.2" x2="-1919.1" y2="140.6" stroke="rgba(204, 204, 204, 1)" stroke-width="2"></line><polygon points="-1919.1,140.6 -1904.6,144.4 -1911.6,140.5 -1904.7,136.6" fill="rgba(204, 204, 204, 1)" stroke="rgba(204, 204, 204, 1)"></polygon><line x1="-1985.1" y1="139.9" x2="-2129.8" y2="136.6" stroke="rgba(204, 204, 204, 1)" stroke-width="2"></line><polygon points="-2129.8,136.6 -2115.4,140.9 -2122.3,136.8 -2115.2,133.1" fill="rgba(204, 204, 204, 1)" stroke="rgba(204, 204, 204, 1)"></polygon><line x1="-2233.8" y1="135.5" x2="-2661.7" y2="135.7" stroke="rgba(204, 204, 204, 1)" stroke-width="2"></line><polygon points="-2661.7,135.7 -2647.2,139.6 -2654.2,135.7 -2647.2,131.8" fill="rgba(204, 204, 204, 1)" stroke="rgba(204, 204, 204, 1)"></polygon><line x1="-1985.1" y1="111.4" x2="-2258.6" y2="-131.4" stroke="rgba(204, 204, 204, 1)" stroke-width="2"></line><polygon points="-2258.6,-131.4 -2250.3,-118.9 -2253.0,-126.4 -2245.2,-124.7" fill="rgba(204, 204, 204, 1)" stroke="rgba(204, 204, 204, 1)"></polygon><line x1="-1985.1" y1="118.8" x2="-2244.4" y2="-52.7" stroke="rgba(204, 204, 204, 1)" stroke-width="2"></line><polygon points="-2244.4,-52.7 -2234.4,-41.4 -2238.1,-48.5 -2230.1,-47.9" fill="rgba(204, 204, 204, 1)" stroke="rgba(204, 204, 204, 1)"></polygon><line x1="-1985.1" y1="126.5" x2="-2233.8" y2="20.1" stroke="rgba(204, 204, 204, 1)" stroke-width="2"></line><polygon points="-2233.8,20.1 -2222.0,29.3 -2226.9,23.0 -2218.9,22.2" fill="rgba(204, 204, 204, 1)" stroke="rgba(204, 204, 204, 1)"></polygon><line x1="-1969.7" y1="102.7" x2="-2144.2" y2="-274.0" stroke="rgba(204, 204, 204, 1)" stroke-width="2"></line><polygon points="-2144.2,-274.0 -2141.6,-259.2 -2141.1,-267.2 -2134.6,-262.4" fill="rgba(204, 204, 204, 1)" stroke="rgba(204, 204, 204, 1)"></polygon><line x1="126.0" y1="965.3" x2="436.2" y2="426.1" stroke="rgba(204, 204, 204, 1)" stroke-width="2"></line><polygon points="436.2,426.1 425.6,436.8 432.5,432.6 432.3,440.6" fill="rgba(204, 204, 204, 1)" stroke="rgba(204, 204, 204, 1)"></polygon><line x1="-170.6" y1="1296.3" x2="-955.8" y2="424.5" stroke="rgba(204, 204, 204, 1)" stroke-width="2"></line><polygon points="-955.8,424.5 -949.0,437.8 -950.8,430.0 -943.2,432.6" fill="rgba(204, 204, 204, 1)" stroke="rgba(204, 204, 204, 1)"></polygon><line x1="-144.5" y1="11.8" x2="547.7" y2="-665.4" stroke="rgba(204, 204, 204, 1)" stroke-width="2"></line><polygon points="547.7,-665.4 534.6,-658.1 542.3,-660.2 540.1,-652.5" fill="rgba(204, 204, 204, 1)" stroke="rgba(204, 204, 204, 1)"></polygon><line x1="619.5" y1="-741.4" x2="1021.0" y2="-1203.7" stroke="rgba(204, 204, 204, 1)" stroke-width="2"></line><polygon points="1021.0,-1203.7 1008.6,-1195.4 1016.1,-1198.1 1014.5,-1190.3" fill="rgba(204, 204, 204, 1)" stroke="rgba(204, 204, 204, 1)"></polygon><line x1="629.0" y1="-730.2" x2="1253.2" y2="-1122.7" stroke="rgba(204, 204, 204, 1)" stroke-width="2"></line><polygon points="1253.2,-1122.7 1238.8,-1118.2 1246.8,-1118.7 1243.0,-1111.7" fill="rgba(204, 204, 204, 1)" stroke="rgba(204, 204, 204, 1)"></polygon><line x1="560.6" y1="-741.4" x2="379.2" y2="-1007.7" stroke="rgba(204, 204, 204, 1)" stroke-width="2"></line><polygon points="379.2,-1007.7 384.2,-993.5 383.4,-1001.5 390.6,-997.9" fill="rgba(204, 204, 204, 1)" stroke="rgba(204, 204, 204, 1)"></polygon><line x1="544.8" y1="-741.4" x2="342.6" y2="-925.3" stroke="rgba(204, 204, 204, 1)" stroke-width="2"></line><polygon points="342.6,-925.3 350.7,-912.7 348.1,-920.3 355.9,-918.4" fill="rgba(204, 204, 204, 1)" stroke="rgba(204, 204, 204, 1)"></polygon><line x1="629.0" y1="-718.2" x2="1274.3" y2="-942.0" stroke="rgba(204, 204, 204, 1)" stroke-width="2"></line><polygon points="1274.3,-942.0 1259.4,-940.9 1267.3,-939.5 1261.9,-933.6" fill="rgba(204, 204, 204, 1)" stroke="rgba(204, 204, 204, 1)"></polygon><line x1="980.7" y1="-734.2" x2="1198.9" y2="-777.5" stroke="rgba(204, 204, 204, 1)" stroke-width="2"></line><polygon points="1198.9,-777.5 1184.0,-778.5 1191.6,-776.0 1185.5,-770.8" fill="rgba(204, 204, 204, 1)" stroke="rgba(204, 204, 204, 1)"></polygon><line x1="980.7" y1="-725.2" x2="1195.1" y2="-730.3" stroke="rgba(204, 204, 204, 1)" stroke-width="2"></line><polygon points="1195.1,-730.3 1180.5,-733.9 1187.6,-730.2 1180.7,-726.1" fill="rgba(204, 204, 204, 1)" stroke="rgba(204, 204, 204, 1)"></polygon><line x1="980.7" y1="-717.5" x2="1197.9" y2="-691.0" stroke="rgba(204, 204, 204, 1)" stroke-width="2"></line><polygon points="1197.9,-691.0 1184.0,-696.6 1190.5,-691.9 1183.0,-688.9" fill="rgba(204, 204, 204, 1)" stroke="rgba(204, 204, 204, 1)"></polygon><line x1="629.0" y1="-706.0" x2="876.7" y2="-720.8" stroke="rgba(204, 204, 204, 1)" stroke-width="2"></line><polygon points="876.7,-720.8 862.0,-723.8 869.2,-720.3 862.5,-716.0" fill="rgba(204, 204, 204, 1)" stroke="rgba(204, 204, 204, 1)"></polygon><line x1="1031.3" y1="-476.2" x2="1181.1" y2="-482.7" stroke="rgba(204, 204, 204, 1)" stroke-width="2"></line><polygon points="1181.1,-482.7 1166.5,-486.0 1173.7,-482.4 1166.8,-478.2" fill="rgba(204, 204, 204, 1)" stroke="rgba(204, 204, 204, 1)"></polygon><line x1="1031.3" y1="-462.6" x2="1190.0" y2="-434.3" stroke="rgba(204, 204, 204, 1)" stroke-width="2"></line><polygon points="1190.0,-434.3 1176.4,-440.6 1182.6,-435.6 1175.1,-433.0" fill="rgba(204, 204, 204, 1)" stroke="rgba(204, 204, 204, 1)"></polygon><line x1="629.0" y1="-677.9" x2="908.3" y2="-510.4" stroke="rgba(204, 204, 204, 1)" stroke-width="2"></line><polygon points="908.3,-510.4 897.8,-521.2 901.8,-514.3 893.8,-514.6" fill="rgba(204, 204, 204, 1)" stroke="rgba(204, 204, 204, 1)"></polygon><line x1="1031.3" y1="-441.1" x2="1196.7" y2="-353.7" stroke="rgba(204, 204, 204, 1)" stroke-width="2"></line><polygon points="1196.7,-353.7 1185.7,-363.9 1190.0,-357.2 1182.0,-357.0" fill="rgba(204, 204, 204, 1)" stroke="rgba(204, 204, 204, 1)"></polygon><line x1="544.0" y1="-719.2" x2="294.3" y2="-811.6" stroke="rgba(204, 204, 204, 1)" stroke-width="2"></line><polygon points="294.3,-811.6 306.6,-802.9 301.3,-809.0 309.2,-810.2" fill="rgba(204, 204, 204, 1)" stroke="rgba(204, 204, 204, 1)"></polygon><rect x="-2637.5" y="-882.7" width="320.0" height="497.1" rx="8" ry="8" fill="rgba(0, 0, 0, 0)" stroke="rgba(204, 204, 204, 1)" stroke-width="2"></rect><text x="-2623.5" y="-852.7" fill="rgba(204, 204, 204, 1)" font-size="32" text-anchor="start" font-family="MiSans">颜色表示</text></svg>