<svg xmlns="http://www.w3.org/2000/svg" width="5431.938395397158" height="3241.850006752411" viewBox="-3177.372737649249 -1309.7451284291958 5431.938395397158 3241.850006752411" style="background-color:rgba(31, 31, 31, 1)"><rect x="-633.6925490033898" y="1761.7426582045198" width="110" height="76" rx="8" ry="8" fill="rgba(59, 130, 246, 1)" stroke="rgba(204, 204, 204, 1)" stroke-width="2"></rect><text x="-578.6925490033898" y="1813.7426582045198" fill="rgba(255, 255, 255, 1)" font-size="32" text-anchor="middle" font-family="MiSans">Edge</text><rect x="826.2924532658419" y="1630.8203708631113" width="150" height="76" rx="8" ry="8" fill="rgba(59, 130, 246, 1)" stroke="rgba(204, 204, 204, 1)" stroke-width="2"></rect><text x="901.2924532658419" y="1682.8203708631113" fill="rgba(255, 255, 255, 1)" font-size="32" text-anchor="middle" font-family="MiSans">Section</text><rect x="1046.4151474695825" y="1826.1048783232154" width="114" height="76" rx="8" ry="8" fill="rgba(59, 130, 246, 1)" stroke="rgba(204, 204, 204, 1)" stroke-width="2"></rect><text x="1103.4151474695825" y="1878.1048783232154" fill="rgba(255, 255, 255, 1)" font-size="32" text-anchor="middle" font-family="MiSans">Node</text><rect x="-296.88502699377875" y="11.815482010648225" width="227" height="76" rx="8" ry="8" fill="rgba(168, 85, 247, 1)" stroke="rgba(204, 204, 204, 1)" stroke-width="2"></rect><text x="-183.38502699377875" y="63.815482010648225" fill="rgba(255, 255, 255, 1)" font-size="32" text-anchor="middle" font-family="MiSans">StageObject</text><rect x="1191.2279452275604" y="1829.8756122612367" width="228" height="76" rx="8" ry="8" fill="rgba(59, 130, 246, 1)" stroke="rgba(204, 204, 204, 1)" stroke-width="2"></rect><text x="1305.2279452275604" y="1881.8756122612367" fill="rgba(255, 255, 255, 1)" font-size="32" text-anchor="middle" font-family="MiSans">BubbleNode</text><rect x="1458.2246359674466" y="1833.7399733055836" width="164" height="76" rx="8" ry="8" fill="rgba(59, 130, 246, 1)" stroke="rgba(204, 204, 204, 1)" stroke-width="2"></rect><text x="1540.2246359674466" y="1885.7399733055836" fill="rgba(255, 255, 255, 1)" font-size="32" text-anchor="middle" font-family="MiSans">fileNode</text><rect x="1684.0823775184629" y="1828.1464200564637" width="312.390625" height="76" rx="8" ry="8" fill="rgba(59, 130, 246, 1)" stroke="rgba(204, 204, 204, 1)" stroke-width="2"></rect><text x="1840.2776900184629" y="1880.1464200564637" fill="rgba(255, 255, 255, 1)" font-size="32" text-anchor="middle" font-family="MiSans">WebsiteLinkNode</text><rect x="2009.5656577479097" y="1826.0600191920284" width="215" height="76" rx="8" ry="8" fill="rgba(59, 130, 246, 1)" stroke="rgba(204, 204, 204, 1)" stroke-width="2"></rect><text x="2117.0656577479094" y="1878.0600191920284" fill="rgba(255, 255, 255, 1)" font-size="32" text-anchor="middle" font-family="MiSans">ImageNode</text><rect x="1157.9261231969274" y="961.6085342433213" width="329" height="76" rx="8" ry="8" fill="rgba(168, 85, 247, 1)" stroke="rgba(204, 204, 204, 1)" stroke-width="2"></rect><text x="1322.4261231969274" y="1013.6085342433213" fill="rgba(255, 255, 255, 1)" font-size="32" text-anchor="middle" font-family="MiSans">ConnectableEntity</text><rect x="486.7774950061828" y="15.145096319069296" width="218" height="76" rx="8" ry="8" fill="rgba(0, 0, 0, 0)" stroke="rgba(204, 204, 204, 1)" stroke-width="2"></rect><text x="595.7774950061828" y="67.1450963190693" fill="rgba(255, 255, 255, 1)" font-size="32" text-anchor="middle" font-family="MiSans">一切具有碰撞箱的东西</text><rect x="1552.283140166173" y="957.6453725118564" width="528" height="76" rx="8" ry="8" fill="rgba(0, 0, 0, 0)" stroke="rgba(204, 204, 204, 1)" stroke-width="2"></rect><text x="1816.283140166173" y="1009.6453725118564" fill="rgba(255, 255, 255, 1)" font-size="32" text-anchor="middle" font-family="MiSans">一切可被Edge连接的东西，且会算入图分析算法的东西</text><rect x="493.80918894019317" y="1630.0275565725574" width="326" height="76" rx="8" ry="8" fill="rgba(0, 0, 0, 0)" stroke="rgba(204, 204, 204, 1)" stroke-width="2"></rect><text x="656.8091889401932" y="1682.0275565725574" fill="rgba(255, 255, 255, 1)" font-size="32" text-anchor="middle" font-family="MiSans">container: Entity[]</text><rect x="395.06226776113715" y="350.1402281712296" width="126" height="76" rx="8" ry="8" fill="rgba(168, 85, 247, 1)" stroke="rgba(204, 204, 204, 1)" stroke-width="2"></rect><text x="458.06226776113715" y="402.1402281712296" fill="rgba(255, 255, 255, 1)" font-size="32" text-anchor="middle" font-family="MiSans">Entity</text><rect x="497.4678964984761" y="-120.43445034098278" width="119" height="76" rx="8" ry="8" fill="rgba(0, 0, 0, 0)" stroke="rgba(204, 204, 204, 1)" stroke-width="2"></rect><text x="556.9678964984761" y="-68.43445034098278" fill="rgba(255, 255, 255, 1)" font-size="32" text-anchor="middle" font-family="MiSans">有uuid</text><rect x="237.65329650544032" y="1219.044922404907" width="85" height="76" rx="8" ry="8" fill="rgba(59, 130, 246, 1)" stroke="rgba(204, 204, 204, 1)" stroke-width="2"></rect><text x="280.1532965054403" y="1271.044922404907" fill="rgba(255, 255, 255, 1)" font-size="32" text-anchor="middle" font-family="MiSans">分割线</text><rect x="959.726319204312" y="970.0294960171906" width="66" height="76" rx="8" ry="8" fill="rgba(59, 130, 246, 1)" stroke="rgba(204, 204, 204, 1)" stroke-width="2"></rect><text x="992.726319204312" y="1022.0294960171906" fill="rgba(255, 255, 255, 1)" font-size="32" text-anchor="middle" font-family="MiSans">贴纸</text><rect x="692.845488551983" y="964.8770977540513" width="226" height="76" rx="8" ry="8" fill="rgba(168, 85, 247, 1)" stroke="rgba(204, 204, 204, 1)" stroke-width="2"></rect><text x="805.845488551983" y="1016.8770977540513" fill="rgba(255, 255, 255, 1)" font-size="32" text-anchor="middle" font-family="MiSans">EffectOrigin</text><rect x="806.3022109650144" y="-123.01756106231716" width="157" height="76" rx="8" ry="8" fill="rgba(0, 0, 0, 0)" stroke="rgba(204, 204, 204, 1)" stroke-width="2"></rect><text x="884.8022109650144" y="-71.01756106231716" fill="rgba(255, 255, 255, 1)" font-size="32" text-anchor="middle" font-family="MiSans">uuid的意义</text><rect x="1180.0006331839131" y="-219.91167866378692" width="360" height="76" rx="8" ry="8" fill="rgba(0, 0, 0, 0)" stroke="rgba(204, 204, 204, 1)" stroke-width="2"></rect><text x="1360.0006331839131" y="-167.91167866378692" fill="rgba(255, 255, 255, 1)" font-size="32" text-anchor="middle" font-family="MiSans">json化时，表示各个物体之间的关系</text><rect x="1188.1953665153926" y="-124.30142818507227" width="142" height="76" rx="8" ry="8" fill="rgba(0, 0, 0, 0)" stroke="rgba(204, 204, 204, 1)" stroke-width="2"></rect><text x="1259.1953665153926" y="-72.30142818507227" fill="rgba(255, 255, 255, 1)" font-size="32" text-anchor="middle" font-family="MiSans">图论分析算法</text><rect x="1188.1953665153928" y="-33.745844711281734" width="217" height="76" rx="8" ry="8" fill="rgba(0, 0, 0, 0)" stroke="rgba(204, 204, 204, 1)" stroke-width="2"></rect><text x="1296.6953665153928" y="18.254155288718266" fill="rgba(255, 255, 255, 1)" font-size="32" text-anchor="middle" font-family="MiSans">优化，作为key使用</text><rect x="-2032.094350227701" y="294.7590311027167" width="383" height="76" rx="8" ry="8" fill="rgba(0, 0, 0, 0)" stroke="rgba(204, 204, 204, 1)" stroke-width="2"></rect><text x="-1840.594350227701" y="346.7590311027167" fill="rgba(255, 255, 255, 1)" font-size="32" text-anchor="middle" font-family="MiSans">与Connectable实时关联的东西</text><rect x="-1833.9617589857153" y="1695.0830238460003" width="142" height="76" rx="8" ry="8" fill="rgba(59, 130, 246, 1)" stroke="rgba(204, 204, 204, 1)" stroke-width="2"></rect><text x="-1762.9617589857153" y="1747.0830238460003" fill="rgba(255, 255, 255, 1)" font-size="32" text-anchor="middle" font-family="MiSans">图论分析结果</text><rect x="-867.2859256448197" y="1761.1241608819516" width="167" height="76" rx="8" ry="8" fill="rgba(59, 130, 246, 1)" stroke="rgba(204, 204, 204, 1)" stroke-width="2"></rect><text x="-783.7859256448197" y="1813.1241608819516" fill="rgba(255, 255, 255, 1)" font-size="32" text-anchor="middle" font-family="MiSans">全连接Edge</text><rect x="-1095.9877764284129" y="348.4542196877194" width="212" height="76" rx="8" ry="8" fill="rgba(168, 85, 247, 1)" stroke="rgba(204, 204, 204, 1)" stroke-width="2"></rect><text x="-989.9877764284129" y="400.4542196877194" fill="rgba(255, 255, 255, 1)" font-size="32" text-anchor="middle" font-family="MiSans">Association</text><rect x="-2284.517798229437" y="388.1971739054781" width="529" height="76" rx="8" ry="8" fill="rgba(0, 0, 0, 0)" stroke="rgba(204, 204, 204, 1)" stroke-width="2"></rect><text x="-2020.0177982294372" y="440.1971739054781" fill="rgba(255, 255, 255, 1)" font-size="32" text-anchor="middle" font-family="MiSans">有一个非空数组，表示关联的connectable的数组</text><rect x="-1541.9636635836819" y="1296.1853628152935" width="334" height="76" rx="8" ry="8" fill="rgba(168, 85, 247, 1)" stroke="rgba(204, 204, 204, 1)" stroke-width="2"></rect><text x="-1374.9636635836819" y="1348.1853628152935" fill="rgba(255, 255, 255, 1)" font-size="32" text-anchor="middle" font-family="MiSans">SectionAssociation</text><rect x="-769.7832498442436" y="1297.6584553515313" width="415" height="76" rx="8" ry="8" fill="rgba(168, 85, 247, 1)" stroke="rgba(204, 204, 204, 1)" stroke-width="2"></rect><text x="-562.2832498442436" y="1349.6584553515313" fill="rgba(255, 255, 255, 1)" font-size="32" text-anchor="middle" font-family="MiSans">ConnectableAssociation</text><rect x="-2341.651324492499" y="1301.781980167277" width="301" height="76" rx="8" ry="8" fill="rgba(0, 0, 0, 0)" stroke="rgba(204, 204, 204, 1)" stroke-width="2"></rect><text x="-2191.151324492499" y="1353.781980167277" fill="rgba(255, 255, 255, 1)" font-size="32" text-anchor="middle" font-family="MiSans">Xxx...Association</text><rect x="743.3542702547958" y="296.16830755292835" width="294" height="76" rx="8" ry="8" fill="rgba(0, 0, 0, 0)" stroke="rgba(204, 204, 204, 1)" stroke-width="2"></rect><text x="890.3542702547958" y="348.16830755292835" fill="rgba(255, 255, 255, 1)" font-size="32" text-anchor="middle" font-family="MiSans">一切独立存在，独立移动的东西</text><rect x="743.3542702547959" y="375.0081788498984" width="397" height="76" rx="8" ry="8" fill="rgba(0, 0, 0, 0)" stroke="rgba(204, 204, 204, 1)" stroke-width="2"></rect><text x="941.8542702547959" y="427.0081788498984" fill="rgba(255, 255, 255, 1)" font-size="32" text-anchor="middle" font-family="MiSans">一切能放入Section里附带移动的东西</text><rect x="411.8484811226747" y="964.9189300974014" width="161" height="76" rx="8" ry="8" fill="rgba(168, 85, 247, 1)" stroke="rgba(204, 204, 204, 1)" stroke-width="2"></rect><text x="492.3484811226747" y="1016.9189300974014" fill="rgba(255, 255, 255, 1)" font-size="32" text-anchor="middle" font-family="MiSans">独立线存在的线</text><rect x="-1205.2084305440317" y="1297.946343387351" width="434" height="76" rx="8" ry="8" fill="rgba(168, 85, 247, 1)" stroke="rgba(204, 204, 204, 1)" stroke-width="2"></rect><text x="-988.2084305440317" y="1349.946343387351" fill="rgba(255, 255, 255, 1)" font-size="32" text-anchor="middle" font-family="MiSans">AssociationOfAssociation</text><rect x="-2607.539154115926" y="-802.6557101258333" width="66" height="76" rx="8" ry="8" fill="rgba(22, 163, 74, 1)" stroke="rgba(204, 204, 204, 1)" stroke-width="2"></rect><text x="-2574.539154115926" y="-750.6557101258333" fill="rgba(255, 255, 255, 1)" font-size="32" text-anchor="middle" font-family="MiSans">接口</text><rect x="-2607.53745709067" y="-724.9029976961134" width="85" height="76" rx="8" ry="8" fill="rgba(168, 85, 247, 1)" stroke="rgba(204, 204, 204, 1)" stroke-width="2"></rect><text x="-2565.03745709067" y="-672.9029976961134" fill="rgba(255, 255, 255, 1)" font-size="32" text-anchor="middle" font-family="MiSans">抽象类</text><rect x="-2607.5402434913412" y="-647.1000314877656" width="47" height="76" rx="8" ry="8" fill="rgba(59, 130, 246, 1)" stroke="rgba(204, 204, 204, 1)" stroke-width="2"></rect><text x="-2584.0402434913412" y="-595.1000314877656" fill="rgba(255, 255, 255, 1)" font-size="32" text-anchor="middle" font-family="MiSans">类</text><rect x="440.16543433278173" y="1215.686473094965" width="104" height="76" rx="8" ry="8" fill="rgba(59, 130, 246, 1)" stroke="rgba(204, 204, 204, 1)" stroke-width="2"></rect><text x="492.16543433278173" y="1267.686473094965" fill="rgba(255, 255, 255, 1)" font-size="32" text-anchor="middle" font-family="MiSans">双箭头线</text><rect x="934.2540103802776" y="61.11716828178044" width="622" height="76" rx="8" ry="8" fill="rgba(0, 0, 0, 0)" stroke="rgba(204, 204, 204, 1)" stroke-width="2"></rect><text x="1245.2540103802776" y="113.11716828178044" fill="rgba(255, 255, 255, 1)" font-size="32" text-anchor="middle" font-family="MiSans">由于有“关系的关系”，所以关系也有uuid，所以一切都有uuid</text><rect x="-1587.296230087541" y="1693.5487036720613" width="161" height="76" rx="8" ry="8" fill="rgba(59, 130, 246, 1)" stroke="rgba(204, 204, 204, 1)" stroke-width="2"></rect><text x="-1506.796230087541" y="1745.5487036720613" fill="rgba(255, 255, 255, 1)" font-size="32" text-anchor="middle" font-family="MiSans">树形图分析结果</text><rect x="-791.9598017772979" y="-36.38624465713578" width="85" height="76" rx="8" ry="8" fill="rgba(0, 0, 0, 0)" stroke="rgba(204, 204, 204, 1)" stroke-width="2"></rect><text x="-749.4598017772979" y="15.613755342864224" fill="rgba(255, 255, 255, 1)" font-size="32" text-anchor="middle" font-family="MiSans">碰撞箱</text><rect x="-2841.6975301790953" y="97.7725319676679" width="180" height="76" rx="8" ry="8" fill="rgba(168, 85, 247, 1)" stroke="rgba(204, 204, 204, 1)" stroke-width="2"></rect><text x="-2751.6975301790953" y="149.7725319676679" fill="rgba(255, 255, 255, 1)" font-size="32" text-anchor="middle" font-family="MiSans">可参与碰撞的图形</text><rect x="-3147.372737649249" y="225.78548521563744" width="123" height="76" rx="8" ry="8" fill="rgba(0, 0, 0, 0)" stroke="rgba(204, 204, 204, 1)" stroke-width="2"></rect><text x="-3085.872737649249" y="277.78548521563744" fill="rgba(255, 255, 255, 1)" font-size="32" text-anchor="middle" font-family="MiSans">碰撞管理器</text><rect x="-2607.539115157406" y="-569.3237395903324" width="260" height="76" rx="8" ry="8" fill="rgba(239, 68, 68, 1)" stroke="rgba(204, 204, 204, 1)" stroke-width="2"></rect><text x="-2477.539115157406" y="-517.3237395903324" fill="rgba(255, 255, 255, 1)" font-size="32" text-anchor="middle" font-family="MiSans">NameSpace单例</text><rect x="-1239.248959646432" y="1696.150459873733" width="104" height="76" rx="8" ry="8" fill="rgba(0, 0, 0, 0)" stroke="rgba(204, 204, 204, 1)" stroke-width="2"></rect><text x="-1187.248959646432" y="1748.150459873733" fill="rgba(255, 255, 255, 1)" font-size="32" text-anchor="middle" font-family="MiSans">双向关系</text><rect x="-1062.7574212561676" y="1698.3592242898776" width="104" height="76" rx="8" ry="8" fill="rgba(0, 0, 0, 0)" stroke="rgba(204, 204, 204, 1)" stroke-width="2"></rect><text x="-1010.7574212561676" y="1750.3592242898776" fill="rgba(255, 255, 255, 1)" font-size="32" text-anchor="middle" font-family="MiSans">单向关系</text><rect x="634.5627708461692" y="1217.140607363221" width="123" height="76" rx="8" ry="8" fill="rgba(59, 130, 246, 1)" stroke="rgba(204, 204, 204, 1)" stroke-width="2"></rect><text x="696.0627708461692" y="1269.140607363221" fill="rgba(255, 255, 255, 1)" font-size="32" text-anchor="middle" font-family="MiSans">烟雾弹遮罩</text><rect x="842.6610585652695" y="1214.606005539802" width="66" height="76" rx="8" ry="8" fill="rgba(59, 130, 246, 1)" stroke="rgba(204, 204, 204, 1)" stroke-width="2"></rect><text x="875.6610585652695" y="1266.606005539802" fill="rgba(255, 255, 255, 1)" font-size="32" text-anchor="middle" font-family="MiSans">烟花</text><rect x="-1908.9121886282269" y="1295.1460886791904" width="308" height="76" rx="8" ry="8" fill="rgba(168, 85, 247, 1)" stroke="rgba(204, 204, 204, 1)" stroke-width="2"></rect><text x="-1754.9121886282269" y="1347.1460886791904" fill="rgba(255, 255, 255, 1)" font-size="32" text-anchor="middle" font-family="MiSans">AssociationEffect</text><rect x="-2132.6984127477886" y="1699.383546754885" width="123" height="76" rx="8" ry="8" fill="rgba(0, 0, 0, 0)" stroke="rgba(204, 204, 204, 1)" stroke-width="2"></rect><text x="-2071.1984127477886" y="1751.383546754885" fill="rgba(255, 255, 255, 1)" font-size="32" text-anchor="middle" font-family="MiSans">引力波特效</text><rect x="-2607.540891398488" y="-491.5186186274827" width="66" height="76" rx="8" ry="8" fill="rgba(234, 179, 8, 1)" stroke="rgba(204, 204, 204, 1)" stroke-width="2"></rect><text x="-2574.540891398488" y="-439.5186186274827" fill="rgba(0, 0, 0, 1)" font-size="32" text-anchor="middle" font-family="MiSans">对象</text><rect x="-3120.7324512687046" y="618.7573869047203" width="66" height="76" rx="8" ry="8" fill="rgba(59, 130, 246, 1)" stroke="rgba(204, 204, 204, 1)" stroke-width="2"></rect><text x="-3087.7324512687046" y="670.7573869047203" fill="rgba(255, 255, 255, 1)" font-size="32" text-anchor="middle" font-family="MiSans">矩形</text><rect x="-2997.0285498931344" y="618.7573869047203" width="66" height="76" rx="8" ry="8" fill="rgba(59, 130, 246, 1)" stroke="rgba(204, 204, 204, 1)" stroke-width="2"></rect><text x="-2964.0285498931344" y="670.7573869047203" fill="rgba(255, 255, 255, 1)" font-size="32" text-anchor="middle" font-family="MiSans">圆形</text><rect x="-2873.324648517565" y="618.7573869047203" width="85" height="76" rx="8" ry="8" fill="rgba(59, 130, 246, 1)" stroke="rgba(204, 204, 204, 1)" stroke-width="2"></rect><text x="-2830.824648517565" y="670.7573869047203" fill="rgba(255, 255, 255, 1)" font-size="32" text-anchor="middle" font-family="MiSans">线段形</text><rect x="-2717.620747141995" y="618.7573869047203" width="47" height="76" rx="8" ry="8" fill="rgba(59, 130, 246, 1)" stroke="rgba(204, 204, 204, 1)" stroke-width="2"></rect><text x="-2694.120747141995" y="670.7573869047203" fill="rgba(255, 255, 255, 1)" font-size="32" text-anchor="middle" font-family="MiSans">点</text><rect x="-2625.9168457664255" y="618.7573869047203" width="142" height="76" rx="8" ry="8" fill="rgba(59, 130, 246, 1)" stroke="rgba(204, 204, 204, 1)" stroke-width="2"></rect><text x="-2554.9168457664255" y="670.7573869047203" fill="rgba(255, 255, 255, 1)" font-size="32" text-anchor="middle" font-family="MiSans">贝塞尔线段形</text><rect x="-527.3558681921764" y="-674.2413538478495" width="203" height="76" rx="8" ry="8" fill="rgba(22, 163, 74, 1)" stroke="rgba(204, 204, 204, 1)" stroke-width="2"></rect><text x="-425.85586819217644" y="-622.2413538478495" fill="rgba(255, 255, 255, 1)" font-size="32" text-anchor="middle" font-family="MiSans">Disposable</text><rect x="-551.5480563105855" y="11.794651927506038" width="66" height="76" rx="8" ry="8" fill="rgba(0, 0, 0, 0)" stroke="rgba(204, 204, 204, 1)" stroke-width="2"></rect><text x="-518.5480563105855" y="63.79465192750604" fill="rgba(255, 255, 255, 1)" font-size="32" text-anchor="middle" font-family="MiSans">字段</text><rect x="-863.6591237056975" y="56.55092223991811" width="123" height="76" rx="8" ry="8" fill="rgba(0, 0, 0, 0)" stroke="rgba(204, 204, 204, 1)" stroke-width="2"></rect><text x="-802.1591237056975" y="108.55092223991811" fill="rgba(255, 255, 255, 1)" font-size="32" text-anchor="middle" font-family="MiSans">渲染函数？</text><rect x="-780.3119426582772" y="-292.55424275575973" width="188" height="76" rx="8" ry="8" fill="rgba(0, 0, 0, 0)" stroke="rgba(204, 204, 204, 1)" stroke-width="2"></rect><text x="-686.3119426582772" y="-240.55424275575973" fill="rgba(255, 255, 255, 1)" font-size="32" text-anchor="middle" font-family="MiSans">Extension</text><rect x="-995.3364616516917" y="-289.08416762719185" width="66" height="76" rx="8" ry="8" fill="rgba(0, 0, 0, 0)" stroke="rgba(204, 204, 204, 1)" stroke-width="2"></rect><text x="-962.3364616516917" y="-237.08416762719185" fill="rgba(255, 255, 255, 1)" font-size="32" text-anchor="middle" font-family="MiSans">字段</text><rect x="-1255.0501472538772" y="-287.1309224765228" width="177" height="76" rx="8" ry="8" fill="rgba(0, 0, 0, 0)" stroke="rgba(204, 204, 204, 1)" stroke-width="2"></rect><text x="-1166.5501472538772" y="-235.1309224765228" fill="rgba(255, 255, 255, 1)" font-size="32" text-anchor="middle" font-family="MiSans">init(core)</text><rect x="-1805.7593190654652" y="102.05154638097056" width="104" height="76" rx="8" ry="8" fill="rgba(59, 130, 246, 1)" stroke="rgba(204, 204, 204, 1)" stroke-width="2"></rect><text x="-1753.7593190654652" y="154.05154638097056" fill="rgba(255, 255, 255, 1)" font-size="32" text-anchor="middle" font-family="MiSans">碰撞箱类</text><rect x="-1985.146987110097" y="102.67783673206466" width="66" height="76" rx="8" ry="8" fill="rgba(0, 0, 0, 0)" stroke="rgba(204, 204, 204, 1)" stroke-width="2"></rect><text x="-1952.146987110097" y="154.67783673206466" fill="rgba(255, 255, 255, 1)" font-size="32" text-anchor="middle" font-family="MiSans">字段</text><rect x="-2233.7548057969593" y="97.46573878688122" width="104" height="76" rx="8" ry="8" fill="rgba(0, 0, 0, 0)" stroke="rgba(204, 204, 204, 1)" stroke-width="2"></rect><text x="-2181.7548057969593" y="149.46573878688122" fill="rgba(255, 255, 255, 1)" font-size="32" text-anchor="middle" font-family="MiSans">图形数组</text><rect x="-2372.4005767073004" y="-207.38519006037694" width="142" height="76" rx="8" ry="8" fill="rgba(0, 0, 0, 0)" stroke="rgba(204, 204, 204, 1)" stroke-width="2"></rect><text x="-2301.4005767073004" y="-155.38519006037694" fill="rgba(255, 255, 255, 1)" font-size="32" text-anchor="middle" font-family="MiSans">鼠标是否在内</text><rect x="-2372.805817110085" y="-128.6787678026589" width="142" height="76" rx="8" ry="8" fill="rgba(0, 0, 0, 0)" stroke="rgba(204, 204, 204, 1)" stroke-width="2"></rect><text x="-2301.805817110085" y="-76.67876780265891" fill="rgba(255, 255, 255, 1)" font-size="32" text-anchor="middle" font-family="MiSans">鼠标是否框选</text><rect x="-2375.780825412723" y="-48.35329139455479" width="142" height="76" rx="8" ry="8" fill="rgba(0, 0, 0, 0)" stroke="rgba(204, 204, 204, 1)" stroke-width="2"></rect><text x="-2304.780825412723" y="3.6467086054452125" fill="rgba(255, 255, 255, 1)" font-size="32" text-anchor="middle" font-family="MiSans">划线是否切中</text><rect x="-2232.816384042203" y="-349.96428012145435" width="142" height="76" rx="8" ry="8" fill="rgba(0, 0, 0, 0)" stroke="rgba(204, 204, 204, 1)" stroke-width="2"></rect><text x="-2161.816384042203" y="-297.96428012145435" fill="rgba(255, 255, 255, 1)" font-size="32" text-anchor="middle" font-family="MiSans">更新形状数组</text><rect x="2.5866716450656497" y="965.2854702738496" width="203.0625" height="76" rx="8" ry="8" fill="rgba(59, 130, 246, 1)" stroke="rgba(204, 204, 204, 1)" stroke-width="2"></rect><text x="104.11792164506565" y="1017.2854702738496" fill="rgba(255, 255, 255, 1)" font-size="32" text-anchor="middle" font-family="MiSans">VeenCircle</text><rect x="-329.95705138515996" y="1296.3410865467374" width="387.0625" height="76" rx="8" ry="8" fill="rgba(59, 130, 246, 1)" stroke="rgba(204, 204, 204, 1)" stroke-width="2"></rect><text x="-136.42580138515996" y="1348.3410865467374" fill="rgba(255, 255, 255, 1)" font-size="32" text-anchor="middle" font-family="MiSans">VeenCircleAssociation</text><rect x="-214.0347870694721" y="-669.2305326092015" width="164" height="76" rx="8" ry="8" fill="rgba(22, 163, 74, 1)" stroke="rgba(204, 204, 204, 1)" stroke-width="2"></rect><text x="-132.0347870694721" y="-617.2305326092015" fill="rgba(255, 255, 255, 1)" font-size="32" text-anchor="middle" font-family="MiSans">Tickable</text><rect x="544.0335697203313" y="-741.4378642138938" width="85" height="76" rx="8" ry="8" fill="rgba(0, 0, 0, 0)" stroke="rgba(204, 204, 204, 1)" stroke-width="2"></rect><text x="586.5335697203313" y="-689.4378642138938" fill="rgba(255, 255, 255, 1)" font-size="32" text-anchor="middle" font-family="MiSans">新设计</text><rect x="806.521172453898" y="-1279.7451284291958" width="495" height="76" rx="8" ry="8" fill="rgba(0, 0, 0, 0)" stroke="rgba(204, 204, 204, 1)" stroke-width="2"></rect><text x="1054.021172453898" y="-1227.7451284291958" fill="rgba(255, 255, 255, 1)" font-size="32" text-anchor="middle" font-family="MiSans">onObjectClick(mouseButton)</text><rect x="1008.5920733866392" y="-1198.6628531594772" width="610" height="76" rx="8" ry="8" fill="rgba(0, 0, 0, 0)" stroke="rgba(204, 204, 204, 1)" stroke-width="2"></rect><text x="1313.5920733866392" y="-1146.6628531594772" fill="rgba(255, 255, 255, 1)" font-size="32" text-anchor="middle" font-family="MiSans">onObjectDoubleClick(mouseButton)</text><rect x="175.33283230599096" y="-1083.6812311097758" width="356" height="76" rx="8" ry="8" fill="rgba(0, 0, 0, 0)" stroke="rgba(204, 204, 204, 1)" stroke-width="2"></rect><text x="353.33283230599096" y="-1031.6812311097758" fill="rgba(255, 255, 255, 1)" font-size="32" text-anchor="middle" font-family="MiSans">onMouseMoveEnter</text><rect x="120.30532763775722" y="-1001.323669054357" width="361" height="76" rx="8" ry="8" fill="rgba(0, 0, 0, 0)" stroke="rgba(204, 204, 204, 1)" stroke-width="2"></rect><text x="300.8053276377572" y="-949.323669054357" fill="rgba(255, 255, 255, 1)" font-size="32" text-anchor="middle" font-family="MiSans">onMouseMoveLeave</text><rect x="1193.125391019983" y="-853.465899356346" width="395" height="76" rx="8" ry="8" fill="rgba(0, 0, 0, 0)" stroke="rgba(204, 204, 204, 1)" stroke-width="2"></rect><text x="1390.625391019983" y="-801.465899356346" fill="rgba(255, 255, 255, 1)" font-size="32" text-anchor="middle" font-family="MiSans">onRectangleSelectAdd</text><rect x="1195.0586272964647" y="-773.9358043133652" width="461" height="76" rx="8" ry="8" fill="rgba(0, 0, 0, 0)" stroke="rgba(204, 204, 204, 1)" stroke-width="2"></rect><text x="1425.5586272964647" y="-721.9358043133652" fill="rgba(255, 255, 255, 1)" font-size="32" text-anchor="middle" font-family="MiSans">onRectangleSelectRemove</text><rect x="1145.4052701490423" y="-1017.9999438753243" width="477" height="76" rx="8" ry="8" fill="rgba(0, 0, 0, 0)" stroke="rgba(204, 204, 204, 1)" stroke-width="2"></rect><text x="1383.9052701490423" y="-965.9999438753243" fill="rgba(255, 255, 255, 1)" font-size="32" text-anchor="middle" font-family="MiSans">onDragMove(mouseButton)</text><rect x="1197.901813970825" y="-696.4089179760803" width="533" height="76" rx="8" ry="8" fill="rgba(0, 0, 0, 0)" stroke="rgba(204, 204, 204, 1)" stroke-width="2"></rect><text x="1464.401813970825" y="-644.4089179760803" fill="rgba(255, 255, 255, 1)" font-size="32" text-anchor="middle" font-family="MiSans">_rectangleSelectLevel: number</text><rect x="876.7098625800674" y="-761.8942473585821" width="104" height="76" rx="8" ry="8" fill="rgba(0, 0, 0, 0)" stroke="rgba(204, 204, 204, 1)" stroke-width="2"></rect><text x="928.7098625800674" y="-709.8942473585821" fill="rgba(255, 255, 255, 1)" font-size="32" text-anchor="middle" font-family="MiSans">框选相关</text><rect x="1181.1495806056291" y="-527.3056968032938" width="303" height="76" rx="8" ry="8" fill="rgba(0, 0, 0, 0)" stroke="rgba(204, 204, 204, 1)" stroke-width="2"></rect><text x="1332.6495806056291" y="-475.3056968032938" fill="rgba(255, 255, 255, 1)" font-size="32" text-anchor="middle" font-family="MiSans">onLineSelectAdd</text><rect x="1190.0147899276153" y="-439.3787121179246" width="369" height="76" rx="8" ry="8" fill="rgba(0, 0, 0, 0)" stroke="rgba(204, 204, 204, 1)" stroke-width="2"></rect><text x="1374.5147899276153" y="-387.3787121179246" fill="rgba(255, 255, 255, 1)" font-size="32" text-anchor="middle" font-family="MiSans">onLineSelectRemove</text><rect x="908.2541330432604" y="-511.5572008001052" width="123" height="76" rx="8" ry="8" fill="rgba(0, 0, 0, 0)" stroke="rgba(204, 204, 204, 1)" stroke-width="2"></rect><text x="969.7541330432604" y="-459.5572008001052" fill="rgba(255, 255, 255, 1)" font-size="32" text-anchor="middle" font-family="MiSans">删除线相关</text><rect x="1181.5838665200995" y="-353.67589115692687" width="174" height="76" rx="8" ry="8" fill="rgba(0, 0, 0, 0)" stroke="rgba(204, 204, 204, 1)" stroke-width="2"></rect><text x="1268.5838665200995" y="-301.67589115692687" fill="rgba(255, 255, 255, 1)" font-size="32" text-anchor="middle" font-family="MiSans">onDelete</text><rect x="15.113455700027373" y="-887.5619715321643" width="353" height="76" rx="8" ry="8" fill="rgba(0, 0, 0, 0)" stroke="rgba(204, 204, 204, 1)" stroke-width="2"></rect><text x="191.61345570002737" y="-835.5619715321643" fill="rgba(255, 255, 255, 1)" font-size="32" text-anchor="middle" font-family="MiSans">onControlWheel(dy)</text><line x1="486.7774950061828" y1="52.67930394665599" x2="-69.88502699377875" y2="50.30050434339052" stroke="rgba(204, 204, 204, 1)" stroke-width="2"></line><polygon points="-69.88502699377875,50.30050434339052 -55.41286200569601,54.24466972502859 -62.385095472724984,50.33255398463941 -55.379681775520346,46.48016926657486" fill="rgba(204, 204, 204, 1)" stroke="rgba(204, 204, 204, 1)"></polygon><line x1="1113.042044257095" y1="1826.1048783232154" x2="1312.7992264094148" y2="1037.6085342433212" stroke="rgba(204, 204, 204, 1)" stroke-width="2"></line><polygon points="1312.7992264094148,1037.6085342433212 1305.477634300768,1050.700298409949 1310.9573679059238,1044.878854542532 1313.004423730493,1052.607130646299" fill="rgba(204, 204, 204, 1)" stroke="rgba(204, 204, 204, 1)"></polygon><line x1="1305.9806292569122" y1="1829.8756122612367" x2="1321.6734391675757" y2="1037.6085342433212" stroke="rgba(204, 204, 204, 1)" stroke-width="2"></line><polygon points="1321.6734391675757,1037.6085342433212 1317.5049828617093,1052.0176970235136 1321.5249122425269,1045.1070634159346 1325.2680315022262,1052.171463411166" fill="rgba(204, 204, 204, 1)" stroke="rgba(204, 204, 204, 1)"></polygon><line x1="1530.734846797389" y1="1833.7399733055836" x2="1331.915912366985" y2="1037.6085342433212" stroke="rgba(204, 204, 204, 1)" stroke-width="2"></line><polygon points="1331.915912366985,1037.6085342433212 1331.6598202025573,1052.6063479774398 1333.7330892638645,1044.885062819878 1339.1930369139397,1050.7250680205088" fill="rgba(204, 204, 204, 1)" stroke="rgba(204, 204, 204, 1)"></polygon><line x1="1817.5685161192137" y1="1828.1464200564637" x2="1345.1352970961766" y2="1037.6085342433212" stroke="rgba(204, 204, 204, 1)" stroke-width="2"></line><polygon points="1345.1352970961766,1037.6085342433212 1349.235357123801,1052.037307849206 1348.9826947345232,1044.046509966516 1355.9004400400827,1048.0541887176596" fill="rgba(204, 204, 204, 1)" stroke="rgba(204, 204, 204, 1)"></polygon><line x1="2082.134487128509" y1="1826.0600191920284" x2="1357.3572938163277" y2="1037.6085342433212" stroke="rgba(204, 204, 204, 1)" stroke-width="2"></line><polygon points="1357.3572938163277,1037.6085342433212 1364.3045312863787,1050.9027394295938 1362.4329486090244,1043.130103623975 1370.0208805446514,1045.6480349227306" fill="rgba(204, 204, 204, 1)" stroke="rgba(204, 204, 204, 1)"></polygon><line x1="1552.283140166173" y1="997.7639506856111" x2="1486.9261231969274" y2="998.2884353433868" stroke="rgba(204, 204, 204, 1)" stroke-width="2"></line><polygon points="1486.9261231969274,998.2884353433868 1501.44569809516,1002.0543276379983 1494.4258817112232,998.2282504013534 1501.3833900582533,994.2900062893202" fill="rgba(204, 204, 204, 1)" stroke="rgba(204, 204, 204, 1)"></polygon><line x1="925.2057772414208" y1="1630.8203708631113" x2="1298.5127992213484" y2="1037.6085342433212" stroke="rgba(204, 204, 204, 1)" stroke-width="2"></line><polygon points="1298.5127992213484,1037.6085342433212 1287.5100313316605,1047.8035869045707 1294.5182072859689,1043.956229515607 1294.0816490475597,1051.9390927857273" fill="rgba(204, 204, 204, 1)" stroke="rgba(204, 204, 204, 1)"></polygon><line x1="826.2924532658419" y1="1668.5771596479979" x2="819.8091889401932" y2="1668.556135613404" stroke="rgba(204, 204, 204, 1)" stroke-width="2"></line><polygon points="819.8091889401932,1668.556135613404 834.2854106809002,1672.485385429066 827.3091495060407,1668.5804566070376 834.3105896262931,1664.720854901229" fill="rgba(204, 204, 204, 1)" stroke="rgba(204, 204, 204, 1)"></polygon><line x1="395.06226776113715" y1="354.9115292860617" x2="-111.33887170273914" y2="87.81548201064822" stroke="rgba(204, 204, 204, 1)" stroke-width="2"></line><polygon points="-111.33887170273914,87.81548201064822 -100.3345145150962,98.00881919170779 -104.70506040030719,91.31441722064083 -96.7121502353927,91.14099236496479" fill="rgba(204, 204, 204, 1)" stroke="rgba(204, 204, 204, 1)"></polygon><line x1="1268.7098043290653" y1="961.6085342433213" x2="511.77858662899934" y2="426.1402281712296" stroke="rgba(204, 204, 204, 1)" stroke-width="2"></line><polygon points="511.77858662899934,426.1402281712296 521.3648662096934,437.67726608400284 517.9014067094571,430.471633747061 525.8490672300471,431.33845629776835" fill="rgba(204, 204, 204, 1)" stroke="rgba(204, 204, 204, 1)"></polygon><line x1="959.9507332912981" y1="970.0294960171906" x2="490.83785367415123" y2="426.1402281712296" stroke="rgba(204, 204, 204, 1)" stroke-width="2"></line><polygon points="490.83785367415123,426.1402281712296 497.3611993732295,439.64748403207403 495.7363552483566,431.81954875801705 503.24086469764325,434.57618203259796" fill="rgba(204, 204, 204, 1)" stroke="rgba(204, 204, 204, 1)"></polygon><line x1="784.3472458989586" y1="964.8770977540513" x2="479.5605104141616" y2="426.1402281712296" stroke="rgba(204, 204, 204, 1)" stroke-width="2"></line><polygon points="479.5605104141616,426.1402281712296 483.3158853894406,440.6625268458557 483.2535409900026,432.66797856213026 490.07390988080266,436.8392202571614" fill="rgba(204, 204, 204, 1)" stroke="rgba(204, 204, 204, 1)"></polygon><line x1="616.4678964984761" y1="-82.90326974498413" x2="806.3022109650144" y2="-84.39903462174394" stroke="rgba(204, 204, 204, 1)" stroke-width="2"></line><polygon points="806.3022109650144,-84.39903462174394 791.7831844984419,-88.16704078720674 798.8024437678532,-84.33994157321415 791.8443621240126,-80.40271044936485" fill="rgba(204, 204, 204, 1)" stroke="rgba(204, 204, 204, 1)"></polygon><line x1="963.3022109650144" y1="-101.02390257371975" x2="1180.0006331839131" y2="-145.20923952936056" stroke="rgba(204, 204, 204, 1)" stroke-width="2"></line><polygon points="1180.0006331839131,-145.20923952936056 1165.0282168190092,-146.1184964765207 1172.6518448520978,-143.71080366013703 1166.5795117822884,-138.5104709617168" fill="rgba(204, 204, 204, 1)" stroke="rgba(204, 204, 204, 1)"></polygon><line x1="963.3022109650144" y1="-85.28675286682042" x2="1188.1953665153926" y2="-86.05795534278269" stroke="rgba(204, 204, 204, 1)" stroke-width="2"></line><polygon points="1188.1953665153926,-86.05795534278269 1173.6932512742517,-89.89053326536522 1180.6954106126716,-86.03223653178718 1173.7198773466637,-82.12600756515208" fill="rgba(204, 204, 204, 1)" stroke="rgba(204, 204, 204, 1)"></polygon><line x1="963.3022109650144" y1="-68.00385340749511" x2="1188.1953665153928" y2="-19.261606246927496" stroke="rgba(204, 204, 204, 1)" stroke-width="2"></line><polygon points="1188.1953665153928,-19.261606246927496 1174.8575773464836,-26.124796473471342 1180.8655468330733,-20.850235663966288 1173.2129071515246,-18.53640874966492" fill="rgba(204, 204, 204, 1)" stroke="rgba(204, 204, 204, 1)"></polygon><line x1="-898.9379326403259" y1="348.4542196877194" x2="-274.43487078186564" y2="87.81548201064822" stroke="rgba(204, 204, 204, 1)" stroke-width="2"></line><polygon points="-274.43487078186564,87.81548201064822 -289.3012483478145,89.81318520848613 -281.3562579819915,90.70414938955038 -286.3106798173095,96.9787325121717" fill="rgba(204, 204, 204, 1)" stroke="rgba(204, 204, 204, 1)"></polygon><line x1="-1649.094350227701" y1="344.8476146274125" x2="-1095.9877764284129" y2="379.76288885942824" stroke="rgba(204, 204, 204, 1)" stroke-width="2"></line><polygon points="-1095.9877764284129,379.76288885942824 -1110.203296297503,374.9755101558464 -1103.4728777085552,379.2903861334971 -1110.692467114838,382.7246572191347" fill="rgba(204, 204, 204, 1)" stroke="rgba(204, 204, 204, 1)"></polygon><line x1="-1755.5177982294372" y1="415.9916350686423" x2="-1095.9877764284129" y2="390.54415207601653" stroke="rgba(204, 204, 204, 1)" stroke-width="2"></line><polygon points="-1095.9877764284129,390.54415207601653 -1110.6155744866785,387.2233804839619 -1103.4821998577524,390.8333189167266 -1110.316206944327,394.9821785462644" fill="rgba(204, 204, 204, 1)" stroke="rgba(204, 204, 204, 1)"></polygon><line x1="-1726.0000791724503" y1="1695.0830238460003" x2="-1411.9253433969468" y2="1372.1853628152935" stroke="rgba(204, 204, 204, 1)" stroke-width="2"></line><polygon points="-1411.9253433969468,1372.1853628152935 -1424.8106033340434,1379.8645604526416 -1417.1546847729655,1377.5616058132482 -1419.2447070181643,1385.2783730184667" fill="rgba(204, 204, 204, 1)" stroke="rgba(204, 204, 204, 1)"></polygon><line x1="-579.4057735325543" y1="1297.6584553515313" x2="-972.8652527401023" y2="424.4542196877194" stroke="rgba(204, 204, 204, 1)" stroke-width="2"></line><polygon points="-972.8652527401023,424.4542196877194 -970.4525688282304,439.2589134144195 -969.7841475428378,431.29211342507665 -963.3734603177692,436.0691185943539" fill="rgba(204, 204, 204, 1)" stroke="rgba(204, 204, 204, 1)"></polygon><line x1="-2143.2724975888596" y1="1301.781980167277" x2="-1037.8666033320526" y2="424.4542196877194" stroke="rgba(204, 204, 204, 1)" stroke-width="2"></line><polygon points="-1037.8666033320526,424.4542196877194 -1051.6289702688596,430.42056331649945 -1043.7412144792397,429.11672372196375 -1046.8019909011402,436.5024083063538" fill="rgba(204, 204, 204, 1)" stroke="rgba(204, 204, 204, 1)"></polygon><line x1="-577.3489278152213" y1="1761.7426582045198" x2="-563.626871032412" y2="1373.6584553515313" stroke="rgba(204, 204, 204, 1)" stroke-width="2"></line><polygon points="-563.626871032412,1373.6584553515313 -568.0187168135575,1388.0011081966168 -563.8918938081546,1381.1537714174713 -560.2589946258448,1388.275479963609" fill="rgba(204, 204, 204, 1)" stroke="rgba(204, 204, 204, 1)"></polygon><line x1="-765.62470771654" y1="1761.1241608819516" x2="-580.4444677725235" y2="1373.6584553515313" stroke="rgba(204, 204, 204, 1)" stroke-width="2"></line><polygon points="-580.4444677725235,1373.6584553515313 -590.1950214490506,1385.0569948632917 -583.6785440249125,1380.425341695614 -583.1894252014795,1388.40515697302" fill="rgba(204, 204, 204, 1)" stroke="rgba(204, 204, 204, 1)"></polygon><line x1="743.3542702547958" y1="352.5213473619557" x2="521.0622677611372" y2="380.2746396816464" stroke="rgba(204, 204, 204, 1)" stroke-width="2"></line><polygon points="521.0622677611372,380.2746396816464 535.9205059898022,382.33200613909514 528.5044885912201,379.34547386421724 534.9585627513666,374.62725218435844" fill="rgba(204, 204, 204, 1)" stroke="rgba(204, 204, 204, 1)"></polygon><line x1="743.3542702547959" y1="402.80485141936595" x2="521.0622677611372" y2="391.3785638292827" stroke="rgba(204, 204, 204, 1)" stroke-width="2"></line><polygon points="521.0622677611372,391.3785638292827 535.3327571379994,395.99950885653243 528.5523791722967,391.76357168429143 535.7313465995607,388.24517492394125" fill="rgba(204, 204, 204, 1)" stroke="rgba(204, 204, 204, 1)"></polygon><line x1="490.2292208040326" y1="964.9189300974014" x2="460.18152807977924" y2="426.1402281712296" stroke="rgba(204, 204, 204, 1)" stroke-width="2"></line><polygon points="460.18152807977924,426.1402281712296 457.11205754638786,440.8228148181608 460.5991541769581,433.62859170693986 464.8645819451601,440.39045646743386" fill="rgba(204, 204, 204, 1)" stroke="rgba(204, 204, 204, 1)"></polygon><line x1="-988.279642449764" y1="1297.946343387351" x2="-989.9165645226806" y2="424.4542196877194" stroke="rgba(204, 204, 204, 1)" stroke-width="2"></line><polygon points="-989.9165645226806,424.4542196877194 -993.7716912908446,438.9503570215537 -989.9025095659656,431.95420651825395 -986.0071335718029,438.93580625964995" fill="rgba(204, 204, 204, 1)" stroke="rgba(204, 204, 204, 1)"></polygon><line x1="492.1931722845628" y1="1215.686473094965" x2="492.3207431708936" y2="1040.9189300974012" stroke="rgba(204, 204, 204, 1)" stroke-width="2"></line><polygon points="492.3207431708936,1040.9189300974012 488.4278824246156,1055.404979773213 492.31526857660583,1048.418928099322 496.1924517091275,1055.4106474902767" fill="rgba(204, 204, 204, 1)" stroke="rgba(204, 204, 204, 1)"></polygon><line x1="311.883293670381" y1="1219.044922404907" x2="460.61848395773393" y2="1040.9189300974012" stroke="rgba(204, 204, 204, 1)" stroke-width="2"></line><polygon points="460.61848395773393,1040.9189300974012 448.351979510439,1049.5521721677067 455.8114409701557,1046.6758683214553 454.31200052589446,1054.528789270954" fill="rgba(204, 204, 204, 1)" stroke="rgba(204, 204, 204, 1)"></polygon><line x1="497.4678964984761" y1="-71.80590991757975" x2="-69.88502699377875" y2="29.540871287013875" stroke="rgba(204, 204, 204, 1)" stroke-width="2"></line><polygon points="-69.88502699377875,29.540871287013875 -54.93922374081303,30.814827771215445 -62.50189621506976,28.222015758731864 -56.30460345464555,23.17124833916548" fill="rgba(204, 204, 204, 1)" stroke="rgba(204, 204, 204, 1)"></polygon><line x1="959.1888756999635" y1="-47.01756106231716" x2="1170.8673456453284" y2="61.11716828178044" stroke="rgba(204, 204, 204, 1)" stroke-width="2"></line><polygon points="1170.8673456453284,61.11716828178044 1159.7306823178624,51.068549972247986 1164.188363384249,57.70524859395267 1156.198403135582,57.98314121652496" fill="rgba(204, 204, 204, 1)" stroke="rgba(204, 204, 204, 1)"></polygon><line x1="-1359.5277629931163" y1="1296.1853628152935" x2="-1005.4236770189784" y2="424.4542196877194" stroke="rgba(204, 204, 204, 1)" stroke-width="2"></line><polygon points="-1005.4236770189784,424.4542196877194 -1014.4733374155784,436.4168133323355 -1008.2462538350645,431.4028209942625 -1007.2796159957479,439.3389598774072" fill="rgba(204, 204, 204, 1)" stroke="rgba(204, 204, 204, 1)"></polygon><line x1="-1494.1890340730693" y1="1693.5487036720613" x2="-1387.5708595981537" y2="1372.1853628152935" stroke="rgba(204, 204, 204, 1)" stroke-width="2"></line><polygon points="-1387.5708595981537,1372.1853628152935 -1395.8180598559118,1384.71467596121 -1389.9325390278186,1379.3038226396866 -1388.4484879585114,1387.1596664205065" fill="rgba(204, 204, 204, 1)" stroke="rgba(204, 204, 204, 1)"></polygon><line x1="-1168.2548312767171" y1="1696.150459873733" x2="-1007.2025589137464" y2="1373.946343387351" stroke="rgba(204, 204, 204, 1)" stroke-width="2"></line><polygon points="-1007.2025589137464,1373.946343387351 -1017.1532207335536,1385.1706174996414 -1010.5558315801006,1380.6549619057257 -1010.2079477780221,1388.642180817538" fill="rgba(204, 204, 204, 1)" stroke="rgba(204, 204, 204, 1)"></polygon><line x1="-1008.6174759948418" y1="1698.3592242898776" x2="-990.3483758053575" y2="1373.946343387351" stroke="rgba(204, 204, 204, 1)" stroke-width="2"></line><polygon points="-990.3483758053575,1373.946343387351 -995.0391616722122,1388.1940283905826 -990.7700652988218,1381.4344792014972 -987.2868730281508,1388.6305934786956" fill="rgba(204, 204, 204, 1)" stroke="rgba(204, 204, 204, 1)"></polygon><line x1="712.6000150924107" y1="1217.140607363221" x2="789.3082443057415" y2="1040.8770977540512" stroke="rgba(204, 204, 204, 1)" stroke-width="2"></line><polygon points="789.3082443057415,1040.8770977540512 779.9667913078671,1052.613249418396 786.3154387363574,1047.7540967233592 787.0863845334964,1055.711629736978" fill="rgba(204, 204, 204, 1)" stroke="rgba(204, 204, 204, 1)"></polygon><line x1="865.0375721454235" y1="1214.606005539802" x2="816.4689749718289" y2="1040.8770977540512" stroke="rgba(204, 204, 204, 1)" stroke-width="2"></line><polygon points="816.4689749718289,1040.8770977540512 816.6310662443348,1055.8762219424623 818.488288544903,1048.100142312518 824.1089122257563,1053.7856746994798" fill="rgba(204, 204, 204, 1)" stroke="rgba(204, 204, 204, 1)"></polygon><line x1="-1724.2082937119658" y1="1295.1460886791904" x2="-1020.6916713446741" y2="424.4542196877194" stroke="rgba(204, 204, 204, 1)" stroke-width="2"></line><polygon points="-1020.6916713446741,424.4542196877194 -1032.8173962613312,433.28410050489697 -1025.4052761136766,430.287908921955 -1026.7779167532124,438.16398324611265" fill="rgba(204, 204, 204, 1)" stroke="rgba(204, 204, 204, 1)"></polygon><line x1="-2041.4661940321919" y1="1699.383546754885" x2="-1784.6444073438233" y2="1371.1460886791904" stroke="rgba(204, 204, 204, 1)" stroke-width="2"></line><polygon points="-1784.6444073438233,1371.1460886791904 -1796.6303304054604,1380.164827413654 -1789.2660529887564,1377.052897592019 -1790.515151835775,1384.9495070641492" fill="rgba(204, 204, 204, 1)" stroke="rgba(204, 204, 204, 1)"></polygon><line x1="-3063.222473904875" y1="618.7573869047203" x2="-2776.2075075429248" y2="173.7725319676679" stroke="rgba(204, 204, 204, 1)" stroke-width="2"></line><polygon points="-2776.2075075429248,173.7725319676679 -2787.3234430898788,183.844074893951 -2780.2727385955636,180.07522159104772 -2780.798418650276,188.05271177061155" fill="rgba(204, 204, 204, 1)" stroke="rgba(204, 204, 204, 1)"></polygon><line x1="-2948.5413842439366" y1="618.7573869047203" x2="-2767.184695828293" y2="173.7725319676679" stroke="rgba(204, 204, 204, 1)" stroke-width="2"></line><polygon points="-2767.184695828293,173.7725319676679 -2776.248196373814,185.7246429887945 -2770.0153134743214,180.7178616028971 -2769.0578620373653,188.65511401357614" fill="rgba(204, 204, 204, 1)" stroke="rgba(204, 204, 204, 1)"></polygon><line x1="-2825.0532129981484" y1="618.7573869047203" x2="-2757.468965698512" y2="173.7725319676679" stroke="rgba(204, 204, 204, 1)" stroke-width="2"></line><polygon points="-2757.468965698512,173.7725319676679 -2763.4828546544436,187.5141890593626 -2758.595149744697,181.18749720656942 -2755.80631776404,188.68010057713593" fill="rgba(204, 204, 204, 1)" stroke="rgba(204, 204, 204, 1)"></polygon><line x1="-2698.3203274842567" y1="618.7573869047203" x2="-2747.4979498368334" y2="173.7725319676679" stroke="rgba(204, 204, 204, 1)" stroke-width="2"></line><polygon points="-2747.4979498368334,173.7725319676679 -2749.7651885972173,188.6001962612582 -2746.6741011165586,181.22714619552048 -2742.0476040529757,187.74728530489654" fill="rgba(204, 204, 204, 1)" stroke="rgba(204, 204, 204, 1)"></polygon><line x1="-2569.269788921721" y1="618.7573869047203" x2="-2737.3445870237997" y2="173.7725319676679" stroke="rgba(204, 204, 204, 1)" stroke-width="2"></line><polygon points="-2737.3445870237997,173.7725319676679 -2735.856873877555,188.69857329129053 -2734.6945048674957,180.7887321190916 -2728.593168983796,185.95500635873896" fill="rgba(204, 204, 204, 1)" stroke="rgba(204, 204, 204, 1)"></polygon><line x1="-196.81524368130624" y1="11.815482010648225" x2="-412.42565150464895" y2="-598.2413538478495" stroke="rgba(204, 204, 204, 1)" stroke-width="2"></line><polygon points="-412.42565150464895,-598.2413538478495 -411.2579598222101,-583.2868730432624 -409.92644750712003,-591.1700046570136 -403.9371604415756,-585.8742394118898" fill="rgba(204, 204, 204, 1)" stroke="rgba(204, 204, 204, 1)"></polygon><line x1="-296.88502699377875" y1="49.8084280869459" x2="-485.5480563105855" y2="49.79670284805385" stroke="rgba(204, 204, 204, 1)" stroke-width="2"></line><polygon points="-485.5480563105855,49.79670284805385 -471.0594102248206,53.679888988512594 -478.0480563250699,49.797168966359266 -471.0589276636418,45.91531765043234" fill="rgba(204, 204, 204, 1)" stroke="rgba(204, 204, 204, 1)"></polygon><line x1="-551.5480563105855" y1="42.90903602226234" x2="-706.9598017772979" y2="10.481594008708385" stroke="rgba(204, 204, 204, 1)" stroke-width="2"></line><polygon points="-706.9598017772979,10.481594008708385 -693.5693567790512,17.24147438848807 -699.6179205601921,12.013514435463344 -691.9833960509482,9.640599645018247" fill="rgba(204, 204, 204, 1)" stroke="rgba(204, 204, 204, 1)"></polygon><line x1="-551.5480563105855" y1="55.00233628861025" x2="-740.6591237056975" y2="84.84569229422391" stroke="rgba(204, 204, 204, 1)" stroke-width="2"></line><polygon points="-740.6591237056975,84.84569229422391 -725.7421784620445,86.42199956054583 -733.2508032048765,83.67659548167322 -726.9525165446717,78.7523418092022" fill="rgba(204, 204, 204, 1)" stroke="rgba(204, 204, 204, 1)"></polygon><line x1="-451.7863503648477" y1="-598.2413538478495" x2="-660.3814604856059" y2="-292.55424275575973" stroke="rgba(204, 204, 204, 1)" stroke-width="2"></line><polygon points="-660.3814604856059,-292.55424275575973 -649.0079280512822,-302.3339544061811 -656.1540539437511,-298.74932418620784 -655.421548291926,-306.7104877038731" fill="rgba(204, 204, 204, 1)" stroke="rgba(204, 204, 204, 1)"></polygon><line x1="-780.3119426582772" y1="-253.37251055575484" x2="-929.3364616516917" y2="-251.49903105910846" stroke="rgba(204, 204, 204, 1)" stroke-width="2"></line><polygon points="-929.3364616516917,-251.49903105910846 -914.7999163135921,-247.79918651732382 -921.8370542524792,-251.59331075277447 -914.8975218347408,-255.56314436491957" fill="rgba(204, 204, 204, 1)" stroke="rgba(204, 204, 204, 1)"></polygon><line x1="-995.3364616516917" y1="-250.76853212126576" x2="-1078.0501472538772" y2="-249.9773995151428" stroke="rgba(204, 204, 204, 1)" stroke-width="2"></line><polygon points="-1078.0501472538772,-249.9773995151428 -1063.5247913155883,-246.233867110312 -1070.5504902942957,-250.0491315763158 -1063.5990538098924,-253.99808332181345" fill="rgba(204, 204, 204, 1)" stroke="rgba(204, 204, 204, 1)"></polygon><line x1="-1805.7593190654652" y1="140.2157052653301" x2="-1919.146987110097" y2="140.5736589785288" stroke="rgba(204, 204, 204, 1)" stroke-width="2"></line><polygon points="-1919.146987110097,140.5736589785288 -1904.6459159806698,144.41018554552846 -1911.647024482422,140.54998233434233 -1904.670427846428,136.64565288313082" fill="rgba(204, 204, 204, 1)" stroke="rgba(204, 204, 204, 1)"></polygon><line x1="-1985.146987110097" y1="139.9287366658094" x2="-2129.7548057969593" y2="136.64613889128344" stroke="rgba(204, 204, 204, 1)" stroke-width="2"></line><polygon points="-2129.7548057969593,136.64613889128344 -2115.3577551463245,140.85623776934443 -2122.2567373883358,136.81634505921332 -2115.1815447549075,133.09366614681113" fill="rgba(204, 204, 204, 1)" stroke="rgba(204, 204, 204, 1)"></polygon><line x1="-2233.7548057969593" y1="135.49372974933837" x2="-2661.6975301790953" y2="135.72408607110745" stroke="rgba(204, 204, 204, 1)" stroke-width="2"></line><polygon points="-2661.6975301790953,135.72408607110745 -2647.206555097385,139.59857199587776 -2654.1975312656714,135.72004891364563 -2647.2107346703415,131.8340017677085" fill="rgba(204, 204, 204, 1)" stroke="rgba(204, 204, 204, 1)"></polygon><line x1="-1985.146987110097" y1="111.38084397688267" x2="-2258.5975487488013" y2="-131.38519006037694" stroke="rgba(204, 204, 204, 1)" stroke-width="2"></line><polygon points="-2258.5975487488013,-131.38519006037694 -2250.3399602879203,-118.8627209423984 -2252.988913020465,-126.40591247554295 -2245.185032808692,-124.66920791654186" fill="rgba(204, 204, 204, 1)" stroke="rgba(204, 204, 204, 1)"></polygon><line x1="-1985.146987110097" y1="118.84292997553821" x2="-2244.3748413801254" y2="-52.67876780265891" stroke="rgba(204, 204, 204, 1)" stroke-width="2"></line><polygon points="-2244.3748413801254,-52.67876780265891 -2234.4338085275535,-41.44596468749282 -2238.120059505936,-48.54020480249703 -2230.1492528323593,-47.92139137550207" fill="rgba(204, 204, 204, 1)" stroke="rgba(204, 204, 204, 1)"></polygon><line x1="-1985.146987110097" y1="126.54411873106781" x2="-2233.780825412723" y2="20.05561703183237" stroke="rgba(204, 204, 204, 1)" stroke-width="2"></line><polygon points="-2233.780825412723,20.05561703183237 -2221.99057366516,29.328694392076855 -2226.8865465682425,23.008398638139333 -2218.933629202197,22.19121172328075" fill="rgba(204, 204, 204, 1)" stroke="rgba(204, 204, 204, 1)"></polygon><line x1="-1969.7490545862845" y1="102.67783673206466" x2="-2144.2143165660154" y2="-273.96428012145435" stroke="rgba(204, 204, 204, 1)" stroke-width="2"></line><polygon points="-2144.2143165660154,-273.96428012145435 -2141.6472049992467,-259.1855813220416 -2141.061992529801,-267.1589253789957 -2134.6017833351384,-262.44910730966865" fill="rgba(204, 204, 204, 1)" stroke="rgba(204, 204, 204, 1)"></polygon><line x1="125.98248993212229" y1="965.2854702738496" x2="436.19769947408054" y2="426.1402281712296" stroke="rgba(204, 204, 204, 1)" stroke-width="2"></line><polygon points="436.19769947408054,426.1402281712296 425.60676917659805,436.76247818871025 432.45729322788,432.6409482169925 432.33680979549075,440.6348316804588" fill="rgba(204, 204, 204, 1)" stroke="rgba(204, 204, 204, 1)"></polygon><line x1="-170.64439453765675" y1="1296.3410865467374" x2="-955.769183275916" y2="424.4542196877194" stroke="rgba(204, 204, 204, 1)" stroke-width="2"></line><polygon points="-955.769183275916,424.4542196877194 -948.9586965841952,437.818996940704 -950.7504413400378,430.02756961223133 -943.1887401622577,432.62321295886403" fill="rgba(204, 204, 204, 1)" stroke="rgba(204, 204, 204, 1)"></polygon><line x1="-144.5443011984302" y1="11.815482010648225" x2="547.6928439249826" y2="-665.4378642138938" stroke="rgba(204, 204, 204, 1)" stroke-width="2"></line><polygon points="547.6928439249826,-665.4378642138938 534.6211866264607,-658.0804342638365 542.3318397335028,-660.192901482002 540.051171609927,-652.5303143213188" fill="rgba(204, 204, 204, 1)" stroke="rgba(204, 204, 204, 1)"></polygon><line x1="619.5342926991883" y1="-741.4378642138938" x2="1021.0204494750411" y2="-1203.7451284291958" stroke="rgba(204, 204, 204, 1)" stroke-width="2"></line><polygon points="1021.0204494750411,-1203.7451284291958 1008.5889340565138,-1195.351236340366 1016.1027381412703,-1198.0824333784535 1014.4513873594735,-1190.2600469343804" fill="rgba(204, 204, 204, 1)" stroke="rgba(204, 204, 204, 1)"></polygon><line x1="629.0335697203313" y1="-730.1648221302073" x2="1253.166191583823" y2="-1122.6628531594772" stroke="rgba(204, 204, 204, 1)" stroke-width="2"></line><polygon points="1253.166191583823,-1122.6628531594772 1238.8342736480613,-1118.2361017227477 1246.8172705364993,-1118.6702097325167 1242.9677622848642,-1111.6632149911493" fill="rgba(204, 204, 204, 1)" stroke="rgba(204, 204, 204, 1)"></polygon><line x1="560.6408019448179" y1="-741.4378642138938" x2="379.22560008150435" y2="-1007.6812311097758" stroke="rgba(204, 204, 204, 1)" stroke-width="2"></line><polygon points="379.22560008150435,-1007.6812311097758 384.1759205810228,-993.5216291749739 383.44880861684953,-1001.4832871226953 390.5925043583632,-997.8938163765213" fill="rgba(204, 204, 204, 1)" stroke="rgba(204, 204, 204, 1)"></polygon><line x1="544.7549385026584" y1="-741.4378642138938" x2="342.58395885543007" y2="-925.323669054357" stroke="rgba(204, 204, 204, 1)" stroke-width="2"></line><polygon points="342.58395885543007,-925.323669054357 350.69014724298194,-912.7026663277303 348.13222515055145,-920.2772107796438 355.9146252902258,-918.4466542656415" fill="rgba(204, 204, 204, 1)" stroke="rgba(204, 204, 204, 1)"></polygon><line x1="629.0335697203313" y1="-718.1786537092963" x2="1274.3453310084897" y2="-941.9999438753243" stroke="rgba(204, 204, 204, 1)" stroke-width="2"></line><polygon points="1274.3453310084897,-941.9999438753243 1259.3842583354424,-940.919988102249 1267.259444327518,-939.5422600176189 1261.9286398923032,-933.5841384043538" fill="rgba(204, 204, 204, 1)" stroke="rgba(204, 204, 204, 1)"></polygon><line x1="980.7098625800674" y1="-734.2028982064245" x2="1198.9417236646598" y2="-777.465899356346" stroke="rgba(204, 204, 204, 1)" stroke-width="2"></line><polygon points="1198.9417236646598,-777.465899356346 1183.9744744156842,-778.4565808990442 1191.5848937401734,-776.0074572209904 1185.4843648189244,-770.8402301148952" fill="rgba(204, 204, 204, 1)" stroke="rgba(204, 204, 204, 1)"></polygon><line x1="980.7098625800674" y1="-725.1545120630866" x2="1195.0586272964647" y2="-730.3494386520522" stroke="rgba(204, 204, 204, 1)" stroke-width="2"></line><polygon points="1195.0586272964647,-730.3494386520522 1180.4799303374862,-733.8795370895281 1187.5608289899524,-730.1677230642216 1180.6680561571764,-726.1172450972769" fill="rgba(204, 204, 204, 1)" stroke="rgba(204, 204, 204, 1)"></polygon><line x1="980.7098625800674" y1="-717.5375397040253" x2="1197.901813970825" y2="-690.9870447056838" stroke="rgba(204, 204, 204, 1)" stroke-width="2"></line><polygon points="1197.901813970825,-690.9870447056838 1183.9910676668958,-696.5987411753548 1190.457232451022,-691.8971029428359 1183.0489060511863,-688.8915432547817" fill="rgba(204, 204, 204, 1)" stroke="rgba(204, 204, 204, 1)"></polygon><line x1="629.0335697203313" y1="-705.9786488965008" x2="876.7098625800674" y2="-720.7855225704512" stroke="rgba(204, 204, 204, 1)" stroke-width="2"></line><polygon points="876.7098625800674,-720.7855225704512 862.0151161360675,-723.7962412465404 869.223229363144,-720.337947911584 862.4784795193478,-716.0455082055928" fill="rgba(204, 204, 204, 1)" stroke="rgba(204, 204, 204, 1)"></polygon><line x1="1031.2541330432605" y1="-476.2261031263865" x2="1181.1495806056291" y2="-482.73108375562526" stroke="rgba(204, 204, 204, 1)" stroke-width="2"></line><polygon points="1181.1495806056291,-482.73108375562526 1166.505996996887,-485.9815389689418 1173.656632949846,-482.40591391124764 1166.8426375913587,-478.2242687398498" fill="rgba(204, 204, 204, 1)" stroke="rgba(204, 204, 204, 1)"></polygon><line x1="1031.2541330432605" y1="-462.5902825029487" x2="1190.0147899276153" y2="-434.279467009394" stroke="rgba(204, 204, 204, 1)" stroke-width="2"></line><polygon points="1190.0147899276153,-434.279467009394 1176.4324715324326,-440.64504844488596 1182.631267013893,-435.5961254246782 1175.0693664373523,-433.00106304479726" fill="rgba(204, 204, 204, 1)" stroke="rgba(204, 204, 204, 1)"></polygon><line x1="629.0335697203313" y1="-677.9435950380167" x2="908.2541330432604" y2="-510.44890796049214" stroke="rgba(204, 204, 204, 1)" stroke-width="2"></line><polygon points="908.2541330432604,-510.44890796049214 897.8263649149407,-521.2313776155387 901.8225535204283,-514.3069884212248 893.8321861118385,-514.5729165331373" fill="rgba(204, 204, 204, 1)" stroke="rgba(204, 204, 204, 1)"></polygon><line x1="1031.2541330432605" y1="-441.06478302733353" x2="1196.6593942834295" y2="-353.67589115692687" stroke="rgba(204, 204, 204, 1)" stroke-width="2"></line><polygon points="1196.6593942834295,-353.67589115692687 1185.662153324068,-363.87690538501926 1190.0280263723478,-357.17945500362305 1182.0349971270375,-357.0116081431407" fill="rgba(204, 204, 204, 1)" stroke="rgba(204, 204, 204, 1)"></polygon><line x1="544.0335697203313" y1="-719.1632586431763" x2="294.31358238128155" y2="-811.5619715321643" stroke="rgba(204, 204, 204, 1)" stroke-width="2"></line><polygon points="294.31358238128155,-811.5619715321643 306.5548986348191,-802.8930513929038 301.3475249560703,-808.959347499659 309.2493333022347,-810.1751245949549" fill="rgba(204, 204, 204, 1)" stroke="rgba(204, 204, 204, 1)"></polygon><rect x="-2637.540891398488" y="-882.6557101258333" width="320.0017762410821" height="497.13709149835057" rx="8" ry="8" fill="rgba(0, 0, 0, 0)" stroke="rgba(204, 204, 204, 1)" stroke-width="2"></rect><text x="-2623.540891398488" y="-852.6557101258333" fill="rgba(204, 204, 204, 1)" font-size="32" text-anchor="start" font-family="MiSans">颜色表示</text></svg>