<svg xmlns="http://www.w3.org/2000/svg" width="5600.198208937194" height="5102.799433615859" viewBox="-3175.4154798221375 -2723.617040917955 5600.198208937194 5102.799433615859" style="background-color:rgba(31, 31, 31, 1)"><rect x="-3145.4" y="12.8" width="189.0" height="76.0" rx="8" ry="8" fill="rgba(0, 0, 0, 0)" stroke="rgba(204, 204, 204, 1)" stroke-width="2"></rect><text x="-3131.4" y="64.8" fill="rgba(255, 255, 255, 1)" font-size="32" text-anchor="start" font-family="MiSans">序列化json数据</text><rect x="-3093.6" y="-212.3" width="341.0" height="76.0" rx="8" ry="8" fill="rgba(0, 0, 0, 0)" stroke="rgba(204, 204, 204, 1)" stroke-width="2"></rect><text x="-3079.6" y="-160.3" fill="rgba(255, 255, 255, 1)" font-size="32" text-anchor="start" font-family="MiSans">各种StageObject类的对象</text><rect x="1021.4" y="-330.1" width="170.0" height="76.0" rx="8" ry="8" fill="rgba(0, 0, 0, 0)" stroke="rgba(204, 204, 204, 1)" stroke-width="2"></rect><text x="1035.4" y="-278.1" fill="rgba(255, 255, 255, 1)" font-size="32" text-anchor="start" font-family="MiSans">DOM渲染器</text><rect x="676.2" y="152.8" width="248.0" height="76.0" rx="8" ry="8" fill="rgba(0, 0, 0, 0)" stroke="rgba(204, 204, 204, 1)" stroke-width="2"></rect><text x="690.2" y="204.8" fill="rgba(255, 255, 255, 1)" font-size="32" text-anchor="start" font-family="MiSans">Canvas2D渲染器</text><rect x="1473.7" y="335.4" width="145.0" height="76.0" rx="8" ry="8" fill="rgba(0, 0, 0, 0)" stroke="rgba(204, 204, 204, 1)" stroke-width="2"></rect><text x="1487.7" y="387.4" fill="rgba(255, 255, 255, 1)" font-size="32" text-anchor="start" font-family="MiSans">Svg生成器</text><rect x="-169.9" y="-1624.4" width="142.0" height="76.0" rx="8" ry="8" fill="rgba(0, 0, 0, 0)" stroke="rgba(204, 204, 204, 1)" stroke-width="2"></rect><text x="-155.9" y="-1572.4" fill="rgba(255, 255, 255, 1)" font-size="32" text-anchor="start" font-family="MiSans">自动计算引擎</text><rect x="803.5" y="-1219.9" width="104.0" height="76.0" rx="8" ry="8" fill="rgba(0, 0, 0, 0)" stroke="rgba(204, 204, 204, 1)" stroke-width="2"></rect><text x="817.5" y="-1167.9" fill="rgba(255, 255, 255, 1)" font-size="32" text-anchor="start" font-family="MiSans">特效引擎</text><rect x="-1899.4" y="-1365.5" width="142.0" height="76.0" rx="8" ry="8" fill="rgba(0, 0, 0, 0)" stroke="rgba(204, 204, 204, 1)" stroke-width="2"></rect><text x="-1885.4" y="-1313.5" fill="rgba(255, 255, 255, 1)" font-size="32" text-anchor="start" font-family="MiSans">自动布局引擎</text><rect x="-1899.4" y="-1242.2" width="161.0" height="76.0" rx="8" ry="8" fill="rgba(0, 0, 0, 0)" stroke="rgba(204, 204, 204, 1)" stroke-width="2"></rect><text x="-1885.4" y="-1190.2" fill="rgba(255, 255, 255, 1)" font-size="32" text-anchor="start" font-family="MiSans">纯键盘操作引擎</text><rect x="947.8" y="-1091.4" width="104.0" height="76.0" rx="8" ry="8" fill="rgba(0, 0, 0, 0)" stroke="rgba(204, 204, 204, 1)" stroke-width="2"></rect><text x="961.8" y="-1039.4" fill="rgba(255, 255, 255, 1)" font-size="32" text-anchor="start" font-family="MiSans">音效引擎</text><rect x="803.5" y="-954.2" width="161.0" height="76.0" rx="8" ry="8" fill="rgba(0, 0, 0, 0)" stroke="rgba(204, 204, 204, 1)" stroke-width="2"></rect><text x="817.5" y="-902.2" fill="rgba(255, 255, 255, 1)" font-size="32" text-anchor="start" font-family="MiSans">舞台样式控制器</text><rect x="230.6" y="-939.4" width="161.0" height="76.0" rx="8" ry="8" fill="rgba(0, 0, 0, 0)" stroke="rgba(204, 204, 204, 1)" stroke-width="2"></rect><text x="244.6" y="-887.4" fill="rgba(255, 255, 255, 1)" font-size="32" text-anchor="start" font-family="MiSans">节点颜色管理器</text><rect x="-1376.2" y="-1365.5" width="199.0" height="76.0" rx="8" ry="8" fill="rgba(0, 0, 0, 0)" stroke="rgba(204, 204, 204, 1)" stroke-width="2"></rect><text x="-1362.2" y="-1313.5" fill="rgba(255, 255, 255, 1)" font-size="32" text-anchor="start" font-family="MiSans">快捷键注册监听系统</text><rect x="549.2" y="-1453.3" width="199.0" height="76.0" rx="8" ry="8" fill="rgba(0, 0, 0, 0)" stroke="rgba(204, 204, 204, 1)" stroke-width="2"></rect><text x="563.2" y="-1401.3" fill="rgba(255, 255, 255, 1)" font-size="32" text-anchor="start" font-family="MiSans">最近打开文件管理器</text><rect x="281.3" y="-308.8" width="219.0" height="124.0" rx="8" ry="8" fill="rgba(0, 0, 0, 0)" stroke="rgba(204, 204, 204, 1)" stroke-width="2"></rect><text x="295.3" y="-256.8" fill="rgba(255, 255, 255, 1)" font-size="32" text-anchor="start" font-family="MiSans">设置管理器</text><text x="295.3" y="-208.8" fill="rgba(255, 255, 255, 1)" font-size="32" text-anchor="start" font-family="MiSans">Settings.tsx</text><rect x="547.2" y="-1566.7" width="218.0" height="76.0" rx="8" ry="8" fill="rgba(0, 0, 0, 0)" stroke="rgba(204, 204, 204, 1)" stroke-width="2"></rect><text x="561.2" y="-1514.7" fill="rgba(255, 255, 255, 1)" font-size="32" text-anchor="start" font-family="MiSans">初始化启动文件管理器</text><rect x="97.8" y="-1624.4" width="102.0" height="76.0" rx="8" ry="8" fill="rgba(0, 0, 0, 0)" stroke="rgba(204, 204, 204, 1)" stroke-width="2"></rect><text x="111.8" y="-1572.4" fill="rgba(255, 255, 255, 1)" font-size="32" text-anchor="start" font-family="MiSans">AI服务</text><rect x="-956.1" y="-2099.4" width="199.0" height="76.0" rx="8" ry="8" fill="rgba(0, 0, 0, 0)" stroke="rgba(204, 204, 204, 1)" stroke-width="2"></rect><text x="-942.1" y="-2047.4" fill="rgba(255, 255, 255, 1)" font-size="32" text-anchor="start" font-family="MiSans">上一次启动记录服务</text><rect x="898.4" y="-2099.4" width="124.0" height="76.0" rx="8" ry="8" fill="rgba(0, 0, 0, 0)" stroke="rgba(204, 204, 204, 1)" stroke-width="2"></rect><text x="912.4" y="-2047.4" fill="rgba(255, 255, 255, 1)" font-size="32" text-anchor="start" font-family="MiSans">CLI系统</text><rect x="-1869.4" y="-865.2" width="104.0" height="76.0" rx="8" ry="8" fill="rgba(0, 0, 0, 0)" stroke="rgba(204, 204, 204, 1)" stroke-width="2"></rect><text x="-1855.4" y="-813.2" fill="rgba(255, 255, 255, 1)" font-size="32" text-anchor="start" font-family="MiSans">连线模块</text><rect x="-1667.8" y="-865.2" width="104.0" height="76.0" rx="8" ry="8" fill="rgba(0, 0, 0, 0)" stroke="rgba(204, 204, 204, 1)" stroke-width="2"></rect><text x="-1653.8" y="-813.2" fill="rgba(255, 255, 255, 1)" font-size="32" text-anchor="start" font-family="MiSans">框选模块</text><rect x="-169.9" y="-1508.2" width="218.0" height="76.0" rx="8" ry="8" fill="rgba(0, 0, 0, 0)" stroke="rgba(204, 204, 204, 1)" stroke-width="2"></rect><text x="-155.9" y="-1456.2" fill="rgba(255, 255, 255, 1)" font-size="32" text-anchor="start" font-family="MiSans">根据文本生成节点系统</text><rect x="-152.6" y="-1401.0" width="274.0" height="76.0" rx="8" ry="8" fill="rgba(0, 0, 0, 0)" stroke="rgba(204, 204, 204, 1)" stroke-width="2"></rect><text x="-138.6" y="-1349.0" fill="rgba(255, 255, 255, 1)" font-size="32" text-anchor="start" font-family="MiSans">导出markdown系统</text><rect x="1901.3" y="1176.8" width="142.0" height="76.0" rx="8" ry="8" fill="rgba(0, 0, 0, 0)" stroke="rgba(204, 204, 204, 1)" stroke-width="2"></rect><text x="1915.3" y="1228.8" fill="rgba(255, 255, 255, 1)" font-size="32" text-anchor="start" font-family="MiSans">数组扩展算法</text><rect x="1901.3" y="1297.7" width="142.0" height="76.0" rx="8" ry="8" fill="rgba(0, 0, 0, 0)" stroke="rgba(204, 204, 204, 1)" stroke-width="2"></rect><text x="1915.3" y="1349.7" fill="rgba(255, 255, 255, 1)" font-size="32" text-anchor="start" font-family="MiSans">实数扩展算法</text><rect x="1172.0" y="1746.3" width="104.0" height="76.0" rx="8" ry="8" fill="rgba(0, 0, 0, 0)" stroke="rgba(204, 204, 204, 1)" stroke-width="2"></rect><text x="1186.0" y="1798.3" fill="rgba(255, 255, 255, 1)" font-size="32" text-anchor="start" font-family="MiSans">二维向量</text><rect x="2173.8" y="1297.7" width="161.0" height="76.0" rx="8" ry="8" fill="rgba(0, 0, 0, 0)" stroke="rgba(204, 204, 204, 1)" stroke-width="2"></rect><text x="2187.8" y="1349.7" fill="rgba(255, 255, 255, 1)" font-size="32" text-anchor="start" font-family="MiSans">数值积分的算法</text><rect x="2237.8" y="1176.8" width="85.0" height="76.0" rx="8" ry="8" fill="rgba(0, 0, 0, 0)" stroke="rgba(204, 204, 204, 1)" stroke-width="2"></rect><text x="2251.8" y="1228.8" fill="rgba(255, 255, 255, 1)" font-size="32" text-anchor="start" font-family="MiSans">概率论</text><rect x="950.3" y="1746.3" width="66.0" height="76.0" rx="8" ry="8" fill="rgba(0, 0, 0, 0)" stroke="rgba(204, 204, 204, 1)" stroke-width="2"></rect><text x="964.3" y="1798.3" fill="rgba(255, 255, 255, 1)" font-size="32" text-anchor="start" font-family="MiSans">图形</text><rect x="1539.5" y="1205.3" width="142.0" height="76.0" rx="8" ry="8" fill="rgba(0, 0, 0, 0)" stroke="rgba(204, 204, 204, 1)" stroke-width="2"></rect><text x="1553.5" y="1257.3" fill="rgba(255, 255, 255, 1)" font-size="32" text-anchor="start" font-family="MiSans">图形碰撞检测</text><rect x="956.2" y="1878.0" width="142.0" height="76.0" rx="8" ry="8" fill="rgba(0, 0, 0, 0)" stroke="rgba(204, 204, 204, 1)" stroke-width="2"></rect><text x="970.2" y="1930.0" fill="rgba(255, 255, 255, 1)" font-size="32" text-anchor="start" font-family="MiSans">缓存数据结构</text><rect x="1230.1" y="1878.1" width="85.0" height="76.0" rx="8" ry="8" fill="rgba(0, 0, 0, 0)" stroke="rgba(204, 204, 204, 1)" stroke-width="2"></rect><text x="1244.1" y="1930.1" fill="rgba(255, 255, 255, 1)" font-size="32" text-anchor="start" font-family="MiSans">单调栈</text><rect x="1382.2" y="1878.1" width="85.0" height="76.0" rx="8" ry="8" fill="rgba(0, 0, 0, 0)" stroke="rgba(204, 204, 204, 1)" stroke-width="2"></rect><text x="1396.2" y="1930.1" fill="rgba(255, 255, 255, 1)" font-size="32" text-anchor="start" font-family="MiSans">颜色类</text><rect x="1382.1" y="1746.3" width="104.0" height="76.0" rx="8" ry="8" fill="rgba(0, 0, 0, 0)" stroke="rgba(204, 204, 204, 1)" stroke-width="2"></rect><text x="1396.1" y="1798.3" fill="rgba(255, 255, 255, 1)" font-size="32" text-anchor="start" font-family="MiSans">进度条类</text><rect x="1382.1" y="1639.7" width="157.0" height="76.0" rx="8" ry="8" fill="rgba(0, 0, 0, 0)" stroke="rgba(204, 204, 204, 1)" stroke-width="2"></rect><text x="1396.1" y="1691.7" fill="rgba(255, 255, 255, 1)" font-size="32" text-anchor="start" font-family="MiSans">uuid字典类</text><rect x="-80.1" y="-2693.6" width="161.0" height="124.0" rx="8" ry="8" fill="rgba(0, 0, 0, 0)" stroke="rgba(204, 204, 204, 1)" stroke-width="2"></rect><text x="-66.1" y="-2641.6" fill="rgba(255, 255, 255, 1)" font-size="32" text-anchor="start" font-family="MiSans">插件系统</text><text x="-66.1" y="-2593.6" fill="rgba(255, 255, 255, 1)" font-size="32" text-anchor="start" font-family="MiSans">更多的业务服务</text><rect x="158.5" y="-1070.2" width="142.0" height="76.0" rx="8" ry="8" fill="rgba(0, 0, 0, 0)" stroke="rgba(204, 204, 204, 1)" stroke-width="2"></rect><text x="172.5" y="-1018.2" fill="rgba(255, 255, 255, 1)" font-size="32" text-anchor="start" font-family="MiSans">节点搜索功能</text><rect x="356.6" y="-1566.7" width="104.0" height="76.0" rx="8" ry="8" fill="rgba(0, 0, 0, 0)" stroke="rgba(204, 204, 204, 1)" stroke-width="2"></rect><text x="370.6" y="-1514.7" fill="rgba(255, 255, 255, 1)" font-size="32" text-anchor="start" font-family="MiSans">自动保存</text><rect x="356.6" y="-1453.3" width="104.0" height="76.0" rx="8" ry="8" fill="rgba(0, 0, 0, 0)" stroke="rgba(204, 204, 204, 1)" stroke-width="2"></rect><text x="370.6" y="-1401.3" fill="rgba(255, 255, 255, 1)" font-size="32" text-anchor="start" font-family="MiSans">自动备份</text><rect x="-1376.2" y="-865.2" width="142.0" height="76.0" rx="8" ry="8" fill="rgba(0, 0, 0, 0)" stroke="rgba(204, 204, 204, 1)" stroke-width="2"></rect><text x="-1362.2" y="-813.2" fill="rgba(255, 255, 255, 1)" font-size="32" text-anchor="start" font-family="MiSans">复制粘贴功能</text><rect x="-1079.6" y="-974.7" width="142.0" height="76.0" rx="8" ry="8" fill="rgba(0, 0, 0, 0)" stroke="rgba(204, 204, 204, 1)" stroke-width="2"></rect><text x="-1065.6" y="-922.7" fill="rgba(255, 255, 255, 1)" font-size="32" text-anchor="start" font-family="MiSans">拖拽文件控制</text><rect x="-1929.4" y="484.2" width="234.0" height="76.0" rx="8" ry="8" fill="rgba(0, 0, 0, 0)" stroke="rgba(204, 204, 204, 1)" stroke-width="2"></rect><text x="-1915.4" y="536.2" fill="rgba(255, 255, 255, 1)" font-size="32" text-anchor="start" font-family="MiSans">StageLoader</text><rect x="-1929.4" y="326.9" width="252.0" height="76.0" rx="8" ry="8" fill="rgba(0, 0, 0, 0)" stroke="rgba(204, 204, 204, 1)" stroke-width="2"></rect><text x="-1915.4" y="378.9" fill="rgba(255, 255, 255, 1)" font-size="32" text-anchor="start" font-family="MiSans">StageDumper</text><rect x="-2797.9" y="-1099.0" width="323.0" height="76.0" rx="8" ry="8" fill="rgba(0, 0, 0, 0)" stroke="rgba(204, 204, 204, 1)" stroke-width="2"></rect><text x="-2783.9" y="-1047.0" fill="rgba(255, 255, 255, 1)" font-size="32" text-anchor="start" font-family="MiSans">StageDumperSVG</text><rect x="-1899.4" y="-1453.3" width="104.0" height="76.0" rx="8" ry="8" fill="rgba(0, 0, 0, 0)" stroke="rgba(204, 204, 204, 1)" stroke-width="2"></rect><text x="-1885.4" y="-1401.3" fill="rgba(255, 255, 255, 1)" font-size="32" text-anchor="start" font-family="MiSans">吸附对齐</text><rect x="-1899.4" y="-2195.4" width="216.0" height="172.0" rx="8" ry="8" fill="rgba(0, 0, 0, 0)" stroke="rgba(204, 204, 204, 1)" stroke-width="2"></rect><text x="-1885.4" y="-2143.4" fill="rgba(255, 255, 255, 1)" font-size="32" text-anchor="start" font-family="MiSans">注：</text><text x="-1885.4" y="-2095.4" fill="rgba(255, 255, 255, 1)" font-size="32" text-anchor="start" font-family="MiSans">通常各种服务</text><text x="-1885.4" y="-2047.4" fill="rgba(255, 255, 255, 1)" font-size="32" text-anchor="start" font-family="MiSans">会绑定到Stage上</text><rect x="-1024.5" y="1143.0" width="227.0" height="124.0" rx="8" ry="8" fill="rgba(0, 0, 0, 0)" stroke="rgba(204, 204, 204, 1)" stroke-width="2"></rect><text x="-1010.5" y="1195.0" fill="rgba(255, 255, 255, 1)" font-size="32" text-anchor="start" font-family="MiSans">舞台对象</text><text x="-1010.5" y="1243.0" fill="rgba(255, 255, 255, 1)" font-size="32" text-anchor="start" font-family="MiSans">StageObject</text><rect x="-1575.6" y="1333.9" width="218.0" height="172.0" rx="8" ry="8" fill="rgba(0, 0, 0, 0)" stroke="rgba(204, 204, 204, 1)" stroke-width="2"></rect><text x="-1561.6" y="1385.9" fill="rgba(255, 255, 255, 1)" font-size="32" text-anchor="start" font-family="MiSans">“关系”阵营</text><text x="-1561.6" y="1433.9" fill="rgba(255, 255, 255, 1)" font-size="32" text-anchor="start" font-family="MiSans">Association</text><text x="-1561.6" y="1481.9" fill="rgba(255, 255, 255, 1)" font-size="32" text-anchor="start" font-family="MiSans">必须依靠其他内容存在</text><rect x="-499.3" y="1333.9" width="142.0" height="172.0" rx="8" ry="8" fill="rgba(0, 0, 0, 0)" stroke="rgba(204, 204, 204, 1)" stroke-width="2"></rect><text x="-485.3" y="1385.9" fill="rgba(255, 255, 255, 1)" font-size="32" text-anchor="start" font-family="MiSans">“实体”阵营</text><text x="-485.3" y="1433.9" fill="rgba(255, 255, 255, 1)" font-size="32" text-anchor="start" font-family="MiSans">Entity</text><text x="-485.3" y="1481.9" fill="rgba(255, 255, 255, 1)" font-size="32" text-anchor="start" font-family="MiSans">能够独立存在</text><rect x="-727.6" y="1637.5" width="329.0" height="124.0" rx="8" ry="8" fill="rgba(0, 0, 0, 0)" stroke="rgba(204, 204, 204, 1)" stroke-width="2"></rect><text x="-713.6" y="1689.5" fill="rgba(255, 255, 255, 1)" font-size="32" text-anchor="start" font-family="MiSans">可连接实体</text><text x="-713.6" y="1737.5" fill="rgba(255, 255, 255, 1)" font-size="32" text-anchor="start" font-family="MiSans">ConnectableEntity</text><rect x="-186.9" y="1637.5" width="66.0" height="76.0" rx="8" ry="8" fill="rgba(0, 0, 0, 0)" stroke="rgba(204, 204, 204, 1)" stroke-width="2"></rect><text x="-172.9" y="1689.5" fill="rgba(255, 255, 255, 1)" font-size="32" text-anchor="start" font-family="MiSans">涂鸦</text><rect x="-869.2" y="2106.2" width="47.0" height="76.0" rx="8" ry="8" fill="rgba(0, 0, 0, 0)" stroke="rgba(204, 204, 204, 1)" stroke-width="2"></rect><text x="-855.2" y="2158.2" fill="rgba(255, 255, 255, 1)" font-size="32" text-anchor="start" font-family="MiSans">框</text><rect x="-803.3" y="2106.2" width="104.0" height="76.0" rx="8" ry="8" fill="rgba(0, 0, 0, 0)" stroke="rgba(204, 204, 204, 1)" stroke-width="2"></rect><text x="-789.3" y="2158.2" fill="rgba(255, 255, 255, 1)" font-size="32" text-anchor="start" font-family="MiSans">文本节点</text><rect x="-637.2" y="2106.2" width="85.0" height="76.0" rx="8" ry="8" fill="rgba(0, 0, 0, 0)" stroke="rgba(204, 204, 204, 1)" stroke-width="2"></rect><text x="-623.2" y="2158.2" fill="rgba(255, 255, 255, 1)" font-size="32" text-anchor="start" font-family="MiSans">传送门</text><rect x="-1399.5" y="1637.5" width="142.0" height="76.0" rx="8" ry="8" fill="rgba(0, 0, 0, 0)" stroke="rgba(204, 204, 204, 1)" stroke-width="2"></rect><text x="-1385.5" y="1689.5" fill="rgba(255, 255, 255, 1)" font-size="32" text-anchor="start" font-family="MiSans">图论连接关系</text><rect x="-1189.0" y="2014.7" width="85.0" height="76.0" rx="8" ry="8" fill="rgba(0, 0, 0, 0)" stroke="rgba(204, 204, 204, 1)" stroke-width="2"></rect><text x="-1175.0" y="2066.7" fill="rgba(255, 255, 255, 1)" font-size="32" text-anchor="start" font-family="MiSans">有向边</text><rect x="-1506.9" y="2014.7" width="104.0" height="76.0" rx="8" ry="8" fill="rgba(0, 0, 0, 0)" stroke="rgba(204, 204, 204, 1)" stroke-width="2"></rect><text x="-1492.9" y="2066.7" fill="rgba(255, 255, 255, 1)" font-size="32" text-anchor="start" font-family="MiSans">全联通边</text><rect x="-1097.6" y="2243.2" width="123.0" height="76.0" rx="8" ry="8" fill="rgba(0, 0, 0, 0)" stroke="rgba(204, 204, 204, 1)" stroke-width="2"></rect><text x="-1083.6" y="2295.2" fill="rgba(255, 255, 255, 1)" font-size="32" text-anchor="start" font-family="MiSans">直线有向边</text><rect x="-1399.5" y="2243.2" width="171.0" height="76.0" rx="8" ry="8" fill="rgba(0, 0, 0, 0)" stroke="rgba(204, 204, 204, 1)" stroke-width="2"></rect><text x="-1385.5" y="2295.2" fill="rgba(255, 255, 255, 1)" font-size="32" text-anchor="start" font-family="MiSans">CR曲线有向边</text><rect x="-1097.6" y="965.4" width="85.0" height="76.0" rx="8" ry="8" fill="rgba(0, 0, 0, 0)" stroke="rgba(204, 204, 204, 1)" stroke-width="2"></rect><text x="-1083.6" y="1017.4" fill="rgba(255, 255, 255, 1)" font-size="32" text-anchor="start" font-family="MiSans">继承图</text><rect x="-499.3" y="2106.2" width="66.0" height="76.0" rx="8" ry="8" fill="rgba(0, 0, 0, 0)" stroke="rgba(204, 204, 204, 1)" stroke-width="2"></rect><text x="-485.3" y="2158.2" fill="rgba(255, 255, 255, 1)" font-size="32" text-anchor="start" font-family="MiSans">质点</text><rect x="-395.2" y="2106.2" width="104.0" height="76.0" rx="8" ry="8" fill="rgba(0, 0, 0, 0)" stroke="rgba(204, 204, 204, 1)" stroke-width="2"></rect><text x="-381.2" y="2158.2" fill="rgba(255, 255, 255, 1)" font-size="32" text-anchor="start" font-family="MiSans">链接节点</text><rect x="-1925.2" y="1143.0" width="180.0" height="124.0" rx="8" ry="8" fill="rgba(0, 0, 0, 0)" stroke="rgba(204, 204, 204, 1)" stroke-width="2"></rect><text x="-1911.2" y="1195.0" fill="rgba(255, 255, 255, 1)" font-size="32" text-anchor="start" font-family="MiSans">碰撞箱</text><text x="-1911.2" y="1243.0" fill="rgba(255, 255, 255, 1)" font-size="32" text-anchor="start" font-family="MiSans">本质是图形的集合</text><rect x="-1822.2" y="1637.5" width="123.0" height="76.0" rx="8" ry="8" fill="rgba(0, 0, 0, 0)" stroke="rgba(204, 204, 204, 1)" stroke-width="2"></rect><text x="-1808.2" y="1689.5" fill="rgba(255, 255, 255, 1)" font-size="32" text-anchor="start" font-family="MiSans">关系的关系</text><rect x="-1870.2" y="2014.7" width="180.0" height="76.0" rx="8" ry="8" fill="rgba(0, 0, 0, 0)" stroke="rgba(204, 204, 204, 1)" stroke-width="2"></rect><text x="-1856.2" y="2066.7" fill="rgba(255, 255, 255, 1)" font-size="32" text-anchor="start" font-family="MiSans">有向的关系的关系</text><rect x="-370.8" y="645.0" width="123.0" height="76.0" rx="8" ry="8" fill="rgba(0, 0, 0, 0)" stroke="rgba(204, 204, 204, 1)" stroke-width="2"></rect><text x="-356.8" y="697.0" fill="rgba(255, 255, 255, 1)" font-size="32" text-anchor="start" font-family="MiSans">集合论算法</text><rect x="-220.9" y="449.8" width="104.0" height="76.0" rx="8" ry="8" fill="rgba(0, 0, 0, 0)" stroke="rgba(204, 204, 204, 1)" stroke-width="2"></rect><text x="-206.9" y="501.8" fill="rgba(255, 255, 255, 1)" font-size="32" text-anchor="start" font-family="MiSans">图论算法</text><rect x="-1080.1" y="507.9" width="142.0" height="76.0" rx="8" ry="8" fill="rgba(0, 0, 0, 0)" stroke="rgba(204, 204, 204, 1)" stroke-width="2"></rect><text x="-1066.1" y="559.9" fill="rgba(255, 255, 255, 1)" font-size="32" text-anchor="start" font-family="MiSans">舞台内容容器</text><rect x="-1929.4" y="106.7" width="180.0" height="76.0" rx="8" ry="8" fill="rgba(0, 0, 0, 0)" stroke="rgba(204, 204, 204, 1)" stroke-width="2"></rect><text x="-1915.4" y="158.7" fill="rgba(255, 255, 255, 1)" font-size="32" text-anchor="start" font-family="MiSans">舞台历史记录管理</text><rect x="-1745.4" y="-414.9" width="142.0" height="76.0" rx="8" ry="8" fill="rgba(0, 0, 0, 0)" stroke="rgba(204, 204, 204, 1)" stroke-width="2"></rect><text x="-1731.4" y="-362.9" fill="rgba(255, 255, 255, 1)" font-size="32" text-anchor="start" font-family="MiSans">内容删除模块</text><rect x="-1409.4" y="-414.9" width="142.0" height="76.0" rx="8" ry="8" fill="rgba(0, 0, 0, 0)" stroke="rgba(204, 204, 204, 1)" stroke-width="2"></rect><text x="-1395.4" y="-362.9" fill="rgba(255, 255, 255, 1)" font-size="32" text-anchor="start" font-family="MiSans">节点旋转模块</text><rect x="-1073.4" y="-414.9" width="142.0" height="76.0" rx="8" ry="8" fill="rgba(0, 0, 0, 0)" stroke="rgba(204, 204, 204, 1)" stroke-width="2"></rect><text x="-1059.4" y="-362.9" fill="rgba(255, 255, 255, 1)" font-size="32" text-anchor="start" font-family="MiSans">自动对齐模块</text><rect x="-705.4" y="-414.9" width="104.0" height="76.0" rx="8" ry="8" fill="rgba(0, 0, 0, 0)" stroke="rgba(204, 204, 204, 1)" stroke-width="2"></rect><text x="-691.4" y="-362.9" fill="rgba(255, 255, 255, 1)" font-size="32" text-anchor="start" font-family="MiSans">移动模块</text><rect x="-1761.4" y="-256.6" width="161.0" height="76.0" rx="8" ry="8" fill="rgba(0, 0, 0, 0)" stroke="rgba(204, 204, 204, 1)" stroke-width="2"></rect><text x="-1747.4" y="-204.6" fill="rgba(255, 255, 255, 1)" font-size="32" text-anchor="start" font-family="MiSans">跳入跳出框模块</text><rect x="-1377.4" y="-256.6" width="104.0" height="76.0" rx="8" ry="8" fill="rgba(0, 0, 0, 0)" stroke="rgba(204, 204, 204, 1)" stroke-width="2"></rect><text x="-1363.4" y="-204.6" fill="rgba(255, 255, 255, 1)" font-size="32" text-anchor="start" font-family="MiSans">连线模块</text><rect x="-1057.4" y="-256.6" width="123.0" height="76.0" rx="8" ry="8" fill="rgba(0, 0, 0, 0)" stroke="rgba(204, 204, 204, 1)" stroke-width="2"></rect><text x="-1043.4" y="-204.6" fill="rgba(255, 255, 255, 1)" font-size="32" text-anchor="start" font-family="MiSans">打包框模块</text><rect x="-737.4" y="-256.6" width="142.0" height="76.0" rx="8" ry="8" fill="rgba(0, 0, 0, 0)" stroke="rgba(204, 204, 204, 1)" stroke-width="2"></rect><text x="-723.4" y="-204.6" fill="rgba(255, 255, 255, 1)" font-size="32" text-anchor="start" font-family="MiSans">标签管理模块</text><rect x="-1779.8" y="-104.7" width="199.0" height="76.0" rx="8" ry="8" fill="rgba(0, 0, 0, 0)" stroke="rgba(204, 204, 204, 1)" stroke-width="2"></rect><text x="-1765.8" y="-52.7" fill="rgba(255, 255, 255, 1)" font-size="32" text-anchor="start" font-family="MiSans">通过序列化增加内容</text><rect x="-1378.8" y="-104.7" width="104.0" height="76.0" rx="8" ry="8" fill="rgba(0, 0, 0, 0)" stroke="rgba(204, 204, 204, 1)" stroke-width="2"></rect><text x="-1364.8" y="-52.7" fill="rgba(255, 255, 255, 1)" font-size="32" text-anchor="start" font-family="MiSans">颜色管理</text><rect x="-414.6" y="-2124.4" width="142.0" height="76.0" rx="8" ry="8" fill="rgba(193, 240, 168, 1)" stroke="rgba(204, 204, 204, 1)" stroke-width="2"></rect><text x="-400.6" y="-2072.4" fill="rgba(0, 0, 0, 1)" font-size="32" text-anchor="start" font-family="MiSans">帮助教程服务</text><rect x="-1476.1" y="-1566.7" width="276.0" height="124.0" rx="8" ry="8" fill="rgba(168, 216, 240, 1)" stroke="rgba(204, 204, 204, 1)" stroke-width="2"></rect><text x="-1462.1" y="-1514.7" fill="rgba(0, 0, 0, 1)" font-size="32" text-anchor="start" font-family="MiSans">MouseLocation</text><text x="-1462.1" y="-1466.7" fill="rgba(0, 0, 0, 1)" font-size="32" text-anchor="start" font-family="MiSans">全局检测鼠标位置</text><rect x="-1271.6" y="572.9" width="85.0" height="76.0" rx="8" ry="8" fill="rgba(0, 0, 0, 0)" stroke="rgba(204, 204, 204, 1)" stroke-width="2"></rect><text x="-1257.6" y="624.9" fill="rgba(255, 255, 255, 1)" font-size="32" text-anchor="start" font-family="MiSans">摄像机</text><rect x="-1206.0" y="214.4" width="121.0" height="124.0" rx="8" ry="8" fill="rgba(0, 0, 0, 0)" stroke="rgba(204, 204, 204, 1)" stroke-width="2"></rect><text x="-1192.0" y="266.4" fill="rgba(255, 255, 255, 1)" font-size="32" text-anchor="start" font-family="MiSans">舞台</text><text x="-1192.0" y="314.4" fill="rgba(255, 255, 255, 1)" font-size="32" text-anchor="start" font-family="MiSans">Stage</text><rect x="-1447.5" y="507.9" width="85.0" height="76.0" rx="8" ry="8" fill="rgba(0, 0, 0, 0)" stroke="rgba(204, 204, 204, 1)" stroke-width="2"></rect><text x="-1433.5" y="559.9" fill="rgba(255, 255, 255, 1)" font-size="32" text-anchor="start" font-family="MiSans">框选框</text><rect x="-585.4" y="-889.2" width="161.0" height="124.0" rx="8" ry="8" fill="rgba(0, 0, 0, 0)" stroke="rgba(204, 204, 204, 1)" stroke-width="2"></rect><text x="-571.4" y="-837.2" fill="rgba(255, 255, 255, 1)" font-size="32" text-anchor="start" font-family="MiSans">秘籍键模块</text><text x="-571.4" y="-789.2" fill="rgba(255, 255, 255, 1)" font-size="32" text-anchor="start" font-family="MiSans">存放实验性功能</text><rect x="-1020.6" y="-1242.2" width="180.0" height="76.0" rx="8" ry="8" fill="rgba(0, 0, 0, 0)" stroke="rgba(204, 204, 204, 1)" stroke-width="2"></rect><text x="-1006.6" y="-1190.2" fill="rgba(255, 255, 255, 1)" font-size="32" text-anchor="start" font-family="MiSans">鼠标悬浮交互模块</text><line x1="350.1" y1="-308.8" x2="234.6" y2="-484.8" stroke="rgba(204, 204, 204, 1)" stroke-width="2"></line><line x1="93.8" y1="-699.2" x2="209.3" y2="-523.2" stroke="rgba(204, 204, 204, 1)" stroke-width="2"></line><text x="221.95153477834498" y="-490.00771273065527" fill="rgba(204, 204, 204, 1)" font-size="32" text-anchor="middle" font-family="MiSans">控制各种服务的开关和配置</text><polygon points="93.8,-699.2 98.5,-684.9 97.9,-692.9 105.0,-689.2" fill="rgba(204, 204, 204, 1)" stroke="rgba(204, 204, 204, 1)"></polygon><line x1="646.2" y1="-158.3" x2="500.3" y2="-208.8" stroke="rgba(204, 204, 204, 1)" stroke-width="2"></line><polygon points="500.3,-208.8 512.8,-200.4 507.4,-206.4 515.3,-207.8" fill="rgba(204, 204, 204, 1)" stroke="rgba(204, 204, 204, 1)"></polygon><line x1="702.3" y1="-410.1" x2="400.1" y2="-699.2" stroke="rgba(204, 204, 204, 1)" stroke-width="2"></line><polygon points="400.1,-699.2 407.9,-686.4 405.6,-694.0 413.3,-692.0" fill="rgba(204, 204, 204, 1)" stroke="rgba(204, 204, 204, 1)"></polygon><line x1="1016.3" y1="1755.8" x2="1566.4" y2="1281.3" stroke="rgba(204, 204, 204, 1)" stroke-width="2"></line><polygon points="1566.4,1281.3 1552.9,1287.8 1560.7,1286.2 1558.0,1293.7" fill="rgba(204, 204, 204, 1)" stroke="rgba(204, 204, 204, 1)"></polygon><line x1="1172.0" y1="1784.3" x2="1016.3" y2="1784.3" stroke="rgba(204, 204, 204, 1)" stroke-width="2"></line><polygon points="1016.3,1784.3 1030.8,1788.1 1023.8,1784.3 1030.8,1780.4" fill="rgba(204, 204, 204, 1)" stroke="rgba(204, 204, 204, 1)"></polygon><line x1="-131.6" y1="-2275.4" x2="-22.6" y2="-2569.6" stroke="rgba(204, 204, 204, 1)" stroke-width="2"></line><polygon points="-22.6,-2569.6 -31.2,-2557.4 -25.2,-2562.6 -23.9,-2554.7" fill="rgba(204, 204, 204, 1)" stroke="rgba(204, 204, 204, 1)"></polygon><line x1="193.9" y1="-1150.2" x2="119.8" y2="-1295.0" stroke="rgba(204, 204, 204, 1)" stroke-width="2"></line><polygon points="119.8,-1295.0 122.9,-1280.4 123.2,-1288.4 129.8,-1283.9" fill="rgba(204, 204, 204, 1)" stroke="rgba(204, 204, 204, 1)"></polygon><line x1="364.7" y1="-1150.2" x2="476.2" y2="-1347.3" stroke="rgba(204, 204, 204, 1)" stroke-width="2"></line><polygon points="476.2,-1347.3 465.7,-1336.6 472.5,-1340.7 472.4,-1332.7" fill="rgba(204, 204, 204, 1)" stroke="rgba(204, 204, 204, 1)"></polygon><line x1="-1357.6" y1="1377.7" x2="-1024.5" y2="1248.9" stroke="rgba(204, 204, 204, 1)" stroke-width="2"></line><polygon points="-1024.5,1248.9 -1039.4,1250.5 -1031.5,1251.6 -1036.6,1257.7" fill="rgba(204, 204, 204, 1)" stroke="rgba(204, 204, 204, 1)"></polygon><line x1="-499.3" y1="1388.3" x2="-797.5" y2="1255.5" stroke="rgba(204, 204, 204, 1)" stroke-width="2"></line><polygon points="-797.5,1255.5 -785.9,1265.0 -790.7,1258.6 -782.7,1257.9" fill="rgba(204, 204, 204, 1)" stroke="rgba(204, 204, 204, 1)"></polygon><line x1="-533.2" y1="1637.5" x2="-469.7" y2="1505.9" stroke="rgba(204, 204, 204, 1)" stroke-width="2"></line><polygon points="-469.7,1505.9 -479.5,1517.2 -473.0,1512.6 -472.5,1520.6" fill="rgba(204, 204, 204, 1)" stroke="rgba(204, 204, 204, 1)"></polygon><line x1="-186.9" y1="1644.8" x2="-357.3" y2="1486.0" stroke="rgba(204, 204, 204, 1)" stroke-width="2"></line><polygon points="-357.3,1486.0 -349.3,1498.8 -351.8,1491.1 -344.1,1493.1" fill="rgba(204, 204, 204, 1)" stroke="rgba(204, 204, 204, 1)"></polygon><line x1="-822.2" y1="2107.2" x2="-602.5" y2="1761.5" stroke="rgba(204, 204, 204, 1)" stroke-width="2"></line><polygon points="-602.5,1761.5 -613.5,1771.7 -606.5,1767.9 -607.0,1775.8" fill="rgba(204, 204, 204, 1)" stroke="rgba(204, 204, 204, 1)"></polygon><line x1="-735.3" y1="2106.2" x2="-589.3" y2="1761.5" stroke="rgba(204, 204, 204, 1)" stroke-width="2"></line><polygon points="-589.3,1761.5 -598.6,1773.4 -592.3,1768.4 -591.4,1776.4" fill="rgba(204, 204, 204, 1)" stroke="rgba(204, 204, 204, 1)"></polygon><line x1="-592.0" y1="2106.2" x2="-567.5" y2="1761.5" stroke="rgba(204, 204, 204, 1)" stroke-width="2"></line><polygon points="-567.5,1761.5 -572.4,1775.7 -568.0,1769.0 -564.6,1776.3" fill="rgba(204, 204, 204, 1)" stroke="rgba(204, 204, 204, 1)"></polygon><line x1="-1349.0" y1="1637.5" x2="-1420.1" y2="1505.9" stroke="rgba(204, 204, 204, 1)" stroke-width="2"></line><polygon points="-1420.1,1505.9 -1416.7,1520.5 -1416.6,1512.5 -1409.8,1516.8" fill="rgba(204, 204, 204, 1)" stroke="rgba(204, 204, 204, 1)"></polygon><line x1="-1164.8" y1="2014.7" x2="-1310.1" y2="1713.5" stroke="rgba(204, 204, 204, 1)" stroke-width="2"></line><polygon points="-1310.1,1713.5 -1307.3,1728.3 -1306.9,1720.3 -1300.3,1724.9" fill="rgba(204, 204, 204, 1)" stroke="rgba(204, 204, 204, 1)"></polygon><line x1="-1442.1" y1="2014.7" x2="-1341.2" y2="1713.5" stroke="rgba(204, 204, 204, 1)" stroke-width="2"></line><polygon points="-1341.2,1713.5 -1349.5,1726.0 -1343.6,1720.6 -1342.1,1728.5" fill="rgba(204, 204, 204, 1)" stroke="rgba(204, 204, 204, 1)"></polygon><line x1="-1054.5" y1="2243.2" x2="-1128.1" y2="2090.7" stroke="rgba(204, 204, 204, 1)" stroke-width="2"></line><polygon points="-1128.1,2090.7 -1125.3,2105.4 -1124.9,2097.4 -1118.3,2102.0" fill="rgba(204, 204, 204, 1)" stroke="rgba(204, 204, 204, 1)"></polygon><line x1="-1286.1" y1="2243.2" x2="-1174.3" y2="2090.7" stroke="rgba(204, 204, 204, 1)" stroke-width="2"></line><polygon points="-1174.3,2090.7 -1186.0,2100.1 -1178.8,2096.7 -1179.8,2104.7" fill="rgba(204, 204, 204, 1)" stroke="rgba(204, 204, 204, 1)"></polygon><line x1="-474.6" y1="2106.2" x2="-549.6" y2="1761.5" stroke="rgba(204, 204, 204, 1)" stroke-width="2"></line><polygon points="-549.6,1761.5 -550.3,1776.5 -548.0,1768.9 -542.7,1774.9" fill="rgba(204, 204, 204, 1)" stroke="rgba(204, 204, 204, 1)"></polygon><line x1="-362.0" y1="2106.2" x2="-532.4" y2="1761.5" stroke="rgba(204, 204, 204, 1)" stroke-width="2"></line><polygon points="-532.4,1761.5 -529.5,1776.2 -529.1,1768.3 -522.5,1772.8" fill="rgba(204, 204, 204, 1)" stroke="rgba(204, 204, 204, 1)"></polygon><line x1="-1024.5" y1="1205.0" x2="-1352.9" y2="1205.0" stroke="rgba(0, 255, 0, 1)" stroke-width="2"></line><line x1="-1745.2" y1="1205.0" x2="-1416.9" y2="1205.0" stroke="rgba(0, 255, 0, 1)" stroke-width="2"></line><text x="-1384.8798730044368" y="1218.9945167228564" fill="rgba(0, 255, 0, 1)" font-size="32" text-anchor="middle" font-family="MiSans">含有</text><polygon points="-1745.2,1205.0 -1730.8,1208.9 -1737.7,1205.0 -1730.8,1201.1" fill="rgba(0, 255, 0, 1)" stroke="rgba(0, 255, 0, 1)"></polygon><line x1="-1717.0" y1="1637.5" x2="-1565.6" y2="1505.9" stroke="rgba(204, 204, 204, 1)" stroke-width="2"></line><polygon points="-1565.6,1505.9 -1579.0,1512.5 -1571.2,1510.8 -1573.9,1518.3" fill="rgba(204, 204, 204, 1)" stroke="rgba(204, 204, 204, 1)"></polygon><line x1="-1778.2" y1="2014.7" x2="-1762.7" y2="1713.5" stroke="rgba(204, 204, 204, 1)" stroke-width="2"></line><polygon points="-1762.7,1713.5 -1767.3,1727.8 -1763.1,1721.0 -1759.5,1728.2" fill="rgba(204, 204, 204, 1)" stroke="rgba(204, 204, 204, 1)"></polygon><line x1="-1015.9" y1="885.4" x2="-1014.8" y2="781.0" stroke="rgba(204, 204, 204, 1)" stroke-width="2"></line><polygon points="-1014.8,781.0 -1018.9,795.5 -1014.9,788.5 -1011.1,795.6" fill="rgba(204, 204, 204, 1)" stroke="rgba(204, 204, 204, 1)"></polygon><line x1="-56.9" y1="-134.8" x2="281.3" y2="-219.4" stroke="rgba(204, 204, 204, 1)" stroke-width="2"></line><polygon points="281.3,-219.4 266.3,-219.7 274.1,-217.6 268.2,-212.2" fill="rgba(204, 204, 204, 1)" stroke="rgba(204, 204, 204, 1)"></polygon><line x1="-759.0" y1="-574.9" x2="-713.4" y2="-699.2" stroke="rgba(204, 204, 204, 1)" stroke-width="2"></line><polygon points="-713.4,-699.2 -722.0,-686.9 -716.0,-692.1 -714.7,-684.2" fill="rgba(204, 204, 204, 1)" stroke="rgba(204, 204, 204, 1)"></polygon><line x1="-56.9" y1="64.5" x2="646.2" y2="36.0" stroke="rgba(204, 204, 204, 1)" stroke-width="2"></line><polygon points="646.2,36.0 631.5,32.7 638.7,36.3 631.8,40.4" fill="rgba(204, 204, 204, 1)" stroke="rgba(204, 204, 204, 1)"></polygon><line x1="-938.1" y1="547.3" x2="-797.4" y2="549.9" stroke="rgba(204, 204, 204, 1)" stroke-width="2"></line><line x1="-400.8" y1="557.4" x2="-541.4" y2="554.8" stroke="rgba(204, 204, 204, 1)" stroke-width="2"></line><text x="-669.4265979822344" y="566.3485482303056" fill="rgba(204, 204, 204, 1)" font-size="32" text-anchor="middle" font-family="MiSans">仅对内容基础操作</text><polygon points="-400.8,557.4 -415.2,553.3 -408.3,557.3 -415.3,561.0" fill="rgba(204, 204, 204, 1)" stroke="rgba(204, 204, 204, 1)"></polygon><line x1="-1190.6" y1="134.4" x2="-1190.2" y2="87.0" stroke="rgba(204, 204, 204, 1)" stroke-width="2"></line><line x1="-1189.6" y1="1.3" x2="-1189.9" y2="48.6" stroke="rgba(204, 204, 204, 1)" stroke-width="2"></line><text x="-1190.0916434092164" y="81.81675414499135" fill="rgba(204, 204, 204, 1)" font-size="32" text-anchor="middle" font-family="MiSans">衍生功能</text><polygon points="-1189.6,1.3 -1193.6,15.7 -1189.6,8.8 -1185.8,15.8" fill="rgba(204, 204, 204, 1)" stroke="rgba(204, 204, 204, 1)"></polygon><line x1="-1065.8" y1="507.9" x2="-1147.6" y2="453.1" stroke="rgba(204, 204, 204, 1)" stroke-width="2"></line><polygon points="-1147.6,453.1 -1137.7,464.4 -1141.4,457.3 -1133.4,457.9" fill="rgba(204, 204, 204, 1)" stroke="rgba(204, 204, 204, 1)"></polygon><line x1="-1209.8" y1="572.9" x2="-1149.1" y2="453.4" stroke="rgba(204, 204, 204, 1)" stroke-width="2"></line><polygon points="-1149.1,453.4 -1159.1,464.6 -1152.5,460.1 -1152.2,468.1" fill="rgba(204, 204, 204, 1)" stroke="rgba(204, 204, 204, 1)"></polygon><line x1="-1148.6" y1="451.4" x2="-1147.9" y2="414.1" stroke="rgba(204, 204, 204, 1)" stroke-width="2"></line><line x1="-1146.6" y1="338.4" x2="-1147.2" y2="375.7" stroke="rgba(204, 204, 204, 1)" stroke-width="2"></line><text x="-1147.584758244388" y="408.8968776115112" fill="rgba(204, 204, 204, 1)" font-size="32" text-anchor="middle" font-family="MiSans">构成</text><polygon points="-1146.6,338.4 -1150.7,352.8 -1146.7,345.9 -1143.0,352.9" fill="rgba(204, 204, 204, 1)" stroke="rgba(204, 204, 204, 1)"></polygon><line x1="-1362.5" y1="530.4" x2="-1149.6" y2="452.8" stroke="rgba(204, 204, 204, 1)" stroke-width="2"></line><polygon points="-1149.6,452.8 -1164.5,454.1 -1156.6,455.4 -1161.9,461.4" fill="rgba(204, 204, 204, 1)" stroke="rgba(204, 204, 204, 1)"></polygon><line x1="-1268.7" y1="-494.9" x2="-1305.7" y2="-607.9" stroke="rgba(59, 130, 246, 1)" stroke-width="2"></line><line x1="-1355.2" y1="-759.2" x2="-1318.2" y2="-646.3" stroke="rgba(59, 130, 246, 1)" stroke-width="2"></line><text x="-1311.9625680984961" y="-613.0614389004993" fill="rgba(59, 130, 246, 1)" font-size="32" text-anchor="middle" font-family="MiSans">紧密联系</text><polygon points="-1355.2,-759.2 -1354.4,-744.2 -1352.8,-752.1 -1347.0,-746.6" fill="rgba(59, 130, 246, 1)" stroke="rgba(59, 130, 246, 1)"></polygon><line x1="-585.4" y1="-834.3" x2="-666.5" y2="-841.5" stroke="rgba(204, 204, 204, 1)" stroke-width="2"></line><line x1="-907.6" y1="-862.9" x2="-826.5" y2="-855.7" stroke="rgba(204, 204, 204, 1)" stroke-width="2"></line><text x="-746.5037309225131" y="-834.6219445173908" fill="rgba(204, 204, 204, 1)" font-size="32" text-anchor="middle" font-family="MiSans">成熟后加入</text><polygon points="-907.6,-862.9 -893.5,-857.8 -900.2,-862.3 -892.8,-865.5" fill="rgba(204, 204, 204, 1)" stroke="rgba(204, 204, 204, 1)"></polygon><rect x="-3175.4" y="-292.3" width="452.8" height="411.2" rx="8" ry="8" fill="rgba(0, 0, 0, 0)" stroke="rgba(204, 204, 204, 1)" stroke-width="2"></rect><text x="-3161.4" y="-262.3" fill="rgba(204, 204, 204, 1)" font-size="32" text-anchor="start" font-family="MiSans">概念关系</text><rect x="646.2" y="-410.1" width="1002.6" height="851.5" rx="8" ry="8" fill="rgba(0, 0, 0, 0)" stroke="rgba(204, 204, 204, 1)" stroke-width="2"></rect><text x="660.2" y="-380.1" fill="rgba(204, 204, 204, 1)" font-size="32" text-anchor="start" font-family="MiSans">渲染器</text><rect x="-1959.4" y="-2275.4" width="3071.1" height="1576.2" rx="8" ry="8" fill="rgba(0, 0, 0, 0)" stroke="rgba(204, 204, 204, 1)" stroke-width="2"></rect><text x="-1945.4" y="-2245.4" fill="rgba(204, 204, 204, 1)" font-size="32" text-anchor="start" font-family="MiSans">Service层</text><rect x="773.5" y="-1299.9" width="308.2" height="451.7" rx="8" ry="8" fill="rgba(236, 198, 60, 1)" stroke="rgba(204, 204, 204, 1)" stroke-width="2"></rect><text x="787.5" y="-1269.9" fill="rgba(204, 204, 204, 1)" font-size="32" text-anchor="start" font-family="MiSans">感官反馈 Feedback</text><rect x="-199.9" y="-1704.4" width="429.7" height="409.4" rx="8" ry="8" fill="rgba(92, 47, 96, 1)" stroke="rgba(204, 204, 204, 1)" stroke-width="2"></rect><text x="-185.9" y="-1674.4" fill="rgba(204, 204, 204, 1)" font-size="32" text-anchor="start" font-family="MiSans">信息生成 DataGenerate</text><rect x="-1929.4" y="-1646.7" width="1535.0" height="917.5" rx="8" ry="8" fill="rgba(0, 0, 0, 0)" stroke="rgba(204, 204, 204, 1)" stroke-width="2"></rect><text x="-1915.4" y="-1616.7" fill="rgba(204, 204, 204, 1)" font-size="32" text-anchor="start" font-family="MiSans">交互控制类服务</text><rect x="1509.5" y="1096.8" width="855.3" height="306.9" rx="8" ry="8" fill="rgba(0, 0, 0, 0)" stroke="rgba(204, 204, 204, 1)" stroke-width="2"></rect><text x="1523.5" y="1126.8" fill="rgba(204, 204, 204, 1)" font-size="32" text-anchor="start" font-family="MiSans">通用算法</text><rect x="920.3" y="1559.7" width="648.8" height="424.4" rx="8" ry="8" fill="rgba(0, 0, 0, 0)" stroke="rgba(204, 204, 204, 1)" stroke-width="2"></rect><text x="934.3" y="1589.7" fill="rgba(204, 204, 204, 1)" font-size="32" text-anchor="start" font-family="MiSans">数据结构</text><rect x="326.6" y="-1646.7" width="468.6" height="299.4" rx="8" ry="8" fill="rgba(73, 159, 202, 1)" stroke="rgba(204, 204, 204, 1)" stroke-width="2"></rect><text x="340.6" y="-1616.7" fill="rgba(204, 204, 204, 1)" font-size="32" text-anchor="start" font-family="MiSans">文件管理 DataFile</text><rect x="128.5" y="-1150.2" width="293.1" height="316.8" rx="8" ry="8" fill="rgba(73, 159, 202, 1)" stroke="rgba(204, 204, 204, 1)" stroke-width="2"></rect><text x="142.5" y="-1120.2" fill="rgba(204, 204, 204, 1)" font-size="32" text-anchor="start" font-family="MiSans">信息管理 DataManage</text><rect x="-986.1" y="-2179.4" width="259.0" height="186.0" rx="8" ry="8" fill="rgba(0, 0, 0, 0)" stroke="rgba(204, 204, 204, 1)" stroke-width="2"></rect><text x="-972.1" y="-2149.4" fill="rgba(204, 204, 204, 1)" font-size="32" text-anchor="start" font-family="MiSans">其他未分类的服务</text><rect x="-1955.2" y="885.4" width="1864.3" height="1463.8" rx="8" ry="8" fill="rgba(0, 0, 0, 0)" stroke="rgba(204, 204, 204, 1)" stroke-width="2"></rect><text x="-1941.2" y="915.4" fill="rgba(204, 204, 204, 1)" font-size="32" text-anchor="start" font-family="MiSans">舞台基本元素 StageObject</text><rect x="890.3" y="1016.8" width="1504.5" height="997.3" rx="8" ry="8" fill="rgba(0, 0, 0, 0)" stroke="rgba(204, 204, 204, 1)" stroke-width="2"></rect><text x="904.3" y="1046.8" fill="rgba(204, 204, 204, 1)" font-size="32" text-anchor="start" font-family="MiSans">通用数据结构与算法</text><rect x="-400.8" y="369.8" width="313.8" height="381.3" rx="8" ry="8" fill="rgba(0, 0, 0, 0)" stroke="rgba(204, 204, 204, 1)" stroke-width="2"></rect><text x="-386.8" y="399.8" fill="rgba(204, 204, 204, 1)" font-size="32" text-anchor="start" font-family="MiSans">基础算法类模块</text><rect x="-1959.4" y="-574.9" width="1902.4" height="1356.0" rx="8" ry="8" fill="rgba(0, 0, 0, 0)" stroke="rgba(204, 204, 204, 1)" stroke-width="2"></rect><text x="-1945.4" y="-544.9" fill="rgba(204, 204, 204, 1)" font-size="32" text-anchor="start" font-family="MiSans">舞台管理器 StageManager</text><rect x="-1809.8" y="-494.9" width="1244.4" height="496.2" rx="8" ry="8" fill="rgba(0, 0, 0, 0)" stroke="rgba(204, 204, 204, 1)" stroke-width="2"></rect><text x="-1795.8" y="-464.9" fill="rgba(204, 204, 204, 1)" font-size="32" text-anchor="start" font-family="MiSans">具体舞台内容管理模块</text><rect x="-1477.5" y="134.4" width="569.4" height="544.5" rx="8" ry="8" fill="rgba(0, 0, 0, 0)" stroke="rgba(204, 204, 204, 1)" stroke-width="2"></rect><text x="-1463.5" y="164.4" fill="rgba(204, 204, 204, 1)" font-size="32" text-anchor="start" font-family="MiSans">舞台基础</text><rect x="-1899.4" y="-1054.7" width="991.8" height="295.5" rx="8" ry="8" fill="rgba(59, 130, 246, 1)" stroke="rgba(204, 204, 204, 1)" stroke-width="2"></rect><text x="-1885.4" y="-1024.7" fill="rgba(204, 204, 204, 1)" font-size="32" text-anchor="start" font-family="MiSans">控制器Controller</text></svg>