<svg xmlns="http://www.w3.org/2000/svg" width="3195.7778506711047" height="3046.655569133008" viewBox="-1681.8800338991487 -2123.155147153521 3195.7778506711047 3046.655569133008" style="background-color:rgba(31, 31, 31, 1)"><rect x="-1651.9" y="110.3" width="189.0" height="76.0" rx="8" ry="8" fill="rgba(0, 0, 0, 0)" stroke="rgba(204, 204, 204, 1)" stroke-width="2"></rect><text x="-1637.9" y="162.3" fill="rgba(255, 255, 255, 1)" font-size="32" text-anchor="start" font-family="MiSans">序列化json数据</text><rect x="-1600.0" y="-114.8" width="341.0" height="76.0" rx="8" ry="8" fill="rgba(0, 0, 0, 0)" stroke="rgba(204, 204, 204, 1)" stroke-width="2"></rect><text x="-1586.0" y="-62.8" fill="rgba(255, 255, 255, 1)" font-size="32" text-anchor="start" font-family="MiSans">各种StageObject类的对象</text><rect x="-29.4" y="236.3" width="161.0" height="76.0" rx="8" ry="8" fill="rgba(0, 0, 0, 0)" stroke="rgba(204, 204, 204, 1)" stroke-width="2"></rect><text x="-15.4" y="288.3" fill="rgba(255, 255, 255, 1)" font-size="32" text-anchor="start" font-family="MiSans">数据结构与算法</text><rect x="-352.0" y="-175.9" width="123.0" height="76.0" rx="8" ry="8" fill="rgba(0, 0, 0, 0)" stroke="rgba(204, 204, 204, 1)" stroke-width="2"></rect><text x="-338.0" y="-123.9" fill="rgba(255, 255, 255, 1)" font-size="32" text-anchor="start" font-family="MiSans">舞台管理器</text><rect x="-384.0" y="85.1" width="142.0" height="76.0" rx="8" ry="8" fill="rgba(0, 0, 0, 0)" stroke="rgba(204, 204, 204, 1)" stroke-width="2"></rect><text x="-370.0" y="137.1" fill="rgba(255, 255, 255, 1)" font-size="32" text-anchor="start" font-family="MiSans">舞台基本元素</text><rect x="285.9" y="-175.1" width="170.0" height="76.0" rx="8" ry="8" fill="rgba(0, 0, 0, 0)" stroke="rgba(204, 204, 204, 1)" stroke-width="2"></rect><text x="299.9" y="-123.1" fill="rgba(255, 255, 255, 1)" font-size="32" text-anchor="start" font-family="MiSans">DOM渲染器</text><rect x="285.9" y="-79.2" width="248.0" height="76.0" rx="8" ry="8" fill="rgba(0, 0, 0, 0)" stroke="rgba(204, 204, 204, 1)" stroke-width="2"></rect><text x="299.9" y="-27.2" fill="rgba(255, 255, 255, 1)" font-size="32" text-anchor="start" font-family="MiSans">Canvas2D渲染器</text><rect x="285.9" y="15.9" width="145.0" height="76.0" rx="8" ry="8" fill="rgba(0, 0, 0, 0)" stroke="rgba(204, 204, 204, 1)" stroke-width="2"></rect><text x="299.9" y="67.9" fill="rgba(255, 255, 255, 1)" font-size="32" text-anchor="start" font-family="MiSans">Svg生成器</text><rect x="-587.1" y="-1382.9" width="142.0" height="76.0" rx="8" ry="8" fill="rgba(0, 0, 0, 0)" stroke="rgba(204, 204, 204, 1)" stroke-width="2"></rect><text x="-573.1" y="-1330.9" fill="rgba(255, 255, 255, 1)" font-size="32" text-anchor="start" font-family="MiSans">自动计算引擎</text><rect x="247.4" y="-1334.4" width="104.0" height="76.0" rx="8" ry="8" fill="rgba(0, 0, 0, 0)" stroke="rgba(204, 204, 204, 1)" stroke-width="2"></rect><text x="261.4" y="-1282.4" fill="rgba(255, 255, 255, 1)" font-size="32" text-anchor="start" font-family="MiSans">特效引擎</text><rect x="979.2" y="-1117.2" width="142.0" height="76.0" rx="8" ry="8" fill="rgba(0, 0, 0, 0)" stroke="rgba(204, 204, 204, 1)" stroke-width="2"></rect><text x="993.2" y="-1065.2" fill="rgba(255, 255, 255, 1)" font-size="32" text-anchor="start" font-family="MiSans">自动布局引擎</text><rect x="259.2" y="-738.7" width="218.0" height="76.0" rx="8" ry="8" fill="rgba(0, 0, 0, 0)" stroke="rgba(204, 204, 204, 1)" stroke-width="2"></rect><text x="273.2" y="-686.7" fill="rgba(255, 255, 255, 1)" font-size="32" text-anchor="start" font-family="MiSans">鼠标键盘注册监听系统</text><rect x="767.3" y="-990.3" width="161.0" height="76.0" rx="8" ry="8" fill="rgba(0, 0, 0, 0)" stroke="rgba(204, 204, 204, 1)" stroke-width="2"></rect><text x="781.3" y="-938.3" fill="rgba(255, 255, 255, 1)" font-size="32" text-anchor="start" font-family="MiSans">纯键盘操作引擎</text><rect x="439.2" y="-1334.4" width="104.0" height="76.0" rx="8" ry="8" fill="rgba(0, 0, 0, 0)" stroke="rgba(204, 204, 204, 1)" stroke-width="2"></rect><text x="453.2" y="-1282.4" fill="rgba(255, 255, 255, 1)" font-size="32" text-anchor="start" font-family="MiSans">音效引擎</text><rect x="245.7" y="-1225.5" width="161.0" height="76.0" rx="8" ry="8" fill="rgba(0, 0, 0, 0)" stroke="rgba(204, 204, 204, 1)" stroke-width="2"></rect><text x="259.7" y="-1173.5" fill="rgba(255, 255, 255, 1)" font-size="32" text-anchor="start" font-family="MiSans">舞台样式控制器</text><rect x="-515.2" y="-794.4" width="161.0" height="76.0" rx="8" ry="8" fill="rgba(0, 0, 0, 0)" stroke="rgba(204, 204, 204, 1)" stroke-width="2"></rect><text x="-501.2" y="-742.4" fill="rgba(255, 255, 255, 1)" font-size="32" text-anchor="start" font-family="MiSans">节点颜色管理器</text><rect x="767.3" y="-889.5" width="199.0" height="76.0" rx="8" ry="8" fill="rgba(0, 0, 0, 0)" stroke="rgba(204, 204, 204, 1)" stroke-width="2"></rect><text x="781.3" y="-837.5" fill="rgba(255, 255, 255, 1)" font-size="32" text-anchor="start" font-family="MiSans">快捷键注册监听系统</text><rect x="216.4" y="-1557.9" width="199.0" height="76.0" rx="8" ry="8" fill="rgba(0, 0, 0, 0)" stroke="rgba(204, 204, 204, 1)" stroke-width="2"></rect><text x="230.4" y="-1505.9" fill="rgba(255, 255, 255, 1)" font-size="32" text-anchor="start" font-family="MiSans">最近打开文件管理器</text><rect x="-80.1" y="-456.2" width="219.0" height="124.0" rx="8" ry="8" fill="rgba(0, 0, 0, 0)" stroke="rgba(204, 204, 204, 1)" stroke-width="2"></rect><text x="-66.1" y="-404.2" fill="rgba(255, 255, 255, 1)" font-size="32" text-anchor="start" font-family="MiSans">设置管理器</text><text x="-66.1" y="-356.2" fill="rgba(255, 255, 255, 1)" font-size="32" text-anchor="start" font-family="MiSans">Settings.tsx</text><rect x="214.4" y="-1671.3" width="218.0" height="76.0" rx="8" ry="8" fill="rgba(0, 0, 0, 0)" stroke="rgba(204, 204, 204, 1)" stroke-width="2"></rect><text x="228.4" y="-1619.3" fill="rgba(255, 255, 255, 1)" font-size="32" text-anchor="start" font-family="MiSans">初始化启动文件管理器</text><rect x="-319.4" y="-1382.9" width="102.0" height="76.0" rx="8" ry="8" fill="rgba(0, 0, 0, 0)" stroke="rgba(204, 204, 204, 1)" stroke-width="2"></rect><text x="-305.4" y="-1330.9" fill="rgba(255, 255, 255, 1)" font-size="32" text-anchor="start" font-family="MiSans">AI服务</text><rect x="-586.5" y="-1601.8" width="199.0" height="76.0" rx="8" ry="8" fill="rgba(0, 0, 0, 0)" stroke="rgba(204, 204, 204, 1)" stroke-width="2"></rect><text x="-572.5" y="-1549.8" fill="rgba(255, 255, 255, 1)" font-size="32" text-anchor="start" font-family="MiSans">上一次启动记录服务</text><rect x="-763.4" y="-80.0" width="161.0" height="76.0" rx="8" ry="8" fill="rgba(0, 0, 0, 0)" stroke="rgba(204, 204, 204, 1)" stroke-width="2"></rect><text x="-749.4" y="-28.0" fill="rgba(255, 255, 255, 1)" font-size="32" text-anchor="start" font-family="MiSans">鼠标位置记录器</text><rect x="1359.9" y="-1117.2" width="124.0" height="76.0" rx="8" ry="8" fill="rgba(0, 0, 0, 0)" stroke="rgba(204, 204, 204, 1)" stroke-width="2"></rect><text x="1373.9" y="-1065.2" fill="rgba(255, 255, 255, 1)" font-size="32" text-anchor="start" font-family="MiSans">CLI系统</text><rect x="259.2" y="-990.3" width="104.0" height="76.0" rx="8" ry="8" fill="rgba(0, 0, 0, 0)" stroke="rgba(204, 204, 204, 1)" stroke-width="2"></rect><text x="273.2" y="-938.3" fill="rgba(255, 255, 255, 1)" font-size="32" text-anchor="start" font-family="MiSans">连线模块</text><rect x="259.2" y="-887.3" width="104.0" height="76.0" rx="8" ry="8" fill="rgba(0, 0, 0, 0)" stroke="rgba(204, 204, 204, 1)" stroke-width="2"></rect><text x="273.2" y="-835.3" fill="rgba(255, 255, 255, 1)" font-size="32" text-anchor="start" font-family="MiSans">框选模块</text><rect x="-587.1" y="-1266.7" width="218.0" height="76.0" rx="8" ry="8" fill="rgba(0, 0, 0, 0)" stroke="rgba(204, 204, 204, 1)" stroke-width="2"></rect><text x="-573.1" y="-1214.7" fill="rgba(255, 255, 255, 1)" font-size="32" text-anchor="start" font-family="MiSans">根据文本生成节点系统</text><rect x="-569.9" y="-1159.6" width="274.0" height="76.0" rx="8" ry="8" fill="rgba(0, 0, 0, 0)" stroke="rgba(204, 204, 204, 1)" stroke-width="2"></rect><text x="-555.9" y="-1107.6" fill="rgba(255, 255, 255, 1)" font-size="32" text-anchor="start" font-family="MiSans">导出markdown系统</text><rect x="-535.9" y="664.5" width="142.0" height="76.0" rx="8" ry="8" fill="rgba(0, 0, 0, 0)" stroke="rgba(204, 204, 204, 1)" stroke-width="2"></rect><text x="-521.9" y="716.5" fill="rgba(255, 255, 255, 1)" font-size="32" text-anchor="start" font-family="MiSans">数组扩展算法</text><rect x="-535.9" y="785.4" width="142.0" height="76.0" rx="8" ry="8" fill="rgba(0, 0, 0, 0)" stroke="rgba(204, 204, 204, 1)" stroke-width="2"></rect><text x="-521.9" y="837.4" fill="rgba(255, 255, 255, 1)" font-size="32" text-anchor="start" font-family="MiSans">实数扩展算法</text><rect x="393.5" y="655.7" width="104.0" height="76.0" rx="8" ry="8" fill="rgba(0, 0, 0, 0)" stroke="rgba(204, 204, 204, 1)" stroke-width="2"></rect><text x="407.5" y="707.7" fill="rgba(255, 255, 255, 1)" font-size="32" text-anchor="start" font-family="MiSans">二维向量</text><rect x="-263.4" y="785.4" width="161.0" height="76.0" rx="8" ry="8" fill="rgba(0, 0, 0, 0)" stroke="rgba(204, 204, 204, 1)" stroke-width="2"></rect><text x="-249.4" y="837.4" fill="rgba(255, 255, 255, 1)" font-size="32" text-anchor="start" font-family="MiSans">数值积分的算法</text><rect x="-199.4" y="664.5" width="85.0" height="76.0" rx="8" ry="8" fill="rgba(0, 0, 0, 0)" stroke="rgba(204, 204, 204, 1)" stroke-width="2"></rect><text x="-185.4" y="716.5" fill="rgba(255, 255, 255, 1)" font-size="32" text-anchor="start" font-family="MiSans">概率论</text><rect x="171.8" y="655.7" width="66.0" height="76.0" rx="8" ry="8" fill="rgba(0, 0, 0, 0)" stroke="rgba(204, 204, 204, 1)" stroke-width="2"></rect><text x="185.8" y="707.7" fill="rgba(255, 255, 255, 1)" font-size="32" text-anchor="start" font-family="MiSans">图形</text><rect x="-201.4" y="545.0" width="142.0" height="76.0" rx="8" ry="8" fill="rgba(0, 0, 0, 0)" stroke="rgba(204, 204, 204, 1)" stroke-width="2"></rect><text x="-187.4" y="597.0" fill="rgba(255, 255, 255, 1)" font-size="32" text-anchor="start" font-family="MiSans">图形碰撞检测</text><rect x="177.7" y="787.5" width="142.0" height="76.0" rx="8" ry="8" fill="rgba(0, 0, 0, 0)" stroke="rgba(204, 204, 204, 1)" stroke-width="2"></rect><text x="191.7" y="839.5" fill="rgba(255, 255, 255, 1)" font-size="32" text-anchor="start" font-family="MiSans">缓存数据结构</text><rect x="451.6" y="787.5" width="85.0" height="76.0" rx="8" ry="8" fill="rgba(0, 0, 0, 0)" stroke="rgba(204, 204, 204, 1)" stroke-width="2"></rect><text x="465.6" y="839.5" fill="rgba(255, 255, 255, 1)" font-size="32" text-anchor="start" font-family="MiSans">单调栈</text><rect x="603.7" y="787.5" width="85.0" height="76.0" rx="8" ry="8" fill="rgba(0, 0, 0, 0)" stroke="rgba(204, 204, 204, 1)" stroke-width="2"></rect><text x="617.7" y="839.5" fill="rgba(255, 255, 255, 1)" font-size="32" text-anchor="start" font-family="MiSans">颜色类</text><rect x="603.6" y="655.7" width="104.0" height="76.0" rx="8" ry="8" fill="rgba(0, 0, 0, 0)" stroke="rgba(204, 204, 204, 1)" stroke-width="2"></rect><text x="617.6" y="707.7" fill="rgba(255, 255, 255, 1)" font-size="32" text-anchor="start" font-family="MiSans">进度条类</text><rect x="603.7" y="549.1" width="157.0" height="76.0" rx="8" ry="8" fill="rgba(0, 0, 0, 0)" stroke="rgba(204, 204, 204, 1)" stroke-width="2"></rect><text x="617.7" y="601.1" fill="rgba(255, 255, 255, 1)" font-size="32" text-anchor="start" font-family="MiSans">uuid字典类</text><rect x="-119.2" y="-2093.2" width="161.0" height="124.0" rx="8" ry="8" fill="rgba(0, 0, 0, 0)" stroke="rgba(204, 204, 204, 1)" stroke-width="2"></rect><text x="-105.2" y="-2041.2" fill="rgba(255, 255, 255, 1)" font-size="32" text-anchor="start" font-family="MiSans">插件系统</text><text x="-105.2" y="-1993.2" fill="rgba(255, 255, 255, 1)" font-size="32" text-anchor="start" font-family="MiSans">更多的业务服务</text><rect x="-515.2" y="-908.4" width="142.0" height="76.0" rx="8" ry="8" fill="rgba(0, 0, 0, 0)" stroke="rgba(204, 204, 204, 1)" stroke-width="2"></rect><text x="-501.2" y="-856.4" fill="rgba(255, 255, 255, 1)" font-size="32" text-anchor="start" font-family="MiSans">节点搜索功能</text><rect x="23.8" y="-1671.3" width="104.0" height="76.0" rx="8" ry="8" fill="rgba(0, 0, 0, 0)" stroke="rgba(204, 204, 204, 1)" stroke-width="2"></rect><text x="37.8" y="-1619.3" fill="rgba(255, 255, 255, 1)" font-size="32" text-anchor="start" font-family="MiSans">自动保存</text><rect x="23.8" y="-1557.9" width="104.0" height="76.0" rx="8" ry="8" fill="rgba(0, 0, 0, 0)" stroke="rgba(204, 204, 204, 1)" stroke-width="2"></rect><text x="37.8" y="-1505.9" fill="rgba(255, 255, 255, 1)" font-size="32" text-anchor="start" font-family="MiSans">自动备份</text><rect x="862.0" y="-519.5" width="142.0" height="76.0" rx="8" ry="8" fill="rgba(0, 0, 0, 0)" stroke="rgba(204, 204, 204, 1)" stroke-width="2"></rect><text x="876.0" y="-467.5" fill="rgba(255, 255, 255, 1)" font-size="32" text-anchor="start" font-family="MiSans">复制粘贴功能</text><rect x="439.2" y="-519.5" width="142.0" height="76.0" rx="8" ry="8" fill="rgba(0, 0, 0, 0)" stroke="rgba(204, 204, 204, 1)" stroke-width="2"></rect><text x="453.2" y="-467.5" fill="rgba(255, 255, 255, 1)" font-size="32" text-anchor="start" font-family="MiSans">拖拽文件控制</text><rect x="-793.4" y="-175.9" width="180.0" height="76.0" rx="8" ry="8" fill="rgba(0, 0, 0, 0)" stroke="rgba(204, 204, 204, 1)" stroke-width="2"></rect><text x="-779.4" y="-123.9" fill="rgba(255, 255, 255, 1)" font-size="32" text-anchor="start" font-family="MiSans">历史记录管理模块</text><rect x="-1109.5" y="-175.9" width="234.0" height="76.0" rx="8" ry="8" fill="rgba(0, 0, 0, 0)" stroke="rgba(204, 204, 204, 1)" stroke-width="2"></rect><text x="-1095.5" y="-123.9" fill="rgba(255, 255, 255, 1)" font-size="32" text-anchor="start" font-family="MiSans">StageLoader</text><rect x="-1109.5" y="-21.4" width="252.0" height="76.0" rx="8" ry="8" fill="rgba(0, 0, 0, 0)" stroke="rgba(204, 204, 204, 1)" stroke-width="2"></rect><text x="-1095.5" y="30.6" fill="rgba(255, 255, 255, 1)" font-size="32" text-anchor="start" font-family="MiSans">StageDumper</text><rect x="-1075.0" y="-988.4" width="323.0" height="76.0" rx="8" ry="8" fill="rgba(0, 0, 0, 0)" stroke="rgba(204, 204, 204, 1)" stroke-width="2"></rect><text x="-1061.0" y="-936.4" fill="rgba(255, 255, 255, 1)" font-size="32" text-anchor="start" font-family="MiSans">StageDumperSVG</text><rect x="767.3" y="-1117.2" width="104.0" height="76.0" rx="8" ry="8" fill="rgba(0, 0, 0, 0)" stroke="rgba(204, 204, 204, 1)" stroke-width="2"></rect><text x="781.3" y="-1065.2" fill="rgba(255, 255, 255, 1)" font-size="32" text-anchor="start" font-family="MiSans">吸附对齐</text><rect x="-1006.8" y="-1831.3" width="216.0" height="172.0" rx="8" ry="8" fill="rgba(0, 0, 0, 0)" stroke="rgba(204, 204, 204, 1)" stroke-width="2"></rect><text x="-992.8" y="-1779.3" fill="rgba(255, 255, 255, 1)" font-size="32" text-anchor="start" font-family="MiSans">注：</text><text x="-992.8" y="-1731.3" fill="rgba(255, 255, 255, 1)" font-size="32" text-anchor="start" font-family="MiSans">通常各种服务</text><text x="-992.8" y="-1683.3" fill="rgba(255, 255, 255, 1)" font-size="32" text-anchor="start" font-family="MiSans">会绑定到Stage上</text><line x1="-29.4" y1="240.8" x2="-242.0" y2="152.5" stroke="rgba(204, 204, 204, 1)" stroke-width="2"></line><polygon points="-242.0,152.5 -230.1,161.7 -235.0,155.4 -227.1,154.5" fill="rgba(204, 204, 204, 1)" stroke="rgba(204, 204, 204, 1)"></polygon><line x1="-309.7" y1="85.1" x2="-293.7" y2="-99.9" stroke="rgba(204, 204, 204, 1)" stroke-width="2"></line><polygon points="-293.7,-99.9 -298.9,-85.8 -294.4,-92.4 -291.1,-85.1" fill="rgba(204, 204, 204, 1)" stroke="rgba(204, 204, 204, 1)"></polygon><line x1="91.1" y1="236.3" x2="255.9" y2="79.7" stroke="rgba(204, 204, 204, 1)" stroke-width="2"></line><polygon points="255.9,79.7 242.7,86.9 250.5,84.9 248.1,92.5" fill="rgba(204, 204, 204, 1)" stroke="rgba(204, 204, 204, 1)"></polygon><line x1="25.6" y1="-456.2" x2="22.0" y2="-513.4" stroke="rgba(204, 204, 204, 1)" stroke-width="2"></line><line x1="16.4" y1="-602.7" x2="20.0" y2="-545.4" stroke="rgba(204, 204, 204, 1)" stroke-width="2"></line><text x="20.986694260586695" y="-515.4131996678833" fill="rgba(204, 204, 204, 1)" font-size="32" text-anchor="middle" font-family="MiSans">控制各种服务的开关和配置</text><polygon points="16.4,-602.7 13.4,-588.0 16.9,-595.2 21.2,-588.5" fill="rgba(204, 204, 204, 1)" stroke="rgba(204, 204, 204, 1)"></polygon><line x1="-243.0" y1="-175.9" x2="-48.0" y2="-332.2" stroke="rgba(204, 204, 204, 1)" stroke-width="2"></line><polygon points="-48.0,-332.2 -61.7,-326.1 -53.8,-327.5 -56.8,-320.1" fill="rgba(204, 204, 204, 1)" stroke="rgba(204, 204, 204, 1)"></polygon><line x1="255.9" y1="-199.2" x2="101.5" y2="-332.2" stroke="rgba(204, 204, 204, 1)" stroke-width="2"></line><polygon points="101.5,-332.2 109.9,-319.8 107.1,-327.3 115.0,-325.6" fill="rgba(204, 204, 204, 1)" stroke="rgba(204, 204, 204, 1)"></polygon><line x1="-281.0" y1="-175.9" x2="-174.8" y2="-602.7" stroke="rgba(204, 204, 204, 1)" stroke-width="2"></line><polygon points="-174.8,-602.7 -182.1,-589.6 -176.6,-595.4 -174.6,-587.7" fill="rgba(204, 204, 204, 1)" stroke="rgba(204, 204, 204, 1)"></polygon><line x1="339.1" y1="-255.1" x2="208.7" y2="-602.7" stroke="rgba(204, 204, 204, 1)" stroke-width="2"></line><polygon points="208.7,-602.7 210.1,-587.7 211.3,-595.7 217.4,-590.5" fill="rgba(204, 204, 204, 1)" stroke="rgba(204, 204, 204, 1)"></polygon><line x1="507.2" y1="-885.0" x2="737.3" y2="-940.5" stroke="rgba(204, 204, 204, 1)" stroke-width="2"></line><polygon points="737.3,-940.5 722.3,-940.9 730.0,-938.7 724.1,-933.3" fill="rgba(204, 204, 204, 1)" stroke="rgba(204, 204, 204, 1)"></polygon><line x1="171.8" y1="682.8" x2="-59.4" y2="606.4" stroke="rgba(204, 204, 204, 1)" stroke-width="2"></line><polygon points="-59.4,606.4 -46.9,614.7 -52.3,608.8 -44.5,607.3" fill="rgba(204, 204, 204, 1)" stroke="rgba(204, 204, 204, 1)"></polygon><line x1="393.5" y1="693.7" x2="237.8" y2="693.7" stroke="rgba(204, 204, 204, 1)" stroke-width="2"></line><polygon points="237.8,693.7 252.3,697.6 245.3,693.7 252.3,689.8" fill="rgba(204, 204, 204, 1)" stroke="rgba(204, 204, 204, 1)"></polygon><line x1="-113.6" y1="465.0" x2="18.3" y2="312.3" stroke="rgba(204, 204, 204, 1)" stroke-width="2"></line><polygon points="18.3,312.3 5.9,320.7 13.4,317.9 11.8,325.8" fill="rgba(204, 204, 204, 1)" stroke="rgba(204, 204, 204, 1)"></polygon><line x1="249.8" y1="469.1" x2="89.9" y2="312.3" stroke="rgba(204, 204, 204, 1)" stroke-width="2"></line><polygon points="89.9,312.3 97.5,325.2 95.3,317.5 103.0,319.6" fill="rgba(204, 204, 204, 1)" stroke="rgba(204, 204, 204, 1)"></polygon><line x1="-34.6" y1="-1831.3" x2="-37.4" y2="-1969.2" stroke="rgba(204, 204, 204, 1)" stroke-width="2"></line><polygon points="-37.4,-1969.2 -41.0,-1954.6 -37.3,-1961.7 -33.3,-1954.7" fill="rgba(204, 204, 204, 1)" stroke="rgba(204, 204, 204, 1)"></polygon><line x1="466.1" y1="-662.7" x2="862.0" y2="-509.0" stroke="rgba(204, 204, 204, 1)" stroke-width="2"></line><polygon points="862.0,-509.0 849.9,-517.9 855.0,-511.7 847.1,-510.6" fill="rgba(204, 204, 204, 1)" stroke="rgba(204, 204, 204, 1)"></polygon><line x1="392.9" y1="-662.7" x2="485.6" y2="-519.5" stroke="rgba(204, 204, 204, 1)" stroke-width="2"></line><polygon points="485.6,-519.5 481.0,-533.7 481.5,-525.8 474.5,-529.5" fill="rgba(204, 204, 204, 1)" stroke="rgba(204, 204, 204, 1)"></polygon><line x1="-352.0" y1="-137.9" x2="-613.4" y2="-137.9" stroke="rgba(204, 204, 204, 1)" stroke-width="2"></line><polygon points="-613.4,-137.9 -598.9,-134.0 -605.9,-137.9 -598.9,-141.8" fill="rgba(204, 204, 204, 1)" stroke="rgba(204, 204, 204, 1)"></polygon><line x1="-229.0" y1="-131.6" x2="-114.5" y2="-120.0" stroke="rgba(204, 204, 204, 1)" stroke-width="2"></line><line x1="255.9" y1="-82.3" x2="141.5" y2="-93.9" stroke="rgba(204, 204, 204, 1)" stroke-width="2"></line><text x="13.467529717098017" y="-92.94978533197728" fill="rgba(204, 204, 204, 1)" font-size="32" text-anchor="middle" font-family="MiSans">数据与渲染相分离</text><polygon points="255.9,-82.3 241.9,-87.6 248.4,-83.0 241.1,-79.9" fill="rgba(204, 204, 204, 1)" stroke="rgba(204, 204, 204, 1)"></polygon><line x1="-647.1" y1="-1593.7" x2="-790.8" y2="-1680.3" stroke="rgba(204, 204, 204, 1)" stroke-width="2"></line><polygon points="-790.8,-1680.3 -780.4,-1669.5 -784.4,-1676.4 -776.4,-1676.1" fill="rgba(204, 204, 204, 1)" stroke="rgba(204, 204, 204, 1)"></polygon><line x1="1151.2" y1="-1028.9" x2="1359.9" y2="-1067.7" stroke="rgba(204, 204, 204, 1)" stroke-width="2"></line><polygon points="1359.9,-1067.7 1344.9,-1068.9 1352.5,-1066.3 1346.4,-1061.2" fill="rgba(204, 204, 204, 1)" stroke="rgba(204, 204, 204, 1)"></polygon><rect x="-1681.9" y="-194.8" width="452.8" height="411.2" rx="8" ry="8" fill="rgba(0, 0, 0, 0)" stroke="rgba(204, 204, 204, 1)" stroke-width="2"></rect><text x="-1667.9" y="-164.8" fill="rgba(204, 204, 204, 1)" font-size="32" text-anchor="start" font-family="MiSans">概念关系</text><rect x="255.9" y="-255.1" width="308.0" height="377.0" rx="8" ry="8" fill="rgba(0, 0, 0, 0)" stroke="rgba(204, 204, 204, 1)" stroke-width="2"></rect><text x="269.9" y="-225.1" fill="rgba(204, 204, 204, 1)" font-size="32" text-anchor="start" font-family="MiSans">渲染器</text><rect x="-647.1" y="-1831.3" width="1250.4" height="1228.7" rx="8" ry="8" fill="rgba(0, 0, 0, 0)" stroke="rgba(204, 204, 204, 1)" stroke-width="2"></rect><text x="-633.1" y="-1801.3" fill="rgba(204, 204, 204, 1)" font-size="32" text-anchor="start" font-family="MiSans">Service层</text><rect x="737.3" y="-1197.2" width="413.9" height="413.7" rx="8" ry="8" fill="rgba(0, 0, 0, 0)" stroke="rgba(204, 204, 204, 1)" stroke-width="2"></rect><text x="751.3" y="-1167.2" fill="rgba(204, 204, 204, 1)" font-size="32" text-anchor="start" font-family="MiSans">高级交互控制</text><rect x="215.7" y="-1414.4" width="357.5" height="294.9" rx="8" ry="8" fill="rgba(0, 0, 0, 0)" stroke="rgba(204, 204, 204, 1)" stroke-width="2"></rect><text x="229.7" y="-1384.4" fill="rgba(204, 204, 204, 1)" font-size="32" text-anchor="start" font-family="MiSans">感官反馈类服务</text><rect x="-617.1" y="-1462.9" width="429.7" height="409.4" rx="8" ry="8" fill="rgba(0, 0, 0, 0)" stroke="rgba(204, 204, 204, 1)" stroke-width="2"></rect><text x="-603.1" y="-1432.9" fill="rgba(204, 204, 204, 1)" font-size="32" text-anchor="start" font-family="MiSans">信息生成类服务</text><rect x="229.2" y="-1070.3" width="278.0" height="437.7" rx="8" ry="8" fill="rgba(0, 0, 0, 0)" stroke="rgba(204, 204, 204, 1)" stroke-width="2"></rect><text x="243.2" y="-1040.3" fill="rgba(204, 204, 204, 1)" font-size="32" text-anchor="start" font-family="MiSans">交互控制类服务</text><rect x="-565.9" y="465.0" width="536.5" height="426.4" rx="8" ry="8" fill="rgba(0, 0, 0, 0)" stroke="rgba(204, 204, 204, 1)" stroke-width="2"></rect><text x="-551.9" y="495.0" fill="rgba(204, 204, 204, 1)" font-size="32" text-anchor="start" font-family="MiSans">算法</text><rect x="141.8" y="469.1" width="648.8" height="424.4" rx="8" ry="8" fill="rgba(0, 0, 0, 0)" stroke="rgba(204, 204, 204, 1)" stroke-width="2"></rect><text x="155.8" y="499.1" fill="rgba(204, 204, 204, 1)" font-size="32" text-anchor="start" font-family="MiSans">数据结构</text><rect x="-6.2" y="-1751.3" width="468.6" height="299.4" rx="8" ry="8" fill="rgba(0, 0, 0, 0)" stroke="rgba(204, 204, 204, 1)" stroke-width="2"></rect><text x="7.8" y="-1721.3" fill="rgba(204, 204, 204, 1)" font-size="32" text-anchor="start" font-family="MiSans">文件管理类服务</text><rect x="-545.2" y="-988.4" width="221.0" height="300.0" rx="8" ry="8" fill="rgba(0, 0, 0, 0)" stroke="rgba(204, 204, 204, 1)" stroke-width="2"></rect><text x="-531.2" y="-958.4" fill="rgba(204, 204, 204, 1)" font-size="32" text-anchor="start" font-family="MiSans">信息管理类服务</text><rect x="-616.5" y="-1681.8" width="259.0" height="186.0" rx="8" ry="8" fill="rgba(0, 0, 0, 0)" stroke="rgba(204, 204, 204, 1)" stroke-width="2"></rect><text x="-602.5" y="-1651.8" fill="rgba(204, 204, 204, 1)" font-size="32" text-anchor="start" font-family="MiSans">其他未分类的服务</text></svg>