<svg xmlns="http://www.w3.org/2000/svg" width="2596.04945966417" height="2948.906917833063" viewBox="-1307.3482658264554 -1930.3784488728002 2596.04945966417 2948.906917833063" style="background-color:rgba(31, 31, 31, 1)"><rect x="-873.3" y="-1900.4" width="389.0" height="124.0" rx="8" ry="8" fill="rgba(0, 0, 0, 0)" stroke="rgba(204, 204, 204, 1)" stroke-width="2"></rect><text x="-859.3" y="-1848.4" fill="rgba(255, 255, 255, 1)" font-size="32" text-anchor="start" font-family="MiSans">在开发CannonWar2</text><text x="-859.3" y="-1800.4" fill="rgba(255, 255, 255, 1)" font-size="32" text-anchor="start" font-family="MiSans">一起在FigJam上绘制开发流程拓扑图</text><rect x="-926.5" y="-1636.7" width="463.0" height="76.0" rx="8" ry="8" fill="rgba(59, 130, 246, 1)" stroke="rgba(204, 204, 204, 1)" stroke-width="2"></rect><text x="-912.5" y="-1584.7" fill="rgba(255, 255, 255, 1)" font-size="32" text-anchor="start" font-family="MiSans">Rutubet提出可以开发一个绘制节点图的工具</text><rect x="-155.6" y="-1728.6" width="439.0" height="76.0" rx="8" ry="8" fill="rgba(59, 130, 246, 1)" stroke="rgba(204, 204, 204, 1)" stroke-width="2"></rect><text x="-141.6" y="-1676.6" fill="rgba(255, 255, 255, 1)" font-size="32" text-anchor="start" font-family="MiSans">Rutubet用JavaFx简单写了一个框架</text><rect x="-167.0" y="-1574.6" width="411.0" height="172.0" rx="8" ry="8" fill="rgba(22, 163, 74, 1)" stroke="rgba(204, 204, 204, 1)" stroke-width="2"></rect><text x="-153.0" y="-1522.6" fill="rgba(255, 255, 255, 1)" font-size="32" text-anchor="start" font-family="MiSans">Littlefean感觉不熟悉</text><text x="-153.0" y="-1474.6" fill="rgba(255, 255, 255, 1)" font-size="32" text-anchor="start" font-family="MiSans">希望早点用</text><text x="-153.0" y="-1426.6" fill="rgba(255, 255, 255, 1)" font-size="32" text-anchor="start" font-family="MiSans">快速拷贝visual-file项目代码做了出来</text><rect x="-43.7" y="-1359.0" width="225.0" height="124.0" rx="8" ry="8" fill="rgba(234, 179, 8, 1)" stroke="rgba(204, 204, 204, 1)" stroke-width="2"></rect><text x="-29.7" y="-1307.0" fill="rgba(0, 0, 0, 1)" font-size="32" text-anchor="start" font-family="MiSans">ZTY优化了项目结构</text><text x="-29.7" y="-1259.0" fill="rgba(0, 0, 0, 1)" font-size="32" text-anchor="start" font-family="MiSans">使用pdm管理</text><rect x="-167.4" y="-1159.5" width="477.0" height="124.0" rx="8" ry="8" fill="rgba(22, 163, 74, 1)" stroke="rgba(204, 204, 204, 1)" stroke-width="2"></rect><text x="-153.4" y="-1107.5" fill="rgba(255, 255, 255, 1)" font-size="32" text-anchor="start" font-family="MiSans">Littlefean不知道如何打包windows版</text><text x="-153.4" y="-1059.5" fill="rgba(255, 255, 255, 1)" font-size="32" text-anchor="start" font-family="MiSans">先发布第一期视频</text><rect x="-61.8" y="-994.1" width="231.0" height="124.0" rx="8" ry="8" fill="rgba(0, 0, 0, 0)" stroke="rgba(204, 204, 204, 1)" stroke-width="2"></rect><text x="-47.8" y="-942.1" fill="rgba(255, 255, 255, 1)" font-size="32" text-anchor="start" font-family="MiSans">发布视频后看观众留言</text><text x="-47.8" y="-894.1" fill="rgba(255, 255, 255, 1)" font-size="32" text-anchor="start" font-family="MiSans">解决了pdm打包问题</text><rect x="-823.6" y="-1159.5" width="497.4" height="124.0" rx="8" ry="8" fill="rgba(59, 130, 246, 1)" stroke="rgba(204, 204, 204, 1)" stroke-width="2"></rect><text x="-809.6" y="-1107.5" fill="rgba(255, 255, 255, 1)" font-size="32" text-anchor="start" font-family="MiSans">Rutubet开发liren-side</text><text x="-809.6" y="-1059.5" fill="rgba(255, 255, 255, 1)" font-size="32" text-anchor="start" font-family="MiSans">打算统一projectGraph和VisualFile</text><rect x="-368.6" y="-828.6" width="267.0" height="76.0" rx="8" ry="8" fill="rgba(234, 179, 8, 1)" stroke="rgba(204, 204, 204, 1)" stroke-width="2"></rect><text x="-354.6" y="-776.6" fill="rgba(0, 0, 0, 1)" font-size="32" text-anchor="start" font-family="MiSans">ZTY提出PyQt5过时</text><rect x="-207.5" y="-545.4" width="303.0" height="76.0" rx="8" ry="8" fill="rgba(234, 179, 8, 1)" stroke="rgba(204, 204, 204, 1)" stroke-width="2"></rect><text x="-193.5" y="-493.4" fill="rgba(0, 0, 0, 1)" font-size="32" text-anchor="start" font-family="MiSans">ZTY将项目改为tauri框架</text><rect x="-143.1" y="-144.9" width="185.0" height="124.0" rx="8" ry="8" fill="rgba(22, 163, 74, 1)" stroke="rgba(204, 204, 204, 1)" stroke-width="2"></rect><text x="-129.1" y="-92.9" fill="rgba(255, 255, 255, 1)" font-size="32" text-anchor="start" font-family="MiSans">Littlefean</text><text x="-129.1" y="-44.9" fill="rgba(255, 255, 255, 1)" font-size="32" text-anchor="start" font-family="MiSans">发布第二期视频</text><rect x="-158.1" y="-685.5" width="197.0" height="76.0" rx="8" ry="8" fill="rgba(0, 0, 0, 0)" stroke="rgba(204, 204, 204, 1)" stroke-width="2"></rect><text x="-144.1" y="-633.5" fill="rgba(255, 255, 255, 1)" font-size="32" text-anchor="start" font-family="MiSans">项目中添加AI功能</text><rect x="-175.8" y="-310.4" width="301.0" height="124.0" rx="8" ry="8" fill="rgba(22, 163, 74, 1)" stroke="rgba(204, 204, 204, 1)" stroke-width="2"></rect><text x="-161.8" y="-258.4" fill="rgba(255, 255, 255, 1)" font-size="32" text-anchor="start" font-family="MiSans">Littlefan继续在tauri</text><text x="-161.8" y="-210.4" fill="rgba(255, 255, 255, 1)" font-size="32" text-anchor="start" font-family="MiSans">上重写原有功能</text><rect x="303.9" y="-685.5" width="387.0" height="124.0" rx="8" ry="8" fill="rgba(234, 179, 8, 1)" stroke="rgba(204, 204, 204, 1)" stroke-width="2"></rect><text x="317.9" y="-633.5" fill="rgba(0, 0, 0, 1)" font-size="32" text-anchor="start" font-family="MiSans">ZTY把github的README</text><text x="317.9" y="-585.5" fill="rgba(0, 0, 0, 1)" font-size="32" text-anchor="start" font-family="MiSans">移动到de域名的网站上</text><rect x="-193.6" y="228.7" width="258.0" height="124.0" rx="8" ry="8" fill="rgba(22, 163, 74, 1)" stroke="rgba(204, 204, 204, 1)" stroke-width="2"></rect><text x="-179.6" y="280.7" fill="rgba(255, 255, 255, 1)" font-size="32" text-anchor="start" font-family="MiSans">tauri功能重写基本完毕</text><text x="-179.6" y="328.7" fill="rgba(255, 255, 255, 1)" font-size="32" text-anchor="start" font-family="MiSans">发布1.0.0宣传片</text><rect x="1116.7" y="44.6" width="142.0" height="76.0" rx="8" ry="8" fill="rgba(0, 0, 0, 0)" stroke="rgba(204, 204, 204, 1)" stroke-width="2"></rect><text x="1130.7" y="96.6" fill="rgba(255, 255, 255, 1)" font-size="32" text-anchor="start" font-family="MiSans">有运营成本了</text><rect x="678.8" y="-3.4" width="218.0" height="172.0" rx="8" ry="8" fill="rgba(0, 0, 0, 0)" stroke="rgba(204, 204, 204, 1)" stroke-width="2"></rect><text x="692.8" y="48.6" fill="rgba(255, 255, 255, 1)" font-size="32" text-anchor="start" font-family="MiSans">有很多人进群</text><text x="692.8" y="96.6" fill="rgba(255, 255, 255, 1)" font-size="32" text-anchor="start" font-family="MiSans">后来发现人数不够用了</text><text x="692.8" y="144.6" fill="rgba(255, 255, 255, 1)" font-size="32" text-anchor="start" font-family="MiSans">开了个QQ会员</text><rect x="237.4" y="-144.9" width="123.0" height="76.0" rx="8" ry="8" fill="rgba(0, 0, 0, 0)" stroke="rgba(204, 204, 204, 1)" stroke-width="2"></rect><text x="251.4" y="-92.9" fill="rgba(255, 255, 255, 1)" font-size="32" text-anchor="start" font-family="MiSans">观看量较多</text><rect x="678.8" y="-192.9" width="301.0" height="124.0" rx="8" ry="8" fill="rgba(234, 179, 8, 1)" stroke="rgba(204, 204, 204, 1)" stroke-width="2"></rect><text x="692.8" y="-140.9" fill="rgba(0, 0, 0, 1)" font-size="32" text-anchor="start" font-family="MiSans">ZTY专门为此项目买了个域名</text><text x="692.8" y="-92.9" fill="rgba(0, 0, 0, 1)" font-size="32" text-anchor="start" font-family="MiSans">并移动了文档到新域名</text><rect x="395.5" y="255.2" width="266.0" height="124.0" rx="8" ry="8" fill="rgba(0, 0, 0, 0)" stroke="rgba(204, 204, 204, 1)" stroke-width="2"></rect><text x="409.5" y="307.2" fill="rgba(255, 255, 255, 1)" font-size="32" text-anchor="start" font-family="MiSans">有观众特意进群发红包</text><text x="409.5" y="355.2" fill="rgba(255, 255, 255, 1)" font-size="32" text-anchor="start" font-family="MiSans">并提醒在github开赞助</text><rect x="1100.7" y="255.2" width="161.0" height="124.0" rx="8" ry="8" fill="rgba(0, 0, 0, 0)" stroke="rgba(204, 204, 204, 1)" stroke-width="2"></rect><text x="1114.7" y="307.2" fill="rgba(255, 255, 255, 1)" font-size="32" text-anchor="start" font-family="MiSans">决定在官网开启</text><text x="1114.7" y="355.2" fill="rgba(255, 255, 255, 1)" font-size="32" text-anchor="start" font-family="MiSans">赞助</text><rect x="1036.7" y="552.4" width="199.0" height="76.0" rx="8" ry="8" fill="rgba(0, 0, 0, 0)" stroke="rgba(204, 204, 204, 1)" stroke-width="2"></rect><text x="1050.7" y="604.4" fill="rgba(255, 255, 255, 1)" font-size="32" text-anchor="start" font-family="MiSans">有群友希望有微信群</text><rect x="647.5" y="504.4" width="273.0" height="124.0" rx="8" ry="8" fill="rgba(0, 0, 0, 0)" stroke="rgba(204, 204, 204, 1)" stroke-width="2"></rect><text x="661.5" y="556.4" fill="rgba(255, 255, 255, 1)" font-size="32" text-anchor="start" font-family="MiSans">Rutubet说不用开会员</text><text x="661.5" y="604.4" fill="rgba(255, 255, 255, 1)" font-size="32" text-anchor="start" font-family="MiSans">搞分群也行</text><rect x="-926.5" y="-828.6" width="217.0" height="76.0" rx="8" ry="8" fill="rgba(0, 0, 0, 0)" stroke="rgba(204, 204, 204, 1)" stroke-width="2"></rect><text x="-912.5" y="-776.6" fill="rgba(255, 255, 255, 1)" font-size="32" text-anchor="start" font-family="MiSans">放弃liren-side</text><rect x="-1277.3" y="-1159.5" width="263.4" height="124.0" rx="8" ry="8" fill="rgba(0, 0, 0, 0)" stroke="rgba(204, 204, 204, 1)" stroke-width="2"></rect><text x="-1263.3" y="-1107.5" fill="rgba(255, 255, 255, 1)" font-size="32" text-anchor="start" font-family="MiSans">VisualFile逐渐发现</text><text x="-1263.3" y="-1059.5" fill="rgba(255, 255, 255, 1)" font-size="32" text-anchor="start" font-family="MiSans">实用性没有特别高</text><rect x="-749.1" y="231.2" width="237.0" height="172.0" rx="8" ry="8" fill="rgba(59, 130, 246, 1)" stroke="rgba(204, 204, 204, 1)" stroke-width="2"></rect><text x="-735.1" y="283.2" fill="rgba(255, 255, 255, 1)" font-size="32" text-anchor="start" font-family="MiSans">Rutubet修</text><text x="-735.1" y="331.2" fill="rgba(255, 255, 255, 1)" font-size="32" text-anchor="start" font-family="MiSans">贝塞尔曲线样子</text><text x="-735.1" y="379.2" fill="rgba(255, 255, 255, 1)" font-size="32" text-anchor="start" font-family="MiSans">但反复感觉不如手动调整</text><rect x="-722.8" y="463.4" width="228.0" height="76.0" rx="8" ry="8" fill="rgba(59, 130, 246, 1)" stroke="rgba(204, 204, 204, 1)" stroke-width="2"></rect><text x="-708.8" y="515.4" fill="rgba(255, 255, 255, 1)" font-size="32" text-anchor="start" font-family="MiSans">决定设计一种CR曲线</text><rect x="-772.3" y="-144.9" width="337.0" height="124.0" rx="8" ry="8" fill="rgba(0, 0, 0, 0)" stroke="rgba(204, 204, 204, 1)" stroke-width="2"></rect><text x="-758.3" y="-92.9" fill="rgba(255, 255, 255, 1)" font-size="32" text-anchor="start" font-family="MiSans">Littlefean希望增强管理功能</text><text x="-758.3" y="-44.9" fill="rgba(255, 255, 255, 1)" font-size="32" text-anchor="start" font-family="MiSans">设计并增加了自动计算节点</text><rect x="-1241.7" y="-144.9" width="237.0" height="124.0" rx="8" ry="8" fill="rgba(0, 0, 0, 0)" stroke="rgba(204, 204, 204, 1)" stroke-width="2"></rect><text x="-1227.7" y="-92.9" fill="rgba(255, 255, 255, 1)" font-size="32" text-anchor="start" font-family="MiSans">逐渐发现这里似乎能</text><text x="-1227.7" y="-44.9" fill="rgba(255, 255, 255, 1)" font-size="32" text-anchor="start" font-family="MiSans">做成基于图论的编程语言</text><rect x="-157.0" y="504.4" width="206.0" height="76.0" rx="8" ry="8" fill="rgba(0, 0, 0, 0)" stroke="rgba(204, 204, 204, 1)" stroke-width="2"></rect><text x="-143.0" y="556.4" fill="rgba(255, 255, 255, 1)" font-size="32" text-anchor="start" font-family="MiSans">ZTY提出插件系统</text><rect x="-642.5" y="-569.4" width="218.0" height="124.0" rx="8" ry="8" fill="rgba(0, 0, 0, 0)" stroke="rgba(204, 204, 204, 1)" stroke-width="2"></rect><text x="-628.5" y="-517.4" fill="rgba(255, 255, 255, 1)" font-size="32" text-anchor="start" font-family="MiSans">很早之前有尝试体验过</text><text x="-628.5" y="-469.4" fill="rgba(255, 255, 255, 1)" font-size="32" text-anchor="start" font-family="MiSans">这个框架</text><rect x="-1056.7" y="-593.4" width="287.0" height="172.0" rx="8" ry="8" fill="rgba(0, 0, 0, 0)" stroke="rgba(204, 204, 204, 1)" stroke-width="2"></rect><text x="-1042.7" y="-541.4" fill="rgba(255, 255, 255, 1)" font-size="32" text-anchor="start" font-family="MiSans">ZTY和Littlefean都</text><text x="-1042.7" y="-493.4" fill="rgba(255, 255, 255, 1)" font-size="32" text-anchor="start" font-family="MiSans">熟悉前端开发</text><text x="-1042.7" y="-445.4" fill="rgba(255, 255, 255, 1)" font-size="32" text-anchor="start" font-family="MiSans">比特山就是用的React</text><rect x="-194.9" y="-434.0" width="357.0" height="76.0" rx="8" ry="8" fill="rgba(0, 0, 0, 0)" stroke="rgba(204, 204, 204, 1)" stroke-width="2"></rect><text x="-180.9" y="-382.0" fill="rgba(255, 255, 255, 1)" font-size="32" text-anchor="start" font-family="MiSans">选定react+tailwindcss</text><rect x="-651.4" y="-434.0" width="290.0" height="76.0" rx="8" ry="8" fill="rgba(234, 179, 8, 1)" stroke="rgba(204, 204, 204, 1)" stroke-width="2"></rect><text x="-637.4" y="-382.0" fill="rgba(0, 0, 0, 1)" font-size="32" text-anchor="start" font-family="MiSans">ZTY提到react用的人多</text><rect x="173.4" y="610.3" width="199.0" height="76.0" rx="8" ry="8" fill="rgba(0, 0, 0, 0)" stroke="rgba(204, 204, 204, 1)" stroke-width="2"></rect><text x="187.4" y="662.3" fill="rgba(255, 255, 255, 1)" font-size="32" text-anchor="start" font-family="MiSans">收到了很多用户反馈</text><rect x="157.7" y="736.7" width="247.0" height="124.0" rx="8" ry="8" fill="rgba(0, 0, 0, 0)" stroke="rgba(204, 204, 204, 1)" stroke-width="2"></rect><text x="171.7" y="788.7" fill="rgba(255, 255, 255, 1)" font-size="32" text-anchor="start" font-family="MiSans">太多mac用户反馈问题</text><text x="171.7" y="836.7" fill="rgba(255, 255, 255, 1)" font-size="32" text-anchor="start" font-family="MiSans">但mac问题很难修复</text><rect x="237.4" y="912.5" width="123.0" height="76.0" rx="8" ry="8" fill="rgba(0, 0, 0, 0)" stroke="rgba(204, 204, 204, 1)" stroke-width="2"></rect><text x="251.4" y="964.5" fill="rgba(255, 255, 255, 1)" font-size="32" text-anchor="start" font-family="MiSans">开发网页版</text><line x1="-683.0" y1="-1776.4" x2="-692.4" y2="-1636.7" stroke="rgba(204, 204, 204, 1)" stroke-width="2"></line><polygon points="-692.4,-1636.7 -687.6,-1650.9 -691.9,-1644.2 -695.3,-1651.4" fill="rgba(204, 204, 204, 1)" stroke="rgba(204, 204, 204, 1)"></polygon><line x1="-463.5" y1="-1626.7" x2="-155.6" y2="-1664.0" stroke="rgba(204, 204, 204, 1)" stroke-width="2"></line><polygon points="-155.6,-1664.0 -170.5,-1666.1 -163.1,-1663.1 -169.5,-1658.4" fill="rgba(204, 204, 204, 1)" stroke="rgba(204, 204, 204, 1)"></polygon><line x1="59.1" y1="-1652.6" x2="49.3" y2="-1574.6" stroke="rgba(204, 204, 204, 1)" stroke-width="2"></line><polygon points="49.3,-1574.6 55.0,-1588.5 50.2,-1582.0 47.2,-1589.4" fill="rgba(204, 204, 204, 1)" stroke="rgba(204, 204, 204, 1)"></polygon><line x1="52.1" y1="-1402.6" x2="59.0" y2="-1359.0" stroke="rgba(204, 204, 204, 1)" stroke-width="2"></line><polygon points="59.0,-1359.0 60.5,-1373.9 57.8,-1366.4 52.9,-1372.7" fill="rgba(204, 204, 204, 1)" stroke="rgba(204, 204, 204, 1)"></polygon><line x1="69.5" y1="-1235.0" x2="70.4" y2="-1159.5" stroke="rgba(204, 204, 204, 1)" stroke-width="2"></line><polygon points="70.4,-1159.5 74.1,-1174.1 70.3,-1167.0 66.3,-1174.0" fill="rgba(204, 204, 204, 1)" stroke="rgba(204, 204, 204, 1)"></polygon><line x1="64.6" y1="-1035.5" x2="60.2" y2="-994.1" stroke="rgba(204, 204, 204, 1)" stroke-width="2"></line><polygon points="60.2,-994.1 65.6,-1008.1 61.0,-1001.6 57.9,-1008.9" fill="rgba(204, 204, 204, 1)" stroke="rgba(204, 204, 204, 1)"></polygon><line x1="-61.8" y1="-875.5" x2="-157.6" y2="-828.6" stroke="rgba(204, 204, 204, 1)" stroke-width="2"></line><polygon points="-157.6,-828.6 -142.8,-831.5 -150.8,-831.9 -146.3,-838.4" fill="rgba(204, 204, 204, 1)" stroke="rgba(204, 204, 204, 1)"></polygon><line x1="-188.5" y1="-752.6" x2="-106.2" y2="-685.5" stroke="rgba(204, 204, 204, 1)" stroke-width="2"></line><polygon points="-106.2,-685.5 -115.0,-697.6 -112.0,-690.2 -119.9,-691.6" fill="rgba(204, 204, 204, 1)" stroke="rgba(204, 204, 204, 1)"></polygon><line x1="-58.6" y1="-609.5" x2="-57.0" y2="-545.4" stroke="rgba(204, 204, 204, 1)" stroke-width="2"></line><polygon points="-57.0,-545.4 -53.5,-560.0 -57.2,-552.9 -61.3,-559.8" fill="rgba(204, 204, 204, 1)" stroke="rgba(204, 204, 204, 1)"></polygon><line x1="142.8" y1="-870.1" x2="408.3" y2="-685.5" stroke="rgba(204, 204, 204, 1)" stroke-width="2"></line><polygon points="408.3,-685.5 398.6,-696.9 402.1,-689.7 394.2,-690.6" fill="rgba(204, 204, 204, 1)" stroke="rgba(204, 204, 204, 1)"></polygon><line x1="-52.9" y1="-20.9" x2="-62.3" y2="228.7" stroke="rgba(204, 204, 204, 1)" stroke-width="2"></line><polygon points="-62.3,228.7 -57.9,214.4 -62.0,221.2 -65.6,214.1" fill="rgba(204, 204, 204, 1)" stroke="rgba(204, 204, 204, 1)"></polygon><line x1="-8.0" y1="228.7" x2="264.1" y2="-68.9" stroke="rgba(204, 204, 204, 1)" stroke-width="2"></line><polygon points="264.1,-68.9 251.5,-60.9 259.1,-63.4 257.2,-55.6" fill="rgba(204, 204, 204, 1)" stroke="rgba(204, 204, 204, 1)"></polygon><line x1="360.4" y1="-83.1" x2="678.8" y2="40.3" stroke="rgba(204, 204, 204, 1)" stroke-width="2"></line><polygon points="678.8,40.3 666.6,31.5 671.8,37.6 663.8,38.7" fill="rgba(204, 204, 204, 1)" stroke="rgba(204, 204, 204, 1)"></polygon><line x1="896.8" y1="82.6" x2="1116.7" y2="82.6" stroke="rgba(204, 204, 204, 1)" stroke-width="2"></line><polygon points="1116.7,82.6 1102.2,78.7 1109.2,82.6 1102.2,86.5" fill="rgba(204, 204, 204, 1)" stroke="rgba(204, 204, 204, 1)"></polygon><line x1="360.4" y1="-109.7" x2="678.8" y2="-124.1" stroke="rgba(204, 204, 204, 1)" stroke-width="2"></line><polygon points="678.8,-124.1 664.1,-127.4 671.3,-123.8 664.5,-119.6" fill="rgba(204, 204, 204, 1)" stroke="rgba(204, 204, 204, 1)"></polygon><line x1="539.2" y1="-561.5" x2="787.5" y2="-192.9" stroke="rgba(204, 204, 204, 1)" stroke-width="2"></line><polygon points="787.5,-192.9 782.6,-207.1 783.3,-199.2 776.2,-202.8" fill="rgba(204, 204, 204, 1)" stroke="rgba(204, 204, 204, 1)"></polygon><line x1="933.3" y1="-68.9" x2="1123.9" y2="44.6" stroke="rgba(204, 204, 204, 1)" stroke-width="2"></line><polygon points="1123.9,44.6 1113.5,33.8 1117.5,40.8 1109.5,40.5" fill="rgba(204, 204, 204, 1)" stroke="rgba(204, 204, 204, 1)"></polygon><line x1="1186.6" y1="120.6" x2="1182.9" y2="255.2" stroke="rgba(204, 204, 204, 1)" stroke-width="2"></line><polygon points="1182.9,255.2 1187.2,240.9 1183.1,247.7 1179.4,240.6" fill="rgba(204, 204, 204, 1)" stroke="rgba(204, 204, 204, 1)"></polygon><line x1="661.5" y1="317.2" x2="1100.7" y2="317.2" stroke="rgba(204, 204, 204, 1)" stroke-width="2"></line><polygon points="1100.7,317.2 1086.2,313.3 1093.2,317.2 1086.2,321.1" fill="rgba(204, 204, 204, 1)" stroke="rgba(204, 204, 204, 1)"></polygon><line x1="319.4" y1="-68.9" x2="494.9" y2="255.2" stroke="rgba(204, 204, 204, 1)" stroke-width="2"></line><polygon points="494.9,255.2 491.4,240.6 491.4,248.6 484.6,244.3" fill="rgba(204, 204, 204, 1)" stroke="rgba(204, 204, 204, 1)"></polygon><line x1="846.8" y1="168.6" x2="1110.1" y2="552.4" stroke="rgba(204, 204, 204, 1)" stroke-width="2"></line><polygon points="1110.1,552.4 1105.1,538.3 1105.9,546.2 1098.7,542.7" fill="rgba(204, 204, 204, 1)" stroke="rgba(204, 204, 204, 1)"></polygon><line x1="787.1" y1="168.6" x2="784.5" y2="504.4" stroke="rgba(204, 204, 204, 1)" stroke-width="2"></line><polygon points="784.5,504.4 788.5,490.0 784.5,496.9 780.7,489.9" fill="rgba(204, 204, 204, 1)" stroke="rgba(204, 204, 204, 1)"></polygon><line x1="-43.7" y1="-1262.2" x2="-374.8" y2="-1159.5" stroke="rgba(204, 204, 204, 1)" stroke-width="2"></line><polygon points="-374.8,-1159.5 -359.8,-1160.1 -367.6,-1161.8 -362.1,-1167.5" fill="rgba(204, 204, 204, 1)" stroke="rgba(204, 204, 204, 1)"></polygon><line x1="-368.6" y1="-790.6" x2="-709.5" y2="-790.6" stroke="rgba(204, 204, 204, 1)" stroke-width="2"></line><polygon points="-709.5,-790.6 -695.0,-786.7 -702.0,-790.6 -695.0,-794.5" fill="rgba(204, 204, 204, 1)" stroke="rgba(204, 204, 204, 1)"></polygon><line x1="-823.6" y1="-1097.5" x2="-1013.9" y2="-1097.5" stroke="rgba(204, 204, 204, 1)" stroke-width="2"></line><polygon points="-1013.9,-1097.5 -999.4,-1093.7 -1006.4,-1097.5 -999.4,-1101.4" fill="rgba(204, 204, 204, 1)" stroke="rgba(204, 204, 204, 1)"></polygon><line x1="-624.0" y1="-1035.5" x2="-787.9" y2="-828.6" stroke="rgba(204, 204, 204, 1)" stroke-width="2"></line><polygon points="-787.9,-828.6 -775.9,-837.5 -783.3,-834.5 -782.0,-842.3" fill="rgba(204, 204, 204, 1)" stroke="rgba(204, 204, 204, 1)"></polygon><line x1="-1079.5" y1="-1035.5" x2="-858.6" y2="-828.6" stroke="rgba(204, 204, 204, 1)" stroke-width="2"></line><polygon points="-858.6,-828.6 -866.5,-841.3 -864.0,-833.7 -871.8,-835.6" fill="rgba(204, 204, 204, 1)" stroke="rgba(204, 204, 204, 1)"></polygon><line x1="-34.8" y1="-186.4" x2="-41.1" y2="-144.9" stroke="rgba(204, 204, 204, 1)" stroke-width="2"></line><polygon points="-41.1,-144.9 -35.1,-158.7 -40.0,-152.4 -42.8,-159.9" fill="rgba(204, 204, 204, 1)" stroke="rgba(204, 204, 204, 1)"></polygon><line x1="-193.6" y1="296.8" x2="-512.1" y2="311.7" stroke="rgba(204, 204, 204, 1)" stroke-width="2"></line><polygon points="-512.1,311.7 -497.4,314.9 -504.6,311.3 -497.8,307.1" fill="rgba(204, 204, 204, 1)" stroke="rgba(204, 204, 204, 1)"></polygon><line x1="-620.4" y1="403.2" x2="-613.3" y2="463.4" stroke="rgba(204, 204, 204, 1)" stroke-width="2"></line><polygon points="-613.3,463.4 -611.1,448.5 -614.1,455.9 -618.8,449.4" fill="rgba(204, 204, 204, 1)" stroke="rgba(204, 204, 204, 1)"></polygon><line x1="-143.1" y1="-82.9" x2="-435.3" y2="-82.9" stroke="rgba(204, 204, 204, 1)" stroke-width="2"></line><polygon points="-435.3,-82.9 -420.8,-79.1 -427.8,-82.9 -420.8,-86.8" fill="rgba(204, 204, 204, 1)" stroke="rgba(204, 204, 204, 1)"></polygon><line x1="-514.4" y1="-20.9" x2="-154.1" y2="228.7" stroke="rgba(204, 204, 204, 1)" stroke-width="2"></line><polygon points="-154.1,228.7 -163.8,217.3 -160.3,224.5 -168.2,223.7" fill="rgba(204, 204, 204, 1)" stroke="rgba(204, 204, 204, 1)"></polygon><line x1="-772.3" y1="-82.9" x2="-1004.7" y2="-82.9" stroke="rgba(204, 204, 204, 1)" stroke-width="2"></line><polygon points="-1004.7,-82.9 -990.2,-79.1 -997.2,-82.9 -990.2,-86.8" fill="rgba(204, 204, 204, 1)" stroke="rgba(204, 204, 204, 1)"></polygon><line x1="-62.0" y1="352.7" x2="-55.6" y2="504.4" stroke="rgba(204, 204, 204, 1)" stroke-width="2"></line><polygon points="-55.6,504.4 -52.3,489.8 -55.9,496.9 -60.1,490.1" fill="rgba(204, 204, 204, 1)" stroke="rgba(204, 204, 204, 1)"></polygon><line x1="-424.5" y1="-507.4" x2="-207.5" y2="-507.4" stroke="rgba(204, 204, 204, 1)" stroke-width="2"></line><polygon points="-207.5,-507.4 -222.0,-511.3 -215.0,-507.4 -222.0,-503.5" fill="rgba(204, 204, 204, 1)" stroke="rgba(204, 204, 204, 1)"></polygon><line x1="-769.7" y1="-507.4" x2="-642.5" y2="-507.4" stroke="rgba(204, 204, 204, 1)" stroke-width="2"></line><polygon points="-642.5,-507.4 -657.0,-511.3 -650.0,-507.4 -657.0,-503.5" fill="rgba(204, 204, 204, 1)" stroke="rgba(204, 204, 204, 1)"></polygon><line x1="-42.5" y1="-469.4" x2="-29.9" y2="-434.0" stroke="rgba(204, 204, 204, 1)" stroke-width="2"></line><polygon points="-29.9,-434.0 -31.1,-448.9 -32.5,-441.0 -38.5,-446.3" fill="rgba(204, 204, 204, 1)" stroke="rgba(204, 204, 204, 1)"></polygon><line x1="-18.7" y1="-358.0" x2="-21.6" y2="-310.4" stroke="rgba(204, 204, 204, 1)" stroke-width="2"></line><polygon points="-21.6,-310.4 -16.8,-324.6 -21.1,-317.9 -24.6,-325.1" fill="rgba(204, 204, 204, 1)" stroke="rgba(204, 204, 204, 1)"></polygon><line x1="-361.4" y1="-396.0" x2="-194.9" y2="-396.0" stroke="rgba(204, 204, 204, 1)" stroke-width="2"></line><polygon points="-194.9,-396.0 -209.4,-399.8 -202.4,-396.0 -209.4,-392.1" fill="rgba(204, 204, 204, 1)" stroke="rgba(204, 204, 204, 1)"></polygon><line x1="297.6" y1="-68.9" x2="274.2" y2="610.3" stroke="rgba(204, 204, 204, 1)" stroke-width="2"></line><polygon points="274.2,610.3 278.6,596.0 274.4,602.8 270.8,595.7" fill="rgba(204, 204, 204, 1)" stroke="rgba(204, 204, 204, 1)"></polygon><line x1="275.0" y1="686.3" x2="277.7" y2="736.7" stroke="rgba(204, 204, 204, 1)" stroke-width="2"></line><polygon points="277.7,736.7 280.8,722.0 277.3,729.2 273.1,722.4" fill="rgba(204, 204, 204, 1)" stroke="rgba(204, 204, 204, 1)"></polygon><line x1="288.4" y1="860.7" x2="294.4" y2="912.5" stroke="rgba(204, 204, 204, 1)" stroke-width="2"></line><polygon points="294.4,912.5 296.6,897.7 293.6,905.1 288.9,898.6" fill="rgba(204, 204, 204, 1)" stroke="rgba(204, 204, 204, 1)"></polygon></svg>