<svg xmlns="http://www.w3.org/2000/svg" width="2387.734375" height="1710" viewBox="-1338 -717 2387.734375 1710" style="background-color:rgba(34, 34, 34, 1)"><rect x="314.0" y="267.0" width="705.7" height="582.0" rx="8" ry="8" fill="rgba(0, 0, 0, 0)" stroke="rgba(0, 0, 0, 0)" stroke-width="0"></rect><rect x="-256.0" y="-203.0" width="193.3" height="76.0" rx="8" ry="8" fill="rgba(0, 0, 0, 0)" stroke="rgba(229, 231, 235, 1)" stroke-width="2"></rect><text x="-242.0" y="-151.0" fill="rgba(255, 255, 255, 1)" font-size="32" text-anchor="start" font-family="-apple-system, BlinkMacSystemFont, MiSans, system-ui, sans-serif">class Core</text><rect x="32.0" y="-500.0" width="241.0" height="76.0" rx="8" ry="8" fill="rgba(0, 0, 0, 0)" stroke="rgba(229, 231, 235, 1)" stroke-width="2"></rect><text x="46.0" y="-448.0" fill="rgba(255, 255, 255, 1)" font-size="32" text-anchor="start" font-family="-apple-system, BlinkMacSystemFont, MiSans, system-ui, sans-serif">disposables[]</text><rect x="84.0" y="-332.0" width="196.4" height="76.0" rx="8" ry="8" fill="rgba(0, 0, 0, 0)" stroke="rgba(229, 231, 235, 1)" stroke-width="2"></rect><text x="98.0" y="-280.0" fill="rgba(255, 255, 255, 1)" font-size="32" text-anchor="start" font-family="-apple-system, BlinkMacSystemFont, MiSans, system-ui, sans-serif">tickables[]</text><rect x="315.0" y="-503.0" width="359.0" height="76.0" rx="8" ry="8" fill="rgba(0, 0, 0, 0)" stroke="rgba(229, 231, 235, 1)" stroke-width="2"></rect><text x="329.0" y="-451.0" fill="rgba(255, 255, 255, 1)" font-size="32" text-anchor="start" font-family="-apple-system, BlinkMacSystemFont, MiSans, system-ui, sans-serif">interface Disposable</text><rect x="352.0" y="-333.0" width="315.5" height="76.0" rx="8" ry="8" fill="rgba(0, 0, 0, 0)" stroke="rgba(229, 231, 235, 1)" stroke-width="2"></rect><text x="366.0" y="-281.0" fill="rgba(255, 255, 255, 1)" font-size="32" text-anchor="start" font-family="-apple-system, BlinkMacSystemFont, MiSans, system-ui, sans-serif">interface Tickable</text><rect x="722.0" y="-495.0" width="264.0" height="76.0" rx="8" ry="8" fill="rgba(0, 0, 0, 0)" stroke="rgba(229, 231, 235, 1)" stroke-width="2"></rect><text x="736.0" y="-443.0" fill="rgba(255, 255, 255, 1)" font-size="32" text-anchor="start" font-family="-apple-system, BlinkMacSystemFont, MiSans, system-ui, sans-serif">dispose(): void</text><rect x="720.0" y="-333.0" width="200.0" height="76.0" rx="8" ry="8" fill="rgba(0, 0, 0, 0)" stroke="rgba(229, 231, 235, 1)" stroke-width="2"></rect><text x="734.0" y="-281.0" fill="rgba(255, 255, 255, 1)" font-size="32" text-anchor="start" font-family="-apple-system, BlinkMacSystemFont, MiSans, system-ui, sans-serif">tick(): void</text><rect x="52.0" y="-123.0" width="167.0" height="76.0" rx="8" ry="8" fill="rgba(0, 0, 0, 0)" stroke="rgba(229, 231, 235, 1)" stroke-width="2"></rect><text x="66.0" y="-71.0" fill="rgba(255, 255, 255, 1)" font-size="32" text-anchor="start" font-family="-apple-system, BlinkMacSystemFont, MiSans, system-ui, sans-serif">plugins[]</text><rect x="347.0" y="-115.0" width="216.0" height="76.0" rx="8" ry="8" fill="rgba(0, 0, 0, 0)" stroke="rgba(229, 231, 235, 1)" stroke-width="2"></rect><text x="361.0" y="-63.0" fill="rgba(255, 255, 255, 1)" font-size="32" text-anchor="start" font-family="-apple-system, BlinkMacSystemFont, MiSans, system-ui, sans-serif">class Plugin</text><rect x="660.0" y="-196.0" width="170.0" height="76.0" rx="8" ry="8" fill="rgba(0, 0, 0, 0)" stroke="rgba(229, 231, 235, 1)" stroke-width="2"></rect><text x="674.0" y="-144.0" fill="rgba(255, 255, 255, 1)" font-size="32" text-anchor="start" font-family="-apple-system, BlinkMacSystemFont, MiSans, system-ui, sans-serif">id: string</text><rect x="653.0" y="-120.0" width="232.0" height="76.0" rx="8" ry="8" fill="rgba(0, 0, 0, 0)" stroke="rgba(229, 231, 235, 1)" stroke-width="2"></rect><text x="667.0" y="-68.0" fill="rgba(255, 255, 255, 1)" font-size="32" text-anchor="start" font-family="-apple-system, BlinkMacSystemFont, MiSans, system-ui, sans-serif">name: string</text><rect x="653.0" y="-36.0" width="272.3" height="76.0" rx="8" ry="8" fill="rgba(0, 0, 0, 0)" stroke="rgba(229, 231, 235, 1)" stroke-width="2"></rect><text x="667.0" y="16.0" fill="rgba(255, 255, 255, 1)" font-size="32" text-anchor="start" font-family="-apple-system, BlinkMacSystemFont, MiSans, system-ui, sans-serif">worker: Worker</text><rect x="-288.0" y="-687.0" width="118.0" height="76.0" rx="8" ry="8" fill="rgba(0, 0, 0, 0)" stroke="rgba(229, 231, 235, 1)" stroke-width="2"></rect><text x="-274.0" y="-635.0" fill="rgba(255, 255, 255, 1)" font-size="32" text-anchor="start" font-family="-apple-system, BlinkMacSystemFont, MiSans, system-ui, sans-serif">stage</text><rect x="-419.0" y="-567.0" width="165.6" height="76.0" rx="8" ry="8" fill="rgba(0, 0, 0, 0)" stroke="rgba(229, 231, 235, 1)" stroke-width="2"></rect><text x="-405.0" y="-515.0" fill="rgba(255, 255, 255, 1)" font-size="32" text-anchor="start" font-family="-apple-system, BlinkMacSystemFont, MiSans, system-ui, sans-serif">renderer</text><rect x="-521.0" y="-289.0" width="182.3" height="76.0" rx="8" ry="8" fill="rgba(0, 0, 0, 0)" stroke="rgba(229, 231, 235, 1)" stroke-width="2"></rect><text x="-507.0" y="-237.0" fill="rgba(255, 255, 255, 1)" font-size="32" text-anchor="start" font-family="-apple-system, BlinkMacSystemFont, MiSans, system-ui, sans-serif">controller</text><rect x="-534.0" y="-138.0" width="150.0" height="76.0" rx="8" ry="8" fill="rgba(0, 0, 0, 0)" stroke="rgba(229, 231, 235, 1)" stroke-width="2"></rect><text x="-520.0" y="-86.0" fill="rgba(255, 255, 255, 1)" font-size="32" text-anchor="start" font-family="-apple-system, BlinkMacSystemFont, MiSans, system-ui, sans-serif">camera</text><rect x="-516.0" y="17.0" width="157.0" height="76.0" rx="8" ry="8" fill="rgba(0, 0, 0, 0)" stroke="rgba(229, 231, 235, 1)" stroke-width="2"></rect><text x="-502.0" y="69.0" fill="rgba(255, 255, 255, 1)" font-size="32" text-anchor="start" font-family="-apple-system, BlinkMacSystemFont, MiSans, system-ui, sans-serif">settings</text><rect x="-710.0" y="-566.0" width="264.9" height="76.0" rx="8" ry="8" fill="rgba(0, 0, 0, 0)" stroke="rgba(229, 231, 235, 1)" stroke-width="2"></rect><text x="-696.0" y="-514.0" fill="rgba(255, 255, 255, 1)" font-size="32" text-anchor="start" font-family="-apple-system, BlinkMacSystemFont, MiSans, system-ui, sans-serif">class Renderer</text><rect x="-1271.0" y="-567.0" width="551.0" height="76.0" rx="8" ry="8" fill="rgba(0, 0, 0, 0)" stroke="rgba(229, 231, 235, 1)" stroke-width="2"></rect><text x="-1257.0" y="-515.0" fill="rgba(255, 255, 255, 1)" font-size="32" text-anchor="start" font-family="-apple-system, BlinkMacSystemFont, MiSans, system-ui, sans-serif">ctx: CanvasRenderingContext2D</text><rect x="-844.0" y="-290.0" width="277.3" height="76.0" rx="8" ry="8" fill="rgba(0, 0, 0, 0)" stroke="rgba(229, 231, 235, 1)" stroke-width="2"></rect><text x="-830.0" y="-238.0" fill="rgba(255, 255, 255, 1)" font-size="32" text-anchor="start" font-family="-apple-system, BlinkMacSystemFont, MiSans, system-ui, sans-serif">class Controller</text><rect x="-1254.0" y="-450.0" width="295.3" height="76.0" rx="8" ry="8" fill="rgba(0, 0, 0, 0)" stroke="rgba(229, 231, 235, 1)" stroke-width="2"></rect><text x="-1240.0" y="-398.0" fill="rgba(255, 255, 255, 1)" font-size="32" text-anchor="start" font-family="-apple-system, BlinkMacSystemFont, MiSans, system-ui, sans-serif">register(...): void</text><rect x="-1308.0" y="-288.0" width="398.0" height="76.0" rx="8" ry="8" fill="rgba(0, 0, 0, 0)" stroke="rgba(229, 231, 235, 1)" stroke-width="2"></rect><text x="-1294.0" y="-236.0" fill="rgba(255, 255, 255, 1)" font-size="32" text-anchor="start" font-family="-apple-system, BlinkMacSystemFont, MiSans, system-ui, sans-serif">mouseLocation: Vector</text><rect x="-880.0" y="-134.0" width="245.0" height="76.0" rx="8" ry="8" fill="rgba(0, 0, 0, 0)" stroke="rgba(229, 231, 235, 1)" stroke-width="2"></rect><text x="-866.0" y="-82.0" fill="rgba(255, 255, 255, 1)" font-size="32" text-anchor="start" font-family="-apple-system, BlinkMacSystemFont, MiSans, system-ui, sans-serif">class Camera</text><rect x="-1039.0" y="-135.0" width="58.0" height="76.0" rx="8" ry="8" fill="rgba(0, 0, 0, 0)" stroke="rgba(229, 231, 235, 1)" stroke-width="2"></rect><text x="-1025.0" y="-83.0" fill="rgba(255, 255, 255, 1)" font-size="32" text-anchor="start" font-family="-apple-system, BlinkMacSystemFont, MiSans, system-ui, sans-serif">...</text><rect x="-578.0" y="-690.0" width="212.0" height="76.0" rx="8" ry="8" fill="rgba(0, 0, 0, 0)" stroke="rgba(229, 231, 235, 1)" stroke-width="2"></rect><text x="-564.0" y="-638.0" fill="rgba(255, 255, 255, 1)" font-size="32" text-anchor="start" font-family="-apple-system, BlinkMacSystemFont, MiSans, system-ui, sans-serif">class Stage</text><rect x="-702.0" y="-689.0" width="58.0" height="76.0" rx="8" ry="8" fill="rgba(0, 0, 0, 0)" stroke="rgba(229, 231, 235, 1)" stroke-width="2"></rect><text x="-688.0" y="-637.0" fill="rgba(255, 255, 255, 1)" font-size="32" text-anchor="start" font-family="-apple-system, BlinkMacSystemFont, MiSans, system-ui, sans-serif">...</text><rect x="-930.0" y="24.0" width="354.0" height="76.0" rx="8" ry="8" fill="rgba(0, 0, 0, 0)" stroke="rgba(229, 231, 235, 1)" stroke-width="2"></rect><text x="-916.0" y="76.0" fill="rgba(255, 255, 255, 1)" font-size="32" text-anchor="start" font-family="-apple-system, BlinkMacSystemFont, MiSans, system-ui, sans-serif">async get&lt;T&gt;(...): T</text><rect x="-874.0" y="141.0" width="325.0" height="76.0" rx="8" ry="8" fill="rgba(0, 0, 0, 0)" stroke="rgba(229, 231, 235, 1)" stroke-width="2"></rect><text x="-860.0" y="193.0" fill="rgba(255, 255, 255, 1)" font-size="32" text-anchor="start" font-family="-apple-system, BlinkMacSystemFont, MiSans, system-ui, sans-serif">async set(...): void</text><rect x="-542.0" y="498.0" width="190.3" height="76.0" rx="8" ry="8" fill="rgba(22, 163, 74, 1)" stroke="rgba(229, 231, 235, 1)" stroke-width="2"></rect><text x="-528.0" y="550.0" fill="rgba(255, 255, 255, 1)" font-size="32" text-anchor="start" font-family="-apple-system, BlinkMacSystemFont, MiSans, system-ui, sans-serif">project.pg</text><rect x="-226.0" y="283.0" width="146.0" height="76.0" rx="8" ry="8" fill="rgba(0, 0, 0, 0)" stroke="rgba(229, 231, 235, 1)" stroke-width="2"></rect><text x="-212.0" y="335.0" fill="rgba(255, 255, 255, 1)" font-size="32" text-anchor="start" font-family="-apple-system, BlinkMacSystemFont, MiSans, system-ui, sans-serif">version</text><rect x="-243.0" y="472.0" width="225.0" height="76.0" rx="8" ry="8" fill="rgba(0, 0, 0, 0)" stroke="rgba(229, 231, 235, 1)" stroke-width="2"></rect><text x="-229.0" y="524.0" fill="rgba(255, 255, 255, 1)" font-size="32" text-anchor="start" font-family="-apple-system, BlinkMacSystemFont, MiSans, system-ui, sans-serif">entities.json</text><rect x="-477.0" y="816.0" width="143.0" height="76.0" rx="8" ry="8" fill="rgba(0, 0, 0, 0)" stroke="rgba(229, 231, 235, 1)" stroke-width="2"></rect><text x="-463.0" y="868.0" fill="rgba(255, 255, 255, 1)" font-size="32" text-anchor="start" font-family="-apple-system, BlinkMacSystemFont, MiSans, system-ui, sans-serif">assets/</text><rect x="-279.0" y="760.0" width="121.0" height="76.0" rx="8" ry="8" fill="rgba(0, 0, 0, 0)" stroke="rgba(229, 231, 235, 1)" stroke-width="2"></rect><text x="-265.0" y="812.0" fill="rgba(255, 255, 255, 1)" font-size="32" text-anchor="start" font-family="-apple-system, BlinkMacSystemFont, MiSans, system-ui, sans-serif">[uuid]</text><rect x="-278.0" y="887.0" width="121.0" height="76.0" rx="8" ry="8" fill="rgba(0, 0, 0, 0)" stroke="rgba(229, 231, 235, 1)" stroke-width="2"></rect><text x="-264.0" y="939.0" fill="rgba(255, 255, 255, 1)" font-size="32" text-anchor="start" font-family="-apple-system, BlinkMacSystemFont, MiSans, system-ui, sans-serif">[uuid]</text><rect x="26.0" y="307.0" width="142.0" height="76.0" rx="8" ry="8" fill="rgba(168, 85, 247, 1)" stroke="rgba(229, 231, 235, 1)" stroke-width="2"></rect><text x="40.0" y="359.0" fill="rgba(255, 255, 255, 1)" font-size="32" text-anchor="start" font-family="-apple-system, BlinkMacSystemFont, MiSans, system-ui, sans-serif">文档的版本号</text><rect x="-187.0" y="611.0" width="277.0" height="76.0" rx="8" ry="8" fill="rgba(168, 85, 247, 1)" stroke="rgba(229, 231, 235, 1)" stroke-width="2"></rect><text x="-173.0" y="663.0" fill="rgba(255, 255, 255, 1)" font-size="32" text-anchor="start" font-family="-apple-system, BlinkMacSystemFont, MiSans, system-ui, sans-serif">JSON数组，存储所有节点</text><rect x="352.0" y="347.0" width="62.0" height="76.0" rx="8" ry="8" fill="rgba(0, 0, 0, 0)" stroke="rgba(229, 231, 235, 1)" stroke-width="2"></rect><text x="366.0" y="399.0" fill="rgba(255, 255, 255, 1)" font-size="32" text-anchor="start" font-family="-apple-system, BlinkMacSystemFont, MiSans, system-ui, sans-serif">[ ]</text><rect x="426.0" y="469.0" width="78.0" height="76.0" rx="8" ry="8" fill="rgba(0, 0, 0, 0)" stroke="rgba(229, 231, 235, 1)" stroke-width="2"></rect><text x="440.0" y="521.0" fill="rgba(255, 255, 255, 1)" font-size="32" text-anchor="start" font-family="-apple-system, BlinkMacSystemFont, MiSans, system-ui, sans-serif">{ }</text><rect x="567.0" y="593.0" width="100.0" height="76.0" rx="8" ry="8" fill="rgba(0, 0, 0, 0)" stroke="rgba(229, 231, 235, 1)" stroke-width="2"></rect><text x="581.0" y="645.0" fill="rgba(255, 255, 255, 1)" font-size="32" text-anchor="start" font-family="-apple-system, BlinkMacSystemFont, MiSans, system-ui, sans-serif">type</text><rect x="720.0" y="617.0" width="269.7" height="76.0" rx="8" ry="8" fill="rgba(0, 0, 0, 0)" stroke="rgba(229, 231, 235, 1)" stroke-width="2"></rect><text x="734.0" y="669.0" fill="rgba(255, 255, 255, 1)" font-size="32" text-anchor="start" font-family="-apple-system, BlinkMacSystemFont, MiSans, system-ui, sans-serif">core:text_node</text><rect x="417.0" y="645.0" width="116.0" height="76.0" rx="8" ry="8" fill="rgba(0, 0, 0, 0)" stroke="rgba(229, 231, 235, 1)" stroke-width="2"></rect><text x="431.0" y="697.0" fill="rgba(255, 255, 255, 1)" font-size="32" text-anchor="start" font-family="-apple-system, BlinkMacSystemFont, MiSans, system-ui, sans-serif">width</text><rect x="420.0" y="743.0" width="130.0" height="76.0" rx="8" ry="8" fill="rgba(0, 0, 0, 0)" stroke="rgba(229, 231, 235, 1)" stroke-width="2"></rect><text x="434.0" y="795.0" fill="rgba(255, 255, 255, 1)" font-size="32" text-anchor="start" font-family="-apple-system, BlinkMacSystemFont, MiSans, system-ui, sans-serif">height</text><rect x="344.0" y="653.0" width="47.0" height="76.0" rx="8" ry="8" fill="rgba(0, 0, 0, 0)" stroke="rgba(229, 231, 235, 1)" stroke-width="2"></rect><text x="358.0" y="705.0" fill="rgba(255, 255, 255, 1)" font-size="32" text-anchor="start" font-family="-apple-system, BlinkMacSystemFont, MiSans, system-ui, sans-serif">x</text><rect x="348.0" y="738.0" width="47.0" height="76.0" rx="8" ry="8" fill="rgba(0, 0, 0, 0)" stroke="rgba(229, 231, 235, 1)" stroke-width="2"></rect><text x="362.0" y="790.0" fill="rgba(255, 255, 255, 1)" font-size="32" text-anchor="start" font-family="-apple-system, BlinkMacSystemFont, MiSans, system-ui, sans-serif">y</text><rect x="556.0" y="392.0" width="161.0" height="76.0" rx="8" ry="8" fill="rgba(0, 0, 0, 0)" stroke="rgba(229, 231, 235, 1)" stroke-width="2"></rect><text x="570.0" y="444.0" fill="rgba(255, 255, 255, 1)" font-size="32" text-anchor="start" font-family="-apple-system, BlinkMacSystemFont, MiSans, system-ui, sans-serif">data { }</text><rect x="756.0" y="403.0" width="92.4" height="76.0" rx="8" ry="8" fill="rgba(0, 0, 0, 0)" stroke="rgba(229, 231, 235, 1)" stroke-width="2"></rect><text x="770.0" y="455.0" fill="rgba(255, 255, 255, 1)" font-size="32" text-anchor="start" font-family="-apple-system, BlinkMacSystemFont, MiSans, system-ui, sans-serif">text</text><rect x="700.0" y="502.0" width="58.0" height="76.0" rx="8" ry="8" fill="rgba(0, 0, 0, 0)" stroke="rgba(229, 231, 235, 1)" stroke-width="2"></rect><text x="714.0" y="554.0" fill="rgba(255, 255, 255, 1)" font-size="32" text-anchor="start" font-family="-apple-system, BlinkMacSystemFont, MiSans, system-ui, sans-serif">...</text><rect x="-44.0" y="882.0" width="277.0" height="76.0" rx="8" ry="8" fill="rgba(168, 85, 247, 1)" stroke="rgba(229, 231, 235, 1)" stroke-width="2"></rect><text x="-30.0" y="934.0" fill="rgba(255, 255, 255, 1)" font-size="32" text-anchor="start" font-family="-apple-system, BlinkMacSystemFont, MiSans, system-ui, sans-serif">文档中的图片（raw格式）</text><line x1="-119.5" y1="-203.0" x2="112.6" y2="-424.0" stroke="rgba(229, 231, 235, 1)" stroke-width="2"></line><polygon points="112.6,-424.0 99.4,-416.8 107.2,-418.8 104.8,-411.2" fill="rgba(229, 231, 235, 1)" stroke="rgba(229, 231, 235, 1)"></polygon><line x1="-62.7" y1="-201.5" x2="84.0" y2="-256.9" stroke="rgba(229, 231, 235, 1)" stroke-width="2"></line><polygon points="84.0,-256.9 69.1,-255.4 77.0,-254.3 71.8,-248.2" fill="rgba(229, 231, 235, 1)" stroke="rgba(229, 231, 235, 1)"></polygon><line x1="674.0" y1="-461.0" x2="722.0" y2="-459.9" stroke="rgba(229, 231, 235, 1)" stroke-width="2"></line><polygon points="722.0,-459.9 707.6,-464.1 714.5,-460.1 707.4,-456.4" fill="rgba(229, 231, 235, 1)" stroke="rgba(229, 231, 235, 1)"></polygon><line x1="667.5" y1="-295.0" x2="720.0" y2="-295.0" stroke="rgba(229, 231, 235, 1)" stroke-width="2"></line><polygon points="720.0,-295.0 705.5,-298.9 712.5,-295.0 705.5,-291.1" fill="rgba(229, 231, 235, 1)" stroke="rgba(229, 231, 235, 1)"></polygon><line x1="273.0" y1="-463.1" x2="315.0" y2="-463.4" stroke="rgba(229, 231, 235, 1)" stroke-width="2"></line><polygon points="315.0,-463.4 300.5,-467.2 307.5,-463.4 300.5,-459.4" fill="rgba(229, 231, 235, 1)" stroke="rgba(229, 231, 235, 1)"></polygon><line x1="280.4" y1="-294.3" x2="352.0" y2="-294.5" stroke="rgba(229, 231, 235, 1)" stroke-width="2"></line><polygon points="352.0,-294.5 337.5,-298.4 344.5,-294.5 337.5,-290.6" fill="rgba(229, 231, 235, 1)" stroke="rgba(229, 231, 235, 1)"></polygon><line x1="219.0" y1="-82.9" x2="347.0" y2="-79.7" stroke="rgba(229, 231, 235, 1)" stroke-width="2"></line><polygon points="347.0,-79.7 332.6,-83.9 339.5,-79.9 332.4,-76.2" fill="rgba(229, 231, 235, 1)" stroke="rgba(229, 231, 235, 1)"></polygon><line x1="563.0" y1="-107.2" x2="660.0" y2="-134.3" stroke="rgba(229, 231, 235, 1)" stroke-width="2"></line><polygon points="660.0,-134.3 645.0,-134.1 652.8,-132.2 647.1,-126.6" fill="rgba(229, 231, 235, 1)" stroke="rgba(229, 231, 235, 1)"></polygon><line x1="563.0" y1="-78.7" x2="653.0" y2="-80.2" stroke="rgba(229, 231, 235, 1)" stroke-width="2"></line><polygon points="653.0,-80.2 638.5,-83.8 645.5,-80.0 638.6,-76.0" fill="rgba(229, 231, 235, 1)" stroke="rgba(229, 231, 235, 1)"></polygon><line x1="563.0" y1="-51.5" x2="653.0" y2="-30.2" stroke="rgba(229, 231, 235, 1)" stroke-width="2"></line><polygon points="653.0,-30.2 639.8,-37.3 645.7,-31.9 638.0,-29.7" fill="rgba(229, 231, 235, 1)" stroke="rgba(229, 231, 235, 1)"></polygon><line x1="-164.8" y1="-203.0" x2="-223.5" y2="-611.0" stroke="rgba(229, 231, 235, 1)" stroke-width="2"></line><polygon points="-223.5,-611.0 -225.3,-596.1 -222.5,-603.6 -217.6,-597.2" fill="rgba(229, 231, 235, 1)" stroke="rgba(229, 231, 235, 1)"></polygon><line x1="-177.8" y1="-203.0" x2="-317.7" y2="-491.0" stroke="rgba(229, 231, 235, 1)" stroke-width="2"></line><polygon points="-317.7,-491.0 -314.9,-476.3 -314.5,-484.3 -307.9,-479.7" fill="rgba(229, 231, 235, 1)" stroke="rgba(229, 231, 235, 1)"></polygon><line x1="-710.0" y1="-528.3" x2="-720.0" y2="-528.3" stroke="rgba(229, 231, 235, 1)" stroke-width="2"></line><polygon points="-720.0,-528.3 -705.5,-524.4 -712.5,-528.3 -705.5,-532.2" fill="rgba(229, 231, 235, 1)" stroke="rgba(229, 231, 235, 1)"></polygon><line x1="-256.0" y1="-195.7" x2="-338.7" y2="-222.0" stroke="rgba(229, 231, 235, 1)" stroke-width="2"></line><polygon points="-338.7,-222.0 -326.1,-213.9 -331.6,-219.7 -323.7,-221.3" fill="rgba(229, 231, 235, 1)" stroke="rgba(229, 231, 235, 1)"></polygon><line x1="-256.0" y1="-144.0" x2="-384.0" y2="-116.3" stroke="rgba(229, 231, 235, 1)" stroke-width="2"></line><polygon points="-384.0,-116.3 -369.0,-115.5 -376.7,-117.9 -370.7,-123.1" fill="rgba(229, 231, 235, 1)" stroke="rgba(229, 231, 235, 1)"></polygon><line x1="-207.4" y1="-127.0" x2="-389.5" y2="17.0" stroke="rgba(229, 231, 235, 1)" stroke-width="2"></line><polygon points="-389.5,17.0 -375.7,11.1 -383.6,12.3 -380.5,5.0" fill="rgba(229, 231, 235, 1)" stroke="rgba(229, 231, 235, 1)"></polygon><line x1="-521.0" y1="-251.3" x2="-566.7" y2="-251.5" stroke="rgba(229, 231, 235, 1)" stroke-width="2"></line><polygon points="-566.7,-251.5 -552.2,-247.6 -559.2,-251.5 -552.2,-255.3" fill="rgba(229, 231, 235, 1)" stroke="rgba(229, 231, 235, 1)"></polygon><line x1="-844.0" y1="-251.3" x2="-910.0" y2="-251.0" stroke="rgba(229, 231, 235, 1)" stroke-width="2"></line><polygon points="-910.0,-251.0 -895.5,-247.2 -902.5,-251.0 -895.6,-254.9" fill="rgba(229, 231, 235, 1)" stroke="rgba(229, 231, 235, 1)"></polygon><line x1="-534.0" y1="-99.0" x2="-635.0" y2="-97.6" stroke="rgba(229, 231, 235, 1)" stroke-width="2"></line><polygon points="-635.0,-97.6 -620.5,-94.0 -627.5,-97.7 -620.6,-101.7" fill="rgba(229, 231, 235, 1)" stroke="rgba(229, 231, 235, 1)"></polygon><line x1="-880.0" y1="-96.5" x2="-981.0" y2="-96.9" stroke="rgba(229, 231, 235, 1)" stroke-width="2"></line><polygon points="-981.0,-96.9 -966.5,-92.9 -973.5,-96.9 -966.5,-100.7" fill="rgba(229, 231, 235, 1)" stroke="rgba(229, 231, 235, 1)"></polygon><line x1="-578.0" y1="-651.5" x2="-644.0" y2="-651.1" stroke="rgba(229, 231, 235, 1)" stroke-width="2"></line><polygon points="-644.0,-651.1 -629.5,-647.3 -636.5,-651.2 -629.5,-655.1" fill="rgba(229, 231, 235, 1)" stroke="rgba(229, 231, 235, 1)"></polygon><line x1="-516.0" y1="56.7" x2="-576.0" y2="58.1" stroke="rgba(229, 231, 235, 1)" stroke-width="2"></line><polygon points="-576.0,58.1 -561.4,61.6 -568.5,57.9 -561.6,53.9" fill="rgba(229, 231, 235, 1)" stroke="rgba(229, 231, 235, 1)"></polygon><line x1="-516.0" y1="90.5" x2="-627.5" y2="141.0" stroke="rgba(229, 231, 235, 1)" stroke-width="2"></line><polygon points="-627.5,141.0 -612.7,138.6 -620.7,137.9 -615.9,131.5" fill="rgba(229, 231, 235, 1)" stroke="rgba(229, 231, 235, 1)"></polygon><line x1="-394.9" y1="498.0" x2="-204.9" y2="359.0" stroke="rgba(229, 231, 235, 1)" stroke-width="2"></line><polygon points="-204.9,359.0 -218.9,364.4 -211.0,363.4 -214.3,370.7" fill="rgba(229, 231, 235, 1)" stroke="rgba(229, 231, 235, 1)"></polygon><line x1="-351.7" y1="528.2" x2="-243.0" y2="519.2" stroke="rgba(229, 231, 235, 1)" stroke-width="2"></line><polygon points="-243.0,519.2 -257.8,516.6 -250.5,519.9 -257.1,524.3" fill="rgba(229, 231, 235, 1)" stroke="rgba(229, 231, 235, 1)"></polygon><line x1="-441.9" y1="574.0" x2="-410.4" y2="816.0" stroke="rgba(229, 231, 235, 1)" stroke-width="2"></line><polygon points="-410.4,816.0 -408.5,801.1 -411.4,808.6 -416.2,802.1" fill="rgba(229, 231, 235, 1)" stroke="rgba(229, 231, 235, 1)"></polygon><line x1="-334.0" y1="832.6" x2="-279.0" y2="816.1" stroke="rgba(229, 231, 235, 1)" stroke-width="2"></line><polygon points="-279.0,816.1 -294.0,816.6 -286.2,818.3 -291.8,824.0" fill="rgba(229, 231, 235, 1)" stroke="rgba(229, 231, 235, 1)"></polygon><line x1="-334.0" y1="881.0" x2="-278.0" y2="902.2" stroke="rgba(229, 231, 235, 1)" stroke-width="2"></line><polygon points="-278.0,902.2 -290.2,893.4 -285.0,899.5 -292.9,900.7" fill="rgba(229, 231, 235, 1)" stroke="rgba(229, 231, 235, 1)"></polygon><line x1="-419.0" y1="-528.7" x2="-445.1" y2="-528.5" stroke="rgba(229, 231, 235, 1)" stroke-width="2"></line><polygon points="-445.1,-528.5 -430.6,-524.7 -437.6,-528.6 -430.7,-532.5" fill="rgba(229, 231, 235, 1)" stroke="rgba(229, 231, 235, 1)"></polygon><line x1="-288.0" y1="-649.7" x2="-366.0" y2="-650.7" stroke="rgba(229, 231, 235, 1)" stroke-width="2"></line><polygon points="-366.0,-650.7 -351.6,-646.6 -358.5,-650.6 -351.5,-654.4" fill="rgba(229, 231, 235, 1)" stroke="rgba(229, 231, 235, 1)"></polygon><line x1="-62.7" y1="-138.8" x2="52.0" y2="-107.7" stroke="rgba(229, 231, 235, 1)" stroke-width="2"></line><polygon points="52.0,-107.7 39.0,-115.2 44.8,-109.6 37.0,-107.7" fill="rgba(229, 231, 235, 1)" stroke="rgba(229, 231, 235, 1)"></polygon><line x1="26.0" y1="338.2" x2="-80.0" y2="328.0" stroke="rgba(229, 231, 235, 1)" stroke-width="2"></line><polygon points="-80.0,328.0 -65.9,333.3 -72.5,328.7 -65.2,325.5" fill="rgba(229, 231, 235, 1)" stroke="rgba(229, 231, 235, 1)"></polygon><line x1="-70.9" y1="611.0" x2="-108.1" y2="548.0" stroke="rgba(229, 231, 235, 1)" stroke-width="2"></line><polygon points="-108.1,548.0 -104.1,562.5 -104.3,554.5 -97.4,558.5" fill="rgba(229, 231, 235, 1)" stroke="rgba(229, 231, 235, 1)"></polygon><line x1="-18.0" y1="482.6" x2="352.0" y2="392.5" stroke="rgba(229, 231, 235, 1)" stroke-width="2"></line><polygon points="352.0,392.5 337.0,392.2 344.7,394.3 338.8,399.7" fill="rgba(229, 231, 235, 1)" stroke="rgba(229, 231, 235, 1)"></polygon><line x1="408.5" y1="423.0" x2="439.5" y2="469.0" stroke="rgba(229, 231, 235, 1)" stroke-width="2"></line><polygon points="439.5,469.0 434.6,454.8 435.3,462.8 428.2,459.1" fill="rgba(229, 231, 235, 1)" stroke="rgba(229, 231, 235, 1)"></polygon><line x1="504.0" y1="538.8" x2="570.4" y2="593.0" stroke="rgba(229, 231, 235, 1)" stroke-width="2"></line><polygon points="570.4,593.0 561.6,580.8 564.6,588.3 556.7,586.8" fill="rgba(229, 231, 235, 1)" stroke="rgba(229, 231, 235, 1)"></polygon><line x1="667.0" y1="636.0" x2="720.0" y2="641.4" stroke="rgba(229, 231, 235, 1)" stroke-width="2"></line><polygon points="720.0,641.4 706.0,636.1 712.5,640.6 705.2,643.8" fill="rgba(229, 231, 235, 1)" stroke="rgba(229, 231, 235, 1)"></polygon><line x1="444.9" y1="545.0" x2="387.6" y2="653.0" stroke="rgba(229, 231, 235, 1)" stroke-width="2"></line><polygon points="387.6,653.0 397.9,642.0 391.1,646.4 391.0,638.4" fill="rgba(229, 231, 235, 1)" stroke="rgba(229, 231, 235, 1)"></polygon><line x1="467.2" y1="545.0" x2="472.8" y2="645.0" stroke="rgba(229, 231, 235, 1)" stroke-width="2"></line><polygon points="472.8,645.0 475.9,630.3 472.4,637.5 468.1,630.8" fill="rgba(229, 231, 235, 1)" stroke="rgba(229, 231, 235, 1)"></polygon><line x1="451.8" y1="545.0" x2="384.7" y2="738.0" stroke="rgba(229, 231, 235, 1)" stroke-width="2"></line><polygon points="384.7,738.0 393.1,725.6 387.2,730.9 385.8,723.0" fill="rgba(229, 231, 235, 1)" stroke="rgba(229, 231, 235, 1)"></polygon><line x1="467.8" y1="545.0" x2="482.2" y2="743.0" stroke="rgba(229, 231, 235, 1)" stroke-width="2"></line><polygon points="482.2,743.0 485.0,728.3 481.7,735.5 477.3,728.8" fill="rgba(229, 231, 235, 1)" stroke="rgba(229, 231, 235, 1)"></polygon><line x1="504.0" y1="489.5" x2="556.0" y2="466.1" stroke="rgba(229, 231, 235, 1)" stroke-width="2"></line><polygon points="556.0,466.1 541.2,468.5 549.2,469.2 544.4,475.6" fill="rgba(229, 231, 235, 1)" stroke="rgba(229, 231, 235, 1)"></polygon><line x1="717.0" y1="435.3" x2="756.0" y2="437.9" stroke="rgba(229, 231, 235, 1)" stroke-width="2"></line><polygon points="756.0,437.9 741.8,433.1 748.5,437.4 741.3,440.8" fill="rgba(229, 231, 235, 1)" stroke="rgba(229, 231, 235, 1)"></polygon><line x1="668.5" y1="468.0" x2="700.0" y2="505.5" stroke="rgba(229, 231, 235, 1)" stroke-width="2"></line><polygon points="700.0,505.5 693.6,491.9 695.2,499.8 687.7,496.9" fill="rgba(229, 231, 235, 1)" stroke="rgba(229, 231, 235, 1)"></polygon><line x1="-44.0" y1="922.2" x2="-157.0" y2="924.0" stroke="rgba(229, 231, 235, 1)" stroke-width="2"></line><polygon points="-157.0,924.0 -142.5,927.7 -149.5,923.9 -142.6,919.9" fill="rgba(229, 231, 235, 1)" stroke="rgba(229, 231, 235, 1)"></polygon><line x1="-3.0" y1="882.0" x2="-158.0" y2="821.6" stroke="rgba(229, 231, 235, 1)" stroke-width="2"></line><polygon points="-158.0,821.6 -145.9,830.5 -151.0,824.3 -143.1,823.2" fill="rgba(229, 231, 235, 1)" stroke="rgba(229, 231, 235, 1)"></polygon><rect x="314.0" y="267.0" width="705.7" height="582.0" rx="8" ry="8" fill="rgba(0, 0, 0, 0)" stroke="rgba(229, 231, 235, 1)" stroke-width="2"></rect><text x="328.0" y="297.0" fill="rgba(229, 231, 235, 1)" font-size="32" text-anchor="start" font-family="-apple-system, BlinkMacSystemFont, MiSans, system-ui, sans-serif">JSON</text></svg>