<svg xmlns="http://www.w3.org/2000/svg" width="3060.9033515979245" height="2657.8254684118547" viewBox="-1681.8800338991487 -1793.3917918546945 3060.9033515979245 2657.8254684118547" style="background-color:rgba(31, 31, 31, 1)"><rect x="-1651.9" y="110.3" width="189.0" height="76.0" rx="8" ry="8" fill="rgba(0, 0, 0, 0)" stroke="rgba(204, 204, 204, 1)" stroke-width="2"></rect><text x="-1557.3800338991487" y="162.32091663499858" fill="rgba(255, 255, 255, 1)" font-size="32" text-anchor="middle" font-family="MiSans">序列化json数据</text><rect x="-1600.0" y="-114.8" width="341.0" height="76.0" rx="8" ry="8" fill="rgba(0, 0, 0, 0)" stroke="rgba(204, 204, 204, 1)" stroke-width="2"></rect><text x="-1429.5350470035874" y="-62.84532764852514" fill="rgba(255, 255, 255, 1)" font-size="32" text-anchor="middle" font-family="MiSans">各种StageObject类的对象</text><rect x="-29.4" y="236.3" width="161.0" height="76.0" rx="8" ry="8" fill="rgba(0, 0, 0, 0)" stroke="rgba(204, 204, 204, 1)" stroke-width="2"></rect><text x="51.14726360699592" y="288.2726845531878" fill="rgba(255, 255, 255, 1)" font-size="32" text-anchor="middle" font-family="MiSans">数据结构与算法</text><rect x="-352.0" y="-175.9" width="123.0" height="76.0" rx="8" ry="8" fill="rgba(0, 0, 0, 0)" stroke="rgba(204, 204, 204, 1)" stroke-width="2"></rect><text x="-290.4714854655583" y="-123.8889085624134" fill="rgba(255, 255, 255, 1)" font-size="32" text-anchor="middle" font-family="MiSans">舞台管理器</text><rect x="-384.0" y="85.1" width="142.0" height="76.0" rx="8" ry="8" fill="rgba(0, 0, 0, 0)" stroke="rgba(204, 204, 204, 1)" stroke-width="2"></rect><text x="-312.9714854655583" y="137.05563113727248" fill="rgba(255, 255, 255, 1)" font-size="32" text-anchor="middle" font-family="MiSans">舞台基本元素</text><rect x="278.2" y="-224.1" width="170.0" height="76.0" rx="8" ry="8" fill="rgba(0, 0, 0, 0)" stroke="rgba(204, 204, 204, 1)" stroke-width="2"></rect><text x="363.17856962926703" y="-172.05547164507345" fill="rgba(255, 255, 255, 1)" font-size="32" text-anchor="middle" font-family="MiSans">DOM渲染器</text><rect x="278.2" y="-128.2" width="248.0" height="76.0" rx="8" ry="8" fill="rgba(0, 0, 0, 0)" stroke="rgba(204, 204, 204, 1)" stroke-width="2"></rect><text x="402.17860706518763" y="-76.15703604780276" fill="rgba(255, 255, 255, 1)" font-size="32" text-anchor="middle" font-family="MiSans">Canvas2D渲染器</text><rect x="278.2" y="-33.0" width="145.0" height="76.0" rx="8" ry="8" fill="rgba(0, 0, 0, 0)" stroke="rgba(204, 204, 204, 1)" stroke-width="2"></rect><text x="350.67860706518763" y="18.97832717536346" fill="rgba(255, 255, 255, 1)" font-size="32" text-anchor="middle" font-family="MiSans">Svg生成器</text><rect x="-830.8" y="-1078.2" width="142.0" height="76.0" rx="8" ry="8" fill="rgba(0, 0, 0, 0)" stroke="rgba(204, 204, 204, 1)" stroke-width="2"></rect><text x="-759.7919614498546" y="-1026.1856366056454" fill="rgba(255, 255, 255, 1)" font-size="32" text-anchor="middle" font-family="MiSans">自动计算引擎</text><rect x="685.2" y="-1257.6" width="104.0" height="76.0" rx="8" ry="8" fill="rgba(0, 0, 0, 0)" stroke="rgba(204, 204, 204, 1)" stroke-width="2"></rect><text x="737.2266787415012" y="-1205.6275366797913" fill="rgba(255, 255, 255, 1)" font-size="32" text-anchor="middle" font-family="MiSans">特效引擎</text><rect x="1150.0" y="-1002.9" width="142.0" height="76.0" rx="8" ry="8" fill="rgba(0, 0, 0, 0)" stroke="rgba(204, 204, 204, 1)" stroke-width="2"></rect><text x="1221.0233176987758" y="-950.8857678328216" fill="rgba(255, 255, 255, 1)" font-size="32" text-anchor="middle" font-family="MiSans">自动布局引擎</text><rect x="685.3" y="-712.1" width="218.0" height="76.0" rx="8" ry="8" fill="rgba(0, 0, 0, 0)" stroke="rgba(204, 204, 204, 1)" stroke-width="2"></rect><text x="794.2993986177501" y="-660.1481074676622" fill="rgba(255, 255, 255, 1)" font-size="32" text-anchor="middle" font-family="MiSans">鼠标键盘注册监听系统</text><rect x="1150.0" y="-899.3" width="161.0" height="76.0" rx="8" ry="8" fill="rgba(0, 0, 0, 0)" stroke="rgba(204, 204, 204, 1)" stroke-width="2"></rect><text x="1230.5233176987758" y="-847.2726576635034" fill="rgba(255, 255, 255, 1)" font-size="32" text-anchor="middle" font-family="MiSans">纯键盘操作引擎</text><rect x="877.0" y="-1257.6" width="104.0" height="76.0" rx="8" ry="8" fill="rgba(0, 0, 0, 0)" stroke="rgba(204, 204, 204, 1)" stroke-width="2"></rect><text x="929.0082153218957" y="-1205.6275366797913" fill="rgba(255, 255, 255, 1)" font-size="32" text-anchor="middle" font-family="MiSans">音效引擎</text><rect x="683.5" y="-1148.7" width="161.0" height="76.0" rx="8" ry="8" fill="rgba(0, 0, 0, 0)" stroke="rgba(204, 204, 204, 1)" stroke-width="2"></rect><text x="763.9671707332693" y="-1096.748243547891" fill="rgba(255, 255, 255, 1)" font-size="32" text-anchor="middle" font-family="MiSans">舞台样式控制器</text><rect x="-793.4" y="-456.2" width="161.0" height="76.0" rx="8" ry="8" fill="rgba(0, 0, 0, 0)" stroke="rgba(204, 204, 204, 1)" stroke-width="2"></rect><text x="-712.8919470580327" y="-404.15268875516466" fill="rgba(255, 255, 255, 1)" font-size="32" text-anchor="middle" font-family="MiSans">节点颜色管理器</text><rect x="1150.0" y="-786.5" width="199.0" height="76.0" rx="8" ry="8" fill="rgba(0, 0, 0, 0)" stroke="rgba(204, 204, 204, 1)" stroke-width="2"></rect><text x="1249.5233176987758" y="-734.538232936444" fill="rgba(255, 255, 255, 1)" font-size="32" text-anchor="middle" font-family="MiSans">快捷键注册监听系统</text><rect x="-946.9" y="-1340.3" width="199.0" height="76.0" rx="8" ry="8" fill="rgba(0, 0, 0, 0)" stroke="rgba(204, 204, 204, 1)" stroke-width="2"></rect><text x="-847.3871781221783" y="-1288.3138004748166" fill="rgba(255, 255, 255, 1)" font-size="32" text-anchor="middle" font-family="MiSans">最近打开文件管理器</text><rect x="-80.1" y="-456.2" width="219.0" height="124.0" rx="8" ry="8" fill="rgba(0, 0, 0, 0)" stroke="rgba(204, 204, 204, 1)" stroke-width="2"></rect><text x="29.435379237728057" y="-380.15268875516466" fill="rgba(255, 255, 255, 1)" font-size="32" text-anchor="middle" font-family="MiSans">设置管理器
Settings.tsx</text><rect x="-948.9" y="-1453.7" width="218.0" height="76.0" rx="8" ry="8" fill="rgba(0, 0, 0, 0)" stroke="rgba(204, 204, 204, 1)" stroke-width="2"></rect><text x="-839.8871743103487" y="-1401.7151762305061" fill="rgba(255, 255, 255, 1)" font-size="32" text-anchor="middle" font-family="MiSans">初始化启动文件管理器</text><rect x="-732.8" y="-963.6" width="102.0" height="76.0" rx="8" ry="8" fill="rgba(0, 0, 0, 0)" stroke="rgba(204, 204, 204, 1)" stroke-width="2"></rect><text x="-681.7759549801281" y="-911.5686584502394" fill="rgba(255, 255, 255, 1)" font-size="32" text-anchor="middle" font-family="MiSans">AI服务</text><rect x="-544.0" y="-1715.4" width="199.0" height="76.0" rx="8" ry="8" fill="rgba(0, 0, 0, 0)" stroke="rgba(204, 204, 204, 1)" stroke-width="2"></rect><text x="-444.4714854655583" y="-1663.3917918546945" fill="rgba(255, 255, 255, 1)" font-size="32" text-anchor="middle" font-family="MiSans">上一次启动记录服务</text><rect x="-763.4" y="-80.0" width="161.0" height="76.0" rx="8" ry="8" fill="rgba(0, 0, 0, 0)" stroke="rgba(204, 204, 204, 1)" stroke-width="2"></rect><text x="-682.8919470580327" y="-27.990472965142715" fill="rgba(255, 255, 255, 1)" font-size="32" text-anchor="middle" font-family="MiSans">鼠标位置记录器</text><rect x="119.2" y="-922.3" width="161.0" height="76.0" rx="8" ry="8" fill="rgba(0, 0, 0, 0)" stroke="rgba(204, 204, 204, 1)" stroke-width="2"></rect><text x="199.74683157648332" y="-870.3074432589249" fill="rgba(255, 255, 255, 1)" font-size="32" text-anchor="middle" font-family="MiSans">交互控制类服务</text><rect x="1150.0" y="-683.2" width="124.0" height="76.0" rx="8" ry="8" fill="rgba(0, 0, 0, 0)" stroke="rgba(204, 204, 204, 1)" stroke-width="2"></rect><text x="1212.0233176987758" y="-631.1618109830142" fill="rgba(255, 255, 255, 1)" font-size="32" text-anchor="middle" font-family="MiSans">CLI系统</text><rect x="119.2" y="-1035.3" width="161.0" height="76.0" rx="8" ry="8" fill="rgba(0, 0, 0, 0)" stroke="rgba(204, 204, 204, 1)" stroke-width="2"></rect><text x="199.74683157648332" y="-983.2619084901289" fill="rgba(255, 255, 255, 1)" font-size="32" text-anchor="middle" font-family="MiSans">感官反馈类服务</text><rect x="-352.3" y="-1035.3" width="161.0" height="76.0" rx="8" ry="8" fill="rgba(0, 0, 0, 0)" stroke="rgba(204, 204, 204, 1)" stroke-width="2"></rect><text x="-271.8267882099515" y="-983.2619084901289" fill="rgba(255, 255, 255, 1)" font-size="32" text-anchor="middle" font-family="MiSans">信息生成类服务</text><rect x="776.1" y="-912.6" width="104.0" height="76.0" rx="8" ry="8" fill="rgba(0, 0, 0, 0)" stroke="rgba(204, 204, 204, 1)" stroke-width="2"></rect><text x="828.0516278676535" y="-860.6486404682976" fill="rgba(255, 255, 255, 1)" font-size="32" text-anchor="middle" font-family="MiSans">连线模块</text><rect x="776.1" y="-809.6" width="104.0" height="76.0" rx="8" ry="8" fill="rgba(0, 0, 0, 0)" stroke="rgba(204, 204, 204, 1)" stroke-width="2"></rect><text x="828.0516297345514" y="-757.6101957169315" fill="rgba(255, 255, 255, 1)" font-size="32" text-anchor="middle" font-family="MiSans">框选模块</text><rect x="-1109.5" y="-963.6" width="218.0" height="76.0" rx="8" ry="8" fill="rgba(0, 0, 0, 0)" stroke="rgba(204, 204, 204, 1)" stroke-width="2"></rect><text x="-1000.5370476186922" y="-911.5686584502394" fill="rgba(255, 255, 255, 1)" font-size="32" text-anchor="middle" font-family="MiSans">根据文本生成节点系统</text><rect x="-924.3" y="-836.1" width="274.0" height="76.0" rx="8" ry="8" fill="rgba(0, 0, 0, 0)" stroke="rgba(204, 204, 204, 1)" stroke-width="2"></rect><text x="-787.2639157955578" y="-784.1065702009703" fill="rgba(255, 255, 255, 1)" font-size="32" text-anchor="middle" font-family="MiSans">导出markdown系统</text><rect x="-654.9" y="552.1" width="142.0" height="76.0" rx="8" ry="8" fill="rgba(0, 0, 0, 0)" stroke="rgba(204, 204, 204, 1)" stroke-width="2"></rect><text x="-583.9156620396402" y="604.0841448961992" fill="rgba(255, 255, 255, 1)" font-size="32" text-anchor="middle" font-family="MiSans">数组扩展算法</text><rect x="-554.5" y="675.9" width="142.0" height="76.0" rx="8" ry="8" fill="rgba(0, 0, 0, 0)" stroke="rgba(204, 204, 204, 1)" stroke-width="2"></rect><text x="-483.45170904026236" y="727.9102784648967" fill="rgba(255, 255, 255, 1)" font-size="32" text-anchor="middle" font-family="MiSans">实数扩展算法</text><rect x="438.8" y="596.6" width="104.0" height="76.0" rx="8" ry="8" fill="rgba(0, 0, 0, 0)" stroke="rgba(204, 204, 204, 1)" stroke-width="2"></rect><text x="490.7900847682515" y="648.6232842780043" fill="rgba(255, 255, 255, 1)" font-size="32" text-anchor="middle" font-family="MiSans">二维向量</text><rect x="-264.4" y="675.9" width="161.0" height="76.0" rx="8" ry="8" fill="rgba(0, 0, 0, 0)" stroke="rgba(204, 204, 204, 1)" stroke-width="2"></rect><text x="-183.94176595683052" y="727.9102784648967" fill="rgba(255, 255, 255, 1)" font-size="32" text-anchor="middle" font-family="MiSans">数值积分的算法</text><rect x="-352.0" y="552.1" width="85.0" height="76.0" rx="8" ry="8" fill="rgba(0, 0, 0, 0)" stroke="rgba(204, 204, 204, 1)" stroke-width="2"></rect><text x="-309.4714854655583" y="604.0841448961992" fill="rgba(255, 255, 255, 1)" font-size="32" text-anchor="middle" font-family="MiSans">概率论</text><rect x="217.1" y="596.6" width="66.0" height="76.0" rx="8" ry="8" fill="rgba(0, 0, 0, 0)" stroke="rgba(204, 204, 204, 1)" stroke-width="2"></rect><text x="250.10867321189755" y="648.6245370328973" fill="rgba(255, 255, 255, 1)" font-size="32" text-anchor="middle" font-family="MiSans">图形</text><rect x="-164.6" y="552.1" width="142.0" height="76.0" rx="8" ry="8" fill="rgba(0, 0, 0, 0)" stroke="rgba(204, 204, 204, 1)" stroke-width="2"></rect><text x="-93.5919916652972" y="604.0841448961992" fill="rgba(255, 255, 255, 1)" font-size="32" text-anchor="middle" font-family="MiSans">图形碰撞检测</text><rect x="223.0" y="728.4" width="142.0" height="76.0" rx="8" ry="8" fill="rgba(0, 0, 0, 0)" stroke="rgba(204, 204, 204, 1)" stroke-width="2"></rect><text x="294.03400545038414" y="780.4000147527402" fill="rgba(255, 255, 255, 1)" font-size="32" text-anchor="middle" font-family="MiSans">缓存数据结构</text><rect x="496.9" y="728.4" width="85.0" height="76.0" rx="8" ry="8" fill="rgba(0, 0, 0, 0)" stroke="rgba(204, 204, 204, 1)" stroke-width="2"></rect><text x="539.4145429772412" y="780.4336765571604" fill="rgba(255, 255, 255, 1)" font-size="32" text-anchor="middle" font-family="MiSans">单调栈</text><rect x="649.0" y="728.4" width="85.0" height="76.0" rx="8" ry="8" fill="rgba(0, 0, 0, 0)" stroke="rgba(204, 204, 204, 1)" stroke-width="2"></rect><text x="691.5187388984634" y="780.4328528140802" fill="rgba(255, 255, 255, 1)" font-size="32" text-anchor="middle" font-family="MiSans">颜色类</text><rect x="648.9" y="596.7" width="104.0" height="76.0" rx="8" ry="8" fill="rgba(0, 0, 0, 0)" stroke="rgba(204, 204, 204, 1)" stroke-width="2"></rect><text x="700.8562189175448" y="648.6533509988901" fill="rgba(255, 255, 255, 1)" font-size="32" text-anchor="middle" font-family="MiSans">进度条类</text><rect x="648.9" y="490.0" width="157.0" height="76.0" rx="8" ry="8" fill="rgba(0, 0, 0, 0)" stroke="rgba(204, 204, 204, 1)" stroke-width="2"></rect><text x="727.4427352477344" y="542.0493385790815" fill="rgba(255, 255, 255, 1)" font-size="32" text-anchor="middle" font-family="MiSans">uuid字典类</text><rect x="-131.2" y="-1763.4" width="161.0" height="124.0" rx="8" ry="8" fill="rgba(0, 0, 0, 0)" stroke="rgba(204, 204, 204, 1)" stroke-width="2"></rect><text x="-50.70069864313132" y="-1687.3917918546945" fill="rgba(255, 255, 255, 1)" font-size="32" text-anchor="middle" font-family="MiSans">插件系统
更多的业务服务</text><rect x="-131.2" y="-1337.6" width="180.0" height="76.0" rx="8" ry="8" fill="rgba(0, 0, 0, 0)" stroke="rgba(204, 204, 204, 1)" stroke-width="2"></rect><text x="-41.20069864313132" y="-1285.6275366797913" fill="rgba(255, 255, 255, 1)" font-size="32" text-anchor="middle" font-family="MiSans">其他未分类的服务</text><rect x="-131.2" y="-1148.7" width="161.0" height="76.0" rx="8" ry="8" fill="rgba(0, 0, 0, 0)" stroke="rgba(204, 204, 204, 1)" stroke-width="2"></rect><text x="-50.70069864313132" y="-1096.748243547891" fill="rgba(255, 255, 255, 1)" font-size="32" text-anchor="middle" font-family="MiSans">文件管理类服务</text><rect x="-352.3" y="-922.3" width="161.0" height="76.0" rx="8" ry="8" fill="rgba(0, 0, 0, 0)" stroke="rgba(204, 204, 204, 1)" stroke-width="2"></rect><text x="-271.8267882099515" y="-870.3074432589249" fill="rgba(255, 255, 255, 1)" font-size="32" text-anchor="middle" font-family="MiSans">信息管理类服务</text><rect x="-793.4" y="-570.1" width="142.0" height="76.0" rx="8" ry="8" fill="rgba(0, 0, 0, 0)" stroke="rgba(204, 204, 204, 1)" stroke-width="2"></rect><text x="-722.3919470580327" y="-518.1239526004024" fill="rgba(255, 255, 255, 1)" font-size="32" text-anchor="middle" font-family="MiSans">节点搜索功能</text><rect x="-1139.5" y="-1453.7" width="104.0" height="76.0" rx="8" ry="8" fill="rgba(0, 0, 0, 0)" stroke="rgba(204, 204, 204, 1)" stroke-width="2"></rect><text x="-1087.5370476186922" y="-1401.7151762305061" fill="rgba(255, 255, 255, 1)" font-size="32" text-anchor="middle" font-family="MiSans">自动保存</text><rect x="-1139.5" y="-1340.3" width="104.0" height="76.0" rx="8" ry="8" fill="rgba(0, 0, 0, 0)" stroke="rgba(204, 204, 204, 1)" stroke-width="2"></rect><text x="-1087.5370476186922" y="-1288.3138004748166" fill="rgba(255, 255, 255, 1)" font-size="32" text-anchor="middle" font-family="MiSans">自动备份</text><rect x="1027.9" y="-456.2" width="142.0" height="76.0" rx="8" ry="8" fill="rgba(0, 0, 0, 0)" stroke="rgba(204, 204, 204, 1)" stroke-width="2"></rect><text x="1098.860775550348" y="-404.15268875516466" fill="rgba(255, 255, 255, 1)" font-size="32" text-anchor="middle" font-family="MiSans">复制粘贴功能</text><rect x="776.1" y="-456.2" width="142.0" height="76.0" rx="8" ry="8" fill="rgba(0, 0, 0, 0)" stroke="rgba(204, 204, 204, 1)" stroke-width="2"></rect><text x="847.0516278676535" y="-404.15268875516466" fill="rgba(255, 255, 255, 1)" font-size="32" text-anchor="middle" font-family="MiSans">拖拽文件控制</text><rect x="-793.4" y="-175.9" width="180.0" height="76.0" rx="8" ry="8" fill="rgba(0, 0, 0, 0)" stroke="rgba(204, 204, 204, 1)" stroke-width="2"></rect><text x="-703.3919470580327" y="-123.8889085624134" fill="rgba(255, 255, 255, 1)" font-size="32" text-anchor="middle" font-family="MiSans">历史记录管理模块</text><rect x="-1109.5" y="-175.9" width="234.0" height="76.0" rx="8" ry="8" fill="rgba(0, 0, 0, 0)" stroke="rgba(204, 204, 204, 1)" stroke-width="2"></rect><text x="-992.5370476186922" y="-123.8889085624134" fill="rgba(255, 255, 255, 1)" font-size="32" text-anchor="middle" font-family="MiSans">StageLoader</text><rect x="-1109.5" y="-21.4" width="252.0" height="76.0" rx="8" ry="8" fill="rgba(0, 0, 0, 0)" stroke="rgba(204, 204, 204, 1)" stroke-width="2"></rect><text x="-983.5370476186922" y="30.633016420551314" fill="rgba(255, 255, 255, 1)" font-size="32" text-anchor="middle" font-family="MiSans">StageDumper</text><rect x="-1551.8" y="-912.6" width="323.0" height="76.0" rx="8" ry="8" fill="rgba(0, 0, 0, 0)" stroke="rgba(204, 204, 204, 1)" stroke-width="2"></rect><text x="-1390.3333414047738" y="-860.6486404682976" fill="rgba(255, 255, 255, 1)" font-size="32" text-anchor="middle" font-family="MiSans">StageDumperSVG</text><line x1="-29.4" y1="240.8" x2="-242.0" y2="152.5" stroke="rgba(204, 204, 204, 1)" stroke-width="2"></line><polygon points="-242.0,152.5 -230.1,161.7 -235.0,155.4 -227.1,154.5" fill="rgba(204, 204, 204, 1)" stroke="rgba(204, 204, 204, 1)"></polygon><line x1="-309.7" y1="85.1" x2="-293.7" y2="-99.9" stroke="rgba(204, 204, 204, 1)" stroke-width="2"></line><polygon points="-293.7,-99.9 -298.9,-85.8 -294.4,-92.4 -291.1,-85.1" fill="rgba(204, 204, 204, 1)" stroke="rgba(204, 204, 204, 1)"></polygon><line x1="85.4" y1="236.3" x2="248.2" y2="55.5" stroke="rgba(204, 204, 204, 1)" stroke-width="2"></line><polygon points="248.2,55.5 235.6,63.6 243.2,61.0 241.4,68.8" fill="rgba(204, 204, 204, 1)" stroke="rgba(204, 204, 204, 1)"></polygon><line x1="23.8" y1="-456.2" x2="9.0" y2="-620.2" stroke="rgba(204, 204, 204, 1)" stroke-width="2"></line><line x1="-8.8" y1="-816.3" x2="6.1" y2="-652.2" stroke="rgba(204, 204, 204, 1)" stroke-width="2"></line><text x="7.507075051388654" y="-622.2300660070448" fill="rgba(204, 204, 204, 1)" font-size="32" text-anchor="middle" font-family="MiSans">控制各种服务的开关和配置</text><polygon points="-8.8,-816.3 -11.4,-801.5 -8.1,-808.8 -3.6,-802.2" fill="rgba(204, 204, 204, 1)" stroke="rgba(204, 204, 204, 1)"></polygon><line x1="-243.0" y1="-175.9" x2="-48.0" y2="-332.2" stroke="rgba(204, 204, 204, 1)" stroke-width="2"></line><polygon points="-48.0,-332.2 -61.7,-326.1 -53.8,-327.5 -56.8,-320.1" fill="rgba(204, 204, 204, 1)" stroke="rgba(204, 204, 204, 1)"></polygon><line x1="248.2" y1="-230.6" x2="112.4" y2="-332.2" stroke="rgba(204, 204, 204, 1)" stroke-width="2"></line><polygon points="112.4,-332.2 121.7,-320.4 118.4,-327.7 126.3,-326.6" fill="rgba(204, 204, 204, 1)" stroke="rgba(204, 204, 204, 1)"></polygon><line x1="-280.6" y1="-175.9" x2="-114.2" y2="-816.3" stroke="rgba(204, 204, 204, 1)" stroke-width="2"></line><polygon points="-114.2,-816.3 -121.6,-803.3 -116.1,-809.0 -114.1,-801.3" fill="rgba(204, 204, 204, 1)" stroke="rgba(204, 204, 204, 1)"></polygon><line x1="319.7" y1="-304.1" x2="95.5" y2="-816.3" stroke="rgba(204, 204, 204, 1)" stroke-width="2"></line><polygon points="95.5,-816.3 97.8,-801.5 98.5,-809.4 104.9,-804.6" fill="rgba(204, 204, 204, 1)" stroke="rgba(204, 204, 204, 1)"></polygon><line x1="280.2" y1="-1021.8" x2="653.5" y2="-1135.7" stroke="rgba(204, 204, 204, 1)" stroke-width="2"></line><polygon points="653.5,-1135.7 638.5,-1135.1 646.3,-1133.5 640.7,-1127.7" fill="rgba(204, 204, 204, 1)" stroke="rgba(204, 204, 204, 1)"></polygon><line x1="-352.3" y1="-990.1" x2="-600.8" y2="-968.1" stroke="rgba(204, 204, 204, 1)" stroke-width="2"></line><polygon points="-600.8,-968.1 -586.0,-965.5 -593.3,-968.7 -586.7,-973.2" fill="rgba(204, 204, 204, 1)" stroke="rgba(204, 204, 204, 1)"></polygon><line x1="280.2" y1="-872.8" x2="655.3" y2="-819.2" stroke="rgba(204, 204, 204, 1)" stroke-width="2"></line><polygon points="655.3,-819.2 641.5,-825.1 647.9,-820.3 640.4,-817.5" fill="rgba(204, 204, 204, 1)" stroke="rgba(204, 204, 204, 1)"></polygon><line x1="933.3" y1="-808.7" x2="1120.0" y2="-821.3" stroke="rgba(204, 204, 204, 1)" stroke-width="2"></line><polygon points="1120.0,-821.3 1105.3,-824.2 1112.5,-820.8 1105.8,-816.5" fill="rgba(204, 204, 204, 1)" stroke="rgba(204, 204, 204, 1)"></polygon><line x1="217.1" y1="630.3" x2="-22.6" y2="599.3" stroke="rgba(204, 204, 204, 1)" stroke-width="2"></line><polygon points="-22.6,599.3 -8.7,605.0 -15.2,600.2 -7.7,597.3" fill="rgba(204, 204, 204, 1)" stroke="rgba(204, 204, 204, 1)"></polygon><line x1="438.8" y1="634.6" x2="283.1" y2="634.6" stroke="rgba(204, 204, 204, 1)" stroke-width="2"></line><polygon points="283.1,634.6 297.6,638.5 290.6,634.6 297.6,630.7" fill="rgba(204, 204, 204, 1)" stroke="rgba(204, 204, 204, 1)"></polygon><line x1="-167.5" y1="472.1" x2="9.1" y2="312.3" stroke="rgba(204, 204, 204, 1)" stroke-width="2"></line><polygon points="9.1,312.3 -4.2,319.1 3.6,317.3 1.0,324.9" fill="rgba(204, 204, 204, 1)" stroke="rgba(204, 204, 204, 1)"></polygon><line x1="230.8" y1="410.0" x2="101.4" y2="312.3" stroke="rgba(204, 204, 204, 1)" stroke-width="2"></line><polygon points="101.4,312.3 110.6,324.1 107.4,316.8 115.3,317.9" fill="rgba(204, 204, 204, 1)" stroke="rgba(204, 204, 204, 1)"></polygon><line x1="-43.6" y1="-1417.6" x2="-49.1" y2="-1639.4" stroke="rgba(204, 204, 204, 1)" stroke-width="2"></line><polygon points="-49.1,-1639.4 -52.7,-1624.8 -49.0,-1631.9 -44.9,-1625.0" fill="rgba(204, 204, 204, 1)" stroke="rgba(204, 204, 204, 1)"></polygon><line x1="-81.8" y1="-1337.6" x2="-403.9" y2="-1639.4" stroke="rgba(204, 204, 204, 1)" stroke-width="2"></line><polygon points="-403.9,-1639.4 -396.0,-1626.7 -398.4,-1634.3 -390.7,-1632.3" fill="rgba(204, 204, 204, 1)" stroke="rgba(204, 204, 204, 1)"></polygon><line x1="-131.2" y1="-1135.6" x2="-700.9" y2="-1311.6" stroke="rgba(204, 204, 204, 1)" stroke-width="2"></line><polygon points="-700.9,-1311.6 -688.2,-1303.6 -693.7,-1309.4 -685.9,-1311.1" fill="rgba(204, 204, 204, 1)" stroke="rgba(204, 204, 204, 1)"></polygon><line x1="-315.5" y1="-846.3" x2="-602.4" y2="-596.4" stroke="rgba(204, 204, 204, 1)" stroke-width="2"></line><polygon points="-602.4,-596.4 -588.9,-603.0 -596.7,-601.3 -594.0,-608.8" fill="rgba(204, 204, 204, 1)" stroke="rgba(204, 204, 204, 1)"></polygon><line x1="839.5" y1="-636.1" x2="1053.7" y2="-456.2" stroke="rgba(204, 204, 204, 1)" stroke-width="2"></line><polygon points="1053.7,-456.2 1045.1,-468.4 1047.9,-461.0 1040.1,-462.5" fill="rgba(204, 204, 204, 1)" stroke="rgba(204, 204, 204, 1)"></polygon><line x1="802.1" y1="-636.1" x2="839.2" y2="-456.2" stroke="rgba(204, 204, 204, 1)" stroke-width="2"></line><polygon points="839.2,-456.2 840.1,-471.1 837.7,-463.5 832.5,-469.6" fill="rgba(204, 204, 204, 1)" stroke="rgba(204, 204, 204, 1)"></polygon><line x1="-352.0" y1="-137.9" x2="-613.4" y2="-137.9" stroke="rgba(204, 204, 204, 1)" stroke-width="2"></line><polygon points="-613.4,-137.9 -598.9,-134.0 -605.9,-137.9 -598.9,-141.8" fill="rgba(204, 204, 204, 1)" stroke="rgba(204, 204, 204, 1)"></polygon><line x1="-229.0" y1="-135.9" x2="-118.4" y2="-132.3" stroke="rgba(204, 204, 204, 1)" stroke-width="2"></line><line x1="248.2" y1="-120.5" x2="137.6" y2="-124.1" stroke="rgba(204, 204, 204, 1)" stroke-width="2"></line><text x="9.603542081854357" y="-114.20612927348952" fill="rgba(204, 204, 204, 1)" font-size="32" text-anchor="middle" font-family="MiSans">数据与渲染相分离</text><polygon points="248.2,-120.5 233.8,-124.9 240.7,-120.7 233.6,-117.1" fill="rgba(204, 204, 204, 1)" stroke="rgba(204, 204, 204, 1)"></polygon><rect x="-1681.9" y="-194.8" width="452.8" height="411.2" rx="8" ry="8" fill="rgba(0, 0, 0, 0)" stroke="rgba(204, 204, 204, 1)" stroke-width="2"></rect><text x="-1667.9" y="-164.8" fill="rgba(204, 204, 204, 1)" font-size="32" text-anchor="start" font-family="MiSans">概念关系</text><rect x="248.2" y="-304.1" width="308.0" height="377.0" rx="8" ry="8" fill="rgba(0, 0, 0, 0)" stroke="rgba(204, 204, 204, 1)" stroke-width="2"></rect><text x="262.2" y="-274.1" fill="rgba(204, 204, 204, 1)" font-size="32" text-anchor="start" font-family="MiSans">渲染器</text><rect x="-382.3" y="-1417.6" width="692.6" height="601.3" rx="8" ry="8" fill="rgba(0, 0, 0, 0)" stroke="rgba(204, 204, 204, 1)" stroke-width="2"></rect><text x="-368.3" y="-1387.6" fill="rgba(204, 204, 204, 1)" font-size="32" text-anchor="start" font-family="MiSans">各种业务服务</text><rect x="1120.0" y="-1082.9" width="259.0" height="505.7" rx="8" ry="8" fill="rgba(0, 0, 0, 0)" stroke="rgba(204, 204, 204, 1)" stroke-width="2"></rect><text x="1134.0" y="-1052.9" fill="rgba(204, 204, 204, 1)" font-size="32" text-anchor="start" font-family="MiSans">高级交互控制</text><rect x="653.5" y="-1337.6" width="357.5" height="294.9" rx="8" ry="8" fill="rgba(0, 0, 0, 0)" stroke="rgba(204, 204, 204, 1)" stroke-width="2"></rect><text x="667.5" y="-1307.6" fill="rgba(204, 204, 204, 1)" font-size="32" text-anchor="start" font-family="MiSans">Section_1</text><rect x="-1139.5" y="-1158.2" width="538.8" height="428.1" rx="8" ry="8" fill="rgba(0, 0, 0, 0)" stroke="rgba(204, 204, 204, 1)" stroke-width="2"></rect><text x="-1125.5" y="-1128.2" fill="rgba(204, 204, 204, 1)" font-size="32" text-anchor="start" font-family="MiSans">Section_2</text><rect x="655.3" y="-992.6" width="278.0" height="386.5" rx="8" ry="8" fill="rgba(0, 0, 0, 0)" stroke="rgba(204, 204, 204, 1)" stroke-width="2"></rect><text x="669.3" y="-962.6" fill="rgba(204, 204, 204, 1)" font-size="32" text-anchor="start" font-family="MiSans">基础交互控制</text><rect x="-684.9" y="472.1" width="692.3" height="309.8" rx="8" ry="8" fill="rgba(0, 0, 0, 0)" stroke="rgba(204, 204, 204, 1)" stroke-width="2"></rect><text x="-670.9" y="502.1" fill="rgba(204, 204, 204, 1)" font-size="32" text-anchor="start" font-family="MiSans">算法</text><rect x="187.1" y="410.0" width="648.8" height="424.4" rx="8" ry="8" fill="rgba(0, 0, 0, 0)" stroke="rgba(204, 204, 204, 1)" stroke-width="2"></rect><text x="201.1" y="440.0" fill="rgba(204, 204, 204, 1)" font-size="32" text-anchor="start" font-family="MiSans">数据结构</text><rect x="-1169.5" y="-1533.7" width="468.6" height="299.4" rx="8" ry="8" fill="rgba(0, 0, 0, 0)" stroke="rgba(204, 204, 204, 1)" stroke-width="2"></rect><text x="-1155.5" y="-1503.7" fill="rgba(204, 204, 204, 1)" font-size="32" text-anchor="start" font-family="MiSans">Section_0</text><rect x="-823.4" y="-650.1" width="221.0" height="300.0" rx="8" ry="8" fill="rgba(0, 0, 0, 0)" stroke="rgba(204, 204, 204, 1)" stroke-width="2"></rect><text x="-809.4" y="-620.1" fill="rgba(204, 204, 204, 1)" font-size="32" text-anchor="start" font-family="MiSans">Section_3</text></svg>