<svg xmlns="http://www.w3.org/2000/svg" width="2385.68439764528" height="1710.8674439486606" viewBox="-1338.083229691768 -717.3884001089243 2385.68439764528 1710.8674439486606" style="background-color:rgba(31, 31, 31, 1)"><rect x="-256.1" y="-203.5" width="194.0" height="76.0" rx="8" ry="8" fill="rgba(0, 0, 0, 0)" stroke="rgba(204, 204, 204, 1)" stroke-width="2"></rect><text x="-242.1" y="-151.5" fill="rgba(255, 255, 255, 1)" font-size="32" text-anchor="start" font-family="MiSans">class Core</text><rect x="32.3" y="-500.0" width="237.0" height="76.0" rx="8" ry="8" fill="rgba(0, 0, 0, 0)" stroke="rgba(204, 204, 204, 1)" stroke-width="2"></rect><text x="46.3" y="-448.0" fill="rgba(255, 255, 255, 1)" font-size="32" text-anchor="start" font-family="MiSans">disposables[]</text><rect x="84.1" y="-332.1" width="196.0" height="76.0" rx="8" ry="8" fill="rgba(0, 0, 0, 0)" stroke="rgba(204, 204, 204, 1)" stroke-width="2"></rect><text x="98.1" y="-280.1" fill="rgba(255, 255, 255, 1)" font-size="32" text-anchor="start" font-family="MiSans">tickables[]</text><rect x="315.3" y="-503.5" width="359.0" height="76.0" rx="8" ry="8" fill="rgba(0, 0, 0, 0)" stroke="rgba(204, 204, 204, 1)" stroke-width="2"></rect><text x="329.3" y="-451.5" fill="rgba(255, 255, 255, 1)" font-size="32" text-anchor="start" font-family="MiSans">interface Disposable</text><rect x="352.3" y="-333.4" width="320.0" height="76.0" rx="8" ry="8" fill="rgba(0, 0, 0, 0)" stroke="rgba(204, 204, 204, 1)" stroke-width="2"></rect><text x="366.3" y="-281.4" fill="rgba(255, 255, 255, 1)" font-size="32" text-anchor="start" font-family="MiSans">interface Tickable</text><rect x="721.6" y="-495.4" width="260.0" height="76.0" rx="8" ry="8" fill="rgba(0, 0, 0, 0)" stroke="rgba(204, 204, 204, 1)" stroke-width="2"></rect><text x="735.6" y="-443.4" fill="rgba(255, 255, 255, 1)" font-size="32" text-anchor="start" font-family="MiSans">dispose(): void</text><rect x="719.5" y="-332.8" width="200.0" height="76.0" rx="8" ry="8" fill="rgba(0, 0, 0, 0)" stroke="rgba(204, 204, 204, 1)" stroke-width="2"></rect><text x="733.5" y="-280.8" fill="rgba(255, 255, 255, 1)" font-size="32" text-anchor="start" font-family="MiSans">tick(): void</text><rect x="51.6" y="-123.2" width="170.0" height="76.0" rx="8" ry="8" fill="rgba(0, 0, 0, 0)" stroke="rgba(204, 204, 204, 1)" stroke-width="2"></rect><text x="65.6" y="-71.2" fill="rgba(255, 255, 255, 1)" font-size="32" text-anchor="start" font-family="MiSans">plugins[]</text><rect x="347.4" y="-115.0" width="221.0" height="76.0" rx="8" ry="8" fill="rgba(0, 0, 0, 0)" stroke="rgba(204, 204, 204, 1)" stroke-width="2"></rect><text x="361.4" y="-63.0" fill="rgba(255, 255, 255, 1)" font-size="32" text-anchor="start" font-family="MiSans">class Plugin</text><rect x="660.0" y="-196.1" width="174.0" height="76.0" rx="8" ry="8" fill="rgba(0, 0, 0, 0)" stroke="rgba(204, 204, 204, 1)" stroke-width="2"></rect><text x="674.0" y="-144.1" fill="rgba(255, 255, 255, 1)" font-size="32" text-anchor="start" font-family="MiSans">id: string</text><rect x="652.6" y="-120.1" width="233.0" height="76.0" rx="8" ry="8" fill="rgba(0, 0, 0, 0)" stroke="rgba(204, 204, 204, 1)" stroke-width="2"></rect><text x="666.6" y="-68.1" fill="rgba(255, 255, 255, 1)" font-size="32" text-anchor="start" font-family="MiSans">name: string</text><rect x="652.6" y="-35.8" width="280.8" height="76.0" rx="8" ry="8" fill="rgba(0, 0, 0, 0)" stroke="rgba(204, 204, 204, 1)" stroke-width="2"></rect><text x="666.6" y="16.2" fill="rgba(255, 255, 255, 1)" font-size="32" text-anchor="start" font-family="MiSans">worker: Worker</text><rect x="-287.9" y="-687.4" width="115.0" height="76.0" rx="8" ry="8" fill="rgba(0, 0, 0, 0)" stroke="rgba(204, 204, 204, 1)" stroke-width="2"></rect><text x="-273.9" y="-635.4" fill="rgba(255, 255, 255, 1)" font-size="32" text-anchor="start" font-family="MiSans">stage</text><rect x="-418.8" y="-566.9" width="171.0" height="76.0" rx="8" ry="8" fill="rgba(0, 0, 0, 0)" stroke="rgba(204, 204, 204, 1)" stroke-width="2"></rect><text x="-404.8" y="-514.9" fill="rgba(255, 255, 255, 1)" font-size="32" text-anchor="start" font-family="MiSans">renderer</text><rect x="-520.5" y="-289.5" width="187.0" height="76.0" rx="8" ry="8" fill="rgba(0, 0, 0, 0)" stroke="rgba(204, 204, 204, 1)" stroke-width="2"></rect><text x="-506.5" y="-237.5" fill="rgba(255, 255, 255, 1)" font-size="32" text-anchor="start" font-family="MiSans">controller</text><rect x="-534.0" y="-137.9" width="148.0" height="76.0" rx="8" ry="8" fill="rgba(0, 0, 0, 0)" stroke="rgba(204, 204, 204, 1)" stroke-width="2"></rect><text x="-520.0" y="-85.9" fill="rgba(255, 255, 255, 1)" font-size="32" text-anchor="start" font-family="MiSans">camera</text><rect x="-515.9" y="16.8" width="156.0" height="76.0" rx="8" ry="8" fill="rgba(0, 0, 0, 0)" stroke="rgba(204, 204, 204, 1)" stroke-width="2"></rect><text x="-501.9" y="68.8" fill="rgba(255, 255, 255, 1)" font-size="32" text-anchor="start" font-family="MiSans">settings</text><rect x="-710.5" y="-566.4" width="269.0" height="76.0" rx="8" ry="8" fill="rgba(0, 0, 0, 0)" stroke="rgba(204, 204, 204, 1)" stroke-width="2"></rect><text x="-696.5" y="-514.4" fill="rgba(255, 255, 255, 1)" font-size="32" text-anchor="start" font-family="MiSans">class Renderer</text><rect x="-1270.8" y="-567.2" width="557.0" height="76.0" rx="8" ry="8" fill="rgba(0, 0, 0, 0)" stroke="rgba(204, 204, 204, 1)" stroke-width="2"></rect><text x="-1256.8" y="-515.2" fill="rgba(255, 255, 255, 1)" font-size="32" text-anchor="start" font-family="MiSans">ctx: CanvasRenderingContext2D</text><rect x="-843.5" y="-290.1" width="282.0" height="76.0" rx="8" ry="8" fill="rgba(0, 0, 0, 0)" stroke="rgba(204, 204, 204, 1)" stroke-width="2"></rect><text x="-829.5" y="-238.1" fill="rgba(255, 255, 255, 1)" font-size="32" text-anchor="start" font-family="MiSans">class Controller</text><rect x="-1254.3" y="-450.4" width="297.0" height="76.0" rx="8" ry="8" fill="rgba(0, 0, 0, 0)" stroke="rgba(204, 204, 204, 1)" stroke-width="2"></rect><text x="-1240.3" y="-398.4" fill="rgba(255, 255, 255, 1)" font-size="32" text-anchor="start" font-family="MiSans">register(...): void</text><rect x="-1308.1" y="-287.9" width="398.1" height="76.0" rx="8" ry="8" fill="rgba(0, 0, 0, 0)" stroke="rgba(204, 204, 204, 1)" stroke-width="2"></rect><text x="-1294.1" y="-235.9" fill="rgba(255, 255, 255, 1)" font-size="32" text-anchor="start" font-family="MiSans">mouseLocation: Vector</text><rect x="-879.5" y="-133.7" width="243.0" height="76.0" rx="8" ry="8" fill="rgba(0, 0, 0, 0)" stroke="rgba(204, 204, 204, 1)" stroke-width="2"></rect><text x="-865.5" y="-81.7" fill="rgba(255, 255, 255, 1)" font-size="32" text-anchor="start" font-family="MiSans">class Camera</text><rect x="-1039.0" y="-134.6" width="58.0" height="76.0" rx="8" ry="8" fill="rgba(0, 0, 0, 0)" stroke="rgba(204, 204, 204, 1)" stroke-width="2"></rect><text x="-1025.0" y="-82.6" fill="rgba(255, 255, 255, 1)" font-size="32" text-anchor="start" font-family="MiSans">...</text><rect x="-577.9" y="-690.0" width="210.0" height="76.0" rx="8" ry="8" fill="rgba(0, 0, 0, 0)" stroke="rgba(204, 204, 204, 1)" stroke-width="2"></rect><text x="-563.9" y="-638.0" fill="rgba(255, 255, 255, 1)" font-size="32" text-anchor="start" font-family="MiSans">class Stage</text><rect x="-701.6" y="-688.6" width="58.0" height="76.0" rx="8" ry="8" fill="rgba(0, 0, 0, 0)" stroke="rgba(204, 204, 204, 1)" stroke-width="2"></rect><text x="-687.6" y="-636.6" fill="rgba(255, 255, 255, 1)" font-size="32" text-anchor="start" font-family="MiSans">...</text><rect x="-930.2" y="23.9" width="353.0" height="76.0" rx="8" ry="8" fill="rgba(0, 0, 0, 0)" stroke="rgba(204, 204, 204, 1)" stroke-width="2"></rect><text x="-916.2" y="75.9" fill="rgba(255, 255, 255, 1)" font-size="32" text-anchor="start" font-family="MiSans">async get&lt;T&gt;(...): T</text><rect x="-873.9" y="141.4" width="320.0" height="76.0" rx="8" ry="8" fill="rgba(0, 0, 0, 0)" stroke="rgba(204, 204, 204, 1)" stroke-width="2"></rect><text x="-859.9" y="193.4" fill="rgba(255, 255, 255, 1)" font-size="32" text-anchor="start" font-family="MiSans">async set(...): void</text><rect x="-542.4" y="497.9" width="192.0" height="76.0" rx="8" ry="8" fill="rgba(22, 163, 74, 1)" stroke="rgba(204, 204, 204, 1)" stroke-width="2"></rect><text x="-528.4" y="549.9" fill="rgba(255, 255, 255, 1)" font-size="32" text-anchor="start" font-family="MiSans">project.pg</text><rect x="-225.6" y="282.9" width="146.0" height="76.0" rx="8" ry="8" fill="rgba(0, 0, 0, 0)" stroke="rgba(204, 204, 204, 1)" stroke-width="2"></rect><text x="-211.6" y="334.9" fill="rgba(255, 255, 255, 1)" font-size="32" text-anchor="start" font-family="MiSans">version</text><rect x="-243.4" y="472.2" width="225.0" height="76.0" rx="8" ry="8" fill="rgba(0, 0, 0, 0)" stroke="rgba(204, 204, 204, 1)" stroke-width="2"></rect><text x="-229.4" y="524.2" fill="rgba(255, 255, 255, 1)" font-size="32" text-anchor="start" font-family="MiSans">entities.json</text><rect x="-476.9" y="816.1" width="138.0" height="76.0" rx="8" ry="8" fill="rgba(0, 0, 0, 0)" stroke="rgba(204, 204, 204, 1)" stroke-width="2"></rect><text x="-462.9" y="868.1" fill="rgba(255, 255, 255, 1)" font-size="32" text-anchor="start" font-family="MiSans">assets/</text><rect x="-279.4" y="759.8" width="124.0" height="76.0" rx="8" ry="8" fill="rgba(0, 0, 0, 0)" stroke="rgba(204, 204, 204, 1)" stroke-width="2"></rect><text x="-265.4" y="811.8" fill="rgba(255, 255, 255, 1)" font-size="32" text-anchor="start" font-family="MiSans">[uuid]</text><rect x="-277.8" y="887.5" width="124.0" height="76.0" rx="8" ry="8" fill="rgba(0, 0, 0, 0)" stroke="rgba(204, 204, 204, 1)" stroke-width="2"></rect><text x="-263.8" y="939.5" fill="rgba(255, 255, 255, 1)" font-size="32" text-anchor="start" font-family="MiSans">[uuid]</text><rect x="26.5" y="306.8" width="142.0" height="76.0" rx="8" ry="8" fill="rgba(168, 85, 247, 1)" stroke="rgba(204, 204, 204, 1)" stroke-width="2"></rect><text x="40.5" y="358.8" fill="rgba(255, 255, 255, 1)" font-size="32" text-anchor="start" font-family="MiSans">文档的版本号</text><rect x="-187.4" y="611.1" width="288.0" height="76.0" rx="8" ry="8" fill="rgba(168, 85, 247, 1)" stroke="rgba(204, 204, 204, 1)" stroke-width="2"></rect><text x="-173.4" y="663.1" fill="rgba(255, 255, 255, 1)" font-size="32" text-anchor="start" font-family="MiSans">JSON数组，存储所有节点</text><rect x="352.4" y="346.9" width="62.0" height="76.0" rx="8" ry="8" fill="rgba(0, 0, 0, 0)" stroke="rgba(204, 204, 204, 1)" stroke-width="2"></rect><text x="366.4" y="398.9" fill="rgba(255, 255, 255, 1)" font-size="32" text-anchor="start" font-family="MiSans">[ ]</text><rect x="426.3" y="469.3" width="78.0" height="76.0" rx="8" ry="8" fill="rgba(0, 0, 0, 0)" stroke="rgba(204, 204, 204, 1)" stroke-width="2"></rect><text x="440.3" y="521.3" fill="rgba(255, 255, 255, 1)" font-size="32" text-anchor="start" font-family="MiSans">{ }</text><rect x="567.4" y="592.8" width="98.0" height="76.0" rx="8" ry="8" fill="rgba(0, 0, 0, 0)" stroke="rgba(204, 204, 204, 1)" stroke-width="2"></rect><text x="581.4" y="644.8" fill="rgba(255, 255, 255, 1)" font-size="32" text-anchor="start" font-family="MiSans">type</text><rect x="719.6" y="617.0" width="268.0" height="76.0" rx="8" ry="8" fill="rgba(0, 0, 0, 0)" stroke="rgba(204, 204, 204, 1)" stroke-width="2"></rect><text x="733.6" y="669.0" fill="rgba(255, 255, 255, 1)" font-size="32" text-anchor="start" font-family="MiSans">core:text_node</text><rect x="417.5" y="645.1" width="119.0" height="76.0" rx="8" ry="8" fill="rgba(0, 0, 0, 0)" stroke="rgba(204, 204, 204, 1)" stroke-width="2"></rect><text x="431.5" y="697.1" fill="rgba(255, 255, 255, 1)" font-size="32" text-anchor="start" font-family="MiSans">width</text><rect x="419.7" y="743.2" width="132.0" height="76.0" rx="8" ry="8" fill="rgba(0, 0, 0, 0)" stroke="rgba(204, 204, 204, 1)" stroke-width="2"></rect><text x="433.7" y="795.2" fill="rgba(255, 255, 255, 1)" font-size="32" text-anchor="start" font-family="MiSans">height</text><rect x="343.6" y="652.8" width="46.0" height="76.0" rx="8" ry="8" fill="rgba(0, 0, 0, 0)" stroke="rgba(204, 204, 204, 1)" stroke-width="2"></rect><text x="357.6" y="704.8" fill="rgba(255, 255, 255, 1)" font-size="32" text-anchor="start" font-family="MiSans">x</text><rect x="348.0" y="737.7" width="46.0" height="76.0" rx="8" ry="8" fill="rgba(0, 0, 0, 0)" stroke="rgba(204, 204, 204, 1)" stroke-width="2"></rect><text x="362.0" y="789.7" fill="rgba(255, 255, 255, 1)" font-size="32" text-anchor="start" font-family="MiSans">y</text><rect x="556.4" y="392.0" width="159.0" height="76.0" rx="8" ry="8" fill="rgba(0, 0, 0, 0)" stroke="rgba(204, 204, 204, 1)" stroke-width="2"></rect><text x="570.4" y="444.0" fill="rgba(255, 255, 255, 1)" font-size="32" text-anchor="start" font-family="MiSans">data { }</text><rect x="756.0" y="403.0" width="91.0" height="76.0" rx="8" ry="8" fill="rgba(0, 0, 0, 0)" stroke="rgba(204, 204, 204, 1)" stroke-width="2"></rect><text x="770.0" y="455.0" fill="rgba(255, 255, 255, 1)" font-size="32" text-anchor="start" font-family="MiSans">text</text><rect x="699.8" y="502.3" width="58.0" height="76.0" rx="8" ry="8" fill="rgba(0, 0, 0, 0)" stroke="rgba(204, 204, 204, 1)" stroke-width="2"></rect><text x="713.8" y="554.3" fill="rgba(255, 255, 255, 1)" font-size="32" text-anchor="start" font-family="MiSans">...</text><rect x="-43.5" y="882.5" width="279.0" height="76.0" rx="8" ry="8" fill="rgba(168, 85, 247, 1)" stroke="rgba(204, 204, 204, 1)" stroke-width="2"></rect><text x="-29.5" y="934.5" fill="rgba(255, 255, 255, 1)" font-size="32" text-anchor="start" font-family="MiSans">文档中的图片（raw格式）</text><line x1="-119.4" y1="-203.5" x2="111.1" y2="-424.0" stroke="rgba(204, 204, 204, 1)" stroke-width="2"></line><polygon points="111.1,-424.0 98.0,-416.8 105.7,-418.8 103.3,-411.2" fill="rgba(204, 204, 204, 1)" stroke="rgba(204, 204, 204, 1)"></polygon><line x1="-62.1" y1="-202.1" x2="84.1" y2="-257.2" stroke="rgba(204, 204, 204, 1)" stroke-width="2"></line><polygon points="84.1,-257.2 69.1,-255.7 77.0,-254.5 71.9,-248.4" fill="rgba(204, 204, 204, 1)" stroke="rgba(204, 204, 204, 1)"></polygon><line x1="674.3" y1="-461.4" x2="721.6" y2="-460.4" stroke="rgba(204, 204, 204, 1)" stroke-width="2"></line><polygon points="721.6,-460.4 707.2,-464.6 714.1,-460.5 707.0,-456.8" fill="rgba(204, 204, 204, 1)" stroke="rgba(204, 204, 204, 1)"></polygon><line x1="672.3" y1="-295.1" x2="719.5" y2="-295.0" stroke="rgba(204, 204, 204, 1)" stroke-width="2"></line><polygon points="719.5,-295.0 705.0,-298.9 712.0,-295.0 705.0,-291.1" fill="rgba(204, 204, 204, 1)" stroke="rgba(204, 204, 204, 1)"></polygon><line x1="269.3" y1="-463.2" x2="315.3" y2="-463.6" stroke="rgba(204, 204, 204, 1)" stroke-width="2"></line><polygon points="315.3,-463.6 300.7,-467.4 307.8,-463.6 300.8,-459.6" fill="rgba(204, 204, 204, 1)" stroke="rgba(204, 204, 204, 1)"></polygon><line x1="280.1" y1="-294.5" x2="352.3" y2="-294.8" stroke="rgba(204, 204, 204, 1)" stroke-width="2"></line><polygon points="352.3,-294.8 337.8,-298.6 344.8,-294.7 337.8,-290.8" fill="rgba(204, 204, 204, 1)" stroke="rgba(204, 204, 204, 1)"></polygon><line x1="221.6" y1="-83.0" x2="347.4" y2="-79.8" stroke="rgba(204, 204, 204, 1)" stroke-width="2"></line><polygon points="347.4,-79.8 333.1,-84.1 339.9,-80.0 332.9,-76.3" fill="rgba(204, 204, 204, 1)" stroke="rgba(204, 204, 204, 1)"></polygon><line x1="568.4" y1="-108.0" x2="660.0" y2="-133.7" stroke="rgba(204, 204, 204, 1)" stroke-width="2"></line><polygon points="660.0,-133.7 645.0,-133.5 652.8,-131.7 647.1,-126.0" fill="rgba(204, 204, 204, 1)" stroke="rgba(204, 204, 204, 1)"></polygon><line x1="568.4" y1="-78.8" x2="652.6" y2="-80.2" stroke="rgba(204, 204, 204, 1)" stroke-width="2"></line><polygon points="652.6,-80.2 638.0,-83.8 645.1,-80.1 638.2,-76.1" fill="rgba(204, 204, 204, 1)" stroke="rgba(204, 204, 204, 1)"></polygon><line x1="568.4" y1="-50.9" x2="652.6" y2="-31.0" stroke="rgba(204, 204, 204, 1)" stroke-width="2"></line><polygon points="652.6,-31.0 639.4,-38.1 645.3,-32.7 637.6,-30.5" fill="rgba(204, 204, 204, 1)" stroke="rgba(204, 204, 204, 1)"></polygon><line x1="-164.7" y1="-203.5" x2="-224.8" y2="-611.4" stroke="rgba(204, 204, 204, 1)" stroke-width="2"></line><polygon points="-224.8,-611.4 -226.6,-596.5 -223.7,-604.0 -218.9,-597.6" fill="rgba(204, 204, 204, 1)" stroke="rgba(204, 204, 204, 1)"></polygon><line x1="-177.3" y1="-203.5" x2="-315.1" y2="-490.9" stroke="rgba(204, 204, 204, 1)" stroke-width="2"></line><polygon points="-315.1,-490.9 -312.3,-476.2 -311.8,-484.2 -305.3,-479.5" fill="rgba(204, 204, 204, 1)" stroke="rgba(204, 204, 204, 1)"></polygon><line x1="-710.5" y1="-528.7" x2="-713.8" y2="-528.7" stroke="rgba(204, 204, 204, 1)" stroke-width="2"></line><polygon points="-713.8,-528.7 -699.4,-524.8 -706.3,-528.7 -699.3,-532.5" fill="rgba(204, 204, 204, 1)" stroke="rgba(204, 204, 204, 1)"></polygon><line x1="-256.1" y1="-196.6" x2="-333.5" y2="-221.5" stroke="rgba(204, 204, 204, 1)" stroke-width="2"></line><polygon points="-333.5,-221.5 -320.9,-213.4 -326.4,-219.2 -318.6,-220.7" fill="rgba(204, 204, 204, 1)" stroke="rgba(204, 204, 204, 1)"></polygon><line x1="-256.1" y1="-144.4" x2="-386.0" y2="-116.1" stroke="rgba(204, 204, 204, 1)" stroke-width="2"></line><polygon points="-386.0,-116.1 -371.1,-115.3 -378.7,-117.7 -372.7,-122.9" fill="rgba(204, 204, 204, 1)" stroke="rgba(204, 204, 204, 1)"></polygon><line x1="-207.2" y1="-127.5" x2="-389.9" y2="16.8" stroke="rgba(204, 204, 204, 1)" stroke-width="2"></line><polygon points="-389.9,16.8 -376.1,10.9 -384.0,12.2 -380.9,4.8" fill="rgba(204, 204, 204, 1)" stroke="rgba(204, 204, 204, 1)"></polygon><line x1="-520.5" y1="-251.7" x2="-561.5" y2="-251.8" stroke="rgba(204, 204, 204, 1)" stroke-width="2"></line><polygon points="-561.5,-251.8 -547.0,-247.9 -554.0,-251.8 -547.0,-255.6" fill="rgba(204, 204, 204, 1)" stroke="rgba(204, 204, 204, 1)"></polygon><line x1="-843.5" y1="-251.3" x2="-910.0" y2="-251.0" stroke="rgba(204, 204, 204, 1)" stroke-width="2"></line><polygon points="-910.0,-251.0 -895.5,-247.2 -902.5,-251.0 -895.6,-254.9" fill="rgba(204, 204, 204, 1)" stroke="rgba(204, 204, 204, 1)"></polygon><line x1="-534.0" y1="-98.9" x2="-636.5" y2="-97.5" stroke="rgba(204, 204, 204, 1)" stroke-width="2"></line><polygon points="-636.5,-97.5 -622.0,-93.8 -629.0,-97.6 -622.1,-101.5" fill="rgba(204, 204, 204, 1)" stroke="rgba(204, 204, 204, 1)"></polygon><line x1="-879.5" y1="-96.2" x2="-981.0" y2="-96.5" stroke="rgba(204, 204, 204, 1)" stroke-width="2"></line><polygon points="-981.0,-96.5 -966.5,-92.6 -973.5,-96.5 -966.5,-100.4" fill="rgba(204, 204, 204, 1)" stroke="rgba(204, 204, 204, 1)"></polygon><line x1="-577.9" y1="-651.2" x2="-643.6" y2="-650.8" stroke="rgba(204, 204, 204, 1)" stroke-width="2"></line><polygon points="-643.6,-650.8 -629.1,-647.0 -636.1,-650.8 -629.2,-654.8" fill="rgba(204, 204, 204, 1)" stroke="rgba(204, 204, 204, 1)"></polygon><line x1="-515.9" y1="56.6" x2="-577.2" y2="58.0" stroke="rgba(204, 204, 204, 1)" stroke-width="2"></line><polygon points="-577.2,58.0 -562.6,61.5 -569.7,57.8 -562.8,53.7" fill="rgba(204, 204, 204, 1)" stroke="rgba(204, 204, 204, 1)"></polygon><line x1="-515.9" y1="90.1" x2="-629.7" y2="141.4" stroke="rgba(204, 204, 204, 1)" stroke-width="2"></line><polygon points="-629.7,141.4 -614.9,139.0 -622.9,138.4 -618.1,131.9" fill="rgba(204, 204, 204, 1)" stroke="rgba(204, 204, 204, 1)"></polygon><line x1="-394.4" y1="497.9" x2="-204.5" y2="358.9" stroke="rgba(204, 204, 204, 1)" stroke-width="2"></line><polygon points="-204.5,358.9 -218.5,364.3 -210.6,363.3 -213.9,370.6" fill="rgba(204, 204, 204, 1)" stroke="rgba(204, 204, 204, 1)"></polygon><line x1="-350.4" y1="528.0" x2="-243.4" y2="519.3" stroke="rgba(204, 204, 204, 1)" stroke-width="2"></line><polygon points="-243.4,519.3 -258.2,516.7 -250.9,520.0 -257.5,524.4" fill="rgba(204, 204, 204, 1)" stroke="rgba(204, 204, 204, 1)"></polygon><line x1="-441.8" y1="573.9" x2="-412.5" y2="816.1" stroke="rgba(204, 204, 204, 1)" stroke-width="2"></line><polygon points="-412.5,816.1 -410.4,801.2 -413.4,808.6 -418.1,802.1" fill="rgba(204, 204, 204, 1)" stroke="rgba(204, 204, 204, 1)"></polygon><line x1="-338.9" y1="833.7" x2="-279.4" y2="816.1" stroke="rgba(204, 204, 204, 1)" stroke-width="2"></line><polygon points="-279.4,816.1 -294.4,816.5 -286.6,818.2 -292.2,823.9" fill="rgba(204, 204, 204, 1)" stroke="rgba(204, 204, 204, 1)"></polygon><line x1="-338.9" y1="879.7" x2="-277.8" y2="902.4" stroke="rgba(204, 204, 204, 1)" stroke-width="2"></line><polygon points="-277.8,902.4 -290.0,893.7 -284.8,899.8 -292.7,901.0" fill="rgba(204, 204, 204, 1)" stroke="rgba(204, 204, 204, 1)"></polygon><line x1="-418.8" y1="-528.7" x2="-441.5" y2="-528.7" stroke="rgba(204, 204, 204, 1)" stroke-width="2"></line><polygon points="-441.5,-528.7 -427.0,-524.8 -434.0,-528.7 -427.0,-532.6" fill="rgba(204, 204, 204, 1)" stroke="rgba(204, 204, 204, 1)"></polygon><line x1="-287.9" y1="-650.0" x2="-367.9" y2="-650.8" stroke="rgba(204, 204, 204, 1)" stroke-width="2"></line><polygon points="-367.9,-650.8 -353.5,-646.8 -360.4,-650.8 -353.4,-654.6" fill="rgba(204, 204, 204, 1)" stroke="rgba(204, 204, 204, 1)"></polygon><line x1="-62.1" y1="-139.2" x2="51.6" y2="-108.3" stroke="rgba(204, 204, 204, 1)" stroke-width="2"></line><polygon points="51.6,-108.3 38.6,-115.8 44.3,-110.3 36.6,-108.3" fill="rgba(204, 204, 204, 1)" stroke="rgba(204, 204, 204, 1)"></polygon><line x1="26.5" y1="338.0" x2="-79.6" y2="327.9" stroke="rgba(204, 204, 204, 1)" stroke-width="2"></line><polygon points="-79.6,327.9 -65.5,333.1 -72.1,328.6 -64.8,325.4" fill="rgba(204, 204, 204, 1)" stroke="rgba(204, 204, 204, 1)"></polygon><line x1="-67.4" y1="611.1" x2="-107.0" y2="548.2" stroke="rgba(204, 204, 204, 1)" stroke-width="2"></line><polygon points="-107.0,548.2 -102.5,562.5 -103.0,554.5 -96.0,558.4" fill="rgba(204, 204, 204, 1)" stroke="rgba(204, 204, 204, 1)"></polygon><line x1="-18.4" y1="482.8" x2="352.4" y2="392.4" stroke="rgba(204, 204, 204, 1)" stroke-width="2"></line><polygon points="352.4,392.4 337.4,392.1 345.1,394.2 339.3,399.6" fill="rgba(204, 204, 204, 1)" stroke="rgba(204, 204, 204, 1)"></polygon><line x1="408.8" y1="422.9" x2="439.9" y2="469.3" stroke="rgba(204, 204, 204, 1)" stroke-width="2"></line><polygon points="439.9,469.3 435.0,455.1 435.7,463.0 428.6,459.4" fill="rgba(204, 204, 204, 1)" stroke="rgba(204, 204, 204, 1)"></polygon><line x1="504.3" y1="539.1" x2="569.9" y2="592.8" stroke="rgba(204, 204, 204, 1)" stroke-width="2"></line><polygon points="569.9,592.8 561.2,580.6 564.1,588.0 556.3,586.6" fill="rgba(204, 204, 204, 1)" stroke="rgba(204, 204, 204, 1)"></polygon><line x1="665.4" y1="635.8" x2="719.6" y2="641.3" stroke="rgba(204, 204, 204, 1)" stroke-width="2"></line><polygon points="719.6,641.3 705.6,636.0 712.1,640.6 704.8,643.7" fill="rgba(204, 204, 204, 1)" stroke="rgba(204, 204, 204, 1)"></polygon><line x1="444.9" y1="545.3" x2="387.0" y2="652.8" stroke="rgba(204, 204, 204, 1)" stroke-width="2"></line><polygon points="387.0,652.8 397.3,641.9 390.6,646.2 390.5,638.2" fill="rgba(204, 204, 204, 1)" stroke="rgba(204, 204, 204, 1)"></polygon><line x1="467.8" y1="545.3" x2="474.4" y2="645.1" stroke="rgba(204, 204, 204, 1)" stroke-width="2"></line><polygon points="474.4,645.1 477.4,630.4 474.0,637.6 469.6,630.9" fill="rgba(204, 204, 204, 1)" stroke="rgba(204, 204, 204, 1)"></polygon><line x1="451.9" y1="545.3" x2="384.4" y2="737.7" stroke="rgba(204, 204, 204, 1)" stroke-width="2"></line><polygon points="384.4,737.7 392.8,725.3 386.8,730.6 385.5,722.8" fill="rgba(204, 204, 204, 1)" stroke="rgba(204, 204, 204, 1)"></polygon><line x1="468.1" y1="545.3" x2="482.9" y2="743.2" stroke="rgba(204, 204, 204, 1)" stroke-width="2"></line><polygon points="482.9,743.2 485.6,728.5 482.3,735.8 477.9,729.1" fill="rgba(204, 204, 204, 1)" stroke="rgba(204, 204, 204, 1)"></polygon><line x1="504.3" y1="489.6" x2="556.4" y2="466.0" stroke="rgba(204, 204, 204, 1)" stroke-width="2"></line><polygon points="556.4,466.0 541.6,468.5 549.6,469.1 544.8,475.5" fill="rgba(204, 204, 204, 1)" stroke="rgba(204, 204, 204, 1)"></polygon><line x1="715.4" y1="435.3" x2="756.0" y2="438.0" stroke="rgba(204, 204, 204, 1)" stroke-width="2"></line><polygon points="756.0,438.0 741.8,433.2 748.5,437.5 741.3,440.9" fill="rgba(204, 204, 204, 1)" stroke="rgba(204, 204, 204, 1)"></polygon><line x1="667.9" y1="468.0" x2="699.8" y2="505.8" stroke="rgba(204, 204, 204, 1)" stroke-width="2"></line><polygon points="699.8,505.8 693.4,492.3 694.9,500.1 687.5,497.3" fill="rgba(204, 204, 204, 1)" stroke="rgba(204, 204, 204, 1)"></polygon><line x1="-43.5" y1="922.7" x2="-153.8" y2="924.5" stroke="rgba(204, 204, 204, 1)" stroke-width="2"></line><polygon points="-153.8,924.5 -139.2,928.1 -146.3,924.4 -139.3,920.4" fill="rgba(204, 204, 204, 1)" stroke="rgba(204, 204, 204, 1)"></polygon><line x1="-1.1" y1="882.5" x2="-155.4" y2="822.1" stroke="rgba(204, 204, 204, 1)" stroke-width="2"></line><polygon points="-155.4,822.1 -143.3,831.0 -148.4,824.8 -140.5,823.7" fill="rgba(204, 204, 204, 1)" stroke="rgba(204, 204, 204, 1)"></polygon><rect x="313.6" y="266.9" width="704.0" height="582.3" rx="8" ry="8" fill="rgba(0, 0, 0, 0)" stroke="rgba(204, 204, 204, 1)" stroke-width="2"></rect><text x="327.6" y="296.9" fill="rgba(204, 204, 204, 1)" font-size="32" text-anchor="start" font-family="MiSans">JSON</text></svg>