<svg xmlns="http://www.w3.org/2000/svg" width="2385.68439764528" height="1710.8674439486606" viewBox="-1338.083229691768 -717.3884001089243 2385.68439764528 1710.8674439486606" style="background-color:rgba(31, 31, 31, 1)"><rect x="-256.1220179706863" y="-203.4930308266472" width="194" height="76" rx="8" ry="8" fill="rgba(0, 0, 0, 0)" stroke="rgba(204, 204, 204, 1)" stroke-width="2"></rect><text x="-159.12201797068627" y="-151.4930308266472" fill="rgba(255, 255, 255, 1)" font-size="32" text-anchor="middle" font-family="MiSans">class Core</text><rect x="32.337387439067726" y="-499.9915202968595" width="237" height="76" rx="8" ry="8" fill="rgba(0, 0, 0, 0)" stroke="rgba(204, 204, 204, 1)" stroke-width="2"></rect><text x="150.83738743906773" y="-447.9915202968595" fill="rgba(255, 255, 255, 1)" font-size="32" text-anchor="middle" font-family="MiSans">disposables[]</text><rect x="84.0674279156373" y="-332.0916759905181" width="196" height="76" rx="8" ry="8" fill="rgba(0, 0, 0, 0)" stroke="rgba(204, 204, 204, 1)" stroke-width="2"></rect><text x="182.0674279156373" y="-280.0916759905181" fill="rgba(255, 255, 255, 1)" font-size="32" text-anchor="middle" font-family="MiSans">tickables[]</text><rect x="315.27693918459147" y="-503.45317471410857" width="359" height="76" rx="8" ry="8" fill="rgba(0, 0, 0, 0)" stroke="rgba(204, 204, 204, 1)" stroke-width="2"></rect><text x="494.77693918459147" y="-451.45317471410857" fill="rgba(255, 255, 255, 1)" font-size="32" text-anchor="middle" font-family="MiSans">interface Disposable</text><rect x="352.2675228350651" y="-333.40272159098134" width="320" height="76" rx="8" ry="8" fill="rgba(0, 0, 0, 0)" stroke="rgba(204, 204, 204, 1)" stroke-width="2"></rect><text x="512.2675228350652" y="-281.40272159098134" fill="rgba(255, 255, 255, 1)" font-size="32" text-anchor="middle" font-family="MiSans">interface Tickable</text><rect x="721.5713222002887" y="-495.44930353492913" width="260" height="76" rx="8" ry="8" fill="rgba(0, 0, 0, 0)" stroke="rgba(204, 204, 204, 1)" stroke-width="2"></rect><text x="851.5713222002887" y="-443.44930353492913" fill="rgba(255, 255, 255, 1)" font-size="32" text-anchor="middle" font-family="MiSans">dispose(): void</text><rect x="719.5181965460256" y="-332.7968621221624" width="200" height="76" rx="8" ry="8" fill="rgba(0, 0, 0, 0)" stroke="rgba(204, 204, 204, 1)" stroke-width="2"></rect><text x="819.5181965460256" y="-280.7968621221624" fill="rgba(255, 255, 255, 1)" font-size="32" text-anchor="middle" font-family="MiSans">tick(): void</text><rect x="51.55295431005845" y="-123.21787599481758" width="170" height="76" rx="8" ry="8" fill="rgba(0, 0, 0, 0)" stroke="rgba(204, 204, 204, 1)" stroke-width="2"></rect><text x="136.55295431005845" y="-71.21787599481758" fill="rgba(255, 255, 255, 1)" font-size="32" text-anchor="middle" font-family="MiSans">plugins[]</text><rect x="347.44149083589423" y="-114.98549273157457" width="221" height="76" rx="8" ry="8" fill="rgba(0, 0, 0, 0)" stroke="rgba(204, 204, 204, 1)" stroke-width="2"></rect><text x="457.94149083589423" y="-62.98549273157457" fill="rgba(255, 255, 255, 1)" font-size="32" text-anchor="middle" font-family="MiSans">class Plugin</text><rect x="659.991399530592" y="-196.10908144111042" width="174" height="76" rx="8" ry="8" fill="rgba(0, 0, 0, 0)" stroke="rgba(204, 204, 204, 1)" stroke-width="2"></rect><text x="746.991399530592" y="-144.10908144111042" fill="rgba(255, 255, 255, 1)" font-size="32" text-anchor="middle" font-family="MiSans">id: string</text><rect x="652.5998156571404" y="-120.09274502983807" width="233" height="76" rx="8" ry="8" fill="rgba(0, 0, 0, 0)" stroke="rgba(204, 204, 204, 1)" stroke-width="2"></rect><text x="769.0998156571404" y="-68.09274502983807" fill="rgba(255, 255, 255, 1)" font-size="32" text-anchor="middle" font-family="MiSans">name: string</text><rect x="652.5998156571404" y="-35.82308210848976" width="280.828125" height="76" rx="8" ry="8" fill="rgba(0, 0, 0, 0)" stroke="rgba(204, 204, 204, 1)" stroke-width="2"></rect><text x="793.0138781571404" y="16.176917891510243" fill="rgba(255, 255, 255, 1)" font-size="32" text-anchor="middle" font-family="MiSans">worker: Worker</text><rect x="-287.922499749185" y="-687.3884001089243" width="115" height="76" rx="8" ry="8" fill="rgba(0, 0, 0, 0)" stroke="rgba(204, 204, 204, 1)" stroke-width="2"></rect><text x="-230.42249974918502" y="-635.3884001089243" fill="rgba(255, 255, 255, 1)" font-size="32" text-anchor="middle" font-family="MiSans">stage</text><rect x="-418.77396151357266" y="-566.9199649166181" width="171" height="76" rx="8" ry="8" fill="rgba(0, 0, 0, 0)" stroke="rgba(204, 204, 204, 1)" stroke-width="2"></rect><text x="-333.27396151357266" y="-514.9199649166181" fill="rgba(255, 255, 255, 1)" font-size="32" text-anchor="middle" font-family="MiSans">renderer</text><rect x="-520.5465430669503" y="-289.4833036706898" width="187" height="76" rx="8" ry="8" fill="rgba(0, 0, 0, 0)" stroke="rgba(204, 204, 204, 1)" stroke-width="2"></rect><text x="-427.04654306695033" y="-237.4833036706898" fill="rgba(255, 255, 255, 1)" font-size="32" text-anchor="middle" font-family="MiSans">controller</text><rect x="-534.0462848352149" y="-137.9368123434751" width="148" height="76" rx="8" ry="8" fill="rgba(0, 0, 0, 0)" stroke="rgba(204, 204, 204, 1)" stroke-width="2"></rect><text x="-460.0462848352149" y="-85.93681234347511" fill="rgba(255, 255, 255, 1)" font-size="32" text-anchor="middle" font-family="MiSans">camera</text><rect x="-515.9386028696049" y="16.838875713466734" width="156" height="76" rx="8" ry="8" fill="rgba(0, 0, 0, 0)" stroke="rgba(204, 204, 204, 1)" stroke-width="2"></rect><text x="-437.9386028696049" y="68.83887571346673" fill="rgba(255, 255, 255, 1)" font-size="32" text-anchor="middle" font-family="MiSans">settings</text><rect x="-710.456629781472" y="-566.3777213282891" width="269" height="76" rx="8" ry="8" fill="rgba(0, 0, 0, 0)" stroke="rgba(204, 204, 204, 1)" stroke-width="2"></rect><text x="-575.956629781472" y="-514.3777213282891" fill="rgba(255, 255, 255, 1)" font-size="32" text-anchor="middle" font-family="MiSans">class Renderer</text><rect x="-1270.8406077377385" y="-567.2492678835921" width="557" height="76" rx="8" ry="8" fill="rgba(0, 0, 0, 0)" stroke="rgba(204, 204, 204, 1)" stroke-width="2"></rect><text x="-992.3406077377385" y="-515.2492678835921" fill="rgba(255, 255, 255, 1)" font-size="32" text-anchor="middle" font-family="MiSans">ctx: CanvasRenderingContext2D</text><rect x="-843.5078030390805" y="-290.0694963824259" width="282" height="76" rx="8" ry="8" fill="rgba(0, 0, 0, 0)" stroke="rgba(204, 204, 204, 1)" stroke-width="2"></rect><text x="-702.5078030390805" y="-238.06949638242588" fill="rgba(255, 255, 255, 1)" font-size="32" text-anchor="middle" font-family="MiSans">class Controller</text><rect x="-1254.3499091865667" y="-450.433770675688" width="297" height="76" rx="8" ry="8" fill="rgba(0, 0, 0, 0)" stroke="rgba(204, 204, 204, 1)" stroke-width="2"></rect><text x="-1105.8499091865667" y="-398.433770675688" fill="rgba(255, 255, 255, 1)" font-size="32" text-anchor="middle" font-family="MiSans">register(...): void</text><rect x="-1308.083229691768" y="-287.9106889647124" width="398.0625" height="76" rx="8" ry="8" fill="rgba(0, 0, 0, 0)" stroke="rgba(204, 204, 204, 1)" stroke-width="2"></rect><text x="-1109.051979691768" y="-235.9106889647124" fill="rgba(255, 255, 255, 1)" font-size="32" text-anchor="middle" font-family="MiSans">mouseLocation: Vector</text><rect x="-879.5008844477045" y="-133.74256678210259" width="243" height="76" rx="8" ry="8" fill="rgba(0, 0, 0, 0)" stroke="rgba(204, 204, 204, 1)" stroke-width="2"></rect><text x="-758.0008844477045" y="-81.74256678210259" fill="rgba(255, 255, 255, 1)" font-size="32" text-anchor="middle" font-family="MiSans">class Camera</text><rect x="-1038.964671181249" y="-134.63758076997345" width="58" height="76" rx="8" ry="8" fill="rgba(0, 0, 0, 0)" stroke="rgba(204, 204, 204, 1)" stroke-width="2"></rect><text x="-1009.9646711812491" y="-82.63758076997345" fill="rgba(255, 255, 255, 1)" font-size="32" text-anchor="middle" font-family="MiSans">...</text><rect x="-577.8991637232975" y="-689.9563039154683" width="210" height="76" rx="8" ry="8" fill="rgba(0, 0, 0, 0)" stroke="rgba(204, 204, 204, 1)" stroke-width="2"></rect><text x="-472.89916372329753" y="-637.9563039154683" fill="rgba(255, 255, 255, 1)" font-size="32" text-anchor="middle" font-family="MiSans">class Stage</text><rect x="-701.627706571036" y="-688.5691517367694" width="58" height="76" rx="8" ry="8" fill="rgba(0, 0, 0, 0)" stroke="rgba(204, 204, 204, 1)" stroke-width="2"></rect><text x="-672.627706571036" y="-636.5691517367694" fill="rgba(255, 255, 255, 1)" font-size="32" text-anchor="middle" font-family="MiSans">...</text><rect x="-930.1850734844857" y="23.898888531296706" width="353" height="76" rx="8" ry="8" fill="rgba(0, 0, 0, 0)" stroke="rgba(204, 204, 204, 1)" stroke-width="2"></rect><text x="-753.6850734844857" y="75.8988885312967" fill="rgba(255, 255, 255, 1)" font-size="32" text-anchor="middle" font-family="MiSans">async get&lt;T&gt;(...): T</text><rect x="-873.8616751182336" y="141.44686946777597" width="320" height="76" rx="8" ry="8" fill="rgba(0, 0, 0, 0)" stroke="rgba(204, 204, 204, 1)" stroke-width="2"></rect><text x="-713.8616751182336" y="193.44686946777597" fill="rgba(255, 255, 255, 1)" font-size="32" text-anchor="middle" font-family="MiSans">async set(...): void</text><rect x="-542.3786948215264" y="497.8514437585622" width="192" height="76" rx="8" ry="8" fill="rgba(22, 163, 74, 1)" stroke="rgba(204, 204, 204, 1)" stroke-width="2"></rect><text x="-446.37869482152644" y="549.8514437585623" fill="rgba(255, 255, 255, 1)" font-size="32" text-anchor="middle" font-family="MiSans">project.pg</text><rect x="-225.56736389830485" y="282.9174042382585" width="146" height="76" rx="8" ry="8" fill="rgba(0, 0, 0, 0)" stroke="rgba(204, 204, 204, 1)" stroke-width="2"></rect><text x="-152.56736389830485" y="334.9174042382585" fill="rgba(255, 255, 255, 1)" font-size="32" text-anchor="middle" font-family="MiSans">version</text><rect x="-243.40840307771214" y="472.200884698449" width="225" height="76" rx="8" ry="8" fill="rgba(0, 0, 0, 0)" stroke="rgba(204, 204, 204, 1)" stroke-width="2"></rect><text x="-130.90840307771214" y="524.200884698449" fill="rgba(255, 255, 255, 1)" font-size="32" text-anchor="middle" font-family="MiSans">entities.json</text><rect x="-476.9079553547695" y="816.0585595218657" width="138" height="76" rx="8" ry="8" fill="rgba(0, 0, 0, 0)" stroke="rgba(204, 204, 204, 1)" stroke-width="2"></rect><text x="-407.9079553547695" y="868.0585595218657" fill="rgba(255, 255, 255, 1)" font-size="32" text-anchor="middle" font-family="MiSans">assets/</text><rect x="-279.38808538420307" y="759.8106955126522" width="124" height="76" rx="8" ry="8" fill="rgba(0, 0, 0, 0)" stroke="rgba(204, 204, 204, 1)" stroke-width="2"></rect><text x="-217.38808538420307" y="811.8106955126522" fill="rgba(255, 255, 255, 1)" font-size="32" text-anchor="middle" font-family="MiSans">[uuid]</text><rect x="-277.76090273270177" y="887.4790438397363" width="124" height="76" rx="8" ry="8" fill="rgba(0, 0, 0, 0)" stroke="rgba(204, 204, 204, 1)" stroke-width="2"></rect><text x="-215.76090273270177" y="939.4790438397363" fill="rgba(255, 255, 255, 1)" font-size="32" text-anchor="middle" font-family="MiSans">[uuid]</text><rect x="26.47831147231247" y="306.8038239345931" width="142" height="76" rx="8" ry="8" fill="rgba(168, 85, 247, 1)" stroke="rgba(204, 204, 204, 1)" stroke-width="2"></rect><text x="97.47831147231247" y="358.8038239345931" fill="rgba(255, 255, 255, 1)" font-size="32" text-anchor="middle" font-family="MiSans">文档的版本号</text><rect x="-187.4372249705147" y="611.1115864809774" width="288" height="76" rx="8" ry="8" fill="rgba(168, 85, 247, 1)" stroke="rgba(204, 204, 204, 1)" stroke-width="2"></rect><text x="-43.437224970514706" y="663.1115864809774" fill="rgba(255, 255, 255, 1)" font-size="32" text-anchor="middle" font-family="MiSans">JSON数组，存储所有节点</text><rect x="352.4162523068037" y="346.8935417638242" width="62" height="76" rx="8" ry="8" fill="rgba(0, 0, 0, 0)" stroke="rgba(204, 204, 204, 1)" stroke-width="2"></rect><text x="383.4162523068037" y="398.8935417638242" fill="rgba(255, 255, 255, 1)" font-size="32" text-anchor="middle" font-family="MiSans">[ ]</text><rect x="426.2942983978832" y="469.2767931862627" width="78" height="76" rx="8" ry="8" fill="rgba(0, 0, 0, 0)" stroke="rgba(204, 204, 204, 1)" stroke-width="2"></rect><text x="465.2942983978832" y="521.2767931862627" fill="rgba(255, 255, 255, 1)" font-size="32" text-anchor="middle" font-family="MiSans">{ }</text><rect x="567.4344461539753" y="592.7693439356996" width="98" height="76" rx="8" ry="8" fill="rgba(0, 0, 0, 0)" stroke="rgba(204, 204, 204, 1)" stroke-width="2"></rect><text x="616.4344461539753" y="644.7693439356996" fill="rgba(255, 255, 255, 1)" font-size="32" text-anchor="middle" font-family="MiSans">type</text><rect x="719.6011679535119" y="617.0094087708336" width="268" height="76" rx="8" ry="8" fill="rgba(0, 0, 0, 0)" stroke="rgba(204, 204, 204, 1)" stroke-width="2"></rect><text x="853.6011679535119" y="669.0094087708336" fill="rgba(255, 255, 255, 1)" font-size="32" text-anchor="middle" font-family="MiSans">core:text_node</text><rect x="417.4730391631275" y="645.1083147545552" width="119" height="76" rx="8" ry="8" fill="rgba(0, 0, 0, 0)" stroke="rgba(204, 204, 204, 1)" stroke-width="2"></rect><text x="476.9730391631275" y="697.1083147545552" fill="rgba(255, 255, 255, 1)" font-size="32" text-anchor="middle" font-family="MiSans">width</text><rect x="419.6783539718165" y="743.2370168889009" width="132" height="76" rx="8" ry="8" fill="rgba(0, 0, 0, 0)" stroke="rgba(204, 204, 204, 1)" stroke-width="2"></rect><text x="485.6783539718165" y="795.2370168889009" fill="rgba(255, 255, 255, 1)" font-size="32" text-anchor="middle" font-family="MiSans">height</text><rect x="343.59499307204794" y="652.8264412692716" width="46" height="76" rx="8" ry="8" fill="rgba(0, 0, 0, 0)" stroke="rgba(204, 204, 204, 1)" stroke-width="2"></rect><text x="366.59499307204794" y="704.8264412692716" fill="rgba(255, 255, 255, 1)" font-size="32" text-anchor="middle" font-family="MiSans">x</text><rect x="348.0056226894258" y="737.7234839672079" width="46" height="76" rx="8" ry="8" fill="rgba(0, 0, 0, 0)" stroke="rgba(204, 204, 204, 1)" stroke-width="2"></rect><text x="371.0056226894258" y="789.7234839672079" fill="rgba(255, 255, 255, 1)" font-size="32" text-anchor="middle" font-family="MiSans">y</text><rect x="556.4078721105303" y="392.02672750847273" width="159" height="76" rx="8" ry="8" fill="rgba(0, 0, 0, 0)" stroke="rgba(204, 204, 204, 1)" stroke-width="2"></rect><text x="635.9078721105303" y="444.02672750847273" fill="rgba(255, 255, 255, 1)" font-size="32" text-anchor="middle" font-family="MiSans">data { }</text><rect x="755.9888622968796" y="403.0443518834461" width="91" height="76" rx="8" ry="8" fill="rgba(0, 0, 0, 0)" stroke="rgba(204, 204, 204, 1)" stroke-width="2"></rect><text x="801.4888622968796" y="455.0443518834461" fill="rgba(255, 255, 255, 1)" font-size="32" text-anchor="middle" font-family="MiSans">text</text><rect x="699.7533346753115" y="502.28225727991014" width="58" height="76" rx="8" ry="8" fill="rgba(0, 0, 0, 0)" stroke="rgba(204, 204, 204, 1)" stroke-width="2"></rect><text x="728.7533346753115" y="554.2822572799101" fill="rgba(255, 255, 255, 1)" font-size="32" text-anchor="middle" font-family="MiSans">...</text><rect x="-43.5469435460888" y="882.47098708209" width="279" height="76" rx="8" ry="8" fill="rgba(168, 85, 247, 1)" stroke="rgba(204, 204, 204, 1)" stroke-width="2"></rect><text x="95.9530564539112" y="934.47098708209" fill="rgba(255, 255, 255, 1)" font-size="32" text-anchor="middle" font-family="MiSans">文档中的图片（raw格式）</text><line x1="-119.39683277120491" y1="-203.4930308266472" x2="111.11220223958635" y2="-423.9915202968595" stroke="rgba(204, 204, 204, 1)" stroke-width="2"></line><polygon points="111.11220223958635,-423.9915202968595 97.95859120799328,-416.78163008760157 105.69252438702516,-418.8072081945206 103.32578603935647,-411.1707667013489" fill="rgba(204, 204, 204, 1)" stroke="rgba(204, 204, 204, 1)"></polygon><line x1="-62.12201797068627" y1="-202.05356554216579" x2="84.0674279156373" y2="-257.1542285459736" stroke="rgba(204, 204, 204, 1)" stroke-width="2"></line><polygon points="84.0674279156373,-257.1542285459736 69.14035318594287,-255.67692017798876 77.04938219001981,-254.5090377791021 71.8788561795256,-248.41130460522817" fill="rgba(204, 204, 204, 1)" stroke="rgba(204, 204, 204, 1)"></polygon><line x1="674.2769391845915" y1="-461.4265001220943" x2="721.5713222002887" y2="-460.3655581141038" stroke="rgba(204, 204, 204, 1)" stroke-width="2"></line><polygon points="721.5713222002887,-460.3655581141038 707.1731473841444,-464.57181083639074 714.0732085905983,-460.53376125371483 706.9990106802348,-456.80919241826956" fill="rgba(204, 204, 204, 1)" stroke="rgba(204, 204, 204, 1)"></polygon><line x1="672.2675228350652" y1="-295.08722182709073" x2="719.5181965460256" y2="-294.994049474594" stroke="rgba(204, 204, 204, 1)" stroke-width="2"></line><polygon points="719.5181965460256,-294.994049474594 705.036992681527,-298.9048978013421 712.0182111270526,-295.00883849727444 705.0216819586143,-291.14034154365635" fill="rgba(204, 204, 204, 1)" stroke="rgba(204, 204, 204, 1)"></polygon><line x1="269.3373874390677" y1="-463.1841893178028" x2="315.27693918459147" y2="-463.64655792711005" stroke="rgba(204, 204, 204, 1)" stroke-width="2"></line><polygon points="315.27693918459147,-463.64655792711005 300.74971345648885,-467.38282781093176 307.7773190252508,-463.5710763690266 300.82785771563283,-459.61864969784307" fill="rgba(204, 204, 204, 1)" stroke="rgba(204, 204, 204, 1)"></polygon><line x1="280.06742791563727" y1="-294.4807808721407" x2="352.2675228350651" y2="-294.7674483148628" stroke="rgba(204, 204, 204, 1)" stroke-width="2"></line><polygon points="352.2675228350651,-294.7674483148628 337.7633353140471,-298.59217632547274 344.7675819513782,-294.7376701147636 337.79416397530525,-290.8276661741079" fill="rgba(204, 204, 204, 1)" stroke="rgba(204, 204, 204, 1)"></polygon><line x1="221.55295431005845" y1="-83.04059678959177" x2="347.44149083589423" y2="-79.81595569836811" stroke="rgba(204, 204, 204, 1)" stroke-width="2"></line><polygon points="347.44149083589423,-79.81595569836811 333.0567667373684,-84.06798022902278 339.9439501161015,-80.00800557483328 332.8579420748133,-76.30595491016673" fill="rgba(204, 204, 204, 1)" stroke="rgba(204, 204, 204, 1)"></polygon><line x1="568.4414908358942" y1="-107.99797978920547" x2="659.991399530592" y2="-133.69201018306617" stroke="rgba(204, 204, 204, 1)" stroke-width="2"></line><polygon points="659.991399530592,-133.69201018306617 644.9924469203833,-133.51475162414755 652.7704006293266,-131.66539357701492 647.0905548194517,-126.0390234629" fill="rgba(204, 204, 204, 1)" stroke="rgba(204, 204, 204, 1)"></polygon><line x1="568.4414908358942" y1="-78.7992040609511" x2="652.5998156571404" y2="-80.18055163732797" stroke="rgba(204, 204, 204, 1)" stroke-width="2"></line><polygon points="652.5998156571404,-80.18055163732797 638.049165583539,-83.82453056641128 645.1008257360477,-80.05746563752012 638.176593587282,-76.06100492396862" fill="rgba(204, 204, 204, 1)" stroke="rgba(204, 204, 204, 1)"></polygon><line x1="568.4414908358942" y1="-50.87935356629512" x2="652.5998156571404" y2="-30.996557731903756" stroke="rgba(204, 204, 204, 1)" stroke-width="2"></line><polygon points="652.5998156571404,-30.996557731903756 639.3917439922562,-38.106188024350914 645.3007530271846,-32.720995241349165 637.6064749141217,-30.54964234423627" fill="rgba(204, 204, 204, 1)" stroke="rgba(204, 204, 204, 1)"></polygon><line x1="-164.72120010710887" y1="-203.4930308266472" x2="-224.8233176127624" y2="-611.3884001089243" stroke="rgba(204, 204, 204, 1)" stroke-width="2"></line><polygon points="-224.8233176127624,-611.3884001089243 -226.55204514439006,-596.4883497358084 -223.7300204926958,-603.9685145702348 -218.87041438481555,-597.6202142023243" fill="rgba(204, 204, 204, 1)" stroke="rgba(204, 204, 204, 1)"></polygon><line x1="-177.3313834135661" y1="-203.4930308266472" x2="-315.0645960706928" y2="-490.91996491661814" stroke="rgba(204, 204, 204, 1)" stroke-width="2"></line><polygon points="-315.0645960706928,-490.91996491661814 -312.3044372108356,-476.1761010041849 -311.8235453175257,-484.15641629068256 -305.30229642335917,-479.5314836484389" fill="rgba(204, 204, 204, 1)" stroke="rgba(204, 204, 204, 1)"></polygon><line x1="-710.456629781472" y1="-528.6592475586297" x2="-713.8406077377385" y2="-528.666330670582" stroke="rgba(204, 204, 204, 1)" stroke-width="2"></line><polygon points="-713.8406077377385,-528.666330670582 -699.3598782005597,-524.7537264136865 -706.3406241671877,-528.6506322162903 -699.3436259647623,-532.5182807577448" fill="rgba(204, 204, 204, 1)" stroke="rgba(204, 204, 204, 1)"></polygon><line x1="-256.1220179706863" y1="-196.6251433604857" x2="-333.54654306695033" y2="-221.47451478497948" stroke="rgba(204, 204, 204, 1)" stroke-width="2"></line><polygon points="-333.54654306695033,-221.47451478497948 -320.9371950036005,-213.35020918897342 -326.40533308518184,-219.18254619961672 -318.5643745209262,-220.74333378240507" fill="rgba(204, 204, 204, 1)" stroke="rgba(204, 204, 204, 1)"></polygon><line x1="-256.1220179706863" y1="-144.36162371506856" x2="-386.0462848352149" y2="-116.05767962447325" stroke="rgba(204, 204, 204, 1)" stroke-width="2"></line><polygon points="-386.0462848352149,-116.05767962447325 -371.0630622130458,-115.34842659873468 -378.7181598938902,-117.65410840282013 -372.7158069009895,-122.93505979755723" fill="rgba(204, 204, 204, 1)" stroke="rgba(204, 204, 204, 1)"></polygon><line x1="-207.2086995254976" y1="-127.49303082664721" x2="-389.8519213147936" y2="16.838875713466734" stroke="rgba(204, 204, 204, 1)" stroke-width="2"></line><polygon points="-389.8519213147936,16.838875713466734 -376.07700602160355,10.90156077610328 -383.96749318775596,12.188767583785346 -380.89115220459394,4.80955250084615" fill="rgba(204, 204, 204, 1)" stroke="rgba(204, 204, 204, 1)"></polygon><line x1="-520.5465430669503" y1="-251.6822754555167" x2="-561.5078030390805" y2="-251.76944267482594" stroke="rgba(204, 204, 204, 1)" stroke-width="2"></line><polygon points="-561.5078030390805,-251.76944267482594 -547.0272100938698,-247.8563329197699 -554.0078200211088,-251.75348240736864 -547.0106868091383,-255.62088669175606" fill="rgba(204, 204, 204, 1)" stroke="rgba(204, 204, 204, 1)"></polygon><line x1="-843.5078030390805" y1="-251.32076632213125" x2="-910.0207296917681" y2="-250.9675732187054" stroke="rgba(204, 204, 204, 1)" stroke-width="2"></line><polygon points="-910.0207296917681,-250.9675732187054 -895.5114313704833,-247.16227924530992 -902.520835430573,-251.00739872425427 -895.5526617677508,-254.9267411295195" fill="rgba(204, 204, 204, 1)" stroke="rgba(204, 204, 204, 1)"></polygon><line x1="-534.0462848352149" y1="-98.89512957722405" x2="-636.5008844477045" y2="-97.45289726993373" stroke="rgba(204, 204, 204, 1)" stroke-width="2"></line><polygon points="-636.5008844477045,-97.45289726993373 -621.9587876485792,-93.77493306607417 -629.0016274227871,-97.5584627672654 -622.0680770934399,-101.53873523474414" fill="rgba(204, 204, 204, 1)" stroke="rgba(204, 204, 204, 1)"></polygon><line x1="-879.5008844477045" y1="-96.17415340387895" x2="-980.9646711812491" y2="-96.53456832526965" stroke="rgba(204, 204, 204, 1)" stroke-width="2"></line><polygon points="-980.9646711812491,-96.53456832526965 -966.4896655816799,-92.60084071746013 -973.4647184975244,-96.50792734385195 -966.4620848081954,-100.36536308512297" fill="rgba(204, 204, 204, 1)" stroke="rgba(204, 204, 204, 1)"></polygon><line x1="-577.8991637232975" y1="-651.2270592282209" x2="-643.627706571036" y2="-650.7705621741997" stroke="rgba(204, 204, 204, 1)" stroke-width="2"></line><polygon points="-643.627706571036,-650.7705621741997 -629.1122060526873,-646.9889957392658 -636.1278874481027,-650.8226498242065 -629.1661311560329,-654.7533798346227" fill="rgba(204, 204, 204, 1)" stroke="rgba(204, 204, 204, 1)"></polygon><line x1="-515.9386028696049" y1="56.582936379349555" x2="-577.1850734844857" y2="57.952392280933665" stroke="rgba(204, 204, 204, 1)" stroke-width="2"></line><polygon points="-577.1850734844857,57.952392280933665 -562.6130214003114,61.5098208545121 -569.686947626202,57.78473604532762 -562.7865919075316,53.747189755714096" fill="rgba(204, 204, 204, 1)" stroke="rgba(204, 204, 204, 1)"></polygon><line x1="-515.9386028696049" y1="90.06399637346772" x2="-629.7171798130494" y2="141.44686946777597" stroke="rgba(204, 204, 204, 1)" stroke-width="2"></line><polygon points="-629.7171798130494,141.44686946777597 -614.914518872378,139.02174491932027 -622.881877772795,138.360018966295 -618.1102616690481,131.9453195311364" fill="rgba(204, 204, 204, 1)" stroke="rgba(204, 204, 204, 1)"></polygon><line x1="-394.4333138106803" y1="497.8514437585622" x2="-204.51274490915088" y2="358.9174042382585" stroke="rgba(204, 204, 204, 1)" stroke-width="2"></line><polygon points="-204.51274490915088,358.9174042382585 -218.49884424051038,364.33856882654993 -210.5659618647105,363.3455601172814 -213.91447993581505,370.60532015549524" fill="rgba(204, 204, 204, 1)" stroke="rgba(204, 204, 204, 1)"></polygon><line x1="-350.37869482152644" y1="528.045784290093" x2="-243.40840307771214" y2="519.3481418880615" stroke="rgba(204, 204, 204, 1)" stroke-width="2"></line><polygon points="-243.40840307771214,519.3481418880615 -258.16425884971477,516.6528273543091 -250.88373353423748,519.9559531792897 -257.53500629772185,524.3918589166439" fill="rgba(204, 204, 204, 1)" stroke="rgba(204, 204, 204, 1)"></polygon><line x1="-441.7845546300664" y1="573.8514437585623" x2="-412.50209554622955" y2="816.0585595218657" stroke="rgba(204, 204, 204, 1)" stroke-width="2"></line><polygon points="-412.50209554622955,816.0585595218657 -410.38689580800127,801.20844403183 -413.40227887416887,808.6127774960406 -418.0953365838635,802.1403823892479" fill="rgba(204, 204, 204, 1)" stroke="rgba(204, 204, 204, 1)"></polygon><line x1="-338.9079553547695" y1="833.6874422350686" x2="-279.38808538420307" y2="816.1151777123829" stroke="rgba(204, 204, 204, 1)" stroke-width="2"></line><polygon points="-279.38808538420307,816.1151777123829 -294.38329299441557,816.4943198053041 -286.5811499376144,818.2388119394705 -292.1847450632082,823.941128201603" fill="rgba(204, 204, 204, 1)" stroke="rgba(204, 204, 204, 1)"></polygon><line x1="-338.9079553547695" y1="879.7056529884824" x2="-277.76090273270177" y2="902.4338294204576" stroke="rgba(204, 204, 204, 1)" stroke-width="2"></line><polygon points="-277.76090273270177,902.4338294204576 -289.9893436726321,893.7467567156488 -284.7909761233638,899.8207721838274 -292.69457958776354,901.0248242435359" fill="rgba(204, 204, 204, 1)" stroke="rgba(204, 204, 204, 1)"></polygon><line x1="-418.77396151357266" y1="-528.7289260297746" x2="-441.456629781472" y2="-528.6782444894641" stroke="rgba(204, 204, 204, 1)" stroke-width="2"></line><polygon points="-441.456629781472,-528.6782444894641 -426.9591041018947,-524.8283420010889 -433.9566485029861,-528.6950022447247 -426.9764530067532,-532.592893972227" fill="rgba(204, 204, 204, 1)" stroke="rgba(204, 204, 204, 1)"></polygon><line x1="-287.922499749185" y1="-649.9973431158771" x2="-367.89916372329753" y2="-650.8443210332067" stroke="rgba(204, 204, 204, 1)" stroke-width="2"></line><polygon points="-367.89916372329753,-650.8443210332067 -353.45220107497414,-646.8088197956962 -360.39958426817174,-650.7648981381757 -353.36997644356927,-654.5729557686807" fill="rgba(204, 204, 204, 1)" stroke="rgba(204, 204, 204, 1)"></polygon><line x1="-62.12201797068627" y1="-139.15772771112353" x2="51.55295431005845" y2="-108.29520346718368" stroke="rgba(204, 204, 204, 1)" stroke-width="2"></line><polygon points="51.55295431005845,-108.29520346718368 38.58745509694438,-115.83813593106922 44.31497175093189,-110.26030104078649 36.55303638681175,-108.34482499338188" fill="rgba(204, 204, 204, 1)" stroke="rgba(204, 204, 204, 1)"></polygon><line x1="26.47831147231247" y1="338.0213199143734" x2="-79.56736389830485" y2="327.8909647097519" stroke="rgba(204, 204, 204, 1)" stroke-width="2"></line><polygon points="-79.56736389830485,327.8909647097519 -65.51332479593943,333.13348174922675 -72.10135260493396,328.6041795211927 -64.77495049013913,325.40409809452717" fill="rgba(204, 204, 204, 1)" stroke="rgba(204, 204, 204, 1)"></polygon><line x1="-67.36558128446697" y1="611.1115864809774" x2="-106.9800467637599" y2="548.200884698449" stroke="rgba(204, 204, 204, 1)" stroke-width="2"></line><polygon points="-106.9800467637599,548.200884698449 -102.54483665387467,562.5301872383905 -102.98365656849526,554.5474479737337 -95.974390867507,558.3928196616085" fill="rgba(204, 204, 204, 1)" stroke="rgba(204, 204, 204, 1)"></polygon><line x1="-18.408403077712137" y1="482.79197880105215" x2="352.4162523068037" y2="392.44621805555136" stroke="rgba(204, 204, 204, 1)" stroke-width="2"></line><polygon points="352.4162523068037,392.44621805555136 337.42015794849016,392.1039403955208 345.12940090115774,394.2215480508017 339.25811480494036,399.64784408597376" fill="rgba(204, 204, 204, 1)" stroke="rgba(204, 204, 204, 1)"></polygon><line x1="408.8393859079965" y1="422.8935417638242" x2="439.87116479669044" y2="469.2767931862627" stroke="rgba(204, 204, 204, 1)" stroke-width="2"></line><polygon points="439.87116479669044,469.2767931862627 435.04121839943434,455.07567992709767 435.70072052777476,463.04322321393795 428.587751888167,459.3932415404338" fill="rgba(204, 204, 204, 1)" stroke="rgba(204, 204, 204, 1)"></polygon><line x1="504.2942983978832" y1="539.1426445218084" x2="569.9269800770574" y2="592.7693439356996" stroke="rgba(204, 204, 204, 1)" stroke-width="2"></line><polygon points="569.9269800770574,592.7693439356996 561.1635186432108,580.5955300839322 564.1191457755518,588.0239186938212 556.2506929243773,586.6082425960494" fill="rgba(204, 204, 204, 1)" stroke="rgba(204, 204, 204, 1)"></polygon><line x1="665.4344461539753" y1="635.7774798491585" x2="719.6011679535119" y2="641.3136901503542" stroke="rgba(204, 204, 204, 1)" stroke-width="2"></line><polygon points="719.6011679535119,641.3136901503542 705.5821097674951,635.9783356563139 712.140037094735,640.5511114277244 704.792630180269,643.7026667133282" fill="rgba(204, 204, 204, 1)" stroke="rgba(204, 204, 204, 1)"></polygon><line x1="444.8607337381157" y1="545.2767931862627" x2="387.02855773181545" y2="652.8264412692716" stroke="rgba(204, 204, 204, 1)" stroke-width="2"></line><polygon points="387.02855773181545,652.8264412692716 397.3097435498831,641.9041146776353 390.58053611571705,646.2208792522821 390.47116253547216,638.2268360634505" fill="rgba(204, 204, 204, 1)" stroke="rgba(204, 204, 204, 1)"></polygon><line x1="467.8182607973493" y1="545.2767931862627" x2="474.4490767636614" y2="645.1083147545552" stroke="rgba(204, 204, 204, 1)" stroke-width="2"></line><polygon points="474.4490767636614,645.1083147545552 477.3625900333184,630.3939870285756 473.95202149417844,637.6248038098796 469.6150894064576,630.9085765094186" fill="rgba(204, 204, 204, 1)" stroke="rgba(204, 204, 204, 1)"></polygon><line x1="451.9472548321828" y1="545.2767931862627" x2="384.3526662551262" y2="737.7234839672079" stroke="rgba(204, 204, 204, 1)" stroke-width="2"></line><polygon points="384.3526662551262,737.7234839672079 392.81706171183765,725.3398653703517 386.8380971728308,730.6472820796613 385.49123844988776,722.7667579431974" fill="rgba(204, 204, 204, 1)" stroke="rgba(204, 204, 204, 1)"></polygon><line x1="468.1216946576053" y1="545.2767931862627" x2="482.8509577120944" y2="743.2370168889009" stroke="rgba(204, 204, 204, 1)" stroke-width="2"></line><polygon points="482.8509577120944,743.2370168889009 485.6474651072273,728.5000040847751 482.29445727946427,735.7576915671568 477.90429775608766,729.076135727065" fill="rgba(204, 204, 204, 1)" stroke="rgba(204, 204, 204, 1)"></polygon><line x1="504.2942983978832" y1="489.61845278652413" x2="556.4078721105303" y2="466.02257524640135" stroke="rgba(204, 204, 204, 1)" stroke-width="2"></line><polygon points="556.4078721105303,466.02257524640135 541.607581654861,468.46212488267065 549.5755816703447,469.1160857669828 544.810219410667,475.53543243303835" fill="rgba(204, 204, 204, 1)" stroke="rgba(204, 204, 204, 1)"></polygon><line x1="715.4078721105303" y1="435.31659282951364" x2="755.9888622968796" y2="438.0168189009636" stroke="rgba(204, 204, 204, 1)" stroke-width="2"></line><polygon points="755.9888622968796,438.0168189009636 741.7896974583043,433.18114750115075 748.5054103551572,437.51887609708695 741.2741891342442,440.92858704365943" fill="rgba(204, 204, 204, 1)" stroke="rgba(204, 204, 204, 1)"></polygon><line x1="667.9074242851522" y1="468.02672750847273" x2="699.7533346753115" y2="505.8442753360887" stroke="rgba(204, 204, 204, 1)" stroke-width="2"></line><polygon points="699.7533346753115,505.8442753360887 693.3902218375006,492.2608002647645 694.922356138928,500.10740803929673 687.4509797749582,497.26219727155484" fill="rgba(204, 204, 204, 1)" stroke="rgba(204, 204, 204, 1)"></polygon><line x1="-43.5469435460888" y1="922.7122210631239" x2="-153.76090273270177" y2="924.4829398481656" stroke="rgba(204, 204, 204, 1)" stroke-width="2"></line><polygon points="-153.76090273270177,924.4829398481656 -139.2115194267576,928.1319733389291 -146.26187050499325,924.3624589459893 -139.33625043497517,920.368403897455" fill="rgba(204, 204, 204, 1)" stroke="rgba(204, 204, 204, 1)"></polygon><line x1="-1.119624831114308" y1="882.47098708209" x2="-155.38808538420307" y2="822.0811696441156" stroke="rgba(204, 204, 204, 1)" stroke-width="2"></line><polygon points="-155.38808538420307,822.0811696441156 -143.31131101460429,830.97788369065 -148.40413173623529,824.8151029723147 -140.48093496109053,823.7475628338208" fill="rgba(204, 204, 204, 1)" stroke="rgba(204, 204, 204, 1)"></polygon><rect x="313.59499307204794" y="266.8935417638242" width="704.006174881464" height="582.3434751250768" rx="8" ry="8" fill="rgba(0, 0, 0, 0)" stroke="rgba(204, 204, 204, 1)" stroke-width="2"></rect><text x="327.59499307204794" y="296.8935417638242" fill="rgba(204, 204, 204, 1)" font-size="32" text-anchor="start" font-family="MiSans">JSON</text></svg>