<svg xmlns="http://www.w3.org/2000/svg" width="5428.938395397158" height="3241.850006752411" viewBox="-3177.372737649249 -1309.7451284291958 5428.938395397158 3241.850006752411" style="background-color:rgba(34, 34, 34, 1)"><rect x="-2637.5" y="-882.7" width="319.0" height="497.1" rx="8" ry="8" fill="rgba(0, 0, 0, 0)" stroke="rgba(0, 0, 0, 0)" stroke-width="0"></rect><rect x="-633.7" y="1761.7" width="108.0" height="76.0" rx="8" ry="8" fill="rgba(59, 130, 246, 1)" stroke="rgba(229, 231, 235, 1)" stroke-width="2"></rect><text x="-619.7" y="1813.7" fill="rgba(255, 255, 255, 1)" font-size="32" text-anchor="start" font-family="-apple-system, BlinkMacSystemFont, MiSans, system-ui, sans-serif">Edge</text><rect x="826.3" y="1630.8" width="148.0" height="76.0" rx="8" ry="8" fill="rgba(59, 130, 246, 1)" stroke="rgba(229, 231, 235, 1)" stroke-width="2"></rect><text x="840.3" y="1682.8" fill="rgba(255, 255, 255, 1)" font-size="32" text-anchor="start" font-family="-apple-system, BlinkMacSystemFont, MiSans, system-ui, sans-serif">Section</text><rect x="1046.4" y="1826.1" width="112.0" height="76.0" rx="8" ry="8" fill="rgba(59, 130, 246, 1)" stroke="rgba(229, 231, 235, 1)" stroke-width="2"></rect><text x="1060.4" y="1878.1" fill="rgba(255, 255, 255, 1)" font-size="32" text-anchor="start" font-family="-apple-system, BlinkMacSystemFont, MiSans, system-ui, sans-serif">Node</text><rect x="-296.9" y="11.8" width="226.0" height="76.0" rx="8" ry="8" fill="rgba(168, 85, 247, 1)" stroke="rgba(229, 231, 235, 1)" stroke-width="2"></rect><text x="-282.9" y="63.8" fill="rgba(255, 255, 255, 1)" font-size="32" text-anchor="start" font-family="-apple-system, BlinkMacSystemFont, MiSans, system-ui, sans-serif">StageObject</text><rect x="1191.2" y="1829.9" width="223.0" height="76.0" rx="8" ry="8" fill="rgba(59, 130, 246, 1)" stroke="rgba(229, 231, 235, 1)" stroke-width="2"></rect><text x="1205.2" y="1881.9" fill="rgba(255, 255, 255, 1)" font-size="32" text-anchor="start" font-family="-apple-system, BlinkMacSystemFont, MiSans, system-ui, sans-serif">BubbleNode</text><rect x="1458.2" y="1833.7" width="161.0" height="76.0" rx="8" ry="8" fill="rgba(59, 130, 246, 1)" stroke="rgba(229, 231, 235, 1)" stroke-width="2"></rect><text x="1472.2" y="1885.7" fill="rgba(255, 255, 255, 1)" font-size="32" text-anchor="start" font-family="-apple-system, BlinkMacSystemFont, MiSans, system-ui, sans-serif">fileNode</text><rect x="1684.1" y="1828.1" width="307.1" height="76.0" rx="8" ry="8" fill="rgba(59, 130, 246, 1)" stroke="rgba(229, 231, 235, 1)" stroke-width="2"></rect><text x="1698.1" y="1880.1" fill="rgba(255, 255, 255, 1)" font-size="32" text-anchor="start" font-family="-apple-system, BlinkMacSystemFont, MiSans, system-ui, sans-serif">WebsiteLinkNode</text><rect x="2009.6" y="1826.1" width="212.0" height="76.0" rx="8" ry="8" fill="rgba(59, 130, 246, 1)" stroke="rgba(229, 231, 235, 1)" stroke-width="2"></rect><text x="2023.6" y="1878.1" fill="rgba(255, 255, 255, 1)" font-size="32" text-anchor="start" font-family="-apple-system, BlinkMacSystemFont, MiSans, system-ui, sans-serif">ImageNode</text><rect x="1157.9" y="961.6" width="324.0" height="76.0" rx="8" ry="8" fill="rgba(168, 85, 247, 1)" stroke="rgba(229, 231, 235, 1)" stroke-width="2"></rect><text x="1171.9" y="1013.6" fill="rgba(255, 255, 255, 1)" font-size="32" text-anchor="start" font-family="-apple-system, BlinkMacSystemFont, MiSans, system-ui, sans-serif">ConnectableEntity</text><rect x="486.8" y="15.1" width="218.0" height="76.0" rx="8" ry="8" fill="rgba(0, 0, 0, 0)" stroke="rgba(229, 231, 235, 1)" stroke-width="2"></rect><text x="500.8" y="67.1" fill="rgba(255, 255, 255, 1)" font-size="32" text-anchor="start" font-family="-apple-system, BlinkMacSystemFont, MiSans, system-ui, sans-serif">一切具有碰撞箱的东西</text><rect x="1552.3" y="957.6" width="526.0" height="76.0" rx="8" ry="8" fill="rgba(0, 0, 0, 0)" stroke="rgba(229, 231, 235, 1)" stroke-width="2"></rect><text x="1566.3" y="1009.6" fill="rgba(255, 255, 255, 1)" font-size="32" text-anchor="start" font-family="-apple-system, BlinkMacSystemFont, MiSans, system-ui, sans-serif">一切可被Edge连接的东西，且会算入图分析算法的东西</text><rect x="493.8" y="1630.0" width="319.4" height="76.0" rx="8" ry="8" fill="rgba(0, 0, 0, 0)" stroke="rgba(229, 231, 235, 1)" stroke-width="2"></rect><text x="507.8" y="1682.0" fill="rgba(255, 255, 255, 1)" font-size="32" text-anchor="start" font-family="-apple-system, BlinkMacSystemFont, MiSans, system-ui, sans-serif">container: Entity[]</text><rect x="395.1" y="350.1" width="122.0" height="76.0" rx="8" ry="8" fill="rgba(168, 85, 247, 1)" stroke="rgba(229, 231, 235, 1)" stroke-width="2"></rect><text x="409.1" y="402.1" fill="rgba(255, 255, 255, 1)" font-size="32" text-anchor="start" font-family="-apple-system, BlinkMacSystemFont, MiSans, system-ui, sans-serif">Entity</text><rect x="497.5" y="-120.4" width="116.0" height="76.0" rx="8" ry="8" fill="rgba(0, 0, 0, 0)" stroke="rgba(229, 231, 235, 1)" stroke-width="2"></rect><text x="511.5" y="-68.4" fill="rgba(255, 255, 255, 1)" font-size="32" text-anchor="start" font-family="-apple-system, BlinkMacSystemFont, MiSans, system-ui, sans-serif">有uuid</text><rect x="237.7" y="1219.0" width="85.0" height="76.0" rx="8" ry="8" fill="rgba(59, 130, 246, 1)" stroke="rgba(229, 231, 235, 1)" stroke-width="2"></rect><text x="251.7" y="1271.0" fill="rgba(255, 255, 255, 1)" font-size="32" text-anchor="start" font-family="-apple-system, BlinkMacSystemFont, MiSans, system-ui, sans-serif">分割线</text><rect x="959.7" y="970.0" width="66.0" height="76.0" rx="8" ry="8" fill="rgba(59, 130, 246, 1)" stroke="rgba(229, 231, 235, 1)" stroke-width="2"></rect><text x="973.7" y="1022.0" fill="rgba(255, 255, 255, 1)" font-size="32" text-anchor="start" font-family="-apple-system, BlinkMacSystemFont, MiSans, system-ui, sans-serif">贴纸</text><rect x="692.8" y="964.9" width="217.0" height="76.0" rx="8" ry="8" fill="rgba(168, 85, 247, 1)" stroke="rgba(229, 231, 235, 1)" stroke-width="2"></rect><text x="706.8" y="1016.9" fill="rgba(255, 255, 255, 1)" font-size="32" text-anchor="start" font-family="-apple-system, BlinkMacSystemFont, MiSans, system-ui, sans-serif">EffectOrigin</text><rect x="806.3" y="-123.0" width="154.0" height="76.0" rx="8" ry="8" fill="rgba(0, 0, 0, 0)" stroke="rgba(229, 231, 235, 1)" stroke-width="2"></rect><text x="820.3" y="-71.0" fill="rgba(255, 255, 255, 1)" font-size="32" text-anchor="start" font-family="-apple-system, BlinkMacSystemFont, MiSans, system-ui, sans-serif">uuid的意义</text><rect x="1180.0" y="-219.9" width="360.0" height="76.0" rx="8" ry="8" fill="rgba(0, 0, 0, 0)" stroke="rgba(229, 231, 235, 1)" stroke-width="2"></rect><text x="1194.0" y="-167.9" fill="rgba(255, 255, 255, 1)" font-size="32" text-anchor="start" font-family="-apple-system, BlinkMacSystemFont, MiSans, system-ui, sans-serif">json化时，表示各个物体之间的关系</text><rect x="1188.2" y="-124.3" width="142.0" height="76.0" rx="8" ry="8" fill="rgba(0, 0, 0, 0)" stroke="rgba(229, 231, 235, 1)" stroke-width="2"></rect><text x="1202.2" y="-72.3" fill="rgba(255, 255, 255, 1)" font-size="32" text-anchor="start" font-family="-apple-system, BlinkMacSystemFont, MiSans, system-ui, sans-serif">图论分析算法</text><rect x="1188.2" y="-33.7" width="217.9" height="76.0" rx="8" ry="8" fill="rgba(0, 0, 0, 0)" stroke="rgba(229, 231, 235, 1)" stroke-width="2"></rect><text x="1202.2" y="18.3" fill="rgba(255, 255, 255, 1)" font-size="32" text-anchor="start" font-family="-apple-system, BlinkMacSystemFont, MiSans, system-ui, sans-serif">优化，作为key使用</text><rect x="-2032.1" y="294.8" width="382.0" height="76.0" rx="8" ry="8" fill="rgba(0, 0, 0, 0)" stroke="rgba(229, 231, 235, 1)" stroke-width="2"></rect><text x="-2018.1" y="346.8" fill="rgba(255, 255, 255, 1)" font-size="32" text-anchor="start" font-family="-apple-system, BlinkMacSystemFont, MiSans, system-ui, sans-serif">与Connectable实时关联的东西</text><rect x="-1834.0" y="1695.1" width="142.0" height="76.0" rx="8" ry="8" fill="rgba(59, 130, 246, 1)" stroke="rgba(229, 231, 235, 1)" stroke-width="2"></rect><text x="-1820.0" y="1747.1" fill="rgba(255, 255, 255, 1)" font-size="32" text-anchor="start" font-family="-apple-system, BlinkMacSystemFont, MiSans, system-ui, sans-serif">图论分析结果</text><rect x="-867.3" y="1761.1" width="165.0" height="76.0" rx="8" ry="8" fill="rgba(59, 130, 246, 1)" stroke="rgba(229, 231, 235, 1)" stroke-width="2"></rect><text x="-853.3" y="1813.1" fill="rgba(255, 255, 255, 1)" font-size="32" text-anchor="start" font-family="-apple-system, BlinkMacSystemFont, MiSans, system-ui, sans-serif">全连接Edge</text><rect x="-1096.0" y="348.5" width="213.0" height="76.0" rx="8" ry="8" fill="rgba(168, 85, 247, 1)" stroke="rgba(229, 231, 235, 1)" stroke-width="2"></rect><text x="-1082.0" y="400.5" fill="rgba(255, 255, 255, 1)" font-size="32" text-anchor="start" font-family="-apple-system, BlinkMacSystemFont, MiSans, system-ui, sans-serif">Association</text><rect x="-2284.5" y="388.2" width="530.0" height="76.0" rx="8" ry="8" fill="rgba(0, 0, 0, 0)" stroke="rgba(229, 231, 235, 1)" stroke-width="2"></rect><text x="-2270.5" y="440.2" fill="rgba(255, 255, 255, 1)" font-size="32" text-anchor="start" font-family="-apple-system, BlinkMacSystemFont, MiSans, system-ui, sans-serif">有一个非空数组，表示关联的connectable的数组</text><rect x="-1542.0" y="1296.2" width="333.0" height="76.0" rx="8" ry="8" fill="rgba(168, 85, 247, 1)" stroke="rgba(229, 231, 235, 1)" stroke-width="2"></rect><text x="-1528.0" y="1348.2" fill="rgba(255, 255, 255, 1)" font-size="32" text-anchor="start" font-family="-apple-system, BlinkMacSystemFont, MiSans, system-ui, sans-serif">SectionAssociation</text><rect x="-769.8" y="1297.7" width="415.0" height="76.0" rx="8" ry="8" fill="rgba(168, 85, 247, 1)" stroke="rgba(229, 231, 235, 1)" stroke-width="2"></rect><text x="-755.8" y="1349.7" fill="rgba(255, 255, 255, 1)" font-size="32" text-anchor="start" font-family="-apple-system, BlinkMacSystemFont, MiSans, system-ui, sans-serif">ConnectableAssociation</text><rect x="-2341.7" y="1301.8" width="303.0" height="76.0" rx="8" ry="8" fill="rgba(0, 0, 0, 0)" stroke="rgba(229, 231, 235, 1)" stroke-width="2"></rect><text x="-2327.7" y="1353.8" fill="rgba(255, 255, 255, 1)" font-size="32" text-anchor="start" font-family="-apple-system, BlinkMacSystemFont, MiSans, system-ui, sans-serif">Xxx...Association</text><rect x="743.4" y="296.2" width="294.0" height="76.0" rx="8" ry="8" fill="rgba(0, 0, 0, 0)" stroke="rgba(229, 231, 235, 1)" stroke-width="2"></rect><text x="757.4" y="348.2" fill="rgba(255, 255, 255, 1)" font-size="32" text-anchor="start" font-family="-apple-system, BlinkMacSystemFont, MiSans, system-ui, sans-serif">一切独立存在，独立移动的东西</text><rect x="743.4" y="375.0" width="395.0" height="76.0" rx="8" ry="8" fill="rgba(0, 0, 0, 0)" stroke="rgba(229, 231, 235, 1)" stroke-width="2"></rect><text x="757.4" y="427.0" fill="rgba(255, 255, 255, 1)" font-size="32" text-anchor="start" font-family="-apple-system, BlinkMacSystemFont, MiSans, system-ui, sans-serif">一切能放入Section里附带移动的东西</text><rect x="411.8" y="964.9" width="161.0" height="76.0" rx="8" ry="8" fill="rgba(168, 85, 247, 1)" stroke="rgba(229, 231, 235, 1)" stroke-width="2"></rect><text x="425.8" y="1016.9" fill="rgba(255, 255, 255, 1)" font-size="32" text-anchor="start" font-family="-apple-system, BlinkMacSystemFont, MiSans, system-ui, sans-serif">独立线存在的线</text><rect x="-1205.2" y="1297.9" width="434.0" height="76.0" rx="8" ry="8" fill="rgba(168, 85, 247, 1)" stroke="rgba(229, 231, 235, 1)" stroke-width="2"></rect><text x="-1191.2" y="1349.9" fill="rgba(255, 255, 255, 1)" font-size="32" text-anchor="start" font-family="-apple-system, BlinkMacSystemFont, MiSans, system-ui, sans-serif">AssociationOfAssociation</text><rect x="-2607.5" y="-802.7" width="66.0" height="76.0" rx="8" ry="8" fill="rgba(22, 163, 74, 1)" stroke="rgba(229, 231, 235, 1)" stroke-width="2"></rect><text x="-2593.5" y="-750.7" fill="rgba(255, 255, 255, 1)" font-size="32" text-anchor="start" font-family="-apple-system, BlinkMacSystemFont, MiSans, system-ui, sans-serif">接口</text><rect x="-2607.5" y="-724.9" width="85.0" height="76.0" rx="8" ry="8" fill="rgba(168, 85, 247, 1)" stroke="rgba(229, 231, 235, 1)" stroke-width="2"></rect><text x="-2593.5" y="-672.9" fill="rgba(255, 255, 255, 1)" font-size="32" text-anchor="start" font-family="-apple-system, BlinkMacSystemFont, MiSans, system-ui, sans-serif">抽象类</text><rect x="-2607.5" y="-647.1" width="47.0" height="76.0" rx="8" ry="8" fill="rgba(59, 130, 246, 1)" stroke="rgba(229, 231, 235, 1)" stroke-width="2"></rect><text x="-2593.5" y="-595.1" fill="rgba(255, 255, 255, 1)" font-size="32" text-anchor="start" font-family="-apple-system, BlinkMacSystemFont, MiSans, system-ui, sans-serif">类</text><rect x="440.2" y="1215.7" width="104.0" height="76.0" rx="8" ry="8" fill="rgba(59, 130, 246, 1)" stroke="rgba(229, 231, 235, 1)" stroke-width="2"></rect><text x="454.2" y="1267.7" fill="rgba(255, 255, 255, 1)" font-size="32" text-anchor="start" font-family="-apple-system, BlinkMacSystemFont, MiSans, system-ui, sans-serif">双箭头线</text><rect x="934.3" y="61.1" width="618.0" height="76.0" rx="8" ry="8" fill="rgba(0, 0, 0, 0)" stroke="rgba(229, 231, 235, 1)" stroke-width="2"></rect><text x="948.3" y="113.1" fill="rgba(255, 255, 255, 1)" font-size="32" text-anchor="start" font-family="-apple-system, BlinkMacSystemFont, MiSans, system-ui, sans-serif">由于有“关系的关系”，所以关系也有uuid，所以一切都有uuid</text><rect x="-1587.3" y="1693.5" width="161.0" height="76.0" rx="8" ry="8" fill="rgba(59, 130, 246, 1)" stroke="rgba(229, 231, 235, 1)" stroke-width="2"></rect><text x="-1573.3" y="1745.5" fill="rgba(255, 255, 255, 1)" font-size="32" text-anchor="start" font-family="-apple-system, BlinkMacSystemFont, MiSans, system-ui, sans-serif">树形图分析结果</text><rect x="-792.0" y="-36.4" width="85.0" height="76.0" rx="8" ry="8" fill="rgba(0, 0, 0, 0)" stroke="rgba(229, 231, 235, 1)" stroke-width="2"></rect><text x="-778.0" y="15.6" fill="rgba(255, 255, 255, 1)" font-size="32" text-anchor="start" font-family="-apple-system, BlinkMacSystemFont, MiSans, system-ui, sans-serif">碰撞箱</text><rect x="-2841.7" y="97.8" width="180.0" height="76.0" rx="8" ry="8" fill="rgba(168, 85, 247, 1)" stroke="rgba(229, 231, 235, 1)" stroke-width="2"></rect><text x="-2827.7" y="149.8" fill="rgba(255, 255, 255, 1)" font-size="32" text-anchor="start" font-family="-apple-system, BlinkMacSystemFont, MiSans, system-ui, sans-serif">可参与碰撞的图形</text><rect x="-3147.4" y="225.8" width="123.0" height="76.0" rx="8" ry="8" fill="rgba(0, 0, 0, 0)" stroke="rgba(229, 231, 235, 1)" stroke-width="2"></rect><text x="-3133.4" y="277.8" fill="rgba(255, 255, 255, 1)" font-size="32" text-anchor="start" font-family="-apple-system, BlinkMacSystemFont, MiSans, system-ui, sans-serif">碰撞管理器</text><rect x="-2607.5" y="-569.3" width="259.0" height="76.0" rx="8" ry="8" fill="rgba(239, 68, 68, 1)" stroke="rgba(229, 231, 235, 1)" stroke-width="2"></rect><text x="-2593.5" y="-517.3" fill="rgba(255, 255, 255, 1)" font-size="32" text-anchor="start" font-family="-apple-system, BlinkMacSystemFont, MiSans, system-ui, sans-serif">NameSpace单例</text><rect x="-1239.2" y="1696.2" width="104.0" height="76.0" rx="8" ry="8" fill="rgba(0, 0, 0, 0)" stroke="rgba(229, 231, 235, 1)" stroke-width="2"></rect><text x="-1225.2" y="1748.2" fill="rgba(255, 255, 255, 1)" font-size="32" text-anchor="start" font-family="-apple-system, BlinkMacSystemFont, MiSans, system-ui, sans-serif">双向关系</text><rect x="-1062.8" y="1698.4" width="104.0" height="76.0" rx="8" ry="8" fill="rgba(0, 0, 0, 0)" stroke="rgba(229, 231, 235, 1)" stroke-width="2"></rect><text x="-1048.8" y="1750.4" fill="rgba(255, 255, 255, 1)" font-size="32" text-anchor="start" font-family="-apple-system, BlinkMacSystemFont, MiSans, system-ui, sans-serif">单向关系</text><rect x="634.6" y="1217.1" width="123.0" height="76.0" rx="8" ry="8" fill="rgba(59, 130, 246, 1)" stroke="rgba(229, 231, 235, 1)" stroke-width="2"></rect><text x="648.6" y="1269.1" fill="rgba(255, 255, 255, 1)" font-size="32" text-anchor="start" font-family="-apple-system, BlinkMacSystemFont, MiSans, system-ui, sans-serif">烟雾弹遮罩</text><rect x="842.7" y="1214.6" width="66.0" height="76.0" rx="8" ry="8" fill="rgba(59, 130, 246, 1)" stroke="rgba(229, 231, 235, 1)" stroke-width="2"></rect><text x="856.7" y="1266.6" fill="rgba(255, 255, 255, 1)" font-size="32" text-anchor="start" font-family="-apple-system, BlinkMacSystemFont, MiSans, system-ui, sans-serif">烟花</text><rect x="-1908.9" y="1295.1" width="306.0" height="76.0" rx="8" ry="8" fill="rgba(168, 85, 247, 1)" stroke="rgba(229, 231, 235, 1)" stroke-width="2"></rect><text x="-1894.9" y="1347.1" fill="rgba(255, 255, 255, 1)" font-size="32" text-anchor="start" font-family="-apple-system, BlinkMacSystemFont, MiSans, system-ui, sans-serif">AssociationEffect</text><rect x="-2132.7" y="1699.4" width="123.0" height="76.0" rx="8" ry="8" fill="rgba(0, 0, 0, 0)" stroke="rgba(229, 231, 235, 1)" stroke-width="2"></rect><text x="-2118.7" y="1751.4" fill="rgba(255, 255, 255, 1)" font-size="32" text-anchor="start" font-family="-apple-system, BlinkMacSystemFont, MiSans, system-ui, sans-serif">引力波特效</text><rect x="-2607.5" y="-491.5" width="66.0" height="76.0" rx="8" ry="8" fill="rgba(234, 179, 8, 1)" stroke="rgba(229, 231, 235, 1)" stroke-width="2"></rect><text x="-2593.5" y="-439.5" fill="rgba(0, 0, 0, 1)" font-size="32" text-anchor="start" font-family="-apple-system, BlinkMacSystemFont, MiSans, system-ui, sans-serif">对象</text><rect x="-3120.7" y="618.8" width="66.0" height="76.0" rx="8" ry="8" fill="rgba(59, 130, 246, 1)" stroke="rgba(229, 231, 235, 1)" stroke-width="2"></rect><text x="-3106.7" y="670.8" fill="rgba(255, 255, 255, 1)" font-size="32" text-anchor="start" font-family="-apple-system, BlinkMacSystemFont, MiSans, system-ui, sans-serif">矩形</text><rect x="-2997.0" y="618.8" width="66.0" height="76.0" rx="8" ry="8" fill="rgba(59, 130, 246, 1)" stroke="rgba(229, 231, 235, 1)" stroke-width="2"></rect><text x="-2983.0" y="670.8" fill="rgba(255, 255, 255, 1)" font-size="32" text-anchor="start" font-family="-apple-system, BlinkMacSystemFont, MiSans, system-ui, sans-serif">圆形</text><rect x="-2873.3" y="618.8" width="85.0" height="76.0" rx="8" ry="8" fill="rgba(59, 130, 246, 1)" stroke="rgba(229, 231, 235, 1)" stroke-width="2"></rect><text x="-2859.3" y="670.8" fill="rgba(255, 255, 255, 1)" font-size="32" text-anchor="start" font-family="-apple-system, BlinkMacSystemFont, MiSans, system-ui, sans-serif">线段形</text><rect x="-2717.6" y="618.8" width="47.0" height="76.0" rx="8" ry="8" fill="rgba(59, 130, 246, 1)" stroke="rgba(229, 231, 235, 1)" stroke-width="2"></rect><text x="-2703.6" y="670.8" fill="rgba(255, 255, 255, 1)" font-size="32" text-anchor="start" font-family="-apple-system, BlinkMacSystemFont, MiSans, system-ui, sans-serif">点</text><rect x="-2625.9" y="618.8" width="142.0" height="76.0" rx="8" ry="8" fill="rgba(59, 130, 246, 1)" stroke="rgba(229, 231, 235, 1)" stroke-width="2"></rect><text x="-2611.9" y="670.8" fill="rgba(255, 255, 255, 1)" font-size="32" text-anchor="start" font-family="-apple-system, BlinkMacSystemFont, MiSans, system-ui, sans-serif">贝塞尔线段形</text><rect x="-527.4" y="-674.2" width="205.0" height="76.0" rx="8" ry="8" fill="rgba(22, 163, 74, 1)" stroke="rgba(229, 231, 235, 1)" stroke-width="2"></rect><text x="-513.4" y="-622.2" fill="rgba(255, 255, 255, 1)" font-size="32" text-anchor="start" font-family="-apple-system, BlinkMacSystemFont, MiSans, system-ui, sans-serif">Disposable</text><rect x="-551.5" y="11.8" width="66.0" height="76.0" rx="8" ry="8" fill="rgba(0, 0, 0, 0)" stroke="rgba(229, 231, 235, 1)" stroke-width="2"></rect><text x="-537.5" y="63.8" fill="rgba(255, 255, 255, 1)" font-size="32" text-anchor="start" font-family="-apple-system, BlinkMacSystemFont, MiSans, system-ui, sans-serif">字段</text><rect x="-863.7" y="56.6" width="123.0" height="76.0" rx="8" ry="8" fill="rgba(0, 0, 0, 0)" stroke="rgba(229, 231, 235, 1)" stroke-width="2"></rect><text x="-849.7" y="108.6" fill="rgba(255, 255, 255, 1)" font-size="32" text-anchor="start" font-family="-apple-system, BlinkMacSystemFont, MiSans, system-ui, sans-serif">渲染函数？</text><rect x="-780.3" y="-292.6" width="186.0" height="76.0" rx="8" ry="8" fill="rgba(0, 0, 0, 0)" stroke="rgba(229, 231, 235, 1)" stroke-width="2"></rect><text x="-766.3" y="-240.6" fill="rgba(255, 255, 255, 1)" font-size="32" text-anchor="start" font-family="-apple-system, BlinkMacSystemFont, MiSans, system-ui, sans-serif">Extension</text><rect x="-995.3" y="-289.1" width="66.0" height="76.0" rx="8" ry="8" fill="rgba(0, 0, 0, 0)" stroke="rgba(229, 231, 235, 1)" stroke-width="2"></rect><text x="-981.3" y="-237.1" fill="rgba(255, 255, 255, 1)" font-size="32" text-anchor="start" font-family="-apple-system, BlinkMacSystemFont, MiSans, system-ui, sans-serif">字段</text><rect x="-1255.1" y="-287.1" width="173.3" height="76.0" rx="8" ry="8" fill="rgba(0, 0, 0, 0)" stroke="rgba(229, 231, 235, 1)" stroke-width="2"></rect><text x="-1241.1" y="-235.1" fill="rgba(255, 255, 255, 1)" font-size="32" text-anchor="start" font-family="-apple-system, BlinkMacSystemFont, MiSans, system-ui, sans-serif">init(core)</text><rect x="-1805.8" y="102.1" width="104.0" height="76.0" rx="8" ry="8" fill="rgba(59, 130, 246, 1)" stroke="rgba(229, 231, 235, 1)" stroke-width="2"></rect><text x="-1791.8" y="154.1" fill="rgba(255, 255, 255, 1)" font-size="32" text-anchor="start" font-family="-apple-system, BlinkMacSystemFont, MiSans, system-ui, sans-serif">碰撞箱类</text><rect x="-1985.1" y="102.7" width="66.0" height="76.0" rx="8" ry="8" fill="rgba(0, 0, 0, 0)" stroke="rgba(229, 231, 235, 1)" stroke-width="2"></rect><text x="-1971.1" y="154.7" fill="rgba(255, 255, 255, 1)" font-size="32" text-anchor="start" font-family="-apple-system, BlinkMacSystemFont, MiSans, system-ui, sans-serif">字段</text><rect x="-2233.8" y="97.5" width="104.0" height="76.0" rx="8" ry="8" fill="rgba(0, 0, 0, 0)" stroke="rgba(229, 231, 235, 1)" stroke-width="2"></rect><text x="-2219.8" y="149.5" fill="rgba(255, 255, 255, 1)" font-size="32" text-anchor="start" font-family="-apple-system, BlinkMacSystemFont, MiSans, system-ui, sans-serif">图形数组</text><rect x="-2372.4" y="-207.4" width="142.0" height="76.0" rx="8" ry="8" fill="rgba(0, 0, 0, 0)" stroke="rgba(229, 231, 235, 1)" stroke-width="2"></rect><text x="-2358.4" y="-155.4" fill="rgba(255, 255, 255, 1)" font-size="32" text-anchor="start" font-family="-apple-system, BlinkMacSystemFont, MiSans, system-ui, sans-serif">鼠标是否在内</text><rect x="-2372.8" y="-128.7" width="142.0" height="76.0" rx="8" ry="8" fill="rgba(0, 0, 0, 0)" stroke="rgba(229, 231, 235, 1)" stroke-width="2"></rect><text x="-2358.8" y="-76.7" fill="rgba(255, 255, 255, 1)" font-size="32" text-anchor="start" font-family="-apple-system, BlinkMacSystemFont, MiSans, system-ui, sans-serif">鼠标是否框选</text><rect x="-2375.8" y="-48.4" width="142.0" height="76.0" rx="8" ry="8" fill="rgba(0, 0, 0, 0)" stroke="rgba(229, 231, 235, 1)" stroke-width="2"></rect><text x="-2361.8" y="3.6" fill="rgba(255, 255, 255, 1)" font-size="32" text-anchor="start" font-family="-apple-system, BlinkMacSystemFont, MiSans, system-ui, sans-serif">划线是否切中</text><rect x="-2232.8" y="-350.0" width="142.0" height="76.0" rx="8" ry="8" fill="rgba(0, 0, 0, 0)" stroke="rgba(229, 231, 235, 1)" stroke-width="2"></rect><text x="-2218.8" y="-298.0" fill="rgba(255, 255, 255, 1)" font-size="32" text-anchor="start" font-family="-apple-system, BlinkMacSystemFont, MiSans, system-ui, sans-serif">更新形状数组</text><rect x="2.6" y="965.3" width="197.8" height="76.0" rx="8" ry="8" fill="rgba(59, 130, 246, 1)" stroke="rgba(229, 231, 235, 1)" stroke-width="2"></rect><text x="16.6" y="1017.3" fill="rgba(255, 255, 255, 1)" font-size="32" text-anchor="start" font-family="-apple-system, BlinkMacSystemFont, MiSans, system-ui, sans-serif">VeenCircle</text><rect x="-330.0" y="1296.3" width="382.8" height="76.0" rx="8" ry="8" fill="rgba(59, 130, 246, 1)" stroke="rgba(229, 231, 235, 1)" stroke-width="2"></rect><text x="-316.0" y="1348.3" fill="rgba(255, 255, 255, 1)" font-size="32" text-anchor="start" font-family="-apple-system, BlinkMacSystemFont, MiSans, system-ui, sans-serif">VeenCircleAssociation</text><rect x="-214.0" y="-669.2" width="161.5" height="76.0" rx="8" ry="8" fill="rgba(22, 163, 74, 1)" stroke="rgba(229, 231, 235, 1)" stroke-width="2"></rect><text x="-200.0" y="-617.2" fill="rgba(255, 255, 255, 1)" font-size="32" text-anchor="start" font-family="-apple-system, BlinkMacSystemFont, MiSans, system-ui, sans-serif">Tickable</text><rect x="544.0" y="-741.4" width="85.0" height="76.0" rx="8" ry="8" fill="rgba(0, 0, 0, 0)" stroke="rgba(229, 231, 235, 1)" stroke-width="2"></rect><text x="558.0" y="-689.4" fill="rgba(255, 255, 255, 1)" font-size="32" text-anchor="start" font-family="-apple-system, BlinkMacSystemFont, MiSans, system-ui, sans-serif">新设计</text><rect x="806.5" y="-1279.7" width="490.0" height="76.0" rx="8" ry="8" fill="rgba(0, 0, 0, 0)" stroke="rgba(229, 231, 235, 1)" stroke-width="2"></rect><text x="820.5" y="-1227.7" fill="rgba(255, 255, 255, 1)" font-size="32" text-anchor="start" font-family="-apple-system, BlinkMacSystemFont, MiSans, system-ui, sans-serif">onObjectClick(mouseButton)</text><rect x="1008.6" y="-1198.7" width="604.0" height="76.0" rx="8" ry="8" fill="rgba(0, 0, 0, 0)" stroke="rgba(229, 231, 235, 1)" stroke-width="2"></rect><text x="1022.6" y="-1146.7" fill="rgba(255, 255, 255, 1)" font-size="32" text-anchor="start" font-family="-apple-system, BlinkMacSystemFont, MiSans, system-ui, sans-serif">onObjectDoubleClick(mouseButton)</text><rect x="175.3" y="-1083.7" width="346.0" height="76.0" rx="8" ry="8" fill="rgba(0, 0, 0, 0)" stroke="rgba(229, 231, 235, 1)" stroke-width="2"></rect><text x="189.3" y="-1031.7" fill="rgba(255, 255, 255, 1)" font-size="32" text-anchor="start" font-family="-apple-system, BlinkMacSystemFont, MiSans, system-ui, sans-serif">onMouseMoveEnter</text><rect x="120.3" y="-1001.3" width="356.4" height="76.0" rx="8" ry="8" fill="rgba(0, 0, 0, 0)" stroke="rgba(229, 231, 235, 1)" stroke-width="2"></rect><text x="134.3" y="-949.3" fill="rgba(255, 255, 255, 1)" font-size="32" text-anchor="start" font-family="-apple-system, BlinkMacSystemFont, MiSans, system-ui, sans-serif">onMouseMoveLeave</text><rect x="1193.1" y="-853.5" width="390.0" height="76.0" rx="8" ry="8" fill="rgba(0, 0, 0, 0)" stroke="rgba(229, 231, 235, 1)" stroke-width="2"></rect><text x="1207.1" y="-801.5" fill="rgba(255, 255, 255, 1)" font-size="32" text-anchor="start" font-family="-apple-system, BlinkMacSystemFont, MiSans, system-ui, sans-serif">onRectangleSelectAdd</text><rect x="1195.1" y="-773.9" width="459.1" height="76.0" rx="8" ry="8" fill="rgba(0, 0, 0, 0)" stroke="rgba(229, 231, 235, 1)" stroke-width="2"></rect><text x="1209.1" y="-721.9" fill="rgba(255, 255, 255, 1)" font-size="32" text-anchor="start" font-family="-apple-system, BlinkMacSystemFont, MiSans, system-ui, sans-serif">onRectangleSelectRemove</text><rect x="1145.4" y="-1018.0" width="473.0" height="76.0" rx="8" ry="8" fill="rgba(0, 0, 0, 0)" stroke="rgba(229, 231, 235, 1)" stroke-width="2"></rect><text x="1159.4" y="-966.0" fill="rgba(255, 255, 255, 1)" font-size="32" text-anchor="start" font-family="-apple-system, BlinkMacSystemFont, MiSans, system-ui, sans-serif">onDragMove(mouseButton)</text><rect x="1197.9" y="-696.4" width="526.7" height="76.0" rx="8" ry="8" fill="rgba(0, 0, 0, 0)" stroke="rgba(229, 231, 235, 1)" stroke-width="2"></rect><text x="1211.9" y="-644.4" fill="rgba(255, 255, 255, 1)" font-size="32" text-anchor="start" font-family="-apple-system, BlinkMacSystemFont, MiSans, system-ui, sans-serif">_rectangleSelectLevel: number</text><rect x="876.7" y="-761.9" width="104.0" height="76.0" rx="8" ry="8" fill="rgba(0, 0, 0, 0)" stroke="rgba(229, 231, 235, 1)" stroke-width="2"></rect><text x="890.7" y="-709.9" fill="rgba(255, 255, 255, 1)" font-size="32" text-anchor="start" font-family="-apple-system, BlinkMacSystemFont, MiSans, system-ui, sans-serif">框选相关</text><rect x="1181.1" y="-527.3" width="296.4" height="76.0" rx="8" ry="8" fill="rgba(0, 0, 0, 0)" stroke="rgba(229, 231, 235, 1)" stroke-width="2"></rect><text x="1195.1" y="-475.3" fill="rgba(255, 255, 255, 1)" font-size="32" text-anchor="start" font-family="-apple-system, BlinkMacSystemFont, MiSans, system-ui, sans-serif">onLineSelectAdd</text><rect x="1190.0" y="-439.4" width="365.6" height="76.0" rx="8" ry="8" fill="rgba(0, 0, 0, 0)" stroke="rgba(229, 231, 235, 1)" stroke-width="2"></rect><text x="1204.0" y="-387.4" fill="rgba(255, 255, 255, 1)" font-size="32" text-anchor="start" font-family="-apple-system, BlinkMacSystemFont, MiSans, system-ui, sans-serif">onLineSelectRemove</text><rect x="908.3" y="-511.6" width="123.0" height="76.0" rx="8" ry="8" fill="rgba(0, 0, 0, 0)" stroke="rgba(229, 231, 235, 1)" stroke-width="2"></rect><text x="922.3" y="-459.6" fill="rgba(255, 255, 255, 1)" font-size="32" text-anchor="start" font-family="-apple-system, BlinkMacSystemFont, MiSans, system-ui, sans-serif">删除线相关</text><rect x="1181.6" y="-353.7" width="175.0" height="76.0" rx="8" ry="8" fill="rgba(0, 0, 0, 0)" stroke="rgba(229, 231, 235, 1)" stroke-width="2"></rect><text x="1195.6" y="-301.7" fill="rgba(255, 255, 255, 1)" font-size="32" text-anchor="start" font-family="-apple-system, BlinkMacSystemFont, MiSans, system-ui, sans-serif">onDelete</text><rect x="15.1" y="-887.6" width="348.3" height="76.0" rx="8" ry="8" fill="rgba(0, 0, 0, 0)" stroke="rgba(229, 231, 235, 1)" stroke-width="2"></rect><text x="29.1" y="-835.6" fill="rgba(255, 255, 255, 1)" font-size="32" text-anchor="start" font-family="-apple-system, BlinkMacSystemFont, MiSans, system-ui, sans-serif">onControlWheel(dy)</text><line x1="486.8" y1="52.7" x2="-70.9" y2="50.3" stroke="rgba(229, 231, 235, 1)" stroke-width="2"></line><polygon points="-70.9,50.3 -56.4,54.2 -63.4,50.3 -56.4,46.5" fill="rgba(229, 231, 235, 1)" stroke="rgba(229, 231, 235, 1)"></polygon><line x1="1112.0" y1="1826.1" x2="1310.4" y2="1037.6" stroke="rgba(229, 231, 235, 1)" stroke-width="2"></line><polygon points="1310.4,1037.6 1303.1,1050.7 1308.5,1044.9 1310.6,1052.6" fill="rgba(229, 231, 235, 1)" stroke="rgba(229, 231, 235, 1)"></polygon><line x1="1303.5" y1="1829.9" x2="1319.2" y2="1037.6" stroke="rgba(229, 231, 235, 1)" stroke-width="2"></line><polygon points="1319.2,1037.6 1315.0,1052.0 1319.0,1045.1 1322.8,1052.2" fill="rgba(229, 231, 235, 1)" stroke="rgba(229, 231, 235, 1)"></polygon><line x1="1529.2" y1="1833.7" x2="1329.5" y2="1037.6" stroke="rgba(229, 231, 235, 1)" stroke-width="2"></line><polygon points="1329.5,1037.6 1329.2,1052.6 1331.3,1044.9 1336.8,1050.7" fill="rgba(229, 231, 235, 1)" stroke="rgba(229, 231, 235, 1)"></polygon><line x1="1814.9" y1="1828.1" x2="1342.6" y2="1037.6" stroke="rgba(229, 231, 235, 1)" stroke-width="2"></line><polygon points="1342.6,1037.6 1346.7,1052.0 1346.5,1044.0 1353.4,1048.1" fill="rgba(229, 231, 235, 1)" stroke="rgba(229, 231, 235, 1)"></polygon><line x1="2080.6" y1="1826.1" x2="1354.9" y2="1037.6" stroke="rgba(229, 231, 235, 1)" stroke-width="2"></line><polygon points="1354.9,1037.6 1361.9,1050.9 1360.0,1043.1 1367.6,1045.6" fill="rgba(229, 231, 235, 1)" stroke="rgba(229, 231, 235, 1)"></polygon><line x1="1552.3" y1="997.7" x2="1481.9" y2="998.3" stroke="rgba(229, 231, 235, 1)" stroke-width="2"></line><polygon points="1481.9,998.3 1496.4,1002.1 1489.4,998.3 1496.4,994.3" fill="rgba(229, 231, 235, 1)" stroke="rgba(229, 231, 235, 1)"></polygon><line x1="924.1" y1="1630.8" x2="1296.1" y2="1037.6" stroke="rgba(229, 231, 235, 1)" stroke-width="2"></line><polygon points="1296.1,1037.6 1285.1,1047.8 1292.1,1044.0 1291.7,1051.9" fill="rgba(229, 231, 235, 1)" stroke="rgba(229, 231, 235, 1)"></polygon><line x1="826.3" y1="1668.6" x2="813.2" y2="1668.5" stroke="rgba(229, 231, 235, 1)" stroke-width="2"></line><polygon points="813.2,1668.5 827.7,1672.5 820.7,1668.6 827.7,1664.7" fill="rgba(229, 231, 235, 1)" stroke="rgba(229, 231, 235, 1)"></polygon><line x1="395.1" y1="355.9" x2="-112.0" y2="87.8" stroke="rgba(229, 231, 235, 1)" stroke-width="2"></line><polygon points="-112.0,87.8 -101.0,98.0 -105.4,91.3 -97.4,91.2" fill="rgba(229, 231, 235, 1)" stroke="rgba(229, 231, 235, 1)"></polygon><line x1="1266.2" y1="961.6" x2="509.7" y2="426.1" stroke="rgba(229, 231, 235, 1)" stroke-width="2"></line><polygon points="509.7,426.1 519.3,437.7 515.9,430.5 523.8,431.3" fill="rgba(229, 231, 235, 1)" stroke="rgba(229, 231, 235, 1)"></polygon><line x1="959.8" y1="970.0" x2="489.0" y2="426.1" stroke="rgba(229, 231, 235, 1)" stroke-width="2"></line><polygon points="489.0,426.1 495.5,439.6 493.9,431.8 501.4,434.6" fill="rgba(229, 231, 235, 1)" stroke="rgba(229, 231, 235, 1)"></polygon><line x1="780.0" y1="964.9" x2="477.4" y2="426.1" stroke="rgba(229, 231, 235, 1)" stroke-width="2"></line><polygon points="477.4,426.1 481.1,440.7 481.1,432.7 487.9,436.9" fill="rgba(229, 231, 235, 1)" stroke="rgba(229, 231, 235, 1)"></polygon><line x1="613.5" y1="-82.9" x2="806.3" y2="-84.4" stroke="rgba(229, 231, 235, 1)" stroke-width="2"></line><polygon points="806.3,-84.4 791.8,-88.2 798.8,-84.4 791.8,-80.4" fill="rgba(229, 231, 235, 1)" stroke="rgba(229, 231, 235, 1)"></polygon><line x1="960.3" y1="-100.7" x2="1180.0" y2="-145.3" stroke="rgba(229, 231, 235, 1)" stroke-width="2"></line><polygon points="1180.0,-145.3 1165.0,-146.2 1172.7,-143.8 1166.6,-138.6" fill="rgba(229, 231, 235, 1)" stroke="rgba(229, 231, 235, 1)"></polygon><line x1="960.3" y1="-85.3" x2="1188.2" y2="-86.1" stroke="rgba(229, 231, 235, 1)" stroke-width="2"></line><polygon points="1188.2,-86.1 1173.7,-89.9 1180.7,-86.0 1173.7,-82.1" fill="rgba(229, 231, 235, 1)" stroke="rgba(229, 231, 235, 1)"></polygon><line x1="960.3" y1="-68.4" x2="1188.2" y2="-19.2" stroke="rgba(229, 231, 235, 1)" stroke-width="2"></line><polygon points="1188.2,-19.2 1174.9,-26.1 1180.9,-20.8 1173.2,-18.5" fill="rgba(229, 231, 235, 1)" stroke="rgba(229, 231, 235, 1)"></polygon><line x1="-898.6" y1="348.5" x2="-274.8" y2="87.8" stroke="rgba(229, 231, 235, 1)" stroke-width="2"></line><polygon points="-274.8,87.8 -289.7,89.8 -281.7,90.7 -286.7,97.0" fill="rgba(229, 231, 235, 1)" stroke="rgba(229, 231, 235, 1)"></polygon><line x1="-1650.1" y1="344.8" x2="-1096.0" y2="379.7" stroke="rgba(229, 231, 235, 1)" stroke-width="2"></line><polygon points="-1096.0,379.7 -1110.2,375.0 -1103.5,379.3 -1110.7,382.7" fill="rgba(229, 231, 235, 1)" stroke="rgba(229, 231, 235, 1)"></polygon><line x1="-1754.5" y1="416.0" x2="-1096.0" y2="390.6" stroke="rgba(229, 231, 235, 1)" stroke-width="2"></line><polygon points="-1096.0,390.6 -1110.6,387.2 -1103.5,390.9 -1110.3,395.0" fill="rgba(229, 231, 235, 1)" stroke="rgba(229, 231, 235, 1)"></polygon><line x1="-1726.0" y1="1695.1" x2="-1412.4" y2="1372.2" stroke="rgba(229, 231, 235, 1)" stroke-width="2"></line><polygon points="-1412.4,1372.2 -1425.3,1379.9 -1417.6,1377.6 -1419.7,1385.3" fill="rgba(229, 231, 235, 1)" stroke="rgba(229, 231, 235, 1)"></polygon><line x1="-579.4" y1="1297.7" x2="-972.4" y2="424.5" stroke="rgba(229, 231, 235, 1)" stroke-width="2"></line><polygon points="-972.4,424.5 -970.0,439.3 -969.3,431.3 -962.9,436.1" fill="rgba(229, 231, 235, 1)" stroke="rgba(229, 231, 235, 1)"></polygon><line x1="-2142.3" y1="1301.8" x2="-1037.3" y2="424.5" stroke="rgba(229, 231, 235, 1)" stroke-width="2"></line><polygon points="-1037.3,424.5 -1051.1,430.4 -1043.2,429.1 -1046.3,436.5" fill="rgba(229, 231, 235, 1)" stroke="rgba(229, 231, 235, 1)"></polygon><line x1="-578.3" y1="1761.7" x2="-563.7" y2="1373.7" stroke="rgba(229, 231, 235, 1)" stroke-width="2"></line><polygon points="-563.7,1373.7 -568.1,1388.0 -564.0,1381.2 -560.4,1388.3" fill="rgba(229, 231, 235, 1)" stroke="rgba(229, 231, 235, 1)"></polygon><line x1="-766.5" y1="1761.1" x2="-580.5" y2="1373.7" stroke="rgba(229, 231, 235, 1)" stroke-width="2"></line><polygon points="-580.5,1373.7 -590.3,1385.0 -583.8,1380.4 -583.3,1388.4" fill="rgba(229, 231, 235, 1)" stroke="rgba(229, 231, 235, 1)"></polygon><line x1="743.4" y1="352.4" x2="517.1" y2="380.6" stroke="rgba(229, 231, 235, 1)" stroke-width="2"></line><polygon points="517.1,380.6 531.9,382.6 524.5,379.6 531.0,374.9" fill="rgba(229, 231, 235, 1)" stroke="rgba(229, 231, 235, 1)"></polygon><line x1="743.4" y1="402.9" x2="517.1" y2="391.3" stroke="rgba(229, 231, 235, 1)" stroke-width="2"></line><polygon points="517.1,391.3 531.3,395.9 524.6,391.7 531.7,388.1" fill="rgba(229, 231, 235, 1)" stroke="rgba(229, 231, 235, 1)"></polygon><line x1="490.1" y1="964.9" x2="458.3" y2="426.1" stroke="rgba(229, 231, 235, 1)" stroke-width="2"></line><polygon points="458.3,426.1 455.3,440.8 458.7,433.6 463.0,440.4" fill="rgba(229, 231, 235, 1)" stroke="rgba(229, 231, 235, 1)"></polygon><line x1="-988.3" y1="1297.9" x2="-989.4" y2="424.5" stroke="rgba(229, 231, 235, 1)" stroke-width="2"></line><polygon points="-989.4,424.5 -993.3,438.9 -989.4,432.0 -985.5,438.9" fill="rgba(229, 231, 235, 1)" stroke="rgba(229, 231, 235, 1)"></polygon><line x1="492.2" y1="1215.7" x2="492.3" y2="1040.9" stroke="rgba(229, 231, 235, 1)" stroke-width="2"></line><polygon points="492.3,1040.9 488.4,1055.4 492.3,1048.4 496.2,1055.4" fill="rgba(229, 231, 235, 1)" stroke="rgba(229, 231, 235, 1)"></polygon><line x1="311.9" y1="1219.0" x2="460.6" y2="1040.9" stroke="rgba(229, 231, 235, 1)" stroke-width="2"></line><polygon points="460.6,1040.9 448.4,1049.6 455.8,1046.7 454.3,1054.5" fill="rgba(229, 231, 235, 1)" stroke="rgba(229, 231, 235, 1)"></polygon><line x1="497.5" y1="-72.1" x2="-70.9" y2="29.6" stroke="rgba(229, 231, 235, 1)" stroke-width="2"></line><polygon points="-70.9,29.6 -55.9,30.9 -63.5,28.3 -57.3,23.2" fill="rgba(229, 231, 235, 1)" stroke="rgba(229, 231, 235, 1)"></polygon><line x1="957.6" y1="-47.0" x2="1169.0" y2="61.1" stroke="rgba(229, 231, 235, 1)" stroke-width="2"></line><polygon points="1169.0,61.1 1157.8,51.1 1162.3,57.7 1154.3,58.0" fill="rgba(229, 231, 235, 1)" stroke="rgba(229, 231, 235, 1)"></polygon><line x1="-1360.0" y1="1296.2" x2="-1005.0" y2="424.5" stroke="rgba(229, 231, 235, 1)" stroke-width="2"></line><polygon points="-1005.0,424.5 -1014.0,436.4 -1007.8,431.4 -1006.8,439.3" fill="rgba(229, 231, 235, 1)" stroke="rgba(229, 231, 235, 1)"></polygon><line x1="-1494.2" y1="1693.5" x2="-1388.0" y2="1372.2" stroke="rgba(229, 231, 235, 1)" stroke-width="2"></line><polygon points="-1388.0,1372.2 -1396.3,1384.7 -1390.4,1379.3 -1388.9,1387.2" fill="rgba(229, 231, 235, 1)" stroke="rgba(229, 231, 235, 1)"></polygon><line x1="-1168.3" y1="1696.2" x2="-1007.2" y2="1373.9" stroke="rgba(229, 231, 235, 1)" stroke-width="2"></line><polygon points="-1007.2,1373.9 -1017.2,1385.2 -1010.6,1380.7 -1010.2,1388.6" fill="rgba(229, 231, 235, 1)" stroke="rgba(229, 231, 235, 1)"></polygon><line x1="-1008.6" y1="1698.4" x2="-990.3" y2="1373.9" stroke="rgba(229, 231, 235, 1)" stroke-width="2"></line><polygon points="-990.3,1373.9 -995.0,1388.2 -990.8,1381.4 -987.3,1388.6" fill="rgba(229, 231, 235, 1)" stroke="rgba(229, 231, 235, 1)"></polygon><line x1="711.9" y1="1217.1" x2="785.5" y2="1040.9" stroke="rgba(229, 231, 235, 1)" stroke-width="2"></line><polygon points="785.5,1040.9 776.3,1052.8 782.6,1047.8 783.5,1055.7" fill="rgba(229, 231, 235, 1)" stroke="rgba(229, 231, 235, 1)"></polygon><line x1="864.4" y1="1214.6" x2="812.7" y2="1040.9" stroke="rgba(229, 231, 235, 1)" stroke-width="2"></line><polygon points="812.7,1040.9 813.1,1055.9 814.8,1048.1 820.5,1053.7" fill="rgba(229, 231, 235, 1)" stroke="rgba(229, 231, 235, 1)"></polygon><line x1="-1725.1" y1="1295.1" x2="-1020.3" y2="424.5" stroke="rgba(229, 231, 235, 1)" stroke-width="2"></line><polygon points="-1020.3,424.5 -1032.4,433.3 -1025.0,430.3 -1026.4,438.2" fill="rgba(229, 231, 235, 1)" stroke="rgba(229, 231, 235, 1)"></polygon><line x1="-2041.6" y1="1699.4" x2="-1785.6" y2="1371.1" stroke="rgba(229, 231, 235, 1)" stroke-width="2"></line><polygon points="-1785.6,1371.1 -1797.5,1380.2 -1790.2,1377.1 -1791.4,1385.0" fill="rgba(229, 231, 235, 1)" stroke="rgba(229, 231, 235, 1)"></polygon><line x1="-3063.2" y1="618.8" x2="-2776.2" y2="173.8" stroke="rgba(229, 231, 235, 1)" stroke-width="2"></line><polygon points="-2776.2,173.8 -2787.3,183.8 -2780.3,180.1 -2780.8,188.1" fill="rgba(229, 231, 235, 1)" stroke="rgba(229, 231, 235, 1)"></polygon><line x1="-2948.5" y1="618.8" x2="-2767.2" y2="173.8" stroke="rgba(229, 231, 235, 1)" stroke-width="2"></line><polygon points="-2767.2,173.8 -2776.2,185.7 -2770.0,180.7 -2769.1,188.7" fill="rgba(229, 231, 235, 1)" stroke="rgba(229, 231, 235, 1)"></polygon><line x1="-2825.1" y1="618.8" x2="-2757.5" y2="173.8" stroke="rgba(229, 231, 235, 1)" stroke-width="2"></line><polygon points="-2757.5,173.8 -2763.5,187.5 -2758.6,181.2 -2755.8,188.7" fill="rgba(229, 231, 235, 1)" stroke="rgba(229, 231, 235, 1)"></polygon><line x1="-2698.3" y1="618.8" x2="-2747.5" y2="173.8" stroke="rgba(229, 231, 235, 1)" stroke-width="2"></line><polygon points="-2747.5,173.8 -2749.8,188.6 -2746.7,181.2 -2742.0,187.7" fill="rgba(229, 231, 235, 1)" stroke="rgba(229, 231, 235, 1)"></polygon><line x1="-2569.3" y1="618.8" x2="-2737.3" y2="173.8" stroke="rgba(229, 231, 235, 1)" stroke-width="2"></line><polygon points="-2737.3,173.8 -2735.9,188.7 -2734.7,180.8 -2728.6,186.0" fill="rgba(229, 231, 235, 1)" stroke="rgba(229, 231, 235, 1)"></polygon><line x1="-197.2" y1="11.8" x2="-411.5" y2="-598.2" stroke="rgba(229, 231, 235, 1)" stroke-width="2"></line><polygon points="-411.5,-598.2 -410.4,-583.3 -409.0,-591.2 -403.0,-585.9" fill="rgba(229, 231, 235, 1)" stroke="rgba(229, 231, 235, 1)"></polygon><line x1="-296.9" y1="49.8" x2="-485.5" y2="49.8" stroke="rgba(229, 231, 235, 1)" stroke-width="2"></line><polygon points="-485.5,49.8 -471.1,53.7 -478.0,49.8 -471.1,45.9" fill="rgba(229, 231, 235, 1)" stroke="rgba(229, 231, 235, 1)"></polygon><line x1="-551.5" y1="42.9" x2="-707.0" y2="10.5" stroke="rgba(229, 231, 235, 1)" stroke-width="2"></line><polygon points="-707.0,10.5 -693.6,17.2 -699.6,12.0 -692.0,9.6" fill="rgba(229, 231, 235, 1)" stroke="rgba(229, 231, 235, 1)"></polygon><line x1="-551.5" y1="55.0" x2="-740.7" y2="84.8" stroke="rgba(229, 231, 235, 1)" stroke-width="2"></line><polygon points="-740.7,84.8 -725.7,86.4 -733.3,83.7 -727.0,78.8" fill="rgba(229, 231, 235, 1)" stroke="rgba(229, 231, 235, 1)"></polygon><line x1="-451.0" y1="-598.2" x2="-661.2" y2="-292.6" stroke="rgba(229, 231, 235, 1)" stroke-width="2"></line><polygon points="-661.2,-292.6 -649.8,-302.3 -656.9,-298.7 -656.2,-306.7" fill="rgba(229, 231, 235, 1)" stroke="rgba(229, 231, 235, 1)"></polygon><line x1="-780.3" y1="-253.4" x2="-929.3" y2="-251.5" stroke="rgba(229, 231, 235, 1)" stroke-width="2"></line><polygon points="-929.3,-251.5 -914.8,-247.8 -921.8,-251.6 -914.9,-255.6" fill="rgba(229, 231, 235, 1)" stroke="rgba(229, 231, 235, 1)"></polygon><line x1="-995.3" y1="-250.8" x2="-1081.8" y2="-250.0" stroke="rgba(229, 231, 235, 1)" stroke-width="2"></line><polygon points="-1081.8,-250.0 -1067.2,-246.2 -1074.3,-250.0 -1067.3,-254.0" fill="rgba(229, 231, 235, 1)" stroke="rgba(229, 231, 235, 1)"></polygon><line x1="-1805.8" y1="140.2" x2="-1919.1" y2="140.6" stroke="rgba(229, 231, 235, 1)" stroke-width="2"></line><polygon points="-1919.1,140.6 -1904.6,144.4 -1911.6,140.5 -1904.7,136.6" fill="rgba(229, 231, 235, 1)" stroke="rgba(229, 231, 235, 1)"></polygon><line x1="-1985.1" y1="139.9" x2="-2129.8" y2="136.6" stroke="rgba(229, 231, 235, 1)" stroke-width="2"></line><polygon points="-2129.8,136.6 -2115.4,140.9 -2122.3,136.8 -2115.2,133.1" fill="rgba(229, 231, 235, 1)" stroke="rgba(229, 231, 235, 1)"></polygon><line x1="-2233.8" y1="135.5" x2="-2661.7" y2="135.7" stroke="rgba(229, 231, 235, 1)" stroke-width="2"></line><polygon points="-2661.7,135.7 -2647.2,139.6 -2654.2,135.7 -2647.2,131.8" fill="rgba(229, 231, 235, 1)" stroke="rgba(229, 231, 235, 1)"></polygon><line x1="-1985.1" y1="111.4" x2="-2258.6" y2="-131.4" stroke="rgba(229, 231, 235, 1)" stroke-width="2"></line><polygon points="-2258.6,-131.4 -2250.3,-118.9 -2253.0,-126.4 -2245.2,-124.7" fill="rgba(229, 231, 235, 1)" stroke="rgba(229, 231, 235, 1)"></polygon><line x1="-1985.1" y1="118.8" x2="-2244.4" y2="-52.7" stroke="rgba(229, 231, 235, 1)" stroke-width="2"></line><polygon points="-2244.4,-52.7 -2234.4,-41.4 -2238.1,-48.5 -2230.1,-47.9" fill="rgba(229, 231, 235, 1)" stroke="rgba(229, 231, 235, 1)"></polygon><line x1="-1985.1" y1="126.5" x2="-2233.8" y2="20.1" stroke="rgba(229, 231, 235, 1)" stroke-width="2"></line><polygon points="-2233.8,20.1 -2222.0,29.3 -2226.9,23.0 -2218.9,22.2" fill="rgba(229, 231, 235, 1)" stroke="rgba(229, 231, 235, 1)"></polygon><line x1="-1969.7" y1="102.7" x2="-2144.2" y2="-274.0" stroke="rgba(229, 231, 235, 1)" stroke-width="2"></line><polygon points="-2144.2,-274.0 -2141.6,-259.2 -2141.1,-267.2 -2134.6,-262.4" fill="rgba(229, 231, 235, 1)" stroke="rgba(229, 231, 235, 1)"></polygon><line x1="123.4" y1="965.3" x2="434.2" y2="426.1" stroke="rgba(229, 231, 235, 1)" stroke-width="2"></line><polygon points="434.2,426.1 423.6,436.8 430.4,432.6 430.3,440.6" fill="rgba(229, 231, 235, 1)" stroke="rgba(229, 231, 235, 1)"></polygon><line x1="-172.7" y1="1296.3" x2="-955.4" y2="424.5" stroke="rgba(229, 231, 235, 1)" stroke-width="2"></line><polygon points="-955.4,424.5 -948.6,437.8 -950.4,430.0 -942.8,432.6" fill="rgba(229, 231, 235, 1)" stroke="rgba(229, 231, 235, 1)"></polygon><line x1="-145.0" y1="11.8" x2="547.7" y2="-665.4" stroke="rgba(229, 231, 235, 1)" stroke-width="2"></line><polygon points="547.7,-665.4 534.6,-658.1 542.3,-660.2 540.0,-652.5" fill="rgba(229, 231, 235, 1)" stroke="rgba(229, 231, 235, 1)"></polygon><line x1="619.4" y1="-741.4" x2="1018.7" y2="-1203.7" stroke="rgba(229, 231, 235, 1)" stroke-width="2"></line><polygon points="1018.7,-1203.7 1006.3,-1195.3 1013.8,-1198.1 1012.2,-1190.2" fill="rgba(229, 231, 235, 1)" stroke="rgba(229, 231, 235, 1)"></polygon><line x1="629.0" y1="-730.3" x2="1250.4" y2="-1122.7" stroke="rgba(229, 231, 235, 1)" stroke-width="2"></line><polygon points="1250.4,-1122.7 1236.1,-1118.2 1244.1,-1118.7 1240.2,-1111.6" fill="rgba(229, 231, 235, 1)" stroke="rgba(229, 231, 235, 1)"></polygon><line x1="560.1" y1="-741.4" x2="374.8" y2="-1007.7" stroke="rgba(229, 231, 235, 1)" stroke-width="2"></line><polygon points="374.8,-1007.7 379.9,-993.6 379.1,-1001.5 386.2,-998.0" fill="rgba(229, 231, 235, 1)" stroke="rgba(229, 231, 235, 1)"></polygon><line x1="544.4" y1="-741.4" x2="340.6" y2="-925.3" stroke="rgba(229, 231, 235, 1)" stroke-width="2"></line><polygon points="340.6,-925.3 348.8,-912.7 346.2,-920.3 354.0,-918.5" fill="rgba(229, 231, 235, 1)" stroke="rgba(229, 231, 235, 1)"></polygon><line x1="629.0" y1="-718.2" x2="1272.6" y2="-942.0" stroke="rgba(229, 231, 235, 1)" stroke-width="2"></line><polygon points="1272.6,-942.0 1257.7,-940.9 1265.5,-939.5 1260.2,-933.6" fill="rgba(229, 231, 235, 1)" stroke="rgba(229, 231, 235, 1)"></polygon><line x1="980.7" y1="-734.3" x2="1197.5" y2="-777.5" stroke="rgba(229, 231, 235, 1)" stroke-width="2"></line><polygon points="1197.5,-777.5 1182.5,-778.4 1190.1,-776.0 1184.0,-770.8" fill="rgba(229, 231, 235, 1)" stroke="rgba(229, 231, 235, 1)"></polygon><line x1="980.7" y1="-725.2" x2="1195.1" y2="-730.4" stroke="rgba(229, 231, 235, 1)" stroke-width="2"></line><polygon points="1195.1,-730.4 1180.5,-733.9 1187.6,-730.2 1180.7,-726.1" fill="rgba(229, 231, 235, 1)" stroke="rgba(229, 231, 235, 1)"></polygon><line x1="980.7" y1="-717.5" x2="1197.9" y2="-690.8" stroke="rgba(229, 231, 235, 1)" stroke-width="2"></line><polygon points="1197.9,-690.8 1184.0,-696.4 1190.5,-691.7 1183.0,-688.7" fill="rgba(229, 231, 235, 1)" stroke="rgba(229, 231, 235, 1)"></polygon><line x1="629.0" y1="-706.0" x2="876.7" y2="-720.8" stroke="rgba(229, 231, 235, 1)" stroke-width="2"></line><polygon points="876.7,-720.8 862.0,-723.8 869.2,-720.3 862.5,-716.0" fill="rgba(229, 231, 235, 1)" stroke="rgba(229, 231, 235, 1)"></polygon><line x1="1031.3" y1="-476.3" x2="1181.1" y2="-482.8" stroke="rgba(229, 231, 235, 1)" stroke-width="2"></line><polygon points="1181.1,-482.8 1166.5,-486.1 1173.7,-482.5 1166.8,-478.3" fill="rgba(229, 231, 235, 1)" stroke="rgba(229, 231, 235, 1)"></polygon><line x1="1031.3" y1="-462.5" x2="1190.0" y2="-434.1" stroke="rgba(229, 231, 235, 1)" stroke-width="2"></line><polygon points="1190.0,-434.1 1176.4,-440.5 1182.6,-435.4 1175.1,-432.8" fill="rgba(229, 231, 235, 1)" stroke="rgba(229, 231, 235, 1)"></polygon><line x1="629.0" y1="-677.9" x2="908.3" y2="-510.4" stroke="rgba(229, 231, 235, 1)" stroke-width="2"></line><polygon points="908.3,-510.4 897.8,-521.2 901.8,-514.3 893.8,-514.6" fill="rgba(229, 231, 235, 1)" stroke="rgba(229, 231, 235, 1)"></polygon><line x1="1031.3" y1="-441.1" x2="1197.0" y2="-353.7" stroke="rgba(229, 231, 235, 1)" stroke-width="2"></line><polygon points="1197.0,-353.7 1186.0,-363.9 1190.4,-357.2 1182.4,-357.0" fill="rgba(229, 231, 235, 1)" stroke="rgba(229, 231, 235, 1)"></polygon><line x1="544.0" y1="-719.1" x2="292.6" y2="-811.6" stroke="rgba(229, 231, 235, 1)" stroke-width="2"></line><polygon points="292.6,-811.6 304.8,-802.9 299.6,-809.0 307.5,-810.2" fill="rgba(229, 231, 235, 1)" stroke="rgba(229, 231, 235, 1)"></polygon><rect x="-2637.5" y="-882.7" width="319.0" height="497.1" rx="8" ry="8" fill="rgba(0, 0, 0, 0)" stroke="rgba(229, 231, 235, 1)" stroke-width="2"></rect><text x="-2623.5" y="-852.7" fill="rgba(229, 231, 235, 1)" font-size="32" text-anchor="start" font-family="-apple-system, BlinkMacSystemFont, MiSans, system-ui, sans-serif">颜色表示</text></svg>