<svg xmlns="http://www.w3.org/2000/svg" width="3060.9033515979245" height="2657.8254684118547" viewBox="-1681.8800338991487 -1793.3917918546945 3060.9033515979245 2657.8254684118547" style="background-color:rgba(31, 31, 31, 1)"><rect x="-1651.8800338991487" y="110.32091663499858" width="189" height="76" rx="8" ry="8" fill="rgba(0, 0, 0, 0)" stroke="rgba(204, 204, 204, 1)" stroke-width="2"></rect><text x="-1557.3800338991487" y="162.32091663499858" fill="rgba(255, 255, 255, 1)" font-size="32" text-anchor="middle" font-family="MiSans">序列化json数据</text><rect x="-1600.0350470035874" y="-114.84532764852514" width="341" height="76" rx="8" ry="8" fill="rgba(0, 0, 0, 0)" stroke="rgba(204, 204, 204, 1)" stroke-width="2"></rect><text x="-1429.5350470035874" y="-62.84532764852514" fill="rgba(255, 255, 255, 1)" font-size="32" text-anchor="middle" font-family="MiSans">各种StageObject类的对象</text><rect x="-29.35273639300408" y="236.2726845531878" width="161" height="76" rx="8" ry="8" fill="rgba(0, 0, 0, 0)" stroke="rgba(204, 204, 204, 1)" stroke-width="2"></rect><text x="51.14726360699592" y="288.2726845531878" fill="rgba(255, 255, 255, 1)" font-size="32" text-anchor="middle" font-family="MiSans">数据结构与算法</text><rect x="-351.9714854655583" y="-175.8889085624134" width="123" height="76" rx="8" ry="8" fill="rgba(0, 0, 0, 0)" stroke="rgba(204, 204, 204, 1)" stroke-width="2"></rect><text x="-290.4714854655583" y="-123.8889085624134" fill="rgba(255, 255, 255, 1)" font-size="32" text-anchor="middle" font-family="MiSans">舞台管理器</text><rect x="-383.9714854655583" y="85.05563113727248" width="142" height="76" rx="8" ry="8" fill="rgba(0, 0, 0, 0)" stroke="rgba(204, 204, 204, 1)" stroke-width="2"></rect><text x="-312.9714854655583" y="137.05563113727248" fill="rgba(255, 255, 255, 1)" font-size="32" text-anchor="middle" font-family="MiSans">舞台基本元素</text><rect x="278.17856962926703" y="-224.05547164507345" width="170" height="76" rx="8" ry="8" fill="rgba(0, 0, 0, 0)" stroke="rgba(204, 204, 204, 1)" stroke-width="2"></rect><text x="363.17856962926703" y="-172.05547164507345" fill="rgba(255, 255, 255, 1)" font-size="32" text-anchor="middle" font-family="MiSans">DOM渲染器</text><rect x="278.17860706518763" y="-128.15703604780276" width="248" height="76" rx="8" ry="8" fill="rgba(0, 0, 0, 0)" stroke="rgba(204, 204, 204, 1)" stroke-width="2"></rect><text x="402.17860706518763" y="-76.15703604780276" fill="rgba(255, 255, 255, 1)" font-size="32" text-anchor="middle" font-family="MiSans">Canvas2D渲染器</text><rect x="278.17860706518763" y="-33.02167282463654" width="145" height="76" rx="8" ry="8" fill="rgba(0, 0, 0, 0)" stroke="rgba(204, 204, 204, 1)" stroke-width="2"></rect><text x="350.67860706518763" y="18.97832717536346" fill="rgba(255, 255, 255, 1)" font-size="32" text-anchor="middle" font-family="MiSans">Svg生成器</text><rect x="-830.7919614498546" y="-1078.1856366056454" width="142" height="76" rx="8" ry="8" fill="rgba(0, 0, 0, 0)" stroke="rgba(204, 204, 204, 1)" stroke-width="2"></rect><text x="-759.7919614498546" y="-1026.1856366056454" fill="rgba(255, 255, 255, 1)" font-size="32" text-anchor="middle" font-family="MiSans">自动计算引擎</text><rect x="685.2266787415012" y="-1257.6275366797913" width="104" height="76" rx="8" ry="8" fill="rgba(0, 0, 0, 0)" stroke="rgba(204, 204, 204, 1)" stroke-width="2"></rect><text x="737.2266787415012" y="-1205.6275366797913" fill="rgba(255, 255, 255, 1)" font-size="32" text-anchor="middle" font-family="MiSans">特效引擎</text><rect x="1150.0233176987758" y="-1002.8857678328216" width="142" height="76" rx="8" ry="8" fill="rgba(0, 0, 0, 0)" stroke="rgba(204, 204, 204, 1)" stroke-width="2"></rect><text x="1221.0233176987758" y="-950.8857678328216" fill="rgba(255, 255, 255, 1)" font-size="32" text-anchor="middle" font-family="MiSans">自动布局引擎</text><rect x="685.2993986177501" y="-712.1481074676622" width="218" height="76" rx="8" ry="8" fill="rgba(0, 0, 0, 0)" stroke="rgba(204, 204, 204, 1)" stroke-width="2"></rect><text x="794.2993986177501" y="-660.1481074676622" fill="rgba(255, 255, 255, 1)" font-size="32" text-anchor="middle" font-family="MiSans">鼠标键盘注册监听系统</text><rect x="1150.0233176987758" y="-899.2726576635034" width="161" height="76" rx="8" ry="8" fill="rgba(0, 0, 0, 0)" stroke="rgba(204, 204, 204, 1)" stroke-width="2"></rect><text x="1230.5233176987758" y="-847.2726576635034" fill="rgba(255, 255, 255, 1)" font-size="32" text-anchor="middle" font-family="MiSans">纯键盘操作引擎</text><rect x="877.0082153218957" y="-1257.6275366797913" width="104" height="76" rx="8" ry="8" fill="rgba(0, 0, 0, 0)" stroke="rgba(204, 204, 204, 1)" stroke-width="2"></rect><text x="929.0082153218957" y="-1205.6275366797913" fill="rgba(255, 255, 255, 1)" font-size="32" text-anchor="middle" font-family="MiSans">音效引擎</text><rect x="683.4671707332693" y="-1148.748243547891" width="161" height="76" rx="8" ry="8" fill="rgba(0, 0, 0, 0)" stroke="rgba(204, 204, 204, 1)" stroke-width="2"></rect><text x="763.9671707332693" y="-1096.748243547891" fill="rgba(255, 255, 255, 1)" font-size="32" text-anchor="middle" font-family="MiSans">舞台样式控制器</text><rect x="-793.3919470580327" y="-456.15268875516466" width="161" height="76" rx="8" ry="8" fill="rgba(0, 0, 0, 0)" stroke="rgba(204, 204, 204, 1)" stroke-width="2"></rect><text x="-712.8919470580327" y="-404.15268875516466" fill="rgba(255, 255, 255, 1)" font-size="32" text-anchor="middle" font-family="MiSans">节点颜色管理器</text><rect x="1150.0233176987758" y="-786.538232936444" width="199" height="76" rx="8" ry="8" fill="rgba(0, 0, 0, 0)" stroke="rgba(204, 204, 204, 1)" stroke-width="2"></rect><text x="1249.5233176987758" y="-734.538232936444" fill="rgba(255, 255, 255, 1)" font-size="32" text-anchor="middle" font-family="MiSans">快捷键注册监听系统</text><rect x="-946.8871781221783" y="-1340.3138004748166" width="199" height="76" rx="8" ry="8" fill="rgba(0, 0, 0, 0)" stroke="rgba(204, 204, 204, 1)" stroke-width="2"></rect><text x="-847.3871781221783" y="-1288.3138004748166" fill="rgba(255, 255, 255, 1)" font-size="32" text-anchor="middle" font-family="MiSans">最近打开文件管理器</text><rect x="-80.06462076227194" y="-456.15268875516466" width="219" height="124" rx="8" ry="8" fill="rgba(0, 0, 0, 0)" stroke="rgba(204, 204, 204, 1)" stroke-width="2"></rect><text x="29.435379237728057" y="-380.15268875516466" fill="rgba(255, 255, 255, 1)" font-size="32" text-anchor="middle" font-family="MiSans">设置管理器
Settings.tsx</text><rect x="-948.8871743103487" y="-1453.7151762305061" width="218" height="76" rx="8" ry="8" fill="rgba(0, 0, 0, 0)" stroke="rgba(204, 204, 204, 1)" stroke-width="2"></rect><text x="-839.8871743103487" y="-1401.7151762305061" fill="rgba(255, 255, 255, 1)" font-size="32" text-anchor="middle" font-family="MiSans">初始化启动文件管理器</text><rect x="-732.7759549801281" y="-963.5686584502394" width="102" height="76" rx="8" ry="8" fill="rgba(0, 0, 0, 0)" stroke="rgba(204, 204, 204, 1)" stroke-width="2"></rect><text x="-681.7759549801281" y="-911.5686584502394" fill="rgba(255, 255, 255, 1)" font-size="32" text-anchor="middle" font-family="MiSans">AI服务</text><rect x="-543.9714854655583" y="-1715.3917918546945" width="199" height="76" rx="8" ry="8" fill="rgba(0, 0, 0, 0)" stroke="rgba(204, 204, 204, 1)" stroke-width="2"></rect><text x="-444.4714854655583" y="-1663.3917918546945" fill="rgba(255, 255, 255, 1)" font-size="32" text-anchor="middle" font-family="MiSans">上一次启动记录服务</text><rect x="-763.3919470580327" y="-79.99047296514271" width="161" height="76" rx="8" ry="8" fill="rgba(0, 0, 0, 0)" stroke="rgba(204, 204, 204, 1)" stroke-width="2"></rect><text x="-682.8919470580327" y="-27.990472965142715" fill="rgba(255, 255, 255, 1)" font-size="32" text-anchor="middle" font-family="MiSans">鼠标位置记录器</text><rect x="119.24683157648332" y="-922.3074432589249" width="161" height="76" rx="8" ry="8" fill="rgba(0, 0, 0, 0)" stroke="rgba(204, 204, 204, 1)" stroke-width="2"></rect><text x="199.74683157648332" y="-870.3074432589249" fill="rgba(255, 255, 255, 1)" font-size="32" text-anchor="middle" font-family="MiSans">交互控制类服务</text><rect x="1150.0233176987758" y="-683.1618109830142" width="124" height="76" rx="8" ry="8" fill="rgba(0, 0, 0, 0)" stroke="rgba(204, 204, 204, 1)" stroke-width="2"></rect><text x="1212.0233176987758" y="-631.1618109830142" fill="rgba(255, 255, 255, 1)" font-size="32" text-anchor="middle" font-family="MiSans">CLI系统</text><rect x="119.24683157648332" y="-1035.261908490129" width="161" height="76" rx="8" ry="8" fill="rgba(0, 0, 0, 0)" stroke="rgba(204, 204, 204, 1)" stroke-width="2"></rect><text x="199.74683157648332" y="-983.2619084901289" fill="rgba(255, 255, 255, 1)" font-size="32" text-anchor="middle" font-family="MiSans">感官反馈类服务</text><rect x="-352.3267882099515" y="-1035.261908490129" width="161" height="76" rx="8" ry="8" fill="rgba(0, 0, 0, 0)" stroke="rgba(204, 204, 204, 1)" stroke-width="2"></rect><text x="-271.8267882099515" y="-983.2619084901289" fill="rgba(255, 255, 255, 1)" font-size="32" text-anchor="middle" font-family="MiSans">信息生成类服务</text><rect x="776.0516278676535" y="-912.6486404682976" width="104" height="76" rx="8" ry="8" fill="rgba(0, 0, 0, 0)" stroke="rgba(204, 204, 204, 1)" stroke-width="2"></rect><text x="828.0516278676535" y="-860.6486404682976" fill="rgba(255, 255, 255, 1)" font-size="32" text-anchor="middle" font-family="MiSans">连线模块</text><rect x="776.0516297345514" y="-809.6101957169315" width="104" height="76" rx="8" ry="8" fill="rgba(0, 0, 0, 0)" stroke="rgba(204, 204, 204, 1)" stroke-width="2"></rect><text x="828.0516297345514" y="-757.6101957169315" fill="rgba(255, 255, 255, 1)" font-size="32" text-anchor="middle" font-family="MiSans">框选模块</text><rect x="-1109.5370476186922" y="-963.5686584502394" width="218" height="76" rx="8" ry="8" fill="rgba(0, 0, 0, 0)" stroke="rgba(204, 204, 204, 1)" stroke-width="2"></rect><text x="-1000.5370476186922" y="-911.5686584502394" fill="rgba(255, 255, 255, 1)" font-size="32" text-anchor="middle" font-family="MiSans">根据文本生成节点系统</text><rect x="-924.2639157955578" y="-836.1065702009703" width="274" height="76" rx="8" ry="8" fill="rgba(0, 0, 0, 0)" stroke="rgba(204, 204, 204, 1)" stroke-width="2"></rect><text x="-787.2639157955578" y="-784.1065702009703" fill="rgba(255, 255, 255, 1)" font-size="32" text-anchor="middle" font-family="MiSans">导出markdown系统</text><rect x="-654.9156620396402" y="552.0841448961992" width="142" height="76" rx="8" ry="8" fill="rgba(0, 0, 0, 0)" stroke="rgba(204, 204, 204, 1)" stroke-width="2"></rect><text x="-583.9156620396402" y="604.0841448961992" fill="rgba(255, 255, 255, 1)" font-size="32" text-anchor="middle" font-family="MiSans">数组扩展算法</text><rect x="-554.4517090402624" y="675.9102784648967" width="142" height="76" rx="8" ry="8" fill="rgba(0, 0, 0, 0)" stroke="rgba(204, 204, 204, 1)" stroke-width="2"></rect><text x="-483.45170904026236" y="727.9102784648967" fill="rgba(255, 255, 255, 1)" font-size="32" text-anchor="middle" font-family="MiSans">实数扩展算法</text><rect x="438.7900847682515" y="596.6232842780043" width="104" height="76" rx="8" ry="8" fill="rgba(0, 0, 0, 0)" stroke="rgba(204, 204, 204, 1)" stroke-width="2"></rect><text x="490.7900847682515" y="648.6232842780043" fill="rgba(255, 255, 255, 1)" font-size="32" text-anchor="middle" font-family="MiSans">二维向量</text><rect x="-264.4417659568305" y="675.9102784648967" width="161" height="76" rx="8" ry="8" fill="rgba(0, 0, 0, 0)" stroke="rgba(204, 204, 204, 1)" stroke-width="2"></rect><text x="-183.94176595683052" y="727.9102784648967" fill="rgba(255, 255, 255, 1)" font-size="32" text-anchor="middle" font-family="MiSans">数值积分的算法</text><rect x="-351.9714854655583" y="552.0841448961992" width="85" height="76" rx="8" ry="8" fill="rgba(0, 0, 0, 0)" stroke="rgba(204, 204, 204, 1)" stroke-width="2"></rect><text x="-309.4714854655583" y="604.0841448961992" fill="rgba(255, 255, 255, 1)" font-size="32" text-anchor="middle" font-family="MiSans">概率论</text><rect x="217.10867321189755" y="596.6245370328973" width="66" height="76" rx="8" ry="8" fill="rgba(0, 0, 0, 0)" stroke="rgba(204, 204, 204, 1)" stroke-width="2"></rect><text x="250.10867321189755" y="648.6245370328973" fill="rgba(255, 255, 255, 1)" font-size="32" text-anchor="middle" font-family="MiSans">图形</text><rect x="-164.5919916652972" y="552.0841448961992" width="142" height="76" rx="8" ry="8" fill="rgba(0, 0, 0, 0)" stroke="rgba(204, 204, 204, 1)" stroke-width="2"></rect><text x="-93.5919916652972" y="604.0841448961992" fill="rgba(255, 255, 255, 1)" font-size="32" text-anchor="middle" font-family="MiSans">图形碰撞检测</text><rect x="223.03400545038414" y="728.4000147527402" width="142" height="76" rx="8" ry="8" fill="rgba(0, 0, 0, 0)" stroke="rgba(204, 204, 204, 1)" stroke-width="2"></rect><text x="294.03400545038414" y="780.4000147527402" fill="rgba(255, 255, 255, 1)" font-size="32" text-anchor="middle" font-family="MiSans">缓存数据结构</text><rect x="496.91454297724124" y="728.4336765571604" width="85" height="76" rx="8" ry="8" fill="rgba(0, 0, 0, 0)" stroke="rgba(204, 204, 204, 1)" stroke-width="2"></rect><text x="539.4145429772412" y="780.4336765571604" fill="rgba(255, 255, 255, 1)" font-size="32" text-anchor="middle" font-family="MiSans">单调栈</text><rect x="649.0187388984634" y="728.4328528140802" width="85" height="76" rx="8" ry="8" fill="rgba(0, 0, 0, 0)" stroke="rgba(204, 204, 204, 1)" stroke-width="2"></rect><text x="691.5187388984634" y="780.4328528140802" fill="rgba(255, 255, 255, 1)" font-size="32" text-anchor="middle" font-family="MiSans">颜色类</text><rect x="648.8562189175448" y="596.6533509988901" width="104" height="76" rx="8" ry="8" fill="rgba(0, 0, 0, 0)" stroke="rgba(204, 204, 204, 1)" stroke-width="2"></rect><text x="700.8562189175448" y="648.6533509988901" fill="rgba(255, 255, 255, 1)" font-size="32" text-anchor="middle" font-family="MiSans">进度条类</text><rect x="648.9427352477344" y="490.0493385790814" width="157" height="76" rx="8" ry="8" fill="rgba(0, 0, 0, 0)" stroke="rgba(204, 204, 204, 1)" stroke-width="2"></rect><text x="727.4427352477344" y="542.0493385790815" fill="rgba(255, 255, 255, 1)" font-size="32" text-anchor="middle" font-family="MiSans">uuid字典类</text><rect x="-131.20069864313132" y="-1763.3917918546945" width="161" height="124" rx="8" ry="8" fill="rgba(0, 0, 0, 0)" stroke="rgba(204, 204, 204, 1)" stroke-width="2"></rect><text x="-50.70069864313132" y="-1687.3917918546945" fill="rgba(255, 255, 255, 1)" font-size="32" text-anchor="middle" font-family="MiSans">插件系统
更多的业务服务</text><rect x="-131.20069864313132" y="-1337.6275366797913" width="180" height="76" rx="8" ry="8" fill="rgba(0, 0, 0, 0)" stroke="rgba(204, 204, 204, 1)" stroke-width="2"></rect><text x="-41.20069864313132" y="-1285.6275366797913" fill="rgba(255, 255, 255, 1)" font-size="32" text-anchor="middle" font-family="MiSans">其他未分类的服务</text><rect x="-131.20069864313132" y="-1148.748243547891" width="161" height="76" rx="8" ry="8" fill="rgba(0, 0, 0, 0)" stroke="rgba(204, 204, 204, 1)" stroke-width="2"></rect><text x="-50.70069864313132" y="-1096.748243547891" fill="rgba(255, 255, 255, 1)" font-size="32" text-anchor="middle" font-family="MiSans">文件管理类服务</text><rect x="-352.3267882099515" y="-922.3074432589249" width="161" height="76" rx="8" ry="8" fill="rgba(0, 0, 0, 0)" stroke="rgba(204, 204, 204, 1)" stroke-width="2"></rect><text x="-271.8267882099515" y="-870.3074432589249" fill="rgba(255, 255, 255, 1)" font-size="32" text-anchor="middle" font-family="MiSans">信息管理类服务</text><rect x="-793.3919470580327" y="-570.1239526004024" width="142" height="76" rx="8" ry="8" fill="rgba(0, 0, 0, 0)" stroke="rgba(204, 204, 204, 1)" stroke-width="2"></rect><text x="-722.3919470580327" y="-518.1239526004024" fill="rgba(255, 255, 255, 1)" font-size="32" text-anchor="middle" font-family="MiSans">节点搜索功能</text><rect x="-1139.5370476186922" y="-1453.7151762305061" width="104" height="76" rx="8" ry="8" fill="rgba(0, 0, 0, 0)" stroke="rgba(204, 204, 204, 1)" stroke-width="2"></rect><text x="-1087.5370476186922" y="-1401.7151762305061" fill="rgba(255, 255, 255, 1)" font-size="32" text-anchor="middle" font-family="MiSans">自动保存</text><rect x="-1139.5370476186922" y="-1340.3138004748166" width="104" height="76" rx="8" ry="8" fill="rgba(0, 0, 0, 0)" stroke="rgba(204, 204, 204, 1)" stroke-width="2"></rect><text x="-1087.5370476186922" y="-1288.3138004748166" fill="rgba(255, 255, 255, 1)" font-size="32" text-anchor="middle" font-family="MiSans">自动备份</text><rect x="1027.860775550348" y="-456.15268875516466" width="142" height="76" rx="8" ry="8" fill="rgba(0, 0, 0, 0)" stroke="rgba(204, 204, 204, 1)" stroke-width="2"></rect><text x="1098.860775550348" y="-404.15268875516466" fill="rgba(255, 255, 255, 1)" font-size="32" text-anchor="middle" font-family="MiSans">复制粘贴功能</text><rect x="776.0516278676535" y="-456.15268875516466" width="142" height="76" rx="8" ry="8" fill="rgba(0, 0, 0, 0)" stroke="rgba(204, 204, 204, 1)" stroke-width="2"></rect><text x="847.0516278676535" y="-404.15268875516466" fill="rgba(255, 255, 255, 1)" font-size="32" text-anchor="middle" font-family="MiSans">拖拽文件控制</text><rect x="-793.3919470580327" y="-175.8889085624134" width="180" height="76" rx="8" ry="8" fill="rgba(0, 0, 0, 0)" stroke="rgba(204, 204, 204, 1)" stroke-width="2"></rect><text x="-703.3919470580327" y="-123.8889085624134" fill="rgba(255, 255, 255, 1)" font-size="32" text-anchor="middle" font-family="MiSans">历史记录管理模块</text><rect x="-1109.5370476186922" y="-175.8889085624134" width="234" height="76" rx="8" ry="8" fill="rgba(0, 0, 0, 0)" stroke="rgba(204, 204, 204, 1)" stroke-width="2"></rect><text x="-992.5370476186922" y="-123.8889085624134" fill="rgba(255, 255, 255, 1)" font-size="32" text-anchor="middle" font-family="MiSans">StageLoader</text><rect x="-1109.5370476186922" y="-21.366983579448686" width="252" height="76" rx="8" ry="8" fill="rgba(0, 0, 0, 0)" stroke="rgba(204, 204, 204, 1)" stroke-width="2"></rect><text x="-983.5370476186922" y="30.633016420551314" fill="rgba(255, 255, 255, 1)" font-size="32" text-anchor="middle" font-family="MiSans">StageDumper</text><rect x="-1551.8333414047738" y="-912.6486404682976" width="323" height="76" rx="8" ry="8" fill="rgba(0, 0, 0, 0)" stroke="rgba(204, 204, 204, 1)" stroke-width="2"></rect><text x="-1390.3333414047738" y="-860.6486404682976" fill="rgba(255, 255, 255, 1)" font-size="32" text-anchor="middle" font-family="MiSans">StageDumperSVG</text><line x1="-29.35273639300408" y1="240.84135801208842" x2="-241.97148546555832" y2="152.54164585054025" stroke="rgba(204, 204, 204, 1)" stroke-width="2"></line><polygon points="-241.97148546555832,152.54164585054025 -230.0796237515343,161.68405390173388 -235.04504262856756,155.41816972944332 -227.10162709732515,154.51327261762532" fill="rgba(204, 204, 204, 1)" stroke="rgba(204, 204, 204, 1)"></polygon><line x1="-309.69492715556646" y1="85.05563113727248" x2="-293.7480437755502" y2="-99.8889085624134" stroke="rgba(204, 204, 204, 1)" stroke-width="2"></line><polygon points="-293.7480437755502,-99.8889085624134 -298.86066649726445,-85.78709701547338 -294.39234223964087,-92.41663451168625 -291.12479915905027,-85.12007016252548" fill="rgba(204, 204, 204, 1)" stroke="rgba(204, 204, 204, 1)"></polygon><line x1="85.36687658082516" y1="236.2726845531878" x2="248.17856962926703" y2="55.47448731546871" stroke="rgba(204, 204, 204, 1)" stroke-width="2"></line><polygon points="248.17856962926703,55.47448731546871 235.59800545346002,63.64329414501247 243.15974509754224,61.047762862196805 241.3678848738496,68.83916363636494" fill="rgba(204, 204, 204, 1)" stroke="rgba(204, 204, 204, 1)"></polygon><line x1="23.819179677954935" y1="-456.15268875516466" x2="8.956416873265596" y2="-620.2300660070448" stroke="rgba(204, 204, 204, 1)" stroke-width="2"></line><line x1="-8.805029575177628" y1="-816.3074432589249" x2="6.057733229511712" y2="-652.2300660070448" stroke="rgba(204, 204, 204, 1)" stroke-width="2"></line><text x="7.507075051388654" y="-622.2300660070448" fill="rgba(204, 204, 204, 1)" font-size="32" text-anchor="middle" font-family="MiSans">控制各种服务的开关和配置</text><polygon points="-8.805029575177628,-816.3074432589249 -11.364377018995391,-801.5273979050762 -8.128420859865342,-808.8380255676745 -3.6314668017102463,-802.2278747914969" fill="rgba(204, 204, 204, 1)" stroke="rgba(204, 204, 204, 1)"></polygon><line x1="-243.03418921721106" y1="-175.8889085624134" x2="-47.962314641154315" y2="-332.15268875516466" stroke="rgba(204, 204, 204, 1)" stroke-width="2"></line><polygon points="-47.962314641154315,-332.15268875516466 -61.697597296883586,-326.124255263185 -53.8158100654998,-327.46370258359553 -56.843201603185804,-320.06427087822067" fill="rgba(204, 204, 204, 1)" stroke="rgba(204, 204, 204, 1)"></polygon><line x1="248.17856962926703" y1="-230.64886294067753" x2="112.38192643144981" y2="-332.15268875516466" stroke="rgba(204, 204, 204, 1)" stroke-width="2"></line><polygon points="112.38192643144981,-332.15268875516466 121.6627862465961,-320.36856209717246 118.38921572875326,-327.66242425309986 126.31145012932475,-326.58776561550314" fill="rgba(204, 204, 204, 1)" stroke="rgba(204, 204, 204, 1)"></polygon><line x1="-280.5964892647817" y1="-175.8889085624134" x2="-114.17199986912476" y2="-816.3074432589249" stroke="rgba(204, 204, 204, 1)" stroke-width="2"></line><polygon points="-114.17199986912476,-816.3074432589249 -121.57364868196575,-803.2607733829999 -116.05835842231986,-809.0485417298512 -114.05868083297348,-801.3078713051641" fill="rgba(204, 204, 204, 1)" stroke="rgba(204, 204, 204, 1)"></polygon><line x1="319.6848596476713" y1="-304.05547164507345" x2="95.52683824836964" y2="-816.3074432589249" stroke="rgba(204, 204, 204, 1)" stroke-width="2"></line><polygon points="95.52683824836964,-816.3074432589249 97.77863379345045,-801.4774258340142 98.53351745901232,-809.4364986277777 104.89195910699358,-804.5901692029267" fill="rgba(204, 204, 204, 1)" stroke="rgba(204, 204, 204, 1)"></polygon><line x1="280.2468315764833" y1="-1021.8164791049165" x2="653.4671707332693" y2="-1135.6582824924976" stroke="rgba(204, 204, 204, 1)" stroke-width="2"></line><polygon points="653.4671707332693,-1135.6582824924976 638.4759738831975,-1135.1444566441817 646.2934725887405,-1133.4701200371062 640.7413263521319,-1127.717697829699" fill="rgba(204, 204, 204, 1)" stroke="rgba(204, 204, 204, 1)"></polygon><line x1="-352.3267882099515" y1="-990.1156441212561" x2="-600.7759549801281" y2="-968.0599493639163" stroke="rgba(204, 204, 204, 1)" stroke-width="2"></line><polygon points="-600.7759549801281,-968.0599493639163 -586.0005299185293,-965.4740618472057 -593.3053341805208,-968.7231422984951 -586.687117766715,-973.2082176139153" fill="rgba(204, 204, 204, 1)" stroke="rgba(204, 204, 204, 1)"></polygon><line x1="280.2468315764833" y1="-872.8111005352938" x2="655.2993986177501" y2="-819.2492017764857" stroke="rgba(204, 204, 204, 1)" stroke-width="2"></line><polygon points="655.2993986177501,-819.2492017764857 641.5049076504579,-825.1408924466836 647.8747301981907,-820.309531375996 640.4071736727012,-817.4543100844708" fill="rgba(204, 204, 204, 1)" stroke="rgba(204, 204, 204, 1)"></polygon><line x1="933.2993986177501" y1="-808.7496680624224" x2="1120.0233176987758" y2="-821.3116125357574" stroke="rgba(204, 204, 204, 1)" stroke-width="2"></line><polygon points="1120.0233176987758,-821.3116125357574 1105.3065140787385,-824.2125936127818 1112.5402327741585,-820.8081842777445 1105.8277013628044,-816.4655340343397" fill="rgba(204, 204, 204, 1)" stroke="rgba(204, 204, 204, 1)"></polygon><line x1="217.10867321189755" y1="630.3480456241995" x2="-22.5919916652972" y2="599.2850809573368" stroke="rgba(204, 204, 204, 1)" stroke-width="2"></line><polygon points="-22.5919916652972,599.2850809573368 -8.72219018567945,604.9972265188569 -15.154185908105031,600.248951030676 -7.724318457741207,597.2970433839189" fill="rgba(204, 204, 204, 1)" stroke="rgba(204, 204, 204, 1)"></polygon><line x1="438.7900847682515" y1="634.6235549397643" x2="283.10867321189755" y2="634.6243652667804" stroke="rgba(204, 204, 204, 1)" stroke-width="2"></line><polygon points="283.10867321189755,634.6243652667804 297.59758081346564,638.5065755281164 290.608673211796,634.6243262290266 297.59754039860894,630.7420041751459" fill="rgba(204, 204, 204, 1)" stroke="rgba(204, 204, 204, 1)"></polygon><line x1="-167.51318714547097" y1="472.0841448961992" x2="9.142128443515013" y2="312.2726845531878" stroke="rgba(204, 204, 204, 1)" stroke-width="2"></line><polygon points="9.142128443515013,312.2726845531878 -4.206993275381363,319.1138064885204 3.5803040536021955,317.30419620037407 1.0020108844064648,324.871830799021" fill="rgba(204, 204, 204, 1)" stroke="rgba(204, 204, 204, 1)"></polygon><line x1="230.78589821749512" y1="410.0493385790814" x2="101.42297679327865" y2="312.2726845531878" stroke="rgba(204, 204, 204, 1)" stroke-width="2"></line><polygon points="101.42297679327865,312.2726845531878 110.64073318933015,324.10623714837453 107.40618566640069,316.7949861332014 115.32256429574913,317.91196351961304" fill="rgba(204, 204, 204, 1)" stroke="rgba(204, 204, 204, 1)"></polygon><line x1="-43.58226025799394" y1="-1417.6275366797913" x2="-49.145382313361424" y2="-1639.3917918546945" stroke="rgba(204, 204, 204, 1)" stroke-width="2"></line><polygon points="-49.145382313361424,-1639.3917918546945 -52.66309675725069,-1624.810101791768 -48.957298379758996,-1631.8941505966773 -44.90096735356567,-1625.0048206081442" fill="rgba(204, 204, 204, 1)" stroke="rgba(204, 204, 204, 1)"></polygon><line x1="-81.7664474913307" y1="-1337.6275366797913" x2="-403.9057366173589" y2="-1639.3917918546945" stroke="rgba(204, 204, 204, 1)" stroke-width="2"></line><polygon points="-403.9057366173589,-1639.3917918546945 -395.9857274761387,-1626.6531319878566 -398.4321620390735,-1634.264416177416 -390.6774775694383,-1632.3197933704535" fill="rgba(204, 204, 204, 1)" stroke="rgba(204, 204, 204, 1)"></polygon><line x1="-131.20069864313132" y1="-1135.6183949109477" x2="-700.8871743103487" y2="-1311.6207412380286" stroke="rgba(204, 204, 204, 1)" stroke-width="2"></line><polygon points="-700.8871743103487,-1311.6207412380286 -688.1898596896378,-1303.6346156803702 -693.7213615565665,-1309.4068921967132 -685.8979145101404,-1311.0532109376397" fill="rgba(204, 204, 204, 1)" stroke="rgba(204, 204, 204, 1)"></polygon><line x1="-315.4546464917869" y1="-846.3074432589249" x2="-602.3919470580327" y2="-596.3841637094198" stroke="rgba(204, 204, 204, 1)" stroke-width="2"></line><polygon points="-602.3919470580327,-596.3841637094198 -588.9164657351118,-602.9728967527001 -596.7364341396387,-601.3101330180817 -594.0162044258007,-608.8279145651148" fill="rgba(204, 204, 204, 1)" stroke="rgba(204, 204, 204, 1)"></polygon><line x1="839.5085370532955" y1="-636.1481074676622" x2="1053.6516371148025" y2="-456.15268875516466" stroke="rgba(204, 204, 204, 1)" stroke-width="2"></line><polygon points="1053.6516371148025,-456.15268875516466 1045.0583577953694,-468.44722211508537 1047.9103722091265,-460.9784402285472 1040.0623722423977,-462.50342731281467" fill="rgba(204, 204, 204, 1)" stroke="rgba(204, 204, 204, 1)"></polygon><line x1="802.1299477798334" y1="-636.1481074676622" x2="839.2210787055701" y2="-456.15268875516466" stroke="rgba(204, 204, 204, 1)" stroke-width="2"></line><polygon points="839.2210787055701,-456.15268875516466 840.0992306887487,-471.12696166220223 837.7073800380977,-463.4983484494394 832.4944441778676,-469.55986548744954" fill="rgba(204, 204, 204, 1)" stroke="rgba(204, 204, 204, 1)"></polygon><line x1="-351.9714854655583" y1="-137.8889085624134" x2="-613.3919470580327" y2="-137.8889085624134" stroke="rgba(204, 204, 204, 1)" stroke-width="2"></line><polygon points="-613.3919470580327,-137.8889085624134 -598.9030596636966,-134.0066228858756 -605.8919470580327,-137.8889085624134 -598.9030596636966,-141.7711942389512" fill="rgba(204, 204, 204, 1)" stroke="rgba(204, 204, 204, 1)"></polygon><line x1="-228.97148546555832" y1="-135.9044351087711" x2="-118.39645791814564" y2="-132.33641548594827" stroke="rgba(204, 204, 204, 1)" stroke-width="2"></line><line x1="248.17856962926703" y1="-120.50782343820794" x2="137.60354208185436" y2="-124.07584306103078" stroke="rgba(204, 204, 204, 1)" stroke-width="2"></line><text x="9.603542081854357" y="-114.20612927348952" fill="rgba(204, 204, 204, 1)" font-size="32" text-anchor="middle" font-family="MiSans">数据与渲染相分离</text><polygon points="248.17856962926703,-120.50782343820794 233.82242725951699,-124.85537174265122 240.68247113850833,-120.74970650261116 233.57201148449573,-117.09483952916075" fill="rgba(204, 204, 204, 1)" stroke="rgba(204, 204, 204, 1)"></polygon><rect x="-1681.8800338991487" y="-194.84532764852514" width="452.8449868955613" height="411.1662442835237" rx="8" ry="8" fill="rgba(0, 0, 0, 0)" stroke="rgba(204, 204, 204, 1)" stroke-width="2"></rect><text x="-1667.8800338991487" y="-164.84532764852514" fill="rgba(204, 204, 204, 1)" font-size="32" text-anchor="start" font-family="MiSans">概念关系</text><rect x="248.17856962926703" y="-304.05547164507345" width="308.0000374359206" height="377.0337988204369" rx="8" ry="8" fill="rgba(0, 0, 0, 0)" stroke="rgba(204, 204, 204, 1)" stroke-width="2"></rect><text x="262.17856962926703" y="-274.05547164507345" fill="rgba(204, 204, 204, 1)" font-size="32" text-anchor="start" font-family="MiSans">渲染器</text><rect x="-382.3267882099515" y="-1417.6275366797913" width="692.5736197864348" height="601.3200934208664" rx="8" ry="8" fill="rgba(0, 0, 0, 0)" stroke="rgba(204, 204, 204, 1)" stroke-width="2"></rect><text x="-368.3267882099515" y="-1387.6275366797913" fill="rgba(204, 204, 204, 1)" font-size="32" text-anchor="start" font-family="MiSans">各种业务服务</text><rect x="1120.0233176987758" y="-1082.8857678328216" width="259" height="505.72395684980734" rx="8" ry="8" fill="rgba(0, 0, 0, 0)" stroke="rgba(204, 204, 204, 1)" stroke-width="2"></rect><text x="1134.0233176987758" y="-1052.8857678328216" fill="rgba(204, 204, 204, 1)" font-size="32" text-anchor="start" font-family="MiSans">高级交互控制</text><rect x="653.4671707332693" y="-1337.6275366797913" width="357.5410445886264" height="294.87929313190034" rx="8" ry="8" fill="rgba(0, 0, 0, 0)" stroke="rgba(204, 204, 204, 1)" stroke-width="2"></rect><text x="667.4671707332693" y="-1307.6275366797913" fill="rgba(204, 204, 204, 1)" font-size="32" text-anchor="start" font-family="MiSans">Section_1</text><rect x="-1139.5370476186922" y="-1158.1856366056454" width="538.7610926385642" height="428.07906640467513" rx="8" ry="8" fill="rgba(0, 0, 0, 0)" stroke="rgba(204, 204, 204, 1)" stroke-width="2"></rect><text x="-1125.5370476186922" y="-1128.1856366056454" fill="rgba(204, 204, 204, 1)" font-size="32" text-anchor="start" font-family="MiSans">Section_2</text><rect x="655.2993986177501" y="-992.6486404682976" width="278" height="386.5005330006354" rx="8" ry="8" fill="rgba(0, 0, 0, 0)" stroke="rgba(204, 204, 204, 1)" stroke-width="2"></rect><text x="669.2993986177501" y="-962.6486404682976" fill="rgba(204, 204, 204, 1)" font-size="32" text-anchor="start" font-family="MiSans">基础交互控制</text><rect x="-684.9156620396402" y="472.0841448961992" width="692.323670374343" height="309.8261335686975" rx="8" ry="8" fill="rgba(0, 0, 0, 0)" stroke="rgba(204, 204, 204, 1)" stroke-width="2"></rect><text x="-670.9156620396402" y="502.0841448961992" fill="rgba(204, 204, 204, 1)" font-size="32" text-anchor="start" font-family="MiSans">算法</text><rect x="187.10867321189755" y="410.0493385790814" width="648.8340620358368" height="424.38433797807903" rx="8" ry="8" fill="rgba(0, 0, 0, 0)" stroke="rgba(204, 204, 204, 1)" stroke-width="2"></rect><text x="201.10867321189755" y="440.0493385790814" fill="rgba(204, 204, 204, 1)" font-size="32" text-anchor="start" font-family="MiSans">数据结构</text><rect x="-1169.5370476186922" y="-1533.7151762305061" width="468.64987330834356" height="299.4013757556895" rx="8" ry="8" fill="rgba(0, 0, 0, 0)" stroke="rgba(204, 204, 204, 1)" stroke-width="2"></rect><text x="-1155.5370476186922" y="-1503.7151762305061" fill="rgba(204, 204, 204, 1)" font-size="32" text-anchor="start" font-family="MiSans">Section_0</text><rect x="-823.3919470580327" y="-650.1239526004024" width="221" height="299.97126384523773" rx="8" ry="8" fill="rgba(0, 0, 0, 0)" stroke="rgba(204, 204, 204, 1)" stroke-width="2"></rect><text x="-809.3919470580327" y="-620.1239526004024" fill="rgba(204, 204, 204, 1)" font-size="32" text-anchor="start" font-family="MiSans">Section_3</text></svg>