<svg xmlns="http://www.w3.org/2000/svg" width="6273.037106037857" height="4548.298263820806" viewBox="-5130.523605931969 -2812.767297778674 6273.037106037857 4548.298263820806" style="background-color:rgba(31, 31, 31, 1)"><rect x="-2522.8" y="-1929.2" width="142.0" height="76.0" rx="8" ry="8" fill="rgba(0, 0, 0, 0)" stroke="rgba(204, 204, 204, 1)" stroke-width="2"></rect><text x="-2508.8" y="-1877.2" fill="rgba(255, 255, 255, 1)" font-size="32" text-anchor="start" font-family="MiSans">增加涂鸦功能</text><rect x="-128.4" y="-116.8" width="161.0" height="76.0" rx="8" ry="8" fill="rgba(0, 0, 0, 0)" stroke="rgba(204, 204, 204, 1)" stroke-width="2"></rect><text x="-114.4" y="-64.8" fill="rgba(255, 255, 255, 1)" font-size="32" text-anchor="start" font-family="MiSans">节点自适应宽度</text><rect x="-2528.7" y="-2011.2" width="290.0" height="76.0" rx="8" ry="8" fill="rgba(0, 0, 0, 0)" stroke="rgba(204, 204, 204, 1)" stroke-width="2"></rect><text x="-2514.7" y="-1959.2" fill="rgba(255, 255, 255, 1)" font-size="32" text-anchor="start" font-family="MiSans">TODOlist时间计算扩展</text><rect x="-2055.3" y="-923.1" width="178.0" height="76.0" rx="8" ry="8" fill="rgba(22, 163, 74, 1)" stroke="rgba(204, 204, 204, 1)" stroke-width="2"></rect><text x="-2041.3" y="-871.1" fill="rgba(255, 255, 255, 1)" font-size="32" text-anchor="start" font-family="MiSans">AI扩展节点功能</text><rect x="-2055.3" y="-799.5" width="142.0" height="76.0" rx="8" ry="8" fill="rgba(22, 163, 74, 1)" stroke="rgba(204, 204, 204, 1)" stroke-width="2"></rect><text x="-2041.3" y="-747.5" fill="rgba(255, 255, 255, 1)" font-size="32" text-anchor="start" font-family="MiSans">增加图片功能</text><rect x="-1857.6" y="-1092.6" width="123.0" height="76.0" rx="8" ry="8" fill="rgba(0, 0, 0, 0)" stroke="rgba(204, 204, 204, 1)" stroke-width="2"></rect><text x="-1843.6" y="-1040.6" fill="rgba(255, 255, 255, 1)" font-size="32" text-anchor="start" font-family="MiSans">第二次重构</text><rect x="-2521.3" y="-1855.0" width="199.0" height="76.0" rx="8" ry="8" fill="rgba(0, 0, 0, 0)" stroke="rgba(204, 204, 204, 1)" stroke-width="2"></rect><text x="-2507.3" y="-1803.0" fill="rgba(255, 255, 255, 1)" font-size="32" text-anchor="start" font-family="MiSans">增加韦恩图绘制功能</text><rect x="-302.0" y="911.6" width="245.0" height="76.0" rx="8" ry="8" fill="rgba(0, 0, 0, 0)" stroke="rgba(204, 204, 204, 1)" stroke-width="2"></rect><text x="-288.0" y="963.6" fill="rgba(255, 255, 255, 1)" font-size="32" text-anchor="start" font-family="MiSans">处理Section的复制</text><rect x="-302.0" y="818.5" width="207.0" height="76.0" rx="8" ry="8" fill="rgba(0, 0, 0, 0)" stroke="rgba(204, 204, 204, 1)" stroke-width="2"></rect><text x="-288.0" y="870.5" fill="rgba(255, 255, 255, 1)" font-size="32" text-anchor="start" font-family="MiSans">Section的对齐</text><rect x="-2512.3" y="-1645.1" width="541.0" height="76.0" rx="8" ry="8" fill="rgba(0, 0, 0, 0)" stroke="rgba(204, 204, 204, 1)" stroke-width="2"></rect><text x="-2498.3" y="-1593.1" fill="rgba(255, 255, 255, 1)" font-size="32" text-anchor="start" font-family="MiSans">githubIssuee导入projectgraph的能力</text><rect x="-4392.8" y="-687.5" width="674.2" height="76.0" rx="8" ry="8" fill="rgba(0, 0, 0, 0)" stroke="rgba(204, 204, 204, 1)" stroke-width="2"></rect><text x="-4378.8" y="-635.5" fill="rgba(255, 255, 255, 1)" font-size="32" text-anchor="start" font-family="MiSans">在开发CannonWar2，一起在FigJam上绘制开发流程拓扑图</text><rect x="-4284.3" y="-567.7" width="463.0" height="76.0" rx="8" ry="8" fill="rgba(59, 130, 246, 1)" stroke="rgba(204, 204, 204, 1)" stroke-width="2"></rect><text x="-4270.3" y="-515.7" fill="rgba(255, 255, 255, 1)" font-size="32" text-anchor="start" font-family="MiSans">Rutubet提出可以开发一个绘制节点图的工具</text><rect x="-4219.8" y="-456.9" width="439.0" height="76.0" rx="8" ry="8" fill="rgba(59, 130, 246, 1)" stroke="rgba(204, 204, 204, 1)" stroke-width="2"></rect><text x="-4205.8" y="-404.9" fill="rgba(255, 255, 255, 1)" font-size="32" text-anchor="start" font-family="MiSans">Rutubet用JavaFx简单写了一个框架</text><rect x="-4494.4" y="-337.7" width="796.0" height="76.0" rx="8" ry="8" fill="rgba(22, 163, 74, 1)" stroke="rgba(204, 204, 204, 1)" stroke-width="2"></rect><text x="-4480.4" y="-285.7" fill="rgba(255, 255, 255, 1)" font-size="32" text-anchor="start" font-family="MiSans">Littlefean感觉不熟悉，希望早点用，快速拷贝visual-file项目代码做了出来</text><rect x="-4215.5" y="-226.8" width="390.0" height="76.0" rx="8" ry="8" fill="rgba(234, 179, 8, 1)" stroke="rgba(204, 204, 204, 1)" stroke-width="2"></rect><text x="-4201.5" y="-174.8" fill="rgba(0, 0, 0, 1)" font-size="32" text-anchor="start" font-family="MiSans">ZTY优化了项目结构，使用pdm管理</text><rect x="-4692.3" y="-105.2" width="648.0" height="76.0" rx="8" ry="8" fill="rgba(22, 163, 74, 1)" stroke="rgba(204, 204, 204, 1)" stroke-width="2"></rect><text x="-4678.3" y="-53.2" fill="rgba(255, 255, 255, 1)" font-size="32" text-anchor="start" font-family="MiSans">Littlefean不知道如何打包windows版，先发布第一期视频</text><rect x="-4583.0" y="4.4" width="421.0" height="76.0" rx="8" ry="8" fill="rgba(0, 0, 0, 0)" stroke="rgba(204, 204, 204, 1)" stroke-width="2"></rect><text x="-4569.0" y="56.4" fill="rgba(255, 255, 255, 1)" font-size="32" text-anchor="start" font-family="MiSans">发布视频后看观众留言解决了pdm打包问题</text><rect x="-5100.5" y="113.7" width="836.4" height="76.0" rx="8" ry="8" fill="rgba(59, 130, 246, 1)" stroke="rgba(204, 204, 204, 1)" stroke-width="2"></rect><text x="-5086.5" y="165.7" fill="rgba(255, 255, 255, 1)" font-size="32" text-anchor="start" font-family="MiSans">Rutubet开发liren-side，打算统一projectGraph和VisualFile</text><rect x="-4096.3" y="116.4" width="267.0" height="76.0" rx="8" ry="8" fill="rgba(234, 179, 8, 1)" stroke="rgba(204, 204, 204, 1)" stroke-width="2"></rect><text x="-4082.3" y="168.4" fill="rgba(0, 0, 0, 1)" font-size="32" text-anchor="start" font-family="MiSans">ZTY提出PyQt5过时</text><rect x="-4141.5" y="428.8" width="303.0" height="76.0" rx="8" ry="8" fill="rgba(234, 179, 8, 1)" stroke="rgba(204, 204, 204, 1)" stroke-width="2"></rect><text x="-4127.5" y="480.8" fill="rgba(0, 0, 0, 1)" font-size="32" text-anchor="start" font-family="MiSans">ZTY将项目改为tauri框架</text><rect x="-4618.6" y="236.5" width="318.0" height="76.0" rx="8" ry="8" fill="rgba(22, 163, 74, 1)" stroke="rgba(204, 204, 204, 1)" stroke-width="2"></rect><text x="-4604.6" y="288.5" fill="rgba(255, 255, 255, 1)" font-size="32" text-anchor="start" font-family="MiSans">Littlefean发布第二期视频</text><rect x="-4089.2" y="263.9" width="197.0" height="76.0" rx="8" ry="8" fill="rgba(0, 0, 0, 0)" stroke="rgba(204, 204, 204, 1)" stroke-width="2"></rect><text x="-4075.2" y="315.9" fill="rgba(255, 255, 255, 1)" font-size="32" text-anchor="start" font-family="MiSans">项目中添加AI功能</text><rect x="-4252.7" y="559.9" width="472.0" height="76.0" rx="8" ry="8" fill="rgba(22, 163, 74, 1)" stroke="rgba(204, 204, 204, 1)" stroke-width="2"></rect><text x="-4238.7" y="611.9" fill="rgba(255, 255, 255, 1)" font-size="32" text-anchor="start" font-family="MiSans">Littlefan继续在tauri项目上重写原有功能</text><rect x="-2407.8" y="-799.5" width="164.0" height="76.0" rx="8" ry="8" fill="rgba(22, 163, 74, 1)" stroke="rgba(204, 204, 204, 1)" stroke-width="2"></rect><text x="-2393.8" y="-747.5" fill="rgba(255, 255, 255, 1)" font-size="32" text-anchor="start" font-family="MiSans">发布v1.0.0</text><rect x="-1700.6" y="-1491.7" width="164.0" height="76.0" rx="8" ry="8" fill="rgba(0, 0, 0, 0)" stroke="rgba(204, 204, 204, 1)" stroke-width="2"></rect><text x="-1686.6" y="-1439.7" fill="rgba(255, 255, 255, 1)" font-size="32" text-anchor="start" font-family="MiSans">发布v2.0.0</text><rect x="-1039.2" y="-2782.8" width="104.0" height="76.0" rx="8" ry="8" fill="rgba(0, 0, 0, 0)" stroke="rgba(204, 204, 204, 1)" stroke-width="2"></rect><text x="-1025.2" y="-2730.8" fill="rgba(255, 255, 255, 1)" font-size="32" text-anchor="start" font-family="MiSans">多人联机</text><rect x="-2521.3" y="-1752.1" width="228.0" height="76.0" rx="8" ry="8" fill="rgba(0, 0, 0, 0)" stroke="rgba(204, 204, 204, 1)" stroke-width="2"></rect><text x="-2507.3" y="-1700.1" fill="rgba(255, 255, 255, 1)" font-size="32" text-anchor="start" font-family="MiSans">增加github等功能</text><rect x="-1769.1" y="-789.1" width="164.0" height="76.0" rx="8" ry="8" fill="rgba(22, 163, 74, 1)" stroke="rgba(204, 204, 204, 1)" stroke-width="2"></rect><text x="-1755.1" y="-737.1" fill="rgba(255, 255, 255, 1)" font-size="32" text-anchor="start" font-family="MiSans">发布v1.1.0</text><rect x="-2055.3" y="-716.3" width="142.0" height="76.0" rx="8" ry="8" fill="rgba(22, 163, 74, 1)" stroke="rgba(204, 204, 204, 1)" stroke-width="2"></rect><text x="-2041.3" y="-664.3" fill="rgba(255, 255, 255, 1)" font-size="32" text-anchor="start" font-family="MiSans">完成节点碰撞</text><rect x="-1891.7" y="-443.5" width="123.0" height="76.0" rx="8" ry="8" fill="rgba(22, 163, 74, 1)" stroke="rgba(204, 204, 204, 1)" stroke-width="2"></rect><text x="-1877.7" y="-391.5" fill="rgba(255, 255, 255, 1)" font-size="32" text-anchor="start" font-family="MiSans">发布宣传片</text><rect x="-1785.1" y="-218.0" width="180.0" height="76.0" rx="8" ry="8" fill="rgba(22, 163, 74, 1)" stroke="rgba(204, 204, 204, 1)" stroke-width="2"></rect><text x="-1771.1" y="-166.0" fill="rgba(255, 255, 255, 1)" font-size="32" text-anchor="start" font-family="MiSans">自动吸附功能完善</text><rect x="-505.0" y="-571.4" width="123.0" height="76.0" rx="8" ry="8" fill="rgba(0, 0, 0, 0)" stroke="rgba(204, 204, 204, 1)" stroke-width="2"></rect><text x="-491.0" y="-519.4" fill="rgba(255, 255, 255, 1)" font-size="32" text-anchor="start" font-family="MiSans">富文本功能</text><rect x="379.2" y="-629.3" width="199.0" height="76.0" rx="8" ry="8" fill="rgba(0, 0, 0, 0)" stroke="rgba(204, 204, 204, 1)" stroke-width="2"></rect><text x="393.2" y="-577.3" fill="rgba(255, 255, 255, 1)" font-size="32" text-anchor="start" font-family="MiSans">贝塞尔曲线手动调整</text><rect x="-766.9" y="-488.4" width="106.0" height="76.0" rx="8" ry="8" fill="rgba(0, 0, 0, 0)" stroke="rgba(204, 204, 204, 1)" stroke-width="2"></rect><text x="-752.9" y="-436.4" fill="rgba(255, 255, 255, 1)" font-size="32" text-anchor="start" font-family="MiSans">白色UI</text><rect x="382.4" y="-116.8" width="237.0" height="76.0" rx="8" ry="8" fill="rgba(0, 0, 0, 0)" stroke="rgba(204, 204, 204, 1)" stroke-width="2"></rect><text x="396.4" y="-64.8" fill="rgba(255, 255, 255, 1)" font-size="32" text-anchor="start" font-family="MiSans">舞台上的图片可复制路径</text><rect x="-591.0" y="-1828.4" width="199.0" height="76.0" rx="8" ry="8" fill="rgba(0, 0, 0, 0)" stroke="rgba(204, 204, 204, 1)" stroke-width="2"></rect><text x="-577.0" y="-1776.4" fill="rgba(255, 255, 255, 1)" font-size="32" text-anchor="start" font-family="MiSans">自动生成统计图功能</text><rect x="-528.4" y="-658.2" width="236.0" height="76.0" rx="8" ry="8" fill="rgba(0, 0, 0, 0)" stroke="rgba(204, 204, 204, 1)" stroke-width="2"></rect><text x="-514.4" y="-606.2" fill="rgba(255, 255, 255, 1)" font-size="32" text-anchor="start" font-family="MiSans">渲染markdown</text><rect x="-937.3" y="611.8" width="180.0" height="76.0" rx="8" ry="8" fill="rgba(0, 0, 0, 0)" stroke="rgba(204, 204, 204, 1)" stroke-width="2"></rect><text x="-923.3" y="663.8" fill="rgba(255, 255, 255, 1)" font-size="32" text-anchor="start" font-family="MiSans">完善键盘操作功能</text><rect x="-2049.2" y="-125.9" width="142.0" height="76.0" rx="8" ry="8" fill="rgba(234, 179, 8, 1)" stroke="rgba(204, 204, 204, 1)" stroke-width="2"></rect><text x="-2035.2" y="-73.9" fill="rgba(0, 0, 0, 1)" font-size="32" text-anchor="start" font-family="MiSans">自动布局功能</text><rect x="-937.3" y="373.6" width="287.0" height="76.0" rx="8" ry="8" fill="rgba(0, 0, 0, 0)" stroke="rgba(204, 204, 204, 1)" stroke-width="2"></rect><text x="-923.3" y="425.6" fill="rgba(255, 255, 255, 1)" font-size="32" text-anchor="start" font-family="MiSans">优化ctrl+c、ctrl+v</text><rect x="-937.3" y="496.3" width="188.0" height="76.0" rx="8" ry="8" fill="rgba(0, 0, 0, 0)" stroke="rgba(204, 204, 204, 1)" stroke-width="2"></rect><text x="-923.3" y="548.3" fill="rgba(255, 255, 255, 1)" font-size="32" text-anchor="start" font-family="MiSans">支持Alt复制功能</text><rect x="-1700.6" y="-1250.0" width="104.0" height="76.0" rx="8" ry="8" fill="rgba(0, 0, 0, 0)" stroke="rgba(204, 204, 204, 1)" stroke-width="2"></rect><text x="-1686.6" y="-1198.0" fill="rgba(255, 255, 255, 1)" font-size="32" text-anchor="start" font-family="MiSans">抽取内核</text><rect x="-302.0" y="318.5" width="410.0" height="76.0" rx="8" ry="8" fill="rgba(0, 0, 0, 0)" stroke="rgba(204, 204, 204, 1)" stroke-width="2"></rect><text x="-288.0" y="370.5" fill="rgba(255, 255, 255, 1)" font-size="32" text-anchor="start" font-family="MiSans">可以考虑把section框的大小改成自定义</text><rect x="-591.0" y="-1713.1" width="389.0" height="76.0" rx="8" ry="8" fill="rgba(0, 0, 0, 0)" stroke="rgba(204, 204, 204, 1)" stroke-width="2"></rect><text x="-577.0" y="-1661.1" fill="rgba(255, 255, 255, 1)" font-size="32" text-anchor="start" font-family="MiSans">设计一种按连线顺序执行逻辑节点的方式？</text><rect x="379.2" y="-324.9" width="161.0" height="76.0" rx="8" ry="8" fill="rgba(0, 0, 0, 0)" stroke="rgba(204, 204, 204, 1)" stroke-width="2"></rect><text x="393.2" y="-272.9" fill="rgba(255, 255, 255, 1)" font-size="32" text-anchor="start" font-family="MiSans">连线自定义颜色</text><rect x="-432.7" y="-2185.3" width="142.0" height="76.0" rx="8" ry="8" fill="rgba(0, 0, 0, 0)" stroke="rgba(204, 204, 204, 1)" stroke-width="2"></rect><text x="-418.7" y="-2133.3" fill="rgba(255, 255, 255, 1)" font-size="32" text-anchor="start" font-family="MiSans">增加指令系统</text><rect x="-937.3" y="256.7" width="296.0" height="76.0" rx="8" ry="8" fill="rgba(0, 0, 0, 0)" stroke="rgba(204, 204, 204, 1)" stroke-width="2"></rect><text x="-923.3" y="308.7" fill="rgba(255, 255, 255, 1)" font-size="32" text-anchor="start" font-family="MiSans">支持一些UI面板的快捷键弹出</text><rect x="379.2" y="-548.0" width="161.0" height="76.0" rx="8" ry="8" fill="rgba(0, 0, 0, 0)" stroke="rgba(204, 204, 204, 1)" stroke-width="2"></rect><text x="393.2" y="-496.0" fill="rgba(255, 255, 255, 1)" font-size="32" text-anchor="start" font-family="MiSans">完善自环碰撞箱</text><rect x="411.0" y="72.9" width="199.0" height="76.0" rx="8" ry="8" fill="rgba(0, 0, 0, 0)" stroke="rgba(204, 204, 204, 1)" stroke-width="2"></rect><text x="425.0" y="124.9" fill="rgba(255, 255, 255, 1)" font-size="32" text-anchor="start" font-family="MiSans">支持斩断线切割图片</text><rect x="-1780.3" y="-51.8" width="271.0" height="76.0" rx="8" ry="8" fill="rgba(0, 0, 0, 0)" stroke="rgba(204, 204, 204, 1)" stroke-width="2"></rect><text x="-1766.3" y="0.2" fill="rgba(255, 255, 255, 1)" font-size="32" text-anchor="start" font-family="MiSans">增加shift键移动节点功能</text><rect x="379.2" y="-458.4" width="199.0" height="76.0" rx="8" ry="8" fill="rgba(0, 0, 0, 0)" stroke="rgba(204, 204, 204, 1)" stroke-width="2"></rect><text x="393.2" y="-406.4" fill="rgba(255, 255, 255, 1)" font-size="32" text-anchor="start" font-family="MiSans">增加双箭头线的功能</text><rect x="-201.9" y="-508.2" width="104.0" height="76.0" rx="8" ry="8" fill="rgba(0, 0, 0, 0)" stroke="rgba(204, 204, 204, 1)" stroke-width="2"></rect><text x="-187.9" y="-456.2" fill="rgba(255, 255, 255, 1)" font-size="32" text-anchor="start" font-family="MiSans">公式渲染</text><rect x="410.4" y="-25.5" width="218.0" height="76.0" rx="8" ry="8" fill="rgba(0, 0, 0, 0)" stroke="rgba(204, 204, 204, 1)" stroke-width="2"></rect><text x="424.4" y="26.5" fill="rgba(255, 255, 255, 1)" font-size="32" text-anchor="start" font-family="MiSans">图片下面增加一个标题</text><rect x="-1020.5" y="-608.2" width="257.0" height="76.0" rx="8" ry="8" fill="rgba(22, 163, 74, 1)" stroke="rgba(204, 204, 204, 1)" stroke-width="2"></rect><text x="-1006.5" y="-556.2" fill="rgba(255, 255, 255, 1)" font-size="32" text-anchor="start" font-family="MiSans">支持Alt+F4关闭窗口</text><rect x="-451.2" y="-1366.1" width="208.0" height="76.0" rx="8" ry="8" fill="rgba(0, 0, 0, 0)" stroke="rgba(204, 204, 204, 1)" stroke-width="2"></rect><text x="-437.2" y="-1314.1" fill="rgba(255, 255, 255, 1)" font-size="32" text-anchor="start" font-family="MiSans">支持Xmind文件</text><rect x="-127.4" y="-1218.7" width="66.0" height="76.0" rx="8" ry="8" fill="rgba(22, 163, 74, 1)" stroke="rgba(204, 204, 204, 1)" stroke-width="2"></rect><text x="-113.4" y="-1166.7" fill="rgba(255, 255, 255, 1)" font-size="32" text-anchor="start" font-family="MiSans">导入</text><rect x="-417.9" y="-1186.6" width="201.0" height="76.0" rx="8" ry="8" fill="rgba(22, 163, 74, 1)" stroke="rgba(204, 204, 204, 1)" stroke-width="2"></rect><text x="-403.9" y="-1134.6" fill="rgba(255, 255, 255, 1)" font-size="32" text-anchor="start" font-family="MiSans">Markdown</text><rect x="-127.4" y="-1139.3" width="66.0" height="76.0" rx="8" ry="8" fill="rgba(22, 163, 74, 1)" stroke="rgba(204, 204, 204, 1)" stroke-width="2"></rect><text x="-113.4" y="-1087.3" fill="rgba(255, 255, 255, 1)" font-size="32" text-anchor="start" font-family="MiSans">导出</text><rect x="-131.4" y="-1384.3" width="66.0" height="76.0" rx="8" ry="8" fill="rgba(0, 0, 0, 0)" stroke="rgba(204, 204, 204, 1)" stroke-width="2"></rect><text x="-117.4" y="-1332.3" fill="rgba(255, 255, 255, 1)" font-size="32" text-anchor="start" font-family="MiSans">导入</text><rect x="-131.0" y="-1306.5" width="66.0" height="76.0" rx="8" ry="8" fill="rgba(0, 0, 0, 0)" stroke="rgba(204, 204, 204, 1)" stroke-width="2"></rect><text x="-117.0" y="-1254.5" fill="rgba(255, 255, 255, 1)" font-size="32" text-anchor="start" font-family="MiSans">导出</text><rect x="-339.0" y="-1015.9" width="72.0" height="76.0" rx="8" ry="8" fill="rgba(22, 163, 74, 1)" stroke="rgba(204, 204, 204, 1)" stroke-width="2"></rect><text x="-325.0" y="-963.9" fill="rgba(255, 255, 255, 1)" font-size="32" text-anchor="start" font-family="MiSans">txt</text><rect x="-153.2" y="-1049.8" width="66.0" height="76.0" rx="8" ry="8" fill="rgba(22, 163, 74, 1)" stroke="rgba(204, 204, 204, 1)" stroke-width="2"></rect><text x="-139.2" y="-997.8" fill="rgba(255, 255, 255, 1)" font-size="32" text-anchor="start" font-family="MiSans">导入</text><rect x="-154.9" y="-974.9" width="66.0" height="76.0" rx="8" ry="8" fill="rgba(22, 163, 74, 1)" stroke="rgba(204, 204, 204, 1)" stroke-width="2"></rect><text x="-140.9" y="-922.9" fill="rgba(255, 255, 255, 1)" font-size="32" text-anchor="start" font-family="MiSans">导出</text><rect x="-128.4" y="-244.9" width="199.0" height="76.0" rx="8" ry="8" fill="rgba(0, 0, 0, 0)" stroke="rgba(204, 204, 204, 1)" stroke-width="2"></rect><text x="-114.4" y="-192.9" fill="rgba(255, 255, 255, 1)" font-size="32" text-anchor="start" font-family="MiSans">专属的文件路径节点</text><rect x="-302.0" y="415.5" width="315.0" height="76.0" rx="8" ry="8" fill="rgba(0, 0, 0, 0)" stroke="rgba(204, 204, 204, 1)" stroke-width="2"></rect><text x="-288.0" y="467.5" fill="rgba(255, 255, 255, 1)" font-size="32" text-anchor="start" font-family="MiSans">节点和section互相转换功能</text><rect x="-302.0" y="516.8" width="460.0" height="76.0" rx="8" ry="8" fill="rgba(0, 0, 0, 0)" stroke="rgba(204, 204, 204, 1)" stroke-width="2"></rect><text x="-288.0" y="568.8" fill="rgba(255, 255, 255, 1)" font-size="32" text-anchor="start" font-family="MiSans">alt+方向键移动节点没法移动到section内</text><rect x="-461.8" y="-2281.5" width="140.0" height="76.0" rx="8" ry="8" fill="rgba(0, 0, 0, 0)" stroke="rgba(204, 204, 204, 1)" stroke-width="2"></rect><text x="-447.8" y="-2229.5" fill="rgba(255, 255, 255, 1)" font-size="32" text-anchor="start" font-family="MiSans">AI功能优化</text><rect x="-591.0" y="-1598.9" width="218.0" height="76.0" rx="8" ry="8" fill="rgba(0, 0, 0, 0)" stroke="rgba(204, 204, 204, 1)" stroke-width="2"></rect><text x="-577.0" y="-1546.9" fill="rgba(255, 255, 255, 1)" font-size="32" text-anchor="start" font-family="MiSans">增加爬虫自动化逻辑链</text><rect x="186.8" y="-1384.3" width="160.0" height="76.0" rx="8" ry="8" fill="rgba(0, 0, 0, 0)" stroke="rgba(204, 204, 204, 1)" stroke-width="2"></rect><text x="200.8" y="-1332.3" fill="rgba(255, 255, 255, 1)" font-size="32" text-anchor="start" font-family="MiSans">Obsdian</text><rect x="-1100.4" y="-1025.7" width="229.0" height="76.0" rx="8" ry="8" fill="rgba(0, 0, 0, 0)" stroke="rgba(204, 204, 204, 1)" stroke-width="2"></rect><text x="-1086.4" y="-973.7" fill="rgba(255, 255, 255, 1)" font-size="32" text-anchor="start" font-family="MiSans">学习笔记/思维导图方向</text><rect x="-1180.1" y="-2670.1" width="142.0" height="76.0" rx="8" ry="8" fill="rgba(0, 0, 0, 0)" stroke="rgba(204, 204, 204, 1)" stroke-width="2"></rect><text x="-1166.1" y="-2618.1" fill="rgba(255, 255, 255, 1)" font-size="32" text-anchor="start" font-family="MiSans">头脑风暴方向</text><rect x="-1244.1" y="-1677.9" width="180.0" height="76.0" rx="8" ry="8" fill="rgba(0, 0, 0, 0)" stroke="rgba(204, 204, 204, 1)" stroke-width="2"></rect><text x="-1230.1" y="-1625.9" fill="rgba(255, 255, 255, 1)" font-size="32" text-anchor="start" font-family="MiSans">项目工程管理方向</text><rect x="-1223.0" y="-104.3" width="104.0" height="76.0" rx="8" ry="8" fill="rgba(0, 0, 0, 0)" stroke="rgba(204, 204, 204, 1)" stroke-width="2"></rect><text x="-1209.0" y="-52.3" fill="rgba(255, 255, 255, 1)" font-size="32" text-anchor="start" font-family="MiSans">基础问题</text><rect x="-302.0" y="620.2" width="378.0" height="76.0" rx="8" ry="8" fill="rgba(0, 0, 0, 0)" stroke="rgba(204, 204, 204, 1)" stroke-width="2"></rect><text x="-288.0" y="672.2" fill="rgba(255, 255, 255, 1)" font-size="32" text-anchor="start" font-family="MiSans">优化缩小情况下的Section碰撞范围</text><rect x="-302.0" y="722.5" width="416.0" height="76.0" rx="8" ry="8" fill="rgba(0, 0, 0, 0)" stroke="rgba(204, 204, 204, 1)" stroke-width="2"></rect><text x="-288.0" y="774.5" fill="rgba(255, 255, 255, 1)" font-size="32" text-anchor="start" font-family="MiSans">单个节点打包的时候直接升级成Section</text><rect x="-302.0" y="1013.9" width="264.0" height="76.0" rx="8" ry="8" fill="rgba(0, 0, 0, 0)" stroke="rgba(204, 204, 204, 1)" stroke-width="2"></rect><text x="-288.0" y="1065.9" fill="rgba(255, 255, 255, 1)" font-size="32" text-anchor="start" font-family="MiSans">Section支持颜色更改</text><rect x="-302.0" y="1104.7" width="576.0" height="76.0" rx="8" ry="8" fill="rgba(0, 0, 0, 0)" stroke="rgba(204, 204, 204, 1)" stroke-width="2"></rect><text x="-288.0" y="1156.7" fill="rgba(255, 255, 255, 1)" font-size="32" text-anchor="start" font-family="MiSans">编辑Section内部文字的时候，Section能够自动膨胀</text><rect x="-302.0" y="1196.6" width="302.0" height="76.0" rx="8" ry="8" fill="rgba(0, 0, 0, 0)" stroke="rgba(204, 204, 204, 1)" stroke-width="2"></rect><text x="-288.0" y="1248.6" fill="rgba(255, 255, 255, 1)" font-size="32" text-anchor="start" font-family="MiSans">Section宽度小时文本超出</text><rect x="587.8" y="1203.9" width="486.0" height="76.0" rx="8" ry="8" fill="rgba(0, 0, 0, 0)" stroke="rgba(204, 204, 204, 1)" stroke-width="2"></rect><text x="601.8" y="1255.9" fill="rgba(255, 255, 255, 1)" font-size="32" text-anchor="start" font-family="MiSans">多层嵌套时，外层折叠，内层section碰撞箱还在</text><rect x="-937.3" y="709.2" width="260.0" height="76.0" rx="8" ry="8" fill="rgba(0, 0, 0, 0)" stroke="rgba(204, 204, 204, 1)" stroke-width="2"></rect><text x="-923.3" y="761.2" fill="rgba(255, 255, 255, 1)" font-size="32" text-anchor="start" font-family="MiSans">准星对准节点按F2重命名</text><rect x="-934.9" y="-164.9" width="460.0" height="76.0" rx="8" ry="8" fill="rgba(0, 0, 0, 0)" stroke="rgba(204, 204, 204, 1)" stroke-width="2"></rect><text x="-920.9" y="-112.9" fill="rgba(255, 255, 255, 1)" font-size="32" text-anchor="start" font-family="MiSans">把节点的渲染逻辑提取到节点的render方法中</text><rect x="-728.3" y="-51.8" width="215.0" height="76.0" rx="8" ry="8" fill="rgba(0, 0, 0, 0)" stroke="rgba(204, 204, 204, 1)" stroke-width="2"></rect><text x="-714.3" y="0.2" fill="rgba(255, 255, 255, 1)" font-size="32" text-anchor="start" font-family="MiSans">离屏canvas渲染</text><rect x="-128.4" y="13.1" width="180.0" height="76.0" rx="8" ry="8" fill="rgba(0, 0, 0, 0)" stroke="rgba(204, 204, 204, 1)" stroke-width="2"></rect><text x="-114.4" y="65.1" fill="rgba(255, 255, 255, 1)" font-size="32" text-anchor="start" font-family="MiSans">为插件系统做准备</text><rect x="-1351.0" y="-458.4" width="180.0" height="76.0" rx="8" ry="8" fill="rgba(0, 0, 0, 0)" stroke="rgba(204, 204, 204, 1)" stroke-width="2"></rect><text x="-1337.0" y="-406.4" fill="rgba(255, 255, 255, 1)" font-size="32" text-anchor="start" font-family="MiSans">更改工程文件格式</text><rect x="-1700.6" y="-1353.2" width="124.0" height="76.0" rx="8" ry="8" fill="rgba(0, 0, 0, 0)" stroke="rgba(204, 204, 204, 1)" stroke-width="2"></rect><text x="-1686.6" y="-1301.2" fill="rgba(255, 255, 255, 1)" font-size="32" text-anchor="start" font-family="MiSans">插件API</text><rect x="-814.0" y="-1306.5" width="174.0" height="76.0" rx="8" ry="8" fill="rgba(0, 0, 0, 0)" stroke="rgba(204, 204, 204, 1)" stroke-width="2"></rect><text x="-800.0" y="-1254.5" fill="rgba(255, 255, 255, 1)" font-size="32" text-anchor="start" font-family="MiSans">“知识库”的概念</text><rect x="-769.3" y="-1413.1" width="104.0" height="76.0" rx="8" ry="8" fill="rgba(0, 0, 0, 0)" stroke="rgba(204, 204, 204, 1)" stroke-width="2"></rect><text x="-755.3" y="-1361.1" fill="rgba(255, 255, 255, 1)" font-size="32" text-anchor="start" font-family="MiSans">双向链接</text><rect x="-1020.5" y="-488.4" width="123.0" height="76.0" rx="8" ry="8" fill="rgba(0, 0, 0, 0)" stroke="rgba(204, 204, 204, 1)" stroke-width="2"></rect><text x="-1006.5" y="-436.4" fill="rgba(255, 255, 255, 1)" font-size="32" text-anchor="start" font-family="MiSans">自定义主题</text><rect x="-1724.1" y="226.7" width="489.0" height="76.0" rx="8" ry="8" fill="rgba(0, 0, 0, 0)" stroke="rgba(204, 204, 204, 1)" stroke-width="2"></rect><text x="-1710.1" y="278.7" fill="rgba(255, 255, 255, 1)" font-size="32" text-anchor="start" font-family="MiSans">自定义工具栏（类似kde plasma的“面板”）</text><rect x="-814.0" y="-1186.6" width="104.0" height="76.0" rx="8" ry="8" fill="rgba(0, 0, 0, 0)" stroke="rgba(204, 204, 204, 1)" stroke-width="2"></rect><text x="-800.0" y="-1134.6" fill="rgba(255, 255, 255, 1)" font-size="32" text-anchor="start" font-family="MiSans">单向链接</text><rect x="-1592.2" y="-2801.1" width="164.0" height="76.0" rx="8" ry="8" fill="rgba(0, 0, 0, 0)" stroke="rgba(204, 204, 204, 1)" stroke-width="2"></rect><text x="-1578.2" y="-2749.1" fill="rgba(255, 255, 255, 1)" font-size="32" text-anchor="start" font-family="MiSans">发布v3.0.0</text><rect x="764.5" y="1629.5" width="92.0" height="76.0" rx="8" ry="8" fill="rgba(0, 0, 0, 0)" stroke="rgba(204, 204, 204, 1)" stroke-width="2"></rect><text x="778.5" y="1681.5" fill="rgba(255, 255, 255, 1)" font-size="32" text-anchor="start" font-family="MiSans">……</text><rect x="1020.5" y="1629.5" width="92.0" height="76.0" rx="8" ry="8" fill="rgba(0, 0, 0, 0)" stroke="rgba(204, 204, 204, 1)" stroke-width="2"></rect><text x="1034.5" y="1681.5" fill="rgba(255, 255, 255, 1)" font-size="32" text-anchor="start" font-family="MiSans">……</text><line x1="-4054.8" y1="-611.5" x2="-4053.7" y2="-567.7" stroke="rgba(204, 204, 204, 1)" stroke-width="2"></line><polygon points="-4053.7,-567.7 -4050.2,-582.3 -4053.9,-575.2 -4058.0,-582.1" fill="rgba(204, 204, 204, 1)" stroke="rgba(204, 204, 204, 1)"></polygon><line x1="-4034.8" y1="-491.7" x2="-4018.3" y2="-456.9" stroke="rgba(204, 204, 204, 1)" stroke-width="2"></line><polygon points="-4018.3,-456.9 -4021.0,-471.6 -4021.5,-463.7 -4028.0,-468.3" fill="rgba(204, 204, 204, 1)" stroke="rgba(204, 204, 204, 1)"></polygon><line x1="-4031.0" y1="-380.9" x2="-4065.8" y2="-337.7" stroke="rgba(204, 204, 204, 1)" stroke-width="2"></line><polygon points="-4065.8,-337.7 -4053.7,-346.6 -4061.1,-343.6 -4059.7,-351.4" fill="rgba(204, 204, 204, 1)" stroke="rgba(204, 204, 204, 1)"></polygon><line x1="-4070.4" y1="-261.7" x2="-4046.5" y2="-226.8" stroke="rgba(204, 204, 204, 1)" stroke-width="2"></line><polygon points="-4046.5,-226.8 -4051.5,-240.9 -4050.7,-233.0 -4057.9,-236.5" fill="rgba(204, 204, 204, 1)" stroke="rgba(204, 204, 204, 1)"></polygon><line x1="-4129.2" y1="-150.8" x2="-4259.6" y2="-105.2" stroke="rgba(204, 204, 204, 1)" stroke-width="2"></line><polygon points="-4259.6,-105.2 -4244.6,-106.3 -4252.5,-107.7 -4247.2,-113.7" fill="rgba(204, 204, 204, 1)" stroke="rgba(204, 204, 204, 1)"></polygon><line x1="-4369.7" y1="-29.2" x2="-4371.0" y2="4.4" stroke="rgba(204, 204, 204, 1)" stroke-width="2"></line><polygon points="-4371.0,4.4 -4366.6,-9.9 -4370.7,-3.1 -4374.3,-10.2" fill="rgba(204, 204, 204, 1)" stroke="rgba(204, 204, 204, 1)"></polygon><line x1="-4096.3" y1="153.9" x2="-4264.1" y2="153.2" stroke="rgba(204, 204, 204, 1)" stroke-width="2"></line><polygon points="-4264.1,153.2 -4249.6,157.2 -4256.6,153.3 -4249.6,149.4" fill="rgba(204, 204, 204, 1)" stroke="rgba(204, 204, 204, 1)"></polygon><line x1="-4233.5" y1="80.4" x2="-4096.3" y2="117.9" stroke="rgba(204, 204, 204, 1)" stroke-width="2"></line><polygon points="-4096.3,117.9 -4109.2,110.3 -4103.5,115.9 -4111.3,117.8" fill="rgba(204, 204, 204, 1)" stroke="rgba(204, 204, 204, 1)"></polygon><line x1="-4096.3" y1="186.6" x2="-4302.4" y2="236.5" stroke="rgba(204, 204, 204, 1)" stroke-width="2"></line><polygon points="-4302.4,236.5 -4287.4,236.8 -4295.1,234.7 -4289.2,229.3" fill="rgba(204, 204, 204, 1)" stroke="rgba(204, 204, 204, 1)"></polygon><line x1="-3970.0" y1="192.4" x2="-3983.5" y2="263.9" stroke="rgba(204, 204, 204, 1)" stroke-width="2"></line><polygon points="-3983.5,263.9 -3977.0,250.3 -3982.1,256.5 -3984.6,248.9" fill="rgba(204, 204, 204, 1)" stroke="rgba(204, 204, 204, 1)"></polygon><line x1="-3990.5" y1="339.9" x2="-3990.2" y2="428.8" stroke="rgba(204, 204, 204, 1)" stroke-width="2"></line><polygon points="-3990.2,428.8 -3986.3,414.3 -3990.2,421.3 -3994.1,414.3" fill="rgba(204, 204, 204, 1)" stroke="rgba(204, 204, 204, 1)"></polygon><line x1="-3997.7" y1="504.8" x2="-4009.0" y2="559.9" stroke="rgba(204, 204, 204, 1)" stroke-width="2"></line><polygon points="-4009.0,559.9 -4002.3,546.5 -4007.5,552.5 -4009.9,544.9" fill="rgba(204, 204, 204, 1)" stroke="rgba(204, 204, 204, 1)"></polygon><line x1="-2243.8" y1="-741.6" x2="-2055.3" y2="-695.6" stroke="rgba(204, 204, 204, 1)" stroke-width="2"></line><polygon points="-2055.3,-695.6 -2068.5,-702.8 -2062.6,-697.4 -2070.3,-695.3" fill="rgba(204, 204, 204, 1)" stroke="rgba(204, 204, 204, 1)"></polygon><line x1="-1913.3" y1="-695.7" x2="-1769.1" y2="-731.0" stroke="rgba(204, 204, 204, 1)" stroke-width="2"></line><polygon points="-1769.1,-731.0 -1784.1,-731.3 -1776.4,-729.2 -1782.3,-723.8" fill="rgba(204, 204, 204, 1)" stroke="rgba(204, 204, 204, 1)"></polygon><line x1="-2243.8" y1="-761.5" x2="-2055.3" y2="-761.5" stroke="rgba(204, 204, 204, 1)" stroke-width="2"></line><polygon points="-2055.3,-761.5 -2069.8,-765.4 -2062.8,-761.5 -2069.8,-757.7" fill="rgba(204, 204, 204, 1)" stroke="rgba(204, 204, 204, 1)"></polygon><line x1="-1702.9" y1="-713.1" x2="-1814.5" y2="-443.5" stroke="rgba(204, 204, 204, 1)" stroke-width="2"></line><polygon points="-1814.5,-443.5 -1805.4,-455.4 -1811.6,-450.4 -1812.5,-458.3" fill="rgba(204, 204, 204, 1)" stroke="rgba(204, 204, 204, 1)"></polygon><line x1="-1913.3" y1="-759.0" x2="-1769.1" y2="-753.9" stroke="rgba(204, 204, 204, 1)" stroke-width="2"></line><polygon points="-1769.1,-753.9 -1783.5,-758.3 -1776.6,-754.2 -1783.8,-750.6" fill="rgba(204, 204, 204, 1)" stroke="rgba(204, 204, 204, 1)"></polygon><line x1="-2243.8" y1="-789.7" x2="-2055.3" y2="-854.5" stroke="rgba(204, 204, 204, 1)" stroke-width="2"></line><polygon points="-2055.3,-854.5 -2070.3,-853.5 -2062.4,-852.1 -2067.7,-846.1" fill="rgba(204, 204, 204, 1)" stroke="rgba(204, 204, 204, 1)"></polygon><line x1="-1887.2" y1="-847.1" x2="-1766.3" y2="-789.1" stroke="rgba(204, 204, 204, 1)" stroke-width="2"></line><polygon points="-1766.3,-789.1 -1777.7,-798.8 -1773.0,-792.3 -1781.0,-791.8" fill="rgba(204, 204, 204, 1)" stroke="rgba(204, 204, 204, 1)"></polygon><line x1="-1785.1" y1="-150.7" x2="-1907.2" y2="-111.0" stroke="rgba(204, 204, 204, 1)" stroke-width="2"></line><polygon points="-1907.2,-111.0 -1892.2,-111.8 -1900.0,-113.4 -1894.6,-119.2" fill="rgba(204, 204, 204, 1)" stroke="rgba(204, 204, 204, 1)"></polygon><line x1="-809.1" y1="449.6" x2="-828.0" y2="496.3" stroke="rgba(204, 204, 204, 1)" stroke-width="2"></line><polygon points="-828.0,496.3 -819.0,484.4 -825.2,489.4 -826.2,481.4" fill="rgba(204, 204, 204, 1)" stroke="rgba(204, 204, 204, 1)"></polygon><line x1="-1683.6" y1="-142.0" x2="-1656.3" y2="-51.8" stroke="rgba(204, 204, 204, 1)" stroke-width="2"></line><polygon points="-1656.3,-51.8 -1656.8,-66.7 -1658.5,-58.9 -1664.2,-64.5" fill="rgba(204, 204, 204, 1)" stroke="rgba(204, 204, 204, 1)"></polygon><line x1="508.6" y1="-40.8" x2="511.7" y2="-25.5" stroke="rgba(204, 204, 204, 1)" stroke-width="2"></line><polygon points="511.7,-25.5 512.6,-40.4 510.2,-32.8 505.0,-38.9" fill="rgba(204, 204, 204, 1)" stroke="rgba(204, 204, 204, 1)"></polygon><line x1="515.9" y1="50.5" x2="513.9" y2="72.9" stroke="rgba(204, 204, 204, 1)" stroke-width="2"></line><polygon points="513.9,72.9 519.1,58.8 514.6,65.4 511.3,58.1" fill="rgba(204, 204, 204, 1)" stroke="rgba(204, 204, 204, 1)"></polygon><line x1="-2348.6" y1="-1676.1" x2="-2300.5" y2="-1645.1" stroke="rgba(204, 204, 204, 1)" stroke-width="2"></line><polygon points="-2300.5,-1645.1 -2310.6,-1656.2 -2306.8,-1649.1 -2314.8,-1649.7" fill="rgba(204, 204, 204, 1)" stroke="rgba(204, 204, 204, 1)"></polygon><line x1="-216.9" y1="-1163.1" x2="-127.4" y2="-1176.0" stroke="rgba(204, 204, 204, 1)" stroke-width="2"></line><polygon points="-127.4,-1176.0 -142.3,-1177.7 -134.8,-1174.9 -141.2,-1170.0" fill="rgba(204, 204, 204, 1)" stroke="rgba(204, 204, 204, 1)"></polygon><line x1="-216.9" y1="-1127.3" x2="-127.4" y2="-1108.3" stroke="rgba(204, 204, 204, 1)" stroke-width="2"></line><polygon points="-127.4,-1108.3 -140.8,-1115.1 -134.8,-1109.9 -142.4,-1107.5" fill="rgba(204, 204, 204, 1)" stroke="rgba(204, 204, 204, 1)"></polygon><line x1="-243.2" y1="-1335.7" x2="-131.4" y2="-1343.9" stroke="rgba(204, 204, 204, 1)" stroke-width="2"></line><polygon points="-131.4,-1343.9 -146.1,-1346.7 -138.9,-1343.4 -145.6,-1339.0" fill="rgba(204, 204, 204, 1)" stroke="rgba(204, 204, 204, 1)"></polygon><line x1="-243.2" y1="-1303.2" x2="-131.0" y2="-1276.4" stroke="rgba(204, 204, 204, 1)" stroke-width="2"></line><polygon points="-131.0,-1276.4 -144.2,-1283.5 -138.3,-1278.1 -146.0,-1275.9" fill="rgba(204, 204, 204, 1)" stroke="rgba(204, 204, 204, 1)"></polygon><line x1="-267.0" y1="-984.6" x2="-153.2" y2="-1005.7" stroke="rgba(204, 204, 204, 1)" stroke-width="2"></line><polygon points="-153.2,-1005.7 -168.2,-1006.9 -160.6,-1004.3 -166.8,-999.2" fill="rgba(204, 204, 204, 1)" stroke="rgba(204, 204, 204, 1)"></polygon><line x1="-267.0" y1="-969.8" x2="-154.9" y2="-944.4" stroke="rgba(204, 204, 204, 1)" stroke-width="2"></line><polygon points="-154.9,-944.4 -168.2,-951.4 -162.2,-946.0 -169.9,-943.8" fill="rgba(204, 204, 204, 1)" stroke="rgba(204, 204, 204, 1)"></polygon><line x1="-1760.4" y1="-1092.6" x2="-1684.2" y2="-1174.0" stroke="rgba(204, 204, 204, 1)" stroke-width="2"></line><polygon points="-1684.2,-1174.0 -1696.9,-1166.1 -1689.3,-1168.5 -1691.3,-1160.8" fill="rgba(204, 204, 204, 1)" stroke="rgba(204, 204, 204, 1)"></polygon><line x1="-1658.5" y1="-713.1" x2="-1199.7" y2="-104.3" stroke="rgba(204, 204, 204, 1)" stroke-width="2"></line><polygon points="-1199.7,-104.3 -1205.3,-118.2 -1204.2,-110.3 -1211.5,-113.5" fill="rgba(204, 204, 204, 1)" stroke="rgba(204, 204, 204, 1)"></polygon><line x1="100.6" y1="-195.0" x2="349.2" y2="-372.0" stroke="rgba(204, 204, 204, 1)" stroke-width="2"></line><polygon points="349.2,-372.0 335.2,-366.7 343.1,-367.6 339.7,-360.4" fill="rgba(204, 204, 204, 1)" stroke="rgba(204, 204, 204, 1)"></polygon><line x1="-1605.1" y1="-778.7" x2="-1098.5" y2="-949.7" stroke="rgba(204, 204, 204, 1)" stroke-width="2"></line><polygon points="-1098.5,-949.7 -1113.4,-948.8 -1105.6,-947.3 -1111.0,-941.4" fill="rgba(204, 204, 204, 1)" stroke="rgba(204, 204, 204, 1)"></polygon><line x1="-1064.1" y1="-1647.1" x2="-621.0" y2="-1682.6" stroke="rgba(204, 204, 204, 1)" stroke-width="2"></line><polygon points="-621.0,-1682.6 -635.7,-1685.3 -628.4,-1682.0 -635.1,-1677.6" fill="rgba(204, 204, 204, 1)" stroke="rgba(204, 204, 204, 1)"></polygon><line x1="-1664.4" y1="-789.1" x2="-1176.8" y2="-1601.9" stroke="rgba(204, 204, 204, 1)" stroke-width="2"></line><polygon points="-1176.8,-1601.9 -1187.6,-1591.5 -1180.7,-1595.5 -1181.0,-1587.5" fill="rgba(204, 204, 204, 1)" stroke="rgba(204, 204, 204, 1)"></polygon><line x1="-1152.3" y1="-1677.9" x2="-1110.8" y2="-2594.1" stroke="rgba(204, 204, 204, 1)" stroke-width="2"></line><polygon points="-1110.8,-2594.1 -1115.3,-2579.8 -1111.1,-2586.6 -1107.6,-2579.4" fill="rgba(204, 204, 204, 1)" stroke="rgba(204, 204, 204, 1)"></polygon><line x1="304.0" y1="938.6" x2="654.8" y2="1123.9" stroke="rgba(204, 204, 204, 1)" stroke-width="2"></line><polygon points="654.8,1123.9 643.8,1113.7 648.2,1120.4 640.2,1120.6" fill="rgba(204, 204, 204, 1)" stroke="rgba(204, 204, 204, 1)"></polygon><line x1="-676.6" y1="-88.9" x2="-649.1" y2="-51.8" stroke="rgba(204, 204, 204, 1)" stroke-width="2"></line><polygon points="-649.1,-51.8 -654.6,-65.7 -653.5,-57.8 -660.8,-61.1" fill="rgba(204, 204, 204, 1)" stroke="rgba(204, 204, 204, 1)"></polygon><line x1="-1119.0" y1="-69.5" x2="-964.9" y2="-79.1" stroke="rgba(204, 204, 204, 1)" stroke-width="2"></line><polygon points="-964.9,-79.1 -979.6,-82.1 -972.4,-78.7 -979.1,-74.4" fill="rgba(204, 204, 204, 1)" stroke="rgba(204, 204, 204, 1)"></polygon><line x1="-444.9" y1="-98.2" x2="-158.4" y2="-101.4" stroke="rgba(204, 204, 204, 1)" stroke-width="2"></line><polygon points="-158.4,-101.4 -172.9,-105.2 -165.9,-101.4 -172.9,-97.4" fill="rgba(204, 204, 204, 1)" stroke="rgba(204, 204, 204, 1)"></polygon><line x1="-581.5" y1="-244.9" x2="-451.7" y2="-402.2" stroke="rgba(204, 204, 204, 1)" stroke-width="2"></line><polygon points="-451.7,-402.2 -463.9,-393.5 -456.5,-396.4 -457.9,-388.6" fill="rgba(204, 204, 204, 1)" stroke="rgba(204, 204, 204, 1)"></polygon><line x1="-1103.1" y1="-1677.9" x2="-491.8" y2="-2134.1" stroke="rgba(204, 204, 204, 1)" stroke-width="2"></line><polygon points="-491.8,-2134.1 -505.8,-2128.6 -497.8,-2129.7 -501.1,-2122.4" fill="rgba(204, 204, 204, 1)" stroke="rgba(204, 204, 204, 1)"></polygon><line x1="-1145.2" y1="-28.3" x2="-967.3" y2="233.8" stroke="rgba(204, 204, 204, 1)" stroke-width="2"></line><polygon points="-967.3,233.8 -972.2,219.6 -971.5,227.6 -978.7,224.0" fill="rgba(204, 204, 204, 1)" stroke="rgba(204, 204, 204, 1)"></polygon><line x1="-1223.0" y1="-71.1" x2="-1479.3" y2="-94.5" stroke="rgba(204, 204, 204, 1)" stroke-width="2"></line><polygon points="-1479.3,-94.5 -1465.2,-89.3 -1471.9,-93.8 -1464.5,-97.0" fill="rgba(204, 204, 204, 1)" stroke="rgba(204, 204, 204, 1)"></polygon><line x1="100.6" y1="-80.1" x2="352.4" y2="-35.8" stroke="rgba(204, 204, 204, 1)" stroke-width="2"></line><polygon points="352.4,-35.8 338.8,-42.2 345.0,-37.1 337.5,-34.5" fill="rgba(204, 204, 204, 1)" stroke="rgba(204, 204, 204, 1)"></polygon><line x1="-25.1" y1="119.1" x2="-23.1" y2="238.5" stroke="rgba(204, 204, 204, 1)" stroke-width="2"></line><polygon points="-23.1,238.5 -19.5,224.0 -23.2,231.0 -27.2,224.1" fill="rgba(204, 204, 204, 1)" stroke="rgba(204, 204, 204, 1)"></polygon><line x1="-1209.4" y1="-28.3" x2="-1385.8" y2="146.7" stroke="rgba(204, 204, 204, 1)" stroke-width="2"></line><polygon points="-1385.8,146.7 -1372.8,139.2 -1380.5,141.4 -1378.3,133.7" fill="rgba(204, 204, 204, 1)" stroke="rgba(204, 204, 204, 1)"></polygon><line x1="-1144.3" y1="-104.3" x2="-948.4" y2="-382.4" stroke="rgba(204, 204, 204, 1)" stroke-width="2"></line><polygon points="-948.4,-382.4 -959.9,-372.8 -952.7,-376.3 -953.6,-368.4" fill="rgba(204, 204, 204, 1)" stroke="rgba(204, 204, 204, 1)"></polygon><line x1="-924.6" y1="-949.7" x2="-558.4" y2="-722.4" stroke="rgba(204, 204, 204, 1)" stroke-width="2"></line><polygon points="-558.4,-722.4 -568.6,-733.4 -564.7,-726.4 -572.7,-726.8" fill="rgba(204, 204, 204, 1)" stroke="rgba(204, 204, 204, 1)"></polygon><line x1="-1180.7" y1="-104.3" x2="-1251.4" y2="-382.4" stroke="rgba(204, 204, 204, 1)" stroke-width="2"></line><polygon points="-1251.4,-382.4 -1251.6,-367.4 -1249.5,-375.2 -1244.0,-369.3" fill="rgba(204, 204, 204, 1)" stroke="rgba(204, 204, 204, 1)"></polygon><line x1="-1700.8" y1="-789.1" x2="-1782.4" y2="-1016.6" stroke="rgba(204, 204, 204, 1)" stroke-width="2"></line><polygon points="-1782.4,-1016.6 -1781.2,-1001.7 -1779.9,-1009.6 -1773.9,-1004.3" fill="rgba(204, 204, 204, 1)" stroke="rgba(204, 204, 204, 1)"></polygon><line x1="-1644.9" y1="-1250.0" x2="-1642.3" y2="-1277.2" stroke="rgba(204, 204, 204, 1)" stroke-width="2"></line><polygon points="-1642.3,-1277.2 -1647.5,-1263.2 -1643.0,-1269.8 -1639.8,-1262.4" fill="rgba(204, 204, 204, 1)" stroke="rgba(204, 204, 204, 1)"></polygon><line x1="-1685.1" y1="-1353.2" x2="-1941.3" y2="-1562.8" stroke="rgba(204, 204, 204, 1)" stroke-width="2"></line><polygon points="-1941.3,-1562.8 -1932.5,-1550.6 -1935.5,-1558.0 -1927.6,-1556.6" fill="rgba(204, 204, 204, 1)" stroke="rgba(204, 204, 204, 1)"></polygon><line x1="-1633.1" y1="-1353.2" x2="-1624.1" y2="-1415.7" stroke="rgba(204, 204, 204, 1)" stroke-width="2"></line><polygon points="-1624.1,-1415.7 -1630.0,-1401.9 -1625.1,-1408.2 -1622.3,-1400.8" fill="rgba(204, 204, 204, 1)" stroke="rgba(204, 204, 204, 1)"></polygon><line x1="-723.5" y1="-1306.5" x2="-720.7" y2="-1337.1" stroke="rgba(204, 204, 204, 1)" stroke-width="2"></line><polygon points="-720.7,-1337.1 -725.9,-1323.0 -721.4,-1329.6 -718.2,-1322.3" fill="rgba(204, 204, 204, 1)" stroke="rgba(204, 204, 204, 1)"></polygon><line x1="-897.5" y1="-450.4" x2="-766.9" y2="-450.4" stroke="rgba(204, 204, 204, 1)" stroke-width="2"></line><polygon points="-766.9,-450.4 -781.4,-454.3 -774.4,-450.4 -781.4,-446.6" fill="rgba(204, 204, 204, 1)" stroke="rgba(204, 204, 204, 1)"></polygon><line x1="-750.9" y1="-1186.6" x2="-738.1" y2="-1230.5" stroke="rgba(204, 204, 204, 1)" stroke-width="2"></line><polygon points="-738.1,-1230.5 -745.9,-1217.6 -740.2,-1223.3 -738.4,-1215.5" fill="rgba(204, 204, 204, 1)" stroke="rgba(204, 204, 204, 1)"></polygon><line x1="-933.0" y1="-1025.7" x2="-814.0" y2="-1111.3" stroke="rgba(204, 204, 204, 1)" stroke-width="2"></line><polygon points="-814.0,-1111.3 -828.0,-1106.0 -820.1,-1106.9 -823.5,-1099.7" fill="rgba(204, 204, 204, 1)" stroke="rgba(204, 204, 204, 1)"></polygon><line x1="-710.0" y1="-1150.0" x2="-481.2" y2="-1155.8" stroke="rgba(204, 204, 204, 1)" stroke-width="2"></line><polygon points="-481.2,-1155.8 -495.8,-1159.3 -488.7,-1155.6 -495.6,-1151.5" fill="rgba(204, 204, 204, 1)" stroke="rgba(204, 204, 204, 1)"></polygon><line x1="-1180.1" y1="-2655.3" x2="-1428.2" y2="-2736.3" stroke="rgba(204, 204, 204, 1)" stroke-width="2"></line><polygon points="-1428.2,-2736.3 -1415.7,-2728.1 -1421.1,-2734.0 -1413.3,-2735.5" fill="rgba(204, 204, 204, 1)" stroke="rgba(204, 204, 204, 1)"></polygon><line x1="-1068.0" y1="-2670.1" x2="-1028.3" y2="-2706.8" stroke="rgba(204, 204, 204, 1)" stroke-width="2"></line><polygon points="-1028.3,-2706.8 -1041.6,-2699.8 -1033.8,-2701.7 -1036.3,-2694.1" fill="rgba(204, 204, 204, 1)" stroke="rgba(204, 204, 204, 1)"></polygon><line x1="854.4" y1="1309.9" x2="915.0" y2="1549.5" stroke="rgba(204, 204, 204, 1)" stroke-width="2"></line><polygon points="915.0,1549.5 915.2,1534.5 913.1,1542.3 907.7,1536.4" fill="rgba(204, 204, 204, 1)" stroke="rgba(204, 204, 204, 1)"></polygon><rect x="349.2" y="-709.3" width="259.0" height="490.5" rx="8" ry="8" fill="rgba(0, 0, 0, 0)" stroke="rgba(204, 204, 204, 1)" stroke-width="2"></rect><text x="363.2" y="-679.3" fill="rgba(204, 204, 204, 1)" font-size="32" text-anchor="start" font-family="MiSans">连线</text><rect x="352.4" y="-196.8" width="305.9" height="375.7" rx="8" ry="8" fill="rgba(0, 0, 0, 0)" stroke="rgba(204, 204, 204, 1)" stroke-width="2"></rect><text x="366.4" y="-166.8" fill="rgba(204, 204, 204, 1)" font-size="32" text-anchor="start" font-family="MiSans">图片</text><rect x="-558.4" y="-738.2" width="490.5" height="336.0" rx="8" ry="8" fill="rgba(0, 0, 0, 0)" stroke="rgba(204, 204, 204, 1)" stroke-width="2"></rect><text x="-544.4" y="-708.2" fill="rgba(204, 204, 204, 1)" font-size="32" text-anchor="start" font-family="MiSans">更丰富的节点渲染</text><rect x="-332.0" y="238.5" width="636.0" height="1064.1" rx="8" ry="8" fill="rgba(0, 0, 0, 0)" stroke="rgba(204, 204, 204, 1)" stroke-width="2"></rect><text x="-318.0" y="268.5" fill="rgba(204, 204, 204, 1)" font-size="32" text-anchor="start" font-family="MiSans">Section功能完善</text><rect x="-1754.1" y="146.7" width="549.0" height="186.0" rx="8" ry="8" fill="rgba(0, 0, 0, 0)" stroke="rgba(204, 204, 204, 1)" stroke-width="2"></rect><text x="-1740.1" y="176.7" fill="rgba(204, 204, 204, 1)" font-size="32" text-anchor="start" font-family="MiSans">工具栏优化</text><rect x="-621.0" y="-1908.4" width="449.0" height="415.5" rx="8" ry="8" fill="rgba(0, 0, 0, 0)" stroke="rgba(204, 204, 204, 1)" stroke-width="2"></rect><text x="-607.0" y="-1878.4" fill="rgba(204, 204, 204, 1)" font-size="32" text-anchor="start" font-family="MiSans">自动计算引擎</text><rect x="-2079.2" y="-298.0" width="599.8" height="352.3" rx="8" ry="8" fill="rgba(0, 0, 0, 0)" stroke="rgba(204, 204, 204, 1)" stroke-width="2"></rect><text x="-2065.2" y="-268.0" fill="rgba(204, 204, 204, 1)" font-size="32" text-anchor="start" font-family="MiSans">布局功能</text><rect x="-2558.7" y="-2091.2" width="617.4" height="552.2" rx="8" ry="8" fill="rgba(0, 0, 0, 0)" stroke="rgba(204, 204, 204, 1)" stroke-width="2"></rect><text x="-2544.7" y="-2061.2" fill="rgba(204, 204, 204, 1)" font-size="32" text-anchor="start" font-family="MiSans">插件</text><rect x="-481.2" y="-1464.3" width="858.0" height="595.4" rx="8" ry="8" fill="rgba(0, 0, 0, 0)" stroke="rgba(204, 204, 204, 1)" stroke-width="2"></rect><text x="-467.2" y="-1434.3" fill="rgba(204, 204, 204, 1)" font-size="32" text-anchor="start" font-family="MiSans">多软件文件联通计划</text><rect x="-158.4" y="-324.9" width="259.0" height="443.9" rx="8" ry="8" fill="rgba(0, 0, 0, 0)" stroke="rgba(204, 204, 204, 1)" stroke-width="2"></rect><text x="-144.4" y="-294.9" fill="rgba(204, 204, 204, 1)" font-size="32" text-anchor="start" font-family="MiSans">节点优化</text><rect x="-491.8" y="-2361.5" width="231.1" height="282.1" rx="8" ry="8" fill="rgba(0, 0, 0, 0)" stroke="rgba(204, 204, 204, 1)" stroke-width="2"></rect><text x="-477.8" y="-2331.5" fill="rgba(204, 204, 204, 1)" font-size="32" text-anchor="start" font-family="MiSans">AI专项计划</text><rect x="-967.3" y="176.7" width="356.0" height="638.5" rx="8" ry="8" fill="rgba(0, 0, 0, 0)" stroke="rgba(204, 204, 204, 1)" stroke-width="2"></rect><text x="-953.3" y="206.7" fill="rgba(204, 204, 204, 1)" font-size="32" text-anchor="start" font-family="MiSans">优化键盘操作</text><rect x="-5130.5" y="-767.5" width="1462.1" height="1433.4" rx="8" ry="8" fill="rgba(0, 0, 0, 0)" stroke="rgba(204, 204, 204, 1)" stroke-width="2"></rect><text x="-5116.5" y="-737.5" fill="rgba(204, 204, 204, 1)" font-size="32" text-anchor="start" font-family="MiSans">岁月史书 / 项目在多人作用下的演变</text><rect x="-1050.5" y="-688.2" width="419.6" height="305.8" rx="8" ry="8" fill="rgba(0, 0, 0, 0)" stroke="rgba(204, 204, 204, 1)" stroke-width="2"></rect><text x="-1036.5" y="-658.2" fill="rgba(204, 204, 204, 1)" font-size="32" text-anchor="start" font-family="MiSans">整体性软件完善</text><rect x="557.8" y="1123.9" width="546.0" height="186.0" rx="8" ry="8" fill="rgba(0, 0, 0, 0)" stroke="rgba(204, 204, 204, 1)" stroke-width="2"></rect><text x="571.8" y="1153.9" fill="rgba(204, 204, 204, 1)" font-size="32" text-anchor="start" font-family="MiSans">多层嵌套Section完善</text><rect x="-964.9" y="-244.9" width="520.0" height="299.1" rx="8" ry="8" fill="rgba(0, 0, 0, 0)" stroke="rgba(204, 204, 204, 1)" stroke-width="2"></rect><text x="-950.9" y="-214.9" fill="rgba(204, 204, 204, 1)" font-size="32" text-anchor="start" font-family="MiSans">性能优化</text><rect x="734.5" y="1549.5" width="408.0" height="186.0" rx="8" ry="8" fill="rgba(0, 0, 0, 0)" stroke="rgba(204, 204, 204, 1)" stroke-width="2"></rect><text x="748.5" y="1579.5" fill="rgba(204, 204, 204, 1)" font-size="32" text-anchor="start" font-family="MiSans">增加表格元素</text></svg>