<svg xmlns="http://www.w3.org/2000/svg" width="5723.643523450032" height="4436.378419831221" viewBox="5127.100738698756 -4069.0725156542667 5723.643523450032 4436.378419831221" style="background-color:rgba(31, 31, 31, 1)"><rect x="7467.543424173192" y="-4039.0725156542667" width="302" height="60" rx="8" ry="8" fill="rgba(0, 0, 0, 0)" stroke="rgba(204, 204, 204, 1)" stroke-width="2"></rect><text x="7618.543424173192" y="-3995.0725156542667" fill="rgba(255, 255, 255, 1)" font-size="32" text-anchor="middle" font-family="MiSans">ProjectGraph架构图</text><rect x="5838.140430181997" y="-3139.490204100918" width="121" height="60" rx="8" ry="8" fill="rgba(0, 0, 0, 0)" stroke="rgba(204, 204, 204, 1)" stroke-width="2"></rect><text x="5898.640430181997" y="-3095.490204100918" fill="rgba(255, 255, 255, 1)" font-size="32" text-anchor="middle" font-family="MiSans">Rust侧</text><rect x="7131.745756130961" y="-3208.8681926417935" width="392" height="60" rx="8" ry="8" fill="rgba(0, 0, 0, 0)" stroke="rgba(204, 204, 204, 1)" stroke-width="2"></rect><text x="7327.745756130961" y="-3164.8681926417935" fill="rgba(255, 255, 255, 1)" font-size="32" text-anchor="middle" font-family="MiSans">TypeScript前端侧（React）</text><rect x="7159.973662025715" y="-3368.3100029970547" width="104" height="60" rx="8" ry="8" fill="rgba(0, 0, 0, 0)" stroke="rgba(204, 204, 204, 1)" stroke-width="2"></rect><text x="7211.973662025715" y="-3324.3100029970547" fill="rgba(255, 255, 255, 1)" font-size="32" text-anchor="middle" font-family="MiSans">代码组成</text><rect x="7963.378256103894" y="-3660.205958837592" width="180" height="60" rx="8" ry="8" fill="rgba(0, 0, 0, 0)" stroke="rgba(204, 204, 204, 1)" stroke-width="2"></rect><text x="8053.378256103894" y="-3616.205958837592" fill="rgba(255, 255, 255, 1)" font-size="32" text-anchor="middle" font-family="MiSans">官网（说明文档）</text><rect x="8700.620454453503" y="-3612.2967632810128" width="88.953125" height="60" rx="8" ry="8" fill="rgba(0, 0, 0, 0)" stroke="rgba(204, 204, 204, 1)" stroke-width="2"></rect><text x="8745.097016953503" y="-3568.2967632810128" fill="rgba(255, 255, 255, 1)" font-size="32" text-anchor="middle" font-family="MiSans">Vue</text><rect x="8330.493444246662" y="-3605.749047648404" width="236" height="60" rx="8" ry="8" fill="rgba(0, 0, 0, 0)" stroke="rgba(204, 204, 204, 1)" stroke-width="2"></rect><text x="8448.493444246662" y="-3561.749047648404" fill="rgba(255, 255, 255, 1)" font-size="32" text-anchor="middle" font-family="MiSans">通过markdown</text><rect x="8824.501992905365" y="-3614.869697413507" width="142" height="60" rx="8" ry="8" fill="rgba(0, 0, 0, 0)" stroke="rgba(204, 204, 204, 1)" stroke-width="2"></rect><text x="8895.501992905365" y="-3570.869697413507" fill="rgba(255, 255, 255, 1)" font-size="32" text-anchor="middle" font-family="MiSans">自动部署网站</text><rect x="5157.100738698756" y="-3090.31371625034" width="237" height="60" rx="8" ry="8" fill="rgba(0, 0, 0, 0)" stroke="rgba(204, 204, 204, 1)" stroke-width="2"></rect><text x="5275.600738698756" y="-3046.31371625034" fill="rgba(255, 255, 255, 1)" font-size="32" text-anchor="middle" font-family="MiSans">实现一些文件读写的操作</text><rect x="7245.711217519047" y="-2843.7732565372694" width="165" height="60" rx="8" ry="8" fill="rgba(0, 0, 0, 0)" stroke="rgba(204, 204, 204, 1)" stroke-width="2"></rect><text x="7328.211217519047" y="-2799.7732565372694" fill="rgba(255, 255, 255, 1)" font-size="32" text-anchor="middle" font-family="MiSans">main.tsx</text><rect x="7192.94485476781" y="-1593.3326256344264" width="102" height="60" rx="8" ry="8" fill="rgba(0, 0, 0, 0)" stroke="rgba(204, 204, 204, 1)" stroke-width="2"></rect><text x="7243.94485476781" y="-1549.3326256344264" fill="rgba(255, 255, 255, 1)" font-size="32" text-anchor="middle" font-family="MiSans">AI模块</text><rect x="7686.050526815481" y="12.934373440207338" width="66" height="60" rx="8" ry="8" fill="rgba(0, 0, 0, 0)" stroke="rgba(204, 204, 204, 1)" stroke-width="2"></rect><text x="7719.050526815481" y="56.93437344020734" fill="rgba(255, 255, 255, 1)" font-size="32" text-anchor="middle" font-family="MiSans">颜色</text><rect x="7271.822759512006" y="17.06888009932868" width="234" height="60" rx="8" ry="8" fill="rgba(0, 0, 0, 0)" stroke="rgba(204, 204, 204, 1)" stroke-width="2"></rect><text x="7388.822759512006" y="61.06888009932868" fill="rgba(255, 255, 255, 1)" font-size="32" text-anchor="middle" font-family="MiSans">StringDict对象</text><rect x="7669.998445475741" y="-1028.0621612382233" width="85" height="60" rx="8" ry="8" fill="rgba(0, 0, 0, 0)" stroke="rgba(204, 204, 204, 1)" stroke-width="2"></rect><text x="7712.498445475741" y="-984.0621612382233" fill="rgba(255, 255, 255, 1)" font-size="32" text-anchor="middle" font-family="MiSans">特效类</text><rect x="7589.750895643758" y="-1858.2730705025033" width="250" height="60" rx="8" ry="8" fill="rgba(0, 0, 0, 0)" stroke="rgba(204, 204, 204, 1)" stroke-width="2"></rect><text x="7714.750895643758" y="-1814.2730705025033" fill="rgba(255, 255, 255, 1)" font-size="32" text-anchor="middle" font-family="MiSans">Controller交互层</text><rect x="6994.111949785582" y="-1140.1870482052166" width="256" height="60" rx="8" ry="8" fill="rgba(0, 0, 0, 0)" stroke="rgba(204, 204, 204, 1)" stroke-width="2"></rect><text x="7122.111949785582" y="-1096.1870482052166" fill="rgba(255, 255, 255, 1)" font-size="32" text-anchor="middle" font-family="MiSans">Renderer总渲染器</text><rect x="7097.982968942783" y="-366.92399892194607" width="227" height="60" rx="8" ry="8" fill="rgba(0, 0, 0, 0)" stroke="rgba(204, 204, 204, 1)" stroke-width="2"></rect><text x="7211.482968942783" y="-322.92399892194607" fill="rgba(255, 255, 255, 1)" font-size="32" text-anchor="middle" font-family="MiSans">StageObject</text><rect x="6829.5307168237805" y="-1591.492489649893" width="349" height="60" rx="8" ry="8" fill="rgba(0, 0, 0, 0)" stroke="rgba(204, 204, 204, 1)" stroke-width="2"></rect><text x="7004.0307168237805" y="-1547.492489649893" fill="rgba(255, 255, 255, 1)" font-size="32" text-anchor="middle" font-family="MiSans">RecentFileManager</text><rect x="5728.01215510723" y="-2316.277858974282" width="162" height="60" rx="8" ry="8" fill="rgba(0, 0, 0, 0)" stroke="rgba(204, 204, 204, 1)" stroke-width="2"></rect><text x="5809.01215510723" y="-2272.277858974282" fill="rgba(255, 255, 255, 1)" font-size="32" text-anchor="middle" font-family="MiSans">Settings</text><rect x="7151.006372406017" y="-1682.5891525558227" width="328" height="60" rx="8" ry="8" fill="rgba(0, 0, 0, 0)" stroke="rgba(204, 204, 204, 1)" stroke-width="2"></rect><text x="7315.006372406017" y="-1638.5891525558227" fill="rgba(255, 255, 255, 1)" font-size="32" text-anchor="middle" font-family="MiSans">SoundService音效服务</text><rect x="6793.019517492411" y="-1696.900340180611" width="333" height="60" rx="8" ry="8" fill="rgba(0, 0, 0, 0)" stroke="rgba(204, 204, 204, 1)" stroke-width="2"></rect><text x="6959.519517492411" y="-1652.900340180611" fill="rgba(255, 255, 255, 1)" font-size="32" text-anchor="middle" font-family="MiSans">StartFilesManager</text><rect x="7148.770325810117" y="-769.2808247928978" width="267" height="60" rx="8" ry="8" fill="rgba(0, 0, 0, 0)" stroke="rgba(204, 204, 204, 1)" stroke-width="2"></rect><text x="7282.270325810117" y="-725.2808247928978" fill="rgba(255, 255, 255, 1)" font-size="32" text-anchor="middle" font-family="MiSans">StageManager</text><rect x="7180.971045927922" y="-2466.9402178528458" width="122" height="60" rx="8" ry="8" fill="rgba(0, 0, 0, 0)" stroke="rgba(204, 204, 204, 1)" stroke-width="2"></rect><text x="7241.971045927922" y="-2422.9402178528458" fill="rgba(255, 255, 255, 1)" font-size="32" text-anchor="middle" font-family="MiSans">pages</text><rect x="7044.034806683988" y="-2340.5540279825314" width="139" height="60" rx="8" ry="8" fill="rgba(0, 0, 0, 0)" stroke="rgba(204, 204, 204, 1)" stroke-width="2"></rect><text x="7113.534806683988" y="-2296.5540279825314" fill="rgba(255, 255, 255, 1)" font-size="32" text-anchor="middle" font-family="MiSans">locales</text><rect x="7562.783902011705" y="-2899.1026092788534" width="165" height="60" rx="8" ry="8" fill="rgba(0, 0, 0, 0)" stroke="rgba(204, 204, 204, 1)" stroke-width="2"></rect><text x="7645.283902011705" y="-2855.1026092788534" fill="rgba(255, 255, 255, 1)" font-size="32" text-anchor="middle" font-family="MiSans">state.tsx</text><rect x="7367.334370163554" y="-2558.1490631499296" width="104" height="60" rx="8" ry="8" fill="rgba(0, 0, 0, 0)" stroke="rgba(204, 204, 204, 1)" stroke-width="2"></rect><text x="7419.334370163554" y="-2514.1490631499296" fill="rgba(255, 255, 255, 1)" font-size="32" text-anchor="middle" font-family="MiSans">设置界面</text><rect x="7386.746223066648" y="-2329.9383552069685" width="85" height="60" rx="8" ry="8" fill="rgba(0, 0, 0, 0)" stroke="rgba(204, 204, 204, 1)" stroke-width="2"></rect><text x="7429.246223066648" y="-2285.9383552069685" fill="rgba(255, 255, 255, 1)" font-size="32" text-anchor="middle" font-family="MiSans">主界面</text><rect x="7619.901651404409" y="-2445.700823788461" width="181" height="60" rx="8" ry="8" fill="rgba(0, 0, 0, 0)" stroke="rgba(204, 204, 204, 1)" stroke-width="2"></rect><text x="7710.401651404409" y="-2401.700823788461" fill="rgba(255, 255, 255, 1)" font-size="32" text-anchor="middle" font-family="MiSans">右侧toolbar</text><rect x="7645.75879426155" y="-2367.8436809313184" width="176" height="60" rx="8" ry="8" fill="rgba(0, 0, 0, 0)" stroke="rgba(204, 204, 204, 1)" stroke-width="2"></rect><text x="7733.75879426155" y="-2323.8436809313184" fill="rgba(255, 255, 255, 1)" font-size="32" text-anchor="middle" font-family="MiSans">左上角menu</text><rect x="7637.773536816825" y="-2285.1569888853596" width="104" height="60" rx="8" ry="8" fill="rgba(0, 0, 0, 0)" stroke="rgba(204, 204, 204, 1)" stroke-width="2"></rect><text x="7689.773536816825" y="-2241.1569888853596" fill="rgba(255, 255, 255, 1)" font-size="32" text-anchor="middle" font-family="MiSans">闪电面板</text><rect x="7618.670294766449" y="-2207.5977263743853" width="102" height="60" rx="8" ry="8" fill="rgba(0, 0, 0, 0)" stroke="rgba(204, 204, 204, 1)" stroke-width="2"></rect><text x="7669.670294766449" y="-2163.5977263743853" fill="rgba(255, 255, 255, 1)" font-size="32" text-anchor="middle" font-family="MiSans">AI面板</text><rect x="6424.211484453205" y="-2.2339691606406973" width="134" height="60" rx="8" ry="8" fill="rgba(0, 0, 0, 0)" stroke="rgba(204, 204, 204, 1)" stroke-width="2"></rect><text x="6491.211484453205" y="41.7660308393593" fill="rgba(255, 255, 255, 1)" font-size="32" text-anchor="middle" font-family="MiSans">工具/算法层</text><rect x="10288.32670759314" y="-1644.4714597888637" width="158" height="60" rx="8" ry="8" fill="rgba(0, 0, 0, 0)" stroke="rgba(204, 204, 204, 1)" stroke-width="2"></rect><text x="10367.32670759314" y="-1600.4714597888637" fill="rgba(255, 255, 255, 1)" font-size="32" text-anchor="middle" font-family="MiSans">src/utils</text><rect x="8645.32805990679" y="-2502.8468496834143" width="303" height="60" rx="8" ry="8" fill="rgba(0, 0, 0, 0)" stroke="rgba(204, 204, 204, 1)" stroke-width="2"></rect><text x="8796.82805990679" y="-2458.8468496834143" fill="rgba(255, 255, 255, 1)" font-size="32" text-anchor="middle" font-family="MiSans">合并tailwindcss的类名</text><rect x="9009.78997756196" y="-2399.875319982968" width="221" height="60" rx="8" ry="8" fill="rgba(0, 0, 0, 0)" stroke="rgba(204, 204, 204, 1)" stroke-width="2"></rect><text x="9120.28997756196" y="-2355.875319982968" fill="rgba(255, 255, 255, 1)" font-size="32" text-anchor="middle" font-family="MiSans">dialog自动对话框</text><rect x="9907.343643334287" y="-2169.029229014481" width="217" height="60" rx="8" ry="8" fill="rgba(0, 0, 0, 0)" stroke="rgba(204, 204, 204, 1)" stroke-width="2"></rect><text x="10015.843643334287" y="-2125.029229014481" fill="rgba(255, 255, 255, 1)" font-size="32" text-anchor="middle" font-family="MiSans">canvasUI工具</text><rect x="9602.886815565837" y="-2282.079975780453" width="142" height="60" rx="8" ry="8" fill="rgba(0, 0, 0, 0)" stroke="rgba(204, 204, 204, 1)" stroke-width="2"></rect><text x="9673.886815565837" y="-2238.079975780453" fill="rgba(255, 255, 255, 1)" font-size="32" text-anchor="middle" font-family="MiSans">测量字体宽度</text><rect x="10196.484634595374" y="-709.1301547906036" width="142" height="60" rx="8" ry="8" fill="rgba(0, 0, 0, 0)" stroke="rgba(204, 204, 204, 1)" stroke-width="2"></rect><text x="10267.484634595374" y="-665.1301547906036" fill="rgba(255, 255, 255, 1)" font-size="32" text-anchor="middle" font-family="MiSans">文件路径工具</text><rect x="10174.686840604047" y="-574.1471963720622" width="180" height="60" rx="8" ry="8" fill="rgba(0, 0, 0, 0)" stroke="rgba(204, 204, 204, 1)" stroke-width="2"></rect><text x="10264.686840604047" y="-530.1471963720622" fill="rgba(255, 255, 255, 1)" font-size="32" text-anchor="middle" font-family="MiSans">检测系统平台工具</text><rect x="9049.058238560405" y="-2288.8484057908754" width="128.703125" height="60" rx="8" ry="8" fill="rgba(0, 0, 0, 0)" stroke="rgba(204, 204, 204, 1)" stroke-width="2"></rect><text x="9113.409801060405" y="-2244.8484057908754" fill="rgba(255, 255, 255, 1)" font-size="32" text-anchor="middle" font-family="MiSans">Popup</text><rect x="8739.462789970506" y="-2354.4094705868297" width="85" height="60" rx="8" ry="8" fill="rgba(0, 0, 0, 0)" stroke="rgba(204, 204, 204, 1)" stroke-width="2"></rect><text x="8781.962789970506" y="-2310.4094705868297" fill="rgba(255, 255, 255, 1)" font-size="32" text-anchor="middle" font-family="MiSans">小组件</text><rect x="10487.324606968541" y="-262.09690931139426" width="181" height="60" rx="8" ry="8" fill="rgba(0, 0, 0, 0)" stroke="rgba(204, 204, 204, 1)" stroke-width="2"></rect><text x="10577.824606968541" y="-218.09690931139426" fill="rgba(255, 255, 255, 1)" font-size="32" text-anchor="middle" font-family="MiSans">XML生成工具</text><rect x="7866.171431803357" y="-1032.8534729108844" width="154" height="60" rx="8" ry="8" fill="rgba(0, 0, 0, 0)" stroke="rgba(204, 204, 204, 1)" stroke-width="2"></rect><text x="7943.171431803357" y="-988.8534729108844" fill="rgba(255, 255, 255, 1)" font-size="32" text-anchor="middle" font-family="MiSans">Camera</text><rect x="7908.31995882494" y="-1661.787140500705" width="121" height="60" rx="8" ry="8" fill="rgba(0, 0, 0, 0)" stroke="rgba(204, 204, 204, 1)" stroke-width="2"></rect><text x="7968.81995882494" y="-1617.787140500705" fill="rgba(255, 255, 255, 1)" font-size="32" text-anchor="middle" font-family="MiSans">Stage</text><rect x="8205.242940916578" y="-663.2679492009545" width="234" height="60" rx="8" ry="8" fill="rgba(0, 0, 0, 0)" stroke="rgba(204, 204, 204, 1)" stroke-width="2"></rect><text x="8322.242940916578" y="-619.2679492009545" fill="rgba(255, 255, 255, 1)" font-size="32" text-anchor="middle" font-family="MiSans">StageLoader</text><rect x="7851.059262847641" y="-305.2046930401575" width="386" height="60" rx="8" ry="8" fill="rgba(0, 0, 0, 0)" stroke="rgba(204, 204, 204, 1)" stroke-width="2"></rect><text x="8044.059262847641" y="-261.2046930401575" fill="rgba(255, 255, 255, 1)" font-size="32" text-anchor="middle" font-family="MiSans">StageHistoryManager</text><rect x="8142.52320827816" y="-3769.6558101969663" width="291" height="60" rx="8" ry="8" fill="rgba(0, 0, 0, 0)" stroke="rgba(204, 204, 204, 1)" stroke-width="2"></rect><text x="8288.02320827816" y="-3725.6558101969663" fill="rgba(255, 255, 255, 1)" font-size="32" text-anchor="middle" font-family="MiSans">这部分全部在docs文件夹中</text><rect x="6437.848292882879" y="-1972.4276364195696" width="202" height="60" rx="8" ry="8" fill="rgba(0, 0, 0, 0)" stroke="rgba(204, 204, 204, 1)" stroke-width="2"></rect><text x="6538.848292882879" y="-1928.4276364195696" fill="rgba(255, 255, 255, 1)" font-size="32" text-anchor="middle" font-family="MiSans">Canvas交互层</text><rect x="6370.245467465199" y="-1086.7763488452597" width="251" height="60" rx="8" ry="8" fill="rgba(0, 0, 0, 0)" stroke="rgba(204, 204, 204, 1)" stroke-width="2"></rect><text x="6495.745467465199" y="-1042.7763488452597" fill="rgba(255, 255, 255, 1)" font-size="32" text-anchor="middle" font-family="MiSans">Canvas/数据渲染层</text><rect x="6433.4031784592335" y="-1515.2585249894857" width="85" height="60" rx="8" ry="8" fill="rgba(0, 0, 0, 0)" stroke="rgba(204, 204, 204, 1)" stroke-width="2"></rect><text x="6475.9031784592335" y="-1471.2585249894857" fill="rgba(255, 255, 255, 1)" font-size="32" text-anchor="middle" font-family="MiSans">业务层</text><rect x="6394.517012479172" y="-545.6061490569381" width="123" height="60" rx="8" ry="8" fill="rgba(0, 0, 0, 0)" stroke="rgba(204, 204, 204, 1)" stroke-width="2"></rect><text x="6456.017012479172" y="-501.6061490569381" fill="rgba(255, 255, 255, 1)" font-size="32" text-anchor="middle" font-family="MiSans">舞台数据层</text><rect x="7469.026512943606" y="-1319.3266045858638" width="142" height="60" rx="8" ry="8" fill="rgba(0, 0, 0, 0)" stroke="rgba(204, 204, 204, 1)" stroke-width="2"></rect><text x="7540.026512943606" y="-1275.3266045858638" fill="rgba(255, 255, 255, 1)" font-size="32" text-anchor="middle" font-family="MiSans">特效数组迭代</text><rect x="7722.066160520698" y="-1325.424851122587" width="142" height="60" rx="8" ry="8" fill="rgba(0, 0, 0, 0)" stroke="rgba(204, 204, 204, 1)" stroke-width="2"></rect><text x="7793.066160520698" y="-1281.424851122587" fill="rgba(255, 255, 255, 1)" font-size="32" text-anchor="middle" font-family="MiSans">自动计算引擎</text><rect x="7243.442923030517" y="-2015.0479689640003" width="142" height="60" rx="8" ry="8" fill="rgba(0, 0, 0, 0)" stroke="rgba(204, 204, 204, 1)" stroke-width="2"></rect><text x="7314.442923030517" y="-1971.0479689640003" fill="rgba(255, 255, 255, 1)" font-size="32" text-anchor="middle" font-family="MiSans">复制粘贴操作</text><rect x="7519.6708814675285" y="-2016.2380551074323" width="142" height="60" rx="8" ry="8" fill="rgba(0, 0, 0, 0)" stroke="rgba(204, 204, 204, 1)" stroke-width="2"></rect><text x="7590.6708814675285" y="-1972.2380551074323" fill="rgba(255, 255, 255, 1)" font-size="32" text-anchor="middle" font-family="MiSans">移动实体操作</text><rect x="7810.545839519777" y="-2009.9543102432426" width="180" height="60" rx="8" ry="8" fill="rgba(0, 0, 0, 0)" stroke="rgba(204, 204, 204, 1)" stroke-width="2"></rect><text x="7900.545839519777" y="-1965.9543102432426" fill="rgba(255, 255, 255, 1)" font-size="32" text-anchor="middle" font-family="MiSans">缩放移动视野操作</text><rect x="6416.071912285041" y="-2346.406787420575" width="199" height="60" rx="8" ry="8" fill="rgba(0, 0, 0, 0)" stroke="rgba(204, 204, 204, 1)" stroke-width="2"></rect><text x="6515.571912285041" y="-2302.406787420575" fill="rgba(255, 255, 255, 1)" font-size="32" text-anchor="middle" font-family="MiSans">React的UI层</text><rect x="6925.955691623496" y="112.685542729737" width="66" height="60" rx="8" ry="8" fill="rgba(0, 0, 0, 0)" stroke="rgba(204, 204, 204, 1)" stroke-width="2"></rect><text x="6958.955691623496" y="156.685542729737" fill="rgba(255, 255, 255, 1)" font-size="32" text-anchor="middle" font-family="MiSans">算法</text><rect x="6753.511174255083" y="-70.97035866685047" width="104" height="60" rx="8" ry="8" fill="rgba(0, 0, 0, 0)" stroke="rgba(204, 204, 204, 1)" stroke-width="2"></rect><text x="6805.511174255083" y="-26.970358666850473" fill="rgba(255, 255, 255, 1)" font-size="32" text-anchor="middle" font-family="MiSans">随机算法</text><rect x="6969.101016937639" y="-20.65402554870974" width="142" height="60" rx="8" ry="8" fill="rgba(0, 0, 0, 0)" stroke="rgba(204, 204, 204, 1)" stroke-width="2"></rect><text x="7040.101016937639" y="23.34597445129026" fill="rgba(255, 255, 255, 1)" font-size="32" text-anchor="middle" font-family="MiSans">扩展数组算法</text><rect x="7676.422707046121" y="277.3059041769549" width="104" height="60" rx="8" ry="8" fill="rgba(0, 0, 0, 0)" stroke="rgba(204, 204, 204, 1)" stroke-width="2"></rect><text x="7728.422707046121" y="321.3059041769549" fill="rgba(255, 255, 255, 1)" font-size="32" text-anchor="middle" font-family="MiSans">数据结构</text><rect x="8091.107858780125" y="23.53713355683155" width="66" height="60" rx="8" ry="8" fill="rgba(0, 0, 0, 0)" stroke="rgba(204, 204, 204, 1)" stroke-width="2"></rect><text x="8124.107858780125" y="67.53713355683155" fill="rgba(255, 255, 255, 1)" font-size="32" text-anchor="middle" font-family="MiSans">形状</text><rect x="8024.56406650067" y="-146.16265019637194" width="66" height="60" rx="8" ry="8" fill="rgba(0, 0, 0, 0)" stroke="rgba(204, 204, 204, 1)" stroke-width="2"></rect><text x="8057.56406650067" y="-102.16265019637194" fill="rgba(255, 255, 255, 1)" font-size="32" text-anchor="middle" font-family="MiSans">矩形</text><rect x="7565.470025068895" y="18.78934002690866" width="66" height="60" rx="8" ry="8" fill="rgba(0, 0, 0, 0)" stroke="rgba(204, 204, 204, 1)" stroke-width="2"></rect><text x="7598.470025068895" y="62.78934002690866" fill="rgba(255, 255, 255, 1)" font-size="32" text-anchor="middle" font-family="MiSans">向量</text><rect x="8190.950394739689" y="-140.3733727534568" width="66" height="60" rx="8" ry="8" fill="rgba(0, 0, 0, 0)" stroke="rgba(204, 204, 204, 1)" stroke-width="2"></rect><text x="8223.950394739688" y="-96.3733727534568" fill="rgba(255, 255, 255, 1)" font-size="32" text-anchor="middle" font-family="MiSans">线段</text><rect x="8369.66875024212" y="-138.6342462867267" width="66" height="60" rx="8" ry="8" fill="rgba(0, 0, 0, 0)" stroke="rgba(204, 204, 204, 1)" stroke-width="2"></rect><text x="8402.66875024212" y="-94.6342462867267" fill="rgba(255, 255, 255, 1)" font-size="32" text-anchor="middle" font-family="MiSans">圆形</text><rect x="7819.803972681763" y="19.6744885043519" width="123" height="60" rx="8" ry="8" fill="rgba(0, 0, 0, 0)" stroke="rgba(204, 204, 204, 1)" stroke-width="2"></rect><text x="7881.303972681763" y="63.6744885043519" fill="rgba(255, 255, 255, 1)" font-size="32" text-anchor="middle" font-family="MiSans">进度条对象</text><rect x="7964.116228279625" y="-1859.6694679238124" width="443" height="60" rx="8" ry="8" fill="rgba(0, 0, 0, 0)" stroke="rgba(204, 204, 204, 1)" stroke-width="2"></rect><text x="8185.616228279625" y="-1815.6694679238124" fill="rgba(255, 255, 255, 1)" font-size="32" text-anchor="middle" font-family="MiSans">详见ConcreteController……</text><rect x="7251.930825877779" y="-616.9422751140784" width="142" height="60" rx="8" ry="8" fill="rgba(0, 0, 0, 0)" stroke="rgba(204, 204, 204, 1)" stroke-width="2"></rect><text x="7322.930825877779" y="-572.9422751140784" fill="rgba(255, 255, 255, 1)" font-size="32" text-anchor="middle" font-family="MiSans">实体实时管理</text><rect x="7918.9415440000375" y="-1553.236296609341" width="66" height="60" rx="8" ry="8" fill="rgba(0, 0, 0, 0)" stroke="rgba(204, 204, 204, 1)" stroke-width="2"></rect><text x="7951.9415440000375" y="-1509.236296609341" fill="rgba(255, 255, 255, 1)" font-size="32" text-anchor="middle" font-family="MiSans">功能</text><rect x="7702.854533648112" y="-1441.8273619014374" width="180" height="60" rx="8" ry="8" fill="rgba(0, 0, 0, 0)" stroke="rgba(204, 204, 204, 1)" stroke-width="2"></rect><text x="7792.854533648112" y="-1397.8273619014374" fill="rgba(255, 255, 255, 1)" font-size="32" text-anchor="middle" font-family="MiSans">每帧迭代逻辑循环</text><rect x="8187.318131448994" y="-1409.9503796899764" width="275" height="60" rx="8" ry="8" fill="rgba(0, 0, 0, 0)" stroke="rgba(204, 204, 204, 1)" stroke-width="2"></rect><text x="8324.818131448994" y="-1365.9503796899764" fill="rgba(255, 255, 255, 1)" font-size="32" text-anchor="middle" font-family="MiSans">实时维护当前工程文件的路径</text><rect x="8540.393375558848" y="-1741.370065739553" width="85" height="60" rx="8" ry="8" fill="rgba(0, 0, 0, 0)" stroke="rgba(204, 204, 204, 1)" stroke-width="2"></rect><text x="8582.893375558848" y="-1697.370065739553" fill="rgba(255, 255, 255, 1)" font-size="32" text-anchor="middle" font-family="MiSans">框选框</text><rect x="8213.768295394806" y="-1634.7276856545495" width="142" height="60" rx="8" ry="8" fill="rgba(0, 0, 0, 0)" stroke="rgba(204, 204, 204, 1)" stroke-width="2"></rect><text x="8284.768295394806" y="-1590.7276856545495" fill="rgba(255, 255, 255, 1)" font-size="32" text-anchor="middle" font-family="MiSans">维护交互对象</text><rect x="8539.208489687458" y="-1672.9160951882354" width="85" height="60" rx="8" ry="8" fill="rgba(0, 0, 0, 0)" stroke="rgba(204, 204, 204, 1)" stroke-width="2"></rect><text x="8581.708489687458" y="-1628.9160951882354" fill="rgba(255, 255, 255, 1)" font-size="32" text-anchor="middle" font-family="MiSans">斩断线</text><rect x="8539.208489687458" y="-1610.0524067575366" width="218" height="60" rx="8" ry="8" fill="rgba(0, 0, 0, 0)" stroke="rgba(204, 204, 204, 1)" stroke-width="2"></rect><text x="8648.208489687458" y="-1566.0524067575366" fill="rgba(255, 255, 255, 1)" font-size="32" text-anchor="middle" font-family="MiSans">多重连线时的备选实体</text><rect x="8535.565502437912" y="-1547.1887183268377" width="256" height="60" rx="8" ry="8" fill="rgba(0, 0, 0, 0)" stroke="rgba(204, 204, 204, 1)" stroke-width="2"></rect><text x="8663.565502437912" y="-1503.1887183268377" fill="rgba(255, 255, 255, 1)" font-size="32" text-anchor="middle" font-family="MiSans">鼠标连接释放时的目标实体</text><rect x="8005.538207929209" y="-1317.7449332513286" width="104" height="60" rx="8" ry="8" fill="rgba(0, 0, 0, 0)" stroke="rgba(204, 204, 204, 1)" stroke-width="2"></rect><text x="8057.538207929209" y="-1273.7449332513286" fill="rgba(255, 255, 255, 1)" font-size="32" text-anchor="middle" font-family="MiSans">自动保存</text><rect x="8208.107212804358" y="-1318.4990149578482" width="104" height="60" rx="8" ry="8" fill="rgba(0, 0, 0, 0)" stroke="rgba(204, 204, 204, 1)" stroke-width="2"></rect><text x="8260.107212804358" y="-1274.4990149578482" fill="rgba(255, 255, 255, 1)" font-size="32" text-anchor="middle" font-family="MiSans">自动备份</text><rect x="7424.873841264256" y="-1136.679959799252" width="66" height="60" rx="8" ry="8" fill="rgba(0, 0, 0, 0)" stroke="rgba(204, 204, 204, 1)" stroke-width="2"></rect><text x="7457.873841264256" y="-1092.679959799252" fill="rgba(255, 255, 255, 1)" font-size="32" text-anchor="middle" font-family="MiSans">功能</text><rect x="7331.054856716794" y="-1033.6630355902748" width="180" height="60" rx="8" ry="8" fill="rgba(0, 0, 0, 0)" stroke="rgba(204, 204, 204, 1)" stroke-width="2"></rect><text x="7421.054856716794" y="-989.6630355902748" fill="rgba(255, 255, 255, 1)" font-size="32" text-anchor="middle" font-family="MiSans">每帧迭代渲染循环</text><rect x="8492.099586776272" y="-438.1017049174308" width="189" height="60" rx="8" ry="8" fill="rgba(0, 0, 0, 0)" stroke="rgba(204, 204, 204, 1)" stroke-width="2"></rect><text x="8586.599586776272" y="-394.1017049174308" fill="rgba(255, 255, 255, 1)" font-size="32" text-anchor="middle" font-family="MiSans">序列化json数据</text><rect x="8596.25119223341" y="-664.0588656072674" width="341" height="60" rx="8" ry="8" fill="rgba(0, 0, 0, 0)" stroke="rgba(204, 204, 204, 1)" stroke-width="2"></rect><text x="8766.75119223341" y="-620.0588656072674" fill="rgba(255, 255, 255, 1)" font-size="32" text-anchor="middle" font-family="MiSans">各种StageObject类的对象</text><rect x="8147.6102135547135" y="-443.52719920245045" width="252" height="60" rx="8" ry="8" fill="rgba(0, 0, 0, 0)" stroke="rgba(204, 204, 204, 1)" stroke-width="2"></rect><text x="8273.610213554713" y="-399.52719920245045" fill="rgba(255, 255, 255, 1)" font-size="32" text-anchor="middle" font-family="MiSans">StageDumper</text><rect x="7942.806723085975" y="-766.187445361575" width="323" height="60" rx="8" ry="8" fill="rgba(0, 0, 0, 0)" stroke="rgba(204, 204, 204, 1)" stroke-width="2"></rect><text x="8104.306723085975" y="-722.187445361575" fill="rgba(255, 255, 255, 1)" font-size="32" text-anchor="middle" font-family="MiSans">StageDumperSVG</text><rect x="7979.900723700516" y="-669.870440925011" width="120" height="60" rx="8" ry="8" fill="rgba(0, 0, 0, 0)" stroke="rgba(204, 204, 204, 1)" stroke-width="2"></rect><text x="8039.900723700516" y="-625.870440925011" fill="rgba(255, 255, 255, 1)" font-size="32" text-anchor="middle" font-family="MiSans">转成svg</text><rect x="6280.115472508671" y="-817.8609590808818" width="161" height="60" rx="8" ry="8" fill="rgba(0, 0, 0, 0)" stroke="rgba(204, 204, 204, 1)" stroke-width="2"></rect><text x="6360.615472508671" y="-773.8609590808818" fill="rgba(255, 255, 255, 1)" font-size="32" text-anchor="middle" font-family="MiSans">这两层可能同级</text><rect x="7572.03208624051" y="-606.1510085793733" width="345" height="60" rx="8" ry="8" fill="rgba(0, 0, 0, 0)" stroke="rgba(204, 204, 204, 1)" stroke-width="2"></rect><text x="7744.53208624051" y="-562.1510085793733" fill="rgba(255, 255, 255, 1)" font-size="32" text-anchor="middle" font-family="MiSans">StageSaveManager</text><rect x="7627.957981878877" y="-436.64775781187893" width="236" height="60" rx="8" ry="8" fill="rgba(0, 0, 0, 0)" stroke="rgba(204, 204, 204, 1)" stroke-width="2"></rect><text x="7745.957981878877" y="-392.64775781187893" fill="rgba(255, 255, 255, 1)" font-size="32" text-anchor="middle" font-family="MiSans">导出markdown</text><rect x="7409.384467985559" y="-439.6859040009136" width="123" height="60" rx="8" ry="8" fill="rgba(0, 0, 0, 0)" stroke="rgba(204, 204, 204, 1)" stroke-width="2"></rect><text x="7470.884467985559" y="-395.6859040009136" fill="rgba(255, 255, 255, 1)" font-size="32" text-anchor="middle" font-family="MiSans">导出纯文本</text><rect x="7915.324759364602" y="-440.7723881382452" width="66" height="60" rx="8" ry="8" fill="rgba(0, 0, 0, 0)" stroke="rgba(204, 204, 204, 1)" stroke-width="2"></rect><text x="7948.324759364602" y="-396.7723881382452" fill="rgba(255, 255, 255, 1)" font-size="32" text-anchor="middle" font-family="MiSans">保存</text><rect x="6730.72427622485" y="-647.234040184907" width="275" height="60" rx="8" ry="8" fill="rgba(0, 0, 0, 0)" stroke="rgba(204, 204, 204, 1)" stroke-width="2"></rect><text x="6868.22427622485" y="-603.234040184907" fill="rgba(255, 255, 255, 1)" font-size="32" text-anchor="middle" font-family="MiSans">有很多具体细分到功能的管理</text><rect x="7004.294680861352" y="-478.758380267021" width="66" height="60" rx="8" ry="8" fill="rgba(0, 0, 0, 0)" stroke="rgba(204, 204, 204, 1)" stroke-width="2"></rect><text x="7037.294680861352" y="-434.758380267021" fill="rgba(255, 255, 255, 1)" font-size="32" text-anchor="middle" font-family="MiSans">颜色</text><rect x="6899.206348674885" y="-485.21890400505725" width="66" height="60" rx="8" ry="8" fill="rgba(0, 0, 0, 0)" stroke="rgba(204, 204, 204, 1)" stroke-width="2"></rect><text x="6932.206348674885" y="-441.21890400505725" fill="rgba(255, 255, 255, 1)" font-size="32" text-anchor="middle" font-family="MiSans">连线</text><rect x="6785.266438446341" y="-483.9704110568672" width="66" height="60" rx="8" ry="8" fill="rgba(0, 0, 0, 0)" stroke="rgba(204, 204, 204, 1)" stroke-width="2"></rect><text x="6818.266438446341" y="-439.9704110568672" fill="rgba(255, 255, 255, 1)" font-size="32" text-anchor="middle" font-family="MiSans">移动</text><rect x="6608.900536589444" y="-494.51413576991894" width="104" height="60" rx="8" ry="8" fill="rgba(0, 0, 0, 0)" stroke="rgba(204, 204, 204, 1)" stroke-width="2"></rect><text x="6660.900536589444" y="-450.51413576991894" fill="rgba(255, 255, 255, 1)" font-size="32" text-anchor="middle" font-family="MiSans">内容修改</text><rect x="7125.764747786985" y="-477.82946498296957" width="92" height="60" rx="8" ry="8" fill="rgba(0, 0, 0, 0)" stroke="rgba(204, 204, 204, 1)" stroke-width="2"></rect><text x="7171.764747786985" y="-433.82946498296957" fill="rgba(255, 255, 255, 1)" font-size="32" text-anchor="middle" font-family="MiSans">……</text><rect x="6708.863909648772" y="-995.5083560197284" width="349" height="60" rx="8" ry="8" fill="rgba(0, 0, 0, 0)" stroke="rgba(204, 204, 204, 1)" stroke-width="2"></rect><text x="6883.363909648772" y="-951.5083560197284" fill="rgba(255, 255, 255, 1)" font-size="32" text-anchor="middle" font-family="MiSans">StageStyleManager</text><rect x="8101.09334321277" y="-1031.2464148371766" width="145" height="60" rx="8" ry="8" fill="rgba(0, 0, 0, 0)" stroke="rgba(204, 204, 204, 1)" stroke-width="2"></rect><text x="8173.59334321277" y="-987.2464148371766" fill="rgba(255, 255, 255, 1)" font-size="32" text-anchor="middle" font-family="MiSans">Canvas</text><rect x="6945.017290776697" y="-1880.4293304920675" width="142" height="60" rx="8" ry="8" fill="rgba(0, 0, 0, 0)" stroke="rgba(204, 204, 204, 1)" stroke-width="2"></rect><text x="7016.017290776697" y="-1836.4293304920675" fill="rgba(255, 255, 255, 1)" font-size="32" text-anchor="middle" font-family="MiSans">其他类型控制</text><rect x="6803.184194513658" y="-2014.55473326389" width="66" height="60" rx="8" ry="8" fill="rgba(0, 0, 0, 0)" stroke="rgba(204, 204, 204, 1)" stroke-width="2"></rect><text x="6836.184194513658" y="-1970.55473326389" fill="rgba(255, 255, 255, 1)" font-size="32" text-anchor="middle" font-family="MiSans">手柄</text><rect x="6936.997369244474" y="-2017.8152720141877" width="142" height="60" rx="8" ry="8" fill="rgba(0, 0, 0, 0)" stroke="rgba(204, 204, 204, 1)" stroke-width="2"></rect><text x="7007.997369244474" y="-1973.8152720141877" fill="rgba(255, 255, 255, 1)" font-size="32" text-anchor="middle" font-family="MiSans">拖拽文件控制</text><rect x="10431.744262148788" y="-1542.079615577376" width="389" height="60" rx="8" ry="8" fill="rgba(0, 0, 0, 0)" stroke="rgba(204, 204, 204, 1)" stroke-width="2"></rect><text x="10626.244262148788" y="-1498.079615577376" fill="rgba(255, 255, 255, 1)" font-size="32" text-anchor="middle" font-family="MiSans">这些工具函数在逻辑上可以散落在各个层级</text><rect x="5999.893278324886" y="-2702.471912388557" width="162" height="60" rx="8" ry="8" fill="rgba(0, 0, 0, 0)" stroke="rgba(204, 204, 204, 1)" stroke-width="2"></rect><text x="6080.893278324886" y="-2658.471912388557" fill="rgba(255, 255, 255, 1)" font-size="32" text-anchor="middle" font-family="MiSans">前端侧6层架构</text><line x1="7233.756924617996" y1="-3308.3100029970547" x2="7305.96249353868" y2="-3208.8681926417935" stroke="rgba(204, 204, 204, 1)" stroke-width="2"></line><polygon points="7305.96249353868,-3208.8681926417935 7300.590951115899,-3222.873424949765 7301.5558273359,-3214.9370716962217 7294.30798518906,-3218.311308395009" fill="rgba(204, 204, 204, 1)" stroke="rgba(204, 204, 204, 1)"></polygon><line x1="7159.973662025715" y1="-3329.25013208684" x2="5959.140430181997" y2="-3120.0310154483795" stroke="rgba(204, 204, 204, 1)" stroke-width="2"></line><polygon points="5959.140430181997,-3120.0310154483795 5974.080657762065,-3118.693256181637 5966.529124805106,-3121.3183350537715 5972.747926438028,-3126.342595729267" fill="rgba(204, 204, 204, 1)" stroke="rgba(204, 204, 204, 1)"></polygon><line x1="7600.359502689408" y1="-3979.0725156542667" x2="7230.157583509499" y2="-3368.3100029970547" stroke="rgba(204, 204, 204, 1)" stroke-width="2"></line><polygon points="7230.157583509499,-3368.3100029970547 7240.987853147495,-3378.688117448548 7234.045175247857,-3374.72378740845 7234.347814920093,-3382.7128485744283" fill="rgba(204, 204, 204, 1)" stroke="rgba(204, 204, 204, 1)"></polygon><line x1="7652.975191039945" y1="-3979.0725156542667" x2="8018.946489237142" y2="-3660.205958837592" stroke="rgba(204, 204, 204, 1)" stroke-width="2"></line><polygon points="8018.946489237142,-3660.205958837592 8010.572765304509,-3672.6510682183907 8013.291775469702,-3665.132845502447 8005.4720768968045,-3666.796877747923" fill="rgba(204, 204, 204, 1)" stroke="rgba(204, 204, 204, 1)"></polygon><line x1="8566.493444246662" y1="-3578.353973939739" x2="8601.556949350083" y2="-3579.128023484741" stroke="rgba(204, 204, 204, 1)" stroke-width="2"></line><line x1="8700.620454453503" y1="-3581.314914408094" x2="8665.556949350083" y2="-3580.540864863092" stroke="rgba(204, 204, 204, 1)" stroke-width="2"></line><text x="8633.556949350083" y="-3565.8344441739164" fill="rgba(204, 204, 204, 1)" font-size="32" text-anchor="middle" font-family="MiSans">生成</text><polygon points="8700.620454453503,-3581.314914408094 8686.049413143515,-3584.8764807970097 8693.122281288957,-3581.149387387642 8686.220779325004,-3577.113800723166" fill="rgba(204, 204, 204, 1)" stroke="rgba(204, 204, 204, 1)"></polygon><line x1="8789.573579453503" y1="-3583.0576108861405" x2="8824.501992905365" y2="-3583.65512108549" stroke="rgba(204, 204, 204, 1)" stroke-width="2"></line><polygon points="8824.501992905365,-3583.65512108549 8809.948821640832,-3587.289017911922 8817.003090062646,-3583.5268395379003 8810.081628471436,-3579.525582419645" fill="rgba(204, 204, 204, 1)" stroke="rgba(204, 204, 204, 1)"></polygon><line x1="8143.378256103894" y1="-3617.8016723051896" x2="8330.493444246662" y2="-3592.0124455464424" stroke="rgba(204, 204, 204, 1)" stroke-width="2"></line><polygon points="8330.493444246662,-3592.0124455464424 8316.67030786888,-3597.8366107811567 8323.06367959057,-3593.0364558760257 8315.61017436617,-3590.1447524066525" fill="rgba(204, 204, 204, 1)" stroke="rgba(204, 204, 204, 1)"></polygon><line x1="5838.140430181997" y1="-3104.7149424994027" x2="5394.100738698756" y2="-3069.666914593804" stroke="rgba(204, 204, 204, 1)" stroke-width="2"></line><polygon points="5394.100738698756,-3069.666914593804 5408.850181974479,-3066.936727227298 5401.577485034034,-3070.257053762054 5408.239224950463,-3074.67722461518" fill="rgba(204, 204, 204, 1)" stroke="rgba(204, 204, 204, 1)"></polygon><line x1="7327.784003283309" y1="-3148.8681926417935" x2="7328.172970366699" y2="-2843.7732565372694" stroke="rgba(204, 204, 204, 1)" stroke-width="2"></line><polygon points="7328.172970366699,-2843.7732565372694 7332.0367809470345,-2858.2670816983264 7328.1634085863825,-2851.2732504420906 7324.272215904152,-2858.257182614923" fill="rgba(204, 204, 204, 1)" stroke="rgba(204, 204, 204, 1)"></polygon><line x1="7358.498508818986" y1="-3148.8681926417935" x2="7614.53114932368" y2="-2899.1026092788534" stroke="rgba(204, 204, 204, 1)" stroke-width="2"></line><polygon points="7614.53114932368,-2899.1026092788534 7606.87078092319,-2911.999072203577 7609.16255037553,-2904.339797964964 7601.448844224146,-2906.441089590383" fill="rgba(204, 204, 204, 1)" stroke="rgba(204, 204, 204, 1)"></polygon><line x1="7300.308586653691" y1="-2466.9402178528458" x2="7367.334370163554" y2="-2501.4081347427277" stroke="rgba(204, 204, 204, 1)" stroke-width="2"></line><polygon points="7367.334370163554,-2501.4081347427277 7352.673930598664,-2498.234570222475 7360.6646110326665,-2497.9782202924903 7356.224839329839,-2491.329527465195" fill="rgba(204, 204, 204, 1)" stroke="rgba(204, 204, 204, 1)"></polygon><line x1="7282.9796512538505" y1="-2406.9402178528458" x2="7388.2376177407195" y2="-2329.9383552069685" stroke="rgba(204, 204, 204, 1)" stroke-width="2"></line><polygon points="7388.2376177407195,-2329.9383552069685 7378.836005762075,-2341.6263701027074 7382.184447404029,-2334.3665748125227 7374.25157548282,-2335.359667037167" fill="rgba(204, 204, 204, 1)" stroke="rgba(204, 204, 204, 1)"></polygon><line x1="7471.746223066648" y1="-2317.4372345414376" x2="7637.539842620545" y2="-2385.700823788461" stroke="rgba(204, 204, 204, 1)" stroke-width="2"></line><polygon points="7637.539842620545,-2385.700823788461 7622.664062822854,-2383.7743826628025 7630.60469250045,-2382.845356609215 7625.620259977471,-2376.5945869359007" fill="rgba(204, 204, 204, 1)" stroke="rgba(204, 204, 204, 1)"></polygon><line x1="7471.746223066648" y1="-2305.2286995003533" x2="7645.75879426155" y2="-2326.8895562767807" stroke="rgba(204, 204, 204, 1)" stroke-width="2"></line><polygon points="7645.75879426155,-2326.8895562767807 7630.901310498622,-2328.952364128789 7638.316233642165,-2325.9631160861704 7631.860431960535,-2321.2472583982817" fill="rgba(204, 204, 204, 1)" stroke="rgba(204, 204, 204, 1)"></polygon><line x1="7471.746223066648" y1="-2292.633140098147" x2="7637.773536816825" y2="-2264.0951344302703" stroke="rgba(204, 204, 204, 1)" stroke-width="2"></line><polygon points="7637.773536816825,-2264.0951344302703 7624.151730738548,-2270.37577127424 7630.3819354556745,-2265.365657675961 7622.836388285627,-2262.723422449954" fill="rgba(204, 204, 204, 1)" stroke="rgba(204, 204, 204, 1)"></polygon><line x1="7471.746223066648" y1="-2278.3120817285085" x2="7618.670294766449" y2="-2203.549254548537" stroke="rgba(204, 204, 204, 1)" stroke-width="2"></line><polygon points="7618.670294766449,-2203.549254548537 7607.517768191841,-2213.580264019307 7611.985929896735,-2206.9506169650604 7603.996418701073,-2206.6601002885227" fill="rgba(204, 204, 204, 1)" stroke="rgba(204, 204, 204, 1)"></polygon><line x1="9925.099396820902" y1="-2169.029229014481" x2="9744.886815565837" y2="-2228.607413256218" stroke="rgba(204, 204, 204, 1)" stroke-width="2"></line><polygon points="9744.886815565837,-2228.607413256218 9757.424808647675,-2220.3734148666276 9752.007759029912,-2226.253233105626 9759.862035281978,-2227.7455580170317" fill="rgba(204, 204, 204, 1)" stroke="rgba(204, 204, 204, 1)"></polygon><line x1="8824.462789970506" y1="-2330.120801718956" x2="9009.78997756196" y2="-2355.025859039439" stroke="rgba(204, 204, 204, 1)" stroke-width="2"></line><polygon points="9009.78997756196,-2355.025859039439 8994.91310271647,-2356.9438253664625 9002.356795641446,-2354.026956373242 8995.947242853332,-2349.248429179499" fill="rgba(204, 204, 204, 1)" stroke="rgba(204, 204, 204, 1)"></polygon><line x1="8824.462789970506" y1="-2316.002862107647" x2="9049.058238560405" y2="-2271.5773091076085" stroke="rgba(204, 204, 204, 1)" stroke-width="2"></line><polygon points="9049.058238560405,-2271.5773091076085 9035.598070960737,-2278.1972704510663 9041.700790768291,-2273.032631060416 9034.091410808169,-2270.58028000328" fill="rgba(204, 204, 204, 1)" stroke="rgba(204, 204, 204, 1)"></polygon><line x1="10347.225028528635" y1="-1644.4714597888637" x2="10035.945322398791" y2="-2109.029229014481" stroke="rgba(204, 204, 204, 1)" stroke-width="2"></line><polygon points="10035.945322398791,-2109.029229014481 10040.785329320594,-2094.8315414211825 10040.120182214165,-2102.7986154394007 10047.235735144213,-2099.15367434459" fill="rgba(204, 204, 204, 1)" stroke="rgba(204, 204, 204, 1)"></polygon><line x1="10364.1243875695" y1="-1584.4714597888637" x2="10270.686954619014" y2="-709.1301547906036" stroke="rgba(204, 204, 204, 1)" stroke-width="2"></line><polygon points="10270.686954619014,-709.1301547906036 10276.085174792863,-723.1251259929548 10271.483012218558,-716.5877879471894 10268.364464823613,-723.9492654639963" fill="rgba(204, 204, 204, 1)" stroke="rgba(204, 204, 204, 1)"></polygon><line x1="10364.44982615177" y1="-1584.4714597888637" x2="10267.563722045417" y2="-574.1471963720622" stroke="rgba(204, 204, 204, 1)" stroke-width="2"></line><polygon points="10267.563722045417,-574.1471963720622 10272.81136120107,-588.1993237302976 10268.279658046904,-581.6129472145278 10265.082247184988,-588.9405152193344" fill="rgba(204, 204, 204, 1)" stroke="rgba(204, 204, 204, 1)"></polygon><line x1="10371.894888466464" y1="-1584.4714597888637" x2="10573.256426095217" y2="-262.09690931139426" stroke="rgba(204, 204, 204, 1)" stroke-width="2"></line><polygon points="10573.256426095217,-262.09690931139426 10574.913350379515,-277.0051151697833 10572.127395272191,-269.51144162305474 10567.237261688371,-275.83625645175584" fill="rgba(204, 204, 204, 1)" stroke="rgba(204, 204, 204, 1)"></polygon><line x1="10312.098285552473" y1="-1644.4714597888637" x2="9260.78997756196" y2="-2215.5406316817716" stroke="rgba(204, 204, 204, 1)" stroke-width="2"></line><polygon points="9260.78997756196,-2215.5406316817716 9271.668656358741,-2205.2132725015904 9267.38043458554,-2211.9607048361013 9275.374869349675,-2212.036215676119" fill="rgba(204, 204, 204, 1)" stroke="rgba(204, 204, 204, 1)"></polygon><line x1="8117.693999595537" y1="-3660.205958837592" x2="8223.707464786517" y2="-3709.6558101969663" stroke="rgba(204, 204, 204, 1)" stroke-width="2"></line><polygon points="8223.707464786517,-3709.6558101969663 8208.935650501988,-3707.049375324702 8216.910523819612,-3706.4853853843592 8212.21791579226,-3700.012664242011" fill="rgba(204, 204, 204, 1)" stroke="rgba(204, 204, 204, 1)"></polygon><line x1="6564.703542630634" y1="-1912.4276364195696" x2="6705.303568492755" y2="-1749.288590499896" stroke="rgba(204, 204, 204, 1)" stroke-width="2"></line><polygon points="6705.303568492755,-1749.288590499896 6698.785443486704,-1762.7983664567903 6700.407262195236,-1754.969803807005 6692.9038186740245,-1757.7293371749768" fill="rgba(204, 204, 204, 1)" stroke="rgba(204, 204, 204, 1)"></polygon><line x1="6707.165410151014" y1="-1748.2934235379305" x2="8812.186573582385" y2="-1758.4670708844978" stroke="rgba(204, 204, 204, 1)" stroke-width="2"></line><polygon points="8812.186573582385,-1758.4670708844978 8797.679092387458,-1762.2792866940817 8804.686661174313,-1758.4308235225733 8797.71661841786,-1754.5148060228425" fill="rgba(204, 204, 204, 1)" stroke="rgba(204, 204, 204, 1)"></polygon><line x1="6568.147801228213" y1="-1972.4276364195696" x2="6715.804589815644" y2="-2123.6145985150733" stroke="rgba(204, 204, 204, 1)" stroke-width="2"></line><polygon points="6715.804589815644,-2123.6145985150733 6702.90370463314,-2115.9616800189815 6710.5643012544615,-2118.2490253121864 6708.458554764335,-2110.5365340931135" fill="rgba(204, 204, 204, 1)" stroke="rgba(204, 204, 204, 1)"></polygon><line x1="6717.781240093822" y1="-2124.613952299579" x2="8570.163553724495" y2="-2123.4169141469724" stroke="rgba(204, 204, 204, 1)" stroke-width="2"></line><polygon points="8570.163553724495,-2123.4169141469724 8555.677178148031,-2127.308561954476 8562.663555290474,-2123.4217607621686 8555.672160562763,-2119.5439922226205" fill="rgba(204, 204, 204, 1)" stroke="rgba(204, 204, 204, 1)"></polygon><line x1="6526.152396368746" y1="-2.2339691606406973" x2="6776.798194272728" y2="-217.43653614845735" stroke="rgba(204, 204, 204, 1)" stroke-width="2"></line><polygon points="6776.798194272728,-217.43653614845735 6763.276269656033,-210.9436512226008 6771.107847306764,-212.5508477213328 6768.3343065095405,-205.052570550469" fill="rgba(204, 204, 204, 1)" stroke="rgba(204, 204, 204, 1)"></polygon><line x1="6778.798194272728" y1="-218.29493504073176" x2="8724.507581772876" y2="-217.91850430235738" stroke="rgba(204, 204, 204, 1)" stroke-width="2"></line><polygon points="8724.507581772876,-217.91850430235738 8710.019445744205,-221.80359302910685 8717.007581913236,-217.91995530552524 8710.017943555187,-214.0390218213433" fill="rgba(204, 204, 204, 1)" stroke="rgba(204, 204, 204, 1)"></polygon><line x1="6502.165829982924" y1="-1515.2585249894857" x2="6705.2899884335575" y2="-1747.288590499896" stroke="rgba(204, 204, 204, 1)" stroke-width="2"></line><polygon points="6705.2899884335575,-1747.288590499896 6692.8252785815375,-1738.9440708429618 6700.3498561566485,-1741.6454448269012 6698.667492879374,-1733.8296695686024" fill="rgba(204, 204, 204, 1)" stroke="rgba(204, 204, 204, 1)"></polygon><line x1="6501.196055752715" y1="-1455.2585249894857" x2="6697.79896054095" y2="-1222.0669005171326" stroke="rgba(204, 204, 204, 1)" stroke-width="2"></line><polygon points="6697.79896054095,-1222.0669005171326 6691.427885770104,-1235.646643013376 6692.964619716952,-1227.8009347686373 6685.491576691865,-1230.641765110307" fill="rgba(204, 204, 204, 1)" stroke="rgba(204, 204, 204, 1)"></polygon><line x1="6699.642056450733" y1="-1221.0657295975327" x2="8850.474645857617" y2="-1218.5472775625888" stroke="rgba(204, 204, 204, 1)" stroke-width="2"></line><polygon points="8850.474645857617,-1218.5472775625888 8835.99031423706,-1222.4465258883201 8842.97465099906,-1218.5560594535675 8835.98122255451,-1214.6819598580573" fill="rgba(204, 204, 204, 1)" stroke="rgba(204, 204, 204, 1)"></polygon><line x1="6532.79505800844" y1="-1086.7763488452597" x2="6697.642056450733" y2="-1220.257174969289" stroke="rgba(204, 204, 204, 1)" stroke-width="2"></line><polygon points="6697.642056450733,-1220.257174969289 6683.938659083727,-1214.1566093724036 6691.813295019572,-1215.5374779261933 6688.8248490111955,-1208.1222315014293" fill="rgba(204, 204, 204, 1)" stroke="rgba(204, 204, 204, 1)"></polygon><line x1="6524.029709256658" y1="-1026.7763488452597" x2="6709.595855959075" y2="-829.9535228307557" stroke="rgba(204, 204, 204, 1)" stroke-width="2"></line><polygon points="6709.595855959075,-829.9535228307557 6702.481345819138,-843.1589666123457 6704.450901241442,-835.4105770684835 6696.831787551613,-837.8325175438915" fill="rgba(204, 204, 204, 1)" stroke="rgba(204, 204, 204, 1)"></polygon><line x1="6711.538664018791" y1="-828.949219828657" x2="8815.48782858625" y2="-819.895922157985" stroke="rgba(204, 204, 204, 1)" stroke-width="2"></line><polygon points="8815.48782858625,-819.895922157985 8801.015780655676,-823.8405170288391 8807.987898019637,-819.9281943749531 8800.98236999816,-816.0760175584954" fill="rgba(204, 204, 204, 1)" stroke="rgba(204, 204, 204, 1)"></polygon><line x1="6480.385014847368" y1="-545.6061490569381" x2="6709.726397273184" y2="-827.9535228307557" stroke="rgba(204, 204, 204, 1)" stroke-width="2"></line><polygon points="6709.726397273184,-827.9535228307557 6697.577951707172,-819.1549280378558 6704.997770563717,-822.1320033175608 6703.604832192976,-814.259493439493" fill="rgba(204, 204, 204, 1)" stroke="rgba(204, 204, 204, 1)"></polygon><line x1="6488.4861602288165" y1="-485.6061490569381" x2="6776.798194272728" y2="-219.2190825404747" stroke="rgba(204, 204, 204, 1)" stroke-width="2"></line><polygon points="6776.798194272728,-219.2190825404747 6768.7909904553035,-231.90311529927115 6771.289577167582,-224.30879152910018 6763.521735974161,-226.20017522331418" fill="rgba(204, 204, 204, 1)" stroke="rgba(204, 204, 204, 1)"></polygon><line x1="6547.0449345635325" y1="-2286.406787420575" x2="6715.781240093822" y2="-2125.567795819563" stroke="rgba(204, 204, 204, 1)" stroke-width="2"></line><polygon points="6715.781240093822,-2125.567795819563 6707.972204956085,-2138.3747849355727 6710.35241938803,-2130.742533082881 6702.614922727492,-2132.7544561711497" fill="rgba(204, 204, 204, 1)" stroke="rgba(204, 204, 204, 1)"></polygon><line x1="6540.5224180781715" y1="-2346.406787420575" x2="6752.022769586224" y2="-2600.7106719930766" stroke="rgba(204, 204, 204, 1)" stroke-width="2"></line><polygon points="6752.022769586224,-2600.7106719930766 6739.773185634702,-2592.053438427173 6747.227003298566,-2594.944336439697 6745.742935481368,-2587.0884958227475" fill="rgba(204, 204, 204, 1)" stroke="rgba(204, 204, 204, 1)"></polygon><line x1="6753.854453112662" y1="-2601.7080833699856" x2="8411.104255566028" y2="-2597.418088263487" stroke="rgba(204, 204, 204, 1)" stroke-width="2"></line><polygon points="8411.104255566028,-2597.418088263487 8396.625466456922,-2601.3378670753623 8403.604280694537,-2597.4375028716227 8396.605366975567,-2593.5733217372335" fill="rgba(204, 204, 204, 1)" stroke="rgba(204, 204, 204, 1)"></polygon><line x1="6933.8906897038905" y1="112.685542729737" x2="6830.576176174688" y2="-10.970358666850473" stroke="rgba(204, 204, 204, 1)" stroke-width="2"></line><polygon points="6830.576176174688,-10.970358666850473 6836.8866689023325,2.637641977415461 6835.384914992061,-5.214836884570814 6842.845223509358,-2.3407307780235644" fill="rgba(204, 204, 204, 1)" stroke="rgba(204, 204, 204, 1)"></polygon><line x1="6977.212536091004" y1="112.685542729737" x2="7021.844172470131" y2="39.34597445129026" stroke="rgba(204, 204, 204, 1)" stroke-width="2"></line><polygon points="7021.844172470131,39.34597445129026 7010.9954910065835,49.70484072624964 7017.945197605533,45.75284537282764 7017.628371862614,53.741356531584486" fill="rgba(204, 204, 204, 1)" stroke="rgba(204, 204, 204, 1)"></polygon><line x1="7689.273787086967" y1="277.3059041769549" x2="7427.97167947116" y2="77.06888009932868" stroke="rgba(204, 204, 204, 1)" stroke-width="2"></line><polygon points="7427.97167947116,77.06888009932868 7437.110760158964,88.96329913439816 7433.924767591958,81.63075929830158 7441.8335650315685,82.80020880305445" fill="rgba(204, 204, 204, 1)" stroke="rgba(204, 204, 204, 1)"></polygon><line x1="7727.359183276615" y1="277.3059041769549" x2="7720.114050584987" y2="72.93437344020734" stroke="rgba(204, 204, 204, 1)" stroke-width="2"></line><polygon points="7720.114050584987,72.93437344020734 7716.747522238984,87.55170859048555 7720.379764610587,80.42966503270722 7724.507219089927,87.27662118898094" fill="rgba(204, 204, 204, 1)" stroke="rgba(204, 204, 204, 1)"></polygon><line x1="7775.1997573624885" y1="277.3059041769549" x2="8091.107858780125" y2="74.70135817775866" stroke="rgba(204, 204, 204, 1)" stroke-width="2"></line><polygon points="8091.107858780125,74.70135817775866 8076.81584330044,79.25528983385973 8084.794667470696,78.75026117617163 8081.007576131487,85.79118641888292" fill="rgba(204, 204, 204, 1)" stroke="rgba(204, 204, 204, 1)"></polygon><line x1="8112.34406200778" y1="23.53713355683155" x2="8069.327863273015" y2="-86.16265019637194" stroke="rgba(204, 204, 204, 1)" stroke-width="2"></line><polygon points="8069.327863273015,-86.16265019637194 8071.00287994613,-71.25646627342276 8072.065836349559,-79.18027929300933 8078.23156222517,-74.09102458217201" fill="rgba(204, 204, 204, 1)" stroke="rgba(204, 204, 204, 1)"></polygon><line x1="7713.342124213316" y1="277.3059041769549" x2="7613.5506079017" y2="78.78934002690866" stroke="rgba(204, 204, 204, 1)" stroke-width="2"></line><polygon points="7613.5506079017,78.78934002690866 7616.5893512889415,93.478316799526 7616.919101731211,85.49032870922551 7623.526725256942,89.99099537397372" fill="rgba(204, 204, 204, 1)" stroke="rgba(204, 204, 204, 1)"></polygon><line x1="8142.381709225787" y1="23.53713355683155" x2="8205.676544294027" y2="-80.3733727534568" stroke="rgba(204, 204, 204, 1)" stroke-width="2"></line><polygon points="8205.676544294027,-80.3733727534568 8194.823579726703,-70.01899396473227 8201.774920125701,-73.96811484692915 8201.454790666714,-65.97973539835212" fill="rgba(204, 204, 204, 1)" stroke="rgba(204, 204, 204, 1)"></polygon><line x1="8157.107858780125" y1="34.325335709869314" x2="8369.66875024212" y2="-89.42244843976445" stroke="rgba(204, 204, 204, 1)" stroke-width="2"></line><polygon points="8369.66875024212,-89.42244843976445 8355.193978202318,-85.48786149882478 8363.187145188138,-85.6490155300389 8359.100523412133,-78.77761017561201" fill="rgba(204, 204, 204, 1)" stroke="rgba(204, 204, 204, 1)"></polygon><line x1="7746.225031180758" y1="277.3059041769549" x2="7863.501648547126" y2="79.6744885043519" stroke="rgba(204, 204, 204, 1)" stroke-width="2"></line><polygon points="7863.501648547126,79.6744885043519 7852.76893628716,90.15346209649171 7859.674225537497,86.12435928641871 7859.446333874556,94.11590197071453" fill="rgba(204, 204, 204, 1)" stroke="rgba(204, 204, 204, 1)"></polygon><line x1="7694.733977157895" y1="-1028.0621612382233" x2="7557.790981261452" y2="-1259.3266045858638" stroke="rgba(204, 204, 204, 1)" stroke-width="2"></line><polygon points="7557.790981261452,-1259.3266045858638 7561.832809476468,-1244.8814107595322 7561.612380026832,-1252.8731627541008 7568.513904086555,-1248.837613877179" fill="rgba(204, 204, 204, 1)" stroke="rgba(204, 204, 204, 1)"></polygon><line x1="7638.1490971654985" y1="-1858.2730705025033" x2="7385.442923030517" y2="-1957.24183330774" stroke="rgba(204, 204, 204, 1)" stroke-width="2"></line><polygon points="7385.442923030517,-1957.24183330774 7397.51833608513,-1948.3432716509058 7392.4264583122,-1954.506831485166 7400.349818325419,-1955.573159383086" fill="rgba(204, 204, 204, 1)" stroke="rgba(204, 204, 204, 1)"></polygon><line x1="7691.186176952482" y1="-1858.2730705025033" x2="7614.235600158804" y2="-1956.2380551074323" stroke="rgba(204, 204, 204, 1)" stroke-width="2"></line><polygon points="7614.235600158804,-1956.2380551074323 7620.132527150984,-1942.4458017727193 7618.868446116499,-1950.3400267646496 7626.23861540565,-1947.24207684023" fill="rgba(204, 204, 204, 1)" stroke="rgba(204, 204, 204, 1)"></polygon><line x1="7751.498012992005" y1="-1858.2730705025033" x2="7863.798722171529" y2="-1949.9543102432426" stroke="rgba(204, 204, 204, 1)" stroke-width="2"></line><polygon points="7863.798722171529,-1949.9543102432426 7850.119913615728,-1943.7988089237924 7857.988945429887,-1945.2112633098598 7855.030277128427,-1937.7840854496699" fill="rgba(204, 204, 204, 1)" stroke="rgba(204, 204, 204, 1)"></polygon><line x1="7839.750895643758" y1="-1828.6437702876979" x2="7964.116228279625" y2="-1829.0125879044479" stroke="rgba(204, 204, 204, 1)" stroke-width="2"></line><polygon points="7964.116228279625,-1829.0125879044479 7949.615891349005,-1832.8518884785756 7956.616261259806,-1828.9903460151422 7949.63891784721,-1825.0873512690966" fill="rgba(204, 204, 204, 1)" stroke="rgba(204, 204, 204, 1)"></polygon><line x1="7224.855734162077" y1="-366.92399892194607" x2="7309.558060658485" y2="-556.9422751140784" stroke="rgba(204, 204, 204, 1)" stroke-width="2"></line><polygon points="7309.558060658485,-556.9422751140784 7300.113099017988,-545.2892626447834 7306.504505249988,-550.0920342885864 7307.204990174693,-542.1279894648037" fill="rgba(204, 204, 204, 1)" stroke="rgba(204, 204, 204, 1)"></polygon><line x1="7385.704899529935" y1="17.06888009932868" x2="7326.048685859851" y2="-556.9422751140784" stroke="rgba(204, 204, 204, 1)" stroke-width="2"></line><polygon points="7326.048685859851,-556.9422751140784 7323.684942232689,-542.1296887070713 7326.8239750864295,-549.4824542975205 7331.407917034198,-542.9323271762771" fill="rgba(204, 204, 204, 1)" stroke="rgba(204, 204, 204, 1)"></polygon><line x1="7290.277589924169" y1="-709.2808247928978" x2="7314.923561763728" y2="-616.9422751140784" stroke="rgba(204, 204, 204, 1)" stroke-width="2"></line><polygon points="7314.923561763728,-616.9422751140784 7314.938125982068,-631.9422680435282 7312.989453817773,-624.1886001449747 7307.436178282072,-629.9399321567391" fill="rgba(204, 204, 204, 1)" stroke="rgba(204, 204, 204, 1)"></polygon><line x1="7964.155301908465" y1="-1601.787140500705" x2="7956.6062009165125" y2="-1553.236296609341" stroke="rgba(204, 204, 204, 1)" stroke-width="2"></line><polygon points="7956.6062009165125,-1553.236296609341 7962.668497405411,-1566.9566669134067 7957.7585187188615,-1560.647245515007 7954.996118529139,-1568.1496340864408" fill="rgba(204, 204, 204, 1)" stroke="rgba(204, 204, 204, 1)"></polygon><line x1="7918.9415440000375" y1="-1500.1263340974563" x2="7835.693201148801" y2="-1441.8273619014374" stroke="rgba(204, 204, 204, 1)" stroke-width="2"></line><polygon points="7835.693201148801,-1441.8273619014374 7849.788265627371,-1446.9585564353567 7841.83656911558,-1446.1295741259514 7845.334287788263,-1453.318638958857" fill="rgba(204, 204, 204, 1)" stroke="rgba(204, 204, 204, 1)"></polygon><line x1="7730.937850132467" y1="-1381.8273619014374" x2="7601.94319645925" y2="-1319.3266045858638" stroke="rgba(204, 204, 204, 1)" stroke-width="2"></line><polygon points="7601.94319645925,-1319.3266045858638 7616.674987034011,-1322.150493121446 7608.692666883944,-1322.596872004009 7613.2893570724345,-1329.138059082514" fill="rgba(204, 204, 204, 1)" stroke="rgba(204, 204, 204, 1)"></polygon><line x1="7792.909075480029" y1="-1381.8273619014374" x2="7793.011618688781" y2="-1325.424851122587" stroke="rgba(204, 204, 204, 1)" stroke-width="2"></line><polygon points="7793.011618688781,-1325.424851122587 7796.867556310689,-1339.9207727923515 7792.997983253336,-1332.92483872757 7789.102997789879,-1339.9066563508266" fill="rgba(204, 204, 204, 1)" stroke="rgba(204, 204, 204, 1)"></polygon><line x1="7984.9415440000375" y1="-1510.555330795186" x2="8246.748368111654" y2="-1409.9503796899764" stroke="rgba(204, 204, 204, 1)" stroke-width="2"></line><polygon points="8246.748368111654,-1409.9503796899764 8234.616246153428,-1418.7714690099378 8239.747470190807,-1412.6406265749056 8231.831097634038,-1411.5236061510018" fill="rgba(204, 204, 204, 1)" stroke="rgba(204, 204, 204, 1)"></polygon><line x1="7984.9415440000375" y1="-1531.316223559991" x2="8213.768295394806" y2="-1587.3436003970905" stroke="rgba(204, 204, 204, 1)" stroke-width="2"></line><polygon points="8213.768295394806,-1587.3436003970905 8198.77181949606,-1587.668732090886 8206.483478570584,-1585.5599401610732 8200.618400452353,-1580.1269347541195" fill="rgba(204, 204, 204, 1)" stroke="rgba(204, 204, 204, 1)"></polygon><line x1="8355.768295394806" y1="-1630.1251093864576" x2="8540.393375558848" y2="-1696.1673825197488" stroke="rgba(204, 204, 204, 1)" stroke-width="2"></line><polygon points="8540.393375558848,-1696.1673825197488 8525.443443210226,-1694.942832491521 8533.331581114937,-1693.641306663416 8528.058629374196,-1687.6319249127876" fill="rgba(204, 204, 204, 1)" stroke="rgba(204, 204, 204, 1)"></polygon><line x1="8355.768295394806" y1="-1613.8587400857307" x2="8539.208489687458" y2="-1637.4503231695708" stroke="rgba(204, 204, 204, 1)" stroke-width="2"></line><polygon points="8539.208489687458,-1637.4503231695708 8524.342748092422,-1639.452753400465 8531.769754280544,-1636.493654185068 8525.333164704614,-1631.7516078213127" fill="rgba(204, 204, 204, 1)" stroke="rgba(204, 204, 204, 1)"></polygon><line x1="8355.768295394806" y1="-1599.907236983214" x2="8539.208489687458" y2="-1587.4528138726853" stroke="rgba(204, 204, 204, 1)" stroke-width="2"></line><polygon points="8539.208489687458,-1587.4528138726853 8525.015858002957,-1592.3076265228392 8531.725715956793,-1587.9608466429372 8524.489903777048,-1584.5608891160819" fill="rgba(204, 204, 204, 1)" stroke="rgba(204, 204, 204, 1)"></polygon><line x1="8355.768295394806" y1="-1588.3197856893307" x2="8535.565502437912" y2="-1546.769157700753" stroke="rgba(204, 204, 204, 1)" stroke-width="2"></line><polygon points="8535.565502437912,-1546.769157700753 8522.322819754867,-1553.8141101744166 8528.258093895447,-1548.4578792270877 8520.574526583307,-1546.2489241698772" fill="rgba(204, 204, 204, 1)" stroke="rgba(204, 204, 204, 1)"></polygon><line x1="7856.84836673808" y1="-1381.8273619014374" x2="8005.538207929209" y2="-1312.1222822031693" stroke="rgba(204, 204, 204, 1)" stroke-width="2"></line><polygon points="8005.538207929209,-1312.1222822031693 7994.067246859329,-1321.7875319223072 7998.74738380284,-1315.3057877685362 7990.771439377302,-1314.757153458923" fill="rgba(204, 204, 204, 1)" stroke="rgba(204, 204, 204, 1)"></polygon><line x1="7882.854533648112" y1="-1388.072439308021" x2="8208.107212804358" y2="-1302.2240813451554" stroke="rgba(204, 204, 204, 1)" stroke-width="2"></line><polygon points="8208.107212804358,-1302.2240813451554 8195.088865124075,-1309.6754318049898 8200.85555797899,-1304.138109112386 8193.107317768017,-1302.1679662957313" fill="rgba(204, 204, 204, 1)" stroke="rgba(204, 204, 204, 1)"></polygon><line x1="7250.111949785582" y1="-1108.850067066629" x2="7424.873841264256" y2="-1107.024650249044" stroke="rgba(204, 204, 204, 1)" stroke-width="2"></line><polygon points="7424.873841264256,-1107.024650249044 7410.426293087865,-1111.0580547279983 7417.374250361312,-1107.102984714547 7410.345195281624,-1103.2939069033607" fill="rgba(204, 204, 204, 1)" stroke="rgba(204, 204, 204, 1)"></polygon><line x1="7447.151626978542" y1="-1076.679959799252" x2="7431.777071002509" y2="-1033.6630355902748" stroke="rgba(204, 204, 204, 1)" stroke-width="2"></line><polygon points="7431.777071002509,-1033.6630355902748 7440.309213979833,-1046.0000747899574 7434.301249277676,-1040.7255085307663 7432.997603969751,-1048.6132964333462" fill="rgba(204, 204, 204, 1)" stroke="rgba(204, 204, 204, 1)"></polygon><line x1="8084.246091083695" y1="-706.187445361575" x2="8059.961355702795" y2="-669.870440925011" stroke="rgba(204, 204, 204, 1)" stroke-width="2"></line><polygon points="8059.961355702795,-669.870440925011 8071.24243223807,-679.7566592214716 8064.130326500095,-676.1049964417466 8064.787945416149,-684.0726953847419" fill="rgba(204, 204, 204, 1)" stroke="rgba(204, 204, 204, 1)"></polygon><line x1="6375.69047380275" y1="-817.8609590808818" x2="6480.67046617112" y2="-1026.7763488452597" stroke="rgba(204, 204, 204, 1)" stroke-width="2"></line><polygon points="6480.67046617112,-1026.7763488452597 6470.696012731426,-1015.5732118479996 6477.302967690753,-1020.0748599073651 6477.63390460211,-1012.0869208837082" fill="rgba(204, 204, 204, 1)" stroke="rgba(204, 204, 204, 1)"></polygon><line x1="6371.127853167302" y1="-757.8609590808818" x2="6445.50463182054" y2="-545.6061490569381" stroke="rgba(204, 204, 204, 1)" stroke-width="2"></line><polygon points="6445.50463182054,-545.6061490569381 6444.377050958919,-560.5637077280751 6443.024401556641,-552.6841754653403 6437.049338813987,-557.9959844139282" fill="rgba(204, 204, 204, 1)" stroke="rgba(204, 204, 204, 1)"></polygon><line x1="7744.784452309935" y1="-546.1510085793733" x2="7745.705615809452" y2="-436.64775781187893" stroke="rgba(204, 204, 204, 1)" stroke-width="2"></line><polygon points="7745.705615809452,-436.64775781187893 7749.465884988273,-451.16878999636253 7745.642526524317,-444.14749245665814 7741.701588351137,-451.1034751622237" fill="rgba(204, 204, 204, 1)" stroke="rgba(204, 204, 204, 1)"></polygon><line x1="7695.21587328142" y1="-546.1510085793733" x2="7520.200680944649" y2="-439.6859040009136" stroke="rgba(204, 204, 204, 1)" stroke-width="2"></line><polygon points="7520.200680944649,-439.6859040009136 7534.596808199682,-443.8991592812055 7526.60824114753,-443.5837459995659 7530.561465223475,-450.53275373379165" fill="rgba(204, 204, 204, 1)" stroke="rgba(204, 204, 204, 1)"></polygon><line x1="7781.50046932059" y1="-546.1510085793733" x2="7915.324759364602" y2="-437.5520284015342" stroke="rgba(204, 204, 204, 1)" stroke-width="2"></line><polygon points="7915.324759364602,-437.5520284015342 7906.520582469592,-449.6964291360855 7909.501067342819,-442.27797923024764 7901.627918146835,-443.667299503889" fill="rgba(204, 204, 204, 1)" stroke="rgba(204, 204, 204, 1)"></polygon><line x1="7969.510006354404" y1="-380.7723881382452" x2="8022.8740158578385" y2="-305.2046930401575" stroke="rgba(204, 204, 204, 1)" stroke-width="2"></line><polygon points="8022.8740158578385,-305.2046930401575 8017.687472666723,-319.27948503601647 8018.547695736915,-311.3311075063272 8011.344941698578,-314.80054886599567" fill="rgba(204, 204, 204, 1)" stroke="rgba(204, 204, 204, 1)"></polygon><line x1="7180.494752390015" y1="-709.2808247928978" x2="6969.9998496449525" y2="-647.234040184907" stroke="rgba(204, 204, 204, 1)" stroke-width="2"></line><polygon points="6969.9998496449525,-647.234040184907 6984.995218884046,-647.6067349437103 6977.1938266055495,-649.3545815050434 6982.799872965734,-655.0544879334349" fill="rgba(204, 204, 204, 1)" stroke="rgba(204, 204, 204, 1)"></polygon><line x1="6880.071701217106" y1="-587.234040184907" x2="6920.358923682628" y2="-485.21890400505725" stroke="rgba(204, 204, 204, 1)" stroke-width="2"></line><polygon points="6920.358923682628,-485.21890400505725 6918.647931252223,-500.1210013374161 6917.604104493279,-492.19464563114917 6911.426112106035,-497.26900264934585" fill="rgba(204, 204, 204, 1)" stroke="rgba(204, 204, 204, 1)"></polygon><line x1="6898.330180790335" y1="-587.234040184907" x2="7007.188776295867" y2="-478.758380267021" stroke="rgba(204, 204, 204, 1)" stroke-width="2"></line><polygon points="7007.188776295867,-478.758380267021 6999.665899362453,-491.73552643421505 7001.876139447303,-484.05232867206655 6994.18520067839,-486.2354800497283" fill="rgba(204, 204, 204, 1)" stroke="rgba(204, 204, 204, 1)"></polygon><line x1="6859.044429241418" y1="-587.234040184907" x2="6827.4462854297735" y2="-483.9704110568672" stroke="rgba(204, 204, 204, 1)" stroke-width="2"></line><polygon points="6827.4462854297735,-483.9704110568672 6835.398147671479,-496.6892115855701 6829.640806079107,-491.14216670800636 6827.973399874134,-498.96114654124375" fill="rgba(204, 204, 204, 1)" stroke="rgba(204, 204, 204, 1)"></polygon><line x1="6827.498005390098" y1="-587.234040184907" x2="6701.626807424195" y2="-494.51413576991894" stroke="rgba(204, 204, 204, 1)" stroke-width="2"></line><polygon points="6701.626807424195,-494.51413576991894 6715.5949075186445,-499.98150988840115 6707.665351462623,-498.962279865603 6710.989849889351,-506.2330706957427" fill="rgba(204, 204, 204, 1)" stroke="rgba(204, 204, 204, 1)"></polygon><line x1="6921.978515955442" y1="-587.234040184907" x2="7125.764747786985" y2="-473.50185858236466" stroke="rgba(204, 204, 204, 1)" stroke-width="2"></line><polygon points="7125.764747786985,-473.50185858236466 7115.004828461685,-483.9528937518123 7119.215642332993,-477.15688495059993 7111.22086672388,-477.1727608723009" fill="rgba(204, 204, 204, 1)" stroke="rgba(204, 204, 204, 1)"></polygon><line x1="6932.869756680632" y1="-995.5083560197284" x2="7072.606102753722" y2="-1080.1870482052166" stroke="rgba(204, 204, 204, 1)" stroke-width="2"></line><polygon points="7072.606102753722,-1080.1870482052166 7058.202823030951,-1075.998309346369 7066.191915515792,-1076.30012113145 7062.226866045413,-1069.3578540822502" fill="rgba(204, 204, 204, 1)" stroke="rgba(204, 204, 204, 1)"></polygon><line x1="7589.750895643758" y1="-1832.2367162745174" x2="7087.017290776697" y2="-1848.1779796935634" stroke="rgba(204, 204, 204, 1)" stroke-width="2"></line><polygon points="7087.017290776697,-1848.1779796935634 7101.375857380238,-1843.8384445696502 7094.513523100603,-1847.94028041711 7101.621941779252,-1851.5991153374102" fill="rgba(204, 204, 204, 1)" stroke="rgba(204, 204, 204, 1)"></polygon><line x1="7014.266037021756" y1="-1880.4293304920675" x2="7009.748622999415" y2="-1957.8152720141877" stroke="rgba(204, 204, 204, 1)" stroke-width="2"></line><polygon points="7009.748622999415,-1957.8152720141877 7006.717288417058,-1943.1247645127496 7010.185692380601,-1950.3280181547257 7014.468663994442,-1943.577252032278" fill="rgba(204, 204, 204, 1)" stroke="rgba(204, 204, 204, 1)"></polygon><line x1="6975.793792644362" y1="-1880.4293304920675" x2="6869.184194513658" y2="-1959.9422543406772" stroke="rgba(204, 204, 204, 1)" stroke-width="2"></line><polygon points="6869.184194513658,-1959.9422543406772 6878.477432164524,-1948.1678866733864 6875.196198940232,-1955.4583048790014 6883.119558236359,-1954.3919716527378" fill="rgba(204, 204, 204, 1)" stroke="rgba(204, 204, 204, 1)"></polygon><rect x="8615.32805990679" y="-2582.8468496834143" width="645.4619176551714" height="383.99844389253894" rx="8" ry="8" fill="rgba(0, 0, 0, 0)" stroke="rgba(204, 204, 204, 1)" stroke-width="2"></rect><text x="8629.32805990679" y="-2552.8468496834143" fill="rgba(204, 204, 204, 1)" font-size="32" text-anchor="start" font-family="MiSans">UI工具部分</text><rect x="8462.099586776272" y="-744.0588656072674" width="505.15160545713843" height="395.9571606898366" rx="8" ry="8" fill="rgba(0, 0, 0, 0)" stroke="rgba(204, 204, 204, 1)" stroke-width="2"></rect><text x="8476.099586776272" y="-714.0588656072674" fill="rgba(204, 204, 204, 1)" font-size="32" text-anchor="start" font-family="MiSans">概念关系</text></svg>