<svg xmlns="http://www.w3.org/2000/svg" width="4041.603422570399" height="4548.298263820806" viewBox="-2588.6626838507773 -2812.767297778674 4041.603422570399 4548.298263820806" style="background-color:rgba(31, 31, 31, 1)"><rect x="-2522.8" y="-1929.2" width="142.0" height="76.0" rx="8" ry="8" fill="rgba(0, 0, 0, 0)" stroke="rgba(204, 204, 204, 1)" stroke-width="2"></rect><text x="-2508.8" y="-1877.2" fill="rgba(255, 255, 255, 1)" font-size="32" text-anchor="start" font-family="MiSans">增加涂鸦功能</text><rect x="-128.4" y="-116.8" width="161.0" height="76.0" rx="8" ry="8" fill="rgba(0, 0, 0, 0)" stroke="rgba(204, 204, 204, 1)" stroke-width="2"></rect><text x="-114.4" y="-64.8" fill="rgba(255, 255, 255, 1)" font-size="32" text-anchor="start" font-family="MiSans">节点自适应宽度</text><rect x="-2528.7" y="-2011.2" width="290.0" height="76.0" rx="8" ry="8" fill="rgba(0, 0, 0, 0)" stroke="rgba(204, 204, 204, 1)" stroke-width="2"></rect><text x="-2514.7" y="-1959.2" fill="rgba(255, 255, 255, 1)" font-size="32" text-anchor="start" font-family="MiSans">TODOlist时间计算扩展</text><rect x="-2055.3" y="-923.1" width="178.0" height="76.0" rx="8" ry="8" fill="rgba(22, 163, 74, 1)" stroke="rgba(204, 204, 204, 1)" stroke-width="2"></rect><text x="-2041.3" y="-871.1" fill="rgba(255, 255, 255, 1)" font-size="32" text-anchor="start" font-family="MiSans">AI扩展节点功能</text><rect x="-2055.3" y="-799.5" width="142.0" height="76.0" rx="8" ry="8" fill="rgba(22, 163, 74, 1)" stroke="rgba(204, 204, 204, 1)" stroke-width="2"></rect><text x="-2041.3" y="-747.5" fill="rgba(255, 255, 255, 1)" font-size="32" text-anchor="start" font-family="MiSans">增加图片功能</text><rect x="-1857.6" y="-1092.6" width="123.0" height="76.0" rx="8" ry="8" fill="rgba(0, 0, 0, 0)" stroke="rgba(204, 204, 204, 1)" stroke-width="2"></rect><text x="-1843.6" y="-1040.6" fill="rgba(255, 255, 255, 1)" font-size="32" text-anchor="start" font-family="MiSans">第二次重构</text><rect x="-2521.3" y="-1855.0" width="199.0" height="76.0" rx="8" ry="8" fill="rgba(0, 0, 0, 0)" stroke="rgba(204, 204, 204, 1)" stroke-width="2"></rect><text x="-2507.3" y="-1803.0" fill="rgba(255, 255, 255, 1)" font-size="32" text-anchor="start" font-family="MiSans">增加韦恩图绘制功能</text><rect x="-309.7" y="842.2" width="245.0" height="76.0" rx="8" ry="8" fill="rgba(22, 163, 74, 1)" stroke="rgba(204, 204, 204, 1)" stroke-width="2"></rect><text x="-295.7" y="894.2" fill="rgba(255, 255, 255, 1)" font-size="32" text-anchor="start" font-family="MiSans">处理Section的复制</text><rect x="-309.7" y="740.8" width="207.0" height="76.0" rx="8" ry="8" fill="rgba(0, 0, 0, 0)" stroke="rgba(204, 204, 204, 1)" stroke-width="2"></rect><text x="-295.7" y="792.8" fill="rgba(255, 255, 255, 1)" font-size="32" text-anchor="start" font-family="MiSans">Section的对齐</text><rect x="-2512.3" y="-1645.1" width="541.0" height="76.0" rx="8" ry="8" fill="rgba(0, 0, 0, 0)" stroke="rgba(204, 204, 204, 1)" stroke-width="2"></rect><text x="-2498.3" y="-1593.1" fill="rgba(255, 255, 255, 1)" font-size="32" text-anchor="start" font-family="MiSans">githubIssuee导入projectgraph的能力</text><rect x="-2407.8" y="-799.5" width="164.0" height="76.0" rx="8" ry="8" fill="rgba(22, 163, 74, 1)" stroke="rgba(204, 204, 204, 1)" stroke-width="2"></rect><text x="-2393.8" y="-747.5" fill="rgba(255, 255, 255, 1)" font-size="32" text-anchor="start" font-family="MiSans">发布v1.0.0</text><rect x="-1700.6" y="-1491.7" width="164.0" height="76.0" rx="8" ry="8" fill="rgba(0, 0, 0, 0)" stroke="rgba(204, 204, 204, 1)" stroke-width="2"></rect><text x="-1686.6" y="-1439.7" fill="rgba(255, 255, 255, 1)" font-size="32" text-anchor="start" font-family="MiSans">发布v2.0.0</text><rect x="-1039.2" y="-2782.8" width="104.0" height="76.0" rx="8" ry="8" fill="rgba(0, 0, 0, 0)" stroke="rgba(204, 204, 204, 1)" stroke-width="2"></rect><text x="-1025.2" y="-2730.8" fill="rgba(255, 255, 255, 1)" font-size="32" text-anchor="start" font-family="MiSans">多人联机</text><rect x="-2521.3" y="-1752.1" width="228.0" height="76.0" rx="8" ry="8" fill="rgba(0, 0, 0, 0)" stroke="rgba(204, 204, 204, 1)" stroke-width="2"></rect><text x="-2507.3" y="-1700.1" fill="rgba(255, 255, 255, 1)" font-size="32" text-anchor="start" font-family="MiSans">增加github等功能</text><rect x="-1769.1" y="-789.1" width="164.0" height="76.0" rx="8" ry="8" fill="rgba(22, 163, 74, 1)" stroke="rgba(204, 204, 204, 1)" stroke-width="2"></rect><text x="-1755.1" y="-737.1" fill="rgba(255, 255, 255, 1)" font-size="32" text-anchor="start" font-family="MiSans">发布v1.1.0</text><rect x="-2055.3" y="-688.2" width="142.0" height="76.0" rx="8" ry="8" fill="rgba(22, 163, 74, 1)" stroke="rgba(204, 204, 204, 1)" stroke-width="2"></rect><text x="-2041.3" y="-636.2" fill="rgba(255, 255, 255, 1)" font-size="32" text-anchor="start" font-family="MiSans">完成节点碰撞</text><rect x="-1891.7" y="-443.5" width="123.0" height="76.0" rx="8" ry="8" fill="rgba(22, 163, 74, 1)" stroke="rgba(204, 204, 204, 1)" stroke-width="2"></rect><text x="-1877.7" y="-391.5" fill="rgba(255, 255, 255, 1)" font-size="32" text-anchor="start" font-family="MiSans">发布宣传片</text><rect x="-1785.1" y="-218.0" width="180.0" height="76.0" rx="8" ry="8" fill="rgba(22, 163, 74, 1)" stroke="rgba(204, 204, 204, 1)" stroke-width="2"></rect><text x="-1771.1" y="-166.0" fill="rgba(255, 255, 255, 1)" font-size="32" text-anchor="start" font-family="MiSans">自动吸附功能完善</text><rect x="-466.9" y="-508.2" width="123.0" height="76.0" rx="8" ry="8" fill="rgba(0, 0, 0, 0)" stroke="rgba(204, 204, 204, 1)" stroke-width="2"></rect><text x="-452.9" y="-456.2" fill="rgba(255, 255, 255, 1)" font-size="32" text-anchor="start" font-family="MiSans">富文本功能</text><rect x="379.2" y="-629.3" width="199.0" height="76.0" rx="8" ry="8" fill="rgba(0, 0, 0, 0)" stroke="rgba(204, 204, 204, 1)" stroke-width="2"></rect><text x="393.2" y="-577.3" fill="rgba(255, 255, 255, 1)" font-size="32" text-anchor="start" font-family="MiSans">贝塞尔曲线手动调整</text><rect x="-766.9" y="-488.4" width="106.0" height="76.0" rx="8" ry="8" fill="rgba(22, 163, 74, 1)" stroke="rgba(204, 204, 204, 1)" stroke-width="2"></rect><text x="-752.9" y="-436.4" fill="rgba(255, 255, 255, 1)" font-size="32" text-anchor="start" font-family="MiSans">白色UI</text><rect x="382.4" y="-116.8" width="237.0" height="76.0" rx="8" ry="8" fill="rgba(0, 0, 0, 0)" stroke="rgba(204, 204, 204, 1)" stroke-width="2"></rect><text x="396.4" y="-64.8" fill="rgba(255, 255, 255, 1)" font-size="32" text-anchor="start" font-family="MiSans">舞台上的图片可复制路径</text><rect x="-599.7" y="-1862.0" width="199.0" height="76.0" rx="8" ry="8" fill="rgba(0, 0, 0, 0)" stroke="rgba(204, 204, 204, 1)" stroke-width="2"></rect><text x="-585.7" y="-1810.0" fill="rgba(255, 255, 255, 1)" font-size="32" text-anchor="start" font-family="MiSans">自动生成统计图功能</text><rect x="-528.4" y="-658.2" width="236.0" height="76.0" rx="8" ry="8" fill="rgba(0, 0, 0, 0)" stroke="rgba(204, 204, 204, 1)" stroke-width="2"></rect><text x="-514.4" y="-606.2" fill="rgba(255, 255, 255, 1)" font-size="32" text-anchor="start" font-family="MiSans">渲染markdown</text><rect x="-961.4" y="613.4" width="180.0" height="76.0" rx="8" ry="8" fill="rgba(0, 0, 0, 0)" stroke="rgba(204, 204, 204, 1)" stroke-width="2"></rect><text x="-947.4" y="665.4" fill="rgba(255, 255, 255, 1)" font-size="32" text-anchor="start" font-family="MiSans">完善键盘操作功能</text><rect x="-2049.2" y="-125.9" width="142.0" height="76.0" rx="8" ry="8" fill="rgba(234, 179, 8, 1)" stroke="rgba(204, 204, 204, 1)" stroke-width="2"></rect><text x="-2035.2" y="-73.9" fill="rgba(0, 0, 0, 1)" font-size="32" text-anchor="start" font-family="MiSans">自动布局功能</text><rect x="-961.4" y="375.2" width="287.0" height="76.0" rx="8" ry="8" fill="rgba(0, 0, 0, 0)" stroke="rgba(204, 204, 204, 1)" stroke-width="2"></rect><text x="-947.4" y="427.2" fill="rgba(255, 255, 255, 1)" font-size="32" text-anchor="start" font-family="MiSans">优化ctrl+c、ctrl+v</text><rect x="-961.4" y="497.9" width="188.0" height="76.0" rx="8" ry="8" fill="rgba(0, 0, 0, 0)" stroke="rgba(204, 204, 204, 1)" stroke-width="2"></rect><text x="-947.4" y="549.9" fill="rgba(255, 255, 255, 1)" font-size="32" text-anchor="start" font-family="MiSans">支持Alt复制功能</text><rect x="-1700.6" y="-1250.0" width="104.0" height="76.0" rx="8" ry="8" fill="rgba(0, 0, 0, 0)" stroke="rgba(204, 204, 204, 1)" stroke-width="2"></rect><text x="-1686.6" y="-1198.0" fill="rgba(255, 255, 255, 1)" font-size="32" text-anchor="start" font-family="MiSans">抽取内核</text><rect x="-309.7" y="339.7" width="410.0" height="76.0" rx="8" ry="8" fill="rgba(0, 0, 0, 0)" stroke="rgba(204, 204, 204, 1)" stroke-width="2"></rect><text x="-295.7" y="391.7" fill="rgba(255, 255, 255, 1)" font-size="32" text-anchor="start" font-family="MiSans">可以考虑把section框的大小改成自定义</text><rect x="-599.7" y="-1746.7" width="389.0" height="76.0" rx="8" ry="8" fill="rgba(0, 0, 0, 0)" stroke="rgba(204, 204, 204, 1)" stroke-width="2"></rect><text x="-585.7" y="-1694.7" fill="rgba(255, 255, 255, 1)" font-size="32" text-anchor="start" font-family="MiSans">设计一种按连线顺序执行逻辑节点的方式？</text><rect x="379.2" y="-324.9" width="161.0" height="76.0" rx="8" ry="8" fill="rgba(0, 0, 0, 0)" stroke="rgba(204, 204, 204, 1)" stroke-width="2"></rect><text x="393.2" y="-272.9" fill="rgba(255, 255, 255, 1)" font-size="32" text-anchor="start" font-family="MiSans">连线自定义颜色</text><rect x="-432.7" y="-2185.3" width="142.0" height="76.0" rx="8" ry="8" fill="rgba(0, 0, 0, 0)" stroke="rgba(204, 204, 204, 1)" stroke-width="2"></rect><text x="-418.7" y="-2133.3" fill="rgba(255, 255, 255, 1)" font-size="32" text-anchor="start" font-family="MiSans">增加指令系统</text><rect x="-961.4" y="258.3" width="296.0" height="76.0" rx="8" ry="8" fill="rgba(0, 0, 0, 0)" stroke="rgba(204, 204, 204, 1)" stroke-width="2"></rect><text x="-947.4" y="310.3" fill="rgba(255, 255, 255, 1)" font-size="32" text-anchor="start" font-family="MiSans">支持一些UI面板的快捷键弹出</text><rect x="379.2" y="-548.0" width="161.0" height="76.0" rx="8" ry="8" fill="rgba(0, 0, 0, 0)" stroke="rgba(204, 204, 204, 1)" stroke-width="2"></rect><text x="393.2" y="-496.0" fill="rgba(255, 255, 255, 1)" font-size="32" text-anchor="start" font-family="MiSans">完善自环碰撞箱</text><rect x="411.0" y="72.9" width="199.0" height="76.0" rx="8" ry="8" fill="rgba(0, 0, 0, 0)" stroke="rgba(204, 204, 204, 1)" stroke-width="2"></rect><text x="425.0" y="124.9" fill="rgba(255, 255, 255, 1)" font-size="32" text-anchor="start" font-family="MiSans">支持斩断线切割图片</text><rect x="-1780.3" y="-51.8" width="271.0" height="76.0" rx="8" ry="8" fill="rgba(0, 0, 0, 0)" stroke="rgba(204, 204, 204, 1)" stroke-width="2"></rect><text x="-1766.3" y="0.2" fill="rgba(255, 255, 255, 1)" font-size="32" text-anchor="start" font-family="MiSans">增加shift键移动节点功能</text><rect x="379.2" y="-458.4" width="199.0" height="76.0" rx="8" ry="8" fill="rgba(0, 0, 0, 0)" stroke="rgba(204, 204, 204, 1)" stroke-width="2"></rect><text x="393.2" y="-406.4" fill="rgba(255, 255, 255, 1)" font-size="32" text-anchor="start" font-family="MiSans">增加双箭头线的功能</text><rect x="-201.9" y="-508.2" width="104.0" height="76.0" rx="8" ry="8" fill="rgba(0, 0, 0, 0)" stroke="rgba(204, 204, 204, 1)" stroke-width="2"></rect><text x="-187.9" y="-456.2" fill="rgba(255, 255, 255, 1)" font-size="32" text-anchor="start" font-family="MiSans">公式渲染</text><rect x="410.4" y="-25.5" width="218.0" height="76.0" rx="8" ry="8" fill="rgba(0, 0, 0, 0)" stroke="rgba(204, 204, 204, 1)" stroke-width="2"></rect><text x="424.4" y="26.5" fill="rgba(255, 255, 255, 1)" font-size="32" text-anchor="start" font-family="MiSans">图片下面增加一个标题</text><rect x="-1020.5" y="-608.2" width="257.0" height="76.0" rx="8" ry="8" fill="rgba(22, 163, 74, 1)" stroke="rgba(204, 204, 204, 1)" stroke-width="2"></rect><text x="-1006.5" y="-556.2" fill="rgba(255, 255, 255, 1)" font-size="32" text-anchor="start" font-family="MiSans">支持Alt+F4关闭窗口</text><rect x="325.9" y="-1261.6" width="208.0" height="76.0" rx="8" ry="8" fill="rgba(0, 0, 0, 0)" stroke="rgba(204, 204, 204, 1)" stroke-width="2"></rect><text x="339.9" y="-1209.6" fill="rgba(255, 255, 255, 1)" font-size="32" text-anchor="start" font-family="MiSans">支持Xmind文件</text><rect x="649.7" y="-1114.2" width="66.0" height="76.0" rx="8" ry="8" fill="rgba(22, 163, 74, 1)" stroke="rgba(204, 204, 204, 1)" stroke-width="2"></rect><text x="663.7" y="-1062.2" fill="rgba(255, 255, 255, 1)" font-size="32" text-anchor="start" font-family="MiSans">导入</text><rect x="359.2" y="-1082.1" width="201.0" height="76.0" rx="8" ry="8" fill="rgba(22, 163, 74, 1)" stroke="rgba(204, 204, 204, 1)" stroke-width="2"></rect><text x="373.2" y="-1030.1" fill="rgba(255, 255, 255, 1)" font-size="32" text-anchor="start" font-family="MiSans">Markdown</text><rect x="649.7" y="-1034.8" width="66.0" height="76.0" rx="8" ry="8" fill="rgba(22, 163, 74, 1)" stroke="rgba(204, 204, 204, 1)" stroke-width="2"></rect><text x="663.7" y="-982.8" fill="rgba(255, 255, 255, 1)" font-size="32" text-anchor="start" font-family="MiSans">导出</text><rect x="645.7" y="-1279.8" width="66.0" height="76.0" rx="8" ry="8" fill="rgba(0, 0, 0, 0)" stroke="rgba(204, 204, 204, 1)" stroke-width="2"></rect><text x="659.7" y="-1227.8" fill="rgba(255, 255, 255, 1)" font-size="32" text-anchor="start" font-family="MiSans">导入</text><rect x="646.1" y="-1202.0" width="66.0" height="76.0" rx="8" ry="8" fill="rgba(0, 0, 0, 0)" stroke="rgba(204, 204, 204, 1)" stroke-width="2"></rect><text x="660.1" y="-1150.0" fill="rgba(255, 255, 255, 1)" font-size="32" text-anchor="start" font-family="MiSans">导出</text><rect x="438.1" y="-911.4" width="72.0" height="76.0" rx="8" ry="8" fill="rgba(22, 163, 74, 1)" stroke="rgba(204, 204, 204, 1)" stroke-width="2"></rect><text x="452.1" y="-859.4" fill="rgba(255, 255, 255, 1)" font-size="32" text-anchor="start" font-family="MiSans">txt</text><rect x="623.9" y="-945.3" width="66.0" height="76.0" rx="8" ry="8" fill="rgba(22, 163, 74, 1)" stroke="rgba(204, 204, 204, 1)" stroke-width="2"></rect><text x="637.9" y="-893.3" fill="rgba(255, 255, 255, 1)" font-size="32" text-anchor="start" font-family="MiSans">导入</text><rect x="622.2" y="-870.4" width="66.0" height="76.0" rx="8" ry="8" fill="rgba(22, 163, 74, 1)" stroke="rgba(204, 204, 204, 1)" stroke-width="2"></rect><text x="636.2" y="-818.4" fill="rgba(255, 255, 255, 1)" font-size="32" text-anchor="start" font-family="MiSans">导出</text><rect x="-128.4" y="-244.9" width="199.0" height="76.0" rx="8" ry="8" fill="rgba(0, 0, 0, 0)" stroke="rgba(204, 204, 204, 1)" stroke-width="2"></rect><text x="-114.4" y="-192.9" fill="rgba(255, 255, 255, 1)" font-size="32" text-anchor="start" font-family="MiSans">专属的文件路径节点</text><rect x="-309.7" y="436.8" width="315.0" height="76.0" rx="8" ry="8" fill="rgba(0, 0, 0, 0)" stroke="rgba(204, 204, 204, 1)" stroke-width="2"></rect><text x="-295.7" y="488.8" fill="rgba(255, 255, 255, 1)" font-size="32" text-anchor="start" font-family="MiSans">节点和section互相转换功能</text><rect x="-309.7" y="538.0" width="460.0" height="76.0" rx="8" ry="8" fill="rgba(0, 0, 0, 0)" stroke="rgba(204, 204, 204, 1)" stroke-width="2"></rect><text x="-295.7" y="590.0" fill="rgba(255, 255, 255, 1)" font-size="32" text-anchor="start" font-family="MiSans">alt+方向键移动节点没法移动到section内</text><rect x="-461.8" y="-2281.5" width="140.0" height="76.0" rx="8" ry="8" fill="rgba(0, 0, 0, 0)" stroke="rgba(204, 204, 204, 1)" stroke-width="2"></rect><text x="-447.8" y="-2229.5" fill="rgba(255, 255, 255, 1)" font-size="32" text-anchor="start" font-family="MiSans">AI功能优化</text><rect x="963.9" y="-1279.8" width="160.0" height="76.0" rx="8" ry="8" fill="rgba(0, 0, 0, 0)" stroke="rgba(204, 204, 204, 1)" stroke-width="2"></rect><text x="977.9" y="-1227.8" fill="rgba(255, 255, 255, 1)" font-size="32" text-anchor="start" font-family="MiSans">Obsdian</text><rect x="-1100.4" y="-1025.7" width="229.0" height="76.0" rx="8" ry="8" fill="rgba(0, 0, 0, 0)" stroke="rgba(204, 204, 204, 1)" stroke-width="2"></rect><text x="-1086.4" y="-973.7" fill="rgba(255, 255, 255, 1)" font-size="32" text-anchor="start" font-family="MiSans">学习笔记/思维导图方向</text><rect x="-1180.1" y="-2670.1" width="142.0" height="76.0" rx="8" ry="8" fill="rgba(0, 0, 0, 0)" stroke="rgba(204, 204, 204, 1)" stroke-width="2"></rect><text x="-1166.1" y="-2618.1" fill="rgba(255, 255, 255, 1)" font-size="32" text-anchor="start" font-family="MiSans">头脑风暴方向</text><rect x="-1244.1" y="-1677.9" width="180.0" height="76.0" rx="8" ry="8" fill="rgba(0, 0, 0, 0)" stroke="rgba(204, 204, 204, 1)" stroke-width="2"></rect><text x="-1230.1" y="-1625.9" fill="rgba(255, 255, 255, 1)" font-size="32" text-anchor="start" font-family="MiSans">项目工程管理方向</text><rect x="-1223.0" y="-104.3" width="104.0" height="76.0" rx="8" ry="8" fill="rgba(0, 0, 0, 0)" stroke="rgba(204, 204, 204, 1)" stroke-width="2"></rect><text x="-1209.0" y="-52.3" fill="rgba(255, 255, 255, 1)" font-size="32" text-anchor="start" font-family="MiSans">基础问题</text><rect x="-309.7" y="641.4" width="378.0" height="76.0" rx="8" ry="8" fill="rgba(0, 0, 0, 0)" stroke="rgba(204, 204, 204, 1)" stroke-width="2"></rect><text x="-295.7" y="693.4" fill="rgba(255, 255, 255, 1)" font-size="32" text-anchor="start" font-family="MiSans">优化缩小情况下的Section碰撞范围</text><rect x="274.5" y="436.8" width="416.0" height="76.0" rx="8" ry="8" fill="rgba(0, 0, 0, 0)" stroke="rgba(204, 204, 204, 1)" stroke-width="2"></rect><text x="288.5" y="488.8" fill="rgba(255, 255, 255, 1)" font-size="32" text-anchor="start" font-family="MiSans">单个节点打包的时候直接升级成Section</text><rect x="35.2" y="842.2" width="264.0" height="76.0" rx="8" ry="8" fill="rgba(0, 0, 0, 0)" stroke="rgba(204, 204, 204, 1)" stroke-width="2"></rect><text x="49.2" y="894.2" fill="rgba(255, 255, 255, 1)" font-size="32" text-anchor="start" font-family="MiSans">Section支持颜色更改</text><rect x="-309.7" y="956.4" width="576.0" height="76.0" rx="8" ry="8" fill="rgba(0, 0, 0, 0)" stroke="rgba(204, 204, 204, 1)" stroke-width="2"></rect><text x="-295.7" y="1008.4" fill="rgba(255, 255, 255, 1)" font-size="32" text-anchor="start" font-family="MiSans">编辑Section内部文字的时候，Section能够自动膨胀</text><rect x="-309.7" y="1068.1" width="302.0" height="76.0" rx="8" ry="8" fill="rgba(0, 0, 0, 0)" stroke="rgba(204, 204, 204, 1)" stroke-width="2"></rect><text x="-295.7" y="1120.1" fill="rgba(255, 255, 255, 1)" font-size="32" text-anchor="start" font-family="MiSans">Section宽度小时文本超出</text><rect x="39.9" y="1347.8" width="486.0" height="76.0" rx="8" ry="8" fill="rgba(0, 0, 0, 0)" stroke="rgba(204, 204, 204, 1)" stroke-width="2"></rect><text x="53.9" y="1399.8" fill="rgba(255, 255, 255, 1)" font-size="32" text-anchor="start" font-family="MiSans">多层嵌套时，外层折叠，内层section碰撞箱还在</text><rect x="-961.4" y="710.8" width="260.0" height="76.0" rx="8" ry="8" fill="rgba(0, 0, 0, 0)" stroke="rgba(204, 204, 204, 1)" stroke-width="2"></rect><text x="-947.4" y="762.8" fill="rgba(255, 255, 255, 1)" font-size="32" text-anchor="start" font-family="MiSans">准星对准节点按F2重命名</text><rect x="-934.9" y="-164.9" width="460.0" height="76.0" rx="8" ry="8" fill="rgba(0, 0, 0, 0)" stroke="rgba(204, 204, 204, 1)" stroke-width="2"></rect><text x="-920.9" y="-112.9" fill="rgba(255, 255, 255, 1)" font-size="32" text-anchor="start" font-family="MiSans">把节点的渲染逻辑提取到节点的render方法中</text><rect x="-728.3" y="-51.8" width="215.0" height="76.0" rx="8" ry="8" fill="rgba(0, 0, 0, 0)" stroke="rgba(204, 204, 204, 1)" stroke-width="2"></rect><text x="-714.3" y="0.2" fill="rgba(255, 255, 255, 1)" font-size="32" text-anchor="start" font-family="MiSans">离屏canvas渲染</text><rect x="-128.4" y="13.1" width="180.0" height="76.0" rx="8" ry="8" fill="rgba(0, 0, 0, 0)" stroke="rgba(204, 204, 204, 1)" stroke-width="2"></rect><text x="-114.4" y="65.1" fill="rgba(255, 255, 255, 1)" font-size="32" text-anchor="start" font-family="MiSans">为插件系统做准备</text><rect x="-1351.0" y="-458.4" width="180.0" height="76.0" rx="8" ry="8" fill="rgba(0, 0, 0, 0)" stroke="rgba(204, 204, 204, 1)" stroke-width="2"></rect><text x="-1337.0" y="-406.4" fill="rgba(255, 255, 255, 1)" font-size="32" text-anchor="start" font-family="MiSans">更改工程文件格式</text><rect x="-1700.6" y="-1353.2" width="124.0" height="76.0" rx="8" ry="8" fill="rgba(0, 0, 0, 0)" stroke="rgba(204, 204, 204, 1)" stroke-width="2"></rect><text x="-1686.6" y="-1301.2" fill="rgba(255, 255, 255, 1)" font-size="32" text-anchor="start" font-family="MiSans">插件API</text><rect x="-573.1" y="-1260.8" width="174.0" height="76.0" rx="8" ry="8" fill="rgba(0, 0, 0, 0)" stroke="rgba(204, 204, 204, 1)" stroke-width="2"></rect><text x="-559.1" y="-1208.8" fill="rgba(255, 255, 255, 1)" font-size="32" text-anchor="start" font-family="MiSans">“知识库”的概念</text><rect x="-595.9" y="-1386.5" width="104.0" height="76.0" rx="8" ry="8" fill="rgba(0, 0, 0, 0)" stroke="rgba(204, 204, 204, 1)" stroke-width="2"></rect><text x="-581.9" y="-1334.5" fill="rgba(255, 255, 255, 1)" font-size="32" text-anchor="start" font-family="MiSans">双向链接</text><rect x="-1020.5" y="-488.4" width="123.0" height="76.0" rx="8" ry="8" fill="rgba(22, 163, 74, 1)" stroke="rgba(204, 204, 204, 1)" stroke-width="2"></rect><text x="-1006.5" y="-436.4" fill="rgba(255, 255, 255, 1)" font-size="32" text-anchor="start" font-family="MiSans">自定义主题</text><rect x="-1724.1" y="226.7" width="489.0" height="76.0" rx="8" ry="8" fill="rgba(0, 0, 0, 0)" stroke="rgba(204, 204, 204, 1)" stroke-width="2"></rect><text x="-1710.1" y="278.7" fill="rgba(255, 255, 255, 1)" font-size="32" text-anchor="start" font-family="MiSans">自定义工具栏（类似kde plasma的“面板”）</text><rect x="-528.4" y="-1092.6" width="104.0" height="76.0" rx="8" ry="8" fill="rgba(0, 0, 0, 0)" stroke="rgba(204, 204, 204, 1)" stroke-width="2"></rect><text x="-514.4" y="-1040.6" fill="rgba(255, 255, 255, 1)" font-size="32" text-anchor="start" font-family="MiSans">单向链接</text><rect x="-1592.2" y="-2801.1" width="164.0" height="76.0" rx="8" ry="8" fill="rgba(0, 0, 0, 0)" stroke="rgba(204, 204, 204, 1)" stroke-width="2"></rect><text x="-1578.2" y="-2749.1" fill="rgba(255, 255, 255, 1)" font-size="32" text-anchor="start" font-family="MiSans">发布v3.0.0</text><rect x="764.5" y="1629.5" width="92.0" height="76.0" rx="8" ry="8" fill="rgba(0, 0, 0, 0)" stroke="rgba(204, 204, 204, 1)" stroke-width="2"></rect><text x="778.5" y="1681.5" fill="rgba(255, 255, 255, 1)" font-size="32" text-anchor="start" font-family="MiSans">……</text><rect x="1020.5" y="1629.5" width="92.0" height="76.0" rx="8" ry="8" fill="rgba(0, 0, 0, 0)" stroke="rgba(204, 204, 204, 1)" stroke-width="2"></rect><text x="1034.5" y="1681.5" fill="rgba(255, 255, 255, 1)" font-size="32" text-anchor="start" font-family="MiSans">……</text><rect x="821.1" y="-1160.7" width="66.0" height="76.0" rx="8" ry="8" fill="rgba(0, 0, 0, 0)" stroke="rgba(204, 204, 204, 1)" stroke-width="2"></rect><text x="835.1" y="-1108.7" fill="rgba(255, 255, 255, 1)" font-size="32" text-anchor="start" font-family="MiSans">幕布</text><rect x="821.1" y="-1040.8" width="128.0" height="76.0" rx="8" ry="8" fill="rgba(0, 0, 0, 0)" stroke="rgba(204, 204, 204, 1)" stroke-width="2"></rect><text x="835.1" y="-988.8" fill="rgba(255, 255, 255, 1)" font-size="32" text-anchor="start" font-family="MiSans">figjam</text><rect x="-220.9" y="-1353.1" width="199.0" height="124.0" rx="8" ry="8" fill="rgba(0, 0, 0, 0)" stroke="rgba(204, 204, 204, 1)" stroke-width="2"></rect><text x="-206.9" y="-1301.1" fill="rgba(255, 255, 255, 1)" font-size="32" text-anchor="start" font-family="MiSans">加强搜索功能</text><text x="-206.9" y="-1253.1" fill="rgba(255, 255, 255, 1)" font-size="32" text-anchor="start" font-family="MiSans">支持跨工程文件搜索</text><rect x="197.9" y="-1942.0" width="237.0" height="76.0" rx="8" ry="8" fill="rgba(0, 0, 0, 0)" stroke="rgba(204, 204, 204, 1)" stroke-width="2"></rect><text x="211.9" y="-1890.0" fill="rgba(255, 255, 255, 1)" font-size="32" text-anchor="start" font-family="MiSans">基于图论的编程语言计划</text><rect x="309.9" y="-1826.2" width="104.0" height="76.0" rx="8" ry="8" fill="rgba(0, 0, 0, 0)" stroke="rgba(204, 204, 204, 1)" stroke-width="2"></rect><text x="323.9" y="-1774.2" fill="rgba(255, 255, 255, 1)" font-size="32" text-anchor="start" font-family="MiSans">变量系统</text><rect x="309.9" y="-1717.4" width="104.0" height="76.0" rx="8" ry="8" fill="rgba(0, 0, 0, 0)" stroke="rgba(204, 204, 204, 1)" stroke-width="2"></rect><text x="323.9" y="-1665.4" fill="rgba(255, 255, 255, 1)" font-size="32" text-anchor="start" font-family="MiSans">条件语句</text><rect x="309.9" y="-1599.8" width="104.0" height="76.0" rx="8" ry="8" fill="rgba(0, 0, 0, 0)" stroke="rgba(204, 204, 204, 1)" stroke-width="2"></rect><text x="323.9" y="-1547.8" fill="rgba(255, 255, 255, 1)" font-size="32" text-anchor="start" font-family="MiSans">循环语句</text><rect x="1223.9" y="312.4" width="199.0" height="76.0" rx="8" ry="8" fill="rgba(0, 0, 0, 0)" stroke="rgba(204, 204, 204, 1)" stroke-width="2"></rect><text x="1237.9" y="364.4" fill="rgba(255, 255, 255, 1)" font-size="32" text-anchor="start" font-family="MiSans">平板用户的涂鸦功能</text><line x1="-2243.8" y1="-734.8" x2="-2055.3" y2="-673.4" stroke="rgba(204, 204, 204, 1)" stroke-width="2"></line><polygon points="-2055.3,-673.4 -2067.9,-681.6 -2062.4,-675.7 -2070.3,-674.2" fill="rgba(204, 204, 204, 1)" stroke="rgba(204, 204, 204, 1)"></polygon><line x1="-1913.3" y1="-674.3" x2="-1769.1" y2="-723.2" stroke="rgba(204, 204, 204, 1)" stroke-width="2"></line><polygon points="-1769.1,-723.2 -1784.1,-722.3 -1776.2,-720.8 -1781.6,-714.9" fill="rgba(204, 204, 204, 1)" stroke="rgba(204, 204, 204, 1)"></polygon><line x1="-2243.8" y1="-761.5" x2="-2055.3" y2="-761.5" stroke="rgba(204, 204, 204, 1)" stroke-width="2"></line><polygon points="-2055.3,-761.5 -2069.8,-765.4 -2062.8,-761.5 -2069.8,-757.7" fill="rgba(204, 204, 204, 1)" stroke="rgba(204, 204, 204, 1)"></polygon><line x1="-1702.9" y1="-713.1" x2="-1814.5" y2="-443.5" stroke="rgba(204, 204, 204, 1)" stroke-width="2"></line><polygon points="-1814.5,-443.5 -1805.4,-455.4 -1811.6,-450.4 -1812.5,-458.3" fill="rgba(204, 204, 204, 1)" stroke="rgba(204, 204, 204, 1)"></polygon><line x1="-1913.3" y1="-759.0" x2="-1769.1" y2="-753.9" stroke="rgba(204, 204, 204, 1)" stroke-width="2"></line><polygon points="-1769.1,-753.9 -1783.5,-758.3 -1776.6,-754.2 -1783.8,-750.6" fill="rgba(204, 204, 204, 1)" stroke="rgba(204, 204, 204, 1)"></polygon><line x1="-2243.8" y1="-789.7" x2="-2055.3" y2="-854.5" stroke="rgba(204, 204, 204, 1)" stroke-width="2"></line><polygon points="-2055.3,-854.5 -2070.3,-853.5 -2062.4,-852.1 -2067.7,-846.1" fill="rgba(204, 204, 204, 1)" stroke="rgba(204, 204, 204, 1)"></polygon><line x1="-1887.2" y1="-847.1" x2="-1766.3" y2="-789.1" stroke="rgba(204, 204, 204, 1)" stroke-width="2"></line><polygon points="-1766.3,-789.1 -1777.7,-798.8 -1773.0,-792.3 -1781.0,-791.8" fill="rgba(204, 204, 204, 1)" stroke="rgba(204, 204, 204, 1)"></polygon><line x1="-1785.1" y1="-150.7" x2="-1907.2" y2="-111.0" stroke="rgba(204, 204, 204, 1)" stroke-width="2"></line><polygon points="-1907.2,-111.0 -1892.2,-111.8 -1900.0,-113.4 -1894.6,-119.2" fill="rgba(204, 204, 204, 1)" stroke="rgba(204, 204, 204, 1)"></polygon><line x1="-833.2" y1="451.2" x2="-852.1" y2="497.9" stroke="rgba(204, 204, 204, 1)" stroke-width="2"></line><polygon points="-852.1,497.9 -843.1,486.0 -849.3,491.0 -850.3,483.1" fill="rgba(204, 204, 204, 1)" stroke="rgba(204, 204, 204, 1)"></polygon><line x1="-1683.6" y1="-142.0" x2="-1656.3" y2="-51.8" stroke="rgba(204, 204, 204, 1)" stroke-width="2"></line><polygon points="-1656.3,-51.8 -1656.8,-66.7 -1658.5,-58.9 -1664.2,-64.5" fill="rgba(204, 204, 204, 1)" stroke="rgba(204, 204, 204, 1)"></polygon><line x1="508.6" y1="-40.8" x2="511.7" y2="-25.5" stroke="rgba(204, 204, 204, 1)" stroke-width="2"></line><polygon points="511.7,-25.5 512.6,-40.4 510.2,-32.8 505.0,-38.9" fill="rgba(204, 204, 204, 1)" stroke="rgba(204, 204, 204, 1)"></polygon><line x1="515.9" y1="50.5" x2="513.9" y2="72.9" stroke="rgba(204, 204, 204, 1)" stroke-width="2"></line><polygon points="513.9,72.9 519.1,58.8 514.6,65.4 511.3,58.1" fill="rgba(204, 204, 204, 1)" stroke="rgba(204, 204, 204, 1)"></polygon><line x1="-2348.6" y1="-1676.1" x2="-2300.5" y2="-1645.1" stroke="rgba(204, 204, 204, 1)" stroke-width="2"></line><polygon points="-2300.5,-1645.1 -2310.6,-1656.2 -2306.8,-1649.1 -2314.8,-1649.7" fill="rgba(204, 204, 204, 1)" stroke="rgba(204, 204, 204, 1)"></polygon><line x1="560.2" y1="-1058.6" x2="649.7" y2="-1071.5" stroke="rgba(204, 204, 204, 1)" stroke-width="2"></line><polygon points="649.7,-1071.5 634.8,-1073.2 642.3,-1070.4 635.9,-1065.6" fill="rgba(204, 204, 204, 1)" stroke="rgba(204, 204, 204, 1)"></polygon><line x1="560.2" y1="-1022.8" x2="649.7" y2="-1003.8" stroke="rgba(204, 204, 204, 1)" stroke-width="2"></line><polygon points="649.7,-1003.8 636.3,-1010.6 642.3,-1005.4 634.7,-1003.0" fill="rgba(204, 204, 204, 1)" stroke="rgba(204, 204, 204, 1)"></polygon><line x1="533.9" y1="-1231.2" x2="645.7" y2="-1239.4" stroke="rgba(204, 204, 204, 1)" stroke-width="2"></line><polygon points="645.7,-1239.4 631.0,-1242.2 638.2,-1238.9 631.5,-1234.5" fill="rgba(204, 204, 204, 1)" stroke="rgba(204, 204, 204, 1)"></polygon><line x1="533.9" y1="-1198.7" x2="646.1" y2="-1171.9" stroke="rgba(204, 204, 204, 1)" stroke-width="2"></line><polygon points="646.1,-1171.9 632.9,-1179.0 638.8,-1173.6 631.1,-1171.5" fill="rgba(204, 204, 204, 1)" stroke="rgba(204, 204, 204, 1)"></polygon><line x1="510.1" y1="-880.1" x2="623.9" y2="-901.2" stroke="rgba(204, 204, 204, 1)" stroke-width="2"></line><polygon points="623.9,-901.2 608.9,-902.4 616.5,-899.8 610.3,-894.7" fill="rgba(204, 204, 204, 1)" stroke="rgba(204, 204, 204, 1)"></polygon><line x1="510.1" y1="-865.3" x2="622.2" y2="-839.9" stroke="rgba(204, 204, 204, 1)" stroke-width="2"></line><polygon points="622.2,-839.9 608.9,-846.9 614.8,-841.5 607.2,-839.3" fill="rgba(204, 204, 204, 1)" stroke="rgba(204, 204, 204, 1)"></polygon><line x1="-1760.4" y1="-1092.6" x2="-1684.2" y2="-1174.0" stroke="rgba(204, 204, 204, 1)" stroke-width="2"></line><polygon points="-1684.2,-1174.0 -1696.9,-1166.1 -1689.3,-1168.5 -1691.3,-1160.8" fill="rgba(204, 204, 204, 1)" stroke="rgba(204, 204, 204, 1)"></polygon><line x1="-1658.5" y1="-713.1" x2="-1199.7" y2="-104.3" stroke="rgba(204, 204, 204, 1)" stroke-width="2"></line><polygon points="-1199.7,-104.3 -1205.3,-118.2 -1204.2,-110.3 -1211.5,-113.5" fill="rgba(204, 204, 204, 1)" stroke="rgba(204, 204, 204, 1)"></polygon><line x1="100.6" y1="-195.0" x2="349.2" y2="-372.0" stroke="rgba(204, 204, 204, 1)" stroke-width="2"></line><polygon points="349.2,-372.0 335.2,-366.7 343.1,-367.6 339.7,-360.4" fill="rgba(204, 204, 204, 1)" stroke="rgba(204, 204, 204, 1)"></polygon><line x1="-1605.1" y1="-778.7" x2="-1098.5" y2="-949.7" stroke="rgba(204, 204, 204, 1)" stroke-width="2"></line><polygon points="-1098.5,-949.7 -1113.4,-948.8 -1105.6,-947.3 -1111.0,-941.4" fill="rgba(204, 204, 204, 1)" stroke="rgba(204, 204, 204, 1)"></polygon><line x1="-1064.1" y1="-1658.1" x2="-629.7" y2="-1745.9" stroke="rgba(204, 204, 204, 1)" stroke-width="2"></line><polygon points="-629.7,-1745.9 -644.7,-1746.9 -637.0,-1744.5 -643.1,-1739.3" fill="rgba(204, 204, 204, 1)" stroke="rgba(204, 204, 204, 1)"></polygon><line x1="-1664.4" y1="-789.1" x2="-1176.8" y2="-1601.9" stroke="rgba(204, 204, 204, 1)" stroke-width="2"></line><polygon points="-1176.8,-1601.9 -1187.6,-1591.5 -1180.7,-1595.5 -1181.0,-1587.5" fill="rgba(204, 204, 204, 1)" stroke="rgba(204, 204, 204, 1)"></polygon><line x1="-1152.3" y1="-1677.9" x2="-1110.8" y2="-2594.1" stroke="rgba(204, 204, 204, 1)" stroke-width="2"></line><polygon points="-1110.8,-2594.1 -1115.3,-2579.8 -1111.1,-2586.6 -1107.6,-2579.4" fill="rgba(204, 204, 204, 1)" stroke="rgba(204, 204, 204, 1)"></polygon><line x1="256.1" y1="1174.1" x2="269.6" y2="1267.8" stroke="rgba(204, 204, 204, 1)" stroke-width="2"></line><polygon points="269.6,1267.8 271.3,1252.9 268.5,1260.4 263.7,1254.0" fill="rgba(204, 204, 204, 1)" stroke="rgba(204, 204, 204, 1)"></polygon><line x1="-676.6" y1="-88.9" x2="-649.1" y2="-51.8" stroke="rgba(204, 204, 204, 1)" stroke-width="2"></line><polygon points="-649.1,-51.8 -654.6,-65.7 -653.5,-57.8 -660.8,-61.1" fill="rgba(204, 204, 204, 1)" stroke="rgba(204, 204, 204, 1)"></polygon><line x1="-1119.0" y1="-69.5" x2="-964.9" y2="-79.1" stroke="rgba(204, 204, 204, 1)" stroke-width="2"></line><polygon points="-964.9,-79.1 -979.6,-82.1 -972.4,-78.7 -979.1,-74.4" fill="rgba(204, 204, 204, 1)" stroke="rgba(204, 204, 204, 1)"></polygon><line x1="-444.9" y1="-98.2" x2="-158.4" y2="-101.4" stroke="rgba(204, 204, 204, 1)" stroke-width="2"></line><polygon points="-158.4,-101.4 -172.9,-105.2 -165.9,-101.4 -172.9,-97.4" fill="rgba(204, 204, 204, 1)" stroke="rgba(204, 204, 204, 1)"></polygon><line x1="-581.5" y1="-244.9" x2="-451.7" y2="-402.2" stroke="rgba(204, 204, 204, 1)" stroke-width="2"></line><polygon points="-451.7,-402.2 -463.9,-393.5 -456.5,-396.4 -457.9,-388.6" fill="rgba(204, 204, 204, 1)" stroke="rgba(204, 204, 204, 1)"></polygon><line x1="-1103.1" y1="-1677.9" x2="-491.8" y2="-2134.1" stroke="rgba(204, 204, 204, 1)" stroke-width="2"></line><polygon points="-491.8,-2134.1 -505.8,-2128.6 -497.8,-2129.7 -501.1,-2122.4" fill="rgba(204, 204, 204, 1)" stroke="rgba(204, 204, 204, 1)"></polygon><line x1="-1146.9" y1="-28.3" x2="-991.4" y2="216.9" stroke="rgba(204, 204, 204, 1)" stroke-width="2"></line><polygon points="-991.4,216.9 -995.9,202.6 -995.4,210.6 -1002.4,206.8" fill="rgba(204, 204, 204, 1)" stroke="rgba(204, 204, 204, 1)"></polygon><line x1="-1223.0" y1="-71.1" x2="-1479.3" y2="-94.5" stroke="rgba(204, 204, 204, 1)" stroke-width="2"></line><polygon points="-1479.3,-94.5 -1465.2,-89.3 -1471.9,-93.8 -1464.5,-97.0" fill="rgba(204, 204, 204, 1)" stroke="rgba(204, 204, 204, 1)"></polygon><line x1="100.6" y1="-80.1" x2="352.4" y2="-35.8" stroke="rgba(204, 204, 204, 1)" stroke-width="2"></line><polygon points="352.4,-35.8 338.8,-42.2 345.0,-37.1 337.5,-34.5" fill="rgba(204, 204, 204, 1)" stroke="rgba(204, 204, 204, 1)"></polygon><line x1="30.5" y1="119.1" x2="68.1" y2="259.7" stroke="rgba(204, 204, 204, 1)" stroke-width="2"></line><polygon points="68.1,259.7 68.1,244.7 66.1,252.5 60.6,246.7" fill="rgba(204, 204, 204, 1)" stroke="rgba(204, 204, 204, 1)"></polygon><line x1="-1209.4" y1="-28.3" x2="-1385.8" y2="146.7" stroke="rgba(204, 204, 204, 1)" stroke-width="2"></line><polygon points="-1385.8,146.7 -1372.8,139.2 -1380.5,141.4 -1378.3,133.7" fill="rgba(204, 204, 204, 1)" stroke="rgba(204, 204, 204, 1)"></polygon><line x1="-1144.3" y1="-104.3" x2="-948.4" y2="-382.4" stroke="rgba(204, 204, 204, 1)" stroke-width="2"></line><polygon points="-948.4,-382.4 -959.9,-372.8 -952.7,-376.3 -953.6,-368.4" fill="rgba(204, 204, 204, 1)" stroke="rgba(204, 204, 204, 1)"></polygon><line x1="-924.6" y1="-949.7" x2="-558.4" y2="-722.4" stroke="rgba(204, 204, 204, 1)" stroke-width="2"></line><polygon points="-558.4,-722.4 -568.6,-733.4 -564.7,-726.4 -572.7,-726.8" fill="rgba(204, 204, 204, 1)" stroke="rgba(204, 204, 204, 1)"></polygon><line x1="-1180.7" y1="-104.3" x2="-1251.4" y2="-382.4" stroke="rgba(204, 204, 204, 1)" stroke-width="2"></line><polygon points="-1251.4,-382.4 -1251.6,-367.4 -1249.5,-375.2 -1244.0,-369.3" fill="rgba(204, 204, 204, 1)" stroke="rgba(204, 204, 204, 1)"></polygon><line x1="-1700.8" y1="-789.1" x2="-1782.4" y2="-1016.6" stroke="rgba(204, 204, 204, 1)" stroke-width="2"></line><polygon points="-1782.4,-1016.6 -1781.2,-1001.7 -1779.9,-1009.6 -1773.9,-1004.3" fill="rgba(204, 204, 204, 1)" stroke="rgba(204, 204, 204, 1)"></polygon><line x1="-1644.9" y1="-1250.0" x2="-1642.3" y2="-1277.2" stroke="rgba(204, 204, 204, 1)" stroke-width="2"></line><polygon points="-1642.3,-1277.2 -1647.5,-1263.2 -1643.0,-1269.8 -1639.8,-1262.4" fill="rgba(204, 204, 204, 1)" stroke="rgba(204, 204, 204, 1)"></polygon><line x1="-1685.1" y1="-1353.2" x2="-1941.3" y2="-1562.8" stroke="rgba(204, 204, 204, 1)" stroke-width="2"></line><polygon points="-1941.3,-1562.8 -1932.5,-1550.6 -1935.5,-1558.0 -1927.6,-1556.6" fill="rgba(204, 204, 204, 1)" stroke="rgba(204, 204, 204, 1)"></polygon><line x1="-1633.1" y1="-1353.2" x2="-1624.1" y2="-1415.7" stroke="rgba(204, 204, 204, 1)" stroke-width="2"></line><polygon points="-1624.1,-1415.7 -1630.0,-1401.9 -1625.1,-1408.2 -1622.3,-1400.8" fill="rgba(204, 204, 204, 1)" stroke="rgba(204, 204, 204, 1)"></polygon><line x1="-503.6" y1="-1260.8" x2="-526.4" y2="-1310.5" stroke="rgba(204, 204, 204, 1)" stroke-width="2"></line><polygon points="-526.4,-1310.5 -523.9,-1295.7 -523.3,-1303.7 -516.9,-1298.9" fill="rgba(204, 204, 204, 1)" stroke="rgba(204, 204, 204, 1)"></polygon><line x1="-897.5" y1="-450.4" x2="-766.9" y2="-450.4" stroke="rgba(204, 204, 204, 1)" stroke-width="2"></line><polygon points="-766.9,-450.4 -781.4,-454.3 -774.4,-450.4 -781.4,-446.6" fill="rgba(204, 204, 204, 1)" stroke="rgba(204, 204, 204, 1)"></polygon><line x1="-478.6" y1="-1092.6" x2="-483.9" y2="-1184.8" stroke="rgba(204, 204, 204, 1)" stroke-width="2"></line><polygon points="-483.9,-1184.8 -486.9,-1170.1 -483.5,-1177.3 -479.2,-1170.6" fill="rgba(204, 204, 204, 1)" stroke="rgba(204, 204, 204, 1)"></polygon><line x1="-871.4" y1="-1002.7" x2="-528.4" y2="-1047.8" stroke="rgba(204, 204, 204, 1)" stroke-width="2"></line><polygon points="-528.4,-1047.8 -543.2,-1049.8 -535.8,-1046.8 -542.2,-1042.1" fill="rgba(204, 204, 204, 1)" stroke="rgba(204, 204, 204, 1)"></polygon><line x1="-424.4" y1="-1054.9" x2="295.9" y2="-1059.4" stroke="rgba(204, 204, 204, 1)" stroke-width="2"></line><polygon points="295.9,-1059.4 281.3,-1063.2 288.4,-1059.4 281.4,-1055.5" fill="rgba(204, 204, 204, 1)" stroke="rgba(204, 204, 204, 1)"></polygon><line x1="-1180.1" y1="-2655.3" x2="-1428.2" y2="-2736.3" stroke="rgba(204, 204, 204, 1)" stroke-width="2"></line><polygon points="-1428.2,-2736.3 -1415.7,-2728.1 -1421.1,-2734.0 -1413.3,-2735.5" fill="rgba(204, 204, 204, 1)" stroke="rgba(204, 204, 204, 1)"></polygon><line x1="-1068.0" y1="-2670.1" x2="-1028.3" y2="-2706.8" stroke="rgba(204, 204, 204, 1)" stroke-width="2"></line><polygon points="-1028.3,-2706.8 -1041.6,-2699.8 -1033.8,-2701.7 -1036.3,-2694.1" fill="rgba(204, 204, 204, 1)" stroke="rgba(204, 204, 204, 1)"></polygon><line x1="499.4" y1="1453.8" x2="734.5" y2="1554.9" stroke="rgba(204, 204, 204, 1)" stroke-width="2"></line><polygon points="734.5,1554.9 722.7,1545.6 727.6,1551.9 719.7,1552.7" fill="rgba(204, 204, 204, 1)" stroke="rgba(204, 204, 204, 1)"></polygon><line x1="5.3" y1="474.8" x2="274.5" y2="474.8" stroke="rgba(204, 204, 204, 1)" stroke-width="2"></line><polygon points="274.5,474.8 260.0,470.9 267.0,474.8 260.0,478.6" fill="rgba(204, 204, 204, 1)" stroke="rgba(204, 204, 204, 1)"></polygon><line x1="-399.1" y1="-1239.1" x2="-220.9" y2="-1272.5" stroke="rgba(204, 204, 204, 1)" stroke-width="2"></line><polygon points="-220.9,-1272.5 -235.8,-1273.7 -228.2,-1271.1 -234.4,-1266.0" fill="rgba(204, 204, 204, 1)" stroke="rgba(204, 204, 204, 1)"></polygon><line x1="-180.7" y1="-1826.4" x2="197.9" y2="-1885.5" stroke="rgba(204, 204, 204, 1)" stroke-width="2"></line><polygon points="197.9,-1885.5 183.0,-1887.1 190.5,-1884.3 184.2,-1879.4" fill="rgba(204, 204, 204, 1)" stroke="rgba(204, 204, 204, 1)"></polygon><line x1="361.9" y1="-1750.2" x2="361.9" y2="-1717.4" stroke="rgba(204, 204, 204, 1)" stroke-width="2"></line><polygon points="361.9,-1717.4 365.8,-1731.9 361.9,-1724.9 358.0,-1731.9" fill="rgba(204, 204, 204, 1)" stroke="rgba(204, 204, 204, 1)"></polygon><line x1="361.9" y1="-1641.4" x2="361.9" y2="-1599.8" stroke="rgba(204, 204, 204, 1)" stroke-width="2"></line><polygon points="361.9,-1599.8 365.8,-1614.3 361.9,-1607.3 358.0,-1614.3" fill="rgba(204, 204, 204, 1)" stroke="rgba(204, 204, 204, 1)"></polygon><line x1="331.3" y1="-1866.0" x2="347.0" y2="-1826.2" stroke="rgba(204, 204, 204, 1)" stroke-width="2"></line><polygon points="347.0,-1826.2 345.3,-1841.1 344.2,-1833.1 338.0,-1838.2" fill="rgba(204, 204, 204, 1)" stroke="rgba(204, 204, 204, 1)"></polygon><line x1="720.5" y1="545.4" x2="1223.9" y2="382.6" stroke="rgba(204, 204, 204, 1)" stroke-width="2"></line><polygon points="1223.9,382.6 1209.0,383.4 1216.8,384.9 1211.3,390.8" fill="rgba(204, 204, 204, 1)" stroke="rgba(204, 204, 204, 1)"></polygon><rect x="349.2" y="-709.3" width="259.0" height="490.5" rx="8" ry="8" fill="rgba(0, 0, 0, 0)" stroke="rgba(204, 204, 204, 1)" stroke-width="2"></rect><text x="363.2" y="-679.3" fill="rgba(204, 204, 204, 1)" font-size="32" text-anchor="start" font-family="MiSans">连线</text><rect x="352.4" y="-196.8" width="305.9" height="375.7" rx="8" ry="8" fill="rgba(0, 0, 0, 0)" stroke="rgba(204, 204, 204, 1)" stroke-width="2"></rect><text x="366.4" y="-166.8" fill="rgba(204, 204, 204, 1)" font-size="32" text-anchor="start" font-family="MiSans">图片</text><rect x="-558.4" y="-738.2" width="490.5" height="336.0" rx="8" ry="8" fill="rgba(0, 0, 0, 0)" stroke="rgba(204, 204, 204, 1)" stroke-width="2"></rect><text x="-544.4" y="-708.2" fill="rgba(204, 204, 204, 1)" font-size="32" text-anchor="start" font-family="MiSans">更丰富的节点渲染</text><rect x="-339.7" y="259.7" width="1060.2" height="914.3" rx="8" ry="8" fill="rgba(0, 0, 0, 0)" stroke="rgba(204, 204, 204, 1)" stroke-width="2"></rect><text x="-325.7" y="289.7" fill="rgba(204, 204, 204, 1)" font-size="32" text-anchor="start" font-family="MiSans">Section功能完善</text><rect x="-1754.1" y="146.7" width="549.0" height="186.0" rx="8" ry="8" fill="rgba(0, 0, 0, 0)" stroke="rgba(204, 204, 204, 1)" stroke-width="2"></rect><text x="-1740.1" y="176.7" fill="rgba(204, 204, 204, 1)" font-size="32" text-anchor="start" font-family="MiSans">工具栏优化</text><rect x="-629.7" y="-1942.0" width="449.0" height="301.2" rx="8" ry="8" fill="rgba(0, 0, 0, 0)" stroke="rgba(204, 204, 204, 1)" stroke-width="2"></rect><text x="-615.7" y="-1912.0" fill="rgba(204, 204, 204, 1)" font-size="32" text-anchor="start" font-family="MiSans">自动计算引擎</text><rect x="-2079.2" y="-298.0" width="599.8" height="352.3" rx="8" ry="8" fill="rgba(0, 0, 0, 0)" stroke="rgba(204, 204, 204, 1)" stroke-width="2"></rect><text x="-2065.2" y="-268.0" fill="rgba(204, 204, 204, 1)" font-size="32" text-anchor="start" font-family="MiSans">布局功能</text><rect x="-2558.7" y="-2091.2" width="617.4" height="552.2" rx="8" ry="8" fill="rgba(0, 0, 0, 0)" stroke="rgba(204, 204, 204, 1)" stroke-width="2"></rect><text x="-2544.7" y="-2061.2" fill="rgba(204, 204, 204, 1)" font-size="32" text-anchor="start" font-family="MiSans">插件</text><rect x="295.9" y="-1359.8" width="858.0" height="595.4" rx="8" ry="8" fill="rgba(0, 0, 0, 0)" stroke="rgba(204, 204, 204, 1)" stroke-width="2"></rect><text x="309.9" y="-1329.8" fill="rgba(204, 204, 204, 1)" font-size="32" text-anchor="start" font-family="MiSans">多软件文件联通计划</text><rect x="-158.4" y="-324.9" width="259.0" height="443.9" rx="8" ry="8" fill="rgba(0, 0, 0, 0)" stroke="rgba(204, 204, 204, 1)" stroke-width="2"></rect><text x="-144.4" y="-294.9" fill="rgba(204, 204, 204, 1)" font-size="32" text-anchor="start" font-family="MiSans">节点优化</text><rect x="-491.8" y="-2361.5" width="231.1" height="282.1" rx="8" ry="8" fill="rgba(0, 0, 0, 0)" stroke="rgba(204, 204, 204, 1)" stroke-width="2"></rect><text x="-477.8" y="-2331.5" fill="rgba(204, 204, 204, 1)" font-size="32" text-anchor="start" font-family="MiSans">AI专项计划</text><rect x="-991.4" y="178.3" width="356.0" height="638.5" rx="8" ry="8" fill="rgba(0, 0, 0, 0)" stroke="rgba(204, 204, 204, 1)" stroke-width="2"></rect><text x="-977.4" y="208.3" fill="rgba(204, 204, 204, 1)" font-size="32" text-anchor="start" font-family="MiSans">优化键盘操作</text><rect x="-1050.5" y="-688.2" width="419.6" height="305.8" rx="8" ry="8" fill="rgba(0, 0, 0, 0)" stroke="rgba(204, 204, 204, 1)" stroke-width="2"></rect><text x="-1036.5" y="-658.2" fill="rgba(204, 204, 204, 1)" font-size="32" text-anchor="start" font-family="MiSans">整体性软件完善</text><rect x="9.9" y="1267.8" width="546.0" height="186.0" rx="8" ry="8" fill="rgba(0, 0, 0, 0)" stroke="rgba(204, 204, 204, 1)" stroke-width="2"></rect><text x="23.9" y="1297.8" fill="rgba(204, 204, 204, 1)" font-size="32" text-anchor="start" font-family="MiSans">多层嵌套Section完善</text><rect x="-964.9" y="-244.9" width="520.0" height="299.1" rx="8" ry="8" fill="rgba(0, 0, 0, 0)" stroke="rgba(204, 204, 204, 1)" stroke-width="2"></rect><text x="-950.9" y="-214.9" fill="rgba(204, 204, 204, 1)" font-size="32" text-anchor="start" font-family="MiSans">性能优化</text><rect x="734.5" y="1549.5" width="408.0" height="186.0" rx="8" ry="8" fill="rgba(0, 0, 0, 0)" stroke="rgba(204, 204, 204, 1)" stroke-width="2"></rect><text x="748.5" y="1579.5" fill="rgba(204, 204, 204, 1)" font-size="32" text-anchor="start" font-family="MiSans">增加表格元素</text></svg>