<svg xmlns="http://www.w3.org/2000/svg" width="3464" height="3470" viewBox="-2696 -2445 3464 3470" style="background-color:rgba(34, 34, 34, 1)"><rect x="-907.0" y="-2415.0" width="231.0" height="282.0" rx="8" ry="8" fill="rgba(0, 0, 0, 0)" stroke="rgba(0, 0, 0, 0)" stroke-width="0"></rect><rect x="-2696.0" y="-2007.0" width="593.3" height="443.0" rx="8" ry="8" fill="rgba(0, 0, 0, 0)" stroke="rgba(0, 0, 0, 0)" stroke-width="0"></rect><rect x="-671.0" y="-1906.0" width="449.0" height="412.0" rx="8" ry="8" fill="rgba(0, 0, 0, 0)" stroke="rgba(0, 0, 0, 0)" stroke-width="0"></rect><rect x="-803.0" y="-808.0" width="491.0" height="336.0" rx="8" ry="8" fill="rgba(0, 0, 0, 0)" stroke="rgba(0, 0, 0, 0)" stroke-width="0"></rect><rect x="476.0" y="-355.0" width="259.0" height="186.0" rx="8" ry="8" fill="rgba(0, 0, 0, 0)" stroke="rgba(0, 0, 0, 0)" stroke-width="0"></rect><rect x="-101.0" y="-325.0" width="259.0" height="444.0" rx="8" ry="8" fill="rgba(0, 0, 0, 0)" stroke="rgba(0, 0, 0, 0)" stroke-width="0"></rect><rect x="-961.0" y="-159.0" width="516.3" height="186.0" rx="8" ry="8" fill="rgba(0, 0, 0, 0)" stroke="rgba(0, 0, 0, 0)" stroke-width="0"></rect><rect x="-2064.0" y="-103.0" width="328.4" height="186.0" rx="8" ry="8" fill="rgba(0, 0, 0, 0)" stroke="rgba(0, 0, 0, 0)" stroke-width="0"></rect><rect x="460.0" y="-42.0" width="278.0" height="186.0" rx="8" ry="8" fill="rgba(0, 0, 0, 0)" stroke="rgba(0, 0, 0, 0)" stroke-width="0"></rect><rect x="-1947.0" y="203.0" width="555.0" height="186.0" rx="8" ry="8" fill="rgba(0, 0, 0, 0)" stroke="rgba(0, 0, 0, 0)" stroke-width="0"></rect><rect x="-1086.0" y="203.0" width="342.0" height="309.0" rx="8" ry="8" fill="rgba(0, 0, 0, 0)" stroke="rgba(0, 0, 0, 0)" stroke-width="0"></rect><rect x="-340.0" y="295.0" width="471.0" height="186.0" rx="8" ry="8" fill="rgba(0, 0, 0, 0)" stroke="rgba(0, 0, 0, 0)" stroke-width="0"></rect><rect x="-340.0" y="550.0" width="547.0" height="186.0" rx="8" ry="8" fill="rgba(0, 0, 0, 0)" stroke="rgba(0, 0, 0, 0)" stroke-width="0"></rect><rect x="-158.0" y="839.0" width="408.0" height="186.0" rx="8" ry="8" fill="rgba(0, 0, 0, 0)" stroke="rgba(0, 0, 0, 0)" stroke-width="0"></rect><rect x="-2559.0" y="-1927.0" width="285.0" height="76.0" rx="8" ry="8" fill="rgba(0, 0, 0, 0)" stroke="rgba(229, 231, 235, 1)" stroke-width="2"></rect><text x="-2545.0" y="-1875.0" fill="rgba(255, 255, 255, 1)" font-size="32" text-anchor="start" font-family="-apple-system, BlinkMacSystemFont, MiSans, system-ui, sans-serif">TODOlist时间计算扩展</text><rect x="-1849.0" y="-1026.0" width="123.0" height="76.0" rx="8" ry="8" fill="rgba(0, 0, 0, 0)" stroke="rgba(229, 231, 235, 1)" stroke-width="2"></rect><text x="-1835.0" y="-974.0" fill="rgba(255, 255, 255, 1)" font-size="32" text-anchor="start" font-family="-apple-system, BlinkMacSystemFont, MiSans, system-ui, sans-serif">第二次重构</text><rect x="-2666.0" y="-1670.0" width="533.3" height="76.0" rx="8" ry="8" fill="rgba(0, 0, 0, 0)" stroke="rgba(229, 231, 235, 1)" stroke-width="2"></rect><text x="-2652.0" y="-1618.0" fill="rgba(255, 255, 255, 1)" font-size="32" text-anchor="start" font-family="-apple-system, BlinkMacSystemFont, MiSans, system-ui, sans-serif">githubIssuee导入projectgraph的能力</text><rect x="-1701.0" y="-1492.0" width="165.0" height="76.0" rx="8" ry="8" fill="rgba(0, 0, 0, 0)" stroke="rgba(229, 231, 235, 1)" stroke-width="2"></rect><text x="-1687.0" y="-1440.0" fill="rgba(255, 255, 255, 1)" font-size="32" text-anchor="start" font-family="-apple-system, BlinkMacSystemFont, MiSans, system-ui, sans-serif">发布v2.0.0</text><rect x="-1402.0" y="-2335.0" width="104.0" height="76.0" rx="8" ry="8" fill="rgba(0, 0, 0, 0)" stroke="rgba(229, 231, 235, 1)" stroke-width="2"></rect><text x="-1388.0" y="-2283.0" fill="rgba(255, 255, 255, 1)" font-size="32" text-anchor="start" font-family="-apple-system, BlinkMacSystemFont, MiSans, system-ui, sans-serif">多人联机</text><rect x="-2523.0" y="-1801.0" width="225.0" height="76.0" rx="8" ry="8" fill="rgba(0, 0, 0, 0)" stroke="rgba(229, 231, 235, 1)" stroke-width="2"></rect><text x="-2509.0" y="-1749.0" fill="rgba(255, 255, 255, 1)" font-size="32" text-anchor="start" font-family="-apple-system, BlinkMacSystemFont, MiSans, system-ui, sans-serif">增加github等功能</text><rect x="-1849.0" y="-738.0" width="165.0" height="76.0" rx="8" ry="8" fill="rgba(22, 163, 74, 1)" stroke="rgba(229, 231, 235, 1)" stroke-width="2"></rect><text x="-1835.0" y="-686.0" fill="rgba(255, 255, 255, 1)" font-size="32" text-anchor="start" font-family="-apple-system, BlinkMacSystemFont, MiSans, system-ui, sans-serif">发布v1.1.0</text><rect x="-742.0" y="-578.0" width="123.0" height="76.0" rx="8" ry="8" fill="rgba(0, 0, 0, 0)" stroke="rgba(229, 231, 235, 1)" stroke-width="2"></rect><text x="-728.0" y="-526.0" fill="rgba(255, 255, 255, 1)" font-size="32" text-anchor="start" font-family="-apple-system, BlinkMacSystemFont, MiSans, system-ui, sans-serif">富文本功能</text><rect x="506.0" y="-275.0" width="199.0" height="76.0" rx="8" ry="8" fill="rgba(0, 0, 0, 0)" stroke="rgba(229, 231, 235, 1)" stroke-width="2"></rect><text x="520.0" y="-223.0" fill="rgba(255, 255, 255, 1)" font-size="32" text-anchor="start" font-family="-apple-system, BlinkMacSystemFont, MiSans, system-ui, sans-serif">贝塞尔曲线手动调整</text><rect x="-641.0" y="-1826.0" width="199.0" height="76.0" rx="8" ry="8" fill="rgba(0, 0, 0, 0)" stroke="rgba(229, 231, 235, 1)" stroke-width="2"></rect><text x="-627.0" y="-1774.0" fill="rgba(255, 255, 255, 1)" font-size="32" text-anchor="start" font-family="-apple-system, BlinkMacSystemFont, MiSans, system-ui, sans-serif">自动生成统计图功能</text><rect x="-773.0" y="-728.0" width="235.0" height="76.0" rx="8" ry="8" fill="rgba(0, 0, 0, 0)" stroke="rgba(229, 231, 235, 1)" stroke-width="2"></rect><text x="-759.0" y="-676.0" fill="rgba(255, 255, 255, 1)" font-size="32" text-anchor="start" font-family="-apple-system, BlinkMacSystemFont, MiSans, system-ui, sans-serif">渲染markdown</text><rect x="-1056.0" y="283.0" width="282.0" height="76.0" rx="8" ry="8" fill="rgba(0, 0, 0, 0)" stroke="rgba(229, 231, 235, 1)" stroke-width="2"></rect><text x="-1042.0" y="335.0" fill="rgba(255, 255, 255, 1)" font-size="32" text-anchor="start" font-family="-apple-system, BlinkMacSystemFont, MiSans, system-ui, sans-serif">优化ctrl+c、ctrl+v</text><rect x="-1056.0" y="406.0" width="186.0" height="76.0" rx="8" ry="8" fill="rgba(0, 0, 0, 0)" stroke="rgba(229, 231, 235, 1)" stroke-width="2"></rect><text x="-1042.0" y="458.0" fill="rgba(255, 255, 255, 1)" font-size="32" text-anchor="start" font-family="-apple-system, BlinkMacSystemFont, MiSans, system-ui, sans-serif">支持Alt复制功能</text><rect x="-1701.0" y="-1250.0" width="104.0" height="76.0" rx="8" ry="8" fill="rgba(0, 0, 0, 0)" stroke="rgba(229, 231, 235, 1)" stroke-width="2"></rect><text x="-1687.0" y="-1198.0" fill="rgba(255, 255, 255, 1)" font-size="32" text-anchor="start" font-family="-apple-system, BlinkMacSystemFont, MiSans, system-ui, sans-serif">抽取内核</text><rect x="-310.0" y="375.0" width="411.0" height="76.0" rx="8" ry="8" fill="rgba(0, 0, 0, 0)" stroke="rgba(229, 231, 235, 1)" stroke-width="2"></rect><text x="-296.0" y="427.0" fill="rgba(255, 255, 255, 1)" font-size="32" text-anchor="start" font-family="-apple-system, BlinkMacSystemFont, MiSans, system-ui, sans-serif">可以考虑把section框的大小改成自定义</text><rect x="-641.0" y="-1600.0" width="389.0" height="76.0" rx="8" ry="8" fill="rgba(0, 0, 0, 0)" stroke="rgba(229, 231, 235, 1)" stroke-width="2"></rect><text x="-627.0" y="-1548.0" fill="rgba(255, 255, 255, 1)" font-size="32" text-anchor="start" font-family="-apple-system, BlinkMacSystemFont, MiSans, system-ui, sans-serif">设计一种按连线顺序执行逻辑节点的方式？</text><rect x="-848.0" y="-2239.0" width="142.0" height="76.0" rx="8" ry="8" fill="rgba(0, 0, 0, 0)" stroke="rgba(229, 231, 235, 1)" stroke-width="2"></rect><text x="-834.0" y="-2187.0" fill="rgba(255, 255, 255, 1)" font-size="32" text-anchor="start" font-family="-apple-system, BlinkMacSystemFont, MiSans, system-ui, sans-serif">增加指令系统</text><rect x="-2034.0" y="-23.0" width="268.4" height="76.0" rx="8" ry="8" fill="rgba(0, 0, 0, 0)" stroke="rgba(229, 231, 235, 1)" stroke-width="2"></rect><text x="-2020.0" y="29.0" fill="rgba(255, 255, 255, 1)" font-size="32" text-anchor="start" font-family="-apple-system, BlinkMacSystemFont, MiSans, system-ui, sans-serif">增加shift键移动节点功能</text><rect x="-446.0" y="-578.0" width="104.0" height="76.0" rx="8" ry="8" fill="rgba(0, 0, 0, 0)" stroke="rgba(229, 231, 235, 1)" stroke-width="2"></rect><text x="-432.0" y="-526.0" fill="rgba(255, 255, 255, 1)" font-size="32" text-anchor="start" font-family="-apple-system, BlinkMacSystemFont, MiSans, system-ui, sans-serif">公式渲染</text><rect x="490.0" y="38.0" width="218.0" height="76.0" rx="8" ry="8" fill="rgba(0, 0, 0, 0)" stroke="rgba(229, 231, 235, 1)" stroke-width="2"></rect><text x="504.0" y="90.0" fill="rgba(255, 255, 255, 1)" font-size="32" text-anchor="start" font-family="-apple-system, BlinkMacSystemFont, MiSans, system-ui, sans-serif">图片下面增加一个标题</text><rect x="-71.0" y="-245.0" width="199.0" height="76.0" rx="8" ry="8" fill="rgba(0, 0, 0, 0)" stroke="rgba(229, 231, 235, 1)" stroke-width="2"></rect><text x="-57.0" y="-193.0" fill="rgba(255, 255, 255, 1)" font-size="32" text-anchor="start" font-family="-apple-system, BlinkMacSystemFont, MiSans, system-ui, sans-serif">专属的文件路径节点</text><rect x="-877.0" y="-2335.0" width="135.0" height="76.0" rx="8" ry="8" fill="rgba(0, 0, 0, 0)" stroke="rgba(229, 231, 235, 1)" stroke-width="2"></rect><text x="-863.0" y="-2283.0" fill="rgba(255, 255, 255, 1)" font-size="32" text-anchor="start" font-family="-apple-system, BlinkMacSystemFont, MiSans, system-ui, sans-serif">AI功能优化</text><rect x="-1100.0" y="-1026.0" width="229.0" height="76.0" rx="8" ry="8" fill="rgba(0, 0, 0, 0)" stroke="rgba(229, 231, 235, 1)" stroke-width="2"></rect><text x="-1086.0" y="-974.0" fill="rgba(255, 255, 255, 1)" font-size="32" text-anchor="start" font-family="-apple-system, BlinkMacSystemFont, MiSans, system-ui, sans-serif">学习笔记/思维导图方向</text><rect x="-1538.0" y="-2150.0" width="142.0" height="76.0" rx="8" ry="8" fill="rgba(0, 0, 0, 0)" stroke="rgba(229, 231, 235, 1)" stroke-width="2"></rect><text x="-1524.0" y="-2098.0" fill="rgba(255, 255, 255, 1)" font-size="32" text-anchor="start" font-family="-apple-system, BlinkMacSystemFont, MiSans, system-ui, sans-serif">头脑风暴方向</text><rect x="-1244.0" y="-1678.0" width="180.0" height="76.0" rx="8" ry="8" fill="rgba(0, 0, 0, 0)" stroke="rgba(229, 231, 235, 1)" stroke-width="2"></rect><text x="-1230.0" y="-1626.0" fill="rgba(255, 255, 255, 1)" font-size="32" text-anchor="start" font-family="-apple-system, BlinkMacSystemFont, MiSans, system-ui, sans-serif">项目工程管理方向</text><rect x="-1223.0" y="-104.0" width="104.0" height="76.0" rx="8" ry="8" fill="rgba(0, 0, 0, 0)" stroke="rgba(229, 231, 235, 1)" stroke-width="2"></rect><text x="-1209.0" y="-52.0" fill="rgba(255, 255, 255, 1)" font-size="32" text-anchor="start" font-family="-apple-system, BlinkMacSystemFont, MiSans, system-ui, sans-serif">基础问题</text><rect x="-310.0" y="630.0" width="487.0" height="76.0" rx="8" ry="8" fill="rgba(0, 0, 0, 0)" stroke="rgba(229, 231, 235, 1)" stroke-width="2"></rect><text x="-296.0" y="682.0" fill="rgba(255, 255, 255, 1)" font-size="32" text-anchor="start" font-family="-apple-system, BlinkMacSystemFont, MiSans, system-ui, sans-serif">多层嵌套时，外层折叠，内层section碰撞箱还在</text><rect x="-931.0" y="-79.0" width="456.3" height="76.0" rx="8" ry="8" fill="rgba(0, 0, 0, 0)" stroke="rgba(229, 231, 235, 1)" stroke-width="2"></rect><text x="-917.0" y="-27.0" fill="rgba(255, 255, 255, 1)" font-size="32" text-anchor="start" font-family="-apple-system, BlinkMacSystemFont, MiSans, system-ui, sans-serif">把节点的渲染逻辑提取到节点的render方法中</text><rect x="-71.0" y="13.0" width="180.0" height="76.0" rx="8" ry="8" fill="rgba(0, 0, 0, 0)" stroke="rgba(229, 231, 235, 1)" stroke-width="2"></rect><text x="-57.0" y="65.0" fill="rgba(255, 255, 255, 1)" font-size="32" text-anchor="start" font-family="-apple-system, BlinkMacSystemFont, MiSans, system-ui, sans-serif">为插件系统做准备</text><rect x="-1985.0" y="-275.0" width="180.0" height="76.0" rx="8" ry="8" fill="rgba(0, 0, 0, 0)" stroke="rgba(229, 231, 235, 1)" stroke-width="2"></rect><text x="-1971.0" y="-223.0" fill="rgba(255, 255, 255, 1)" font-size="32" text-anchor="start" font-family="-apple-system, BlinkMacSystemFont, MiSans, system-ui, sans-serif">更改工程文件格式</text><rect x="-1701.0" y="-1353.0" width="116.0" height="76.0" rx="8" ry="8" fill="rgba(0, 0, 0, 0)" stroke="rgba(229, 231, 235, 1)" stroke-width="2"></rect><text x="-1687.0" y="-1301.0" fill="rgba(255, 255, 255, 1)" font-size="32" text-anchor="start" font-family="-apple-system, BlinkMacSystemFont, MiSans, system-ui, sans-serif">插件API</text><rect x="-570.0" y="-1262.0" width="176.0" height="76.0" rx="8" ry="8" fill="rgba(0, 0, 0, 0)" stroke="rgba(229, 231, 235, 1)" stroke-width="2"></rect><text x="-556.0" y="-1210.0" fill="rgba(255, 255, 255, 1)" font-size="32" text-anchor="start" font-family="-apple-system, BlinkMacSystemFont, MiSans, system-ui, sans-serif">“知识库”的概念</text><rect x="-773.0" y="-1432.0" width="104.0" height="76.0" rx="8" ry="8" fill="rgba(0, 0, 0, 0)" stroke="rgba(229, 231, 235, 1)" stroke-width="2"></rect><text x="-759.0" y="-1380.0" fill="rgba(255, 255, 255, 1)" font-size="32" text-anchor="start" font-family="-apple-system, BlinkMacSystemFont, MiSans, system-ui, sans-serif">双向链接</text><rect x="-1917.0" y="283.0" width="495.0" height="76.0" rx="8" ry="8" fill="rgba(0, 0, 0, 0)" stroke="rgba(229, 231, 235, 1)" stroke-width="2"></rect><text x="-1903.0" y="335.0" fill="rgba(255, 255, 255, 1)" font-size="32" text-anchor="start" font-family="-apple-system, BlinkMacSystemFont, MiSans, system-ui, sans-serif">自定义工具栏（类似kde plasma的“面板”）</text><rect x="-528.0" y="-1093.0" width="104.0" height="76.0" rx="8" ry="8" fill="rgba(22, 163, 74, 1)" stroke="rgba(229, 231, 235, 1)" stroke-width="2"></rect><text x="-514.0" y="-1041.0" fill="rgba(255, 255, 255, 1)" font-size="32" text-anchor="start" font-family="-apple-system, BlinkMacSystemFont, MiSans, system-ui, sans-serif">单向链接</text><rect x="-1665.0" y="-2335.0" width="165.0" height="76.0" rx="8" ry="8" fill="rgba(0, 0, 0, 0)" stroke="rgba(229, 231, 235, 1)" stroke-width="2"></rect><text x="-1651.0" y="-2283.0" fill="rgba(255, 255, 255, 1)" font-size="32" text-anchor="start" font-family="-apple-system, BlinkMacSystemFont, MiSans, system-ui, sans-serif">发布v3.0.0</text><rect x="-128.0" y="919.0" width="92.0" height="76.0" rx="8" ry="8" fill="rgba(0, 0, 0, 0)" stroke="rgba(229, 231, 235, 1)" stroke-width="2"></rect><text x="-114.0" y="971.0" fill="rgba(255, 255, 255, 1)" font-size="32" text-anchor="start" font-family="-apple-system, BlinkMacSystemFont, MiSans, system-ui, sans-serif">……</text><rect x="128.0" y="919.0" width="92.0" height="76.0" rx="8" ry="8" fill="rgba(0, 0, 0, 0)" stroke="rgba(229, 231, 235, 1)" stroke-width="2"></rect><text x="142.0" y="971.0" fill="rgba(255, 255, 255, 1)" font-size="32" text-anchor="start" font-family="-apple-system, BlinkMacSystemFont, MiSans, system-ui, sans-serif">……</text><rect x="-392.0" y="-1456.0" width="199.0" height="124.0" rx="8" ry="8" fill="rgba(0, 0, 0, 0)" stroke="rgba(229, 231, 235, 1)" stroke-width="2"></rect><text x="-378.0" y="-1404.0" fill="rgba(255, 255, 255, 1)" font-size="32" text-anchor="start" font-family="-apple-system, BlinkMacSystemFont, MiSans, system-ui, sans-serif">加强搜索功能</text><text x="-378.0" y="-1356.0" fill="rgba(255, 255, 255, 1)" font-size="32" text-anchor="start" font-family="-apple-system, BlinkMacSystemFont, MiSans, system-ui, sans-serif">支持跨工程文件搜索</text><rect x="198.0" y="-1942.0" width="237.0" height="76.0" rx="8" ry="8" fill="rgba(0, 0, 0, 0)" stroke="rgba(229, 231, 235, 1)" stroke-width="2"></rect><text x="212.0" y="-1890.0" fill="rgba(255, 255, 255, 1)" font-size="32" text-anchor="start" font-family="-apple-system, BlinkMacSystemFont, MiSans, system-ui, sans-serif">基于图论的编程语言计划</text><rect x="310.0" y="-1826.0" width="104.0" height="76.0" rx="8" ry="8" fill="rgba(0, 0, 0, 0)" stroke="rgba(229, 231, 235, 1)" stroke-width="2"></rect><text x="324.0" y="-1774.0" fill="rgba(255, 255, 255, 1)" font-size="32" text-anchor="start" font-family="-apple-system, BlinkMacSystemFont, MiSans, system-ui, sans-serif">变量系统</text><rect x="310.0" y="-1717.0" width="104.0" height="76.0" rx="8" ry="8" fill="rgba(0, 0, 0, 0)" stroke="rgba(229, 231, 235, 1)" stroke-width="2"></rect><text x="324.0" y="-1665.0" fill="rgba(255, 255, 255, 1)" font-size="32" text-anchor="start" font-family="-apple-system, BlinkMacSystemFont, MiSans, system-ui, sans-serif">条件语句</text><rect x="310.0" y="-1600.0" width="104.0" height="76.0" rx="8" ry="8" fill="rgba(0, 0, 0, 0)" stroke="rgba(229, 231, 235, 1)" stroke-width="2"></rect><text x="324.0" y="-1548.0" fill="rgba(255, 255, 255, 1)" font-size="32" text-anchor="start" font-family="-apple-system, BlinkMacSystemFont, MiSans, system-ui, sans-serif">循环语句</text><line x1="-929.8" y1="359.0" x2="-948.2" y2="406.0" stroke="rgba(229, 231, 235, 1)" stroke-width="2"></line><polygon points="-948.2,406.0 -939.3,393.9 -945.4,399.0 -946.5,391.1" fill="rgba(229, 231, 235, 1)" stroke="rgba(229, 231, 235, 1)"></polygon><line x1="-2407.3" y1="-1725.0" x2="-2402.6" y2="-1670.0" stroke="rgba(229, 231, 235, 1)" stroke-width="2"></line><polygon points="-2402.6,-1670.0 -2399.9,-1684.8 -2403.2,-1677.5 -2407.7,-1684.1" fill="rgba(229, 231, 235, 1)" stroke="rgba(229, 231, 235, 1)"></polygon><line x1="-1764.0" y1="-1026.0" x2="-1672.5" y2="-1174.0" stroke="rgba(229, 231, 235, 1)" stroke-width="2"></line><polygon points="-1672.5,-1174.0 -1683.4,-1163.7 -1676.4,-1167.6 -1676.8,-1159.6" fill="rgba(229, 231, 235, 1)" stroke="rgba(229, 231, 235, 1)"></polygon><line x1="-1765.7" y1="-662.0" x2="-1171.8" y2="-104.0" stroke="rgba(229, 231, 235, 1)" stroke-width="2"></line><polygon points="-1171.8,-104.0 -1178.9,-117.2 -1176.9,-109.5 -1184.6,-111.9" fill="rgba(229, 231, 235, 1)" stroke="rgba(229, 231, 235, 1)"></polygon><line x1="158.0" y1="-138.7" x2="476.0" y2="-226.3" stroke="rgba(229, 231, 235, 1)" stroke-width="2"></line><polygon points="476.0,-226.3 461.0,-226.2 468.8,-224.3 463.1,-218.7" fill="rgba(229, 231, 235, 1)" stroke="rgba(229, 231, 235, 1)"></polygon><line x1="-1684.0" y1="-700.8" x2="-1100.0" y2="-986.9" stroke="rgba(229, 231, 235, 1)" stroke-width="2"></line><polygon points="-1100.0,-986.9 -1114.9,-985.5 -1107.0,-984.3 -1112.3,-978.2" fill="rgba(229, 231, 235, 1)" stroke="rgba(229, 231, 235, 1)"></polygon><line x1="-1064.0" y1="-1647.6" x2="-671.0" y2="-1681.0" stroke="rgba(229, 231, 235, 1)" stroke-width="2"></line><polygon points="-671.0,-1681.0 -685.8,-1683.6 -678.5,-1680.3 -685.1,-1675.9" fill="rgba(229, 231, 235, 1)" stroke="rgba(229, 231, 235, 1)"></polygon><line x1="-1741.7" y1="-738.0" x2="-1178.8" y2="-1602.0" stroke="rgba(229, 231, 235, 1)" stroke-width="2"></line><polygon points="-1178.8,-1602.0 -1189.9,-1592.0 -1182.9,-1595.7 -1183.4,-1587.7" fill="rgba(229, 231, 235, 1)" stroke="rgba(229, 231, 235, 1)"></polygon><line x1="-1179.2" y1="-1678.0" x2="-1441.8" y2="-2074.0" stroke="rgba(229, 231, 235, 1)" stroke-width="2"></line><polygon points="-1441.8,-2074.0 -1437.0,-2059.8 -1437.7,-2067.7 -1430.6,-2064.1" fill="rgba(229, 231, 235, 1)" stroke="rgba(229, 231, 235, 1)"></polygon><line x1="-90.6" y1="481.0" x2="-80.4" y2="550.0" stroke="rgba(229, 231, 235, 1)" stroke-width="2"></line><polygon points="-80.4,550.0 -78.7,535.1 -81.5,542.6 -86.3,536.2" fill="rgba(229, 231, 235, 1)" stroke="rgba(229, 231, 235, 1)"></polygon><line x1="-1119.0" y1="-66.0" x2="-961.0" y2="-66.0" stroke="rgba(229, 231, 235, 1)" stroke-width="2"></line><polygon points="-961.0,-66.0 -975.5,-69.9 -968.5,-66.0 -975.5,-62.1" fill="rgba(229, 231, 235, 1)" stroke="rgba(229, 231, 235, 1)"></polygon><line x1="-444.7" y1="-79.1" x2="-101.0" y2="-96.4" stroke="rgba(229, 231, 235, 1)" stroke-width="2"></line><polygon points="-101.0,-96.4 -115.7,-99.6 -108.5,-96.1 -115.3,-91.8" fill="rgba(229, 231, 235, 1)" stroke="rgba(229, 231, 235, 1)"></polygon><line x1="-679.3" y1="-159.0" x2="-600.0" y2="-472.0" stroke="rgba(229, 231, 235, 1)" stroke-width="2"></line><polygon points="-600.0,-472.0 -607.4,-458.9 -601.9,-464.7 -599.8,-457.0" fill="rgba(229, 231, 235, 1)" stroke="rgba(229, 231, 235, 1)"></polygon><line x1="-1132.3" y1="-1678.0" x2="-872.1" y2="-2133.0" stroke="rgba(229, 231, 235, 1)" stroke-width="2"></line><polygon points="-872.1,-2133.0 -882.7,-2122.3 -875.8,-2126.5 -875.9,-2118.5" fill="rgba(229, 231, 235, 1)" stroke="rgba(229, 231, 235, 1)"></polygon><line x1="-1148.0" y1="-28.0" x2="-1008.4" y2="203.0" stroke="rgba(229, 231, 235, 1)" stroke-width="2"></line><polygon points="-1008.4,203.0 -1012.6,188.6 -1012.3,196.6 -1019.2,192.6" fill="rgba(229, 231, 235, 1)" stroke="rgba(229, 231, 235, 1)"></polygon><line x1="-1223.0" y1="-62.0" x2="-1735.6" y2="-22.6" stroke="rgba(229, 231, 235, 1)" stroke-width="2"></line><polygon points="-1735.6,-22.6 -1720.8,-19.9 -1728.1,-23.2 -1721.4,-27.6" fill="rgba(229, 231, 235, 1)" stroke="rgba(229, 231, 235, 1)"></polygon><line x1="158.0" y1="-68.0" x2="460.0" y2="13.5" stroke="rgba(229, 231, 235, 1)" stroke-width="2"></line><polygon points="460.0,13.5 447.0,6.0 452.8,11.5 445.0,13.5" fill="rgba(229, 231, 235, 1)" stroke="rgba(229, 231, 235, 1)"></polygon><line x1="-31.6" y1="119.0" x2="-79.3" y2="295.0" stroke="rgba(229, 231, 235, 1)" stroke-width="2"></line><polygon points="-79.3,295.0 -71.8,282.0 -77.3,287.8 -79.3,280.0" fill="rgba(229, 231, 235, 1)" stroke="rgba(229, 231, 235, 1)"></polygon><line x1="-1223.0" y1="-28.2" x2="-1541.4" y2="203.0" stroke="rgba(229, 231, 235, 1)" stroke-width="2"></line><polygon points="-1541.4,203.0 -1527.4,197.6 -1535.4,198.6 -1532.0,191.3" fill="rgba(229, 231, 235, 1)" stroke="rgba(229, 231, 235, 1)"></polygon><line x1="-938.8" y1="-950.0" x2="-764.1" y2="-808.0" stroke="rgba(229, 231, 235, 1)" stroke-width="2"></line><polygon points="-764.1,-808.0 -772.9,-820.2 -769.9,-812.7 -777.8,-814.1" fill="rgba(229, 231, 235, 1)" stroke="rgba(229, 231, 235, 1)"></polygon><line x1="-1223.0" y1="-66.3" x2="-1805.0" y2="-236.5" stroke="rgba(229, 231, 235, 1)" stroke-width="2"></line><polygon points="-1805.0,-236.5 -1791.8,-229.4 -1797.7,-234.7 -1790.0,-236.9" fill="rgba(229, 231, 235, 1)" stroke="rgba(229, 231, 235, 1)"></polygon><line x1="-1769.3" y1="-738.0" x2="-1784.7" y2="-950.0" stroke="rgba(229, 231, 235, 1)" stroke-width="2"></line><polygon points="-1784.7,-950.0 -1787.5,-935.3 -1784.2,-942.5 -1779.8,-935.8" fill="rgba(229, 231, 235, 1)" stroke="rgba(229, 231, 235, 1)"></polygon><line x1="-1646.8" y1="-1250.0" x2="-1645.2" y2="-1277.0" stroke="rgba(229, 231, 235, 1)" stroke-width="2"></line><polygon points="-1645.2,-1277.0 -1649.9,-1262.8 -1645.6,-1269.5 -1642.2,-1262.3" fill="rgba(229, 231, 235, 1)" stroke="rgba(229, 231, 235, 1)"></polygon><line x1="-1701.0" y1="-1316.3" x2="-2102.7" y2="-1778.7" stroke="rgba(229, 231, 235, 1)" stroke-width="2"></line><polygon points="-2102.7,-1778.7 -2092.5,-1767.7 -2096.3,-1774.7 -2088.3,-1774.3" fill="rgba(229, 231, 235, 1)" stroke="rgba(229, 231, 235, 1)"></polygon><line x1="-1636.3" y1="-1353.0" x2="-1625.2" y2="-1416.0" stroke="rgba(229, 231, 235, 1)" stroke-width="2"></line><polygon points="-1625.2,-1416.0 -1631.5,-1402.4 -1626.5,-1408.6 -1623.9,-1401.1" fill="rgba(229, 231, 235, 1)" stroke="rgba(229, 231, 235, 1)"></polygon><line x1="-535.4" y1="-1262.0" x2="-669.0" y2="-1357.0" stroke="rgba(229, 231, 235, 1)" stroke-width="2"></line><polygon points="-669.0,-1357.0 -659.4,-1345.5 -662.9,-1352.7 -654.9,-1351.8" fill="rgba(229, 231, 235, 1)" stroke="rgba(229, 231, 235, 1)"></polygon><line x1="-477.3" y1="-1093.0" x2="-480.7" y2="-1186.0" stroke="rgba(229, 231, 235, 1)" stroke-width="2"></line><polygon points="-480.7,-1186.0 -484.0,-1171.4 -480.4,-1178.5 -476.3,-1171.7" fill="rgba(229, 231, 235, 1)" stroke="rgba(229, 231, 235, 1)"></polygon><line x1="-871.0" y1="-1003.1" x2="-528.0" y2="-1048.2" stroke="rgba(229, 231, 235, 1)" stroke-width="2"></line><polygon points="-528.0,-1048.2 -542.9,-1050.1 -535.4,-1047.2 -541.9,-1042.4" fill="rgba(229, 231, 235, 1)" stroke="rgba(229, 231, 235, 1)"></polygon><line x1="-1490.7" y1="-2150.0" x2="-1558.8" y2="-2259.0" stroke="rgba(229, 231, 235, 1)" stroke-width="2"></line><polygon points="-1558.8,-2259.0 -1554.4,-2244.7 -1554.8,-2252.6 -1547.8,-2248.8" fill="rgba(229, 231, 235, 1)" stroke="rgba(229, 231, 235, 1)"></polygon><line x1="-1443.0" y1="-2150.0" x2="-1374.0" y2="-2259.0" stroke="rgba(229, 231, 235, 1)" stroke-width="2"></line><polygon points="-1374.0,-2259.0 -1385.1,-2248.8 -1378.0,-2252.7 -1378.5,-2244.7" fill="rgba(229, 231, 235, 1)" stroke="rgba(229, 231, 235, 1)"></polygon><line x1="-30.3" y1="736.0" x2="9.8" y2="839.0" stroke="rgba(229, 231, 235, 1)" stroke-width="2"></line><polygon points="9.8,839.0 8.2,824.1 7.1,832.0 0.9,826.9" fill="rgba(229, 231, 235, 1)" stroke="rgba(229, 231, 235, 1)"></polygon><line x1="-439.6" y1="-1262.0" x2="-361.6" y2="-1332.0" stroke="rgba(229, 231, 235, 1)" stroke-width="2"></line><polygon points="-361.6,-1332.0 -375.0,-1325.2 -367.2,-1327.0 -369.8,-1319.4" fill="rgba(229, 231, 235, 1)" stroke="rgba(229, 231, 235, 1)"></polygon><line x1="-222.0" y1="-1702.1" x2="198.0" y2="-1902.9" stroke="rgba(229, 231, 235, 1)" stroke-width="2"></line><polygon points="198.0,-1902.9 183.0,-1902.9 190.8,-1900.9 185.0,-1895.4" fill="rgba(229, 231, 235, 1)" stroke="rgba(229, 231, 235, 1)"></polygon><line x1="362.0" y1="-1750.0" x2="362.0" y2="-1717.0" stroke="rgba(229, 231, 235, 1)" stroke-width="2"></line><polygon points="362.0,-1717.0 365.9,-1731.5 362.0,-1724.5 358.1,-1731.5" fill="rgba(229, 231, 235, 1)" stroke="rgba(229, 231, 235, 1)"></polygon><line x1="362.0" y1="-1641.0" x2="362.0" y2="-1600.0" stroke="rgba(229, 231, 235, 1)" stroke-width="2"></line><polygon points="362.0,-1600.0 365.9,-1614.5 362.0,-1607.5 358.1,-1614.5" fill="rgba(229, 231, 235, 1)" stroke="rgba(229, 231, 235, 1)"></polygon><line x1="331.4" y1="-1866.0" x2="347.1" y2="-1826.0" stroke="rgba(229, 231, 235, 1)" stroke-width="2"></line><polygon points="347.1,-1826.0 345.4,-1840.9 344.4,-1833.0 338.2,-1838.1" fill="rgba(229, 231, 235, 1)" stroke="rgba(229, 231, 235, 1)"></polygon><rect x="476.0" y="-355.0" width="259.0" height="186.0" rx="8" ry="8" fill="rgba(0, 0, 0, 0)" stroke="rgba(229, 231, 235, 1)" stroke-width="2"></rect><text x="490.0" y="-325.0" fill="rgba(229, 231, 235, 1)" font-size="32" text-anchor="start" font-family="-apple-system, BlinkMacSystemFont, MiSans, system-ui, sans-serif">连线</text><rect x="460.0" y="-42.0" width="278.0" height="186.0" rx="8" ry="8" fill="rgba(0, 0, 0, 0)" stroke="rgba(229, 231, 235, 1)" stroke-width="2"></rect><text x="474.0" y="-12.0" fill="rgba(229, 231, 235, 1)" font-size="32" text-anchor="start" font-family="-apple-system, BlinkMacSystemFont, MiSans, system-ui, sans-serif">图片</text><rect x="-803.0" y="-808.0" width="491.0" height="336.0" rx="8" ry="8" fill="rgba(0, 0, 0, 0)" stroke="rgba(229, 231, 235, 1)" stroke-width="2"></rect><text x="-789.0" y="-778.0" fill="rgba(229, 231, 235, 1)" font-size="32" text-anchor="start" font-family="-apple-system, BlinkMacSystemFont, MiSans, system-ui, sans-serif">更丰富的节点渲染</text><rect x="-340.0" y="295.0" width="471.0" height="186.0" rx="8" ry="8" fill="rgba(0, 0, 0, 0)" stroke="rgba(229, 231, 235, 1)" stroke-width="2"></rect><text x="-326.0" y="325.0" fill="rgba(229, 231, 235, 1)" font-size="32" text-anchor="start" font-family="-apple-system, BlinkMacSystemFont, MiSans, system-ui, sans-serif">Section功能完善</text><rect x="-1947.0" y="203.0" width="555.0" height="186.0" rx="8" ry="8" fill="rgba(0, 0, 0, 0)" stroke="rgba(229, 231, 235, 1)" stroke-width="2"></rect><text x="-1933.0" y="233.0" fill="rgba(229, 231, 235, 1)" font-size="32" text-anchor="start" font-family="-apple-system, BlinkMacSystemFont, MiSans, system-ui, sans-serif">工具栏优化</text><rect x="-671.0" y="-1906.0" width="449.0" height="412.0" rx="8" ry="8" fill="rgba(0, 0, 0, 0)" stroke="rgba(229, 231, 235, 1)" stroke-width="2"></rect><text x="-657.0" y="-1876.0" fill="rgba(229, 231, 235, 1)" font-size="32" text-anchor="start" font-family="-apple-system, BlinkMacSystemFont, MiSans, system-ui, sans-serif">自动计算引擎</text><rect x="-2064.0" y="-103.0" width="328.4" height="186.0" rx="8" ry="8" fill="rgba(0, 0, 0, 0)" stroke="rgba(229, 231, 235, 1)" stroke-width="2"></rect><text x="-2050.0" y="-73.0" fill="rgba(229, 231, 235, 1)" font-size="32" text-anchor="start" font-family="-apple-system, BlinkMacSystemFont, MiSans, system-ui, sans-serif">布局功能</text><rect x="-2696.0" y="-2007.0" width="593.3" height="443.0" rx="8" ry="8" fill="rgba(0, 0, 0, 0)" stroke="rgba(229, 231, 235, 1)" stroke-width="2"></rect><text x="-2682.0" y="-1977.0" fill="rgba(229, 231, 235, 1)" font-size="32" text-anchor="start" font-family="-apple-system, BlinkMacSystemFont, MiSans, system-ui, sans-serif">插件</text><rect x="-101.0" y="-325.0" width="259.0" height="444.0" rx="8" ry="8" fill="rgba(0, 0, 0, 0)" stroke="rgba(229, 231, 235, 1)" stroke-width="2"></rect><text x="-87.0" y="-295.0" fill="rgba(229, 231, 235, 1)" font-size="32" text-anchor="start" font-family="-apple-system, BlinkMacSystemFont, MiSans, system-ui, sans-serif">节点优化</text><rect x="-907.0" y="-2415.0" width="231.0" height="282.0" rx="8" ry="8" fill="rgba(0, 0, 0, 0)" stroke="rgba(229, 231, 235, 1)" stroke-width="2"></rect><text x="-893.0" y="-2385.0" fill="rgba(229, 231, 235, 1)" font-size="32" text-anchor="start" font-family="-apple-system, BlinkMacSystemFont, MiSans, system-ui, sans-serif">AI专项计划</text><rect x="-1086.0" y="203.0" width="342.0" height="309.0" rx="8" ry="8" fill="rgba(0, 0, 0, 0)" stroke="rgba(229, 231, 235, 1)" stroke-width="2"></rect><text x="-1072.0" y="233.0" fill="rgba(229, 231, 235, 1)" font-size="32" text-anchor="start" font-family="-apple-system, BlinkMacSystemFont, MiSans, system-ui, sans-serif">优化键盘操作</text><rect x="-340.0" y="550.0" width="547.0" height="186.0" rx="8" ry="8" fill="rgba(0, 0, 0, 0)" stroke="rgba(229, 231, 235, 1)" stroke-width="2"></rect><text x="-326.0" y="580.0" fill="rgba(229, 231, 235, 1)" font-size="32" text-anchor="start" font-family="-apple-system, BlinkMacSystemFont, MiSans, system-ui, sans-serif">多层嵌套Section完善</text><rect x="-961.0" y="-159.0" width="516.3" height="186.0" rx="8" ry="8" fill="rgba(0, 0, 0, 0)" stroke="rgba(229, 231, 235, 1)" stroke-width="2"></rect><text x="-947.0" y="-129.0" fill="rgba(229, 231, 235, 1)" font-size="32" text-anchor="start" font-family="-apple-system, BlinkMacSystemFont, MiSans, system-ui, sans-serif">性能优化</text><rect x="-158.0" y="839.0" width="408.0" height="186.0" rx="8" ry="8" fill="rgba(0, 0, 0, 0)" stroke="rgba(229, 231, 235, 1)" stroke-width="2"></rect><text x="-144.0" y="869.0" fill="rgba(229, 231, 235, 1)" font-size="32" text-anchor="start" font-family="-apple-system, BlinkMacSystemFont, MiSans, system-ui, sans-serif">增加表格元素</text></svg>