<svg viewBox="0 0 824 824" fill="none" xmlns="http://www.w3.org/2000/svg">
  <style>
    #group1 {
      animation: rotate1 3s ease-out;
      transform-origin: 50% 50%;
    }

    @keyframes rotate1 {
      0% {
        transform: rotate(0deg);
      }

      100% {
        transform: rotate(360deg);
      }
    }

    #group2 {
      animation: rotate2 3s ease-out;
      transform-origin: 50% 50%;
    }

    @keyframes rotate2 {
      0% {
        transform: rotate(360deg);
      }

      100% {
        transform: rotate(0deg);
      }
    }
  </style>
  <g id=" Project Graph Logo Animated">
    <rect width="824" height="824" rx="185.4" fill="#243348"></rect>
    <g id="group1">
      <path id="Ellipse 3"
        d="M315 274.5C315 306.016 307.459 326.315 294.887 338.887C282.315 351.459 262.016 359 230.5 359C198.984 359 178.685 351.459 166.113 338.887C153.541 326.315 146 306.016 146 274.5C146 242.984 153.541 222.685 166.113 210.113C178.685 197.541 198.984 190 230.5 190C262.016 190 282.315 197.541 294.887 210.113C307.459 222.685 315 242.984 315 274.5Z"
        fill="#6AA645" fill-opacity="0.42" stroke="#7EB886" stroke-width="30"></path>
      <path id="Ellipse 4"
        d="M678 550.5C678 582.016 670.459 602.315 657.887 614.887C645.315 627.459 625.016 635 593.5 635C561.984 635 541.685 627.459 529.113 614.887C516.541 602.315 509 582.016 509 550.5C509 518.984 516.541 498.685 529.113 486.113C541.685 473.541 561.984 466 593.5 466C625.016 466 645.315 473.541 657.887 486.113C670.459 498.685 678 518.984 678 550.5Z"
        fill="#6AA645" fill-opacity="0.42" stroke="#7EB886" stroke-width="30"></path>
      <path id="Vector 7" d="M318 304C370.657 304 417.771 339.862 417.771 411.586C417.771 498.489 453.8 544 512 544"
        stroke="#7EB886" stroke-width="30" stroke-linecap="round"></path>
    </g>
    <g id="group2">
      <path id="Ellipse 3_2"
        d="M315 550.5C315 582.016 307.459 602.315 294.887 614.887C282.315 627.459 262.016 635 230.5 635C198.984 635 178.685 627.459 166.113 614.887C153.541 602.315 146 582.016 146 550.5C146 518.984 153.541 498.685 166.113 486.113C178.685 473.541 198.984 466 230.5 466C262.016 466 282.315 473.541 294.887 486.113C307.459 498.685 315 518.984 315 550.5Z"
        fill="#387EB1" fill-opacity="0.7" stroke="#62B1FA" stroke-width="30"></path>
      <path id="Ellipse 5"
        d="M678 274.5C678 306.016 670.459 326.315 657.887 338.887C645.315 351.459 625.016 359 593.5 359C561.984 359 541.685 351.459 529.113 338.887C516.541 326.315 509 306.016 509 274.5C509 242.984 516.541 222.685 529.113 210.113C541.685 197.541 561.984 190 593.5 190C625.016 190 645.315 197.541 657.887 210.113C670.459 222.685 678 242.984 678 274.5Z"
        fill="#387EB1" fill-opacity="0.7" stroke="#62B1FA" stroke-width="30"></path>
      <path id="Vector 7_2" d="M313 550C367.014 550 415.343 513.241 415.343 439.724C415.343 350.649 452.3 304 512 304"
        stroke="#62B1FA" stroke-width="30" stroke-linecap="round"></path>
    </g>
  </g>
</svg>